<svg width="103" height="24" viewBox="0 0 103 24" fill="none" xmlns="http://www.w3.org/2000/svg">
<path d="M6.61476 14.2624L6.08839 11.9029H3.2864L2.78063 14.2624H0L3.2864 0.210556H6.1929L9.56398 14.2624H6.61476ZM5.66653 9.73334C5.3713 8.38537 5.07684 7.05799 4.86629 5.68866C4.78161 5.07761 4.6977 4.44596 4.63438 3.83491C4.50774 5.81529 4.108 7.77432 3.7075 9.73411H5.66653V9.73334Z" fill="white"/>
<path d="M16.313 3.39168C15.7439 2.90726 15.0909 2.48616 14.312 2.48616C13.4904 2.48616 12.9213 3.0339 12.9213 3.8555C12.9213 6.27834 17.1346 6.23639 17.1346 10.1544C17.1346 12.5773 15.6813 14.4944 13.1319 14.4944C12.2683 14.4944 11.4253 14.2624 10.709 13.778V11.1233C11.3407 11.5444 11.9944 11.8816 12.7733 11.8816C13.7216 11.8816 14.4165 11.2919 14.4165 10.3223C14.4165 10.0698 14.3746 9.83785 14.2693 9.60594C14.0168 9.07957 13.2371 8.61575 12.7733 8.29992C11.1934 7.20445 10.1819 6.1929 10.1819 4.14996C10.1819 1.93767 11.4673 0 13.8474 0C14.7957 0 15.4906 0.210549 16.3122 0.674369V3.39168H16.313Z" fill="white"/>
<path d="M23.6517 14.2624L21.0603 7.12055V14.2624H18.2797V0.210556H21.0603V6.4889L23.3985 0.210556H26.2424L23.651 6.69945L26.5582 14.2624H23.6517V14.2624Z" fill="white"/>
<path d="M35.9261 6.44693C35.9475 6.80472 35.9475 7.16326 35.9475 7.52104C35.9475 8.51123 35.9055 9.52279 35.695 10.4916C35.2312 12.6612 33.8199 14.4944 31.439 14.4944C27.6468 14.4944 26.4461 10.4069 26.4461 7.28913C26.4461 4.06605 27.4996 0 31.439 0C33.588 0 34.9779 1.34797 35.5684 3.32836L32.8716 4.38187C32.745 3.56027 32.5139 2.44344 31.4604 2.44344C29.5646 2.44344 29.4167 5.9198 29.4167 7.24718C29.4167 8.63787 29.48 11.9662 31.481 11.9662C32.9975 11.9662 33.1661 10.0705 33.1875 8.93233H31.4176V6.44617H35.9261V6.44693Z" fill="white"/>
<path d="M42.766 14.2624L42.2396 11.9029H39.4376L38.9318 14.2624H36.1512L39.4376 0.210556H42.3449L45.7159 14.2624H42.766ZM41.8185 9.73334C41.5233 8.38537 41.2288 7.05799 41.0183 5.68866C40.9336 5.07761 40.8497 4.44596 40.7863 3.83491C40.6597 5.81529 40.26 7.77432 39.8595 9.73411H41.8185V9.73334Z" fill="white"/>
<path d="M56.383 14.2624L55.6881 4.14997C55.6247 5.24544 55.4561 6.31954 55.267 7.39441L54.0243 14.2624H51.8959L50.5899 7.90019C50.4426 7.20522 50.2946 6.5095 50.2321 5.79317L50.0635 4.14997L49.621 14.2624H46.6505L47.8726 0.210556H51.5381L52.9074 8.51124L54.0243 0.210556H57.7745L59.2277 14.2624H56.383V14.2624Z" fill="white"/>
<path d="M63.3472 0.210556C64.0849 0.210556 65.3276 0.252514 66.2964 1.20075C67.0547 1.93844 67.4552 3.09646 67.4552 4.23465C67.4552 4.92961 67.308 5.62534 66.8022 6.23639C66.5703 6.51026 66.2125 6.84744 65.6854 7.05799C66.5909 7.39518 67.0333 8.02683 67.2019 8.30069C67.6024 8.97506 67.6863 9.7547 67.6863 10.2811C67.6863 11.3346 67.4125 12.2828 66.6328 13.0617C65.5587 14.1358 64.1467 14.2624 63.3251 14.2624H60.3759V0.210556H63.3472ZM63.1572 5.98312C63.5997 5.96176 64.1055 5.77257 64.3793 5.49871C64.7798 5.0982 64.8218 4.50851 64.8218 4.19269C64.8218 3.8555 64.7798 3.32913 64.3793 2.92863C64.1474 2.69672 63.7683 2.50753 63.1572 2.50753V5.98312ZM63.1572 11.861C63.5997 11.861 64.1055 11.7137 64.4213 11.4185C64.7165 11.1446 64.9477 10.6602 64.9477 10.0492C64.9477 9.3748 64.7158 8.86902 64.3999 8.57456C64.0628 8.27933 63.557 8.1321 63.1572 8.1321V11.861V11.861Z" fill="white"/>
<path d="M69.0312 14.2624V0.210556H71.8119V11.6291H74.7191V14.2624H69.0312V14.2624Z" fill="white"/>
<path d="M75.8642 14.2624V0.210556H81.4468V2.82259H78.6448V5.85649H81.1096V8.51124H78.6448V11.671H81.4887V14.2624H75.8642V14.2624Z" fill="white"/>
<path d="M88.0768 14.2624L85.6121 7.79492V14.2624H82.8314V0.210556H85.844C86.8761 0.210556 88.0135 0.295233 88.8985 0.884925C90.0153 1.62261 90.563 2.99195 90.563 4.29796C90.563 5.89921 89.9314 7.03663 88.562 7.87959L91.0055 14.2632H88.0768V14.2624ZM85.6113 6.25699C85.7585 6.27835 85.9271 6.27835 86.0751 6.27835C87.2758 6.27835 87.8655 5.45675 87.8655 4.31932C87.8655 3.1819 87.3598 2.40225 86.1384 2.40225H85.6121V6.25699H85.6113Z" fill="white"/>
<path d="M97.7537 3.39168C97.1846 2.90726 96.5316 2.48616 95.7527 2.48616C94.9311 2.48616 94.362 3.0339 94.362 3.8555C94.362 6.27834 98.5753 6.23639 98.5753 10.1544C98.5753 12.5773 97.1213 14.4944 94.5726 14.4944C93.709 14.4944 92.866 14.2624 92.1497 13.778V11.1233C92.7814 11.5444 93.4351 11.8816 94.214 11.8816C95.1623 11.8816 95.8572 11.2919 95.8572 10.3223C95.8572 10.0698 95.8153 9.83785 95.71 9.60594C95.4575 9.07957 94.6778 8.61575 94.214 8.29992C92.6341 7.20445 91.6226 6.1929 91.6226 4.14996C91.6226 1.93767 92.908 0 95.2881 0C96.2364 0 96.9313 0.210549 97.7529 0.674369V3.39168H97.7537Z" fill="white"/>
<path d="M100.727 3.92797C101.738 3.92797 102.557 3.10894 102.557 2.09863C102.557 1.08831 101.738 0.269287 100.727 0.269287C99.717 0.269287 98.898 1.08831 98.898 2.09863C98.898 3.10894 99.717 3.92797 100.727 3.92797Z" fill="white"/>
<path d="M11.485 24C12.5997 24 13.2767 23.422 13.6978 22.7615L12.8722 22.3404C12.6079 22.8028 12.0795 23.1413 11.485 23.1413C10.3952 23.1413 9.586 22.3074 9.586 21.1514C9.586 19.9955 10.3952 19.1616 11.485 19.1616C12.0795 19.1616 12.6079 19.5084 12.8722 19.9625L13.6978 19.5414C13.285 18.8809 12.5997 18.3029 11.485 18.3029C9.85847 18.3029 8.5952 19.4588 8.5952 21.1514C8.5952 22.8441 9.85847 24 11.485 24Z" fill="white"/>
<path d="M18.2443 23.9009V23.0505H15.437V21.523H18.1865V20.6726H15.437V19.2441H18.2443V18.3937H14.471V23.9009H18.2443Z" fill="white"/>
<path d="M23.4968 23.9009L22.1509 21.7377C22.8115 21.6303 23.4555 21.1019 23.4555 20.1194C23.4555 19.1038 22.7454 18.3937 21.6555 18.3937H19.2363V23.9009H20.2024V21.845H21.1601L22.3821 23.9009H23.4968ZM21.5234 20.9946H20.2024V19.2441H21.5234C22.0684 19.2441 22.4647 19.5909 22.4647 20.1194C22.4647 20.6478 22.0684 20.9946 21.5234 20.9946Z" fill="white"/>
<path d="M26.6191 23.9009V19.2441H28.287V18.3937H23.9853V19.2441H25.6531V23.9009H26.6191Z" fill="white"/>
<path d="M30.0717 23.9009V18.3937H29.1056V23.9009H30.0717Z" fill="white"/>
<path d="M32.2084 23.9009V21.523H34.9579V20.6726H32.2084V19.2441H35.0157V18.3937H31.2424V23.9009H32.2084Z" fill="white"/>
<path d="M36.8447 23.9009V18.3937H35.8787V23.9009H36.8447Z" fill="white"/>
<path d="M40.6576 24C41.7722 24 42.4493 23.422 42.8704 22.7615L42.0447 22.3404C41.7805 22.8028 41.2521 23.1413 40.6576 23.1413C39.5677 23.1413 38.7585 22.3074 38.7585 21.1514C38.7585 19.9955 39.5677 19.1616 40.6576 19.1616C41.2521 19.1616 41.7805 19.5084 42.0447 19.9625L42.8704 19.5414C42.4575 18.8809 41.7722 18.3029 40.6576 18.3029C39.031 18.3029 37.7677 19.4588 37.7677 21.1514C37.7677 22.8441 39.031 24 40.6576 24Z" fill="white"/>
<path d="M48.5572 23.9009L46.394 18.3937H45.1885L43.0252 23.9009H44.1234L44.528 22.8441H47.0545L47.4591 23.9009H48.5572ZM46.782 21.9936H44.8004L45.7912 19.368L46.782 21.9936Z" fill="white"/>
<path d="M50.8973 23.9009V19.2441H52.5652V18.3937H48.2635V19.2441H49.9313V23.9009H50.8973Z" fill="white"/>
<path d="M57.1571 23.9009V23.0505H54.3499V21.523H57.0993V20.6726H54.3499V19.2441H57.1571V18.3937H53.3838V23.9009H57.1571Z" fill="white"/>
<path d="M62.8376 24C64.4889 24 65.6531 22.7945 65.6531 21.1514C65.6531 19.5084 64.4889 18.3029 62.8376 18.3029C61.1863 18.3029 60.0221 19.5084 60.0221 21.1514C60.0221 22.7945 61.1863 24 62.8376 24ZM62.8376 23.1413C61.7229 23.1413 61.0129 22.2826 61.0129 21.1514C61.0129 20.012 61.7229 19.1616 62.8376 19.1616C63.944 19.1616 64.6623 20.012 64.6623 21.1514C64.6623 22.2826 63.944 23.1413 62.8376 23.1413Z" fill="white"/>
<path d="M67.5493 23.9009V21.523H70.2987V20.6726H67.5493V19.2441H70.3565V18.3937H66.5832V23.9009H67.5493Z" fill="white"/>
<path d="M75.619 23.9009V19.2441H77.2869V18.3937H72.9851V19.2441H74.653V23.9009H75.619Z" fill="white"/>
<path d="M82.3659 23.9009L81.0201 21.7377C81.6806 21.6303 82.3247 21.1019 82.3247 20.1194C82.3247 19.1038 81.6146 18.3937 80.5247 18.3937H78.1055V23.9009H79.0715V21.845H80.0293L81.2513 23.9009H82.3659ZM80.3926 20.9946H79.0715V19.2441H80.3926C80.9375 19.2441 81.3339 19.5909 81.3339 20.1194C81.3339 20.6478 80.9375 20.9946 80.3926 20.9946Z" fill="white"/>
<path d="M85.6763 24C87.2698 24 88.0542 23.0918 88.0542 21.7212V18.3937H87.0799V21.6964C87.0799 22.5716 86.5928 23.1413 85.6763 23.1413C84.7515 23.1413 84.2644 22.5716 84.2644 21.6964V18.3937H83.2901V21.7294C83.2901 23.0835 84.0745 24 85.6763 24Z" fill="white"/>
<path d="M91.1071 24C92.5933 24 93.2373 23.2156 93.2373 22.2991C93.2373 20.2432 90.0338 20.879 90.0338 19.8551C90.0338 19.4423 90.397 19.1698 90.9668 19.1698C91.5447 19.1698 92.1309 19.368 92.5603 19.7973L93.1135 19.079C92.6016 18.5836 91.908 18.3111 91.0493 18.3111C89.8438 18.3111 89.0429 19.013 89.0429 19.9212C89.0429 21.9523 92.2548 21.234 92.2548 22.3899C92.2548 22.7532 91.941 23.1413 91.1484 23.1413C90.3805 23.1413 89.7861 22.7863 89.4062 22.3817L88.8696 23.1248C89.3567 23.645 90.0916 24 91.1071 24Z" fill="white"/>
<path d="M96.3252 23.9009V19.2441H97.9931V18.3937H93.6913V19.2441H95.3592V23.9009H96.3252Z" fill="white"/>
<path fill-rule="evenodd" clip-rule="evenodd" d="M7.6312 18.2253C7.88576 18.4798 7.88576 18.8925 7.6312 19.1471L3.50286 23.2754C3.2483 23.53 2.83558 23.53 2.58102 23.2754L0.408206 21.1026C0.153645 20.8481 0.153645 20.4353 0.408206 20.1808C0.662766 19.9262 1.07549 19.9262 1.33005 20.1808L3.04194 21.8927L6.70936 18.2253C6.96392 17.9707 7.37664 17.9707 7.6312 18.2253Z" fill="white"/>
</svg>
