<svg fill="none" height="31" viewBox="0 0 164 31" width="164" xmlns="http://www.w3.org/2000/svg"><g fill="#fff"><path clip-rule="evenodd" d="m0 0h24.0066v30.1734h-24.0066zm5.81443 25.5923v-20.13026h5.90257c2.0703 0 3.7001.44049 4.8453 1.36551 1.1453.92503 1.762 2.29054 1.762 4.09655 0 .881-.2203 1.7619-.6167 2.5548-.4405.7488-1.1012 1.3215-1.8941 1.6739.9691.1762 1.85.7928 2.3346 1.6298.5286.8809.7929 1.8941.7488 2.9072 0 1.9381-.5286 3.3917-1.6298 4.3608s-2.687 1.4977-4.7132 1.4977zm3.65605-8.8978v5.7704h2.77512c.7047.044 1.3655-.2203 1.85-.7048.4405-.5727.6607-1.3215.6167-2.0703.044-.7488-.1322-1.5417-.5286-2.2024-.3964-.5286-1.0131-.837-1.6739-.7929zm0-2.731h2.15842c.7047.044 1.3655-.2203 1.85-.7048.4405-.5286.7048-1.2334.6167-1.9382.044-.7488-.1762-1.49763-.6607-2.07026-.5286-.48454-1.2774-.70478-1.9822-.66074h-1.98222z" fill-rule="evenodd"/><path d="m48.4536 30.1293h-1.4095v-30.1293h1.4095z"/><path d="m72.9447 30.1293h-1.4095v-30.1293h1.4095z"/><path d="m97.3917 30.1293h-1.4095v-30.1293h1.4095z"/><path d="m121.883 30.1293h-1.366v-30.1293h1.366z"/><path d="m146.418 30.1293h-1.41v-30.1293h1.41z"/><path d="m41.67 22.2445c-.5285.9251-1.3214 1.6739-2.2464 2.2025-1.1894.7048-2.5989 1.0131-3.9644.9691-2.1144 0-3.8323-.6608-5.1097-1.9382s-1.9381-3.0834-1.9381-5.462v-5.9466c0-2.3346.6167-4.1406 1.85-5.41801 1.2334-1.27741 2.8632-1.93814 4.8894-1.8941 2.0703 0 3.612.52859 4.7132 1.54171 1.1013 1.01312 1.6739 2.46673 1.762 4.3608l-.044.0881h-2.643c-.044-1.27739-.3524-2.24646-.969-2.86315-.6167-.61668-1.5418-.96907-2.7311-.96907-1.1012-.04405-2.2024.44049-2.9072 1.32146-.7048.88098-1.0572 2.15836-1.0572 3.83226v5.9906c0 1.7179.3965 3.0394 1.1453 3.9204.7488.8809 1.8941 1.4095 3.0834 1.3655.7929.044 1.5417-.1322 2.2465-.4846.4845-.3083.925-.7488 1.1893-1.2333v-4.6252h-3.4358v-2.0262h6.2549v7.268z"/><path d="m57.2634 18.2362h5.1097l-2.4668-8.8098h-.0881zm5.7704 2.2024h-6.3871l-1.4536 5.0656h-2.8631l6.1668-20.08623h2.731l6.1228 20.08623h-2.8632z"/><path d="m79.7283 5.41797 4.7132 16.38613h.0881l4.7133-16.38613h3.612v20.08623h-2.7751v-7.7085l.2202-7.7086-.0881-.044-4.8013 15.4611h-1.85l-4.8454-15.4171h-.044l.2202 7.7086v7.7085h-2.7751v-20.08623z"/><path d="m110.254 25.5042h-2.775v-20.08623h2.775z"/><path d="m140.427 25.5042h-2.819l-7.62-14.9325h-.088v14.9325h-2.775v-20.08623h2.775l7.62 14.88843h.088v-14.88843h2.819z"/><path d="m163.861 22.3767c-.572.925-1.321 1.6739-2.246 2.2025-1.19.7047-2.599 1.0131-3.965.969-2.114 0-3.788-.6167-5.109-1.8941-1.278-1.2774-1.938-3.0834-1.938-5.462v-6.0347c0-2.33457.616-4.14057 1.85-5.41799 1.233-1.27741 2.863-1.93814 4.845-1.93814 2.07 0 3.612.52858 4.713 1.54171 1.101 1.01312 1.674 2.46672 1.762 4.36082l-.044.0881h-2.643c-.044-1.27742-.352-2.20244-.969-2.86317s-1.542-.96907-2.731-.96907c-1.101-.04405-2.202.44048-2.907 1.32146-.705.88097-1.057 2.15838-1.057 3.83228v5.9906c0 1.7179.396 3.0394 1.145 3.9203.749.881 1.894 1.4096 3.083 1.3655.793.0441 1.542-.1321 2.247-.4845.484-.3083.925-.7488 1.189-1.2334v-4.581h-3.436v-2.0263h6.211z"/></g></svg>