<svg clip-rule="evenodd" fill-rule="evenodd" height="182" image-rendering="optimizeQuality" shape-rendering="geometricPrecision" text-rendering="geometricPrecision" viewBox="0 0 600 182" width="600" xmlns="http://www.w3.org/2000/svg"><g fill="#fff" fill-rule="nonzero"><path d="m123 78c-8 33-42 54-76 45-33-8-53-42-45-76 8-33 42-53 76-45 33 8 54 42 45 76zm-33-24c1-9-5-13-14-16l3-11-7-2-2 11c-2-1-4-1-6-1l3-11-7-2-3 11c-1 0-3-1-4-1l-10-2-1 7s5 1 5 1c2 1 3 3 3 4l-3 13-5 18c0 1-1 2-3 2 0 0-5-1-5-1l-4 7 9 3c2 0 4 1 5 1l-3 11 7 2 3-11c2 0 4 1 6 1l-3 11 7 2 3-11c11 2 20 1 24-10 3-8 0-13-7-16 5-1 8-4 9-10zm-15 22c-3 8-17 4-22 3l4-16c5 2 20 4 18 13zm2-22c-2 7-14 3-18 2l3-13c4 1 17 3 15 11z"/><path d="m184 38c5 0 9 1 13 3 3 1 6 4 9 7 2 3 4 7 5 11s2 8 2 13c0 7-1 14-4 21-3 6-6 12-11 17-5 4-10 8-16 11-7 3-14 4-21 4-1 0-3 0-5 0s-5 0-8-1c-3 0-7-1-10-1-3-1-7-2-10-4l28-115 24-4-10 41c3-1 5-2 7-2 2-1 4-1 7-1zm-21 68c4 0 7-1 10-3 4-2 7-4 9-7s4-7 6-10c1-4 2-8 2-12 0-5-1-9-3-12s-5-4-9-4c-2 0-4 0-6 0-2 1-5 2-7 4l-10 43h2c0 1 1 1 1 1h2z"/><path d="m239 123h-24l20-83h24zm11-93c-3 0-6-1-9-3s-4-5-4-9c0-3 1-5 1-7 1-2 3-3 4-5 2-1 3-2 5-3s4-1 6-1c4 0 7 1 9 3 3 2 4 4 4 9 0 2 0 4-1 6s-2 3-4 5c-1 1-3 2-5 3s-4 2-6 2z"/><path d="m279 19 25-4-6 25h26l-5 19h-26l-7 29c-1 3-1 5-1 7s0 4 1 5c0 2 1 3 3 4s4 1 7 1h8c2-1 4-2 7-2l2 18c-4 1-7 2-11 3-3 1-8 1-13 1-7 0-13-1-17-3s-7-5-8-9c-2-4-3-8-3-13 1-5 1-10 3-15z"/><path d="m323 90c0-7 1-14 3-21 3-6 6-11 10-16 5-5 10-9 16-11 6-3 13-5 21-5 5 0 9 1 13 2 3 1 7 2 10 3l-8 19c-2-1-5-2-7-3-2 0-5-1-8-1-8 0-14 3-19 9-4 5-7 12-7 21 0 6 1 10 4 13 2 4 6 5 13 5 3 0 6 0 9-1 2 0 5-1 7-2l2 19c-3 1-6 2-10 3s-8 1-13 1c-6 0-12-1-16-3-5-1-9-4-12-7s-5-7-6-12c-1-4-2-8-2-13z"/><path d="m427 125c-5 0-10-1-14-2-5-2-8-4-11-7-2-3-4-7-6-11-1-4-2-9-2-14 0-6 1-13 3-19s5-12 9-17 9-9 15-13c6-3 13-5 20-5 6 0 10 1 15 3 4 2 7 4 10 7s5 7 6 11 2 9 2 14c0 6-1 13-3 19s-5 12-9 17-9 9-14 12c-6 4-13 5-21 5zm12-68c-4 0-7 1-9 3-3 2-5 5-7 8s-3 6-4 10-1 7-1 10c0 6 0 10 2 13s5 4 9 4 7-1 10-3c2-2 4-4 6-7s3-7 4-10c1-4 2-8 2-11 0-5-1-9-3-12s-5-5-9-5z"/><path d="m500 123h-24l20-83h24zm11-93c-3 0-6-1-9-3-2-2-4-5-4-9 0-3 1-5 2-7 0-2 2-3 3-5 2-1 3-2 5-3s4-1 7-1 6 1 8 3c3 2 4 4 4 9 0 2 0 4-1 6s-2 3-4 5c-1 1-3 2-5 3s-4 2-6 2z"/><path d="m537 43c1 0 3-1 5-1 3-1 5-2 8-2 2-1 5-1 9-2h11c12 0 21 3 26 11 4 7 5 17 2 29l-11 45h-23l10-44c1-3 1-5 2-8 0-3 0-5 0-7-1-2-2-3-3-5-2-1-4-1-7-1s-6 0-10 1l-15 64h-24z"/><path d="m252 173-5 8h-5c4-6 7-12 11-17 3-6 6-11 10-15h4c1 2 1 4 1 7 1 2 1 5 1 7 1 3 1 6 2 9 0 3 0 6 1 9h-5c0-1 0-3 0-4-1-2-1-3-1-4zm14-4c0-2-1-5-1-7 0-3-1-6-1-8-1 1-3 3-4 6-2 2-4 6-6 9z"/><path d="m288 182c-2 0-3 0-5-1s-3-2-4-3-2-2-2-4c-1-1-1-3-1-5 0-3 0-5 1-8 1-2 3-5 4-7 2-2 4-3 6-4 2-2 5-2 8-2 2 0 4 0 6 1 1 0 2 1 3 1l-2 4c-1-1-2-1-3-2-1 0-3 0-4 0-3 0-4 0-6 1s-3 3-5 4c-1 2-2 4-2 6-1 2-1 4-1 6 0 6 2 9 8 9h3c1-1 1-1 2-1s1 0 2-1h1l1 4s-1 0-2 0c0 1-1 1-2 1s-1 0-2 1c-1 0-2 0-4 0z"/><path d="m315 182c-2 0-4 0-6-1-1-1-2-2-3-3s-2-2-3-4c0-1 0-3 0-5 0-3 0-5 1-8 1-2 2-5 4-7 1-2 3-3 6-4 2-2 5-2 7-2 3 0 5 0 6 1 2 0 3 1 3 1l-2 4c0-1-1-1-2-2-2 0-3 0-5 0s-4 0-6 1c-1 1-3 3-4 4-1 2-2 4-3 6 0 2-1 4-1 6 0 6 3 9 8 9h3c1-1 2-1 3-1 0 0 1 0 1-1h2v4s0 0-1 0c-1 1-1 1-2 1s-2 0-3 1c-1 0-2 0-3 0z"/><path d="m328 181 7-32h20l-1 3h-15l-2 10h13l-1 4h-13l-3 11h16l-1 4z"/><path d="m368 148c4 0 7 1 9 2 2 2 3 4 3 7 0 2-1 4-1 5-1 2-2 3-4 4-1 1-3 2-5 2-2 1-5 1-7 1h-3l-3 12h-5l8-32c1 0 3-1 4-1zm0 4c-2 0-4 0-4 0l-3 13h3 4c1 0 2-1 3-1l3-3c1-1 1-2 1-4s-1-3-2-4-3-1-5-1z"/><path d="m408 149-1 3h-10l-7 29h-5l7-29h-9v-3z"/><path d="m404 181 7-32h20l-1 3h-15l-2 10h13l-1 4h-13l-3 11h16l-1 4z"/><path d="m444 148c5 0 9 1 11 4 2 2 4 5 4 9 0 3-1 5-2 8-1 2-2 4-4 6-1 2-4 4-6 5-3 1-7 1-10 1-2 0-3 0-5 0-1 0-3 0-4 0l8-32c1 0 3-1 4-1zm0 4c-3 0-4 0-4 0l-6 25s0 0 1 1h3c2 0 4-1 6-2 2 0 4-2 5-3 2-2 3-3 4-5 0-2 1-5 1-7 0-3-1-5-3-7-1-1-4-2-7-2z"/><path d="m494 181h-5l4-15h-15l-4 15h-5l8-32h5l-3 13h15l3-13h4z"/><path d="m501 181 8-32h19l-1 3h-15l-2 10h13l-1 4h-13l-3 11h16l-1 4z"/><path d="m542 148c3 0 6 1 8 2 2 2 3 4 3 7 0 2-1 5-2 6-2 2-4 4-7 4 0 1 1 2 1 3 1 1 1 2 2 3 0 2 1 3 1 4 1 2 1 3 1 4h-4c-1-1-1-2-2-4 0-1 0-2-1-3 0-1-1-2-1-3-1-1-1-2-2-3h-1-1-4l-3 13h-4l7-32c2 0 3-1 4-1zm-1 4c-2 0-3 0-4 0l-3 13h3c1 0 2-1 4-1 1 0 2 0 3-1 2 0 3-1 3-2 1-1 1-2 1-4s0-3-2-4c-1-1-3-1-5-1z"/><path d="m553 181 8-32h19v3h-15l-3 10h14l-1 4h-13l-3 11h16l-1 4z"/></g></svg>