<svg fill="none" height="24" viewBox="0 0 34 24" width="34" xmlns="http://www.w3.org/2000/svg" xmlns:xlink="http://www.w3.org/1999/xlink"><clipPath id="a"><path d="m0 0h33.4945v24h-33.4945z"/></clipPath><g clip-path="url(#a)" fill="#fff"><path d="m32.1508 17.9305v-1.0819h.4606c.0851-.0042.1704.0055.2525.0287.0544.0187.1007.0556.1308.1044.0319.0508.0482.1098.0471.1697.003.0731-.0223.1446-.0707.1997-.0571.058-.1332.0936-.2145.1005.0434.0241.0832.0544.1178.09.0468.0548.0884.1138.1242.1762l.1309.2102h-.2617l-.1583-.235c-.0347-.0556-.0731-.1088-.1151-.1592-.0175-.0203-.0401-.0357-.0655-.0444-.0357-.0099-.0728-.0139-.1099-.0117h-.0444v.4516zm.2185-.6251h.1622c.0662.0035.1325-.0009.1976-.013.0249-.0082.0466-.0242.0615-.0457.0149-.0243.0221-.0525.0209-.0809.0017-.0322-.0085-.0638-.0287-.0888-.0218-.0233-.0509-.0385-.0825-.043-.017 0-.0706 0-.1596 0h-.1701v.2753z"/><path d="m32.5996 18.3011c-.177 0-.35-.0524-.4972-.1505s-.2619-.2375-.3296-.4006c-.0678-.1631-.0855-.3426-.051-.5158.0346-.1732.1198-.3323.245-.4571.1251-.1249.2846-.2098.4582-.2443s.3535-.0168.5171.0508c.1635.0676.3033.182.4016.3288s.1508.3194.1508.496c-.0003.2366-.0947.4635-.2625.6308-.1678.1674-.3952.2616-.6324.2619zm0-1.6902c-.1582-.0002-.3129.0463-.4445.1338-.1317.0875-.2343.2119-.295.3576s-.0767.3061-.046.4608c.0307.1548.1067.297.2185.4087.1117.1116.2541.1877.4092.2186.1552.0309.3159.0151.4621-.0451.1461-.0604.2711-.1626.359-.2937.0879-.1312.1348-.2855.1348-.4432 0-.2113-.0841-.4139-.2337-.5635-.1496-.1495-.3526-.2336-.5644-.234z"/><path d="m0 20.3662v-3.7158h1.28744c1.32234 0 1.98351.6038 1.98351 1.8115.01115.2567-.03254.5128-.12818.7513-.09565.2385-.24106.454-.42658.6322-.39193.3566-.90922.5442-1.43921.522zm.794184-3.0684v2.421h.431766c.16341.0085.3268-.017.47976-.075s.29213-.1471.40863-.2617c.11149-.1236.19733-.2679.25258-.4247.05524-.1568.07879-.323.06928-.4889.00798-.1584-.01788-.3166-.07584-.4642-.05797-.1476-.14674-.2812-.26041-.392-.24027-.213-.55418-.3244-.87531-.3106z"/><path d="m6.97365 20.3662h-.91585l-.58486-.9672c-.07596-.146-.17591-.2784-.29567-.3915-.06976-.0549-.15581-.0852-.24466-.0861h-.23944v1.4356h-.79418v-3.7066h1.30837c.8871 0 1.3306.3358 1.3306 1.0076.00633.237-.07253.4685-.22238.6526-.15909.1878-.3733.3211-.61235.3811v.0104c.17444.0574.36459.2462.57046.5664zm-2.28048-3.1141v1.0702h.39251c.08162.004.16321-.0083.24004-.0361.0768-.0278.14732-.0705.20746-.1258.05538-.0515.09916-.1143.12849-.184.02933-.0698.04346-.1449.04156-.2205 0-.335-.20107-.503-.60316-.5038z"/><path d="m9.55111 20.3662h-2.21249v-3.7158h2.11955v.6526h-1.32538v.8757h1.23122v.6461h-1.23122v.8992h1.41832v.6526z"/><path d="m13.458 20.3662h-.8662l-.2787-.851h-1.3541l-.2735.851h-.8622l1.3646-3.7158h.9329zm-1.332-1.4631-.4239-1.2908c-.0313-.1058-.0506-.2149-.0575-.325h-.0223c-.0084.1071-.03.2127-.0641.3145l-.4265 1.2987z"/><path d="m21.5673 17.2976h-1.0637v3.0684h-.7955v-3.0684h-1.0611v-.6526h2.9203z"/><path d="m24.2822 20.3662h-2.2059v-3.7158h2.1195v.6526h-1.3253v.8757h1.2324v.6461h-1.2324v.8992h1.4117z"/><path d="m27.5518 20.2318c-.334.1459-.6968.2141-1.0611.1997-.5609 0-1.0061-.1674-1.3358-.5024s-.4946-.7818-.4946-1.3405c-.0092-.264.0349-.5271.1298-.7738.0949-.2466.2385-.4717.4223-.6618.186-.1863.4086-.3322.6537-.4286.2453-.0964.5078-.141.7712-.1313.3114-.009.6219.0393.9159.1423v.7648c-.2607-.1488-.5567-.225-.857-.2206-.162-.0072-.3236.0202-.4741.0803s-.2864.1515-.3986.2682c-.2256.2496-.3432.5779-.3271.9136-.0154.3227.0958.6387.3101.8809.1077.1126.2385.2007.3834.2583.145.0577.3007.0836.4565.0759.3185.0033.6318-.0798.9068-.2402v.7257z"/><path d="m31.3867 20.3662h-.7942v-1.5323h-1.5884v1.5323h-.7929v-3.7158h.7929v1.4996h1.5884v-1.4996h.7942z"/><path d="m17.0011 16.6504-.8924 2.3414c-.0216.0332-.0358.0706-.0418.1096l-.9826-2.451h-1.1553v3.7158h.7169v-2.1013c0-.3133-.0104-.6261-.0313-.9384h.0222l1.0742 2.7225h.6319l1.0101-2.7225h.0183c-.0209.3145-.0314.5768-.0314.783v2.2567h.785v-3.7158z"/><path d="m13.4096 23.9783h-.5534l-.178-.5442h-.8635l-.1702.5442h-.5534l.8701-2.3714h.5993zm-.8491-.9344-.2709-.8223c-.0197-.0672-.032-.1363-.0366-.2062h-.0131c-.0066.0683-.0207.1357-.0419.201l-.2708.8275z"/><path d="m17.4459 21.6069v2.3714h-.5063v-2.3714z"/><path d="m20.1085 23.9783h-.5233l-1.0062-1.5374c-.0418-.0616-.0798-.1257-.1138-.1919h-.0079c.0113.1255.0161.2514.0144.3772v1.3496h-.4802v-2.3689h.5522l.9734 1.4866c.0654.0992.1047.1618.1191.1892h.0078c-.0138-.106-.02-.2128-.0183-.3197v-1.3561h.4802v2.3714z"/><path d="m15.6692 21.6071-.5692 1.4944c-.0136.0208-.0225.0445-.0261.0692l-.628-1.5662h-.7353v2.3715h.4566v-1.3391c0-.2002-.0065-.3999-.0197-.5991h.0132l.6855 1.7371h.403l.6437-1.7371h.0131c-.0144.201-.0209.368-.0209.5012v1.4356h.5011v-2.3675z"/><path d="m10.3676 23.0456v.4868c-.1018.0443-.2122.0653-.3232.0613-.09702.0046-.19391-.0115-.28417-.0473-.09025-.0358-.17179-.0904-.23915-.1602-.13615-.162-.20498-.3698-.19237-.5808-.00496-.1072.01128-.2145.04789-.3155s.09278-.1938.16536-.2731c.07164-.0743.15825-.1326.25409-.171.09584-.0385.19875-.0563.30195-.0522.2354-.0077.4686.0477.6752.1605v-.4789c-.2128-.0757-.4376-.112-.6634-.1071-.17397-.0076-.34772.0196-.51108.0799-.16331.0603-.31295.1525-.44007.2712-.12064.1189-.21506.2615-.27725.4188-.06218.1573-.09072.3259-.08386.4948-.00887.1599.01582.3199.07231.4698.05655.1498.14374.2864.25609.4008.12043.1098.26158.1945.41529.2492.15365.0547.31669.0782.47967.0692.2982.0096.5938-.0593.857-.1996v-1.1747h-.5103v.4046z"/><path d="m22.0855 22.6405v.8915c-.1018.0443-.2122.0653-.3232.0612-.097.0047-.1939-.0115-.2842-.0473-.0902-.0357-.1718-.0904-.2391-.1602-.1362-.1619-.205-.3697-.1924-.5808-.005-.1072.0113-.2144.0479-.3154.0366-.1011.0928-.1938.1654-.2732.0719-.0742.1587-.1326.2547-.171.0961-.0385.1992-.0563.3026-.0521.2354-.0074.4685.048.6752.1605v-.479c-.2132-.0755-.4385-.1118-.6647-.107-.1742-.0078-.3482.0193-.5118.0796-.1635.0603-.3134.1526-.4407.2715-.1206.1188-.215.2615-.2772.4187-.0622.1574-.0907.3259-.0839.4949-.0086.1598.0162.3197.0727.4696.0565.1498.1436.2863.2557.4009.1207.1099.2621.1946.416.2493s.3172.0782.4803.0691c.2978.0098.593-.0591.8556-.1996v-1.1747z"/><path clip-rule="evenodd" d="m8.84133.87c-.25757.25721-.4023.60591-.4023.96948v7.06997l1.51643-.10829c-.01472-.05006-.02221-.10191-.02226-.15403v-.24538l-.5011-.57816.5011.4359v-7.791717h-.12037c-.36449.000346-.71388.145021-.9715.402227zm13.50167 13.4687c.2578-.2572.4028-.6058.4032-.9695v-.0105-4.43749l-1.5544.11093c-.0324.03623-.0688.06867-.1086.09658l.7576.87448-.9159-.79357c-.0144.01176-.0288.01176-.0432.01176l-.1308 1.82721-.1308-1.82721c-.0049-.0013-.0097-.00305-.0145-.0048-.0096-.00348-.0192-.00696-.0287-.00696l-.9159.79357.7562-.87185c-.04-.02758-.0765-.06002-.1086-.09658l-1.7009-.12137 1.5701-.11224c-.0143-.05011-.0213-.10197-.0209-.15403v-.24538l-.5011-.57816.5063.4359v-7.791717h-1.4v6.340377l.335-.28974-.335.39155v.21278c-.0008.04425-.0079.08814-.0209.1305l1.1436.08091-1.2339.08877c-.0303.03635-.0656.06836-.1046.09526l.5508.63429-.6686-.57816c-.0174.00659-.0354.01181-.0536.01566l-.0981 1.34822-.0969-1.34822c-.0182-.00385-.0362-.00907-.0536-.01566l-.6686.57816.5508-.63429c-.0394-.02648-.0746-.05855-.1047-.09526l-1.2337-.08877 1.1435-.08091c-.0127-.04236-.0193-.0863-.0196-.1305v-.21278l-.3402-.39155.3402.28848v-6.339117h-1.4746v9.052487l.5927-.49983-.5796.66688v.28452c.0002.05997-.0078.11967-.0235.17757l1.8159.1305-1.9625.1396c-.0391.0424-.0829.0801-.1308.1122l.8739 1.0064-1.061-.9137-.0498.0144-.1517 2.113-.1518-2.113-.051-.0144-1.0598.9137.874-1.0064c-.0479-.0321-.0918-.0698-.1309-.1122l-1.9625-.1396 1.816-.1305c-.0158-.0579-.0237-.1176-.0235-.17757v-.28452l-.5797-.66688.5797.49983v-9.052487h-1.4694v6.340377l.335-.28974-.335.39155v.21278c-.0009.04425-.0079.08814-.0209.1305l1.1436.08091-1.2338.08877c-.0305.03635-.0657.06836-.1048.09526l.5509.63429-.6686-.57816c-.0174.00659-.0354.01181-.0536.01566l-.0969 1.34822-.0981-1.34822c-.0182-.00385-.0362-.00907-.0536-.01566l-.6686.57816.5508-.63429c-.0394-.02648-.0746-.05855-.1047-.09526l-1.2337-.08877 1.1435-.08091c-.0131-.04231-.0202-.08625-.021-.1305v-.21278l-.3349-.39155.3415.28848v-6.339117h-1.4v7.791717l.4946-.4359-.4959.57558v.24533c-.0003.05206-.0073.1038-.0209.15402l1.57.11224-1.7008.12138c-.0321.03655-.0686.06899-.1087.09658l.7524.87708-.9159-.79353c-.0141.00511-.0285.00907-.0432.01176l-.1308 1.82717-.1309-1.82717c-.0047-.00131-.0095-.00303-.0142-.00476-.0097-.0035-.0193-.007-.029-.007l-.9158.79353.7562-.87186c-.04-.02759-.0765-.06003-.1086-.09658l-1.64067-.11747v4.44931c.00036.3634.14516.7119.40267.969.25756.2572.60675.402.97113.4027h11.55827c.3646-.0004.7141-.145.9719-.4022zm-1.0256-5.53496 1.4288.1018v-7.06606c0-.36357-.1447-.71227-.4023-.96948-.2576-.257206-.607-.401881-.9715-.402227h-.034v7.787817l.5011-.432-.5011.5808v.24533c-.0003.05206-.0074.10381-.021.15402z" fill-rule="evenodd"/></g></svg>