<svg fill="none" height="30" viewBox="0 0 69 30" width="69" xmlns="http://www.w3.org/2000/svg"><path clip-rule="evenodd" d="m6 0c-3.31371 0-6 2.68629-6 6v18c0 3.3137 2.68629 6 6 6h56.9189c3.3137 0 6-2.6863 6-6v-18c0-3.31371-2.6863-6-6-6zm-.37842 1.62158c-2.20914 0-4 1.79086-4 4v12.27032c0 2.2091 1.79086 4 4 4h57.67572c2.2091 0 4-1.7909 4-4.0001v-12.27022c0-2.20914-1.7909-4-4-4z" fill="#fff" fill-rule="evenodd"/><path d="m12.9405 11.4486h6.3033v.6324c0 2.2065-.7028 4.0476-2.1082 5.5232-1.4054 1.4617-3.2113 2.1925-5.4178 2.1925-2.20648 0-4.09675-.8152-5.67081-2.4454-1.57405-1.6444-2.36108-3.5768-2.36108-5.7973 0-2.29084.80108-4.25138 2.40325-5.88165 1.61621-1.63027 3.5627-2.4454 5.83944-2.4454 1.2508 0 2.4454.27405 3.5838.82216 1.1524.53405 2.1151 1.28594 2.8881 2.25567l-1.3913 1.32811c-.5763-.78703-1.3141-1.41243-2.2136-1.87622-.8994-.47783-1.827-.71675-2.7827-.71675-1.7708 0-3.27455.63243-4.51131 1.8973-1.2227 1.25081-1.83406 2.76864-1.83406 4.55348 0 1.7006.60433 3.2114 1.81298 4.5325 1.2227 1.307 2.67729 1.9605 4.36379 1.9605 1.2649 0 2.4384-.4708 3.5205-1.4124 1.0822-.9417 1.6444-2.0449 1.6865-3.3098h-4.1108z" fill="#fff"/><path d="m23.1917 12.7978v6.6616h-1.9816v-15.89516h2.2767c2.347 0 3.9984.38649 4.9541 1.15946.9697.75892 1.4546 1.90433 1.4546 3.43622 0 1.57405-.52 2.74058-1.56 3.49948-1.026.7589-2.3611 1.1384-4.0054 1.1384zm0-7.46275v5.69185h.6324c.5762 0 1.0822-.0351 1.5178-.1054.4498-.0702.8925-.1967 1.3282-.3794.4356-.1968.7729-.4989 1.0118-.90651.239-.40756.3584-.91351.3584-1.51783 0-.59027-.1265-1.08217-.3794-1.47568-.253-.39351-.6114-.67459-1.0752-.84324-.4638-.18271-.9135-.30216-1.3492-.35838-.4356-.07027-.9416-.10541-1.5178-.10541z" fill="#fff"/><path d="m32.0271 3.56424 4.4481 11.38376 4.4903-11.72105 4.4903 11.72105 4.4481-11.38376h2.1503l-6.5984 16.52756-4.4903-11.65783-4.4903 11.65783-6.5984-16.52756z" fill="#fff"/><path d="m60.755 15.4751h-7.294l-1.813 3.9843h-2.1292l7.5892-16.56975 7.5892 16.56975h-2.1292zm-.8221-1.813-2.8249-6.42975-2.8249 6.42975z" fill="#fff"/><g fill="#000"><path d="m12.2071 27.5675-.146-.4914h-1.1335l-.1459.4914h-.94381l1.12381-3.4054h1.0605l1.1238 3.4054zm-1.0557-1.2406h.686l-.3455-1.1578z"/><path d="m15.106 24.1621c.3438 0 .6325.1119.866.3357.2335.2237.3503.5091.3503.8562 0 .347-.1168.6324-.3503.8562s-.5222.3357-.866.3357h-.4524v1.0216h-.8708v-3.4054zm0 1.5567c.0973 0 .1784-.034.2433-.1021.0681-.0681.1022-.1557.1022-.2627 0-.1071-.0341-.193-.1022-.2579-.0649-.0681-.146-.1021-.2433-.1021h-.4524v.7248z"/><path d="m18.3742 24.1621c.3438 0 .6325.1119.866.3357.2335.2237.3503.5091.3503.8562 0 .347-.1168.6324-.3503.8562s-.5222.3357-.866.3357h-.4524v1.0216h-.8708v-3.4054zm0 1.5567c.0973 0 .1784-.034.2433-.1021.0681-.0681.1022-.1557.1022-.2627 0-.1071-.0341-.193-.1022-.2579-.0649-.0681-.146-.1021-.2433-.1021h-.4524v.7248z"/><path d="m22.0949 27.5675-.5935-1.0995h-.3114v1.0995h-.8708v-3.4054h1.3622c.347 0 .6373.1119.8708.3357.2367.2205.3551.501.3551.8416 0 .2043-.0519.3924-.1557.5643-.1037.1687-.2448.3032-.4232.4038l.7005 1.26zm-.9049-2.6027v.7638h.4816c.1071.0032.1946-.0308.2627-.1022.0681-.0713.1022-.1638.1022-.2773s-.0341-.2059-.1022-.2773c-.0681-.0713-.1556-.107-.2627-.107z"/><path d="m26.5966 27.1297c-.3438.3405-.7654.5108-1.2649.5108-.4994 0-.9227-.1703-1.2697-.5108-.3438-.3438-.5157-.7655-.5157-1.2649 0-.4995.1719-.9195.5157-1.26.347-.3438.7703-.5157 1.2697-.5157.4995 0 .9211.1719 1.2649.5157.347.3405.5205.7605.5205 1.26 0 .4994-.1735.9211-.5205 1.2649zm-1.9216-.5984c.1751.1719.394.2578.6567.2578s.4816-.0859.6568-.2578c.1751-.1752.2627-.3973.2627-.6665s-.0876-.4897-.2627-.6616c-.1752-.1752-.3941-.2627-.6568-.2627s-.4816.0875-.6567.2627c-.1752.1719-.2627.3924-.2627.6616s.0875.4913.2627.6665z"/><path d="m28.5712 27.5675-1.0995-3.4054h.9535l.6616 2.3448.6665-2.3448h.9535l-1.0994 3.4054z"/><path d="m32.2346 26.7502h1.3184v.8173h-2.1892v-3.4054h2.1648v.8124h-1.294v.4719h1.1724v.8027h-1.1724z"/><path d="m35.7429 24.1621c.4703 0 .8627.1638 1.1773.4913.3179.3244.4768.7281.4768 1.2114 0 .4832-.1589.8886-.4768 1.2162-.3146.3243-.707.4865-1.1773.4865h-1.3865v-3.4054zm0 2.5638c.2368 0 .4297-.0779.5789-.2335.1492-.159.2238-.3682.2238-.6276 0-.2595-.0746-.467-.2238-.6227-.1492-.1589-.3421-.2384-.5789-.2384h-.4913v1.7222z"/><path d="m41.0046 24.1621c.3438 0 .6324.1119.866.3357.2335.2237.3502.5091.3502.8562 0 .347-.1167.6324-.3502.8562-.2336.2238-.5222.3357-.866.3357h-.4524v1.0216h-.8708v-3.4054zm0 1.5567c.0973 0 .1784-.034.2433-.1021.0681-.0681.1021-.1557.1021-.2627 0-.1071-.034-.193-.1021-.2579-.0649-.0681-.146-.1021-.2433-.1021h-.4524v.7248z"/><path d="m45.8637 27.1297c-.3438.3405-.7654.5108-1.2648.5108-.4995 0-.9227-.1703-1.2698-.5108-.3437-.3438-.5156-.7655-.5156-1.2649 0-.4995.1719-.9195.5156-1.26.3471-.3438.7703-.5157 1.2698-.5157.4994 0 .921.1719 1.2648.5157.3471.3405.5206.7605.5206 1.26 0 .4994-.1735.9211-.5206 1.2649zm-1.9216-.5984c.1751.1719.3941.2578.6568.2578s.4816-.0859.6567-.2578c.1752-.1752.2627-.3973.2627-.6665s-.0875-.4897-.2627-.6616c-.1751-.1752-.394-.2627-.6567-.2627s-.4817.0875-.6568.2627c-.1751.1719-.2627.3924-.2627.6616s.0876.4913.2627.6665z"/><path d="m48.9531 27.5675-.5935-1.0995h-.3114v1.0995h-.8708v-3.4054h1.3622c.347 0 .6373.1119.8708.3357.2368.2205.3551.501.3551.8416 0 .2043-.0518.3924-.1556.5643-.1038.1687-.2449.3032-.4233.4038l.7006 1.26zm-.9049-2.6027v.7638h.4817c.107.0032.1946-.0308.2627-.1022.0681-.0713.1021-.1638.1021-.2773s-.034-.2059-.1021-.2773c-.0681-.0713-.1557-.107-.2627-.107z"/><path d="m52.8473 24.1621v.8416h-.8416v2.5638h-.8708v-2.5638h-.8417v-.8416z"/><path d="m55.3873 27.5675-.1459-.4914h-1.1335l-.146.4914h-.9438l1.1238-3.4054h1.0606l1.1237 3.4054zm-1.0557-1.2406h.686l-.3454-1.1578z"/><path d="m57.8339 26.7259h1.1724v.8416h-2.0433v-3.4054h.8709z"/></g></svg>