<svg fill="none" height="24" viewBox="0 0 52 24" width="52" xmlns="http://www.w3.org/2000/svg"><g clip-rule="evenodd" fill="#fff" fill-rule="evenodd"><path d="m0 2.29635c.113582-.23246.22469-.46634.341099-.69739.638919-1.271125 2.182431-1.71768 3.369831-.976484 1.12398.701804 1.43858 2.307674.66753 3.407274-.99379 1.41721-3.23946 1.2328-4.037008-.33209-.117115-.22999-.227694-.46298-.341452-.69474z"/><path d="m32.5092 15.1673c0-1.1454.011-2.2913-.0072-3.4366-.005-.3164-.0468-.651-.1602-.9428-.197-.5066-.6084-.79312-1.1604-.7933-.552-.00017-.9583.286-1.1613.7924-.1063.2652-.163.5681-.1644.8545-.0127 2.3205-.0104 4.6409-.0016 6.9615.0009.2296.0486.4679.1215.6864.1908.5702.6222.8977 1.1602.9177.5642.0208 1.0602-.3185 1.2519-.9158.0876-.2727.113-.5744.1164-.8636.0129-1.0865.0053-2.1736.0051-3.2604zm-2.7288-7.98062c.6868-.30206 1.2701-.64069 1.8988-.81857 1.47-.41599 2.8819.14556 3.5807 1.50871.3782.73767.6926 1.59951.7128 2.41368.0834 3.3497.0662 6.7029.0263 10.0542-.0071.5926-.2431 1.2045-.4692 1.7691-.8298 2.0707-3.7116 2.0983-4.9801 1.119-.2072-.16-.4004-.3383-.5928-.502-.0703.0337-.156.0489-.1634.0816-.2005.8996-.1991.9014-1.1178.9062-.5585.0028-1.1174.0074-1.676-.0016-.7926-.0126-.7926-.0175-.808-.7713-.0005-.0293-.0001-.0588-.0001-.0881 0-7.0569-.0009-14.11381.0014-21.17071.0002-.781651.0086-.788011.7587-.796843.7055-.008302 1.4121.019431 2.1167-.007065.5071-.019255.6672.204018.6628.681848-.0144 1.55817-.0071 3.11669-.0013 4.67504.0013.3116.0323.62285.0505.94681z"/><path d="m17.9745 11.926c-.0039 1.3687-.0039 1.369 1.4022 1.3674.2628-.0003.5315.0271.7862-.0196.1327-.0242.3439-.1814.3438-.2784-.0011-.7258.0401-1.4686-.1009-2.172-.1514-.7553-.6917-1.06495-1.336-.96798-.6292.09486-1.0455.57538-1.0925 1.28228-.0175.2618-.0028.5255-.0028.7883zm-3.6588 3.5931c0-1.0593-.0025-2.1186.0005-3.178.0035-1.2211.2582-2.39188.75-3.50668.7338-1.6638 1.9404-2.63357 3.8392-2.52317.6709.03904 1.3707.01819 2.0031.20685 2.0392.60748 3.2064 2.23913 3.2398 4.4295.0234 1.5297.0098 3.0602.0027 4.5901-.0035.7339-.014.7516-.7299.7574-1.5301.0128-3.0602 0-4.5903.0066-.9865.0044-.9996.0116-.9906.9717.0055.5857-.027 1.193.1193 1.7482.0999.3791.4101.8013.7468 1.0004.8599.5082 1.6859.0915 1.8019-.9013.0566-.4833.2431-.5815.6575-.5727.7649.017 1.5301.0053 2.2951.0071.2775.0007.4961.0249.5556.3982.283 1.7699-1.2383 4.2659-2.9856 4.7012-1.2344.3075-2.5172.3382-3.7309-.1237-1.8783-.7145-2.7968-2.193-2.9385-4.1297-.094-1.2876-.0178-2.5875-.0178-3.882z"/><path d="m6.38423 4.62683c.49531-1.14942.6149-2.26422.23917-3.40569-.14891-.452028.11359-.518093.45751-.463863 2.60002.408753 4.76129 1.836563 5.41479 4.925173.1209.57091.1908 1.16373.1933 1.747.0139 3.32605.0252 6.65255-.0161 9.97825-.0169 1.3688-.4087 2.6717-1.0924 3.8648-1.0248 1.7887-2.59696 2.5606-4.63878 2.4482-.40505-.0222-.5831-.1718-.5778-.5845.01254-1.0008.01236-2.0019-.00053-3.0026-.00495-.3755.16569-.4718.51774-.5403 1.24021-.2418 1.70443-.755 1.81784-2.0088.06889-.7601.07578-1.5273.07878-2.2914.00954-2.3257.00335-4.6512.00335-6.9769 0-.17664.00212-.35328-.00088-.52993-.03109-1.90457-.53735-2.5903-2.39599-3.15944z"/><path d="m44.033 10.9195c0-2.52904-.0016-5.05822.0009-7.58705.0009-.90106.0051-.90336.9343-.91024.6175-.0046 1.2352-.00689 1.8526.0007.8965.01131.9168.03091.9231.96289.0073 1.02912.0211 2.05877-.0035 3.08737-.0127.53223.1888.74473.7219.72212.6164-.02615 1.2348.003 1.8525 0 .3664-.00177.5266.15845.516.53487-.0172.61702-.0172 1.23527 0 1.85246.0106.37979-.1574.53188-.5206.53068-.647-.0023-1.2941.0178-1.9406.004-.4534-.0099-.6267.1903-.6244.634.0115 2.3229-.0108 4.6464.0217 6.9689.0148 1.0555.4052 1.8873 1.585 2.1298.1396.0286.3111.3282.3174.5075.0322.9104.0062 1.8226.0181 2.7341.0058.4534-.2083.5979-.6421.6315-2.3497.1823-4.3449-1.3342-4.8198-3.7341-.1247-.6293-.1785-1.2813-.184-1.9238-.021-2.3817-.0085-4.7639-.0085-7.1457z"/><path d="m4.35532 15.456c0 2.4412.00158 4.8826-.00071 7.3238-.00088.888-.0053.8927-.85178.9016-.67636.0072-1.35309.0065-2.02945.0003-.876331-.0076-.882337-.0111-.883044-.8703-.003003-2.7943-.001236-5.5885-.001236-8.3826 0-2.2061.015191-4.4122-.010775-6.61778-.006183-.5294.129303-.73907.687495-.70852.79189.04311 1.58785.00389 2.38186.0129.69545.00777.70463.01572.70587.75197.00441 2.52953.00177 5.05903.00177 7.58863z"/><path d="m38.1615 15.3635c-.0004-2.4693-.003-4.9388.0012-7.40812.0014-.85107.009-.85372.882-.85743.7643-.00318 1.529.01272 2.2928-.00389.381-.0083.5404.14768.5192.51898-.0085.14644.0016.29394.0016.4409.0001 4.87996.001 9.76006-.0008 14.64006-.0003 1.0174-.0049 1.0194-1.0151 1.0243-.6467.003-1.2938.0113-1.9403-.0037-.7087-.0162-.7348-.0358-.7371-.7664-.0083-2.5283-.0034-5.0565-.0035-7.5847z"/><path d="m42.3835 2.61314c.0104 1.3621-.9451 2.35042-2.2992 2.3785-1.4068.02932-2.4174-.94416-2.4241-2.33522-.0067-1.34426 1.0782-2.450755 2.382-2.429558 1.3091.021374 2.331 1.063038 2.3413 2.386278z"/></g></svg>