<svg fill="none" height="24" viewBox="0 0 206 24" width="206" xmlns="http://www.w3.org/2000/svg" xmlns:xlink="http://www.w3.org/1999/xlink"><mask id="a" height="24" maskUnits="userSpaceOnUse" width="18" x="188" y="0"><path d="m188.191.567383h17.716v22.775817h-17.716z" fill="#fff"/></mask><mask id="b" height="24" maskUnits="userSpaceOnUse" width="206" x="0" y="0"><path d="m0 24h205.905v-24h-205.905z" fill="#fff"/></mask><g clip-rule="evenodd" fill="#fff" fill-rule="evenodd"><path d="m60.1675.543945c-1.3946 7.722385-2.7457 15.203255-4.1203 22.814155h-5.6474c-1.4811-4.1341-2.9508-8.2381-4.4206-12.341-.1576.0072-.3152.0154-.4727.0236-.7613 4.0706-1.523 8.1418-2.3068 12.3297h-5.5102c1.3603-7.6426 2.7001-15.17519 4.0563-22.79576h5.5962c1.4202 3.92335 2.9023 8.01808 4.5946 12.69546 1.6146-4.47531 1.5122-8.74704 2.8311-12.726155z"/><path d="m163.956 9.5472c1.876-.03325 3.541.5648 4.702-1.05438.625-.87225.451-1.92509-.116-2.59374-1.227-1.44778-2.901-.72901-4.586-.67682zm-.218 6.603c-.048 2.472.002 2.539 1.924 2.5759 3.056.0593 4.089-.5684 4.083-2.4797-.005-1.7414-.797-2.3691-3.061-2.4264-2.899-.0742-2.899-.0742-2.946 2.3302zm-5.72 7.328v-23.023919h3.979c2.298-.000511 4.599.082365 6.892-.023533 2.498-.115618 4.299.897832 5.364 3.087932 1.152 2.36915.657 4.83857-1.19 6.78512-.232.2446-.489.4661-.779.7393.122.2107.189.511.366.6052 2.776 1.4856 3.189 3.8931 2.833 6.7345-.345 2.7498-2.351 4.9782-5.729 5.0713-3.819.1054-7.644.0241-11.736.0241z"/><path d="m123.338 5.78742c.088 4.21798-.277 8.33368.208 12.37268 4.216.7357 5.241-.7116 5.677-4.4012.13-1.0917.106-2.2187.006-3.3166-.358-3.95196-1.816-5.39003-5.891-4.65488zm-5.717 17.70848v-23.042781h4.512c1.364 0 2.735.090039 4.091-.015859 5.826-.4563343 8.17 4.05994 8.624 7.80423.312 2.58301.278 5.25701.006 7.84981-.479 4.5653-3.874 7.3852-8.509 7.4026-2.812.0107-5.624.002-8.724.002z"/><path d="m144.389 18.3672h10.111v4.9639h-15.963v-22.693405h15.65v4.551575h-9.824v3.89061h9.133v4.59862h-9.107z"/><path d="m60.9845 15.94c1.7772-.1647 3.3785-.3141 5.0918-.4737.2496.7612.4328 1.5818.7812 2.3251.707 1.5077 2.4459 2.1947 3.8456 1.3527.7249-.4364 1.4728-1.3378 1.5879-2.12.087-.5914-.6748-1.5368-1.304-1.9553-1.2636-.84-2.715-1.391-4.0533-2.1262-3.3289-1.8294-4.3741-3.90643-3.7116-7.25578.6492-3.28335 2.8306-5.416152 6.2808-5.6519929 1.8284-.1248268 3.7688.0885039 5.5287.5980429 2.297.66557 3.4793 2.60295 4.0599 4.85648.2502.97303-.2875 1.45546-1.2273 1.4749-1.3516.02763-2.7042.00716-4.0901.00716-.2276-.59241-.375-1.26054-.7172-1.80641-.6364-1.01447-2.0863-1.37821-3.1667-.9055-1.5384.67325-1.7671 2.2479-.3546 3.13909 1.3603.85792 2.8654 1.48257 4.2789 2.26018 1.9251 1.05953 3.3642 2.47193 3.8906 4.75983.9454 4.1075-1.5076 8.9461-6.7468 9.5185-1.6488.1796-3.4087-.0455-5.0375-.4256-3.5095-.8196-5.2939-3.6297-4.9363-7.5715z"/><path d="m107.996 8.51798c-.189-.03581-.378-.07213-.567-.10794-1.03 2.05246-2.236 4.03336-2.69 6.63216 1.296-.0926 2.337-.1673 3.257-.2327zm-2.625-7.9838h7.951v22.83202h-4.956c-.049-.9495-.104-2.0141-.178-3.447-1.731 0-3.487-.0926-5.222.0614-.468.0414-1.115.7622-1.26 1.2871-.529 1.9067-1.699 2.5554-3.5838 2.3062-.8267-.1094-1.6795-.0184-2.9826-.0184 3.5116-7.9009 6.8674-15.45242 10.2314-23.02132z"/><path d="m81.3096 6.13841c.3678-2.00593.6824-3.7223 1.0185-5.557355h18.0379c-.291 1.872915-.5575 3.585185-.8527 5.481635h-6.2608c-1.0344 5.81831-2.0361 11.44981-3.0685 17.25631h-5.9476c1.0042-5.6842 1.9956-11.2989 3.0342-17.18059z"/></g><g mask="url(#a)"><path clip-rule="evenodd" d="m199.917 5.98098v17.36222h-5.641v-17.19033h-6.085v-5.585487h17.716v5.413597z" fill="#fff" fill-rule="evenodd"/></g><g clip-rule="evenodd" fill="#fff" fill-rule="evenodd" mask="url(#b)"><path d="m179.076 23.3293h5.824v-22.792191h-5.824z"/><path d="m31.4829.550781h5.8546c-1.0611 7.685549-2.6618 15.153619-3.8809 22.808519h-6.0464c1.372-7.684 2.7175-15.21915 4.0727-22.808519z"/><path d="m27.0305.529297c-.5842 3.220943-1.1347 6.256173-1.7072 9.414703h-9.6387c.5755-3.23219 1.1178-6.28022 1.6759-9.414703z"/><path d="m24.7917 13.9854c-.5842 3.2209-1.1347 6.2561-1.7071 9.4141h-9.6383c.575-3.2322 1.1178-6.2797 1.6754-9.4141z"/><path d="m1.67544 13.9854h9.66996c-.5842 3.2209-1.1347 6.2561-1.70713 9.4141h-9.63827"/></g></svg>