<svg width="124" height="24" viewBox="0 0 124 24" fill="none" xmlns="http://www.w3.org/2000/svg">
<path d="M12.6393 23.8569C12.5322 23.6605 13.2105 23.125 13.5676 23.125C13.6925 23.125 13.7996 23.0536 13.7996 22.9465C13.7996 22.7501 13.4069 22.875 12.5857 23.357C11.6396 23.9105 11.104 23.482 11.8716 22.7858C12.2108 22.4466 12.2287 22.4109 11.9431 22.3038C11.7824 22.2324 11.2825 22.2324 10.8541 22.3038C10.14 22.393 10.0151 22.3573 9.78298 21.9825C9.39024 21.3755 8.42624 17.5016 8.39053 16.3413L8.35483 15.3594L10.265 14.5561C11.3182 14.1098 12.1751 13.717 12.193 13.6635C12.193 13.6099 11.9609 13.4314 11.6574 13.2707C11.3361 13.0922 11.0862 12.753 10.9791 12.3782C10.747 11.5034 11.1219 10.111 11.7467 9.48615C12.2644 8.96845 12.2644 8.96845 11.8716 8.82563C11.4789 8.68282 11.3182 8.30793 11.6574 8.30793C12.0145 8.30793 11.8181 7.96875 11.4432 7.91519C11.1754 7.87949 11.0148 7.71882 10.9791 7.48675C10.9433 7.20112 10.7113 7.04045 10.1222 6.87978C9.28312 6.64771 8.96179 6.29067 9.30098 5.95149C9.42594 5.82652 9.74727 5.86223 10.3721 6.0586C11.2111 6.34423 11.3004 6.34423 11.7645 6.04074C12.2465 5.73726 12.2822 5.648 12.2287 4.66615C12.1751 3.50578 12.3715 3.11304 12.8356 3.48793C13.032 3.66645 13.0856 3.91637 13.032 4.29126C12.9785 4.59474 13.0142 5.20171 13.0856 5.63015C13.2105 6.27282 13.1748 6.46919 12.9428 6.64771C12.5679 6.91549 12.7999 6.95119 13.2819 6.70126C13.4605 6.59415 13.6211 6.39778 13.6211 6.25497C13.6211 5.89793 14.1388 5.45163 14.4245 5.55874C14.7993 5.70156 14.7636 6.04074 14.3352 6.30852C14.0674 6.46919 14.0139 6.64771 14.0853 7.0226C14.1567 7.36178 14.1031 7.59386 13.9068 7.75452C13.7461 7.89734 13.6211 8.07586 13.6211 8.16512C13.6211 8.25438 13.4962 8.45075 13.3533 8.59356C13.2105 8.73637 13.0499 9.14697 12.9963 9.52186C12.9428 9.87889 12.8178 10.4323 12.7285 10.7358C12.5143 11.3784 12.4965 12.5924 12.6928 12.2889C12.7999 12.1282 12.9785 12.1639 13.4248 12.4317C13.8889 12.7173 14.0674 12.7352 14.2638 12.5745C14.4066 12.4496 15.1385 11.1285 15.8705 9.62897C16.6024 8.12941 17.2808 6.84408 17.37 6.79052C17.4771 6.73697 18.0662 7.0583 18.7089 7.5046C19.4051 8.00445 19.9585 8.29008 20.0835 8.20082C20.2085 8.12941 20.262 8.12941 20.1906 8.21867C20.0478 8.36149 20.5298 8.82563 20.8154 8.84349C20.9047 8.84349 20.9047 8.48645 20.8511 8.04015C20.744 7.41534 20.7797 7.18326 21.0296 6.93334C21.3331 6.64771 21.3153 6.612 20.744 6.16571C19.8514 5.50519 19.1373 4.71971 19.2623 4.54119C19.4587 4.21986 19.8871 4.39837 20.5655 5.0946C20.9404 5.48734 21.2974 5.80867 21.351 5.80867C21.4224 5.80867 22.0472 4.57689 22.7791 3.07734C23.4932 1.59563 24.2251 0.256743 24.3679 0.13178C25.0999 -0.457331 28.1882 1.04223 29.0094 2.38111L29.3843 2.98808L27.7419 5.38023C26.8494 6.70126 26.1174 7.84378 26.1174 7.93304C26.1174 8.0223 26.3316 8.14726 26.6173 8.21867C26.8851 8.27223 27.2778 8.45075 27.5099 8.59356C28.6524 9.34334 27.1707 9.84319 25.564 9.25408L24.5822 8.89704L24.2073 9.30763C23.7253 9.84319 23.2076 9.84319 22.7256 9.34334C22.4221 9.022 22.3507 8.75423 22.4042 8.07586C22.4399 7.61171 22.4042 7.23682 22.3507 7.23682C22.1365 7.23682 22.0472 8.18297 22.2079 8.71852C22.2971 9.05771 22.2971 9.30763 22.19 9.37904C22.1008 9.4326 23.0648 10.0039 24.3501 10.6287C27.135 12.0211 27.3314 12.1818 26.9922 12.9851C26.6173 13.8777 24.9035 15.9485 23.1183 17.6087L21.4759 19.1262L22.2793 20.5543C22.7256 21.3219 23.0648 22.0896 23.0469 22.2324C22.9398 22.7858 19.6193 23.2142 18.1555 22.875C17.6735 22.7501 17.5842 22.7858 17.495 23.1071C17.37 23.6248 16.8345 23.5891 16.8345 23.0893C16.8345 22.8393 16.7809 22.7501 16.6916 22.8929C16.4774 23.2321 15.6205 23.482 15.0671 23.3749C14.7458 23.3035 14.3173 23.3927 13.8353 23.6427C13.0142 24.0533 12.7999 24.089 12.6393 23.8569V23.8569ZM13.4426 22.1253C13.4426 22.0896 13.2462 22.0539 12.9963 22.0539C12.7464 22.0539 12.55 22.1253 12.55 22.2145C12.55 22.2859 12.7464 22.3216 12.9963 22.2681C13.2462 22.2324 13.4426 22.161 13.4426 22.1253ZM18.4054 21.5897C18.6375 21.3576 18.9588 21.3219 20.0835 21.3755L21.4581 21.4647L20.7976 20.8756C20.1192 20.2687 19.78 20.1437 19.6015 20.4472C19.5479 20.5365 19.0481 20.7507 18.4768 20.9113C17.3165 21.2684 17.1022 21.4112 17.2629 21.679C17.4414 21.9646 18.0662 21.911 18.4054 21.5897V21.5897Z" fill="white"/>
<path d="M32.4727 22.5002C31.6336 22.1967 30.8482 21.4826 30.3483 20.5365C29.9734 19.8402 29.9556 19.5903 29.902 13.0922L29.8484 6.34424H31.3659H32.9011V12.8245C32.9011 20.0009 32.919 20.0902 34.0079 20.0902C34.4721 20.0902 34.5256 20.1437 34.4542 20.5008C34.4007 20.715 34.2936 21.3219 34.2222 21.8397C34.115 22.6965 34.0615 22.7679 33.633 22.7679C33.3831 22.7501 32.8654 22.643 32.4727 22.5002V22.5002Z" fill="white"/>
<path d="M39.185 22.5002C38.6673 22.3574 38.0781 22.1431 37.8639 22.036C37.1141 21.6254 35.9002 20.3401 35.4361 19.4654C35.0076 18.662 34.9541 18.3764 34.9541 16.6983C34.9541 14.9667 34.9898 14.7525 35.4718 13.8777C36.1323 12.6995 37.1141 11.7891 38.4173 11.2C39.2564 10.7894 39.667 10.718 41.0237 10.718C42.3804 10.718 42.791 10.7894 43.6122 11.1821C44.1478 11.432 44.8619 11.8605 45.1832 12.1283L45.7544 12.6281L45.0047 13.5386C44.5941 14.0563 44.2013 14.5383 44.1121 14.6275C44.0407 14.7346 43.8086 14.6454 43.5765 14.4311C42.4161 13.3779 40.5417 13.1458 39.2207 13.9313C37.5247 14.931 37.2391 17.466 38.6673 18.9834C39.9169 20.3223 42.1484 20.2866 43.6301 18.8941L44.0942 18.4657L44.9333 19.4118C45.3796 19.9295 45.7544 20.3937 45.7544 20.4472C45.7544 20.6436 44.005 21.8754 43.2373 22.2146C42.1305 22.7144 40.3632 22.8215 39.185 22.5002V22.5002Z" fill="white"/>
<path d="M51.3778 22.4645C50.8779 22.2859 50.2174 21.9468 49.8961 21.7325L49.3248 21.3219V21.9468V22.5894H47.8967H46.4685V14.4668V6.34424H47.8967H49.3248V9.18268V12.039L50.2174 11.432C52.2168 10.0931 55.0017 10.5394 56.7869 12.4853C58.1079 13.9134 58.6078 15.6986 58.2508 17.7516C57.6617 21.2327 54.3412 23.5177 51.3778 22.4645V22.4645ZM53.52 19.751C54.8411 19.144 55.3945 18.2336 55.3945 16.6805C55.3945 15.5379 55.0731 14.7703 54.2519 14.0562C53.4843 13.3957 52.9666 13.2351 51.9134 13.3422C50.3602 13.5207 49.3248 14.8596 49.3248 16.734C49.3248 18.0908 49.8961 19.1262 50.9315 19.6796C51.8598 20.1794 52.5739 20.1973 53.52 19.751Z" fill="white"/>
<path d="M1.58896 21.6076C1.53541 21.4648 1.26763 21.3398 0.999852 21.322L0.5 21.3041L1.05341 21.1256L1.62467 20.9471L1.69607 19.269C1.73178 18.3407 1.83889 17.5195 1.946 17.4124C2.07096 17.2874 2.30304 17.7516 2.64222 18.8405C3.01711 20.0188 3.23133 20.4294 3.40985 20.358C3.55267 20.3044 3.8383 20.2151 4.07037 20.1616C4.37385 20.0902 4.62378 19.7153 5.07008 18.7156C5.39141 17.9837 5.74845 17.341 5.85556 17.3053C5.96267 17.2517 6.51608 17.4124 7.10519 17.6623C7.87282 17.9658 8.19415 18.1979 8.22985 18.4657C8.30126 18.912 8.37267 18.9119 7.12304 18.4835L6.10548 18.1443L5.69489 19.0726C5.46282 19.5903 5.23074 20.2151 5.15933 20.4829L5.05222 20.9649L7.01593 20.8578C8.74756 20.7685 8.97963 20.7864 8.97963 21.0363C8.97963 21.4112 8.72971 21.4648 5.40926 21.6968C1.87459 21.9289 1.71393 21.9289 1.58896 21.6076V21.6076Z" fill="white"/>
<path d="M10.6934 5.25524C10.1579 4.45191 10.14 3.9342 10.6577 3.9342C10.8898 3.9342 11.1933 4.23769 11.4967 4.77324C11.9787 5.59443 11.9787 5.63013 11.6574 5.80865C11.1933 6.05857 11.229 6.07643 10.6934 5.25524Z" fill="white"/>
<path d="M65.301 11.132C66.786 11.132 67.688 10.362 68.249 9.48199L67.149 8.92099C66.797 9.53699 66.093 9.98799 65.301 9.98799C63.849 9.98799 62.771 8.87699 62.771 7.33699C62.771 5.79699 63.849 4.68599 65.301 4.68599C66.093 4.68599 66.797 5.14799 67.149 5.75299L68.249 5.19199C67.699 4.31199 66.786 3.54199 65.301 3.54199C63.134 3.54199 61.451 5.08199 61.451 7.33699C61.451 9.59199 63.134 11.132 65.301 11.132Z" fill="white"/>
<path d="M75.8253 11L72.9433 3.66299H71.3373L68.4553 11H69.9183L70.4573 9.59199H73.8233L74.3623 11H75.8253ZM73.4603 8.45899H70.8203L72.1403 4.96099L73.4603 8.45899Z" fill="white"/>
<path d="M79.0273 11.132C81.0073 11.132 81.8653 10.087 81.8653 8.86599C81.8653 6.12699 77.5973 6.97399 77.5973 5.60999C77.5973 5.05999 78.0813 4.69699 78.8403 4.69699C79.6103 4.69699 80.3913 4.96099 80.9633 5.53299L81.7003 4.57599C81.0183 3.91599 80.0943 3.55299 78.9503 3.55299C77.3443 3.55299 76.2773 4.48799 76.2773 5.69799C76.2773 8.40399 80.5563 7.44699 80.5563 8.98699C80.5563 9.47099 80.1383 9.98799 79.0823 9.98799C78.0593 9.98799 77.2673 9.51499 76.7613 8.97599L76.0463 9.96599C76.6953 10.659 77.6743 11.132 79.0273 11.132Z" fill="white"/>
<path d="M84.3375 11V3.66299H83.0505V11H84.3375Z" fill="white"/>
<path d="M92.2552 11V3.66299H90.9682V8.75599L87.2172 3.66299H85.8972V11H87.1842V5.76399L91.0122 11H92.2552Z" fill="white"/>
<path d="M97.2352 11.132C99.4352 11.132 100.986 9.52599 100.986 7.33699C100.986 5.14799 99.4352 3.54199 97.2352 3.54199C95.0352 3.54199 93.4842 5.14799 93.4842 7.33699C93.4842 9.52599 95.0352 11.132 97.2352 11.132ZM97.2352 9.98799C95.7502 9.98799 94.8042 8.84399 94.8042 7.33699C94.8042 5.81899 95.7502 4.68599 97.2352 4.68599C98.7092 4.68599 99.6662 5.81899 99.6662 7.33699C99.6662 8.84399 98.7092 9.98799 97.2352 9.98799Z" fill="white"/>
<path d="M108.472 11.132C110.672 11.132 112.223 9.52599 112.223 7.33699C112.223 5.14799 110.672 3.54199 108.472 3.54199C106.272 3.54199 104.721 5.14799 104.721 7.33699C104.721 9.52599 106.272 11.132 108.472 11.132ZM108.472 9.98799C106.987 9.98799 106.041 8.84399 106.041 7.33699C106.041 5.81899 106.987 4.68599 108.472 4.68599C109.946 4.68599 110.903 5.81899 110.903 7.33699C110.903 8.84399 109.946 9.98799 108.472 9.98799Z" fill="white"/>
<path d="M114.749 11V7.83199H118.412V6.69899H114.749V4.79599H118.489V3.66299H113.462V11H114.749Z" fill="white"/>
<path d="M64.817 23V16.796H67.039V15.663H61.308V16.796H63.53V23H64.817Z" fill="white"/>
<path d="M74.5206 23V15.663H73.2336V18.666H69.4166V15.663H68.1296V23H69.4166V19.799H73.2336V23H74.5206Z" fill="white"/>
<path d="M81.1059 23V21.867H77.3659V19.832H81.0289V18.699H77.3659V16.796H81.1059V15.663H76.0789V23H81.1059Z" fill="white"/>
<path d="M92.8757 23V15.663H91.0607L89.0587 20.492L87.0677 15.663H85.2527V23H86.5397V17.555L88.7837 23H89.3337L91.5887 17.555V23H92.8757Z" fill="white"/>
<path d="M97.8583 23.132C100.058 23.132 101.609 21.526 101.609 19.337C101.609 17.148 100.058 15.542 97.8583 15.542C95.6583 15.542 94.1073 17.148 94.1073 19.337C94.1073 21.526 95.6583 23.132 97.8583 23.132ZM97.8583 21.988C96.3733 21.988 95.4273 20.844 95.4273 19.337C95.4273 17.819 96.3733 16.686 97.8583 16.686C99.3323 16.686 100.289 17.819 100.289 19.337C100.289 20.844 99.3323 21.988 97.8583 21.988Z" fill="white"/>
<path d="M109.206 23V15.663H107.919V20.756L104.168 15.663H102.848V23H104.135V17.764L107.963 23H109.206Z" fill="white"/>
<path d="M113.801 23V16.796H116.023V15.663H110.292V16.796H112.514V23H113.801Z" fill="white"/>
<path d="M123.505 23V15.663H122.218V18.666H118.401V15.663H117.114V23H118.401V19.799H122.218V23H123.505Z" fill="white"/>
</svg>
