<svg fill="none" height="24" viewBox="0 0 189 24" width="189" xmlns="http://www.w3.org/2000/svg"><g fill="#fff"><path d="m12.2298 9.27646c.0017.57359.09 1.14364.262 1.69084.3939-.6477.8997-1.22017 1.4939-1.69084.0006-.79684.2447-1.57447.6994-2.22879.4548-.65431 1.0986-1.15408 1.8453-1.4324.1438.29964.3907.53751.6955.67016.3047.13265.647.15121.9643.05229.2324-.07106.4416-.20285.6061-.38175s.2782-.39843.3295-.63597c.3449-.11171.6318-.35499.7984-.67699s.1994-.69671.0913-1.04276c-.1081-.34604-.3484-.63546-.6686-.80538-.3203-.16993-.6946-.20665-1.0418-.10218-.1761-.16735-.3946-.28333-.6319-.33538-.2373-.05204-.4843-.03818-.7143.04011-.318.09931-.5895.31013-.7645.59367-.1749.28355-.2416.62073-.1877.94952-1.1043.38916-2.0606 1.11145-2.7369 2.06719-.6764.95573-1.0395 2.09781-1.0392 3.26866z"/><path d="m21.785 1.74077h-20.02909v7.53553c-.59416.47069-1.099955 1.0432-1.493824 1.6908-.1707686-.5475-.25909753-1.11731-.26207796-1.6908v-9.2761545h23.52519196v9.2927645c.0001 1.03269-.2829 2.04569-.8183 2.92869s-1.3028 1.6024-2.2185 2.0797c-.9157.4774-1.9448.6945-2.9754.6278-1.0305-.0667-2.023-.4147-2.8695-1.0062.0642-.6149.2971-1.2.6731-1.6908.5667.4898 1.2621.8065 2.0036.9126.7414.1061 1.4978-.003 2.1791-.3143s1.2588-.8116 1.664-1.4416.621-1.363.6217-2.11206v-7.53553z"/><path d="m12.2298 14.2345c0-1.0326.2831-2.0455.8186-2.9284.5355-.883 1.3027-1.60226 2.2184-2.07959.9157-.47734 1.9447-.6945 2.9752-.62785 1.0305.06664 2.0229.41454 2.8695 1.00584-.0641.615-.297 1.2004-.6731 1.6913-.4324-.3746-.9417-.6497-1.492-.8059-.5504-.1562-1.1283-.1897-1.693-.0981s-1.1024.3061-1.5751.6282c-.4727.3222-.869.7442-1.1608 1.2362-.2918.4921-.472 1.0422-.5279 1.6115-.056.5694.0138 1.144.2043 1.6835.1904.5394.497 1.0304.898 1.4384s.8867.723 1.4228.9227c.1439-.2997.3907-.5375.6954-.6702.3048-.1326.6471-.1512.9644-.0523.2324.0711.4417.2028.6061.3817.1645.1789.2783.3985.3295.6361.3484.1088.6392.3515.8086.6748.1693.3233.2033.7006.0945 1.049-.1088.3483-.3516.6391-.6749.8085-.3232.1694-.7006.2034-1.0489.0945-.176.1675-.3945.2837-.6318.3358s-.4844.0383-.7144-.0401c-.3179-.0994-.5893-.3102-.7642-.5937-.1749-.2836-.2415-.6207-.1876-.9495-1.0989-.4004-2.0485-1.1282-2.7209-2.0852-.6723-.957-1.0349-2.0972-1.039-3.2668z"/><path d="m11.3107 14.2352c-.0017-.5735-.09-1.1436-.262-1.6908-.394.6476-.8998 1.2201-1.49387 1.6908-.00073.7968-.24482 1.5743-.6996 2.2286-.45479.6542-1.09857 1.1539-1.84516 1.4322-.14384-.2996-.39072-.5375-.69549-.67-.30476-.1326-.64706-.1511-.96432-.052-.23251.0709-.44186.2026-.60642.3815-.16456.179-.27836.3986-.32962.6362-.17249.0539-.33267.1413-.47139.2571s-.25326.2578-.3371.4179c-.08383.1601-.13532.3352-.15152.5151-.01619.18.00323.3614.05715.5339s.14128.3327.25711.4714c.11582.1387.25782.2533.41791.3371s.33513.1353.51512.1515.3614-.0032.53389-.0571c.17601.1675.39454.2835.63186.3356.23732.052.48438.0381.71433-.0404.31803-.0993.5895-.3101.76445-.5936.17496-.2836.24164-.6208.18776-.9495 1.10296-.3912 2.05793-1.114 2.73391-2.0693.6761-.9553 1.0401-2.0963 1.0422-3.2666z"/><path d="m11.3107 9.27629c.0003-1.17085-.3628-2.31292-1.0391-3.26866-.67638-.95574-1.63267-1.67803-2.73695-2.06719.05813-.32924-.00676-.66835-.18232-.95287-.17557-.28452-.44956-.49461-.7699-.59032-.23087-.07034-.47595-.08014-.7117-.02843s-.45425.16318-.63449.3237c-.34715-.10447-.72151-.06775-1.04175.10218-.32025.16992-.5605.45934-.6686.80539-.1081.34604-.0753.72075.09127 1.04275s.45345.56529.79835.677c.0625.28042.21091.53437.42454.72649.21363.19211.48185.31283.76732.34532s.57396-.02485.8253-.16404c.25135-.13919.45302-.3533.57695-.6125.53569.19996 1.02099.51505 1.42164.92302.40064.40797.70687.89889.8971 1.43813.19022.53923.25979 1.11364.20381 1.68269-.05599.56905-.23618 1.11895-.52784 1.61075s-.68769.9136-1.16016 1.2357-1.00986.5365-1.57425.6283c-.5644.0917-1.14205.0585-1.6922-.0974-.55015-.1558-1.0594-.4305-1.49181-.8047-.38916.4832-.62371 1.0724-.67309 1.6909.84881.5921 1.84374.9402 2.87658 1.0064 1.03284.0661 2.06405-.1522 2.98147-.6312.91743-.479 1.68595-1.2004 2.22193-2.0858.5361-.8853.8191-1.9007.8184-2.93561z"/><path d="m.0153279 14.2346c.0000214-1.0326.2831561-2.0454.8186121-2.9284.53546-.8829 1.30274-1.60221 2.21842-2.07954.91568-.47734 1.9447-.6945 2.97518-.62785 1.03048.06664 2.02295.41452 2.86952 1.00583-.06419.61486-.29713 1.20006-.6731 1.69086-.56667-.4901-1.26218-.8071-2.0038-.9133s-1.49816.0028-2.17961.3141-1.25914.8118-1.66439 1.4419c-.40524.6301-.62097 1.3634-.62153 2.1126v7.5355h20.02997v-7.5355c.5941-.4708 1.0999-1.0432 1.4938-1.6908.1708.5475.2591 1.1173.2621 1.6908v9.7492h-23.5260519v-9.7654z"/><path d="m33.584 5.324h2.25l4.32 9.99h.036l4.356-9.99h2.196v12.744h-1.512v-10.692h-.036l-4.572 10.692h-.918l-4.572-10.692h-.036v10.692h-1.512z"/><path d="m54.0541 5.324h1.422l5.418 12.744h-1.764l-1.296-3.132h-6.372l-1.314 3.132h-1.71zm.684 1.944h-.036l-2.646 6.264h5.202z"/><path d="m68.6359 7.574c-.252-.408-.588-.702-1.008-.882-.42-.192-.858-.288-1.314-.288-.336 0-.666.042-.99.126s-.618.21-.882.378c-.252.168-.456.39-.612.666s-.234.6-.234.972c0 .288.042.546.126.774.096.216.246.414.45.594s.48.348.828.504.774.312 1.278.468c.492.156.966.324 1.422.504.468.18.876.408 1.224.684.36.276.642.624.846 1.044.216.408.324.924.324 1.548 0 .636-.126 1.188-.378 1.656s-.588.858-1.008 1.17c-.408.3-.882.522-1.422.666-.54.156-1.098.234-1.674.234-.372 0-.744-.036-1.116-.108-.372-.06-.732-.156-1.08-.288-.336-.144-.654-.324-.954-.54-.3-.228-.558-.504-.774-.828l1.296-1.062c.276.468.66.822 1.152 1.062s1.014.36 1.566.36c.324 0 .648-.048.972-.144.336-.096.636-.234.9-.414.264-.192.48-.426.648-.702s.252-.594.252-.954c0-.396-.066-.714-.198-.954-.132-.252-.336-.468-.612-.648s-.624-.342-1.044-.486-.912-.312-1.476-.504c-.456-.144-.876-.306-1.26-.486-.384-.192-.72-.42-1.008-.684-.276-.276-.498-.6-.666-.972-.156-.384-.234-.84-.234-1.368 0-.612.12-1.146.36-1.602s.564-.834.972-1.134c.408-.312.87-.546 1.386-.702s1.056-.234 1.62-.234c.72 0 1.374.114 1.962.342.6.216 1.134.6 1.602 1.152z"/><path d="m81.5178 7.952c-.384-.516-.858-.9-1.422-1.152-.564-.264-1.152-.396-1.764-.396-.708 0-1.362.144-1.962.432-.588.288-1.098.678-1.53 1.17-.432.48-.768 1.044-1.008 1.692-.24.636-.36 1.302-.36 1.998 0 .744.12 1.44.36 2.088.24.636.57 1.194.99 1.674.432.468.942.84 1.53 1.116.6.276 1.26.414 1.98.414.78 0 1.476-.15 2.088-.45.612-.312 1.146-.756 1.602-1.332l1.134.954c-.576.768-1.272 1.332-2.088 1.692-.804.36-1.716.54-2.736.54-.912 0-1.764-.168-2.556-.504s-1.482-.798-2.07-1.386c-.576-.6-1.032-1.308-1.368-2.124-.324-.816-.486-1.71-.486-2.682 0-.936.156-1.812.468-2.628.324-.816.774-1.524 1.35-2.124s1.26-1.074 2.052-1.422 1.662-.522 2.61-.522c.864 0 1.692.156 2.484.468.804.312 1.476.822 2.016 1.53z"/><path d="m91.1857 18.392c-.972 0-1.866-.168-2.682-.504-.804-.336-1.506-.798-2.106-1.386-.588-.6-1.05-1.308-1.386-2.124-.324-.828-.486-1.722-.486-2.682s.162-1.848.486-2.664c.336-.828.798-1.536 1.386-2.124.6-.6 1.302-1.068 2.106-1.404.816-.336 1.71-.504 2.682-.504s1.86.168 2.664.504c.816.336 1.518.804 2.106 1.404.6.588 1.062 1.296 1.386 2.124.336.816.504 1.704.504 2.664s-.168 1.854-.504 2.682c-.324.816-.786 1.524-1.386 2.124-.588.588-1.29 1.05-2.106 1.386-.804.336-1.692.504-2.664.504zm0-1.404c.744 0 1.422-.138 2.034-.414.624-.276 1.158-.654 1.602-1.134s.786-1.038 1.026-1.674c.252-.648.378-1.338.378-2.07s-.126-1.416-.378-2.052c-.24-.648-.582-1.212-1.026-1.692s-.978-.858-1.602-1.134c-.612-.276-1.29-.414-2.034-.414s-1.428.138-2.052.414c-.612.276-1.14.654-1.584 1.134s-.792 1.044-1.044 1.692c-.24.636-.36 1.32-.36 2.052s.12 1.422.36 2.07c.252.636.6 1.194 1.044 1.674s.972.858 1.584 1.134c.624.276 1.308.414 2.052.414z"/><path d="m108.825 6.728h-4.212v11.34h-1.512v-11.34h-4.2116v-1.404h9.9356z"/><path d="m126.457 17.204c-.732.408-1.506.708-2.322.9-.804.192-1.62.288-2.448.288-.996 0-1.908-.162-2.736-.486s-1.548-.78-2.16-1.368c-.6-.588-1.068-1.29-1.404-2.106-.336-.828-.504-1.74-.504-2.736 0-1.008.174-1.92.522-2.736.36-.828.852-1.53 1.476-2.106.624-.588 1.35-1.044 2.178-1.368s1.722-.486 2.682-.486c.84 0 1.644.126 2.412.378.78.252 1.476.684 2.088 1.296l-1.134 1.188c-.432-.468-.96-.828-1.584-1.08-.612-.252-1.242-.378-1.89-.378-.732 0-1.41.132-2.034.396s-1.17.63-1.638 1.098c-.456.468-.816 1.026-1.08 1.674-.252.648-.378 1.356-.378 2.124 0 .756.126 1.458.378 2.106.264.648.624 1.212 1.08 1.692.468.468 1.026.834 1.674 1.098s1.362.396 2.142.396c.516 0 1.056-.06 1.62-.18.564-.132 1.08-.318 1.548-.558v-3.906h-2.934v-1.404h4.446z"/><path d="m133.771 5.324h1.422l5.418 12.744h-1.764l-1.296-3.132h-6.372l-1.314 3.132h-1.71zm.684 1.944h-.036l-2.646 6.264h5.202z"/><path d="m142.305 5.324h2.25l4.32 9.99h.036l4.356-9.99h2.196v12.744h-1.512v-10.692h-.036l-4.572 10.692h-.918l-4.572-10.692h-.036v10.692h-1.512z"/><path d="m158.635 5.324h1.512v12.744h-1.512z"/><path d="m163.311 5.324h1.908l7.38 10.584h.036v-10.584h1.512v12.744h-1.908l-7.38-10.584h-.036v10.584h-1.512z"/><path d="m188.156 17.204c-.732.408-1.506.708-2.322.9-.804.192-1.62.288-2.448.288-.996 0-1.908-.162-2.736-.486s-1.548-.78-2.16-1.368c-.6-.588-1.068-1.29-1.404-2.106-.336-.828-.504-1.74-.504-2.736 0-1.008.174-1.92.522-2.736.36-.828.852-1.53 1.476-2.106.624-.588 1.35-1.044 2.178-1.368s1.722-.486 2.682-.486c.84 0 1.644.126 2.412.378.78.252 1.476.684 2.088 1.296l-1.134 1.188c-.432-.468-.96-.828-1.584-1.08-.612-.252-1.242-.378-1.89-.378-.732 0-1.41.132-2.034.396s-1.17.63-1.638 1.098c-.456.468-.816 1.026-1.08 1.674-.252.648-.378 1.356-.378 2.124 0 .756.126 1.458.378 2.106.264.648.624 1.212 1.08 1.692.468.468 1.026.834 1.674 1.098s1.362.396 2.142.396c.516 0 1.056-.06 1.62-.18.564-.132 1.08-.318 1.548-.558v-3.906h-2.934v-1.404h4.446z"/></g></svg>