<svg fill="none" height="24" viewBox="0 0 31 24" width="31" xmlns="http://www.w3.org/2000/svg"><path d="m30.2407 23.6746v.0622h.0575c.0129 0 .0235-.0027.0312-.0077.008-.005.0117-.013.0117-.0238 0-.0101-.0037-.018-.0117-.0231-.0077-.005-.0183-.0076-.0312-.0076zm.058-.0437c.0299 0 .053.0066.0694.0198.0161.0135.0244.0315.0244.0546 0 .0193-.0067.0355-.0196.0479-.0128.0125-.0313.0201-.0551.0231l.0765.0882h-.0598l-.071-.0877h-.0228v.0877h-.0501v-.2336zm-.0148.3138c.027 0 .0524-.0053.0757-.0154.0236-.0103.044-.0243.0617-.0421.0178-.0174.0315-.0384.0416-.0622s.0151-.0493.0151-.0765c0-.0271-.005-.0525-.0151-.0763-.0101-.0239-.0238-.0448-.0416-.0625-.0177-.0175-.0381-.0315-.0617-.0416-.0233-.0101-.0487-.0151-.0757-.0151-.0276 0-.0535.005-.0774.0151-.0241.0101-.045.0241-.0627.0416-.0175.0177-.0316.0386-.0416.0625-.0101.0238-.0151.0492-.0151.0763 0 .0272.005.0527.0151.0765.01.0238.0241.0448.0416.0622.0177.0178.0386.0318.0627.0421.0239.0101.0498.0154.0774.0154zm0-.4479c.0352 0 .0686.0067.0996.0199.0309.013.0582.031.0813.054.0233.0228.0415.0496.055.08.0133.0307.0199.0633.0199.0978 0 .0346-.0066.0672-.0199.0974-.0135.0305-.0317.057-.055.08-.0231.0228-.0504.0408-.0813.0543-.031.0132-.0644.0199-.0996.0199-.0363 0-.07-.0067-.1015-.0199-.0315-.0135-.0588-.0315-.0818-.0543-.0231-.023-.0411-.0495-.0546-.08-.0132-.0302-.0198-.0628-.0198-.0974 0-.0345.0066-.0671.0198-.0978.0135-.0304.0315-.0572.0546-.08.023-.023.0503-.041.0818-.054.0315-.0132.0652-.0199.1015-.0199zm-23.61813-.8989c0-.4449.29133-.8101.7678-.8101.45554 0 .76277.3493.76277.8101 0 .4609-.30723.8105-.76277.8105-.47647 0-.7678-.3655-.7678-.8105zm2.04968 1.266v-2.5317h-.55089v.3072c-.1748-.2277-.43965-.3708-.79985-.3708-.70954 0-1.26572.5562-1.26572 1.3293 0 .7734.55618 1.3296 1.26572 1.3296.3602 0 .62505-.1433.79985-.3708v.3072zm18.60045-1.266c0-.4449.2914-.8101.7681-.8101.4553 0 .7625.3493.7625.8101 0 .4609-.3072.8105-.7625.8105-.4767 0-.7681-.3655-.7681-.8105zm2.0497 1.266v-3.5487h-.5509v1.3242c-.1748-.2277-.4394-.3708-.7995-.3708-.7098 0-1.266.5562-1.266 1.3293 0 .7734.5562 1.3296 1.266 1.3296.3601 0 .6247-.1433.7995-.3708v.3072zm-13.8181-2.1026c.3549 0 .5827.2224.641.6142h-1.3134c.0583-.3655.2805-.6142.6724-.6142zm.0106-.4927c-.7413 0-1.2604.5403-1.2604 1.3293 0 .8052.5403 1.3296 1.2975 1.3296.3814 0 .731-.0954 1.0382-.3549l-.2701-.4079c-.2119.1695-.482.2649-.7363.2649-.3549 0-.678-.1642-.7572-.6198h1.8802c.0053-.0688.0106-.1377.0106-.2119-.0053-.789-.4927-1.3293-1.2025-1.3293zm6.647 1.3293c0-.4449.2913-.8101.7678-.8101.4556 0 .7628.3493.7628.8101 0 .4609-.3072.8105-.7628.8105-.4765 0-.7678-.3655-.7678-.8105zm2.0497 1.266v-2.5317h-.5509v.3072c-.1748-.2277-.4396-.3708-.7998-.3708-.7096 0-1.2658.5562-1.2658 1.3293 0 .7734.5562 1.3296 1.2658 1.3296.3602 0 .625-.1433.7998-.3708v.3072zm-5.1588-1.266c0 .7681.535 1.3296 1.3508 1.3296.3814 0 .6353-.0848.9108-.3019l-.2649-.445c-.2065.1483-.4235.2278-.6618.2278-.4397-.0053-.7628-.3231-.7628-.8105 0-.4873.3231-.8048.7628-.8101.2383 0 .4553.0794.6618.2277l.2649-.4449c-.2755-.2172-.5294-.302-.9108-.302-.8158 0-1.3508.5615-1.3508 1.3293zm7.0972-1.3293c-.3178 0-.5244.1484-.6674.3708v-.3072h-.5456v2.5317h.5509v-1.4196c0-.4182.1801-.6512.5403-.6512.1112 0 .2278.0158.3443.0635l.1695-.5191c-.1218-.0477-.2807-.0689-.392-.0689zm-14.7556.2649c-.2649-.1748-.6301-.2649-1.0327-.2649-.6409 0-1.05407.3073-1.05407.8102 0 .4132.30723.6675.87397.7469l.2596.0371c.3019.0424.4449.1218.4449.2648 0 .196-.2012.3073-.5773.3073-.38142 0-.65687-.1219-.84226-.2649l-.25956.4291c.30194.2222.68332.3284 1.09652.3284.7307 0 1.1545-.3443 1.1545-.8263 0-.445-.3338-.6781-.8844-.7575l-.2595-.0371c-.2384-.0318-.4291-.0795-.4291-.2487 0-.1854.1801-.2966.482-.2966.3232 0 .6354.1218.789.2169zm7.1025-.2649c-.3178 0-.5244.1484-.6674.3708v-.3072h-.5456v2.5317h.5509v-1.4196c0-.4182.1801-.6512.5403-.6512.1112 0 .2277.0158.3443.0635l.1692-.5191c-.1218-.0477-.2805-.0689-.3917-.0689zm-4.6979.0636h-.9003v-.7681h-.5561v.7681h-.5139v.5032h.5139v1.1545c0 .588.2277.9376.879.9376.2384 0 .5138-.0744.6886-.196l-.1589-.4714c-.1642.0953-.3443.143-.4873.143-.2755 0-.3653-.1695-.3653-.4238v-1.1439h.9003zm-8.23054 2.5317v-1.5891c0-.5983-.38112-1.0009-.99558-1.0062-.32311-.0052-.65683.0954-.8899.4503-.1748-.2807-.45024-.4503-.83666-.4503-.27015 0-.535.0795-.74158.3761v-.3125h-.55089v2.5317h.55618v-1.4037c0-.4396.24367-.6724.61976-.6724.36549 0 .55089.2383.55089.6671v1.409h.55592v-1.4037c0-.4396.25425-.6724.61975-.6724.37609 0 .55619.2383.55619.6671v1.409z" fill="#fff"/><path d="m11.2546 2.03833h8.3428v14.99217h-8.3428z" fill="#8f9194"/><path d="m11.7845 9.53464c0-3.04155 1.4242-5.75018 3.6418-7.49608-1.622-1.276848-3.6682-2.03856-5.89246-2.03856-5.2655 0-9.53384 4.26887-9.53384 9.53464 0 5.26576 4.26834 9.53466 9.53384 9.53466 2.22426 0 4.27046-.7617 5.89246-2.0386-2.2176-1.7459-3.6418-4.4545-3.6418-7.49606z" fill="#636466"/><path d="m30.5548 15.4428v-.37h-.0967l-.1109.2545-.1113-.2545h-.0966v.37h.068v-.2792l.1044.2407h.0707l.1044-.2412v.2797zm-.6121 0v-.307h.124v-.0625h-.3152v.0625h.1237v.307z" fill="#231f20"/><path d="m30.8525 9.53464c0 5.26576-4.2686 9.53466-9.5339 9.53466-2.2242 0-4.2707-.7617-5.8924-2.0386 2.2176-1.7459 3.6417-4.4545 3.6417-7.49606 0-3.04155-1.4241-5.75018-3.6417-7.49608 1.6217-1.276848 3.6682-2.03856 5.8924-2.03856 5.2653 0 9.5339 4.26887 9.5339 9.53464z" fill="#c0c2c4"/></svg>