<svg clip-rule="evenodd" fill-rule="evenodd" height="101" image-rendering="optimizeQuality" shape-rendering="geometricPrecision" text-rendering="geometricPrecision" viewBox="0 0 600 101" width="600" xmlns="http://www.w3.org/2000/svg"><g fill="#fff" fill-rule="nonzero"><path d="m529 43c-3 2-8 3-14 3h-3-3l4-26h3 2c5 0 9 1 12 2 2 2 4 4 4 10s-2 9-5 11zm-378 33h-49l3-18h31l3-19h-30l3-17h49zm405-69c-8-5-19-7-33-7h-37l-14 76h-49l3-18h29l4-19h-30l4-17h30l4-22h-62l-13 72h-23l14-72h-33l-13 72h-22l13-72h-32l-14 76h-49l3-18h29l4-19h-30l3-17h31l4-22h-193l-11 60-21-60h-34l-18 98h32l11-62 21 62h115l14-76h18l-14 76h302l9-48 14 48h32l-15-39 4-1c7-2 13-5 17-10s6-12 6-20c0-9-3-16-10-21z"/><path d="m582 86h4 3c0-1 0-1 1-1 0-1 0-1 0-2s0-1-1-2c0 0-1 0-2 0h-5zm-2 9v-15l6-1h4c0 1 1 1 1 2 1 0 1 1 1 2s0 2-1 3c0 1-2 1-3 2h1l2 2 3 4h-3l-2-3c0-1-1-1-1-2-1 0-1-1-1-1-1 0-1 0-1 0-1 0-1 0-2 0h-2v7z"/><path d="m574 87c0-3 1-6 3-8s5-4 8-4c7 0 12 5 13 11v1c0 6-5 11-12 12-6 0-12-5-12-12zm11-14c-4 0-7 1-10 4s-4 7-4 11c1 8 7 14 15 13 8 0 14-7 14-15 0-8-7-14-15-13z"/></g></svg>