<svg clip-rule="evenodd" fill-rule="evenodd" height="222" image-rendering="optimizeQuality" shape-rendering="geometricPrecision" text-rendering="geometricPrecision" viewBox="0 0 600 222" width="600" xmlns="http://www.w3.org/2000/svg"><g fill-rule="nonzero"><path d="m514 47h86v25h-30v106h-26v-106h-30zm-111 0h23l51 80v-80h26v131h-23l-51-80v80h-26zm-82 0h68v25h-60v28h51v25h-51v28h60v25h-68v44h-5v-222h5z" fill="#ccc"/><path d="m114 47h86v25h-59v28h51v25h-51v28h59v25h-86zm-114 0h24l50 80v-80h26v131h-23l-51-80v80h-26zm212 0h86v25h-30v106h-26v-106h-30z" fill="#fff"/></g></svg>