<svg fill="none" height="30" viewBox="0 0 49 30" width="49" xmlns="http://www.w3.org/2000/svg"><path clip-rule="evenodd" d="m49 0h-49v30h49zm-2 2h-45v17h45z" fill="#fff" fill-rule="evenodd"/><path d="m10.0029 12.0693h-2.47849v4.9307h-2.22363v-12.79688h4.5c1.47652 0 2.61622.33106 3.41892.99317.8028.66211 1.2041 1.62012 1.2041 2.87402 0 .85547-.208 1.57324-.624 2.15329-.4102.5743-.9844 1.0166-1.7227 1.3272l2.8741 5.3349v.1143h-2.3819zm-2.47849-1.7841h2.28516c.75003 0 1.33593-.1875 1.75783-.56254.4219-.38086.6328-.89942.6328-1.55567 0-.68554-.1963-1.21582-.5889-1.59082-.3867-.375-.9668-.56836-1.74021-.58008h-2.34668z" fill="#fff"/><path d="m29.2046 17h-2.2237l-5.7041-9.0791v9.0791h-2.2236v-12.79688h2.2236l5.7217 9.11428v-9.11428h2.2061z" fill="#fff"/><path d="m44.1611 15.3389c-.4629.6035-1.1045 1.0605-1.9248 1.3711-.8203.3105-1.752.4658-2.7949.4658-1.0723 0-2.0215-.2432-2.8477-.7295s-1.4648-1.1807-1.916-2.083c-.4453-.9082-.6768-1.9658-.6943-3.1729v-1.0019c0-1.93362.4629-3.44241 1.3886-4.52639.9258-1.08984 2.2178-1.63477 3.876-1.63477 1.4238 0 2.5547.35157 3.3926 1.05469.8379.70313 1.3418 1.7168 1.5117 3.04102h-2.1797c-.2461-1.54102-1.1396-2.31153-2.6806-2.31153-.9961 0-1.7549.36036-2.2764 1.08106-.5156.71484-.7822 1.7666-.7998 3.15532v.9843c0 1.3828.29 2.458.8701 3.2256.5859.7617 1.3975 1.1426 2.4346 1.1426 1.1367 0 1.9453-.2578 2.4258-.7734v-2.5049h-2.6368v-1.6875h4.8516z" fill="#fff"/><g fill="#000"><path d="m10.3511 25.3423c-.0388.5355-.237.957-.59475 1.2646-.35547.3077-.82487.4615-1.40821.4615-.63802 0-1.14046-.2142-1.50732-.6426-.36458-.4307-.54687-1.0209-.54687-1.7705v-.3042c0-.4785.08431-.9001.25293-1.2647.16861-.3646.40901-.6437.72119-.8374.31445-.1959.67903-.2939 1.09375-.2939.57422 0 1.03678.1538 1.38769.4614.35089.3076.55369.7394.60839 1.2954h-1.02538c-.02507-.3213-.11507-.5537-.27002-.6973-.15267-.1458-.38623-.2187-.70068-.2187-.3418 0-.59815.123-.76905.3691-.16862.2439-.2552.6232-.25976 1.1382v.376c0 .5378.08089.9308.24267 1.1792.16407.2484.42155.3726.77246.3726.31674 0 .55258-.0718.70752-.2154.15723-.1458.24724-.3703.27002-.6733z"/><path d="m14.0186 24.8433h-1.9688v1.333h2.3106v.8237h-3.336v-4.9766h3.3291v.8306h-2.3037v1.186h1.9688z"/><path d="m16.8042 25.1782h-.8169v1.8218h-1.0254v-4.9766h1.8491c.5879 0 1.0414.1311 1.3604.3931s.4785.6323.4785 1.1108c0 .3396-.0741.6233-.2222.8511-.1458.2256-.368.4056-.6665.5401l1.0767 2.0336v.0479h-1.1006zm-.8169-.8305h.8272c.2574 0 .4568-.065.5981-.1949.1413-.1321.2119-.3133.2119-.5434 0-.2347-.0672-.4193-.2016-.5537-.1322-.1345-.3361-.2017-.6119-.2017h-.8237z"/><path d="m23.0078 22.854h-1.5244v4.146h-1.0254v-4.146h-1.5039v-.8306h4.0537z"/><path d="m24.686 27h-1.0254v-4.9766h1.0254z"/><path d="m28.6338 24.9663h-1.9688v2.0337h-1.0254v-4.9766h3.2403v.8306h-2.2149v1.2852h1.9688z"/><path d="m30.5649 27h-1.0253v-4.9766h1.0253z"/><path d="m34.5127 24.9663h-1.9688v2.0337h-1.0253v-4.9766h3.2402v.8306h-2.2149v1.2852h1.9688z"/><path d="m38.3477 24.8433h-1.9688v1.333h2.3106v.8237h-3.336v-4.9766h3.3291v.8306h-2.3037v1.186h1.9688z"/><path d="m39.291 27v-4.9766h1.5313c.4375 0 .8283.0992 1.1723.2974.3464.196.6164.4762.8101.8408.1937.3623.2905.7748.2905 1.2373v.229c0 .4626-.0957.8739-.2871 1.2339-.1891.36-.4569.6392-.8032.8374-.3464.1983-.7372.2985-1.1724.3008zm1.0254-4.146v3.3223h.4956c.4011 0 .7075-.1311.9194-.3931.212-.262.3202-.6369.3248-1.1245v-.2632c0-.5059-.1049-.8887-.3145-1.1484-.2096-.2621-.5161-.3931-.9194-.3931z"/></g></svg>