<svg width="22" height="24" viewBox="0 0 22 24" fill="none" xmlns="http://www.w3.org/2000/svg">
<path fill-rule="evenodd" clip-rule="evenodd" d="M1 11C0.447715 11 0 11.4477 0 12V23C0 23.5523 0.447716 24 1 24H21C21.5523 24 22 23.5523 22 23V12C22 11.4477 21.5523 11 21 11H1ZM6.6104 20.5C8.18898 20.5 9.06205 19.725 9.06205 18.5581C9.06205 17.1959 7.73937 16.9077 6.76254 16.6948C6.19066 16.5702 5.73733 16.4714 5.73733 16.1981C5.73733 15.9543 5.93134 15.7801 6.37229 15.7801C6.95433 15.7801 7.59811 15.9804 8.09197 16.381L8.92095 15.3099C8.29481 14.7787 7.47465 14.5 6.53103 14.5C5.02299 14.5 4.1852 15.3708 4.1852 16.3462C4.1852 17.7493 5.49546 18.0228 6.47307 18.227C7.0548 18.3484 7.51874 18.4453 7.51874 18.7409C7.51874 19.0196 7.20126 19.2199 6.68095 19.2199C5.87843 19.2199 5.22583 18.8716 4.80252 18.4536L4 19.5769C4.59087 20.1343 5.41984 20.5 6.6104 20.5ZM11.9586 20.5C13.5372 20.5 14.4102 19.725 14.4102 18.5581C14.4102 17.1959 13.0876 16.9077 12.1107 16.6948C11.5388 16.5702 11.0855 16.4714 11.0855 16.1981C11.0855 15.9543 11.2795 15.7801 11.7205 15.7801C12.3025 15.7801 12.9463 15.9804 13.4402 16.381L14.2691 15.3099C13.643 14.7787 12.8228 14.5 11.8792 14.5C10.3712 14.5 9.53338 15.3708 9.53338 16.3462C9.53338 17.7493 10.8436 18.0228 11.8213 18.227C12.403 18.3484 12.8669 18.4453 12.8669 18.7409C12.8669 19.0196 12.5494 19.2199 12.0291 19.2199C11.2266 19.2199 10.574 18.8716 10.1507 18.4536L9.34819 19.5769C9.93905 20.1343 10.768 20.5 11.9586 20.5ZM19 19.0893V20.3955H15.1197V14.5871H16.6365V19.0893H19Z" fill="white"/>
<path fill-rule="evenodd" clip-rule="evenodd" d="M16 2H6C4.89543 2 4 2.89543 4 4V11H18V4C18 2.89543 17.1046 2 16 2ZM6 0C3.79086 0 2 1.79086 2 4V13H20V4C20 1.79086 18.2091 0 16 0H6Z" fill="white"/>
<path fill-rule="evenodd" clip-rule="evenodd" d="M14.6312 4.19092C14.8858 4.44548 14.8858 4.85821 14.6312 5.11277L10.5029 9.24111C10.2483 9.49567 9.83558 9.49567 9.58102 9.24111L7.40821 7.0683C7.15364 6.81374 7.15364 6.40101 7.40821 6.14645C7.66277 5.89189 8.07549 5.89189 8.33005 6.14645L10.0419 7.85834L13.7094 4.19092C13.9639 3.93636 14.3766 3.93636 14.6312 4.19092Z" fill="white"/>
</svg>
