<svg clip-rule="evenodd" fill-rule="evenodd" height="184" image-rendering="optimizeQuality" shape-rendering="geometricPrecision" text-rendering="geometricPrecision" viewBox="0 0 578 177" width="600" xmlns="http://www.w3.org/2000/svg"><g fill="#fff"><path d="m204 175 29-172h47l-29 172z"/><path d="m420 7c-9-3-23-7-42-7-46 0-78 23-79 57 0 24 24 38 41 46 19 9 25 14 25 22 0 11-15 16-28 16-19 0-29-2-44-9l-7-2-6 38c11 5 31 9 52 9 49 0 81-23 82-58 0-20-13-35-40-47-16-8-26-13-26-21 0-7 9-15 27-15 15 0 26 3 35 6l4 2z"/><path d="m541 3h-37c-11 0-19 3-24 14l-70 158h49s8-21 10-26h60c2 6 6 26 6 26h43zm-58 111c4-10 18-48 18-48s4-10 7-17l3 15s9 41 11 50z"/><path d="m164 3-45 117-5-24c-9-27-35-57-65-72l42 151h49l74-172z"/></g><path d="m76 3h-75l-1 4c59 14 98 48 114 89l-17-78c-2-11-11-15-21-15z" fill="#b3b3b3"/></svg>