<svg height="112" viewBox="0 0 441 112" width="441" xmlns="http://www.w3.org/2000/svg"><g fill="#fff"><path d="m385 .9c9.1-.4 17.6 2 25.6 6.1 2.1 1.1 2.1 1.9.3 3.3-3.5 2.9-3.4 2.9-6.7-.4-4.4-4.4-4.4-4.4-8.9-.4-2.2 1.9-4.4 3.8-6.6 5.8-1.2 1.1-2.2 1.2-3.3-.2-1.5-1.8-3.3-3.5-4.9-5.3-.8-.9-1.4-1.1-2.4-.2-6.8 6.2-13.7 12.4-20.6 18.5-1.5 1.3-1.1 2.3 0 3.6 3.9 4.2 7.7 8.6 11.7 12.8 1.5 1.6 1.6 2.5-.1 4-3.8 3.4-3.8 3.5-.5 7.4 3.2 3.8 6.5 7.5 9.9 11.2 1.4 1.5 1.2 2.5-.3 3.6-.1.1-.1.1-.2.2-3.8 3.5-3.8 3.5-.2 7.5 5.3 5.9 10.6 11.7 15.8 17.7 1.2 1.4 2.1 1.5 3.4.2 3.1-2.9 6.3-5.7 9.4-8.7 1.3-1.2 2.1-1.2 3.2.1 2.8 3.2 5.6 6.4 8.4 9.6 1.2 1.3 1.2 2.2-.4 3.4-23 17.2-56.6 13.4-75-8.9-13.8-16.7-17.3-35.7-9.3-55.9 8-20.3 23.5-31.7 45-35 .4-.1.7-.1 1.1-.1 2 .1 3.8.1 5.6.1z"/><path d="m25.4 48.2c-1.7 6.5-3.5 13-5.2 19.5-.6 2.1-1.1 4.3-1.7 6.4-1.1 4.2-2.8 5.1-7.1 4.2-1.2-.3-1.5-1.1-1.8-2.1-3.1-13.6-6.2-27.2-9.3-40.8-.4-1.8.3-2.4 2-2.5 4.7-.3 5-.2 6 4.4 1.8 8.2 3.5 16.5 5.2 24.7.2.8.4 1.7 1.1 2.6.3-.9.6-1.7.8-2.6 2.1-8.6 4.3-17.2 6.3-25.9.5-2.2 1.4-3.4 3.9-3.4 2.3 0 3.2 1 3.8 3.1 2.2 8.9 4.6 17.7 6.9 26.5.2.8.5 1.7 1.2 2.5 1-5.1 2-10.2 3-15.3.9-4.6 1.8-9.2 2.7-13.9.2-1.1.2-2.5 1.7-2.7 2-.3 4.1-.7 6 .3 1 .5.3 1.8.1 2.7-2.6 11.3-5.1 22.7-7.7 34-.3 1.3-.6 2.6-.9 3.9-1 4.3-1 4.2-5.4 4.3-2.2 0-3.1-.8-3.6-2.9-2.4-9.1-4.9-18.1-7.4-27.2-.2.3-.4.2-.6.2z"/><path d="m155.3 47.4c-3.8 9.5-7.6 19-11.2 28.5-.9 2.2-2.3 2.7-4.3 2.4-1.7-.3-1.9-1.8-2.4-2.9-3.5-8.5-6.9-16.9-10.3-25.4-.3-.7-.6-1.4-1-2.4-.7.9-.4 1.7-.4 2.4 0 8.4-.1 16.9 0 25.3 0 2.3-.6 3.2-3 3.2-2.3 0-3.1-.7-3.1-3.1.1-13.1.1-26.3 0-39.4 0-2.2.8-2.9 3-3 5 0 5-.1 6.9 4.6 3.7 9.1 7.3 18.3 11 27.4.3.8.7 1.6 1.3 3 2-5.3 3.9-10.1 5.7-14.8 2.2-5.8 4.4-11.6 6.7-17.4.9-2.4 6.5-3.9 8.6-2.3.7.6.7 1.4.7 2.2v40.2c0 1.8-.8 2.6-2.6 2.5h-1.3c-3.5 0-3.6-.1-3.6-3.5v-24.8-2.6c-.4-.1-.5-.1-.7-.1z"/><path d="m85.5 53.6v-19.7c0-2 4.7-4.6 6.5-3.6.9.5.6 1.4.6 2.2 0 4.3.1 8.5 0 12.8 0 1.6.3 2.4 2.1 1.6 1.4-.6 3-1.1 4.6-1.2 8.5-.6 13.2 4 14 13.6.2 2.9-.1 5.7-.7 8.5-2 8.6-8.7 12.6-18.3 11-8.4-1.4-8.7-1.8-8.7-10.2-.1-5-.1-10-.1-15zm7.1 9.5v8c0 1 0 1.9 1.1 2.5 4.2 2.1 9.7 0 11.2-4.5 1.2-3.5 1.2-7.1.8-10.8-.7-6.6-5.9-9.2-11.7-6-1.1.6-1.5 1.4-1.5 2.6.1 2.7.1 5.4.1 8.2z"/><path d="m169.6 62.2c-.1-2 .2-3.9.7-5.8 1.8-7.1 6.9-10.8 14.5-10.8 6.9.1 11.8 4.1 13.4 11 1.1 4.8.9 9.5-.9 14.1-2.2 5.4-7 8.4-13.3 8.3-6.4-.1-10.9-3.2-13-8.8-1-2.5-1.5-5.2-1.4-8zm21.9.3c.2-2.7-.1-5.3-1.3-7.8-1.1-2.4-3-3.9-5.8-4s-4.8 1.3-5.9 3.7c-2.5 5.2-2.3 10.5-.3 15.7 1.1 2.7 3.3 4 6.3 3.9s4.7-1.7 5.9-4.2c1-2.4 1.2-4.8 1.1-7.3z"/><path d="m253.6 63.9h-8c-1.6 0-2.2.5-2 2.2.8 6.3 5.6 9.3 12.6 7.5 1.6-.4 3.2-1.1 4.7-1.8 1.7-.9 2.1-.2 2.2 1.4.1 2.2-.7 3.5-2.7 4.2-4.3 1.6-8.6 2-13.1 1.2-5.4-1-8.6-4.4-10-9.5-1.4-5-1.3-10 .5-14.9 2.3-6.2 7.7-9.2 15.2-8.6 5.5.4 9.3 4.4 10.5 10.7 1.4 7.5 1.3 7.6-6.2 7.6-1.2 0-2.5 0-3.7 0zm-3.1-4.9h5c1.3 0 1.6-.6 1.5-1.8-.2-3.2-2.6-6.2-5.2-6.6-3.7-.5-6.2 1.2-7.5 5.1-.9 2.6-.5 3.2 2.2 3.2 1.4.1 2.7.1 4 .1z"/><path d="m70.1 63.9h-8c-1.7 0-2.1.8-1.9 2.4.8 6.2 5.6 9.1 12.5 7.4 1.3-.3 2.5-1 3.8-1.3 1-.2 2.2-2.2 3-.2.6 1.6.9 3.8-1.4 4.8-3.3 1.5-6.7 2.2-10.3 2.1-8.8-.3-13.5-4.7-14.5-13.7-.4-3.1-.1-6.2.7-9.2 2.2-7.9 9.3-12.1 17.3-10.1 5.6 1.4 8.4 5.4 9 10.7.8 7.7 2.1 7.3-6 7.3-1.6-.2-2.9-.2-4.2-.2zm-2.9-13.3c-3.5 0-6.9 3.7-6.7 7.2.1 1 .5 1.2 1.3 1.2h10.3c1.1 0 1.5-.6 1.6-1.7.1-3.5-3.1-6.8-6.5-6.7z"/><path d="m281 68.8c2-6.4 4-12.9 6-19.3.8-2.5 4.9-4 7.1-2.7 1.2.8.4 1.8.1 2.6-2.6 7.4-5.3 14.7-8 22-1.6 4.5-3 9.1-5.4 13.3-2 3.5-4.7 6-8.8 6.7-1.1.2-2.8.6-3-1.2-.2-1.6-1-3.7 1.6-4.4 2.7-.7 4.3-2.7 5.6-5 .9-1.6 1-3.1.3-4.8-3.4-8.6-6.7-17.2-10-25.8-1.4-3.5-1.2-3.5 2.6-3.7 2.8-.2 4.1.9 4.9 3.5 1.9 6.3 4.2 12.4 6.4 18.6.2.2.4.2.6.2z"/><path d="m204.3 63.9c0-3.7.1-7.5 0-11.2 0-1.7.5-2.8 2.1-3.6 5.3-2.8 11-3.9 17-3.4 4.7.4 7.6 3.2 7.7 7.9.2 7.4 0 14.9.1 22.3 0 2.7-1.7 2.4-3.4 2.4s-3.7.4-3.7-2.4c.1-6.2 0-12.4 0-18.6 0-5.2-2.3-7-7.5-5.9-4.9 1-5.2 1.3-5.2 6.2v17.3c0 3.3-.1 3.4-3.5 3.4s-3.6-.1-3.6-3.3c-.1-3.7 0-7.4 0-11.1z"/><path d="m377.5 43.3c-.9-.2-1.4-.8-1.8-1.3-3.1-3.4-6.1-6.9-9.2-10.3-1-1.1-1-1.9.1-2.9 3.4-3 6.7-6 10-9.1 1.3-1.2 2.4-1.5 3.8.1 3 3.5 6.1 6.9 9.2 10.3.8.9 1.1 1.7 0 2.7-3.6 3.2-7.1 6.4-10.7 9.6-.4.4-1 .7-1.4.9z"/><path d="m399.8 54c-.4.5-.7 1-1.2 1.4-3.5 3.2-7 6.3-10.4 9.4-1.1 1-1.9 1-2.8-.1-3.1-3.5-6.2-7-9.4-10.5-1.1-1.2-1-2 .1-3.1 3.6-3.2 7.1-6.4 10.7-9.6.6-.6 1.3-1 2.1-.2 3.5 3.9 7 7.7 10.5 11.6.1.3.2.7.4 1.1z"/><path d="m396.4 88.3c-.9.1-1.2-.5-1.6-.9-3.2-3.6-6.4-7.1-9.6-10.7-.9-1-1-1.7.1-2.7 3.6-3.2 7.3-6.5 10.8-9.8 1.1-1 1.8-.7 2.7.3 3.2 3.6 6.4 7.1 9.6 10.6.8.8 1.1 1.6.1 2.5-3.8 3.4-7.5 6.7-11.3 10.1-.3.3-.6.4-.8.6z"/><path d="m416.1 74.2c-.7 0-1.1-.3-1.4-.7-2.3-2.6-4.5-5.2-6.9-7.7-.9-1-.8-1.8.2-2.7 2.5-2.1 4.9-4.3 7.3-6.5 1.1-1.1 1.9-.9 2.9.1 2.2 2.5 4.5 5 6.8 7.5.6.6 1 1.3.2 2.1-2.8 2.6-5.6 5.1-8.4 7.7-.2.1-.5.2-.7.2z"/><path d="m424.5 94.1c-.4-.3-.9-.5-1.2-.9-2.3-2.5-4.4-5.1-6.7-7.5-.9-1-.9-1.8.1-2.7 2.4-2.2 4.9-4.4 7.3-6.6 1.1-1 2-.9 2.9.2 2.2 2.5 4.5 5 6.8 7.5.6.6 1 1.4.2 2.1-2.8 2.6-5.7 5.1-8.5 7.6-.3.1-.6.2-.9.3z"/><path d="m408.2 24.8c0 .7-.4 1-.8 1.4-2.5 2.2-5 4.5-7.5 6.8-1 .9-1.8.9-2.7-.1-2.3-2.6-4.6-5.1-7-7.6-.8-.8-.7-1.5.1-2.3 2.6-2.4 5.2-4.8 7.9-7.1.6-.6 1.4-.9 2.1-.2 2.5 2.8 5.1 5.7 7.6 8.5.1.1.2.4.3.6z"/><path d="m408.3 34.9c.9.1 1.2.6 1.6 1.1 2.1 2.4 4.2 4.8 6.4 7.1.9 1 1.3 1.8.1 2.9-2.5 2.2-5.1 4.4-7.5 6.7-1 .9-1.7.9-2.6-.1-2.2-2.5-4.5-5-6.8-7.5-.7-.7-1-1.5-.2-2.3 2.7-2.5 5.5-5 8.2-7.5.3-.2.6-.3.8-.4z"/><path d="m440.3 58.8c-.2 1-1 1.6-1.6 2.2-5 4.5-4.9 4.4-9.3-.6-1.4-1.7-1.5-2.6.2-4.1 5-4.4 4.9-4.4 9.3.5.6.6 1.3 1.2 1.4 2z"/><path d="m423.7 20c-.4.5-.6.9-1 1.3-1 1-2.1 1.9-3.1 2.9-1.7 1.8-2.9 1.8-4.6-.2-4.1-4.7-4.2-4.5.4-8.9 1.7-1.7 3-1.8 4.5.2.9 1.2 2 2.2 3 3.4.3.3.5.8.8 1.3z"/><path d="m426.2 33.1c1.1.3 1.6 1.3 2.4 2.1 4 4.2 4 4.2-.1 8.1-2.8 2.6-2.8 2.6-5.5-.2-4-4.3-4-4.3.4-8 .8-.8 1.6-1.8 2.8-2z"/></g></svg>