<svg clip-rule="evenodd" fill-rule="evenodd" height="46.7558mm" image-rendering="optimizeQuality" shape-rendering="geometricPrecision" text-rendering="geometricPrecision" viewBox="0 0 20136 5354" width="175.859mm" xmlns="http://www.w3.org/2000/svg"><g fill="#fefefe"><path d="m4197 872c247 0 477-195 515-435 38-241-131-436-378-437-246-1-477 194-515 435s131 436 378 437z"/><path d="m15994 2476c80-388 395-717 748-717 199 0 342 147 290 312l-1090 750c15-195 52-345 52-345zm-5067 913 173-984c77-233 349-544 633-562 109-7 240-3 363 96 106 120 160 300 160 521 0 700-341 1188-823 1188-241 0-430-124-506-259zm9209-2270c-411-22-947 481-947 481l-171-429h-467l-225 1280c-15 88-63 167-133 222l-619 488s-254 193-604 420c-159 79-291 114-423 114-286 0-462-110-546-299-13-34-24-70-33-108l1589-1074c228-160 227-381 194-491-102-342-411-600-921-600-953 0-1607 813-1607 1966 0 78 5 154 15 228l-451 317c-89 54-214 102-293 102-136 0-194-105-153-334l591-3299-742-2-295 1642c-13 70-45 134-94 186l-811 855c20-142 31-291 31-448 0-695-322-1209-863-1209-522 0-912 442-912 442l-205-395h-462l-254 1447c-11 63-39 122-80 171l-471 557c-131 139-269 315-337 320-124 21-177-25-136-255l188-1048c147-830-106-1248-817-1248-425 0-924 477-924 477-106-312-365-477-759-477-430 0-898 502-898 502l-193-449h-468l-240 1370c-11 63-39 123-81 172l-538 636c-131 139-269 315-337 320-124 21-177-25-136-255l407-2241h-741l-121 660c-16 87-54 167-112 234l-1083 1253c-282 301-633 344-705 350h-766l1744-1972 89-534h-2240l-107 600h1302l-1681 1971-84 560s1574 6 1601 0c461 0 872-409 1039-575l840-991-153 833c-94 541 112 796 559 788 275-5 462-188 651-377l505-592-168 955h742l324-1871c43-232 338-625 650-625 330 0 487 161 411 602l-333 1894h736l357-2014c21-132 261-509 593-509 347 0 459 188 382 629l-206 1120c-94 541 112 796 559 788 275-5 462-188 650-377l439-513-155 878-178 1016h741l241-1383c102 130 246 235 426 292 40 12 82 22 126 30 480 24 908-209 1288-605l2-2 1077-1116-176 977c-95 541 110 788 557 789 290 1 562-143 847-334l378-271c7 14 14 29 21 43 170 332 485 551 951 556h2c490 0 969-462 1245-656 71-50 340-266 628-500l-204 1162h741l324-1871c43-232 339-625 651-625 119 0 216 21 287 70z"/></g></svg>