<svg width="69" height="45" viewBox="0 0 69 45" fill="none" xmlns="http://www.w3.org/2000/svg">
<path d="M43.4565 31.1225H3.7935C2.78738 31.1216 1.82276 30.7231 1.11148 30.0146C0.400208 29.3061 0.000446766 28.3454 0 27.3436V4.6585C-3.97594e-07 3.65641 0.399563 2.69532 1.11089 1.98642C1.82221 1.27752 2.78709 0.87882 3.7935 0.87793H43.4565C44.4626 0.87882 45.4272 1.27729 46.1385 1.98583C46.8498 2.69436 47.2495 3.65502 47.25 4.65682V27.3419C47.2511 27.8384 47.1538 28.3303 46.9636 28.7892C46.7734 29.2482 46.494 29.6652 46.1416 30.0165C45.7892 30.3677 45.3705 30.6462 44.9098 30.836C44.449 31.0258 43.9551 31.1232 43.4565 31.1225Z" fill="#00A6ED"/>
<path d="M36.0889 21.0408H6.09862C5.82365 21.0395 5.56038 20.9299 5.36626 20.736C5.17214 20.5421 5.06294 20.2796 5.0625 20.0058V15.3549C5.0625 14.7953 5.5215 14.3198 6.09862 14.3198H36.0889C36.6491 14.3198 37.125 14.7785 37.125 15.3549V20.0226C37.1241 20.1572 37.0966 20.2903 37.0441 20.4143C36.9915 20.5383 36.9149 20.6508 36.8187 20.7454C36.7225 20.8399 36.6085 20.9147 36.4833 20.9654C36.3581 21.0161 36.2241 21.0417 36.0889 21.0408Z" fill="#F4F4F4"/>
<path d="M39.4082 27.7618H42.4356C42.6248 27.7624 42.8123 27.7258 42.9872 27.654C43.1622 27.5822 43.3211 27.4767 43.4549 27.3434C43.5887 27.2102 43.6947 27.052 43.7668 26.8778C43.8389 26.7036 43.8757 26.5169 43.875 26.3285V23.3141C43.8757 23.1257 43.8389 22.939 43.7668 22.7649C43.6947 22.5907 43.5887 22.4324 43.4549 22.2992C43.3211 22.166 43.1622 22.0604 42.9872 21.9886C42.8123 21.9168 42.6248 21.8802 42.4356 21.8809H39.4082C39.219 21.8802 39.0315 21.9168 38.8566 21.9886C38.6816 22.0604 38.5227 22.166 38.3889 22.2992C38.2551 22.4324 38.1491 22.5907 38.077 22.7649C38.0049 22.939 37.9681 23.1257 37.9688 23.3141V26.3285C37.9718 26.7077 38.1245 27.0704 38.3938 27.3386C38.6631 27.6067 39.0274 27.7587 39.4082 27.7618Z" fill="#FFF478"/>
<path d="M47.25 5.91846H0V10.9592H47.25V5.91846Z" fill="#321B41"/>
<path d="M6.75 17.6805C6.75 17.4576 6.8389 17.244 6.99713 17.0864C7.15536 16.9288 7.36997 16.8403 7.59375 16.8403H26.1562C26.38 16.8403 26.5946 16.9288 26.7529 17.0864C26.9111 17.244 27 17.4576 27 17.6805C27 17.9033 26.9111 18.117 26.7529 18.2745C26.5946 18.4321 26.38 18.5206 26.1562 18.5206H7.59375C7.36997 18.5206 7.15536 18.4321 6.99713 18.2745C6.8389 18.117 6.75 17.9033 6.75 17.6805Z" fill="#9B9B9B"/>
<path d="M64.4565 44.1225H24.7935C23.7874 44.1216 22.8228 43.7231 22.1115 43.0146C21.4002 42.3061 21.0004 41.3454 21 40.3436V17.6585C21 16.6564 21.3996 15.6953 22.1109 14.9864C22.8222 14.2775 23.7871 13.8788 24.7935 13.8779H64.4565C65.4626 13.8788 66.4272 14.2773 67.1385 14.9858C67.8498 15.6944 68.2495 16.655 68.25 17.6568V40.3419C68.2511 40.8384 68.1538 41.3303 67.9636 41.7892C67.7734 42.2482 67.494 42.6652 67.1416 43.0165C66.7892 43.3677 66.3705 43.6462 65.9098 43.836C65.449 44.0258 64.9551 44.1232 64.4565 44.1225Z" fill="#ED9F30"/>
<path d="M57.0889 34.0408H27.0986C26.8237 34.0395 26.5604 33.9299 26.3663 33.736C26.1721 33.5421 26.0629 33.2796 26.0625 33.0058V28.3549C26.0625 27.7953 26.5215 27.3198 27.0986 27.3198H57.0889C57.6491 27.3198 58.125 27.7785 58.125 28.3549V33.0226C58.1241 33.1572 58.0966 33.2903 58.0441 33.4143C57.9915 33.5383 57.9149 33.6508 57.8187 33.7454C57.7225 33.8399 57.6085 33.9147 57.4833 33.9654C57.3581 34.0161 57.2241 34.0417 57.0889 34.0408Z" fill="#F4F4F4"/>
<path d="M60.4082 40.7618H63.4356C63.6248 40.7624 63.8123 40.7258 63.9872 40.654C64.1622 40.5822 64.3211 40.4767 64.4549 40.3434C64.5887 40.2102 64.6947 40.052 64.7668 39.8778C64.8389 39.7036 64.8757 39.5169 64.875 39.3285V36.3141C64.8757 36.1257 64.8389 35.939 64.7668 35.7649C64.6947 35.5907 64.5887 35.4324 64.4549 35.2992C64.3211 35.166 64.1622 35.0604 63.9872 34.9886C63.8123 34.9168 63.6248 34.8802 63.4356 34.8809H60.4082C60.219 34.8802 60.0315 34.9168 59.8566 34.9886C59.6816 35.0604 59.5227 35.166 59.3889 35.2992C59.2551 35.4324 59.1491 35.5907 59.077 35.7649C59.0049 35.939 58.9681 36.1257 58.9688 36.3141V39.3285C58.9718 39.7077 59.1245 40.0704 59.3938 40.3386C59.6631 40.6067 60.0274 40.7587 60.4082 40.7618Z" fill="#FFF478"/>
<path d="M68.25 18.9185H21V23.9592H68.25V18.9185Z" fill="#321B41"/>
<path d="M27.75 30.6805C27.75 30.4576 27.8389 30.244 27.9971 30.0864C28.1554 29.9288 28.37 29.8403 28.5938 29.8403H47.1562C47.38 29.8403 47.5946 29.9288 47.7529 30.0864C47.9111 30.244 48 30.4576 48 30.6805C48 30.9033 47.9111 31.117 47.7529 31.2745C47.5946 31.4321 47.38 31.5206 47.1562 31.5206H28.5938C28.37 31.5206 28.1554 31.4321 27.9971 31.2745C27.8389 31.117 27.75 30.9033 27.75 30.6805Z" fill="#9B9B9B"/>
</svg>
