<svg width="54" height="53" viewBox="0 0 54 53" fill="none" xmlns="http://www.w3.org/2000/svg">
<path d="M15.2611 30.6842C23.6896 30.6842 30.5222 23.8153 30.5222 15.3421C30.5222 6.86889 23.6896 0 15.2611 0C6.83263 0 0 6.86889 0 15.3421C0 23.8153 6.83263 30.6842 15.2611 30.6842Z" fill="#627EEA"/>
<path d="M15.7344 3.83545V12.3407L22.8852 15.553L15.7344 3.83545Z" fill="white" fill-opacity="0.602"/>
<path d="M15.7357 3.83545L8.58398 15.553L15.7357 12.3407V3.83545Z" fill="white"/>
<path d="M15.7344 21.0647V26.8438L22.8899 16.8916L15.7344 21.0647Z" fill="white" fill-opacity="0.602"/>
<path d="M15.7357 26.8438V21.0637L8.58398 16.8916L15.7357 26.8438Z" fill="white"/>
<path d="M15.7344 19.7271L22.8852 15.5531L15.7344 12.3428V19.7271Z" fill="white" fill-opacity="0.2"/>
<path d="M8.58398 15.5531L15.7357 19.7271V12.3428L8.58398 15.5531Z" fill="white" fill-opacity="0.602"/>
<path d="M29.7204 40.9518C37.7064 43.6949 46.3785 39.4242 49.0901 31.4129C51.8017 23.4016 47.526 14.6835 39.54 11.9404C31.554 9.19733 22.8819 13.4681 20.1703 21.4793C17.4587 29.4906 21.7345 38.2087 29.7204 40.9518Z" fill="#F7931A"/>
<path d="M41.7361 26.8829C42.6633 25.0797 41.5655 23.5619 39.8239 22.2025L41.3356 19.847L39.9056 18.9206L38.4332 21.2136C38.0577 20.9693 37.669 20.7285 37.2812 20.488L38.7637 18.1802L37.3339 17.2528L35.8225 19.6074C35.508 19.4137 35.202 19.2208 34.9044 19.0289L34.9089 19.0213L32.9365 17.7416L31.9541 19.2727C31.9541 19.2727 33.0236 19.9376 32.9937 19.9456C33.5728 20.3216 33.5446 20.7806 33.4126 21.1078L31.6911 23.791C31.7316 23.8164 31.78 23.8522 31.8363 23.8986L31.6847 23.8009L29.2722 27.5597C29.1294 27.7252 28.8353 27.9471 28.4295 27.6852C28.4381 27.7135 27.3902 27.0114 27.3902 27.0114L26.0075 28.5387L27.8692 29.746C28.2149 29.971 28.5517 30.198 28.8844 30.4166L27.3566 32.7989L28.7857 33.725L30.2974 31.3695C30.6846 31.6307 31.0633 31.8813 31.4335 32.1211L29.9273 34.4663L31.3573 35.3928L32.8834 33.0159C35.377 34.4372 37.4492 34.9212 39.1109 32.7934C40.4493 31.0809 40.1164 29.7124 38.962 28.4991C40.0633 28.6141 41.0597 28.2043 41.7361 26.8829ZM36.4656 30.6783C35.3248 32.4597 32.4134 30.2845 31.4433 29.6567L33.4699 26.5013C34.4394 27.1309 37.6579 28.8224 36.4656 30.6783ZM38.6586 25.7944C37.6189 27.4142 35.2046 25.5798 34.3978 25.0567L36.2341 22.1953C37.0409 22.7184 39.743 24.105 38.6586 25.7944Z" fill="white"/>
<path d="M15.2611 52.9999C23.6896 52.9999 30.5222 46.131 30.5222 37.6578C30.5222 29.1846 23.6896 22.3157 15.2611 22.3157C6.83263 22.3157 0 29.1846 0 37.6578C0 46.131 6.83263 52.9999 15.2611 52.9999Z" fill="#26A17B"/>
<path fill-rule="evenodd" clip-rule="evenodd" d="M17.0951 38.984V38.9821C16.9901 38.9897 16.4493 39.0223 15.2427 39.0223C14.2794 39.0223 13.6012 38.9936 13.3628 38.9821V38.9849C9.65431 38.821 6.88633 38.1718 6.88633 37.3951C6.88633 36.6184 9.65431 35.9702 13.3628 35.8034V38.3386C13.605 38.3559 14.2994 38.3971 15.259 38.3971C16.4102 38.3971 16.9873 38.3492 17.0951 38.3396V35.8053C20.7959 35.9712 23.5572 36.6203 23.5572 37.3951C23.5572 38.1718 20.7959 38.819 17.0951 38.984ZM17.0951 35.5416V33.2729H22.259V29.8132H8.19878V33.2729H13.3628V35.5406C9.16595 35.7343 6.00977 36.5705 6.00977 37.5715C6.00977 38.5726 9.16595 39.4078 13.3628 39.6025V46.8727H17.0951V39.6005C21.2852 39.4068 24.4337 38.5717 24.4337 37.5715C24.4337 36.5714 21.2852 35.7362 17.0951 35.5416Z" fill="white"/>
</svg>
