<svg width="21" height="20" viewBox="0 0 21 20" fill="none" xmlns="http://www.w3.org/2000/svg">
<path d="M5.9974 15.8333C5.9974 16.75 6.7474 17.5 7.66406 17.5H14.3307C15.2474 17.5 15.9974 16.75 15.9974 15.8333V7.5C15.9974 6.58333 15.2474 5.83333 14.3307 5.83333H7.66406C6.7474 5.83333 5.9974 6.58333 5.9974 7.5V15.8333ZM15.9974 3.33333H13.9141L13.3224 2.74167C13.1724 2.59167 12.9557 2.5 12.7391 2.5H9.25573C9.03906 2.5 8.8224 2.59167 8.6724 2.74167L8.08073 3.33333H5.9974C5.53906 3.33333 5.16406 3.70833 5.16406 4.16667C5.16406 4.625 5.53906 5 5.9974 5H15.9974C16.4557 5 16.8307 4.625 16.8307 4.16667C16.8307 3.70833 16.4557 3.33333 15.9974 3.33333Z" fill="#0061A3"/>
</svg>
