<svg xmlns="http://www.w3.org/2000/svg" xmlns:xlink="http://www.w3.org/1999/xlink" version="1.1">
    <defs>
        <clipPath id="clip0_294_220"><path d="M0 0h19v17H0z"/></clipPath>
        <clipPath id="clip0_294_226"><path d="M0 0h17v17H0z"/></clipPath>
        <clipPath id="clip0_294_218"><path d="M0 0h18v17H0z"/></clipPath>
    </defs>
    <symbol xmlns="http://www.w3.org/2000/svg" id="i-arrow-left" viewBox="0 0 16 16"><path d="M7.293 15.707a1 1 0 001.414-1.414L3.414 9H15a1 1 0 100-2H3.414l5.293-5.293A1 1 0 007.293.293l-7 7a.997.997 0 000 1.416m7 6.998l-7-7z"/></symbol>
    <symbol xmlns="http://www.w3.org/2000/svg" id="i-arrow-right" viewBox="0 0 16 16"><path d="M8.707.293a1 1 0 00-1.414 1.414L12.586 7H1a1 1 0 100 2h11.586l-5.293 5.293a1 1 0 101.414 1.414l7-7 .007-.006A.997.997 0 0016 8.003V8v-.003a.996.996 0 00-.286-.698l-.008-.007m-6.999-7l7 7z"/></symbol>
    <symbol xmlns="http://www.w3.org/2000/svg" id="i-exclusive-first-deposit-bonus" fill="none" viewBox="0 0 24 24"><path d="M0 12C0 5.374 5.374 0 12 0s12 5.374 12 12-5.374 12-12 12S0 18.626 0 12z" fill="gold"/><path clip-rule="evenodd" d="M12 2C6.478 2 2 6.478 2 12s4.478 10 10 10 10-4.478 10-10S17.522 2 12 2zm0-2C5.374 0 0 5.374 0 12s5.374 12 12 12 12-5.374 12-12S18.626 0 12 0z" fill="#ffb800" fill-rule="evenodd"/><path d="M11.108 6.764a1 1 0 011.784 0l1.037 2.05a1 1 0 00.752.538l2.275.324a1 1 0 01.548 1.714l-1.616 1.538a1 1 0 00-.295.897l.385 2.194a1 1 0 01-1.442 1.062l-2.08-1.068a1 1 0 00-.913 0L9.461 17.08a1 1 0 01-1.44-1.063l.386-2.193a1 1 0 00-.296-.898L6.496 11.39a1 1 0 01.548-1.714l2.275-.324a1 1 0 00.752-.539z" fill="#c5650d"/></symbol>
    <symbol xmlns="http://www.w3.org/2000/svg" id="i-icon-blockchain" viewBox="0 0 12 12"><path d="M8.657 2H7V0h5v5h-2V3.485L5.414 8.071 4 6.657zM10 10V7h2v5H0V0h5v2H2v8z"/></symbol>
    <symbol xmlns="http://www.w3.org/2000/svg" id="i-icon-bonus" viewBox="0 0 12 12"><path d="M4.2 0c-.987 0-1.8.813-1.8 1.8 0 .211.044.411.113.6H0v2.4h.6v5.4c0 .66.54 1.2 1.2 1.2h3.6V4.8h1.2v6.6h3.6c.66 0 1.2-.54 1.2-1.2V4.8h.6V2.4H9.487c.069-.189.113-.389.113-.6C9.6.813 8.787 0 7.8 0c-.461 0-.88.182-1.2.472V.46l-.07.07-.53.53-.53-.53L5.4.46v.013A1.785 1.785 0 004.2 0zm0 1.2c.338 0 .6.262.6.6s-.262.6-.6.6-.6-.262-.6-.6.262-.6.6-.6zm3.6 0c.338 0 .6.262.6.6s-.262.6-.6.6-.6-.262-.6-.6.262-.6.6-.6z"/></symbol>
    <symbol xmlns="http://www.w3.org/2000/svg" id="i-icon-bug" viewBox="0 0 24 24"><path d="M14.975 1.988a1 1 0 00-.69.313l-1.719 1.756C12.383 4.022 12.194 4 12 4s-.383.022-.566.057L9.714 2.3a1 1 0 10-1.429 1.398l1.393 1.422A2.972 2.972 0 009 7c0 .053.013.084.016.133-.493.14-.946.387-1.313.754A9.83 9.83 0 006.753 9H4a1 1 0 000 2h1.62a8.205 8.205 0 00-.544 2H4a1 1 0 000 2h1.045c.059.711.178 1.38.36 2H4a1 1 0 000 2h2.3c1.042 1.636 2.662 2.677 4.7 2.932V12a1 1 0 012 0v9.932c2.038-.255 3.658-1.296 4.7-2.932H20a1 1 0 000-2h-1.404c.181-.62.3-1.289.36-2H20a1 1 0 000-2h-1.082a8.482 8.482 0 00-.559-2H20a1 1 0 000-2h-2.764a9.335 9.335 0 00-.94-1.113 2.994 2.994 0 00-1.312-.754c.003-.049.016-.08.016-.133 0-.715-.26-1.363-.678-1.879L15.715 3.7a1 1 0 00-.74-1.71z"/></symbol>
    <symbol xmlns="http://www.w3.org/2000/svg" id="i-icon-calculator" viewBox="0 0 16 18"><path d="M0 2a2 2 0 012-2h12a2 2 0 012 2v14a2 2 0 01-2 2H2a2 2 0 01-2-2zm2 0h12v2H2zm3 4H3v2h2zm-2 4h2v2H3zm2 4H3v2h2zm2-8h2v2H7zm2 4H7v2h2zm-2 4h2v2H7zm6-8h-2v2h2zm-2 4h2v2h-2zm2 4h-2v2h2z" fill-rule="evenodd"/></symbol>
    <symbol xmlns="http://www.w3.org/2000/svg" id="i-icon-cashback" viewBox="0 0 19 17"><g clip-path="url(#clip0_294_220)"><path clip-rule="evenodd" d="M1.245 5.767a.911.911 0 00-.912.911v9.11a.91.91 0 00.912.912h16.399a.91.91 0 00.91-.911v-9.11a.91.91 0 00-.91-.912h-16.4zm14.658 1.822a1.368 1.368 0 00.83.831v5.627a1.368 1.368 0 00-.83.83H2.988a1.367 1.367 0 00-.831-.83V8.42a1.367 1.367 0 00.83-.83h12.916z"/><path d="M16.03.33a.907.907 0 011.11.652l.772 2.963h-1.883l-.215-.82a1.362 1.362 0 01-1.009-.593L9.378 3.945H2.146L16.03.329zM9.444 8.5a2.733 2.733 0 100 5.467 2.733 2.733 0 000-5.467zm-4.555 1.822a.91.91 0 100 1.822.91.91 0 000-1.822zm9.11 0a.91.91 0 100 1.822.91.91 0 000-1.822z"/></g></symbol>
    <symbol xmlns="http://www.w3.org/2000/svg" id="i-icon-checkmark" viewBox="0 0 11 8"><path d="M2.121 3.364A1 1 0 10.707 4.778L2.828 6.9l.708.708.004.004a1 1 0 001.41-.004l5.657-5.657A1 1 0 009.192.536l-4.95 4.95z"/></symbol>
    <symbol xmlns="http://www.w3.org/2000/svg" id="i-icon-chips" viewBox="0 0 16 16"><path d="M6.222.889A5.34 5.34 0 00.89 6.222c0 1.866.949 3.53 2.443 4.485a6.585 6.585 0 01-.073-.93c0-.643.097-1.263.271-1.85l-.742.605a4.086 4.086 0 01-.632-1.515l1.189-.119c.06.259.163.498.287.725.203-.58.485-1.123.834-1.615a1.77 1.77 0 011.542-1.543 6.484 6.484 0 011.615-.833 2.91 2.91 0 00-.725-.288l.12-1.189a4.104 4.104 0 011.514.633l-.605.74a6.534 6.534 0 011.85-.269c.317 0 .626.03.93.073A5.302 5.302 0 006.222.89zm-.795 1.264l.12 1.19c-.317.075-.612.202-.88.369l-.76-.93a4.122 4.122 0 011.52-.63zM2.782 3.906l.93.76a2.923 2.923 0 00-.368.88l-1.191-.119c.108-.554.324-1.07.63-1.52zm6.996.538a5.343 5.343 0 00-5.334 5.334 5.342 5.342 0 005.334 5.333 5.342 5.342 0 005.333-5.333 5.342 5.342 0 00-5.333-5.334zm-.795 1.263L9.102 6.9c-.316.075-.61.201-.879.369l-.764-.935c.452-.304.968-.52 1.524-.627zm1.59 0a4.122 4.122 0 011.523.627l-.764.935a2.942 2.942 0 00-.878-.369zM6.334 7.46l.935.764a2.942 2.942 0 00-.369.879l-1.193-.12a4.122 4.122 0 01.627-1.523zm6.887 0c.304.452.52.968.627 1.524l-1.193.119a2.941 2.941 0 00-.368-.879zM9.778 8a1.77 1.77 0 011.778 1.778c0 .988-.79 1.778-1.778 1.778S8 10.766 8 9.778C8 8.789 8.789 8 9.778 8zM6.9 10.454c.075.315.201.61.369.878l-.935.764a4.122 4.122 0 01-.627-1.523zm5.755 0l1.193.119a4.123 4.123 0 01-.627 1.523l-.934-.764c.167-.268.293-.563.368-.878zm-4.432 1.833c.268.167.563.293.879.368l-.12 1.193a4.123 4.123 0 01-1.523-.627zm3.11 0l.763.934c-.452.304-.967.52-1.523.627l-.12-1.193c.316-.075.611-.2.88-.368z"/></symbol>
    <symbol xmlns="http://www.w3.org/2000/svg" id="i-icon-close-thick" viewBox="0 0 10 10"><path d="M.793 9.278a1 1 0 001.414 0L5.036 6.45l2.828 2.828a1 1 0 101.414-1.414L6.45 5.036l2.828-2.829A1 1 0 007.864.793L5.036 3.62 2.207.793A1 1 0 00.793 2.207L3.62 5.036.793 7.864a1 1 0 000 1.414z"/></symbol>
    <symbol xmlns="http://www.w3.org/2000/svg" id="i-icon-close" viewBox="0 0 16 16"><path d="M2.778 1.636A1 1 0 101.364 3.05L6.314 8l-4.95 4.95a1 1 0 101.414 1.414l4.95-4.95 4.95 4.95a1 1 0 001.414-1.415L9.142 8l4.95-4.95a1 1 0 00-1.414-1.413l-4.95 4.95z"/></symbol>
    <symbol xmlns="http://www.w3.org/2000/svg" id="i-icon-copy" viewBox="0 0 24 24"><path d="M4 2a2 2 0 00-2 2v14h2V4h14V2zm4 4a2 2 0 00-2 2v12a2 2 0 002 2h12a2 2 0 002-2V8a2 2 0 00-2-2zm0 2h12v12H8z"/></symbol>
    <symbol xmlns="http://www.w3.org/2000/svg" id="i-icon-credit-card" viewBox="0 0 24 16"><path d="M2 0a2 2 0 00-2 2v1h24V2a2 2 0 00-2-2zm22 5H0v9a2 2 0 002 2h20a2 2 0 002-2z"/></symbol>
    <symbol xmlns="http://www.w3.org/2000/svg" id="i-icon-crown" viewBox="0 0 28 23"><path d="M14 0a2 2 0 00-.941 3.764L9.104 11.18 3.723 8.014a2 2 0 10-1.524.974L3 17h22l.8-8.01a1.999 1.999 0 001.614-.576 2 2 0 10-3.137-.4l-5.38 3.166-3.956-7.416A2 2 0 0014 0zM3 19v2a2 2 0 002 2h18a2 2 0 002-2v-2z"/></symbol>
    <symbol xmlns="http://www.w3.org/2000/svg" id="i-icon-date" viewBox="0 0 12 12"><path d="M9 1.2h2.4a.6.6 0 01.6.6v9.6a.6.6 0 01-.6.6H.6a.6.6 0 01-.6-.6V1.8a.6.6 0 01.6-.6H3V0h1.2v1.2h3.6V0H9zM1.2 4.8v6h9.6v-6zM2.4 6h1.2v1.2H2.4zm3 0h1.2v1.2H5.4zm3 0h1.2v1.2H8.4z"/></symbol>
    <symbol xmlns="http://www.w3.org/2000/svg" id="i-icon-down" viewBox="0 0 9 5"><path d="M8.036.293a1 1 0 00-1.415 0L4.5 2.414 2.379.293A1 1 0 00.964 1.707l2.829 2.829a1 1 0 001.414 0l.707-.708 2.122-2.12a1 1 0 000-1.415z"/></symbol>
    <symbol xmlns="http://www.w3.org/2000/svg" id="i-icon-email-verification" fill="none" viewBox="0 0 96 96"><circle cx="48" cy="48" fill="#9ea1ae" r="48"/><path d="M67 26c-.192.001-.383.03-.566.086a2.04 2.04 0 00-.16.05L22.3 40.122v.008A2 2 0 0021 42a2 2 0 00.965 1.707l13.363 10.602 26.418-21.055-21.055 26.418 10.594 13.355a1.999 1.999 0 003.586-.328h.008l13.996-44.011.04-.122c.055-.183.084-.374.085-.566a2 2 0 00-2-2z" fill="#fff"/></symbol>
    <symbol xmlns="http://www.w3.org/2000/svg" id="i-icon-exclamation" viewBox="0 0 2 10"><path d="M1 0a1 1 0 00-1 1v4a1 1 0 002 0V1a1 1 0 00-1-1zM1 8a1 1 0 100 2 1 1 0 000-2z"/></symbol>
    <symbol xmlns="http://www.w3.org/2000/svg" id="i-icon-expand" viewBox="0 0 12 12"><path d="M0 0h4v2H2v2H0zm0 12V8h2v2h2v2zM12 1V0H8v2h2v2h2V2zm0 11H8v-2h2V8h2z"/></symbol>
    <symbol xmlns="http://www.w3.org/2000/svg" id="i-icon-failure-round-thin" viewBox="0 0 100 100"><path d="M100 50c0 27.614-22.386 50-50 50S0 77.614 0 50 22.386 0 50 0s50 22.386 50 50zM2.341 50C2.341 76.321 23.68 97.659 50 97.659c26.321 0 47.659-21.338 47.659-47.659C97.659 23.679 76.32 2.341 50 2.341 23.679 2.341 2.341 23.68 2.341 50z"/><path fill-rule="evenodd" clip-rule="evenodd" d="M47.728 49.556L35 62.284l2.121 2.122L49.85 51.678l13.435 13.435 2.122-2.122L51.97 49.556l13.435-13.435L63.284 34 49.85 47.435 37.121 34.707 35 36.828l12.728 12.728z"/></symbol>
    <symbol xmlns="http://www.w3.org/2000/svg" id="i-icon-free-spins" viewBox="0 0 12 12"><path d="M6 0a5.973 5.973 0 00-4.556 2.11l-.42-.42A.6.6 0 000 2.116v1.953a.6.6 0 00.6.6h1.953a.6.6 0 00.425-1.024l-.583-.584a4.64 4.64 0 016.904-.359 4.672 4.672 0 011.329 2.701c.043.329.307.598.638.598h.134c.331 0 .603-.27.57-.6A6.008 6.008 0 006 0zM.6 6c-.331 0-.603.27-.57.6A6.008 6.008 0 006 12a5.972 5.972 0 004.556-2.11l.42.42A.6.6 0 0012 9.884V7.932a.6.6 0 00-.6-.6H9.447a.6.6 0 00-.425 1.024l.583.584a4.64 4.64 0 01-6.903.358 4.673 4.673 0 01-1.33-2.7C1.33 6.269 1.065 6 .734 6z"/></symbol>
    <symbol xmlns="http://www.w3.org/2000/svg" id="i-icon-gear" viewBox="0 0 16 16"><path d="M6.43 0c-.382 0-.71.27-.784.647L5.38 2.019a6.386 6.386 0 00-1.797 1.033l-1.315-.454a.8.8 0 00-.953.357L.107 5.045A.802.802 0 00.274 6.05l1.055.917A6.41 6.41 0 001.24 8c0 .353.035.696.09 1.033L.274 9.95a.802.802 0 00-.167 1.005l1.207 2.09a.8.8 0 00.953.358l1.315-.453c.533.437 1.14.783 1.797 1.031l.267 1.372a.799.799 0 00.785.647h2.415c.384 0 .711-.27.785-.647l.267-1.372a6.384 6.384 0 001.797-1.033l1.315.454a.8.8 0 00.954-.357l1.206-2.092a.8.8 0 00-.167-1.003l-1.055-.917c.055-.337.09-.68.09-1.033 0-.353-.035-.696-.09-1.033l1.055-.917a.802.802 0 00.167-1.005l-1.207-2.09a.8.8 0 00-.953-.358l-1.315.453a6.388 6.388 0 00-1.797-1.031L9.63.647A.799.799 0 008.846 0H6.431zM7.64 4.8a3.2 3.2 0 110 6.4 3.2 3.2 0 010-6.4z"/></symbol>
    <symbol xmlns="http://www.w3.org/2000/svg" id="i-icon-gift" fill="none" viewBox="0 0 24 24"><path d="M21.992 10.674H2.008c-.21 0-.379.17-.379.38V22.81c0 .21.17.379.38.379h19.983c.21 0 .38-.17.38-.379V11.053a.38.38 0 00-.38-.379z" fill="#ffb82e"/><path d="M21.992 10.674H2.008c-.21 0-.379.17-.379.38v1.515h20.742v-1.516a.38.38 0 00-.379-.379z" fill="#e38b3a"/><path d="M13.936 10.674h-3.872c-.21 0-.379.17-.379.38V22.81c0 .21.17.379.379.379h3.872c.209 0 .379-.17.379-.379V11.053c0-.209-.17-.379-.38-.379z" fill="#ff5757"/><path d="M13.936 10.674h-3.872c-.21 0-.379.17-.379.38v1.507h4.63v-1.508c0-.209-.17-.379-.38-.379z" fill="#de3838"/><path d="M21.253 3.674c-.371-.969-.957-1.914-1.568-2.53a1.156 1.156 0 00-.869-.334c-1.138.027-2.992 1.455-5.51 4.245a.379.379 0 00-.098.254v2.004c0 .21.17.379.379.379h5.829c1.299 0 1.835-.632 2.056-1.162.294-.707.217-1.721-.219-2.856z" fill="#ff5757"/><path d="M21.471 4.334a.38.38 0 00-.05-.11c-.572-.864-1.808-.54-2.744-.117-2.721 1.232-3.845 2.928-3.891 3a.379.379 0 00.318.585h4.313c.826 0 1.44-.254 1.822-.754.454-.594.534-1.495.232-2.604z" fill="#de3838"/><path d="M10.694 5.055C8.174 2.265 6.32.837 5.184.81a1.155 1.155 0 00-.87.334c-.61.616-1.197 1.561-1.568 2.53-.436 1.135-.513 2.15-.219 2.856.221.53.757 1.162 2.056 1.162h5.83c.209 0 .378-.17.378-.379V5.309a.378.378 0 00-.097-.254z" fill="#ff5757"/><path d="M9.215 7.107c-.047-.072-1.17-1.768-3.89-3-.937-.424-2.174-.747-2.746.118a.38.38 0 00-.05.11c-.301 1.108-.22 2.009.233 2.603.383.5.996.754 1.822.754h4.313a.379.379 0 00.318-.585zM13.588 4.555h-3.175c-.21 0-.379.17-.379.38v2.378c0 .21.17.38.379.38h3.175c.209 0 .378-.17.378-.38V4.934c0-.21-.17-.379-.378-.379z" fill="#de3838"/><path d="M23.621 6.935H.38c-.21 0-.379.17-.379.379v3.74c0 .209.17.378.379.378H23.62c.21 0 .379-.17.379-.379V7.314c0-.21-.17-.379-.379-.379z" fill="#ffb82e"/><path d="M14.91 6.935H9.09v4.497h5.821z" fill="#ff5757"/></symbol>
    <symbol xmlns="http://www.w3.org/2000/svg" id="i-icon-hand-pointer" viewBox="0 0 38 41"><path d="M33.063 11.188c-.837 0-1.618.237-2.302.628a4.667 4.667 0 00-3.948-2.191c-.837 0-1.618.238-2.301.629a4.667 4.667 0 00-3.95-2.191c-.549 0-1.068.11-1.556.286V4.937A4.697 4.697 0 0014.32.25h-.006a4.697 4.697 0 00-4.688 4.688v16.809l-1.373-1.374a4.697 4.697 0 00-6.629 0 4.697 4.697 0 000 6.629l10.614 10.583c2.161 2.149 4.7 3.29 7.349 3.29h7.227c6.03 0 10.937-4.907 10.937-10.938V15.876a4.697 4.697 0 00-4.687-4.688zm1.562 18.75c0 4.309-3.503 7.812-7.812 7.812h-7.227c-2.277 0-4.053-1.294-5.145-2.38L3.833 24.792a1.562 1.562 0 112.21-2.21l6.707 6.709.006-24.354c0-.86.696-1.562 1.563-1.562.854 0 1.556.702 1.556 1.563l.006 7.782c0 .012-.006.018-.006.03v4.688h.006v.006l3.125-.006v-4.712a1.56 1.56 0 013.12.024v4.688h3.124v-3.125c0-.861.702-1.563 1.563-1.563.86 0 1.562.702 1.562 1.563v3.124H31.5v-1.562c0-.86.702-1.563 1.563-1.563.86 0 1.562.702 1.562 1.563v14.063z"/></symbol>
    <symbol xmlns="http://www.w3.org/2000/svg" id="i-icon-heart" viewBox="0 0 16 14"><path d="M8 14l6.794-6.88a4.208 4.208 0 000-5.899 4.081 4.081 0 00-5.823 0L8 2.204l-.97-.983a4.081 4.081 0 00-5.824 0 4.208 4.208 0 000 5.898z"/></symbol>
    <symbol xmlns="http://www.w3.org/2000/svg" id="i-icon-home" viewBox="0 0 24 24"><path d="M12 0a1 1 0 00-.7.285L.394 9.207l-.038.03-.037.03v.003A1 1 0 001 11h1v11a2 2 0 002 2h16a2 2 0 002-2V11h1a1 1 0 00.682-1.732l-.016-.012a.995.995 0 00-.068-.057L22 7.893V4a1 1 0 00-1-1h-1a1 1 0 00-1 1v1.44L12.678.268A1 1 0 0012 0zm3 13h4v8h-4z"/></symbol>
    <symbol xmlns="http://www.w3.org/2000/svg" id="i-icon-hot" viewBox="0 0 32 32"><path d="M29.656 18.91c0 5.44-3.776 11.008-8.832 12.992-.16.064-.32.096-.48.096-.544 0-1.056-.32-1.248-.832-.192-.448-.064-.928.192-1.28l-.032-.032c.544-.704 1.088-2.304 1.088-3.2a3.949 3.949 0 00-1.184-2.816l-2.816-3.168-2.784 3.104c-.8.832-1.216 1.824-1.216 2.88 0 .896.544 2.496 1.056 3.2l-.032.032c.288.352.384.832.192 1.28a1.312 1.312 0 01-1.216.832 1.45 1.45 0 01-.512-.096C6.872 29.95 3 24.126 3 18.654c0-4.768 2.24-7.168 5.632-10.784.736-.8 1.568-1.664 2.432-2.624.48-.544 1.248-.576 1.792-.16.288.224 2.88 3.072 3.136 3.328a1.323 1.323 0 01-.096 1.888 1.375 1.375 0 01-.896.352c-.352 0-.736-.16-.992-.448l-1.952-2.08c-.512.544-1.024 1.088-1.472 1.568-3.264 3.488-4.928 5.248-4.928 8.96 0 3.168 1.664 6.528 4.064 8.768-.032-.256-.064-.512-.064-.768 0-1.76.704-3.424 1.984-4.704l4.704-5.28 4.768 5.344A6.67 6.67 0 0123 26.654c0 .256-.032.512-.064.8C25.368 25.278 27 22.014 27 18.91c0-3.904-1.504-5.568-7.104-11.648-1.28-1.44-2.816-3.072-4.544-5.056A1.287 1.287 0 0115.448.35c.544-.512 1.376-.448 1.888.096 1.728 1.952 3.232 3.584 4.544 5.024 5.664 6.176 7.776 8.48 7.776 13.44z"/></symbol>
    <symbol xmlns="http://www.w3.org/2000/svg" id="i-icon-i" viewBox="0 0 2 12"><path d="M1 2a1 1 0 100-2 1 1 0 000 2zm0 2a1 1 0 00-1 1v6a1 1 0 102 0V5a1 1 0 00-1-1z"/></symbol>
    <symbol xmlns="http://www.w3.org/2000/svg" id="i-icon-id" viewBox="0 0 12 12"><path d="M2 0a2 2 0 00-2 2v8a2 2 0 002 2h8a2 2 0 002-2V2a2 2 0 00-2-2zm2.102 5.111l-.21 1.778H2v.889h1.787L3.524 10H4.53l.263-2.222h1.994L6.524 10H7.53l.263-2.222H10v-.89H7.898l.21-1.777H10v-.889H8.213L8.476 2H7.47l-.263 2.222H5.213L5.476 2H4.47l-.263 2.222H2v.89zm2.79 1.778H4.898l.21-1.778h1.994z" fill-rule="evenodd"/></symbol>
    <symbol xmlns="http://www.w3.org/2000/svg" id="i-icon-image" viewBox="0 0 24 24"><path d="M20 4H4a2 2 0 00-2 2v12a2 2 0 002 2h16a2 2 0 002-2V6a2 2 0 00-2-2zM10 8a1 1 0 110 2 1 1 0 010-2zm8 9H6.022a.5.5 0 01-.394-.807l2.49-3.202a.5.5 0 01.779-.012L11 15.51l3.098-3.992a.5.5 0 01.795.007L18.4 16.2a.5.5 0 01-.4.8z"/></symbol>
    <symbol xmlns="http://www.w3.org/2000/svg" id="i-icon-info-i" viewBox="0 0 2 10"><path d="M2 1a1 1 0 10-2 0 1 1 0 002 0zm0 3a1 1 0 00-2 0v5a1 1 0 002 0V4z"/></symbol>
    <symbol xmlns="http://www.w3.org/2000/svg" id="i-icon-info" viewBox="0 0 14 14"><path d="M14 6.999a7 7 0 11-14 0 7 7 0 0114 0zm-8 0a1 1 0 012 0v3a1 1 0 01-2 0zm1-4a1 1 0 100 2 1 1 0 000-2z" fill-rule="evenodd"/></symbol>
    <symbol xmlns="http://www.w3.org/2000/svg" id="i-icon-joystick" viewBox="0 0 17 16"><path d="M13.29 10H3.71c-.667 0-1.21.543-1.21 1.21v1.579c0 .668.543 1.211 1.21 1.211h9.579c.668 0 1.211-.543 1.211-1.21V11.21c0-.668-.543-1.211-1.21-1.211zM7.832 5.877v2.79h1.334v-2.79A1.997 1.997 0 0010.5 4c0-1.103-.897-2-2-2s-2 .897-2 2c0 .868.56 1.601 1.333 1.877zm-1.518 2.79A1.33 1.33 0 005.167 8c-.492 0-.918.27-1.149.667h2.297z"/></symbol>
    <symbol xmlns="http://www.w3.org/2000/svg" id="i-icon-jusd" viewBox="0 0 17 17"><g clip-path="url(#clip0_294_226)"><path fill-rule="evenodd" clip-rule="evenodd" d="M8.334 16.5a8 8 0 100-16 8 8 0 000 16zm2.487-4.508c0 .115.055.175.158.175.102 0 .157-.06.157-.175v-.466c1.345-.068 2.198-.76 2.198-1.812 0-.912-.56-1.366-1.705-1.609l-.493-.103V6.998c.288.04.482.172.616.367.197.286.422.414.73.414.41 0 .666-.211.666-.546a.92.92 0 00-.055-.31c-.197-.55-.852-1.036-1.957-1.095v-.486c0-.116-.055-.175-.157-.175-.103 0-.158.06-.158.175v.482c-1.267.032-2.182.704-2.182 1.768 0 .935.604 1.43 1.685 1.66l.497.104v1.007c-.39-.024-.592-.171-.71-.374-.158-.271-.367-.438-.695-.438-.457 0-.71.258-.71.64 0 .092.024.204.075.323.197.442.79.988 2.04 1.016v.462zm0-4.062c-.438-.107-.66-.239-.66-.494 0-.263.226-.422.66-.446v.94zm.315 1.493c.478.112.683.211.683.478 0 .275-.269.422-.683.458v-.936zM3.46 10.526c.331.717 1.053 1.123 2.035 1.123 1.385 0 2.213-.745 2.213-2.094V6.588c0-.565-.304-.884-.836-.884-.533 0-.836.319-.836.884v2.955c0 .454-.198.693-.564.693-.296 0-.497-.16-.584-.45-.13-.434-.367-.622-.781-.622-.462 0-.774.307-.774.769 0 .203.04.382.127.593z"/></g></symbol>
    <symbol xmlns="http://www.w3.org/2000/svg" id="i-icon-keyboard" viewBox="0 0 28 18"><path d="M26 0H2a2 2 0 00-2 2v14a2 2 0 002 2h24a2 2 0 002-2V2a2 2 0 00-2-2zm-7 4h2v2h-2zm-4 0h2v2h-2zm4 4v2h-2V8zm-8-4h2v2h-2zm4 4v2h-2V8zM7 4h2v2H7zm4 4v2H9V8zM3 4h2v2H3zm0 4h4v2H3zm2 6H3v-2h2zm16 0H7v-2h14zm4 0h-2v-2h2zm0-4h-4V8h4zm0-4h-2V4h2z"/></symbol>
    <symbol xmlns="http://www.w3.org/2000/svg" id="i-icon-left" viewBox="0 0 6 9"><path d="M5.207 1.136a1 1 0 010 1.414L3.086 4.672l2.121 2.12a1 1 0 01-1.414 1.415L.964 5.38a1 1 0 010-1.415l2.829-2.828a1 1 0 011.414 0z"/></symbol>
    <symbol xmlns="http://www.w3.org/2000/svg" id="i-icon-like" viewBox="0 0 18 15"><path d="M10.826 0a1.25 1.25 0 00-.859.342L5.474 4.629A1.51 1.51 0 005 5.72v7.732C5 14.308 5.727 15 6.625 15h7.306c.65 0 1.237-.368 1.493-.937l2.444-5.417c.087-.193.132-.401.132-.611V6.489c0-.855-.727-1.547-1.625-1.547h-5.16l.807-3.532c.09-.39-.038-.797-.336-1.076a1.248 1.248 0 00-.86-.334zM0 5.833C0 5.373.336 5 .75 5h1.5c.414 0 .75.373.75.833v8.334c0 .46-.336.833-.75.833H.75c-.414 0-.75-.373-.75-.833z"/></symbol>
    <symbol xmlns="http://www.w3.org/2000/svg" id="i-icon-lock" viewBox="0 0 16 21"><path d="M8 0C4.676 0 2 2.676 2 6v1C.9 7 0 7.9 0 9v10c0 1.1.9 2 2 2h12c1.1 0 2-.9 2-2V9c0-1.1-.9-2-2-2V6c0-3.324-2.676-6-6-6zm0 2c2.276 0 4 1.724 4 4v1H4V6c0-2.276 1.724-4 4-4zm0 10c1.1 0 2 .9 2 2s-.9 2-2 2-2-.9-2-2 .9-2 2-2z"/></symbol>
    <symbol xmlns="http://www.w3.org/2000/svg" id="i-icon-logo" viewBox="0 0 67 12"><path d="M22.694 3.734s.578-.043.78-.385c.202-.342 1.32-2.946 1.32-2.946s.443-.461.89-.048c.359.331 1.344 2.909 1.344 2.909s.174.413.636.456c.462.042 3.207.342 3.207.342s.77.318.462.84c-.149.255-2.542 2.396-2.542 2.396s-.29.399-.202.698c.086.3.678 2.837.678 2.837s.044.513-.173.742c-.217.228-.347.242-.679.128-.332-.114-2.846-1.682-2.846-1.682s-.29-.129-.549.013c-.26.143-2.716 1.583-2.716 1.583s-.881.513-1.069-.356c-.029-.67.607-2.638.607-2.638s.26-.884-.13-1.283c-.39-.399-2.384-2.223-2.384-2.223s-.549-.6.087-.97c.65-.228 3.279-.413 3.279-.413zM5.279 7.783c0-.779-.155-1.396-.465-1.851-.31-.456-.798-.683-1.468-.683-.304 0-.59.046-.859.137-.269.09-.484.192-.646.303v4.566c.132.03.301.06.51.084.207.026.458.038.752.038.68 0 1.212-.23 1.597-.69.386-.46.579-1.095.579-1.904zm1.885.03c0 .637-.094 1.211-.281 1.722a3.71 3.71 0 01-.806 1.312c-.35.364-.774.642-1.27.835-.497.191-1.06.288-1.689.288a10.72 10.72 0 01-1.742-.137A10.939 10.939 0 010 11.53V.304L1.84 0v4.111c.213-.11.475-.212.784-.303.31-.091.652-.136 1.027-.136.557 0 1.057.098 1.498.295.441.198.809.478 1.103.843.294.363.52.8.677 1.311.157.511.235 1.075.235 1.692zm3.423 3.959h-1.84V3.838h1.84zm.198-10.254c0 .343-.112.616-.335.819a1.138 1.138 0 01-.79.303c-.315 0-.584-.1-.807-.303-.223-.203-.335-.476-.335-.82 0-.353.112-.632.335-.834A1.16 1.16 0 019.659.38c.304 0 .568.1.79.303.224.202.336.48.336.835zm1.719.227l1.84-.304v2.397h2.83v1.533h-2.83v3.231c0 .637.102 1.092.305 1.365.203.273.547.41 1.034.41.335 0 .631-.036.89-.107.258-.07.464-.136.616-.197l.304 1.457c-.213.09-.492.185-.837.28-.345.096-.75.144-1.216.144-.568 0-1.042-.076-1.423-.227a2.099 2.099 0 01-.905-.66 2.617 2.617 0 01-.471-1.047 6.468 6.468 0 01-.137-1.403zm23.716 8.601c.69 0 1.191-.116 1.506-.349.314-.232.471-.56.471-.986 0-.252-.053-.47-.16-.652a1.667 1.667 0 00-.455-.493 3.875 3.875 0 00-.724-.41c-.283-.126-.608-.25-.973-.372a13.065 13.065 0 01-1.057-.432 3.549 3.549 0 01-.897-.584 2.69 2.69 0 01-.624-.834c-.158-.323-.236-.713-.236-1.168 0-.95.33-1.697.99-2.238.658-.54 1.555-.812 2.691-.812.66 0 1.245.074 1.757.22.512.147.915.307 1.21.479l-.594 1.547a4.584 4.584 0 00-1.133-.44 5.32 5.32 0 00-1.27-.152c-.518 0-.92.106-1.21.319-.288.212-.433.51-.433.895 0 .232.048.432.145.6.096.166.233.315.41.446.178.132.385.253.624.365.238.11.5.217.784.318.496.183.94.367 1.33.554.39.187.72.41.989.668.269.258.474.56.616.91.141.349.213.771.213 1.266 0 .951-.337 1.687-1.012 2.208-.674.52-1.66.781-2.958.781a7.861 7.861 0 01-2.152-.288 6.578 6.578 0 01-.723-.25 4.408 4.408 0 01-.487-.236l.563-1.562a6.5 6.5 0 001.11.455c.467.151 1.03.227 1.689.227zm5.141-8.601l1.84-.304v2.397h2.83v1.533H43.2v3.231c0 .637.101 1.092.305 1.365.202.273.547.41 1.034.41.334 0 .631-.036.89-.107.258-.07.464-.136.616-.197l.304 1.457c-.213.09-.492.185-.837.28-.344.096-.75.144-1.216.144-.568 0-1.042-.076-1.422-.227a2.09 2.09 0 01-.906-.66 2.609 2.609 0 01-.471-1.047 6.5 6.5 0 01-.137-1.403zm8.914 8.738c.568 0 .998-.03 1.293-.091V8.359a4.13 4.13 0 00-1.08-.136c-.203 0-.408.015-.616.045-.209.03-.396.086-.563.167a1.02 1.02 0 00-.403.341.95.95 0 00-.152.554c0 .435.136.736.41.903.274.166.644.25 1.11.25zm-.152-6.842c.608 0 1.12.076 1.536.227.415.152.748.365.996.638.249.273.427.604.533.994.106.389.16.816.16 1.281v4.81c-.285.06-.713.134-1.286.22a13.24 13.24 0 01-1.94.128c-.476 0-.912-.046-1.307-.136a2.746 2.746 0 01-1.012-.44 2.068 2.068 0 01-.654-.79c-.157-.323-.236-.722-.236-1.197 0-.455.09-.84.266-1.153.177-.314.419-.57.723-.767a3.136 3.136 0 011.057-.425 6.004 6.004 0 011.894-.09c.223.025.461.068.715.129v-.304c0-.212-.026-.414-.076-.606a1.26 1.26 0 00-.266-.509 1.255 1.255 0 00-.502-.341 2.187 2.187 0 00-.784-.122c-.426 0-.816.03-1.171.091-.355.06-.644.132-.867.213l-.228-1.487a7.34 7.34 0 011.019-.243 8.008 8.008 0 011.43-.12zm9.674 1.851a6.023 6.023 0 00-.632-.16 4.667 4.667 0 00-.935-.083c-.203 0-.418.02-.647.06a3.98 3.98 0 00-.48.107v6.356h-1.84V4.217c.355-.131.799-.255 1.331-.371s1.123-.174 1.773-.174c.12 0 .263.007.425.022a6.647 6.647 0 01.958.152c.153.035.275.068.366.099zm6.829-.364c-.203.212-.469.51-.798.895a54.567 54.567 0 00-2.191 2.753c-.38.511-.723.999-1.027 1.464h4.108v1.532h-6.329v-1.137c.224-.405.503-.845.837-1.32.335-.475.68-.953 1.034-1.434.356-.48.708-.938 1.058-1.373.35-.435.662-.814.935-1.137h-3.665V3.838h6.038z"/></symbol>
    <symbol xmlns="http://www.w3.org/2000/svg" id="i-icon-logout" viewBox="0 0 24 25"><path d="M11.984.986A1 1 0 0011 2v11a1 1 0 102 0V2A1.001 1.001 0 0011.984.986zM6.996 2.213a1 1 0 00-.451.115C2.665 4.314 0 8.348 0 13c0 6.615 5.385 12 12 12s12-5.385 12-12c0-4.652-2.664-8.686-6.545-10.672a1 1 0 00-.91 1.781C19.78 5.765 22 9.11 22 13c0 5.535-4.465 10-10 10S2 18.535 2 13c0-3.89 2.22-7.234 5.455-8.89a1 1 0 00-.459-1.896z"/></symbol>
    <symbol xmlns="http://www.w3.org/2000/svg" id="i-icon-lottery" viewBox="0 0 13 14"><path d="M6.206 0c-.607-.011-1.192.453-1.36 1.124-.218.86.217 2.753.452 3.655-.687-.632-2.15-1.909-3.013-2.125-.769-.194-1.555.221-1.729.91-.074.297-.03.572.08.813a.476.476 0 01-.137.584 1.29 1.29 0 00-.464.674c-.174.69.323 1.426 1.092 1.62.862.216 2.756-.219 3.66-.453-.633.685-1.913 2.148-2.13 3.008-.193.767.222 1.552.914 1.725.264.066.556.023.813-.09a.477.477 0 01.58.155c.161.212.383.38.68.455.692.173 1.428-.322 1.622-1.09.217-.86-.219-2.753-.453-3.655.686.632 2.151 1.91 3.013 2.126.769.193 1.555-.222 1.729-.91a1.284 1.284 0 00-.09-.813.475.475 0 01.155-.58c.212-.16.38-.381.455-.677.174-.69-.322-1.427-1.09-1.62-.863-.216-2.759.217-3.662.451.633-.684 1.913-2.146 2.13-3.006C9.646 1.513 9.23.728 8.54.555a1.216 1.216 0 00-.814.08.476.476 0 01-.584-.138 1.284 1.284 0 00-.675-.462A1.157 1.157 0 006.206 0zm2.09 9.784c.028.321.032.606.018.859.723.901 1.548 1.739 2.425 2.285a.5.5 0 10.527-.85c-.67-.417-1.315-1.045-1.906-1.743a5.132 5.132 0 01-1.064-.55z"/></symbol>
    <symbol xmlns="http://www.w3.org/2000/svg" id="i-icon-maximize-iframe" viewBox="0 0 512 512"><path d="M491.318 0H334.439c-11.423 0-20.682 9.26-20.682 20.682s9.259 20.682 20.682 20.682h136.197v136.197c0 11.422 9.259 20.682 20.682 20.682S512 188.983 512 177.561V20.682C512 9.26 502.741 0 491.318 0zM177.561 470.636H41.365V334.439c0-11.423-9.26-20.682-20.682-20.682C9.26 313.757 0 323.016 0 334.439v156.879C0 502.741 9.26 512 20.682 512h156.879c11.422 0 20.682-9.259 20.682-20.682.001-11.423-9.26-20.682-20.682-20.682z"/><path d="M505.943 6.058c-8.077-8.077-21.172-8.077-29.249 0L293.669 189.083c-8.076 8.077-8.076 21.172 0 29.249a20.62 20.62 0 0014.625 6.058 20.62 20.62 0 0014.625-6.058L505.943 35.307c8.076-8.077 8.076-21.172 0-29.249zM218.332 293.669c-8.076-8.077-21.172-8.077-29.249 0L6.058 476.693c-8.077 8.077-8.077 21.172 0 29.249A20.611 20.611 0 0020.682 512a20.618 20.618 0 0014.625-6.058l183.025-183.025c8.077-8.076 8.077-21.171 0-29.248z"/></symbol>
    <symbol xmlns="http://www.w3.org/2000/svg" id="i-icon-notifications" viewBox="0 0 16 20"><path d="M8 0a1.5 1.5 0 00-1.5 1.5v.695A5.997 5.997 0 002 8v6L.465 15.156H.463A1 1 0 001 17h14a1 1 0 00.537-1.844L14 14V8a5.997 5.997 0 00-4.5-5.805V1.5A1.5 1.5 0 008 0zM6 18c0 1.1.9 2 2 2s2-.9 2-2z"/></symbol>
    <symbol xmlns="http://www.w3.org/2000/svg" id="i-icon-padlock-gray" viewBox="0 0 10 12" fill="none"><rect y="5.5" width="10" height="6" rx="1" fill="#D3D7DB"/><path d="M2 4.5a3 3 0 016 0v2H2v-2z" stroke="#D3D7DB" stroke-width="2"/></symbol>
    <symbol xmlns="http://www.w3.org/2000/svg" id="i-icon-padlock" viewBox="0 0 10 11" fill="none"><rect y="5" width="10" height="6" rx="1" fill="#161421"/><path d="M8 4v2H2V4a3 3 0 016 0z" stroke="#161421" stroke-width="2"/></symbol>
    <symbol xmlns="http://www.w3.org/2000/svg" id="i-icon-password-hide" viewBox="0 0 30 30"><path d="M1.707 0L.293 1.414l28 28L29.707 28l-6.025-6.025c4.096-2.774 6.117-6.651 6.144-6.704a1 1 0 00-.043-1.185C29.68 13.918 23.918 4.707 15 4.707c-2.53 0-4.8.75-6.766 1.82zM15 7.707a7 7 0 017 7c0 1.572-.53 3.013-1.406 4.18l-2.154-2.155c.353-.593.56-1.283.56-2.025a4 4 0 00-4-4 3.94 3.94 0 00-2.025.56L10.82 9.114A6.932 6.932 0 0115 7.707zM4.951 8.783C1.98 11.283.275 13.994.22 14.084a1 1 0 00-.053 1.174c.017.035 4.853 9.449 14.834 9.449 1.85 0 3.52-.327 5.02-.854l-2.588-2.59a6.961 6.961 0 01-2.432.444 7 7 0 01-7-7c0-.856.161-1.673.443-2.432zm6.06 6.035a3.988 3.988 0 003.876 3.877z"/></symbol>
    <symbol xmlns="http://www.w3.org/2000/svg" id="i-icon-password-show" viewBox="0 0 30 20"><path d="M15 0C6.082 0 .321 9.211.217 9.379a1 1 0 00-.055 1.166l.004.006C.183 10.586 5.019 20 15 20c9.939 0 14.767-9.321 14.826-9.435a1 1 0 00-.041-1.184l-.002-.002C29.68 9.21 23.918 0 15 0zm0 3a7 7 0 110 14 7 7 0 010-14zm0 4a3 3 0 100 6 3 3 0 000-6z"/></symbol>
    <symbol xmlns="http://www.w3.org/2000/svg" id="i-icon-piggy" viewBox="0 0 16 14"><path d="M14.565 5.82h.732c.443 0 .776.393.69.815l-.422 2.045a.698.698 0 01-.69.548h-.538a5.514 5.514 0 01-2.397 2.668v.74c0 .754-.629 1.364-1.405 1.364s-1.405-.61-1.405-1.363H6.321c-.238 0-.473-.017-.702-.047v.047C5.619 13.39 4.99 14 4.214 14s-1.405-.61-1.405-1.363v-1.2c-1.283-1-2.107-2.532-2.107-4.254 0-.477.07-.938.189-1.379A1.03 1.03 0 010 4.798c0-.565.472-1.023 1.054-1.023.264 0 .503.098.689.255a5.658 5.658 0 014.578-2.3h2.703C9.779.948 10.59.473 12.053.031c.545-.164 1.055.343.874.868l-.615 1.792c1.1.734 1.91 1.84 2.253 3.13zM13 6a1 1 0 11-2 0 1 1 0 012 0z" fill-rule="evenodd"/></symbol>
    <symbol xmlns="http://www.w3.org/2000/svg" id="i-icon-play" viewBox="0 0 21 31"><path d="M0 2.572C0 .911 1.908-.026 3.223.99L19.92 13.888a2 2 0 010 3.166L3.223 29.951C1.908 30.967 0 30.03 0 28.369V15.471z"/></symbol>
    <symbol xmlns="http://www.w3.org/2000/svg" id="i-icon-plus-thick" viewBox="0 0 10 10"><path d="M5 0a1 1 0 00-1 1v3H1a1 1 0 100 2h3v3a1 1 0 102 0V6h3a1 1 0 100-2H6V1a1 1 0 00-1-1z"/></symbol>
    <symbol xmlns="http://www.w3.org/2000/svg" id="i-icon-plus" viewBox="0 0 16 16"><path d="M9 1a1 1 0 00-2 0v6H1a1 1 0 000 2h6v6a1 1 0 102 0V9h6a1 1 0 100-2H9z"/></symbol>
    <symbol xmlns="http://www.w3.org/2000/svg" id="i-icon-prize" viewBox="0 0 18 17"><g clip-path="url(#clip0_294_218)"><path d="M6.229.5a2.54 2.54 0 00-2.527 2.526c0 .297.063.577.158.842H2.123c-.897 0-1.714.655-1.784 1.55-.053.678.3 1.272.837 1.585v7.813A1.69 1.69 0 002.86 16.5h5.053V8.079a.842.842 0 011.684 0V16.5h5.053a1.69 1.69 0 001.684-1.684V7.003c.537-.313.89-.907.837-1.585-.07-.895-.887-1.55-1.784-1.55H13.65c.095-.265.157-.545.157-.842A2.54 2.54 0 0011.281.5c-.647 0-1.235.256-1.684.663v-.018l-.099.098-.743.744-.744-.744-.098-.098v.018A2.505 2.505 0 006.229.5zm0 1.684a.83.83 0 01.842.842.83.83 0 01-.842.842.83.83 0 01-.843-.842.83.83 0 01.843-.842zm5.052 0a.83.83 0 01.842.842.83.83 0 01-.842.842.83.83 0 01-.842-.842.83.83 0 01.842-.842z"/></g></symbol>
    <symbol xmlns="http://www.w3.org/2000/svg" id="i-icon-progress-pointer" viewBox="0 0 13 13"><path d="M.214 2.894A2 2 0 012.003 0h8.609A2 2 0 0112.4 2.894l-4.305 8.61c-.737 1.474-2.84 1.474-3.578 0L.214 2.894z"/></symbol>
    <symbol xmlns="http://www.w3.org/2000/svg" id="i-icon-promotions" viewBox="0 0 24 26"><path d="M14.5 0a3.5 3.5 0 00-2.857 1.5A2.967 2.967 0 0010 1C8.355 1 7 2.355 7 4c0 .352.074.685.188 1H2a2 2 0 00-2 2v2h24V7a2 2 0 00-2-2h-4.356A3.44 3.44 0 0018 3.5C18 1.579 16.421 0 14.5 0zm0 2c.84 0 1.5.66 1.5 1.5S15.34 5 14.5 5H13V3.5c0-.84.66-1.5 1.5-1.5zM10 3c.565 0 1 .435 1 1v1h-1c-.565 0-1-.435-1-1s.435-1 1-1zm-9 8v13a2 2 0 002 2h18a2 2 0 002-2V11zm8.777 3c.913 0 1.717.447 2.223 1.127A2.766 2.766 0 0114.223 14 2.777 2.777 0 0117 16.777c0 2.238-3.247 5.036-4.508 6.04a.786.786 0 01-.984 0C10.247 21.812 7 19.014 7 16.776A2.777 2.777 0 019.777 14z"/></symbol>
    <symbol xmlns="http://www.w3.org/2000/svg" id="i-icon-question" viewBox="0 0 7 10"><path d="M3.155 6.91c.542 0 .873-.248 1.035-.718.141-.483.324-.725 1.289-1.256C6.514 4.366 7 3.68 7 2.693 7 1.061 5.599 0 3.465 0 1.866 0 .69.578.218 1.424A1.562 1.562 0 000 2.23c-.007.604.416.994 1.078.994.492 0 .894-.222 1.098-.659.218-.49.599-.738 1.162-.738.634 0 1.092.383 1.092.927 0 .577-.247.866-1.205 1.403-.767.417-1.183.907-1.183 1.639v.04c0 .638.437 1.075 1.113 1.075zM3.19 10c.733 0 1.331-.53 1.331-1.209 0-.671-.598-1.202-1.33-1.202-.74 0-1.332.53-1.332 1.202C1.86 9.47 2.451 10 3.19 10z"/></symbol>
    <symbol xmlns="http://www.w3.org/2000/svg" id="i-icon-refresh" class="w-6 h-6 text-gray-800 dark:text-white" aria-hidden="true" fill="none" viewBox="0 0 24 24"><path stroke="currentColor" stroke-linecap="round" stroke-linejoin="round" stroke-width="2" d="M17.651 7.65a7.131 7.131 0 00-12.68 3.15M18.001 4v4h-4m-7.652 8.35a7.13 7.13 0 0012.68-3.15M6 20v-4h4"/></symbol>
    <symbol xmlns="http://www.w3.org/2000/svg" id="i-icon-right" viewBox="0 0 5 8"><path d="M.293.636a1 1 0 000 1.414l2.121 2.122-2.121 2.12a1 1 0 001.414 1.415L4.536 4.88a1 1 0 000-1.415L1.707.636a1 1 0 00-1.414 0z"/></symbol>
    <symbol xmlns="http://www.w3.org/2000/svg" id="i-icon-sad-face" viewBox="0 0 20 20"><path d="M10 0C4.486 0 0 4.486 0 10s4.486 10 10 10 10-4.486 10-10S15.514 0 10 0zm4 6.5a1.5 1.5 0 11-.001 3.001A1.5 1.5 0 0114 6.5zm-8 0a1.5 1.5 0 11-.001 3.001A1.5 1.5 0 016 6.5zm7.42 8.376c-2.092-1.115-4.749-1.115-6.841 0a.989.989 0 01-1.271-.302 1.011 1.011 0 01.344-1.475A9.132 9.132 0 0110 12.015c1.543 0 3.027.372 4.348 1.084.534.287.696.982.344 1.475a.99.99 0 01-1.272.302z"/></symbol>
    <symbol xmlns="http://www.w3.org/2000/svg" id="i-icon-search" viewBox="0 0 19 18"><path d="M17.666 15.907l-3.907-3.908c.927-1.217 1.45-2.782 1.45-4.464A7.52 7.52 0 007.672 0 7.522 7.522 0 00.136 7.537a7.52 7.52 0 007.536 7.535 7.478 7.478 0 004.464-1.449l3.907 3.908c.232.231.522.348.812.348s.58-.117.812-.348a1.122 1.122 0 00-.001-1.624zm-9.993-3.153a5.195 5.195 0 01-5.217-5.217 5.195 5.195 0 015.217-5.218 5.195 5.195 0 015.217 5.218 5.196 5.196 0 01-5.217 5.217z"/></symbol>
    <svg xmlns="http://www.w3.org/2000/svg" id="i-icon-search-single"
     viewBox="0 0 24 24" 
     fill="none" 
     stroke="currentColor"
     stroke-linecap="round" stroke-linejoin="round"><circle cx="11" cy="11" r="8"/><line x1="21" y1="21" x2="16.65" y2="16.65"/></svg>
    <symbol xmlns="http://www.w3.org/2000/svg" id="i-icon-share" viewBox="0 0 18 18"><path d="M8.293.293a1 1 0 011.414 0L12.5 3.086A1 1 0 0111.086 4.5L10 3.414V11a1 1 0 11-2 0V3.414L6.914 4.5A1 1 0 015.5 3.086L8.293.293zM0 15V6a1 1 0 012 0v9a1 1 0 001 1h12a1 1 0 001-1V6a1 1 0 012 0v9a3 3 0 01-3 3H3a3 3 0 01-3-3z"/></symbol>
    <symbol xmlns="http://www.w3.org/2000/svg" id="i-icon-star" viewBox="0 0 59 57"><path d="M25.844 2.77c1.195-2.875 5.267-2.875 6.463 0l5.47 13.15a3.5 3.5 0 002.951 2.145l14.197 1.138c3.103.249 4.362 4.122 1.997 6.147l-10.816 9.265a3.5 3.5 0 00-1.128 3.47l3.305 13.854c.722 3.029-2.572 5.422-5.229 3.8L30.9 48.313a3.5 3.5 0 00-3.65 0l-12.154 7.424c-2.656 1.623-5.95-.77-5.229-3.799l3.305-13.853a3.5 3.5 0 00-1.128-3.47L1.228 25.35c-2.364-2.026-1.106-5.898 1.997-6.147l14.197-1.138a3.5 3.5 0 002.952-2.145l5.47-13.15z"/></symbol>
    <symbol xmlns="http://www.w3.org/2000/svg" id="i-icon-success-round-thin" viewBox="0 0 100 100"><path d="M100 50c0 27.614-22.386 50-50 50S0 77.614 0 50 22.386 0 50 0s50 22.386 50 50zM2.341 50C2.341 76.321 23.68 97.659 50 97.659c26.321 0 47.659-21.338 47.659-47.659C97.659 23.679 76.32 2.341 50 2.341 23.679 2.341 2.341 23.68 2.341 50z"/><path fill-rule="evenodd" clip-rule="evenodd" d="M72.97 37.97l-2.12-2.12-28.285 28.283-14.85-14.849-2.12 2.122 16.97 16.97 2.121-2.121L72.971 37.97z"/></symbol>
    <symbol xmlns="http://www.w3.org/2000/svg" id="i-icon-success" viewBox="0 0 129 128"><path d="M124.445 63.783c-3.804-3.9-4.65-9.834-2.094-14.657a12.61 12.61 0 00.348-11.088 12.435 12.435 0 00-8.538-7.002c-5.292-1.206-9.186-5.741-9.617-11.19a12.528 12.528 0 00-5.658-9.515 12.294 12.294 0 00-10.932-1.236c-5.1 1.866-10.805.174-14.093-4.17A12.372 12.372 0 0063.997 0a12.37 12.37 0 00-9.857 4.926c-3.288 4.343-9 6.035-14.093 4.17a12.292 12.292 0 00-10.932 1.235 12.495 12.495 0 00-5.658 9.516c-.438 5.448-4.331 9.983-9.617 11.19a12.435 12.435 0 00-8.538 7.001 12.59 12.59 0 00.342 11.088 12.574 12.574 0 01-2.088 14.657A12.586 12.586 0 00.125 74.324a12.503 12.503 0 006.24 9.144c4.733 2.664 7.205 8.118 6.101 13.47a12.581 12.581 0 002.766 10.739 12.37 12.37 0 0010.145 4.289c5.418-.342 10.422 2.898 12.36 8.004a12.41 12.41 0 008.087 7.523 12.323 12.323 0 0010.836-1.919 12.312 12.312 0 0114.687 0 12.316 12.316 0 0010.836 1.919 12.437 12.437 0 008.087-7.523c1.938-5.106 6.942-8.346 12.354-8.004a12.37 12.37 0 0010.145-4.289 12.604 12.604 0 002.772-10.74c-1.11-5.352 1.362-10.805 6.096-13.47a12.501 12.501 0 006.239-9.143 12.588 12.588 0 00-3.431-10.541zm-70.19 19.53a4.718 4.718 0 006.521-.073l31.849-31.197a4.856 4.856 0 10-6.8-6.933L57.548 72.884 42.106 58.6a4.876 4.876 0 00-6.642 7.141z" fill-rule="evenodd"/></symbol>
    <symbol xmlns="http://www.w3.org/2000/svg" id="i-icon-timer" viewBox="0 0 16 16"><path d="M8 16A8 8 0 108 0a8 8 0 000 16zm1-7a2 2 0 01-2-2V3a1 1 0 012 0v4h3a1 1 0 110 2z"/></symbol>
    <symbol xmlns="http://www.w3.org/2000/svg" id="i-icon-tournament" viewBox="0 0 14 12"><path d="M3 0a.5.5 0 100 1v1.187A1.623 1.623 0 002.25 2C1.29 2 .5 2.79.5 3.75c0 .676.44 1.201.963 1.632.522.43 1.176.793 1.822 1.1a18.8 18.8 0 001.584.658C5.476 7.963 6 8.5 6 8.5h2s.525-.537 1.132-1.36c.457-.168 1.01-.385 1.584-.658.646-.307 1.3-.67 1.822-1.1s.963-.956.963-1.632c0-.96-.79-1.75-1.75-1.75-.283 0-.53.074-.75.187V1a.5.5 0 100-1zm-.75 3c.358 0 .666.314.908.745l.01.022c.167.669.44 1.316.759 1.906-.072-.033-.14-.059-.212-.093-.604-.287-1.2-.627-1.615-.97-.416-.342-.6-.66-.6-.86 0-.42.33-.75.75-.75zm9.5 0c.42 0 .75.33.75.75 0 .2-.184.518-.6.86s-1.011.683-1.615.97c-.072.034-.14.06-.212.093.318-.59.592-1.237.758-1.906l.01-.022c.243-.43.55-.745.909-.745zM5.5 9.5a1 1 0 00-1 1v.5a.499.499 0 100 1h5a.499.499 0 100-1v-.5a1 1 0 00-1-1z"/></symbol>
    <symbol xmlns="http://www.w3.org/2000/svg" id="i-icon-twitch" viewBox="0 0 24 24"><path d="M12 6.529v5.966h-1.993V6.529zm5.471 0v5.966h-1.993V6.529zm0 10.447l3.478-3.491V2.555H4.535v14.421h4.482v2.983L12 16.976zM22.943.562v13.926l-5.967 5.966h-4.481l-2.983 2.983H6.529v-2.983H1.057V4.535L2.556.562z"/></symbol>
    <symbol xmlns="http://www.w3.org/2000/svg" id="i-icon-up-down" viewBox="0 0 10 12"><path d="M5 0a.71.71 0 00-.501.206L.542 4.133c-.446.442-.13 1.2.501 1.2h7.914c.631 0 .948-.758.501-1.2L5.501.206A.71.71 0 005 0zM1.043 6.667c-.631 0-.947.758-.5 1.2l3.956 3.927a.713.713 0 001.002 0l3.956-3.927c.446-.442.13-1.2-.5-1.2H1.043z"/></symbol>
    <symbol xmlns="http://www.w3.org/2000/svg" id="i-icon-up" viewBox="0 0 8 5"><path d="M7.364 4.707a1 1 0 01-1.414 0L3.828 2.586l-2.12 2.121A1 1 0 01.292 3.293L3.12.464a1 1 0 011.415 0l2.828 2.829a1 1 0 010 1.414z"/></symbol>
    <symbol xmlns="http://www.w3.org/2000/svg" id="i-icon-user" viewBox="0 0 18 18"><path d="M11.25 12v-1.5c.338-.168 1.303-1.317 1.404-2.214.266-.02.682-.264.805-1.227.067-.516-.196-.807-.355-.898 0 0 .396-.753.396-1.66 0-1.822-.715-3.376-2.25-3.376C11.25 1.125 10.717 0 9 0 5.819 0 4.5 2.04 4.5 4.5c0 .828.396 1.66.396 1.66-.159.092-.421.383-.355.9.123.962.54 1.205.805 1.226.101.897 1.067 2.046 1.404 2.214V12C6 14.25 0 12.75 0 18h18c0-5.25-6-3.75-6.75-6z"/></symbol>
    <symbol xmlns="http://www.w3.org/2000/svg" id="i-icon-video" viewBox="0 0 24 24"><path d="M20 4H4c-1.103 0-2 .897-2 2v12c0 1.103.897 2 2 2h16c1.103 0 2-.897 2-2V6c0-1.103-.897-2-2-2zM9 15.306V8.694a.693.693 0 011.037-.602l5.624 3.306a.692.692 0 010 1.203l-5.624 3.306A.693.693 0 019 15.306z"/></symbol>
</svg>