<svg width="20" height="20" viewBox="0 0 20 20" fill="none" xmlns="http://www.w3.org/2000/svg">
<g clip-path="url(#clip0_8786_31259)">
<path d="M20 10.8332C20 13.5957 17.7625 15.8332 15 15.8332C14.25 15.8332 4.725 15.8332 3.95833 15.8332C1.77083 15.8332 0 14.0623 0 11.8748C0 9.98317 1.325 8.39984 3.10417 8.00817C3.8125 5.08734 6.44167 2.9165 9.58333 2.9165C11.8792 2.9165 13.9 4.07484 15.1 5.83734C17.8167 5.88734 20 8.10401 20 10.8332Z" fill="#0061A3"/>
<path opacity="0.05" d="M8.74929 10.1839V13.1006C8.74929 13.561 9.12221 13.9339 9.58262 13.9339H10.416C10.8764 13.9339 11.2493 13.561 11.2493 13.1006V10.1839H12.3526C12.9093 10.1839 13.1885 9.51057 12.7947 9.11682L10.5885 6.91057C10.263 6.58515 9.73554 6.58515 9.41012 6.91057L7.20387 9.11682C6.81012 9.51057 7.08887 10.1839 7.64596 10.1839H8.74929Z" fill="black"/>
<path opacity="0.07" d="M8.95899 9.97518V13.1002C8.95899 13.4452 9.23899 13.7252 9.58399 13.7252H10.4173C10.7623 13.7252 11.0423 13.4452 11.0423 13.1002V9.97518H12.3011C12.6919 9.97518 12.8877 9.50268 12.6115 9.22602L10.4744 7.08852C10.2132 6.82727 9.78941 6.82727 9.52816 7.08852L7.39107 9.22602C7.11482 9.50227 7.31024 9.97518 7.70149 9.97518H8.95899Z" fill="black"/>
<path d="M7.7529 9.7671H9.16665V13.1004C9.16665 13.3304 9.35332 13.5171 9.58332 13.5171H10.4167C10.6467 13.5171 10.8333 13.3304 10.8333 13.1004V9.7671H12.2471C12.4721 9.7671 12.5846 9.49501 12.4254 9.33626L10.3571 7.26793C10.16 7.07085 9.83999 7.07085 9.6429 7.26793L7.57457 9.33626C7.4154 9.49501 7.5279 9.7671 7.7529 9.7671Z" fill="#F7D300"/>
</g>
<defs>
<clipPath id="clip0_8786_31259">
<rect width="20" height="20" fill="white"/>
</clipPath>
</defs>
</svg>
