<svg width="161" height="53" fill="none" xmlns="http://www.w3.org/2000/svg"><path fill-rule="evenodd" clip-rule="evenodd" d="M81.683.96c0 .037-.174.09-.387.118-.212.028-.386.085-.386.126 0 .041-.106.075-.234.075-.137 0-.253.048-.28.116-.025.066-.14.115-.267.115-.123 0-.224.035-.224.078 0 .042-.07.077-.157.077-.086 0-.175.046-.197.103-.021.056-.16.15-.306.207-.147.058-.268.142-.268.187 0 .089-.352.276-.517.276-.056 0-.1.037-.1.083 0 .107-.197.303-.305.303-.045 0-.082.047-.082.103 0 .057-.087.15-.193.207-.107.056-.194.15-.194.206 0 .057-.037.103-.083.103-.106 0-.303.196-.303.304 0 .045-.056.082-.125.082-.08 0-.108.042-.078.12.027.07.014.1-.03.073-.042-.026-.11.041-.152.15-.041.11-.113.198-.16.198-.045 0-.061.036-.035.078.027.043-.006.1-.073.124-.066.026-.12.095-.12.155 0 .059-.026.107-.058.108-.079 0-.329.448-.329.587 0 .062-.052.132-.116.157-.063.025-.115.128-.115.23 0 .101-.035.184-.078.184-.042 0-.077.122-.077.271 0 .189-.035.27-.116.27-.084 0-.116.087-.116.31 0 .17-.035.31-.077.31-.045 0-.078.244-.078.579 0 .463-.023.58-.115.58-.103 0-.117.677-.117 5.636 0 4.908.016 5.652.117 5.753.08.081.115.28.115.663 0 .312.034.546.078.546.042 0 .077.148.078.329 0 .18.052.428.115.55.064.122.116.319.116.438s.037.228.082.244c.045.015.085.142.09.284.003.14.053.274.11.296.058.022.104.104.104.182s.035.163.078.19c.042.026.077.116.077.2s.052.172.116.196c.064.025.116.128.116.23 0 .102.034.185.077.185s.078.087.078.193c0 .12.043.193.115.193.067 0 .116.07.116.166 0 .09.087.245.193.344.107.098.194.23.194.293 0 .063.087.182.193.266.106.083.193.19.193.237 0 .062 1.332.086 4.754.086h4.754v-.276c0-.27-.139-.497-.304-.497-.046 0-.083-.033-.083-.072 0-.04-.077-.097-.17-.127-.2-.063-.371-.219-.371-.337 0-.045-.034-.083-.076-.083-.042 0-.201-.121-.355-.27-.153-.15-.345-.27-.426-.27-.081 0-.148-.038-.148-.084 0-.107-.196-.303-.304-.303-.045 0-.082-.052-.082-.116a.116.116 0 0 0-.117-.116c-.063 0-.115-.035-.115-.077 0-.043-.054-.078-.119-.078a.191.191 0 0 1-.163-.115c-.024-.064-.075-.117-.113-.117-.095 0-.687-.6-.687-.695 0-.043-.053-.078-.117-.078-.063 0-.115-.064-.115-.143 0-.08-.087-.21-.194-.29-.106-.08-.193-.188-.193-.242 0-.053-.052-.097-.116-.097-.067 0-.116-.07-.116-.165 0-.091-.087-.246-.193-.345-.106-.098-.193-.25-.193-.337 0-.087-.035-.158-.077-.158-.043 0-.078-.071-.078-.157 0-.086-.052-.177-.116-.202-.064-.024-.116-.127-.116-.23 0-.1-.034-.184-.077-.184-.042 0-.077-.122-.077-.27 0-.19-.035-.271-.116-.271-.083 0-.116-.085-.116-.303 0-.166-.034-.315-.075-.329-.041-.014-.082-.225-.09-.47-.01-.314-.044-.444-.118-.444-.164 0-.153-8.696.012-8.861.064-.064.116-.22.116-.347 0-.134.033-.21.078-.183.042.026.077-.007.077-.073 0-.066.032-.12.072-.12.04 0 .096-.077.126-.17.063-.2.22-.372.337-.372.046 0 .083-.052.083-.115 0-.073.073-.117.194-.117.106 0 .193-.034.193-.075 0-.042.087-.098.193-.124.106-.027.193-.08.193-.118 0-.038.137-.069.305-.069.167 0 .326-.035.352-.077.027-.043.116-.077.198-.077.083 0 .15.034.15.077 0 .042.17.077.378.077.265 0 .392.035.423.116.025.064.107.116.184.116s.19.07.252.154c.061.086.15.155.197.155.047 0 .132.087.19.193.056.107.149.194.206.194.056 0 .102.052.102.115 0 .064.035.117.078.117.042 0 .077.086.077.193 0 .12.044.193.116.193.106 0 .166.334.122.676-.007.053.023.097.068.097.054 0 .08.712.08 2.164v2.164h5.875v-3.094c0-2.679-.016-3.1-.116-3.139-.078-.03-.116-.153-.116-.379 0-.184-.035-.357-.077-.383-.043-.026-.078-.128-.078-.227a.404.404 0 0 0-.116-.275.41.41 0 0 1-.115-.28c0-.101-.035-.184-.078-.184-.042 0-.077-.087-.077-.193 0-.107-.035-.193-.078-.193-.042 0-.138-.14-.211-.31-.074-.17-.178-.309-.232-.309-.053 0-.098-.067-.098-.148 0-.081-.13-.28-.289-.444-.159-.163-.28-.323-.27-.354.01-.032-.019-.058-.064-.058-.107 0-.304-.197-.304-.304 0-.046-.035-.083-.078-.083s-.252-.174-.463-.387c-.212-.212-.437-.386-.501-.386-.065 0-.117-.035-.117-.077 0-.043-.053-.078-.116-.078-.064 0-.117-.043-.117-.096 0-.1-.34-.29-.517-.29-.055 0-.1-.052-.1-.116 0-.072-.074-.116-.194-.116-.106 0-.193-.035-.193-.077 0-.043-.083-.078-.184-.078a.41.41 0 0 1-.28-.115.35.35 0 0 0-.232-.116 1.02 1.02 0 0 1-.358-.116 1.122 1.122 0 0 0-.43-.116c-.114 0-.229-.035-.255-.078-.06-.096-4.058-.106-4.058-.01zm19.864.01c0 .042-.095.077-.212.077-.117 0-.312.053-.434.116a1.028 1.028 0 0 1-.367.116c-.08 0-.146.052-.146.116 0 .08-.082.115-.271.115-.148 0-.27.031-.27.07 0 .037-.087.09-.193.117-.107.026-.194.082-.194.124 0 .042-.052.076-.115.076-.064 0-.116.035-.116.077 0 .043-.088.078-.194.078-.11 0-.193.044-.193.103 0 .056-.096.152-.212.212-.117.06-.24.153-.275.206a.233.233 0 0 1-.174.097c-.061 0-.112.035-.112.077 0 .043-.052.077-.116.077s-.116.047-.116.103c0 .057-.087.15-.193.207-.106.056-.193.126-.193.155 0 .028-.14.201-.31.386-.17.184-.309.373-.309.42 0 .046-.086.15-.193.23-.106.079-.193.209-.193.288 0 .08-.035.144-.077.144-.043 0-.078.048-.078.107 0 .06-.052.128-.115.153-.064.024-.116.115-.116.201 0 .087-.035.157-.078.157-.042 0-.077.087-.077.194 0 .12-.044.193-.116.193-.077 0-.116.077-.116.231 0 .128-.035.232-.077.232-.043 0-.078.107-.078.238 0 .13-.052.29-.115.353-.065.064-.117.25-.117.415 0 .164-.034.32-.077.347-.05.031-.077 3.196-.077 9.241v9.194H100.93v-8.58c0-7.575.014-8.58.116-8.58.069 0 .116-.07.116-.177 0-.206.165-.594.253-.595.033 0 .093-.089.134-.197a.794.794 0 0 1 .307-.328c.128-.073.232-.158.233-.19 0-.033.052-.059.117-.059.063 0 .115-.03.115-.068 0-.038.087-.091.194-.118.106-.027.193-.083.193-.124 0-.042.139-.076.31-.076.171 0 .384-.043.474-.096.131-.078.171-.078.198 0 .022.059.182.096.415.096.21 0 .381.034.381.076 0 .041.086.097.193.124.106.027.193.08.193.118 0 .037.037.068.083.068.045 0 .128.044.185.097.055.053.192.162.303.243.111.08.202.21.202.29 0 .079.035.144.077.144.043 0 .077.07.077.156 0 .087.053.177.116.202.07.027.117.143.117.291 0 .136.034.281.076.324.05.05.077 3.044.079 8.518l.002 8.44h5.871v-9.316c0-8.21-.013-9.321-.116-9.36-.078-.03-.115-.154-.115-.38 0-.184-.035-.357-.078-.383-.042-.026-.077-.129-.077-.228 0-.1-.052-.2-.116-.225-.068-.026-.116-.141-.116-.279 0-.129-.035-.234-.077-.234-.043 0-.078-.05-.078-.113 0-.061-.086-.24-.193-.397-.106-.157-.193-.332-.193-.39 0-.057-.052-.105-.116-.105-.065 0-.116-.069-.116-.155 0-.159-1.548-1.777-1.7-1.777-.043 0-.078-.052-.078-.116a.116.116 0 0 0-.116-.116c-.063 0-.115-.035-.115-.077 0-.043-.07-.078-.155-.078-.085 0-.155-.043-.155-.096-.001-.1-.34-.29-.518-.29-.055 0-.1-.052-.1-.116 0-.072-.073-.116-.193-.116-.107 0-.193-.035-.193-.077 0-.043-.084-.078-.185-.078-.102 0-.206-.052-.23-.115-.024-.064-.129-.116-.231-.116-.103 0-.287-.052-.409-.116a1.116 1.116 0 0 0-.429-.116c-.114 0-.23-.035-.256-.078-.03-.048-.799-.077-2.053-.077-1.285 0-2.005.028-2.005.077zm14.01 12.463.019 12.54 7.479.02 7.477.02V23.85h-8.966V6.767h8.966V.892H115.537l.02 12.541zM132.31 3.83v2.938h5.411v9.5c0 5.226.021 9.556.047 9.623.041.11.38.123 3.014.123h2.968V6.767h5.101V.892H132.31V3.83zM.91 26.863C.91 38 .848 37.03 1.54 36.38l.618-.58c.165-.154.328-.28.364-.28.035 0 .11-.087.167-.193.057-.107.13-.194.162-.194.092 0 2.853-2.761 2.853-2.853 0-.046.037-.084.083-.084.046 0 .464-.383.928-.85.465-.468.88-.85.922-.85.042 0 .077-.037.077-.083 0-.107.196-.304.303-.304a.083.083 0 0 0 .083-.082c0-.108.197-.304.304-.304a.083.083 0 0 0 .082-.083c0-.107.197-.304.304-.304a.083.083 0 0 0 .083-.083c0-.106.196-.303.304-.303a.083.083 0 0 0 .082-.083c0-.107.197-.304.304-.304a.083.083 0 0 0 .083-.082c0-.108.197-.304.303-.304a.083.083 0 0 0 .083-.083c0-.107.197-.304.304-.304a.083.083 0 0 0 .083-.082c0-.107.197-.304.304-.304.045 0 .082-.052.082-.116s.054-.116.12-.116c.093 0 .116-.068.098-.29-.015-.18-.06-.282-.121-.27-.053.01-.097-.033-.097-.097a.116.116 0 0 0-.116-.116c-.064 0-.116-.037-.116-.083 0-.107-.196-.303-.303-.303a.083.083 0 0 1-.083-.083c0-.107-.197-.304-.304-.304a.083.083 0 0 1-.083-.082c0-.108-.196-.304-.303-.304a.083.083 0 0 1-.083-.083c0-.046-.05-.133-.11-.194-.061-.06-.148-.11-.194-.11a.083.083 0 0 1-.082-.083c0-.045-.05-.132-.11-.193-.062-.06-.149-.11-.194-.11a.083.083 0 0 1-.083-.083c0-.107-.197-.304-.303-.304-.046 0-.084-.046-.084-.103 0-.056-.087-.15-.193-.206-.106-.057-.193-.135-.193-.173 0-.096-.203-.29-.304-.29a.083.083 0 0 1-.082-.083c0-.108-.197-.304-.304-.304a.083.083 0 0 1-.083-.083c0-.107-.196-.303-.304-.303a.083.083 0 0 1-.082-.084c0-.106-.197-.303-.304-.303-.045 0-.083-.046-.083-.103 0-.057-.087-.15-.193-.206-.106-.057-.193-.15-.193-.207a.103.103 0 0 0-.103-.102c-.057 0-.15-.087-.207-.194-.056-.106-.143-.193-.193-.193-.049 0-.136-.087-.193-.193-.057-.106-.15-.193-.206-.193-.057 0-.103-.038-.103-.083 0-.107-.197-.304-.304-.304a.083.083 0 0 1-.082-.083c0-.1-.195-.303-.291-.303-.039 0-.117-.087-.173-.194-.057-.106-.128-.193-.157-.193-.029 0-.382-.322-.784-.715-1.273-1.243-1.947-1.835-2.09-1.835-.132 0-.138.432-.138 9.816zM160.434 17.2c-.072.078-.109.162-.084.187.024.025-.01.045-.076.045a.193.193 0 0 0-.165.116c-.024.064-.085.116-.134.116-.05 0-.262.174-.471.387-.209.212-.407.386-.44.386-.033 0-.107.087-.164.193-.056.107-.132.193-.168.193-.096 0-2.846 2.758-2.846 2.855a.082.082 0 0 1-.079.082c-.044 0-.372.296-.73.657-.358.362-.688.657-.733.657a.082.082 0 0 0-.081.084c0 .106-.197.303-.304.303a.084.084 0 0 0-.083.083c0 .109-.197.304-.308.304-.048 0-.07.028-.048.063.044.071-.221.323-.34.323-.042 0-.077.037-.077.083 0 .107-.196.303-.303.303-.046 0-.083.035-.083.077 0 .119-.252.384-.323.34-.035-.021-.063 0-.063.048 0 .11-.195.308-.304.308a.083.083 0 0 0-.083.083c0 .107-.197.304-.304.304a.083.083 0 0 0-.082.083c0 .107-.197.303-.304.303a.084.084 0 0 0-.083.083c0 .107-.197.304-.304.304-.045 0-.083.139-.083.309 0 .223.033.309.117.309.063 0 .116.037.116.083 0 .107.196.303.303.303.046 0 .083.038.083.084 0 .106.197.303.304.303.045 0 .082.037.082.083 0 .107.197.304.304.304.046 0 .083.037.083.082 0 .107.197.304.303.304.046 0 .083.037.083.083 0 .107.197.303.304.303.045 0 .083.038.083.083 0 .107.197.304.303.304.046 0 .083.037.083.083 0 .107.197.303.304.303.046 0 .083.038.083.083 0 .107.196.304.304.304.045 0 .082.037.082.083 0 .106.197.303.304.303.045 0 .083.038.083.083 0 .107.196.304.303.304.046 0 .083.046.083.103 0 .056.087.15.193.206.107.057.194.15.194.206 0 .057.037.103.083.103.106 0 .303.197.303.304 0 .045.038.082.083.082.107 0 .304.197.304.304 0 .046.046.083.102.083.057 0 .15.087.207.193.056.107.144.194.193.194.049 0 .137.087.193.193.057.106.144.193.193.193.05 0 .137.087.194.193.057.107.144.193.193.193.049 0 .136.087.193.194.057.106.127.193.154.193.028 0 .417.357.864.792 1.448 1.412 2.026 1.912 2.209 1.913h.174V17.047l-.174.006a.498.498 0 0 0-.302.148zm-80.528 10.71c0 .136.428.553.636.62.075.023.137.075.137.115 0 .04.052.072.116.072s.116.037.116.083c0 .089.19.303.269.303.026 0 .128.087.226.194.099.106.237.193.306.193.07 0 .126.052.126.116s.037.116.083.116c.045 0 .197.122.338.27.14.149.303.272.362.272.058 0 .188.088.288.194.1.105.213.192.251.192.039 0 .07.052.07.115 0 .064.037.116.082.116.107 0 .304.197.304.304 0 .045.037.083.083.083.107 0 .303.197.303.303 0 .046.053.083.117.083.063 0 .117.06.118.135.003.167.177.406.296.406.048 0 .088.045.088.1 0 .178.19.517.29.518.053 0 .096.087.096.194 0 .106.035.193.078.193.042 0 .077.087.077.193 0 .12.044.193.116.193.072 0 .116.074.116.194 0 .106.034.193.077.193s.078.123.078.273c0 .171.043.29.115.317.079.03.116.153.116.38 0 .184.035.356.078.383.042.026.077.254.077.507 0 .356.026.459.116.459.102 0 .116.527.116 4.28 0 3.71-.016 4.293-.116 4.377a.414.414 0 0 0-.116.283c0 .103-.087.281-.193.396-.107.114-.194.252-.194.305 0 .054-.034.098-.077.098s-.077.052-.077.116a.116.116 0 0 1-.116.116c-.064 0-.116.034-.116.077s-.07.077-.157.077c-.086 0-.177.053-.202.116-.024.064-.127.116-.229.116-.102 0-.185.035-.185.078 0 .042-.108.077-.24.077-.13 0-.336.057-.456.128-.203.12-.226.12-.346 0-.076-.076-.252-.128-.432-.128-.167 0-.304-.035-.304-.078 0-.042-.083-.077-.185-.077s-.205-.052-.229-.116a.195.195 0 0 0-.168-.116c-.142 0-.345-.18-.345-.303 0-.046-.053-.083-.116-.083-.064 0-.116-.07-.116-.155 0-.085-.035-.154-.077-.154-.043 0-.078-.053-.078-.116a.116.116 0 0 0-.116-.116c-.083 0-.116-.086-.116-.31 0-.17-.034-.309-.077-.309-.05 0-.077-.824-.077-2.319v-2.318h-5.875v3.091c0 2.697.015 3.092.117 3.092.087 0 .115.095.115.387 0 .212.035.386.078.386.042 0 .077.085.077.188s.052.24.116.304a.509.509 0 0 1 .116.314c0 .11.035.2.077.2.043 0 .078.07.078.156s.052.177.115.201c.064.025.116.11.116.191 0 .08.035.147.078.147.042 0 .077.053.077.118a.19.19 0 0 0 .116.163c.064.024.116.088.116.14 0 .054.087.19.193.305.106.115.193.227.193.25 0 .072.22.26.304.26.045 0 .082.037.082.083 0 .107.198.304.304.304.046 0 .083.046.083.103 0 .056.087.149.194.206.106.057.193.15.193.206 0 .057.052.103.116.103.063 0 .115.035.115.078 0 .042.044.077.098.077.053 0 .186.078.294.174.248.219.46.359.633.417.074.025.135.076.135.113 0 .038.087.069.193.069.12 0 .194.044.194.115 0 .072.072.117.188.117.104 0 .21.035.236.077.027.042.152.077.278.077.133 0 .249.049.274.116.03.078.153.116.38.116.184 0 .356.035.382.078.03.047.8.077 2.053.077 1.286 0 2.005-.028 2.005-.078 0-.042.174-.077.387-.077.292 0 .386-.028.386-.116 0-.08.082-.116.27-.116.15 0 .272-.035.272-.077 0-.042.088-.077.195-.077.108 0 .216-.053.24-.117.025-.063.113-.115.197-.115a.45.45 0 0 0 .259-.097c.256-.23.343-.29.42-.29a.08.08 0 0 0 .08-.077c0-.043.048-.078.107-.078.06 0 .128-.052.153-.115a.195.195 0 0 1 .168-.116c.137 0 .731-.564.731-.693 0-.044.037-.08.082-.08.118 0 .923-.82.923-.94 0-.054.078-.17.174-.257.196-.178.35-.4.417-.6.025-.075.076-.135.114-.135.037 0 .068-.087.068-.194 0-.12.044-.193.116-.193.072 0 .116-.073.116-.193 0-.106.035-.193.077-.193.043 0 .078-.14.078-.31 0-.223.032-.309.115-.309.081 0 .116-.08.116-.266 0-.146.035-.287.078-.313.042-.027.077-.286.077-.577 0-.398.029-.539.116-.572.102-.04.116-.742.116-5.68 0-4.915-.015-5.648-.116-5.732-.084-.07-.116-.254-.116-.666 0-.329-.033-.57-.077-.57-.043 0-.078-.172-.078-.381 0-.236-.044-.426-.116-.497-.063-.064-.115-.24-.115-.393 0-.151-.035-.275-.078-.275-.042 0-.077-.123-.077-.273 0-.172-.043-.29-.116-.318-.064-.024-.116-.108-.116-.186s-.035-.163-.077-.19c-.043-.026-.078-.128-.078-.228s-.052-.2-.115-.225c-.064-.024-.117-.115-.117-.201 0-.086-.03-.157-.068-.157-.038 0-.091-.087-.118-.193-.027-.107-.083-.194-.124-.194-.042 0-.076-.072-.076-.16 0-.171-.167-.38-.304-.38-.045 0-.082-.073-.082-.161 0-.088-.102-.262-.226-.387l-.226-.226h-4.837c-4.326 0-4.837.013-4.837.12zm15.227 9.193c0 6.158.026 9.314.077 9.314.043 0 .077.158.077.35 0 .24.037.365.117.395.063.025.115.126.115.225 0 .1.035.202.078.228.042.027.077.152.077.278 0 .133.049.248.116.274.064.024.116.128.116.23 0 .101.035.185.077.185.043 0 .078.053.078.118s.052.138.115.163c.064.024.116.112.116.195s.031.132.07.108c.037-.023.09.044.117.15.026.106.082.193.124.193.042 0 .076.037.076.082 0 .046.122.198.27.338.15.14.27.295.27.343 0 .048.038.087.084.087.107 0 .303.197.303.304 0 .045.037.083.083.083.045 0 .197.121.338.27.14.15.294.27.342.27.048 0 .087.035.087.077 0 .041.088.097.194.124.106.027.193.074.193.105s.122.123.27.202c.15.08.271.173.271.206s.083.06.185.06.205.052.23.115c.024.064.132.117.24.117.107 0 .195.035.195.077 0 .042.122.077.271.077.189 0 .27.035.27.116 0 .088.095.116.387.116.212 0 .386.035.386.078 0 .049.722.077 2.01.077 1.105 0 2.01-.03 2.01-.068 0-.037.164-.085.364-.108.201-.023.378-.08.393-.126.016-.046.13-.085.254-.085s.225-.035.225-.077c0-.042.085-.077.188-.077s.24-.053.304-.117c.064-.063.165-.115.226-.115s.204-.087.318-.194c.115-.106.262-.193.326-.193.129 0 .339-.18.339-.289 0-.038.121-.116.27-.174.149-.059.331-.187.405-.286.074-.098.178-.178.232-.178.054 0 .098-.029.098-.064s.173-.25.386-.477c.213-.228.387-.455.387-.506 0-.05.086-.156.193-.236.106-.08.193-.224.193-.32 0-.104.047-.175.116-.175a.116.116 0 0 0 .116-.116c0-.064.035-.116.077-.116.043 0 .077-.07.077-.157 0-.086.053-.177.117-.201.063-.025.115-.128.115-.23 0-.102.035-.185.078-.185.042 0 .077-.087.077-.193 0-.107.034-.193.076-.193.042 0 .099-.14.126-.31.027-.17.08-.309.117-.309.037 0 .068-.159.068-.353 0-.211.046-.4.115-.47.102-.101.116-1.231.116-9.23V27.79h-5.874v8.464c0 5.591-.026 8.464-.077 8.464-.043 0-.077.118-.077.262 0 .162-.045.28-.117.307-.063.024-.116.134-.116.244 0 .114-.033.18-.077.153-.042-.026-.077.006-.077.073 0 .066-.052.12-.116.12s-.116.037-.116.083c0 .09-.19.304-.27.304-.081 0-.271.213-.271.303 0 .046-.087.083-.193.083-.107 0-.193.035-.193.078 0 .042-.137.077-.304.077-.18 0-.356.052-.432.128-.12.12-.144.12-.346 0a1.153 1.153 0 0 0-.496-.128c-.153 0-.278-.035-.278-.078 0-.042-.049-.077-.109-.077-.138 0-.585-.25-.586-.328 0-.032-.052-.058-.116-.058s-.116-.038-.116-.083c0-.107-.197-.304-.304-.304-.045 0-.083-.087-.083-.193 0-.106-.034-.193-.077-.193s-.077-.085-.077-.188a.49.49 0 0 0-.116-.304c-.102-.101-.116-1.168-.116-8.662V27.79H95.132v9.314zm20.405 3.208v12.522h6.029V29.877h8.966V27.79H115.537v12.522zm22.184 0v12.522h6.029V27.79h-6.029v12.522z" fill="#FCC42C"/><path fill-rule="evenodd" clip-rule="evenodd" d="m15.848 13.433.02 12.54 7.593.02c6.719.018 7.594.007 7.594-.096 0-.064.035-.116.078-.116.042 0 .077-.087.077-.194 0-.12.044-.193.116-.193.072 0 .116-.073.116-.193 0-.106.035-.193.077-.193.043 0 .078-.087.078-.193 0-.12.043-.194.115-.194.078 0 .116-.077.116-.237 0-.13.052-.29.116-.353.064-.064.116-.233.116-.377 0-.143.035-.282.077-.308.043-.026.078-.302.078-.614 0-.41.032-.592.117-.662.16-.133.14-13.53-.02-13.584-.066-.021-.097-.216-.097-.605 0-.33-.033-.574-.078-.574-.042 0-.077-.136-.077-.303 0-.167-.052-.356-.116-.42s-.116-.222-.116-.353c0-.16-.038-.238-.116-.238-.071 0-.116-.072-.116-.188 0-.104-.034-.21-.077-.236-.042-.027-.077-.117-.077-.2 0-.085-.052-.173-.116-.198-.064-.024-.116-.11-.116-.19 0-.081-.035-.147-.077-.147-.043 0-.078-.052-.078-.116a.116.116 0 0 0-.115-.116c-.068 0-.117-.07-.117-.165 0-.09-.121-.28-.27-.42-.149-.14-.27-.292-.27-.337a.083.083 0 0 0-.084-.082c-.106 0-.303-.197-.303-.304a.083.083 0 0 0-.083-.083c-.107 0-.304-.197-.304-.304 0-.045-.034-.083-.075-.083-.042 0-.202-.121-.355-.27-.153-.149-.345-.27-.427-.27-.081 0-.148-.045-.148-.098 0-.054-.139-.158-.309-.232-.17-.074-.309-.169-.309-.212 0-.042-.087-.077-.193-.077-.106 0-.193-.035-.193-.077 0-.043-.072-.078-.16-.078a.453.453 0 0 1-.276-.115.492.492 0 0 0-.304-.116c-.103 0-.188-.034-.188-.075 0-.041-.175-.098-.388-.126-.214-.028-.407-.082-.43-.119C25.733.922 23.49.892 20.77.892h-4.942l.02 12.541zm20.85.02v12.56H51.46V23.849h-8.889V6.767h8.889V.892H36.698v12.56zM55.19 3.886l.02 2.995.367.024c.22.014.367-.009.367-.058 0-.055.756-.081 2.357-.081h2.358v19.247l2.995-.02 2.995-.02.02-9.604.02-9.603h4.868V.892H55.17l.02 2.995zM23.867 6.844c0 .042.17.077.378.077.265 0 .392.035.423.116.024.064.115.116.201.116.087 0 .157.035.157.077 0 .043.035.077.078.077.1 0 .695.596.695.696 0 .043.031.078.07.078.037 0 .09.086.117.193.026.106.082.193.124.193.042 0 .076.154.076.343 0 .189.035.365.077.391.05.031.077 2.217.077 6.304 0 4.12-.026 6.256-.077 6.256-.042 0-.077.119-.077.263 0 .161-.045.279-.116.307-.064.024-.116.115-.116.201 0 .086-.035.157-.078.157-.042 0-.077.052-.077.116s-.037.116-.083.116c-.106 0-.303.197-.303.304 0 .045-.052.082-.116.082s-.116.035-.116.078c0 .042-.07.077-.157.077-.086 0-.177.052-.202.116-.024.064-.127.116-.229.116-.102 0-.185.035-.185.077 0 .049-.502.078-1.353.078h-1.352V6.767h1.082c.67 0 1.082.029 1.082.077zM15.83 40.312v12.522h5.255c3.453 0 5.256-.027 5.256-.078 0-.042.175-.077.387-.077.292 0 .386-.028.386-.116 0-.077.077-.116.228-.116.125 0 .248-.035.275-.077.026-.042.15-.077.275-.077.15 0 .227-.04.227-.117 0-.072.073-.115.193-.115.107 0 .193-.035.193-.078 0-.042.053-.077.117-.077a.116.116 0 0 0 .116-.116c0-.066.069-.116.16-.116.17 0 .38-.167.38-.303 0-.046.075-.083.165-.083.09 0 .28-.122.42-.27.14-.15.292-.271.338-.271a.083.083 0 0 0 .083-.083c0-.107.196-.304.303-.304.046 0 .083-.034.083-.076 0-.041.122-.2.27-.354.15-.154.27-.345.27-.426 0-.082.04-.149.089-.149.116 0 .293-.237.296-.397a.201.201 0 0 1 .118-.172c.064-.024.116-.111.116-.193s.052-.169.116-.193c.064-.025.116-.115.116-.201 0-.087.035-.158.077-.158.043 0 .078-.1.078-.223 0-.128.05-.243.115-.268.068-.026.117-.142.117-.279 0-.129.034-.235.077-.235.042 0 .077-.17.077-.378 0-.264.035-.391.116-.422.176-.068.176-15.515 0-15.69-.07-.07-.116-.259-.116-.47 0-.194-.035-.353-.077-.353-.043 0-.077-.085-.077-.188a.49.49 0 0 0-.117-.304.51.51 0 0 1-.115-.314c0-.11-.031-.199-.069-.199-.038 0-.091-.087-.117-.193-.027-.106-.083-.193-.125-.193-.041 0-.076-.063-.076-.138 0-.422.375-.404-8.155-.404H15.83v12.522zm20.869 0v12.522H51.46v-5.798h-8.889V29.877h8.889V27.79H36.698v12.522zm23.96 0v12.522h6.03V27.79h-6.029v12.522zm-35.66-10.318c.025.063.128.115.23.115.102 0 .185.035.185.078 0 .042.087.077.193.077.11 0 .193.044.193.103 0 .056.087.149.194.206.106.057.193.15.193.206 0 .057.046.103.101.103.056 0 .15.122.208.27.058.15.152.271.208.271.07 0 .101.119.101.387 0 .212.035.386.077.386.051 0 .078 2.1.078 6.145s-.027 6.145-.078 6.145c-.042 0-.077.174-.077.386 0 .292-.028.387-.116.387-.072 0-.116.073-.116.193 0 .106-.034.193-.077.193s-.077.052-.077.116-.047.116-.103.116c-.057 0-.15.087-.206.194-.058.106-.137.193-.179.193-.04 0-.155.087-.253.193-.099.106-.231.193-.294.193-.064 0-.137.035-.163.078-.026.042-.161.077-.3.077a.78.78 0 0 0-.4.113c-.119.09-.434.114-1.484.116l-1.333.002V29.877h1.625c1.374 0 1.633.018 1.67.117z" fill="#fff"/></svg>