<svg width="194" height="24" viewBox="0 0 194 24" fill="none" xmlns="http://www.w3.org/2000/svg">
<g clip-path="url(#clip0_2216_83)">
<path d="M17.9509 1.05762H11.1348C6.09821 1.05762 4.45295 2.33718 2.53907 7.79217C1.22957 11.5298 0.356567 15.7389 0.356567 18.1633C0.356567 20.1164 0.826646 21.4969 1.83395 22.4398C2.87484 23.3826 3.98288 23.753 8.88508 23.753C12.7464 23.7193 14.3246 24.0897 14.761 22.002L15.6676 18.5001H15.164C14.4924 19.6113 13.8545 19.948 12.0749 19.948H8.85153C7.50845 19.948 7.17269 19.8807 6.66905 19.645C5.93033 19.2408 5.56101 18.5001 5.56101 17.4899C5.56101 16.8501 5.66173 15.6042 5.93033 14.3247C6.50112 11.3614 7.07197 9.27374 7.91137 7.28705C8.85153 5.09834 9.65737 4.59325 12.3771 4.59325H15.1976C16.7757 4.59325 17.1114 4.39122 17.4136 3.179L17.9509 1.05762Z" fill="white"/>
<path d="M26.9883 2.26984C27.0219 2.03413 27.0555 1.83209 27.0555 1.73107C27.0555 1.29333 26.6861 1.05762 25.9475 1.05762H21.3138L21.2131 1.52904C21.6832 1.6974 21.851 1.89944 21.851 2.26984C21.851 2.53922 21.8175 2.84227 21.6832 3.31369L17.1838 22.1367C17.0831 22.4734 17.0831 22.6418 17.0831 22.8101C17.0831 23.3153 17.3853 23.5173 18.1576 23.5173H27.962C29.238 23.5173 29.6409 23.2142 29.9431 21.9347L30.7154 18.7358H30.1781C29.708 19.5776 29.473 19.7123 28.4321 19.7123H22.8248L26.9883 2.26984Z" fill="white"/>
<path d="M44.8686 17.894L45.0029 22.2714C45.0365 23.2479 45.2379 23.5173 45.9766 23.5173H50.5767L50.6438 23.0796C50.073 22.8439 50.0059 22.7091 49.9723 21.8337L49.2672 2.26984C49.2336 1.22598 49.0657 1.05762 48.1255 1.05762H42.1153L42.0145 1.52904C42.4846 1.73107 42.6189 1.86576 42.6189 2.16882C42.6189 2.33718 42.5182 2.57289 42.3503 2.87594L31.1021 21.7663C30.8334 22.2377 30.6991 22.5408 30.6991 22.7765C30.6991 23.2479 31.0685 23.5173 31.74 23.5173H36.2393L36.3401 23.0796C35.7692 22.9785 35.5342 22.8101 35.5342 22.4398C35.5342 22.2377 35.6349 22.002 35.8028 21.6989L37.9182 17.894H44.8686ZM44.8014 14.493H39.7985L44.5664 5.83914L44.8014 14.493Z" fill="white"/>
<path d="M73.1655 23.5173L82.869 2.87594C83.1379 2.26984 83.2387 1.96678 83.2387 1.73107C83.2387 1.29333 82.869 1.05762 82.1643 1.05762H77.7991L77.6983 1.52904C78.0007 1.6974 78.1346 1.89943 78.1346 2.20249C78.1346 2.33718 78.1015 2.57289 78.0007 2.77492L72.1583 16.3114V1.05762H67.1886L60.0371 16.446L60.171 2.47188C60.171 1.36068 59.9027 1.05762 58.7947 1.05762H54.5975L54.5303 1.52904C55.1683 1.79842 55.2691 2.00045 55.2691 2.77492V21.8337C55.2691 23.1469 55.571 23.5173 56.6118 23.5173H60.9435L67.3903 9.57681V22.0357C67.3903 23.2142 67.6922 23.5173 68.8007 23.5173H73.1655Z" fill="white"/>
<path d="M97.2302 10.9911C98.2374 10.587 98.8082 10.1492 99.4126 9.3411C100.185 8.19624 100.722 6.27691 100.722 4.59325C100.722 2.20249 99.2445 1.05762 96.1217 1.05762H85.8137L85.7129 1.52904C86.1498 1.66373 86.3509 1.89943 86.3509 2.30351C86.3509 2.53922 86.2837 2.84227 86.1834 3.31369L81.6837 22.1367C81.6165 22.3724 81.5498 22.6755 81.5498 22.8101C81.5498 23.3153 81.8854 23.5173 82.6578 23.5173H92.8649C95.7189 23.5173 97.163 22.7428 98.2038 20.6215C98.9426 19.1735 99.6809 15.8399 99.6809 14.1226C99.6809 12.4726 99.0098 11.5971 97.2302 10.9911ZM89.8093 9.30744L90.9509 4.42489H93.5366C94.6782 4.42489 95.249 4.49223 95.5178 4.59325C95.9878 4.79529 96.2225 5.23301 96.2225 5.83914C96.2225 6.78198 95.7525 8.16254 95.2153 8.63396C94.7118 9.10538 94.1074 9.27374 92.6297 9.30744H91.6225H89.8093ZM87.325 19.7123L88.9366 12.8768H92.1261C94.0737 12.8768 94.7118 13.3145 94.7118 14.5604C94.7118 15.7052 94.1746 17.6919 93.5702 18.6348C93.1002 19.4092 92.3278 19.7123 90.7834 19.7123H87.325Z" fill="white"/>
<path d="M111.182 2.26984C111.215 2.03413 111.249 1.83209 111.249 1.73107C111.249 1.25966 110.913 1.05762 110.174 1.05762H105.507L105.407 1.52904C105.843 1.66373 106.044 1.89943 106.044 2.30351C106.044 2.53922 106.011 2.8086 105.877 3.31369L102.351 18.096C102.149 18.9041 102.183 19.4766 102.183 19.948C102.183 20.8572 102.485 21.6653 103.09 22.3724C104.063 23.4499 106.145 23.854 109.704 23.854C112.726 23.854 115.009 23.4499 116.353 22.4734C117.629 21.5643 118.199 20.5204 118.904 17.6583L122.531 2.4382C122.564 2.23617 122.631 1.89944 122.631 1.76474C122.631 1.25966 122.329 1.05762 121.557 1.05762H116.957L116.823 1.52904C117.259 1.66373 117.461 1.89943 117.461 2.30351C117.461 2.53922 117.427 2.84227 117.293 3.31369L114.036 16.9848C113.465 19.4092 112.693 19.9817 110.275 19.9817C108.227 19.9817 107.387 19.5776 107.387 18.5338C107.387 18.298 107.455 17.8603 107.555 17.4562L111.182 2.26984Z" fill="white"/>
<path d="M123.163 18.2643H122.626L121.719 22.0694C121.686 22.2714 121.652 22.5071 121.652 22.6418C121.652 23.2479 121.988 23.5173 122.794 23.5173H131.087C134.243 23.5173 136.225 22.0694 137.232 19.0052C137.735 17.5572 138.172 15.2338 138.172 14.1226C138.172 12.338 137.366 11.2604 135.553 10.6207L132.263 9.4421C130.785 8.93703 130.315 8.49931 130.315 7.65747C130.315 6.98399 130.651 5.83914 131.02 5.30036C131.49 4.6606 132.128 4.42489 133.605 4.42489H137.366C138.575 4.42489 138.911 4.18918 139.179 3.01063L139.649 1.05762H132.531C129.845 1.05762 128.334 1.59638 127.259 2.90962C126.219 4.18918 125.077 7.72482 125.077 9.67781C125.077 10.4523 125.245 11.1258 125.614 11.6982C126.084 12.3716 126.554 12.7083 127.897 13.1798L130.987 14.2573C132.397 14.7624 132.733 15.1328 132.733 16.143C132.733 16.7828 132.531 17.6919 132.229 18.298C131.692 19.3082 130.852 19.7123 129.14 19.7123H125.413C123.6 19.7123 123.197 19.4092 123.163 18.2643Z" fill="white"/>
<path d="M151.922 4.42485H155.918C157.193 4.42485 157.597 4.15547 157.865 3.11162L158.57 0.114746H158.134C157.697 0.889216 157.261 1.05758 155.851 1.05758H143.83C142.42 1.05758 142.185 1.05758 141.916 2.23613L141.144 5.36768H141.614C142.017 4.62688 142.353 4.42485 143.259 4.42485H146.886L142.655 22.1367C142.587 22.4397 142.554 22.6418 142.554 22.7765C142.554 23.3152 142.856 23.5172 143.629 23.5172H148.262L148.396 23.0795C147.96 22.9448 147.759 22.6755 147.759 22.2714C147.759 22.0693 147.825 21.6989 147.926 21.2612L151.922 4.42485Z" fill="white"/>
<path d="M161.947 19.7123L163.189 14.5267C163.491 13.2808 163.927 12.9441 165.237 12.9441H170.24C171.147 12.9441 171.482 12.6747 171.684 11.9002L172.288 9.3411H164.432L165.607 4.42489H172.322C173.632 4.42489 174.068 4.15551 174.303 3.24635L174.84 1.05762H160.435L160.335 1.52904C160.771 1.66373 160.973 1.89943 160.973 2.30351C160.973 2.53922 160.906 2.84227 160.805 3.31369L156.305 22.1367C156.239 22.3724 156.172 22.6755 156.172 22.8101C156.172 23.3153 156.507 23.5173 157.279 23.5173H168.494C169.971 23.5173 170.273 23.2816 170.609 21.8337L171.382 18.6684H170.945C170.374 19.5776 170.039 19.7123 168.259 19.7123H161.947Z" fill="white"/>
<path d="M191.628 19.7123H190.789C190.017 19.7123 189.781 19.5103 189.513 18.8031L187.565 13.3481C189.781 13.0451 190.957 12.439 191.998 10.9911C193.139 9.4421 193.777 7.32075 193.777 5.23301C193.777 3.68409 193.374 2.64024 192.535 1.96678C191.729 1.29333 190.789 1.05762 188.808 1.05762H178.197L178.097 1.52904C178.533 1.66373 178.735 1.89943 178.735 2.30351C178.735 2.53922 178.668 2.84227 178.567 3.31369L174.067 22.1367C174.001 22.4061 173.967 22.6418 173.967 22.8101C173.967 23.3153 174.269 23.5173 175.041 23.5173H179.675L179.809 23.0796C179.373 22.9449 179.171 22.6755 179.171 22.2714C179.171 22.0694 179.239 21.6989 179.339 21.2612L181.219 13.3481H182.965L185.45 22.1704C185.752 23.2142 186.122 23.5173 187.196 23.5173H189.345C190.453 23.5173 190.789 23.2479 191.057 22.1367L191.628 19.7123ZM182.025 10.0482L183.368 4.42489H186.223C188.069 4.42489 188.673 4.86263 188.673 6.1422C188.673 7.62377 188.069 9.00438 187.163 9.57681C186.625 9.91352 185.92 10.0482 184.711 10.0482H182.025Z" fill="white"/>
</g>
<defs>
<clipPath id="clip0_2216_83">
<rect width="194" height="24" fill="white"/>
</clipPath>
</defs>
</svg>
