<svg width="161" height="46" fill="none" xmlns="http://www.w3.org/2000/svg"><path fill-rule="evenodd" clip-rule="evenodd" d="M161 0H93.144v2.626h2.318v31.086h15.384v-6.301h-8.64V2.626H161V0zM0 6.301v6.407h4.952v26.045h6.744V12.708h4.952V6.3H0zm72.914 0v32.452h15.383v-6.301h-8.64v-6.721h6.849v-6.302h-6.849v-6.721h8.64V6.3H72.914zm83.345 15.334c1.369-1.576 2.107-3.676 2.107-5.882 0-5.146-4.214-9.347-9.378-9.347h-7.27V38.86h7.375c5.585 0 10.116-4.517 10.116-10.083 0-2.835-1.054-5.356-2.95-7.141zm-7.587-8.927a3.053 3.053 0 0 1 3.056 3.045c0 1.68-1.37 3.046-3.056 3.046h-.105v-5.986h.105v-.105zm3.899 16.068c0 2.1-1.687 3.676-3.688 3.676h-.316v-7.457h.316c2.001 0 3.688 1.68 3.688 3.781zM29.924 6.301c6.638 0 11.907 5.357 11.907 11.868 0 3.78-1.686 7.037-4.426 9.242l5.69 11.342h-7.481l-4.32-8.822c-.527.106-.948.106-1.37.106h-.527v8.716h-6.743V6.301h7.27zm-.527 6.407V23.84h.106c3.055 0 5.584-2.52 5.584-5.566s-2.529-5.566-5.585-5.566h-.105zm30.556 17.644c0 1.68-1.37 3.045-3.055 3.045-1.686 0-3.161-1.365-3.161-3.045V6.302h-6.744v23.524c0 5.357 4.426 9.768 9.8 9.768 5.373 0 9.799-4.411 9.799-9.768V6.302h-6.744v24.05h.105zm76.089 13.022H161V46H93.144v-2.626h20.743l6.968-32.032h8.219l6.968 32.032zm-6.854 0-.746-3.255h-6.954l-.747 3.255h8.447zm-4.118-19.639-2.107 9.977h4.214l-2.107-9.977z" fill="#fff"/></svg>