<svg width="163" height="86" viewBox="0 0 163 86" fill="none" xmlns="http://www.w3.org/2000/svg">
<path d="M40.5174 5.51429C68.4528 -1.24554 83.7372 -2.40773 109.563 5.51429C111.084 30.3238 104.875 54.9315 94.4665 65.4317C104.545 42.6901 106.769 30.4699 105.35 9.49318C78.1697 5.07799 65.7549 5.47679 48.8263 11.4826C50.9323 48.4129 56.5655 64.656 74.8061 85.5602C53.6244 70.9319 38.9961 47.1756 40.5174 5.51429Z" fill="white"/>
<path d="M23.8848 42.9506L18.6538 42.9272L17.4835 41.4878L16.325 40.0484L16.5473 38.8196C16.6643 38.1526 16.9218 36.7132 17.109 35.6131C17.308 34.5248 17.4952 33.4715 17.5303 33.2726C17.6005 32.9332 17.6591 32.5938 17.7761 31.8449L17.8346 31.4587H19.7538C21.439 31.4587 21.6847 31.4821 21.6847 31.6459C21.6847 31.88 21.2283 34.5482 21.0996 35.0865C21.0411 35.3088 20.8773 36.2099 20.7368 37.0759C20.5964 37.9419 20.4209 38.9718 20.3389 39.3579L20.1985 40.0601L20.6198 40.5048L21.0294 40.9378H23.3348H25.6285L26.003 38.9249C26.202 37.8132 26.4243 36.6429 26.4828 36.3153C26.5413 35.9993 26.7637 34.7822 26.9743 33.6237L27.3605 31.5172L29.2095 31.4821C30.6372 31.4587 31.0702 31.4821 31.1054 31.5991C31.1639 31.7512 31.0468 32.5938 30.8128 33.7992C30.766 34.0918 30.6607 34.7003 30.5904 35.145C30.45 36.0695 30.1574 37.5791 29.9936 38.3398C29.9234 38.609 29.8766 39.0186 29.8766 39.2409C29.8766 39.4516 29.8298 39.6739 29.7596 39.709C29.701 39.7441 29.6425 39.9665 29.6425 40.1771C29.6425 40.5516 29.2212 42.9389 29.151 42.9741C29.1276 42.9858 26.7637 42.9741 23.8848 42.9506Z" fill="white"/>
<path fill-rule="evenodd" clip-rule="evenodd" d="M21.0293 40.9378H25.6284L26.0029 38.9249C26.1307 38.2108 26.2681 37.4725 26.3656 36.949C26.4199 36.6574 26.4618 36.4324 26.4827 36.3152C26.5412 35.9993 26.7636 34.7822 26.9742 33.6236L27.3604 31.5172L29.2094 31.4821C30.6371 31.4587 31.0701 31.4821 31.1052 31.5991C31.1638 31.7512 31.0467 32.5938 30.8127 33.7992C30.7931 33.9217 30.7632 34.0995 30.73 34.2976C30.6838 34.5726 30.6311 34.8864 30.5903 35.145C30.4499 36.0695 30.1573 37.5791 29.9935 38.3398C29.9233 38.6089 29.8765 39.0185 29.8765 39.2409C29.8765 39.4515 29.8297 39.6739 29.7594 39.709C29.7009 39.7441 29.6424 39.9665 29.6424 40.1771C29.6424 40.5516 29.2211 42.9389 29.1509 42.974C29.1275 42.9857 26.7636 42.974 23.8847 42.9506L18.6537 42.9272L17.4834 41.4878L16.3248 40.0484L16.5472 38.8196C16.5788 38.6396 16.6206 38.4035 16.6684 38.1329C16.798 37.4006 16.9722 36.4164 17.1089 35.6131C17.3079 34.5247 17.4951 33.4715 17.5302 33.2726C17.6004 32.9332 17.6589 32.5938 17.776 31.8448L17.8345 31.4587H19.7537C21.4389 31.4587 21.6846 31.4821 21.6846 31.6459C21.6846 31.8799 21.2282 34.5481 21.0995 35.0865C21.041 35.3088 20.8772 36.2099 20.7367 37.0759C20.5963 37.9419 20.4208 38.9717 20.3388 39.3579L20.1984 40.0601L21.0293 40.9378ZM21.5332 39.7675L21.4648 39.6952L21.4851 39.5937C21.5746 39.1696 21.7535 38.1166 21.8919 37.2632C21.961 36.8371 22.0358 36.4028 22.1001 36.0496C22.1324 35.8728 22.1615 35.719 22.1855 35.5982C22.1976 35.5378 22.2079 35.4879 22.2164 35.449C22.2206 35.4296 22.2241 35.4142 22.2269 35.4024C22.2273 35.4005 22.2277 35.3988 22.2281 35.3972C22.2289 35.3938 22.2295 35.3911 22.2301 35.3889C22.2308 35.3859 22.2312 35.3844 22.2312 35.3843L22.2346 35.3715L22.2377 35.3586C22.3129 35.0439 22.4659 34.1999 22.594 33.4488C22.6597 33.0632 22.7219 32.6842 22.768 32.3843C22.7909 32.235 22.8107 32.1003 22.825 31.9921L22.8256 31.9869C22.8354 31.913 22.8549 31.7656 22.8549 31.6459C22.8549 31.4761 22.8217 31.2289 22.6683 30.9789C22.5169 30.732 22.3127 30.5873 22.1525 30.5055C21.8873 30.3699 21.6051 30.3397 21.4638 30.326C21.1222 30.2929 20.5726 30.2884 19.7537 30.2884H16.8282L16.6193 31.6668C16.503 32.4114 16.4482 32.7264 16.3842 33.0355L16.3807 33.0523L16.3778 33.0692C16.343 33.2663 16.1562 34.3171 15.9577 35.4026L15.9564 35.4097L15.9552 35.4167C15.8192 36.2158 15.6464 37.1925 15.5169 37.9242C15.469 38.1949 15.4271 38.432 15.3951 38.6143L15.0781 40.3658L16.5736 42.2238L18.0948 44.095L23.8752 44.1208C23.8759 44.1209 23.8766 44.1209 23.8773 44.1209C25.3167 44.1326 26.6281 44.1413 27.5832 44.1457C28.0607 44.1479 28.4508 44.149 28.7238 44.1489C28.8597 44.1488 28.9698 44.1484 29.0482 44.1475C29.0863 44.1471 29.1228 44.1466 29.1529 44.1457C29.1665 44.1453 29.1889 44.1446 29.2132 44.1431C29.2237 44.1425 29.2493 44.1409 29.2809 44.1373C29.2956 44.1356 29.3276 44.1317 29.3677 44.1241L29.3684 44.124C29.3802 44.122 29.5199 44.0979 29.6743 44.0207C29.9157 43.9 30.0485 43.7289 30.0893 43.6747C30.1453 43.6003 30.1811 43.5344 30.1993 43.4989C30.2366 43.4263 30.2599 43.3631 30.2705 43.3334C30.2941 43.2671 30.3121 43.2019 30.324 43.1567C30.3496 43.0591 30.3765 42.9392 30.4025 42.8159C30.4555 42.564 30.5172 42.2368 30.5755 41.9058C30.634 41.5738 30.6908 41.2277 30.7334 40.9368C30.7655 40.7179 30.8023 40.4502 30.8108 40.2547C30.8328 40.2168 30.8482 40.186 30.858 40.1661C30.9242 40.0312 30.9612 39.9026 30.9829 39.811C31.0277 39.6224 31.0467 39.4219 31.0467 39.2409C31.0467 39.1951 31.0529 39.089 31.0699 38.953C31.0867 38.8182 31.1082 38.703 31.1259 38.6352L31.1322 38.6108L31.1375 38.5862C31.3043 37.812 31.6014 36.2801 31.7468 35.324C31.79 35.051 31.8367 34.7734 31.8795 34.519C31.9112 34.3306 31.9408 34.155 31.9651 34.0033C32.0824 33.398 32.1736 32.8681 32.2285 32.4603C32.2559 32.2564 32.2769 32.0643 32.2857 31.9003C32.2901 31.8191 32.2926 31.7257 32.2879 31.631C32.285 31.571 32.2764 31.4077 32.2139 31.2242C32.1034 30.895 31.8823 30.6912 31.7139 30.5808C31.5508 30.4739 31.3934 30.4235 31.2995 30.3982C31.1117 30.3476 30.9114 30.3295 30.75 30.3198C30.4069 30.2991 29.8972 30.3004 29.1902 30.312L26.3818 30.3653L25.8231 33.4126L25.8228 33.4143C25.6121 34.5732 25.3901 35.7884 25.332 36.1021L25.3313 36.1058L25.3307 36.1095C25.3105 36.2222 25.27 36.4399 25.2164 36.7281C25.1945 36.8453 25.1706 36.9741 25.1449 37.1123C25.0572 37.5844 24.9516 38.1564 24.8516 38.7149L24.6558 39.7675H21.5332Z" fill="#36324A"/>
<path d="M90.4725 42.9506C88.9746 42.9272 88.6235 42.8921 88.6235 42.7517C88.6235 42.6698 88.7289 42.0495 88.8576 41.3825C88.9863 40.7154 89.1385 39.8612 89.2087 39.475C89.9108 35.3205 90.1566 34.2088 90.4023 34.0333C90.5545 33.9396 90.929 33.612 91.2566 33.3194C91.5726 33.0151 92.1109 32.5587 92.4269 32.313C92.7546 32.0555 93.0822 31.7629 93.1759 31.6576C93.3163 31.4821 93.8429 31.4587 98.5825 31.4587C102.07 31.4587 103.849 31.5055 103.895 31.5874C103.977 31.7044 103.673 33.6939 103.474 34.3375C103.416 34.5365 103.369 34.8875 103.369 35.1216C103.369 35.3556 103.322 35.578 103.252 35.6131C103.193 35.6482 103.135 35.8355 103.135 36.011C103.135 36.1982 103.018 36.444 102.842 36.6078C102.678 36.76 102.55 36.8536 102.55 36.8185C102.55 36.7834 102.304 36.994 102 37.2749C101.684 37.5674 101.251 37.9419 101.028 38.1058C100.806 38.2813 100.467 38.5622 100.268 38.7377L99.9166 39.0654H97.4239C95.1068 39.0654 94.9312 39.0537 94.9898 38.8664C95.0249 38.7494 95.1068 38.3281 95.1887 37.9302L95.3291 37.193H96.7452L98.1612 37.1813L98.7229 36.6312C99.2612 36.1046 99.2846 36.0461 99.507 34.8758C99.6357 34.2205 99.741 33.6237 99.741 33.5651C99.741 33.4949 98.7814 33.4481 97.2601 33.4481C95.9026 33.4481 94.8142 33.4715 94.8493 33.5066C94.8844 33.5417 94.6855 33.7875 94.4163 34.0684C93.9716 34.5014 93.9014 34.6418 93.8312 35.262C93.7844 35.6482 93.7025 36.128 93.644 36.3153C93.5854 36.5142 93.5152 36.9706 93.4801 37.3451C93.4333 37.7079 93.3631 38.0121 93.3046 38.0121C93.2461 38.0121 93.2227 38.0824 93.2578 38.1643C93.3163 38.3164 93.012 40.2825 92.9067 40.458C92.8716 40.5048 92.8365 40.7857 92.8248 41.0899C92.8014 41.3942 92.7546 41.64 92.696 41.64C92.6492 41.64 92.6024 41.8857 92.6024 42.1783C92.6024 42.4708 92.5322 42.7751 92.462 42.8453C92.3567 42.9389 91.7598 42.9741 90.4725 42.9506V42.9506Z" fill="white"/>
<path fill-rule="evenodd" clip-rule="evenodd" d="M90.4729 42.9506C88.975 42.9272 88.6239 42.8921 88.6239 42.7517C88.6239 42.6698 88.7292 42.0495 88.8579 41.3825C88.9611 40.8478 89.0793 40.1928 89.1584 39.755C89.1779 39.6466 89.1951 39.5516 89.209 39.4749C89.9112 35.3205 90.1569 34.2088 90.4027 34.0332C90.5548 33.9396 90.9293 33.6119 91.257 33.3194C91.5729 33.0151 92.1113 32.5587 92.4272 32.3129C92.7549 32.0555 93.0826 31.7629 93.1762 31.6576C93.3166 31.4821 93.8432 31.4587 98.5828 31.4587C102.07 31.4587 103.849 31.5055 103.896 31.5874C103.978 31.7044 103.673 33.6938 103.474 34.3375C103.416 34.5364 103.369 34.8875 103.369 35.1216C103.369 35.3556 103.322 35.578 103.252 35.6131C103.216 35.6349 103.179 35.7155 103.157 35.8155C103.157 35.8175 103.156 35.8195 103.156 35.8215C103.143 35.8809 103.135 35.9467 103.135 36.011C103.135 36.1982 103.018 36.444 102.843 36.6078C102.726 36.7162 102.627 36.7948 102.58 36.8184C102.561 36.828 102.55 36.8286 102.55 36.8184C102.55 36.8133 102.545 36.8134 102.534 36.8184C102.476 36.8473 102.259 37.0356 102 37.2749C101.896 37.371 101.78 37.4759 101.662 37.5793C101.661 37.5801 101.661 37.5808 101.66 37.5815C101.421 37.7921 101.177 37.9961 101.029 38.1057C100.806 38.2813 100.467 38.5621 100.268 38.7377L99.9169 39.0654H97.4242C96.8943 39.0654 96.4764 39.0647 96.1477 39.0616C96.1456 39.0615 96.1434 39.0615 96.1414 39.0615C95.9271 39.0594 95.7509 39.0562 95.6065 39.0513C95.5971 39.051 95.5878 39.0507 95.5787 39.0503C95.0059 39.0296 94.9544 38.9807 94.9901 38.8664C95.0167 38.7776 95.0703 38.5137 95.1304 38.2177C95.1495 38.1235 95.1693 38.0262 95.189 37.9302L95.3295 37.1929H96.7455L98.1615 37.1812L98.7232 36.6312C99.2616 36.1046 99.285 36.0461 99.5073 34.8758C99.636 34.2205 99.7414 33.6236 99.7414 33.5651C99.7414 33.5182 99.3134 33.4818 98.576 33.4627C98.5759 33.4627 98.5758 33.4627 98.5757 33.4627C98.209 33.4533 97.7657 33.4481 97.2604 33.4481C96.8069 33.4481 96.3835 33.4507 96.0219 33.4555C96.0206 33.4555 96.0194 33.4555 96.0181 33.4555C95.3674 33.4642 94.918 33.4799 94.8561 33.5001C94.8497 33.5022 94.8475 33.5044 94.8497 33.5066C94.8848 33.5417 94.6858 33.7875 94.4167 34.0683C93.972 34.5013 93.9018 34.6418 93.8315 35.262C93.7847 35.6482 93.7028 36.128 93.6443 36.3152C93.5858 36.5142 93.5156 36.9706 93.4805 37.3451C93.4336 37.7078 93.3634 38.0121 93.3049 38.0121C93.2464 38.0121 93.223 38.0823 93.2581 38.1642C93.3166 38.3164 93.0124 40.2824 92.907 40.458C92.8719 40.5048 92.8368 40.7856 92.8251 41.0899C92.8017 41.3942 92.7549 41.6399 92.6964 41.6399C92.6496 41.6399 92.6028 41.8857 92.6028 42.1782C92.6028 42.4708 92.5325 42.7751 92.4623 42.8453C92.357 42.9389 91.7602 42.974 90.4729 42.9506ZM94.2405 39.8512C94.2146 40.0023 94.1879 40.1477 94.1619 40.2772C94.1388 40.3926 94.1137 40.5076 94.0879 40.6077C94.0751 40.6571 94.0591 40.7152 94.0395 40.7739L94.0393 40.7747C94.035 40.7877 94.0275 40.8103 94.0164 40.8395C94.0076 40.9122 93.999 41.0173 93.9945 41.1349L93.9937 41.1573L93.9919 41.1797C93.9783 41.3565 93.9555 41.5552 93.9167 41.7311C93.8994 41.8094 93.8655 41.948 93.7982 42.0921C93.7916 42.1062 93.7834 42.1231 93.7734 42.1424C93.7732 42.1538 93.773 42.1658 93.773 42.1782C93.773 42.41 93.7461 42.6423 93.7026 42.8432C93.6808 42.9433 93.6503 43.0573 93.6068 43.1711C93.5781 43.246 93.4896 43.4731 93.2898 43.6728L93.2655 43.6971L93.2398 43.72C93.0563 43.883 92.865 43.9553 92.7776 43.9851C92.6717 44.0213 92.5712 44.0429 92.4921 44.0569C92.3334 44.085 92.1549 44.1006 91.9743 44.1104C91.6076 44.1303 91.1027 44.1325 90.4532 44.1207C89.7191 44.1092 89.2007 44.0947 88.8629 44.0587C88.7131 44.0428 88.4769 44.0124 88.253 43.9194C88.1335 43.8697 87.9332 43.7686 87.7577 43.5662C87.5559 43.3335 87.4536 43.0436 87.4536 42.7517C87.4536 42.6324 87.4752 42.4889 87.4833 42.4349C87.4839 42.4312 87.4843 42.428 87.4848 42.4252C87.4984 42.3334 87.5171 42.2182 87.539 42.0897C87.5831 41.8315 87.6431 41.5013 87.7089 41.1607C87.8105 40.634 87.9269 39.9895 88.006 39.5512C88.0252 39.4447 88.0422 39.3503 88.0563 39.2728C88.406 37.2039 88.6471 35.8616 88.834 35.0109C88.9265 34.5896 89.0145 34.2471 89.108 33.983C89.1549 33.8505 89.2143 33.7051 89.2936 33.5664C89.3685 33.4354 89.5005 33.2395 89.7225 33.0809L89.7551 33.0576L89.779 33.0429C89.7824 33.0404 89.7986 33.0288 89.8309 33.0034C89.877 32.9672 89.9363 32.9184 90.0073 32.8582C90.1445 32.7419 90.3048 32.6006 90.4619 32.4604C90.8139 32.1235 91.3704 31.6525 91.7063 31.3911C91.8508 31.2775 91.997 31.1548 92.1162 31.0499C92.1759 30.9973 92.2255 30.9521 92.2624 30.9172C92.2852 30.8958 92.2981 30.883 92.3035 30.8776C92.5992 30.5411 92.9778 30.4436 93.1978 30.4023C93.4342 30.3579 93.7378 30.3368 94.111 30.3229C94.8799 30.294 96.2228 30.2884 98.5828 30.2884C100.329 30.2884 101.657 30.3001 102.558 30.3224C103.006 30.3335 103.363 30.3475 103.618 30.3653C103.741 30.3739 103.866 30.385 103.973 30.4014C104.022 30.4089 104.106 30.4229 104.197 30.4498C104.241 30.4626 104.325 30.4895 104.421 30.539C104.478 30.5683 104.711 30.6882 104.884 30.9604C104.984 31.118 105.023 31.2612 105.037 31.3174C105.057 31.3971 105.066 31.4652 105.071 31.5082C105.08 31.5947 105.08 31.6739 105.08 31.7279C105.078 31.8413 105.069 31.9673 105.058 32.0859C105.035 32.3297 104.994 32.6336 104.947 32.942C104.857 33.5297 104.723 34.2569 104.596 34.6719C104.573 34.7533 104.539 34.9857 104.539 35.1216C104.539 35.3066 104.522 35.511 104.478 35.7037C104.456 35.7971 104.42 35.9277 104.353 36.0646C104.342 36.0875 104.324 36.1237 104.298 36.1681C104.249 36.6876 103.966 37.1603 103.641 37.4633L103.639 37.4654C103.54 37.5576 103.427 37.6546 103.32 37.7321C103.288 37.7554 103.199 37.8193 103.082 37.8756C103.007 37.9406 102.908 38.029 102.795 38.1339C102.478 38.4273 102.019 38.8269 101.74 39.0349C101.535 39.1972 101.232 39.4487 101.054 39.6048L100.378 40.2356H97.4242C96.2945 40.2356 95.6083 40.2337 95.2222 40.2026C95.1189 40.1942 95.0035 40.1815 94.8896 40.1583C94.7918 40.1383 94.6007 40.093 94.4052 39.9723C94.3501 39.9383 94.2945 39.898 94.2405 39.8512ZM93.784 42.0057C93.7849 42.0005 93.7849 42.0015 93.7836 42.0075C93.7837 42.0069 93.7839 42.0063 93.784 42.0057ZM94.9024 36.0227H96.7406L97.6799 36.0149L97.9049 35.7947C98.0447 35.6579 98.1047 35.5956 98.1419 35.551C98.1618 35.527 98.1635 35.522 98.1643 35.5197C98.1645 35.5194 98.1645 35.5192 98.1646 35.519C98.1721 35.5022 98.1929 35.4494 98.2274 35.3022C98.2625 35.1529 98.3009 34.9557 98.3576 34.6574L98.3583 34.6538L98.359 34.6503C98.3604 34.643 98.3619 34.6357 98.3633 34.6284C98.0475 34.6219 97.6774 34.6184 97.2604 34.6184C96.5868 34.6184 95.9852 34.6242 95.5602 34.6341C95.5343 34.6347 95.5092 34.6354 95.485 34.636C95.4138 34.7165 95.3379 34.7985 95.2616 34.878L95.2476 34.8927L95.2331 34.9068C95.107 35.0295 95.0548 35.0892 95.0361 35.1119C95.0295 35.1407 95.0142 35.2188 94.9944 35.3936L94.9939 35.3982L94.9933 35.4028C94.9714 35.5836 94.9396 35.8062 94.9024 36.0227ZM96.1181 39.178C96.1157 39.1868 96.1133 39.195 96.111 39.2027L96.1091 39.2091L96.1079 39.2131C96.1098 39.207 96.1135 39.1951 96.1181 39.178Z" fill="#36324A"/>
<path d="M114.58 42.9623C112.86 42.9272 112.731 42.9038 112.614 42.6815C112.544 42.5528 112.462 42.3538 112.438 42.2485C112.392 41.9559 111.549 39.5101 111.42 39.276C111.338 39.1005 111.151 39.0654 110.379 39.0654C109.524 39.0654 109.443 39.042 109.513 38.8664C109.63 38.5856 109.665 38.41 109.747 37.7547L109.817 37.193H111.256C112.637 37.193 112.696 37.1813 112.965 36.9004C113.117 36.7366 113.293 36.6078 113.363 36.6078C113.574 36.5961 113.866 36.0929 113.948 35.6131C114.194 33.9513 114.252 33.612 114.252 33.5417C114.252 33.4832 113.211 33.4481 111.924 33.4481H109.595L109.08 33.9513C108.623 34.3843 108.53 34.5365 108.413 35.2035C108.097 36.877 107.91 37.977 107.851 38.4802C107.816 38.7728 107.746 39.0537 107.687 39.1239C107.629 39.1824 107.582 39.4048 107.582 39.6271C107.582 40.2473 107.09 42.74 106.95 42.8453C106.798 42.9506 103.111 42.9389 103.182 42.8336C103.205 42.7868 103.31 42.1198 103.416 41.3474C103.533 40.575 103.65 39.8612 103.685 39.7675C103.72 39.6739 103.767 39.4399 103.79 39.2409C103.814 39.0537 103.942 38.3632 104.059 37.7196C104.176 37.0759 104.34 36.128 104.422 35.6248C104.492 35.1099 104.598 34.595 104.644 34.4663C104.691 34.3492 105.464 33.6237 106.365 32.8513L107.991 31.4587L113 31.4704C118.161 31.4704 118.688 31.5172 118.512 31.9151C118.43 32.0906 118.395 32.3247 118.138 33.8577C117.705 36.3855 117.751 36.2333 117.295 36.6429C117.061 36.8419 116.359 37.4387 115.739 37.9536C115.118 38.4685 114.615 38.9249 114.615 38.9835C114.603 39.0303 114.767 39.0654 114.954 39.0654C115.235 39.0654 115.341 39.1356 115.434 39.3696C115.493 39.5452 115.516 39.709 115.481 39.7441C115.446 39.7792 115.505 39.8963 115.598 40.0016C115.692 40.1069 115.774 40.3527 115.797 40.5633C115.82 40.9261 115.844 40.9378 116.312 40.9378H116.803L116.757 41.4995C116.675 42.424 116.593 42.8102 116.464 42.8102C116.394 42.8102 116.382 42.8687 116.417 42.9272C116.452 42.9975 116.476 43.0326 116.452 43.0209C116.429 43.0092 115.586 42.9741 114.58 42.9623V42.9623Z" fill="white"/>
<path fill-rule="evenodd" clip-rule="evenodd" d="M114.58 42.9623C112.86 42.9272 112.731 42.9038 112.614 42.6814C112.544 42.5527 112.462 42.3538 112.438 42.2484C112.392 41.9559 111.549 39.51 111.42 39.276C111.351 39.1266 111.205 39.0789 110.687 39.068C110.677 39.0678 110.667 39.0676 110.656 39.0674C110.573 39.0659 110.481 39.0653 110.379 39.0653C110.232 39.0653 110.108 39.0646 110.003 39.0626C109.996 39.0625 109.989 39.0623 109.983 39.0622C109.5 39.0516 109.455 39.0097 109.513 38.8664C109.63 38.5855 109.665 38.41 109.747 37.7546L109.817 37.1929H111.256C112.637 37.1929 112.696 37.1812 112.965 36.9003C113.117 36.7365 113.293 36.6078 113.363 36.6078C113.574 36.5961 113.866 36.0929 113.948 35.6131C114.048 34.9355 114.117 34.4777 114.164 34.1685C114.232 33.7193 114.252 33.5833 114.252 33.5417C114.252 33.5024 113.783 33.4737 113.086 33.459C113.086 33.459 113.086 33.459 113.086 33.459C112.744 33.4519 112.347 33.4481 111.923 33.4481H109.595L109.08 33.9513C108.623 34.3843 108.53 34.5364 108.413 35.2035C108.097 36.8769 107.909 37.977 107.851 38.4802C107.816 38.7728 107.746 39.0536 107.687 39.1238C107.629 39.1824 107.582 39.4047 107.582 39.6271C107.582 40.2473 107.09 42.7399 106.95 42.8453C106.857 42.9099 105.433 42.9305 104.362 42.9124C104.358 42.9123 104.353 42.9122 104.349 42.9121C103.811 42.9029 103.365 42.8838 103.226 42.8556C103.219 42.8543 103.214 42.853 103.209 42.8518C103.187 42.846 103.177 42.84 103.182 42.8336C103.205 42.7868 103.31 42.1197 103.416 41.3473C103.533 40.575 103.65 39.8611 103.685 39.7675C103.72 39.6739 103.767 39.4398 103.79 39.2409C103.809 39.0894 103.897 38.6085 103.992 38.0894C104.014 37.967 104.037 37.8424 104.059 37.7195C104.176 37.0759 104.34 36.128 104.422 35.6248C104.492 35.1098 104.598 34.5949 104.644 34.4662C104.691 34.3492 105.464 33.6236 106.365 32.8512L107.991 31.4586L113 31.4703C115.227 31.4703 116.591 31.479 117.408 31.5209C117.409 31.521 117.411 31.521 117.412 31.5211C117.498 31.5255 117.578 31.5303 117.652 31.5355C117.671 31.5368 117.689 31.5382 117.707 31.5396C118.508 31.6002 118.602 31.7118 118.512 31.915C118.436 32.0777 118.4 32.2907 118.191 33.5418C118.174 33.6404 118.156 33.7456 118.138 33.8577C117.809 35.7757 117.757 36.1507 117.551 36.399C117.486 36.478 117.405 36.5441 117.295 36.6429C117.061 36.8419 116.359 37.4388 115.739 37.9536C115.711 37.9761 115.685 37.9985 115.658 38.0207C115.59 38.0774 115.524 38.1332 115.46 38.1876C115.266 38.3521 115.093 38.504 114.954 38.6303C114.815 38.757 114.711 38.858 114.657 38.9202C114.63 38.9518 114.615 38.9734 114.615 38.9834C114.607 39.0159 114.683 39.0427 114.793 39.0561C114.838 39.0616 114.889 39.0649 114.943 39.0653C114.947 39.0653 114.95 39.0653 114.954 39.0653C115.117 39.0653 115.221 39.0888 115.297 39.154C115.353 39.2014 115.395 39.271 115.434 39.3696C115.493 39.5451 115.516 39.709 115.481 39.7441C115.446 39.7792 115.504 39.8962 115.598 40.0015C115.692 40.1069 115.774 40.3526 115.797 40.5633C115.807 40.715 115.817 40.8053 115.859 40.859C115.918 40.9338 116.04 40.9377 116.312 40.9377H116.803L116.757 41.4995C116.744 41.6388 116.732 41.7659 116.719 41.8813C116.719 41.8817 116.719 41.8821 116.719 41.8825C116.711 41.9634 116.702 42.0385 116.693 42.108C116.63 42.5969 116.56 42.8102 116.464 42.8102C116.394 42.8102 116.382 42.8687 116.417 42.9272C116.425 42.9432 116.433 42.9573 116.439 42.9695C116.448 42.9864 116.455 42.9996 116.458 43.0086C116.464 43.0217 116.463 43.0262 116.452 43.0208C116.446 43.0178 116.386 43.0132 116.283 43.0079C116.275 43.0075 116.267 43.0071 116.258 43.0067C116.056 42.9967 115.711 42.9844 115.293 42.9747C115.273 42.9742 115.252 42.9738 115.232 42.9733C115.028 42.9688 114.808 42.965 114.58 42.9623ZM116.865 41.9259C116.899 41.9385 116.936 41.9543 116.976 41.9741C116.975 41.9738 116.974 41.9734 116.973 41.9728C116.962 41.9671 116.924 41.9476 116.865 41.9259ZM116.487 38.8536C116.5 38.8827 116.511 38.91 116.521 38.935L116.534 38.9669L116.544 38.9995C116.591 39.138 116.632 39.2978 116.653 39.4581C116.654 39.4642 116.655 39.4706 116.656 39.4773C116.717 39.5819 116.763 39.683 116.796 39.7675H118.075L117.923 41.5997L117.922 41.6028C117.881 42.0667 117.835 42.4609 117.771 42.7537C117.744 42.8763 117.698 43.0545 117.613 43.2315C117.612 43.2378 117.611 43.2442 117.609 43.2506C117.569 43.4497 117.456 43.7343 117.173 43.9508C116.9 44.1605 116.613 44.1957 116.442 44.1932C116.386 44.1923 116.334 44.1875 116.285 44.1801C116.271 44.1792 116.253 44.1782 116.23 44.177C116.142 44.1724 116.01 44.1668 115.844 44.1611C115.514 44.1497 115.06 44.1382 114.566 44.1325L114.58 42.9623L114.556 44.1323C113.733 44.1155 113.18 44.1013 112.828 44.0502C112.648 44.0241 112.377 43.9716 112.116 43.8115C111.809 43.6231 111.657 43.3749 111.582 43.2343C111.483 43.0508 111.351 42.7499 111.296 42.5023L111.288 42.468L111.283 42.4333C111.285 42.4496 111.282 42.4376 111.268 42.3907C111.251 42.3333 111.219 42.2236 111.163 42.0497C111.079 41.786 110.968 41.4539 110.853 41.1204C110.744 40.802 110.633 40.4878 110.541 40.2363C110.492 40.2358 110.438 40.2356 110.379 40.2356C110.164 40.2356 109.979 40.2342 109.828 40.2283C109.694 40.2231 109.509 40.2126 109.332 40.171C109.256 40.1532 108.986 40.0884 108.741 39.8741C108.704 40.3548 108.58 41.0776 108.467 41.6551C108.394 42.0242 108.315 42.3878 108.242 42.6743C108.206 42.8147 108.167 42.9563 108.126 43.0772C108.106 43.1353 108.078 43.2138 108.04 43.2943C108.022 43.3342 107.991 43.3953 107.947 43.463C107.914 43.514 107.82 43.6552 107.652 43.7815L107.634 43.7948L107.616 43.8074C107.44 43.929 107.27 43.9743 107.232 43.9843C107.23 43.9846 107.229 43.9849 107.228 43.9852C107.163 44.0027 107.105 44.013 107.067 44.0191C106.989 44.0317 106.908 44.0398 106.838 44.0456C106.694 44.0575 106.516 44.066 106.326 44.0723C105.941 44.085 105.453 44.0902 104.979 44.0887C104.505 44.0872 104.029 44.079 103.67 44.0639C103.495 44.0565 103.325 44.0466 103.191 44.0321C103.136 44.0261 103.032 44.0139 102.925 43.9869C102.924 43.9867 102.923 43.9865 102.921 43.9861C102.886 43.9772 102.727 43.9377 102.561 43.8326C102.483 43.7834 102.251 43.6272 102.111 43.3128C101.989 43.0378 101.987 42.7587 102.055 42.5173C102.057 42.5082 102.059 42.496 102.062 42.4802C102.074 42.4124 102.091 42.311 102.112 42.1803C102.153 41.9209 102.204 41.5693 102.256 41.1892L102.257 41.1806L102.259 41.172C102.318 40.7826 102.377 40.4041 102.427 40.1086C102.452 39.9616 102.475 39.8292 102.495 39.724C102.496 39.7208 102.497 39.7171 102.497 39.713C102.508 39.6546 102.536 39.5104 102.578 39.3869C102.578 39.3866 102.578 39.3863 102.578 39.386C102.582 39.3713 102.588 39.3471 102.594 39.3142C102.608 39.2474 102.62 39.1702 102.628 39.1041L102.628 39.0999L102.629 39.0957C102.652 38.9076 102.75 38.3731 102.845 37.8529C102.867 37.7366 102.888 37.621 102.908 37.5102C103.023 36.8786 103.183 35.9498 103.265 35.4512C103.303 35.1752 103.349 34.9014 103.394 34.6758C103.431 34.4829 103.485 34.2309 103.545 34.0663L103.551 34.0488L103.558 34.0316C103.64 33.8268 103.773 33.6717 103.796 33.645C103.798 33.6436 103.798 33.6426 103.799 33.6419C103.851 33.5804 103.909 33.518 103.964 33.4609C104.076 33.3444 104.221 33.2037 104.383 33.0514C104.71 32.7443 105.142 32.3579 105.603 31.9627L107.56 30.2874L113 30.3001C113.001 30.3001 113.001 30.3001 113.001 30.3001C115.557 30.3001 117.038 30.3108 117.852 30.3771C118.062 30.3941 118.257 30.417 118.431 30.4511C118.589 30.482 118.815 30.5376 119.032 30.6623C119.28 30.8041 119.594 31.0861 119.686 31.5576C119.762 31.9492 119.637 32.2631 119.585 32.3823C119.579 32.4051 119.565 32.4662 119.541 32.5937C119.499 32.8137 119.442 33.1555 119.345 33.7354C119.328 33.8337 119.311 33.9389 119.292 34.0515L119.291 34.0534L119.291 34.0552C119.267 34.1975 119.244 34.3328 119.222 34.4614C119.058 35.4203 118.957 36.0127 118.845 36.3831C118.767 36.6416 118.659 36.889 118.471 37.1234C118.345 37.2793 118.181 37.4226 118.105 37.4888C118.093 37.4991 118.084 37.5075 118.077 37.5138L118.065 37.5244L118.052 37.5354C117.817 37.7347 117.112 38.3345 116.487 38.8536ZM102.135 42.3103C102.114 42.3534 102.094 42.3985 102.078 42.4452C102.087 42.4204 102.105 42.37 102.135 42.3103ZM109.45 36.0226H111.256C111.605 36.0226 111.851 36.0218 112.037 36.0169C112.104 36.015 112.157 36.0128 112.198 36.0104C112.294 35.9155 112.398 35.8261 112.502 35.7495C112.565 35.7031 112.646 35.6483 112.74 35.5985C112.763 35.5438 112.782 35.4823 112.793 35.4256C112.839 35.1151 112.878 34.8509 112.912 34.6262C112.616 34.6211 112.281 34.6183 111.923 34.6183H110.072L109.891 34.7943L109.885 34.8003C109.671 35.0032 109.648 35.0462 109.648 35.0472C109.645 35.0529 109.617 35.1136 109.565 35.4057L109.564 35.4131L109.563 35.4206C109.523 35.631 109.485 35.8317 109.45 36.0226ZM109.648 35.047C109.648 35.0472 109.648 35.0473 109.648 35.0472C109.648 35.0467 109.648 35.0467 109.648 35.047Z" fill="#36324A"/>
<path d="M137.494 42.9506L132.251 42.9272L132.309 42.6581C132.345 42.5176 132.427 42.0612 132.497 41.6399C132.672 40.5633 133.105 38.1057 133.281 37.1344C133.374 36.6897 133.503 35.8823 133.573 35.3673C133.644 34.8407 133.737 34.3609 133.784 34.3024C133.819 34.2439 134.381 33.7524 135.024 33.2141C135.668 32.6757 136.382 32.0672 136.628 31.8566L137.049 31.4821L142.268 31.4938C145.662 31.5055 147.499 31.4704 147.535 31.4001C147.64 31.1661 147.605 32.1023 147.499 32.4417C147.441 32.6406 147.301 33.3896 147.184 34.0918C146.985 35.3556 146.903 35.8471 146.68 37.0174C146.622 37.3451 146.481 38.1526 146.376 38.8313C146.189 40.025 145.99 40.4697 145.65 40.4697C145.569 40.4697 145.498 40.5282 145.498 40.5867C145.498 40.6569 145.416 40.7037 145.299 40.7037C145.194 40.7037 145.136 40.7388 145.182 40.7739C145.276 40.8676 144.129 41.874 143.918 41.874C143.825 41.874 143.755 41.9325 143.778 42.0027C143.79 42.0729 143.696 42.19 143.579 42.2602C143.45 42.3421 143.216 42.5293 143.052 42.6932L142.748 42.9857L137.494 42.9506V42.9506ZM141.789 40.3643C142.222 39.9079 142.339 39.6856 142.397 39.2292C142.444 38.9132 142.631 37.8366 142.807 36.8419C142.994 35.8471 143.181 34.8173 143.216 34.5599C143.251 34.3024 143.31 33.9513 143.345 33.7758L143.415 33.4481H141.063C138.992 33.4481 138.687 33.4715 138.465 33.6588C137.798 34.1971 137.529 34.5013 137.599 34.6184C137.634 34.6769 137.622 34.7354 137.552 34.7354C137.482 34.7354 137.459 34.8056 137.494 34.8992C137.529 34.9812 137.447 35.6365 137.318 36.3269C137.178 37.0291 137.072 37.743 137.072 37.9302C137.072 38.1057 137.026 38.3398 136.967 38.4568C136.909 38.5621 136.792 39.1005 136.721 39.6505C136.651 40.2005 136.534 40.7154 136.464 40.7973C136.37 40.9027 136.85 40.9378 138.793 40.9378H141.25L141.789 40.3643V40.3643Z" fill="white"/>
<path fill-rule="evenodd" clip-rule="evenodd" d="M130.8 44.091L131.17 42.3918L131.174 42.3742C131.174 42.3746 131.176 42.3663 131.18 42.3458C131.185 42.3266 131.19 42.3018 131.196 42.2712C131.208 42.21 131.222 42.1329 131.239 42.0442C131.271 41.8676 131.308 41.6551 131.342 41.4495C131.519 40.3616 131.953 37.8985 132.129 36.9263L132.132 36.9097L132.136 36.8933C132.221 36.4889 132.345 35.7143 132.414 35.2109C132.451 34.9296 132.496 34.6543 132.539 34.4331C132.561 34.3243 132.585 34.2138 132.611 34.1166C132.623 34.0693 132.641 34.0078 132.664 33.9436C132.665 33.9427 132.665 33.9414 132.666 33.9399C132.676 33.912 132.72 33.7884 132.811 33.6524C132.862 33.5758 132.91 33.5221 132.922 33.5088C132.923 33.5081 132.923 33.5076 132.924 33.5071C132.949 33.4784 132.973 33.4535 132.991 33.4357C133.027 33.3993 133.068 33.361 133.106 33.3251C133.186 33.2517 133.288 33.1598 133.405 33.0581C133.638 32.8532 133.947 32.5897 134.274 32.3163C134.906 31.7877 135.607 31.1896 135.858 30.9748L136.605 30.3108L142.272 30.3235C143.966 30.3293 145.264 30.3234 146.14 30.3076C146.58 30.2996 146.901 30.2893 147.108 30.2776C147.115 30.2772 147.122 30.2768 147.129 30.2764C147.362 30.1788 147.673 30.1342 148.033 30.29C148.298 30.4048 148.452 30.5854 148.527 30.6897C148.604 30.799 148.648 30.8993 148.671 30.9584C148.716 31.0758 148.735 31.1779 148.743 31.2269C148.773 31.4115 148.77 31.6187 148.765 31.7474C148.756 32.0131 148.719 32.4497 148.622 32.7722C148.621 32.7759 148.618 32.7877 148.613 32.8101C148.606 32.8399 148.597 32.8791 148.586 32.9282C148.566 33.0262 148.541 33.1515 148.513 33.2967C148.458 33.585 148.396 33.9368 148.339 34.2789C148.139 35.545 148.055 36.0499 147.831 37.2295C147.773 37.5571 147.635 38.3488 147.532 39.0107L147.532 39.0126C147.437 39.6157 147.323 40.1596 147.14 40.5728C147.045 40.7857 146.897 41.0484 146.649 41.2641C146.531 41.3666 146.401 41.4497 146.262 41.5115C146.186 41.582 146.107 41.6389 146.032 41.6824C146.011 41.6946 145.99 41.7062 145.969 41.717C145.952 41.7373 145.935 41.7558 145.92 41.7721C145.781 41.9252 145.604 42.0925 145.434 42.2403C145.263 42.3898 145.071 42.5456 144.893 42.6712C144.83 42.7159 144.757 42.7647 144.68 42.8107C144.669 42.8252 144.659 42.839 144.649 42.8519C144.525 43.0105 144.37 43.1462 144.204 43.2498C144.202 43.2511 144.199 43.2529 144.196 43.2554C144.187 43.2612 144.176 43.269 144.163 43.2789C144.136 43.2989 144.104 43.3241 144.068 43.3529C143.995 43.4127 143.927 43.4738 143.88 43.5206L143.872 43.5288L143.216 44.1591L137.488 44.1208L137.486 44.1208L130.8 44.091ZM137.494 42.9506L142.748 42.9857L143.052 42.6931C143.216 42.5293 143.45 42.3421 143.579 42.2601C143.696 42.1899 143.79 42.0729 143.778 42.0027C143.755 41.9325 143.825 41.874 143.918 41.874C143.989 41.874 144.164 41.7615 144.362 41.6084C144.55 41.4629 144.76 41.2806 144.92 41.123C145.097 40.9499 145.215 40.8065 145.182 40.7739C145.147 40.7475 145.171 40.7211 145.23 40.7096C145.236 40.7085 145.243 40.7075 145.25 40.7066C145.265 40.7047 145.281 40.7037 145.299 40.7037C145.416 40.7037 145.498 40.6569 145.498 40.5867C145.498 40.5282 145.568 40.4696 145.65 40.4696C145.831 40.4696 145.973 40.3431 146.093 40.0438C146.094 40.0425 146.094 40.0413 146.095 40.0401C146.2 39.7783 146.289 39.3855 146.376 38.8313C146.481 38.1525 146.622 37.345 146.68 37.0174C146.903 35.8471 146.984 35.3556 147.183 34.0917C147.279 33.5159 147.391 32.9085 147.46 32.5989C147.466 32.5756 147.471 32.5541 147.475 32.5343C147.484 32.4964 147.492 32.4652 147.499 32.4417C147.577 32.1923 147.616 31.6206 147.59 31.4279C147.59 31.4269 147.59 31.4259 147.59 31.4249C147.58 31.3577 147.562 31.3389 147.535 31.4001C147.499 31.4703 145.662 31.5054 142.268 31.4937L137.049 31.482L136.628 31.8565C136.382 32.0672 135.668 32.6757 135.024 33.214C134.381 33.7523 133.819 34.2439 133.784 34.3024C133.737 34.3609 133.643 34.8407 133.573 35.3673C133.503 35.8822 133.374 36.6897 133.281 37.1344C133.105 38.1057 132.672 40.5633 132.497 41.6399C132.49 41.679 132.483 41.7185 132.477 41.7579C132.412 42.1433 132.341 42.5306 132.309 42.658L132.251 42.9272L133.447 42.9325L133.447 42.9325L137.494 42.9506ZM137.318 36.3269C137.447 35.6365 137.529 34.9811 137.494 34.8992C137.459 34.8056 137.482 34.7354 137.552 34.7354C137.622 34.7354 137.634 34.6768 137.599 34.6183C137.529 34.5013 137.798 34.197 138.465 33.6587C138.687 33.4715 138.992 33.4481 141.063 33.4481H143.415L143.345 33.7757C143.31 33.9513 143.251 34.3024 143.216 34.5598C143.214 34.5763 143.211 34.5958 143.208 34.6183C143.157 34.9486 142.982 35.9106 142.807 36.8418C142.631 37.8366 142.444 38.9132 142.397 39.2292C142.339 39.6856 142.222 39.9079 141.789 40.3643L141.25 39.8536V39.8589L141.789 40.3643L141.25 40.9377H138.793C138.341 40.9377 137.969 40.9359 137.665 40.9316C137.649 40.9314 137.633 40.9312 137.618 40.9309C137.025 40.922 136.699 40.9038 136.552 40.8727C136.55 40.8725 136.549 40.8722 136.548 40.8719C136.458 40.8523 136.437 40.8277 136.464 40.7973C136.534 40.7154 136.651 40.2005 136.721 39.6505C136.791 39.1004 136.909 38.5621 136.967 38.4568M137.887 39.7639C138.14 39.7663 138.44 39.7675 138.793 39.7675H140.744L140.935 39.5633L141.153 39.7675H141.159L140.94 39.5589C141.139 39.3491 141.187 39.2718 141.201 39.2451C141.201 39.2451 141.201 39.2452 141.201 39.2451C141.202 39.2433 141.218 39.2221 141.236 39.0804L141.238 39.069L141.239 39.0577C141.289 38.7213 141.48 37.6235 141.654 36.6385L141.655 36.6319L141.657 36.6254C141.809 35.8147 141.955 35.0167 142.022 34.6183H141.063C140.009 34.6183 139.47 34.6251 139.165 34.6497C139.137 34.6519 139.113 34.6542 139.093 34.6563C138.948 34.7758 138.839 34.8713 138.76 34.9454C138.751 34.9859 138.739 35.0271 138.725 35.0689C138.707 35.1225 138.686 35.1749 138.661 35.2257C138.653 35.3208 138.642 35.424 138.629 35.5284C138.593 35.8169 138.536 36.1774 138.469 36.5414L138.467 36.5489L138.466 36.5564C138.399 36.8896 138.341 37.2255 138.3 37.4969C138.279 37.6329 138.264 37.7474 138.254 37.834C138.245 37.9103 138.243 37.9413 138.243 37.9413C138.243 37.9413 138.243 37.9409 138.243 37.9401C138.242 38.117 138.219 38.2938 138.189 38.4449C138.164 38.5702 138.12 38.746 138.043 38.9193C138.042 38.9197 138.042 38.92 138.042 38.9204C138.03 38.9637 138.014 39.0332 137.994 39.1268C137.957 39.3038 137.917 39.5313 137.887 39.7639ZM138.596 34.5051C138.594 34.4995 138.591 34.4939 138.589 34.4883C138.591 34.4933 138.593 34.4989 138.596 34.5051ZM138.61 35.0968C138.608 35.1002 138.606 35.1019 138.606 35.1019C138.606 35.1019 138.607 35.1002 138.61 35.0968ZM147.29 30.2639C147.29 30.2639 147.289 30.2639 147.289 30.2639C147.294 30.2632 147.295 30.2632 147.29 30.2639ZM145.32 41.8738C145.313 41.8739 145.306 41.874 145.299 41.874C145.3 41.874 145.301 41.874 145.301 41.874C145.305 41.874 145.311 41.874 145.32 41.8738Z" fill="#36324A"/>
<path d="M148.752 42.9506L146.903 42.9155V42.541C146.903 42.3421 147.055 41.324 147.242 40.2941C147.441 39.2643 147.757 37.4855 147.968 36.3504L148.354 34.279L149.63 33.1906C150.332 32.5938 151.057 31.9619 151.244 31.798L151.584 31.4938L156.885 31.4704L162.198 31.447L162.105 32.0087C162.046 32.313 161.964 32.8747 161.929 33.2492C161.882 33.6236 161.8 33.9513 161.753 33.9864C161.695 34.0215 161.648 34.3258 161.648 34.6769V35.2971L159.647 35.3205L157.634 35.3322L157.716 34.8875C157.751 34.6418 157.821 34.2205 157.868 33.9513L157.938 33.4481H155.598H153.257L152.789 33.9045C152.181 34.4662 152.052 34.7237 152.052 35.3088C152.052 35.5663 152.005 35.812 151.935 35.8471C151.876 35.8822 151.818 36.2099 151.818 36.561V37.1929H156.511H161.215L161.133 37.6376C161.086 37.8717 161.016 38.293 160.981 38.5738L160.911 39.0654H156.136H151.35L151.338 39.3579C151.315 39.6739 151.303 39.7324 151.198 40.0016C151.163 40.0952 151.104 40.3878 151.081 40.6452C150.964 41.5814 150.73 42.8687 150.659 42.9272C150.624 42.9623 149.758 42.974 148.752 42.9506V42.9506Z" fill="white"/>
<path d="M1.32227 42.7283C1.32227 42.6113 1.40418 42.1549 1.4978 41.6985C1.60313 41.2538 1.73186 40.4814 1.79037 40.0016C1.86059 39.5218 2.03613 38.4685 2.18826 37.6611C2.34039 36.8536 2.53934 35.7652 2.62126 35.2269C2.76169 34.3258 2.7968 34.2439 3.18298 33.9513C3.41703 33.7758 3.66279 33.5769 3.7213 33.4949C3.79152 33.4247 4.34154 32.9332 4.96178 32.4183L6.08523 31.4704L11.3514 31.4587H16.6293L16.5591 32.0087C16.524 32.3247 16.4186 32.9917 16.3133 33.5066L16.1261 34.4311L15.1079 35.2971C14.5345 35.7652 14.0781 36.2216 14.0781 36.2919C14.0781 36.3738 14.359 36.7483 14.6984 37.1344C15.0377 37.5206 15.3537 37.9302 15.4005 38.0473C15.4473 38.1643 15.4239 38.6324 15.342 39.0888C15.1899 40.0133 14.9792 40.3293 14.0313 41.0665C13.7036 41.3123 13.0717 41.8389 12.6153 42.2251L11.7961 42.9272H9.43218C7.65338 42.9272 7.06825 42.8921 7.03314 42.7868C6.99803 42.7049 7.02144 42.4474 7.06825 42.2251C7.11506 42.0027 7.19698 41.6165 7.23209 41.3825L7.3023 40.9378H8.74172C10.2982 40.9378 10.1928 40.9729 11.0705 40.1654C11.328 39.908 11.445 39.5803 11.4099 39.1707C11.4099 39.1356 11.445 38.9015 11.5035 38.6558C11.5972 38.2345 11.5738 38.1409 11.2344 37.6962L10.8599 37.2047L9.40877 37.193H7.96935L8.03957 36.8185C8.07467 36.6078 8.14489 36.1982 8.18 35.9057C8.22681 35.6131 8.32043 35.3439 8.39065 35.2971C8.46086 35.2503 9.11621 35.2035 9.84177 35.2035H11.1759L11.7493 34.7705C12.2408 34.3843 12.311 34.2673 12.3227 33.8928V33.4481H10.0056H7.68849L7.18528 33.963C6.64696 34.5131 6.62355 34.5833 6.22566 36.8419C6.15545 37.193 6.06182 37.7664 6.00331 38.1058C5.9331 38.4334 5.83947 38.9952 5.79266 39.3345C5.44159 41.5931 5.26605 42.5411 5.18413 42.6932C5.11391 42.8336 4.75113 42.8804 3.20639 42.9038C1.4627 42.9272 1.32227 42.9155 1.32227 42.7283V42.7283Z" fill="white"/>
<path fill-rule="evenodd" clip-rule="evenodd" d="M0.35482 41.446L0.358898 41.4287C0.451558 41.0375 0.573691 40.3099 0.628566 39.8599L0.630263 39.846L0.632293 39.8321C0.705171 39.3341 0.883479 38.265 1.03808 37.4444C1.19089 36.6333 1.38587 35.5653 1.46416 35.0508L1.46448 35.0488L1.4648 35.0467C1.46683 35.0337 1.46885 35.0207 1.47088 35.0076C1.53026 34.6259 1.59341 34.2199 1.73852 33.8899C1.94228 33.4264 2.26268 33.1802 2.47616 33.0185L2.47841 33.0168L2.48068 33.0151C2.58749 32.935 2.69011 32.8546 2.76733 32.7901C2.78754 32.7732 2.80381 32.7592 2.81645 32.7481L2.82517 32.7359L2.89365 32.6674C3.00639 32.5547 3.59278 32.0338 4.21051 31.5209L5.65621 30.301L11.3513 30.2884L17.9583 30.2884L17.7209 32.1479C17.6802 32.5085 17.5698 33.2025 17.46 33.7397C17.4599 33.7402 17.4598 33.7407 17.4597 33.7411L17.1925 35.0602L15.857 36.1962L15.8478 36.2037C15.7657 36.2707 15.6866 36.3372 15.6119 36.4015C15.7842 36.5991 15.951 36.8021 16.0863 36.9778C16.158 37.071 16.227 37.1645 16.2856 37.2504L16.286 37.2509C16.3245 37.3075 16.4222 37.4507 16.4869 37.6126C16.5776 37.8394 16.588 38.0644 16.5914 38.1391L16.5915 38.1413C16.597 38.2602 16.5944 38.3854 16.5879 38.5041C16.5751 38.741 16.5434 39.0168 16.4952 39.287C16.4095 39.8052 16.2845 40.3056 15.9602 40.7947C15.6555 41.254 15.2298 41.6168 14.7496 41.9902L14.7415 41.9966L14.7333 42.0027C14.4389 42.2235 13.836 42.725 13.3739 43.116L12.2289 44.0975H9.43203C8.54499 44.0975 7.92178 44.089 7.50991 44.0647C7.31192 44.0531 7.11003 44.0352 6.93564 43.9992C6.85328 43.9822 6.71283 43.9487 6.56381 43.8766C6.47831 43.8353 6.24865 43.7148 6.0732 43.4598C5.87189 43.7051 5.6206 43.8249 5.45916 43.883C5.25833 43.9554 5.04744 43.9868 4.87601 44.0056C4.51962 44.0448 3.98794 44.0624 3.22397 44.0739L3.22194 44.074C2.38576 44.0852 1.83385 44.091 1.50252 44.0603L1.49692 44.0598C1.37062 44.0482 1.02814 44.0166 0.720131 43.8103C0.516142 43.6737 0.34459 43.4752 0.244338 43.2235C0.156636 43.0033 0.151855 42.81 0.151855 42.7283C0.151855 42.5466 0.1958 42.2903 0.22169 42.1409C0.256508 41.9399 0.302844 41.6993 0.351265 41.4633L0.35482 41.446ZM7.03299 42.7868C7.0681 42.8921 7.65323 42.9272 9.43203 42.9272H11.796L12.6151 42.2251C13.0715 41.8389 13.7035 41.3123 14.0312 41.0665C14.9791 40.3292 15.1897 40.0133 15.3419 39.0888C15.4238 38.6324 15.4472 38.1643 15.4004 38.0472C15.3536 37.9302 15.0376 37.5206 14.6982 37.1344C14.3588 36.7482 14.078 36.3738 14.078 36.2918C14.078 36.2216 14.5344 35.7652 15.1078 35.2971L16.1259 34.4311L16.3132 33.5066C16.3694 33.2319 16.4256 32.9138 16.4711 32.6289C16.5109 32.3798 16.5425 32.1561 16.5589 32.0087L16.6291 31.4587H11.3513L6.08508 31.4704L4.96163 32.4183C4.34139 32.9332 3.79137 33.4247 3.72115 33.4949C3.66264 33.5768 3.41689 33.7758 3.18283 33.9513C2.79665 34.2439 2.76154 34.3258 2.62111 35.2269C2.53919 35.7652 2.34024 36.8536 2.18811 37.661C2.03598 38.4685 1.86044 39.5218 1.79022 40.0016C1.73171 40.4814 1.60298 41.2537 1.49766 41.6984C1.40404 42.1548 1.32212 42.6112 1.32212 42.7283C1.32212 42.9155 1.46255 42.9272 3.20624 42.9038C4.75098 42.8804 5.11376 42.8336 5.18398 42.6932C5.2659 42.541 5.44144 41.5931 5.79252 39.3345C5.83933 38.9951 5.93295 38.4334 6.00316 38.1057C6.01723 38.0242 6.03332 37.9291 6.05062 37.8268C6.10533 37.5036 6.17217 37.1086 6.22551 36.8419C6.6234 34.5833 6.64681 34.513 7.18513 33.963L7.68834 33.4481H12.3226V33.8928C12.3126 34.2132 12.2597 34.3451 11.9369 34.6184C11.8824 34.6645 11.8202 34.7147 11.7491 34.7705L11.1757 35.2035H9.84162C9.11606 35.2035 8.46071 35.2503 8.3905 35.2971C8.32028 35.3439 8.22666 35.6131 8.17985 35.9056C8.17537 35.943 8.17032 35.9822 8.16485 36.0227C8.13181 36.2668 8.0833 36.5564 8.05129 36.7475C8.04701 36.773 8.04303 36.7968 8.03942 36.8185L7.9692 37.1929H9.40862L10.8597 37.2046L11.2342 37.6961C11.5736 38.1408 11.597 38.2345 11.5034 38.6558C11.4449 38.9015 11.4098 39.1356 11.4098 39.1707C11.4449 39.5803 11.3279 39.9079 11.0704 40.1654C10.6788 40.5257 10.4829 40.7182 10.2477 40.821C9.95585 40.9485 9.60354 40.9378 8.74158 40.9378H7.30215L7.23194 41.3825C7.1982 41.6074 7.12122 41.9729 7.07372 42.1984L7.0681 42.2251C7.02129 42.4474 6.99789 42.7049 7.03299 42.7868ZM10.2445 39.3351C10.2456 39.3245 10.2466 39.3037 10.2438 39.2706L10.2395 39.2207V39.1707C10.2395 39.0729 10.2534 38.9747 10.2563 38.9541C10.2565 38.9529 10.2566 38.9519 10.2567 38.9512C10.2631 38.9046 10.2715 38.8509 10.2813 38.794C10.2974 38.7001 10.3195 38.5851 10.3469 38.4629C10.334 38.4456 10.3197 38.4268 10.3039 38.4061L10.3034 38.4054L10.2766 38.3702L9.4039 38.3632H7.14484C7.08256 38.657 6.99538 39.1785 6.9518 39.4944L6.95043 39.5044L6.94889 39.5143C6.93548 39.6005 6.92232 39.6849 6.9094 39.7675H8.74158C8.8113 39.7675 8.87635 39.7676 8.93723 39.7676C9.23378 39.7679 9.43144 39.768 9.5897 39.7614C9.70152 39.7567 9.75764 39.7494 9.78123 39.7454C9.79032 39.739 9.80432 39.7287 9.82421 39.7128C9.90416 39.6489 9.99583 39.5643 10.1631 39.4101C10.1884 39.3867 10.2155 39.3618 10.2445 39.3351Z" fill="#36324A"/>
<path d="M30.4382 42.8687C30.4031 42.8336 30.4499 42.4474 30.5435 42.0144C30.6839 41.324 30.7658 40.8325 30.9882 39.3579C31.0233 39.1707 31.1988 38.1643 31.3861 37.1344C31.585 36.1046 31.8893 34.4194 32.0648 33.3896L32.3925 31.5172L34.3 31.4821L36.2193 31.447L36.1608 32.0087C36.0554 32.8981 35.8214 34.279 35.2596 37.31C35.2011 37.6025 35.1075 38.176 35.0373 38.5973C34.9671 39.0185 34.8618 39.6388 34.7915 39.9899C34.733 40.3292 34.6745 40.692 34.6745 40.7739C34.6745 40.9144 35.482 40.9378 39.3439 40.9378C43.9898 40.9378 44.3994 40.9729 44.0483 41.324C43.9781 41.3942 43.9196 41.6516 43.9196 41.8857C43.9196 42.1314 43.8728 42.4591 43.8026 42.623L43.6855 42.9272H37.097C33.4692 42.9272 30.4733 42.9038 30.4382 42.8687V42.8687Z" fill="white"/>
<path fill-rule="evenodd" clip-rule="evenodd" d="M30.6038 41.7119C30.6038 41.7115 30.6039 41.711 30.604 41.7106C30.712 41.1527 30.7996 40.6094 30.9883 39.3579C31.002 39.2846 31.0373 39.0859 31.0863 38.8095C31.1626 38.3795 31.2722 37.7613 31.3862 37.1344C31.5851 36.1046 31.8894 34.4194 32.0649 33.3896L32.3926 31.5172L36.2194 31.4469L36.1609 32.0087C36.1395 32.189 36.1129 32.3895 36.0793 32.62C35.9471 33.5259 35.7076 34.8935 35.2598 37.3099C35.2094 37.5619 35.1329 38.0222 35.0678 38.4142C35.0573 38.4774 35.0471 38.5388 35.0374 38.5972C34.9672 39.0185 34.8619 39.6388 34.7917 39.9898C34.7331 40.3292 34.6746 40.692 34.6746 40.7739C34.6746 40.9143 35.4821 40.9378 39.344 40.9378C41.0461 40.9378 42.1796 40.9425 42.9154 40.9657C42.942 40.9665 42.9681 40.9674 42.9937 40.9683C43.3207 40.9797 43.564 40.9951 43.7405 41.016C44.2104 41.0715 44.2068 41.1656 44.0484 41.3239C43.9782 41.3942 43.9197 41.6516 43.9197 41.8857C43.9197 42.1314 43.8729 42.4591 43.8027 42.6229L43.6856 42.9272H37.0971C33.4693 42.9272 30.4734 42.9038 30.4383 42.8687C30.4032 42.8336 30.45 42.4474 30.5436 42.0144C30.5648 41.9104 30.5846 41.8109 30.6038 41.7119ZM29.3982 41.7744C29.3464 42.0151 29.3051 42.2528 29.2811 42.4483C29.2695 42.5431 29.2587 42.6532 29.2567 42.759C29.2558 42.8079 29.2558 42.8923 29.2682 42.9888C29.2743 43.0363 29.2873 43.1189 29.3185 43.2161C29.3429 43.2919 29.4161 43.5015 29.6108 43.6962C29.7682 43.8536 29.9305 43.9244 29.9774 43.9446C30.0458 43.974 30.103 43.9908 30.1335 43.9992C30.1955 44.0161 30.2464 44.0245 30.2678 44.0279C30.3161 44.0355 30.3585 44.0394 30.3801 44.0412C30.4293 44.0454 30.4843 44.0483 30.535 44.0504C30.6408 44.055 30.7854 44.059 30.959 44.0627C31.3087 44.0699 31.8056 44.0762 32.4105 44.0813C33.6217 44.0916 35.2812 44.0975 37.0971 44.0975H44.4894L44.8892 43.0578C44.9751 42.8479 45.0196 42.6228 45.0442 42.463C45.0722 42.2807 45.0894 42.081 45.0899 41.8943C45.1403 41.819 45.1903 41.7294 45.2295 41.6276C45.2957 41.4561 45.353 41.1955 45.2826 40.893C45.2108 40.5838 45.0368 40.364 44.8751 40.2258C44.6083 39.9978 44.3021 39.9287 44.1872 39.9038C44.0253 39.8687 43.8459 39.8477 43.6662 39.8329C42.9661 39.7752 41.6396 39.7675 39.344 39.7675C37.7706 39.7675 36.7199 39.7635 36.027 39.75C36.085 39.4253 36.1466 39.0605 36.1917 38.7896C36.2019 38.7289 36.2123 38.6661 36.2229 38.6023C36.2886 38.2065 36.3611 37.7705 36.4073 37.5395L36.4089 37.5313L36.4104 37.5232C36.9704 34.5017 37.2123 33.081 37.323 32.1463L37.324 32.1381L37.5204 30.2527L31.4062 30.3648L30.9118 33.1904L30.9113 33.1929C30.737 34.2155 30.4343 35.8921 30.2372 36.9124L30.236 36.9187L30.2348 36.9251C30.1178 37.5686 30.0086 38.1845 29.9334 38.6086C29.8858 38.8775 29.8517 39.0694 29.8381 39.1422L29.8342 39.1628L29.8311 39.1834C29.6099 40.6504 29.5314 41.1187 29.3982 41.7744ZM35.0475 39.7034C35.0325 39.701 35.0343 39.7005 35.0485 39.7036C35.0481 39.7035 35.0478 39.7035 35.0475 39.7034ZM43.2209 40.4964C43.2173 40.5001 43.2137 40.5037 43.2101 40.5074C43.228 40.487 43.2346 40.4827 43.2209 40.4964Z" fill="#36324A"/>
<path d="M45.0434 42.4357C45.0785 42.1549 45.3125 40.7506 45.57 39.2994C45.8274 37.8483 46.1902 35.7769 46.3892 34.6769C46.5764 33.5886 46.7871 32.4066 46.8573 32.0789L46.9743 31.4587H48.835C49.8531 31.4587 50.7191 31.4938 50.7425 31.5523C50.7776 31.5991 50.7542 31.9268 50.684 32.2779C50.4617 33.5769 50.3446 34.3375 50.2744 34.8524C50.2393 35.145 50.1691 35.4259 50.1106 35.4961C50.0521 35.5546 50.0053 35.7652 50.0053 35.9642C50.0053 36.3738 49.5723 38.9601 49.4084 39.4867C49.3499 39.6856 49.3031 40.025 49.3031 40.2473C49.3031 40.4697 49.2446 40.7154 49.1627 40.7974C49.0574 40.9027 50.0989 40.9378 53.8554 40.9378H58.6886L58.6301 41.207C58.595 41.3474 58.5365 41.6751 58.4897 41.9325C58.4546 42.19 58.396 42.5176 58.3609 42.6698L58.3141 42.9272H51.6436H44.9731L45.0434 42.4357V42.4357Z" fill="white"/>
<path fill-rule="evenodd" clip-rule="evenodd" d="M45.1483 41.757C45.2478 41.1488 45.4039 40.2338 45.5697 39.2994C45.6605 38.7876 45.7644 38.1986 45.8696 37.6024C46.0627 36.508 46.2601 35.3889 46.3889 34.6769C46.5761 33.5885 46.7868 32.4066 46.857 32.0789L46.974 31.4587H48.8347C49.8529 31.4587 50.7188 31.4938 50.7422 31.5523C50.7774 31.5991 50.7539 31.9268 50.6837 32.2778C50.4614 33.5768 50.3444 34.3375 50.2741 34.8524C50.239 35.145 50.1688 35.4258 50.1103 35.4961C50.0518 35.5546 50.005 35.7652 50.005 35.9642C50.005 36.3738 49.572 38.96 49.4081 39.4866C49.3496 39.6856 49.3028 40.025 49.3028 40.2473C49.3028 40.4697 49.2443 40.7154 49.1624 40.7973C49.1453 40.8144 49.1584 40.8296 49.2082 40.8432C49.3294 40.8761 49.6683 40.899 50.3209 40.914C50.3416 40.9144 50.3626 40.9149 50.3839 40.9154C51.1198 40.9312 52.2349 40.9378 53.8551 40.9378H58.6883L58.6298 41.2069C58.5978 41.3348 58.5465 41.6179 58.5022 41.8619C58.4978 41.8859 58.4936 41.9095 58.4894 41.9325C58.4817 41.9885 58.473 42.0479 58.4636 42.108C58.4299 42.3243 58.3881 42.5507 58.3607 42.6698L58.3138 42.9272H44.9729L45.0431 42.4357C45.0556 42.3357 45.0933 42.0932 45.1483 41.757ZM43.8833 42.279C43.9272 41.9393 44.1652 40.5167 44.4174 39.095C44.5077 38.5861 44.6113 37.9989 44.7163 37.4035C44.9093 36.3097 45.1072 35.1881 45.2364 34.4735C45.4191 33.412 45.6305 32.2228 45.7095 31.8487L46.0039 30.2884H48.8347C49.3542 30.2884 49.8447 30.2973 50.2158 30.3145C50.3976 30.323 50.571 30.3343 50.7109 30.3503C50.7755 30.3577 50.8685 30.37 50.9631 30.3922C51.0055 30.4022 51.0964 30.425 51.2001 30.4707C51.2518 30.4935 51.3435 30.5378 51.4437 30.6136C51.5197 30.6711 51.6613 30.7921 51.7702 30.9928C51.8675 31.1705 51.8957 31.3267 51.9032 31.3682C51.9034 31.3696 51.9037 31.3709 51.9039 31.372C51.9202 31.4615 51.9252 31.5401 51.9272 31.591C51.9312 31.6967 51.9262 31.8025 51.9192 31.8917C51.9053 32.0712 51.8758 32.2811 51.8346 32.4904C51.6163 33.7666 51.5024 34.5077 51.4348 35.0019C51.4121 35.1879 51.3779 35.3774 51.3355 35.5448C51.3141 35.6291 51.2865 35.7248 51.2508 35.8195C51.239 35.8509 51.215 35.9144 51.175 35.9923C51.1714 36.1948 51.1316 36.5052 51.0937 36.7755C51.0487 37.0974 50.9876 37.4867 50.922 37.8761C50.807 38.5582 50.6596 39.3527 50.5507 39.7482C51.2702 39.7617 52.3342 39.7675 53.8551 39.7675H60.1403L59.7695 41.4732L59.7651 41.4908C59.7431 41.579 59.6972 41.8312 59.6475 42.1047L59.6452 42.1172C59.6085 42.3804 59.551 42.7078 59.5076 42.9033L59.2905 44.0975H43.6235L43.8833 42.279ZM49.4473 39.6991C49.4477 39.699 49.4541 39.6999 49.4652 39.7021C49.4525 39.7004 49.447 39.6993 49.4473 39.6991Z" fill="#36324A"/>
<path d="M59.5192 42.6698C59.5543 42.5176 59.6947 41.7687 59.8235 40.9963C59.9639 40.2239 60.2682 38.5388 60.5022 37.2515C60.7363 35.9642 60.9469 34.7705 60.982 34.5833C61.0171 34.3843 61.2512 34.0918 61.6257 33.7641C61.9534 33.4949 62.4683 33.0502 62.7725 32.7811C63.0651 32.5002 63.3343 32.2779 63.3694 32.2779C63.4045 32.2779 63.6268 32.0906 63.8609 31.8683L64.2939 31.4587H69.56H74.8145V31.7629C74.8145 31.9268 74.7092 32.5938 74.5922 33.2492C74.4634 33.9045 74.323 34.6418 74.2879 34.8875L74.2177 35.3205H72.2751H70.3324L70.4143 34.8875C70.4495 34.6418 70.5197 34.2205 70.5665 33.9513L70.6367 33.4481H68.2962H65.9556L65.6748 33.7524C65.5227 33.9162 65.2769 34.1035 65.1365 34.1503C64.9609 34.2205 64.8673 34.3843 64.8205 34.7588C64.7737 35.0397 64.6918 35.4961 64.6333 35.7886C64.5747 36.0812 64.5045 36.5142 64.4694 36.76L64.4109 37.193H69.1505C72.8602 37.193 73.8783 37.2281 73.8666 37.3451C73.8666 37.4153 73.7964 37.8249 73.7145 38.2462L73.5741 39.0069L68.8228 39.042L64.0715 39.0654L63.9077 39.9782L63.7439 40.8793L68.46 40.9144L73.1762 40.9378V41.207C73.1645 41.3474 73.1059 41.7804 73.024 42.1666L72.8719 42.8687L66.1663 42.9038L59.4607 42.9272L59.5192 42.6698V42.6698Z" fill="white"/>
<path fill-rule="evenodd" clip-rule="evenodd" d="M58.6708 40.7954L58.6723 40.7869C58.7335 40.4503 58.8259 39.9397 58.9302 39.3636L58.9764 39.1085C59.0993 38.4298 59.2339 37.6862 59.351 37.0421C59.4914 36.2699 59.6256 35.519 59.7173 35.006C59.7755 34.6803 59.8165 34.4505 59.8312 34.3719C59.9016 33.9854 60.1145 33.6789 60.2583 33.4968C60.4263 33.284 60.634 33.0769 60.8553 32.8834L60.869 32.8714L60.8831 32.8598C61.1897 32.6079 61.6798 32.185 61.9802 31.9197C62.1364 31.7705 62.2896 31.6331 62.4161 31.5271C62.4799 31.4737 62.5492 31.4179 62.6149 31.3701C62.6455 31.3479 62.6949 31.3131 62.7534 31.2787C62.7635 31.2728 62.7766 31.2652 62.7924 31.2566C62.8579 31.2018 62.9521 31.1176 63.0551 31.0198L63.0569 31.0181L63.8283 30.2884H75.985V31.7629C75.985 31.9539 75.9401 32.2632 75.9044 32.4978C75.8615 32.7797 75.8041 33.1207 75.7444 33.4549L75.7426 33.4648L75.7407 33.4747C75.609 34.145 75.4763 34.8451 75.4466 35.053L75.445 35.0639L75.2137 36.4908H74.678C74.8552 36.6662 75.062 36.9813 75.0351 37.414C75.0304 37.5022 75.0185 37.5844 75.0139 37.6162C75.0135 37.6185 75.0132 37.6205 75.013 37.6223C75.0031 37.6911 74.99 37.7729 74.9752 37.8597C74.9458 38.0331 74.9064 38.2481 74.8645 38.464L74.5496 40.1699L74.3466 40.1714V41.2556L74.3426 41.3041C74.3263 41.4996 74.2598 41.9815 74.169 42.4094L74.1685 42.4119L73.817 44.034L66.1706 44.0741L57.9937 44.1026L58.3782 42.4104L59.4599 42.6562L58.3791 42.4066C58.3791 42.4066 58.3792 42.4062 58.3794 42.4055L58.3801 42.4022L58.3826 42.3906C58.3847 42.3807 58.3874 42.3679 58.3906 42.3521C58.3971 42.3202 58.4052 42.2793 58.4148 42.2298C58.434 42.131 58.4581 42.0029 58.4854 41.8543C58.54 41.5571 58.6061 41.1831 58.6693 40.8039L58.6708 40.7954ZM59.6924 41.7561C59.6114 42.2104 59.5425 42.5695 59.5194 42.6698L59.4609 42.9272L66.1665 42.9038L72.8721 42.8687L73.0242 42.1665C73.0284 42.1469 73.0325 42.1272 73.0365 42.1074C73.1092 41.7509 73.1613 41.3697 73.1749 41.2229C73.1755 41.2172 73.1759 41.2119 73.1764 41.2069V40.9378L68.4602 40.9144L63.7441 40.8793L63.9079 39.9782L64.0717 39.0654L68.823 39.0419L73.5742 39.0068L73.7147 38.2462C73.7966 37.8249 73.8668 37.4153 73.8668 37.3451C73.8785 37.228 72.8604 37.1929 69.1507 37.1929H64.4111L64.4696 36.7599C64.4962 36.574 64.5428 36.281 64.5893 36.0227C64.6042 35.9395 64.6192 35.8599 64.6334 35.7886C64.692 35.4961 64.7739 35.0397 64.8207 34.7588C64.8675 34.3843 64.9611 34.2205 65.1367 34.1503C65.2771 34.1034 65.5228 33.9162 65.675 33.7524L65.9558 33.4481H70.6369L70.5667 33.9513C70.5562 34.0113 70.5447 34.0788 70.5325 34.1503C70.5071 34.3002 70.4795 34.4673 70.4555 34.6184C70.4397 34.7184 70.4254 34.8114 70.4145 34.8875L70.3326 35.3205H74.2179L74.2881 34.8875C74.3232 34.6418 74.4636 33.9045 74.5924 33.2492C74.6301 33.0379 74.6666 32.8254 74.6988 32.6289C74.7664 32.216 74.8147 31.8739 74.8147 31.7629V31.4587H64.2941L63.8611 31.8682C63.627 32.0906 63.4047 32.2778 63.3696 32.2778C63.3345 32.2778 63.0653 32.5002 62.7727 32.781C62.4685 33.0502 61.9535 33.4949 61.6259 33.7641C61.2514 34.0917 61.0173 34.3843 60.9822 34.5833C60.9686 34.6561 60.9283 34.8815 60.8704 35.2055C60.7796 35.7139 60.6454 36.4652 60.5024 37.2514C60.3705 37.9768 60.2163 38.8286 60.0817 39.5721C59.9775 40.1481 59.885 40.6591 59.8237 40.9963C59.7797 41.2599 59.7344 41.5208 59.6924 41.7561ZM69.2599 34.6952C69.2635 34.6707 69.2673 34.6451 69.2713 34.6184H66.4655C66.3506 34.7337 66.2232 34.8421 66.1013 34.9331C66.0636 34.9612 66.0164 34.9954 65.9615 35.0317C65.9121 35.3224 65.8371 35.7373 65.781 36.0181C65.7807 36.0196 65.7804 36.0212 65.7801 36.0227H69.0088L69.2599 34.6952Z" fill="#36324A"/>
<path d="M78.817 42.6113C78.9341 42.0027 79.5192 38.7728 79.9288 36.4908C80.1628 35.2386 80.3735 34.0333 80.4086 33.8343L80.4554 33.4481H78.1032C76.2893 33.4481 75.7509 33.413 75.7626 33.3077C75.7626 33.2258 75.8329 32.7928 75.9148 32.3364L76.0552 31.5172L82.7374 31.4821L89.4079 31.4587L89.3494 32.0672C89.326 32.4066 89.2558 32.7343 89.1972 32.8045C89.1387 32.863 89.0919 33.0268 89.0919 33.179V33.4481H86.7046H84.3173L84.1768 34.3024C84.1066 34.7588 83.9896 35.4142 83.9311 35.7301C83.8843 36.0578 83.8023 36.5259 83.7672 36.7834C83.6853 37.2983 83.3108 39.4048 82.9832 41.1718C82.9246 41.5229 82.831 42.0495 82.7959 42.3421L82.714 42.8687L80.7362 42.9038L78.7702 42.9272L78.817 42.6113Z" fill="white"/>
<path fill-rule="evenodd" clip-rule="evenodd" d="M77.6629 42.4149L77.6676 42.3903C77.7829 41.7908 78.3664 38.5701 78.7767 36.284L78.7774 36.2799L78.7782 36.2758C78.89 35.6774 78.9965 35.0897 79.0809 34.6184H78.1029C77.1997 34.6184 76.5774 34.6099 76.1768 34.5855C75.9895 34.5741 75.7816 34.5558 75.6008 34.5134C75.5237 34.4953 75.3396 34.4489 75.1516 34.3278C74.9529 34.1999 74.5544 33.8399 74.5941 33.2377C74.5984 33.1528 74.6091 33.0729 74.6139 33.0366C74.6141 33.0348 74.6144 33.0331 74.6146 33.0316C74.6243 32.9586 74.6373 32.8717 74.6519 32.7794C74.6811 32.5947 74.7203 32.3658 74.7619 32.1342L75.0674 30.3521L82.7331 30.3118L90.6963 30.2839L90.5154 32.1646C90.5 32.378 90.4703 32.5916 90.4318 32.7759C90.4123 32.8694 90.3868 32.9734 90.3533 33.0748L90.3518 33.0792C90.3407 33.113 90.3132 33.1965 90.262 33.2982V34.6184H85.3116C85.2403 35.0648 85.1406 35.6234 85.0859 35.9199C85.0617 36.0869 85.0303 36.281 85.0021 36.4557L84.9998 36.4697C84.9682 36.6656 84.9417 36.8304 84.9265 36.9415L84.9248 36.9544L84.9227 36.9672C84.8383 37.498 84.4624 39.6113 84.1355 41.3748C84.121 41.4616 84.1055 41.553 84.0898 41.6455C84.0365 41.9591 83.9812 42.2847 83.9576 42.4815L83.9552 42.5018L83.7188 44.0213L80.7534 44.074L77.4112 44.1137L77.6629 42.4149ZM82.9829 41.1718C83.3106 39.4047 83.6851 37.2983 83.767 36.7834C83.7848 36.6528 83.8146 36.4681 83.8458 36.2749C83.8762 36.0872 83.9078 35.8916 83.9308 35.7301C83.9894 35.4141 84.1064 34.7588 84.1766 34.3024L84.317 33.4481H89.0917V33.179C89.0917 33.0268 89.1385 32.863 89.197 32.8045C89.219 32.7781 89.2426 32.7154 89.2648 32.6294C89.3017 32.4865 89.3345 32.2791 89.3492 32.0672L89.4077 31.4587L82.7372 31.4821L76.055 31.5172L75.9145 32.3364C75.8326 32.7928 75.7624 33.2258 75.7624 33.3077C75.7507 33.413 76.289 33.4481 78.1029 33.4481H80.4552L80.4083 33.8343C80.4053 33.8515 80.401 33.8763 80.3954 33.9079C80.3722 34.0398 80.3279 34.2916 80.2697 34.6184C80.1803 35.1199 80.058 35.7982 79.9285 36.4908C79.6185 38.2183 79.2078 40.4889 78.9758 41.7544C78.9013 42.1607 78.8452 42.4634 78.8168 42.6113L78.77 42.9272L80.736 42.9038L82.7138 42.8687L82.7957 42.3421C82.8231 42.1138 82.8861 41.7429 82.9403 41.4242C82.9555 41.3345 82.9701 41.2489 82.9829 41.1718Z" fill="#36324A"/>
<path d="M117.716 42.7283C117.775 42.4592 118.325 39.475 118.395 39.0069C118.43 38.8196 118.512 38.293 118.582 37.8366C118.653 37.3919 118.816 36.5025 118.945 35.8706C119.074 35.2503 119.156 34.6886 119.121 34.6301C119.05 34.5248 120.291 33.2609 120.654 33.0503C120.771 32.9917 121.075 32.746 121.332 32.5002C121.59 32.2662 121.964 31.9385 122.152 31.7747L122.514 31.4821L127.242 31.4704C131.35 31.4704 132.86 31.5289 133.023 31.7045C133.07 31.7513 132.672 34.1737 132.508 34.8525C132.45 35.0748 132.298 35.9759 132.157 36.8419C132.029 37.7079 131.865 38.5856 131.795 38.7845C131.736 38.9835 131.689 39.3112 131.689 39.5101C131.689 39.908 131.092 40.7038 130.8 40.7038C130.706 40.7038 130.636 40.7506 130.636 40.8091C130.636 40.8793 130.332 41.1719 129.969 41.4644C129.594 41.7687 129.068 42.2134 128.81 42.4709L128.319 42.9156L122.994 42.9273C117.962 42.9273 117.67 42.9156 117.716 42.7283V42.7283ZM127.16 40.4346L127.71 39.9431L127.944 38.6558C128.073 37.9536 128.249 36.8653 128.354 36.2568C128.518 35.2855 128.623 34.7471 128.834 33.7173L128.881 33.4481H126.423C125.066 33.4481 123.977 33.495 124.012 33.5418C124.047 33.5886 123.86 33.7641 123.603 33.9162C123.1 34.2322 123.053 34.3258 123.006 35.0514C122.983 35.3323 122.936 35.5546 122.889 35.5546C122.854 35.5546 122.795 35.8355 122.76 36.1749C122.702 36.7717 122.432 38.3632 122.222 39.4165C122.163 39.709 122.081 40.1654 122.046 40.4463L121.976 40.9378H124.281H126.599L127.16 40.4346V40.4346Z" fill="white"/>
<path fill-rule="evenodd" clip-rule="evenodd" d="M117.241 38.8122L117.245 38.7912C117.276 38.628 117.354 38.1269 117.426 37.6587L117.426 37.6564L117.426 37.6541C117.5 37.1872 117.667 36.2799 117.798 35.637L117.799 35.6349L117.799 35.6327C117.86 35.34 117.908 35.0693 117.936 34.8742C117.944 34.816 117.95 34.7705 117.953 34.737C117.946 34.665 117.947 34.6023 117.949 34.5532C117.958 34.3965 117.995 34.2743 118.019 34.2085C118.065 34.0762 118.126 33.9739 118.157 33.9243C118.226 33.8131 118.308 33.7071 118.375 33.626C118.517 33.4534 118.702 33.2524 118.887 33.0626C119.075 32.8701 119.28 32.6711 119.468 32.5017C119.629 32.3569 119.857 32.1598 120.066 32.0382L120.086 32.0264C120.088 32.0254 120.09 32.0242 120.091 32.0228C120.117 32.0047 120.155 31.9757 120.204 31.9358C120.302 31.8562 120.419 31.7544 120.524 31.6537L120.535 31.6439L120.545 31.6343C120.811 31.3927 121.192 31.0597 121.378 30.8969L121.399 30.8785L122.1 30.3128L127.242 30.3001C129.295 30.3001 130.721 30.3146 131.659 30.3523C132.123 30.3709 132.499 30.3963 132.782 30.4336C132.921 30.4519 133.072 30.4775 133.215 30.518L133.219 30.5191C133.308 30.5442 133.625 30.6337 133.879 30.9059C134.077 31.1179 134.139 31.3433 134.153 31.3952L134.153 31.3975C134.178 31.4866 134.187 31.56 134.191 31.5959C134.198 31.6711 134.198 31.7338 134.197 31.7619C134.196 31.8262 134.191 31.889 134.187 31.934C134.178 32.0309 134.163 32.1514 134.145 32.2786C134.11 32.5374 134.058 32.8773 134 33.2307C133.886 33.9228 133.74 34.7393 133.646 35.127L133.643 35.1387L133.64 35.1503C133.64 35.1512 133.636 35.1678 133.627 35.2076C133.619 35.2455 133.61 35.2946 133.598 35.3548C133.575 35.4752 133.548 35.6288 133.517 35.8065C133.455 36.1592 133.383 36.5929 133.314 37.0216C133.248 37.4652 133.173 37.9123 133.104 38.2781C133.049 38.5765 132.981 38.9165 132.914 39.1269C132.888 39.2249 132.86 39.4272 132.86 39.5101C132.86 39.8601 132.741 40.1671 132.653 40.3566C132.554 40.5715 132.426 40.7775 132.292 40.9565C132.16 41.1327 131.997 41.318 131.811 41.4726C131.718 41.5499 131.597 41.6383 131.453 41.7119C131.439 41.7189 131.424 41.7261 131.409 41.7334C131.357 41.79 131.305 41.8435 131.256 41.8909C131.102 42.0415 130.906 42.212 130.705 42.3741C130.328 42.6805 129.847 43.0894 129.638 43.2983L129.617 43.319L128.771 44.0848L122.994 44.0975C120.492 44.0975 119.131 44.0948 118.406 44.0674C118.083 44.0552 117.755 44.0362 117.503 43.9665C117.397 43.9375 117.037 43.8345 116.779 43.4817C116.476 43.068 116.536 42.6413 116.574 42.4734C116.634 42.1892 117.172 39.2731 117.238 38.8333L117.241 38.8122ZM129.969 41.4644C130.332 41.1718 130.636 40.8793 130.636 40.8091C130.636 40.7506 130.706 40.7037 130.8 40.7037C131.092 40.7037 131.689 39.908 131.689 39.5101C131.689 39.3111 131.736 38.9835 131.795 38.7845C131.865 38.5856 132.029 37.7079 132.157 36.8419C132.298 35.9759 132.45 35.0748 132.508 34.8524C132.672 34.1737 133.07 31.7512 133.023 31.7044C132.86 31.5289 131.35 31.4704 127.242 31.4704L122.514 31.4821L122.152 31.7746C121.964 31.9385 121.59 32.2662 121.332 32.5002C121.075 32.746 120.771 32.9917 120.654 33.0502C120.291 33.2609 119.05 34.5248 119.121 34.6301C119.156 34.6886 119.074 35.2503 118.945 35.8706C118.816 36.5025 118.653 37.3919 118.582 37.8366C118.512 38.293 118.43 38.8196 118.395 39.0069C118.325 39.475 117.775 42.4591 117.716 42.7283C117.694 42.8189 117.75 42.8684 118.385 42.8953L118.852 43.0121C118.854 43.0031 118.857 42.9913 118.86 42.9769L118.506 42.9C118.613 42.9037 118.735 42.9069 118.871 42.9096C118.872 42.9097 118.873 42.9097 118.874 42.9097C119.645 42.9252 120.915 42.9272 122.994 42.9272L128.319 42.9155L128.81 42.4708C129.068 42.2134 129.595 41.7687 129.969 41.4644ZM121.976 40.9378L122.046 40.4463C122.069 40.2633 122.112 40.0057 122.155 39.7675C122.178 39.6402 122.201 39.5184 122.222 39.4165C122.433 38.3632 122.702 36.7717 122.76 36.1748C122.795 35.8355 122.854 35.5546 122.889 35.5546C122.936 35.5546 122.983 35.3322 123.006 35.0514C123.053 34.3258 123.1 34.2322 123.603 33.9162C123.86 33.7641 124.047 33.5886 124.012 33.5417C124.009 33.5376 124.015 33.5334 124.029 33.5293C124.12 33.5026 124.557 33.4772 125.179 33.4622C125.181 33.4621 125.182 33.4621 125.183 33.4621C125.545 33.4534 125.969 33.4481 126.423 33.4481H128.881L128.834 33.7173C128.764 34.0609 128.705 34.3498 128.652 34.6184C128.546 35.1546 128.463 35.6096 128.354 36.2567C128.316 36.4759 128.269 36.7574 128.218 37.0606C128.128 37.5992 128.027 38.2065 127.944 38.6558L127.71 39.9431L127.16 40.4346L126.599 39.806V39.8075L127.16 40.4346L126.599 40.9378H121.976ZM123.346 39.7675H126.151L126.38 39.5629L126.563 39.7675H126.564L126.381 39.562L126.631 39.3383L126.793 38.4448C126.875 38.0023 126.972 37.4176 127.061 36.8868C127.112 36.5807 127.16 36.2924 127.201 36.0596C127.296 35.494 127.372 35.0711 127.46 34.6184H126.423C125.756 34.6184 125.16 34.6299 124.742 34.6467C124.688 34.6489 124.637 34.6511 124.59 34.6534C124.474 34.7477 124.344 34.8365 124.214 34.9146C124.205 34.9202 124.196 34.9255 124.188 34.9306C124.184 34.984 124.179 35.0477 124.174 35.1267L124.173 35.1377L124.172 35.1486C124.158 35.3188 124.135 35.5031 124.098 35.6661C124.081 35.7386 124.05 35.8639 123.991 35.9951C123.982 36.0148 123.97 36.0418 123.953 36.0737C123.943 36.1336 123.933 36.2081 123.925 36.2925C123.859 36.9532 123.581 38.589 123.369 39.646C123.362 39.6842 123.354 39.725 123.346 39.7675Z" fill="#36324A"/>
<path d="M113.339 50.7921L113.378 51.2574H113.771L114.282 48.7933H112.244L112.139 49.3176H113.634C113.577 49.5448 113.503 49.7523 113.411 49.9402C113.323 50.1281 113.212 50.2897 113.077 50.4252C112.941 50.5562 112.78 50.6589 112.592 50.7332C112.408 50.8074 112.192 50.8446 111.943 50.8446C111.707 50.8446 111.502 50.8074 111.327 50.7332C111.156 50.6589 111.014 50.5562 110.901 50.4252C110.787 50.2897 110.702 50.1281 110.645 49.9402C110.588 49.7523 110.56 49.5448 110.56 49.3176C110.56 49.0336 110.599 48.754 110.678 48.4788C110.761 48.1992 110.883 47.9501 111.045 47.7317C111.207 47.5132 111.408 47.3363 111.648 47.2008C111.893 47.061 112.179 46.9911 112.506 46.9911C112.677 46.9911 112.839 47.013 112.991 47.0567C113.144 47.096 113.278 47.1593 113.391 47.2467C113.505 47.3297 113.594 47.4368 113.66 47.5678C113.73 47.6989 113.765 47.854 113.765 48.0331H114.387C114.387 47.7623 114.337 47.5285 114.237 47.3319C114.14 47.1353 114.007 46.9737 113.837 46.847C113.666 46.7159 113.465 46.6198 113.234 46.5586C113.007 46.4974 112.764 46.4669 112.506 46.4669C112.109 46.4669 111.751 46.5455 111.432 46.7028C111.113 46.8557 110.842 47.0632 110.619 47.3254C110.401 47.5875 110.232 47.8911 110.114 48.2363C109.996 48.5771 109.938 48.9375 109.938 49.3176C109.938 49.9686 110.11 50.4732 110.455 50.8315C110.805 51.1854 111.301 51.3623 111.943 51.3623C112.196 51.3623 112.445 51.3164 112.69 51.2247C112.939 51.1329 113.155 50.9887 113.339 50.7921Z" fill="white"/>
<path d="M122.886 46.5783L120.074 51.2574H120.762L121.582 49.8484H123.554L123.77 51.2574H124.413L123.567 46.5783H122.886ZM121.863 49.3242L123.115 47.1288H123.128L123.476 49.3242H121.863Z" fill="white"/>
<path d="M131.595 46.5783L130.612 51.2574H131.209L132.028 47.1615H132.041L132.65 51.2574H133.247L135.632 47.1615H135.645L134.689 51.2574H135.285L136.274 46.5783H135.409L133.096 50.6021H133.083L132.46 46.5783H131.595Z" fill="white"/>
<path d="M143.071 46.5783L142.082 51.2574H145.339L145.457 50.7332H142.822L143.163 49.1145H145.594L145.699 48.5902H143.274L143.589 47.1025H146.191L146.295 46.5783H143.071Z" fill="white"/>
<path d="M155.21 47.961H155.833C155.842 47.6989 155.8 47.4739 155.708 47.286C155.621 47.0982 155.499 46.9453 155.341 46.8273C155.184 46.705 155.001 46.6154 154.791 46.5586C154.586 46.4974 154.367 46.4669 154.136 46.4669C153.926 46.4669 153.718 46.4953 153.513 46.5521C153.312 46.6088 153.131 46.694 152.969 46.8076C152.812 46.9212 152.683 47.0632 152.582 47.2336C152.482 47.3996 152.432 47.5962 152.432 47.8234C152.432 47.9982 152.46 48.1511 152.517 48.2822C152.574 48.4089 152.65 48.5203 152.746 48.6164C152.842 48.7081 152.954 48.7868 153.08 48.8523C153.207 48.9135 153.34 48.9637 153.48 49.003L154.116 49.1734C154.229 49.204 154.337 49.239 154.437 49.2783C154.537 49.3176 154.625 49.3679 154.699 49.429C154.778 49.4858 154.839 49.5579 154.883 49.6453C154.926 49.7283 154.948 49.8288 154.948 49.9467C154.948 50.104 154.913 50.2395 154.843 50.3531C154.778 50.4667 154.69 50.5606 154.581 50.6349C154.472 50.7048 154.345 50.7572 154.201 50.7921C154.061 50.8271 153.919 50.8446 153.775 50.8446C153.587 50.8446 153.415 50.8271 153.257 50.7921C153.1 50.7528 152.965 50.6895 152.851 50.6021C152.742 50.5147 152.659 50.3989 152.602 50.2548C152.545 50.1106 152.521 49.9336 152.53 49.7239H151.907C151.886 50.0123 151.916 50.2613 151.999 50.471C152.087 50.6764 152.211 50.8446 152.373 50.9756C152.539 51.1067 152.74 51.2028 152.976 51.264C153.212 51.3295 153.469 51.3623 153.749 51.3623C153.959 51.3623 154.171 51.3339 154.385 51.2771C154.603 51.2203 154.8 51.1351 154.974 51.0215C155.149 50.9036 155.291 50.7572 155.4 50.5824C155.514 50.4033 155.571 50.1914 155.571 49.9467C155.571 49.737 155.538 49.5601 155.472 49.4159C155.411 49.2717 155.328 49.1538 155.223 49.062C155.119 48.9659 154.998 48.8895 154.863 48.8327C154.728 48.7715 154.588 48.7212 154.444 48.6819L153.814 48.5115C153.71 48.481 153.609 48.446 153.513 48.4067C153.421 48.3674 153.34 48.3193 153.27 48.2625C153.205 48.2013 153.153 48.1314 153.113 48.0528C153.074 47.9698 153.054 47.8715 153.054 47.7579C153.054 47.6181 153.089 47.5001 153.159 47.404C153.229 47.3079 153.316 47.2292 153.421 47.1681C153.53 47.1069 153.648 47.0632 153.775 47.037C153.902 47.0064 154.022 46.9911 154.136 46.9911C154.297 46.9911 154.446 47.0064 154.581 47.037C154.717 47.0676 154.83 47.1222 154.922 47.2008C155.018 47.2751 155.09 47.3756 155.138 47.5023C155.191 47.6246 155.215 47.7776 155.21 47.961Z" fill="white"/>
</svg>
