<svg width="179" height="46" viewBox="0 0 179 46" fill="none" xmlns="http://www.w3.org/2000/svg">
<path d="M19.8505 45.6432C17.8734 45.307 15.6788 44.793 15.1054 44.5557C14.7891 44.4173 14.2948 44.2394 14.018 44.1603C13.1877 43.9033 11.2303 42.8752 9.96497 42.025C7.67152 40.4829 5.69442 38.4069 3.79639 35.5797C-2.1547 26.6432 -1.00798 14.5235 6.5248 6.85231C10.914 2.40382 15.7777 0.308088 22.3614 0.0312928C29.9337 -0.285044 35.786 1.79092 40.7881 6.53597L42.5082 8.17697L39.5425 11.1229L36.5966 14.0687L35.3312 12.9418C33.1367 10.9449 30.4676 9.44232 27.8578 8.73056C26.2168 8.27583 21.1554 8.23629 19.6528 8.65148C14.2355 10.1739 10.1034 14.3455 8.97641 19.4267C8.46236 21.7399 8.6403 25.4371 9.35206 27.5526C10.9337 32.1593 14.6309 35.639 19.5539 37.1811C20.8391 37.5766 21.4322 37.6359 24.1013 37.6359C26.7111 37.6359 27.3635 37.5766 28.5498 37.2009C31.3573 36.3112 33.9077 34.255 35.3312 31.7441C35.6871 31.1312 35.9639 30.5776 35.9639 30.5183C35.9639 30.459 33.1564 30.4194 29.736 30.4194H23.5082V26.4652V22.511H34.4613C46.7985 22.511 45.6518 22.3331 45.6518 24.152C45.6518 27.177 44.9005 30.6567 43.6944 33.2665C40.8672 39.3955 36.0232 43.587 29.9337 45.1686C28.2334 45.6036 27.4426 45.7025 24.3978 45.7618C22.4405 45.7816 20.4041 45.742 19.8505 45.6432V45.6432Z" fill="white"/>
<path d="M43.4771 44.9907C43.4771 44.9709 43.9713 43.6462 44.5842 42.0843C47.4115 34.7493 51.8007 23.3018 53.6196 18.5172L55.6363 13.2186L58.8787 13.2779L62.1212 13.3174L63.8413 17.7659C64.7903 20.2175 66.8267 25.5162 68.3491 29.5297C69.8912 33.563 71.8485 38.6639 72.6987 40.8981L74.2606 44.9511L71.0972 45.0104C69.3574 45.0302 67.8943 45.0302 67.8548 44.9709C67.8152 44.9314 67.2221 43.4485 66.5499 41.6691L65.3043 38.4267H58.9183H52.552L51.2471 41.7482L49.9422 45.05H46.6997C44.9203 45.05 43.4771 45.0302 43.4771 44.9907V44.9907ZM61.014 27.256C59.9266 24.4288 58.9776 22.1155 58.9183 22.1155C58.7996 22.1155 54.9443 31.9615 54.9443 32.2581C54.9443 32.3372 56.7632 32.3965 58.9776 32.3965H62.9911L61.014 27.256V27.256Z" fill="white"/>
<path d="M76.4946 44.8523C76.4946 44.7337 77.325 39.8304 78.3531 33.9189C79.3812 28.0271 80.607 20.9491 81.0617 18.2009L81.9317 13.2186L84.9764 13.2581L88.0212 13.3174L91.5602 23.8949C93.4978 29.7076 95.1387 34.6109 95.1981 34.769C95.2771 34.947 95.7121 33.9189 96.2459 32.2977C96.76 30.7753 98.401 25.8523 99.9036 21.384L102.632 13.2186H105.677C107.357 13.2186 108.721 13.2779 108.721 13.3372C108.721 13.5349 113.842 44.0812 113.961 44.615L114.06 45.05H111.054H108.029L106.369 35.2633C105.439 29.8856 104.668 25.5162 104.629 25.5359C104.57 25.5953 98.0451 44.8918 98.0451 44.9907C98.0451 45.0302 96.7995 45.0302 95.2574 45.0104L92.4697 44.9511L89.3261 35.5006C87.606 30.3008 86.1231 25.9314 86.0441 25.7732C85.9452 25.615 85.1544 29.7472 84.2053 35.2831L82.5248 45.05H79.5196C77.582 45.05 76.4946 44.9709 76.4946 44.8523V44.8523Z" fill="white"/>
<path d="M116.155 44.615C116.215 44.358 116.393 43.923 116.551 43.6462C116.729 43.2706 125.25 23.8949 127.03 19.8023L127.306 19.1499H122.067H116.828V16.1842V13.2186H126.516C131.854 13.2186 136.203 13.2779 136.203 13.357C136.203 13.4361 133.712 19.2092 130.667 26.1686C127.623 33.128 125.132 38.9012 125.132 38.9803C125.132 39.0594 127.484 39.1187 130.371 39.1187H135.61V42.0843V45.05H125.804H116.017L116.155 44.615V44.615Z" fill="white"/>
<path d="M140.553 29.1343V13.2186H143.617H146.682V29.1343V45.05H143.617H140.553V29.1343Z" fill="white"/>
<path d="M151.546 43.3299C152.159 42.4007 153.681 40.0677 154.946 38.1499C156.192 36.2321 158.07 33.3851 159.118 31.8034C160.146 30.2217 160.996 28.7982 160.996 28.64C160.996 28.4818 158.802 24.9824 156.113 20.8897C153.424 16.7971 151.229 13.3767 151.229 13.3174C151.229 13.2581 152.771 13.2186 154.669 13.2186H158.11L161.332 18.1613C163.112 20.87 164.634 23.1041 164.693 23.1041C164.753 23.1041 166.275 20.8897 168.054 18.1613L171.297 13.2186H174.796H178.316L177.228 14.8596C176.655 15.7493 174.381 19.2092 172.187 22.5703L168.213 28.64L170.17 31.665C171.257 33.306 173.59 36.9043 175.39 39.6129C177.169 42.3414 178.691 44.6743 178.79 44.8127C178.909 44.9907 178.177 45.05 175.409 45.05H171.89L171.099 43.8044C168.806 40.2061 164.852 34.2748 164.713 34.2352C164.634 34.1957 163.982 35.0854 163.27 36.2123C162.538 37.3195 160.937 39.7711 159.711 41.6494L157.497 45.05H153.978H150.438L151.546 43.3299Z" fill="white"/>
<path d="M138.279 12.1905C138.833 10.3715 139.446 9.52139 140.85 8.61192C141.759 8.01879 141.957 7.97925 143.519 7.97925C145.001 7.97925 145.318 8.05833 146.247 8.55261C147.413 9.20505 148.521 10.6681 148.738 11.8742L148.877 12.6057L147.967 12.1114C145.397 10.6681 141.403 10.7077 138.853 12.2103L138.161 12.6254L138.279 12.1905Z" fill="white"/>
</svg>
