<svg width="194" height="49" viewBox="0 0 194 49" fill="none" xmlns="http://www.w3.org/2000/svg">
<path d="M12.5364 37.3427C5.36439 30.4734 0.734375 25.8131 0.734375 25.4802C0.734375 25.1776 5.21308 20.245 11.1746 14.0111C16.9243 7.98904 22.2503 2.39066 23.0371 1.54334L24.4594 0L28.0303 3.35903C29.9973 5.23524 33.6589 8.68506 36.1404 11.106L40.6796 15.4636L38.1074 18.1267C36.6851 19.6095 35.4141 20.8502 35.2325 20.9107C35.0812 20.941 32.7208 18.8832 30.0275 16.2807C27.3343 13.7085 24.9739 11.5902 24.8225 11.5902C24.5502 11.5902 21.5543 14.6163 14.7152 21.7883C13.1113 23.4527 11.7798 25.0263 11.7798 25.2684C11.7798 25.7223 23.37 36.798 23.9752 36.9493C24.4594 37.0401 27.5158 33.8929 27.5158 33.2574C27.5158 33.0153 25.8817 31.2602 23.8844 29.3537C21.8872 27.4775 20.2531 25.7223 20.2531 25.4802C20.2531 24.996 25.0949 20.0634 25.5488 20.0634C25.7304 20.0937 28.8473 22.9988 32.509 26.5394L39.1665 32.9851L35.9285 36.4349C34.1431 38.3413 30.8143 41.8517 28.5145 44.2423L24.3081 48.6L12.5364 37.3427V37.3427Z" fill="white"/>
<path d="M41.2847 28.7182C36.8968 26.7512 37.7744 20.0029 42.5557 19.0042C44.9464 18.52 47.7002 20.366 48.3357 22.8474C49.3645 26.9328 45.1582 30.4431 41.2847 28.7182V28.7182Z" fill="white"/>
<path d="M63.5271 23.2711V17.3398H67.6124H71.6977V18.399V19.4582H69.1255H66.5533V20.6384V21.8488L68.1571 21.9396C69.7005 22.0304 69.7307 22.0606 69.8215 23.029C69.9123 23.8763 69.8215 23.9974 69.186 23.9974C68.7623 23.9974 68.0361 24.0882 67.5216 24.1789L66.5835 24.3605L66.4927 26.6907L66.4019 28.9905L64.9797 29.0813L63.5271 29.1721V23.2711V23.2711Z" fill="white"/>
<path d="M73.2107 23.0895V17.007L77.0842 17.1885C79.2025 17.3096 81.1089 17.4306 81.3208 17.4911C81.5931 17.5819 81.6839 18.9437 81.6839 22.908C81.6839 25.8131 81.5931 28.3853 81.5023 28.6576C81.351 29.0813 80.6853 29.1418 77.2657 29.1418H73.2107V23.0895V23.0895ZM78.6578 23.0593V19.4279L77.3868 19.5187L76.0855 19.6094L75.9948 23.1803L75.904 26.7209H77.296H78.6578V23.0593Z" fill="white"/>
<path d="M82.8945 23.2711V17.3398H85.9207C89.2495 17.3398 90.3086 17.6727 91.1862 18.974C92.1848 20.5476 91.5191 22.9987 89.8547 23.7553C89.3705 23.9671 88.9468 24.2395 88.9468 24.3605C88.9468 24.4816 89.5521 25.6012 90.3086 26.7814L91.6704 28.9905L90.581 29.0813C89.0376 29.2326 88.856 29.1116 87.3732 26.963L86.072 25.0565L85.9207 27.0235L85.7694 28.9905L84.3471 29.0813L82.8945 29.1721V23.2711V23.2711ZM88.6745 21.3949C89.3402 20.5778 88.6442 19.9121 87.1009 19.9121C85.7391 19.9121 85.3155 20.366 85.7391 21.4554C85.9812 22.0606 88.16 22.0304 88.6745 21.3949V21.3949Z" fill="white"/>
<path d="M99.8408 24.3V19.4582H98.3278H96.8147V18.399V17.3398H101.051H105.288V18.3687C105.288 19.3976 105.258 19.4279 104.017 19.5187L102.716 19.6095L102.625 24.3908L102.534 29.1418H101.203H99.8408V24.3Z" fill="white"/>
<path d="M106.65 28.1735C106.559 27.6288 106.498 24.996 106.559 22.333L106.65 17.4912L108.102 17.4004L109.524 17.3096V19.5792V21.8791H110.886H112.248V19.6397V17.4004L113.61 17.2793C114.79 17.1885 115.032 17.2793 115.153 17.7938C115.214 18.1267 115.244 20.7897 115.214 23.6948L115.123 28.9905H113.761H112.399L112.308 26.6604L112.218 24.3H110.886H109.555L109.464 26.6604L109.373 28.9905L108.102 29.0813C106.892 29.1721 106.831 29.1418 106.65 28.1735Z" fill="white"/>
<path d="M116.485 23.2408V17.3398H120.57H124.655V18.399V19.4279L122.022 19.5187L119.359 19.6095L119.269 20.7594L119.178 21.8791H120.842C122.386 21.8791 122.537 21.9396 122.718 22.6053C122.991 23.6948 122.718 23.9369 120.842 24.1789L119.178 24.3605L119.269 25.6315L119.359 26.8722L121.992 26.7814C124.595 26.6907 124.625 26.6907 124.837 27.4472C125.23 29.0511 125.018 29.1418 120.57 29.1418H116.485V23.2408V23.2408Z" fill="white"/>
<path d="M130.103 23.2408V17.3096L134.279 17.4004L138.424 17.4911L138.515 18.7016C138.576 19.3371 138.546 20.3357 138.424 20.8804C138.243 21.8185 138.182 21.8791 136.911 21.8791C135.55 21.8791 135.55 21.8791 135.55 20.8199C135.55 19.791 135.519 19.7608 134.369 19.7608C132.947 19.7608 132.826 20.0331 132.826 23.9368V26.7209H134.188C135.156 26.7209 135.55 26.5999 135.55 26.2972C135.55 26.0551 135.247 25.8131 134.884 25.7525C134.43 25.692 134.158 25.4197 134.097 24.9657C134.006 24.3 134.037 24.2697 136.215 24.3605L138.424 24.4513V26.7209V28.9905L134.279 29.0813L130.103 29.1721V23.2408V23.2408Z" fill="white"/>
<path d="M139.786 25.5105V21.8791H142.51H145.233V20.6384V19.4279L143.962 19.5187C142.873 19.5792 142.631 19.7305 142.57 20.3055C142.479 20.8804 142.298 20.9712 141.118 20.9712H139.786V19.1555V17.3398H144.023H148.259V23.2408V29.1418H144.023H139.786V25.5105ZM144.719 26.7209C145.112 26.7209 145.233 26.4486 145.233 25.5105V24.3H143.871H142.51V25.4499C142.51 26.8117 142.722 27.1143 143.569 26.9025C143.902 26.8117 144.416 26.7209 144.719 26.7209Z" fill="white"/>
<path d="M149.47 23.2408V17.3398H156.4H163.299L163.511 22.9382C163.632 25.9946 163.662 28.6577 163.541 28.8392C163.451 28.9905 162.755 29.1418 161.998 29.1418H160.666V24.3V19.4582H159.305H157.943V23.0895V26.7209H156.43H154.917V23.0895V19.4582H153.555H152.193V24.3V29.1418H150.831H149.47V23.2408Z" fill="white"/>
<path d="M164.903 23.2408V17.3398H168.989H173.074V18.399V19.4279L170.441 19.5187L167.778 19.6095L167.687 20.7594L167.597 21.8791H169.261H170.956V22.908C170.956 23.9369 170.956 23.9671 169.261 24.1487L167.597 24.3605L167.687 25.6315L167.778 26.8722L170.381 26.7814L172.983 26.6907L173.195 27.6288C173.286 28.1735 173.286 28.7182 173.195 28.8695C173.104 29.0208 171.198 29.1418 168.958 29.1418H164.903V23.2408V23.2408Z" fill="white"/>
<path d="M174.587 23.2106V17.2794L177.946 17.4004L181.305 17.4912L182.364 18.6714C183.302 19.7003 183.423 19.9726 183.272 21.0318C183.09 22.2725 182.183 23.5435 181.184 23.8764C180.397 24.1185 180.488 24.4211 182.001 26.9025L183.363 29.1419H182.062C180.609 29.1419 180.246 28.8695 178.491 26.267L177.462 24.754L177.371 26.963L177.28 29.1419H175.949H174.587V23.2106V23.2106ZM180.185 20.82C180.185 19.9424 180.125 19.9121 178.763 19.8213L177.31 19.7305V20.82V21.9094L178.763 21.8186C180.125 21.7278 180.185 21.6975 180.185 20.82Z" fill="white"/>
<path d="M184.785 28.93C184.664 28.8392 184.573 28.2945 184.573 27.7195V26.7209H187.297H190.02V25.5105V24.3303L187.388 24.2395L184.725 24.1487L184.634 20.7594L184.543 17.3398H188.81C192.835 17.3398 193.046 17.3701 193.107 17.9451C193.107 18.278 193.137 18.7319 193.168 18.9437C193.198 19.1858 192.381 19.3371 190.474 19.4582L187.751 19.6095L187.66 20.7594L187.569 21.8791H190.293H193.046V25.5105V29.1418H189.022C186.782 29.1418 184.876 29.0511 184.785 28.93V28.93Z" fill="white"/>
</svg>
