<svg width="171" height="39" viewBox="0 0 171 39" fill="none" xmlns="http://www.w3.org/2000/svg">
<g clip-path="url(#clip0_1602_81)">
<path d="M11.5254 19.9936C11.5254 14.8135 16.4794 8.06738 24.9375 4.45338C39.6788 -1.93136 48.1369 3.97151 50.3118 9.51298C52.366 14.693 48.2577 23.969 41.3704 30.7151C46.3244 27.1011 50.4327 23.3667 53.2118 19.6322C56.9575 14.693 58.5283 9.99485 57.0783 6.26038C55.0242 0.839373 46.6869 -0.967628 36.2955 0.477973C25.9042 1.92357 17.9294 4.57384 11.5254 7.94691C4.27556 11.5609 0.650653 15.7772 0.0465018 20.7164C-0.678479 27.8239 7.05465 37.4613 24.575 38.6659C33.7581 39.2683 42.6995 39.5092 59.7366 35.2929C57.6825 35.4133 11.4045 41.1957 11.5254 19.9936Z" fill="#A6CE39"/>
<path d="M28.5623 28.3058C33.9997 28.3058 38.5913 23.8485 38.5913 18.307C38.5913 12.886 34.1205 8.30829 28.5623 8.30829C23.125 8.30829 18.5334 12.7656 18.5334 18.307C18.6543 23.8485 23.125 28.3058 28.5623 28.3058Z" fill="#A5CD39"/>
<path d="M65.927 32.8436H67.5091V23.4988H65.927V32.8436Z" fill="#A6CE39"/>
<path d="M78.4772 23.4988H80.0594V32.8436H78.3431L73.0333 26.0259V32.8436H71.4512V23.4988H73.0333L78.4772 30.4773V23.4988Z" fill="#A6CE39"/>
<path d="M87.5415 24.9429V32.8436H85.9593V24.9429H83.1165V23.4988H90.3843V24.9429H87.5415Z" fill="#A6CE39"/>
<path d="M100.025 23.4988V24.9828H95.0233V27.4561H99.5152V28.8599H95.0233V31.3595H100.186V32.8436H93.4409V23.4988H100.025Z" fill="#A6CE39"/>
<path d="M108.928 27.8569C109.25 27.5808 109.41 27.1376 109.41 26.527C109.41 25.9167 109.245 25.4975 108.914 25.2706C108.583 25.0431 107.993 24.9296 107.145 24.9296H105.133V28.2718H107.104C107.998 28.2718 108.606 28.1337 108.928 27.8569ZM111.033 26.5339C111.033 28.0758 110.358 29.0468 109.008 29.4478L111.462 32.8434H109.451L107.211 29.702H105.133V32.8434H103.551V23.4988H107.037C108.467 23.4988 109.491 23.7397 110.108 24.2213C110.724 24.7021 111.033 25.4729 111.033 26.5339Z" fill="#A6CE39"/>
<path d="M120.03 29.2611L118.327 25.4109L116.624 29.2611H120.03ZM115.981 30.718L115.042 32.8435H113.353L117.483 23.499H119.172L123.302 32.8435H121.612L120.674 30.718H115.981Z" fill="#A6CE39"/>
<path d="M130.221 31.4131C130.766 31.4131 131.235 31.3221 131.628 31.1392C132.022 30.9566 132.433 30.6645 132.862 30.2635L133.881 31.3063C132.889 32.4026 131.684 32.9507 130.267 32.9507C128.851 32.9507 127.675 32.496 126.741 31.5872C125.807 30.6778 125.34 29.5285 125.34 28.138C125.34 26.7475 125.816 25.5891 126.768 24.6624C127.72 23.7354 128.922 23.2722 130.375 23.2722C131.827 23.2722 133.041 23.8064 134.015 24.8759L133.01 25.9722C132.562 25.5442 132.14 25.246 131.743 25.0767C131.344 24.9074 130.878 24.8225 130.341 24.8225C129.394 24.8225 128.598 25.1282 127.955 25.738C127.311 26.3486 126.989 27.1285 126.989 28.0777C126.989 29.0268 127.308 29.82 127.948 30.4573C128.587 31.0946 129.344 31.4131 130.221 31.4131Z" fill="#A6CE39"/>
<path d="M140.693 24.9429V32.8436H139.11V24.9429H136.268V23.4988H143.535V24.9429H140.693Z" fill="#A6CE39"/>
<path d="M146.592 32.8436H148.174V23.4988H146.592V32.8436Z" fill="#A6CE39"/>
<path d="M156.394 32.8435H154.624L150.856 23.4987H152.626L155.509 30.4772L158.392 23.4987H160.162L156.394 32.8435Z" fill="#A6CE39"/>
<path d="M169.427 23.4988V24.9828H164.426V27.4561H168.918V28.8599H164.426V31.3595H169.588V32.8436H162.843V23.4988H169.427Z" fill="#A6CE39"/>
<path d="M74.4818 12.7272L72.8558 8.69198L71.2297 12.7272H74.4818ZM75.5299 15.357H70.1816L69.1881 17.8072H65.5383L71.1215 5.19739H74.6446L80.2457 17.8072H76.524L75.5299 15.357Z" fill="#A6CE39"/>
<path d="M94.2485 17.8071L94.2124 11.1241L90.9603 16.5642H89.3704L86.1358 11.3041V17.8071H82.8296V5.19727H85.7748L90.2193 12.4751L94.5559 5.19727H97.5011L97.537 17.8071H94.2485Z" fill="#A6CE39"/>
<path d="M103.093 16.5282C102.051 15.5075 101.53 14.0601 101.53 12.1867V5.19751H105.107V12.0786C105.107 14.0962 105.909 15.1051 107.511 15.1051C109.101 15.1051 109.896 14.0962 109.896 12.0786V5.19751H113.419V12.1867C113.419 14.0601 112.898 15.5075 111.856 16.5282C110.814 17.5491 109.354 18.0593 107.474 18.0593C105.595 18.0593 104.135 17.5491 103.093 16.5282Z" fill="#A6CE39"/>
<path d="M118.875 17.681C117.911 17.429 117.128 17.0926 116.526 16.6723L117.701 14.0422C118.267 14.4147 118.923 14.7148 119.67 14.943C120.417 15.1711 121.152 15.2853 121.874 15.2853C123.247 15.2853 123.934 14.943 123.934 14.2582C123.934 13.8981 123.739 13.6311 123.347 13.4567C122.956 13.2827 122.326 13.0995 121.459 12.9073C120.507 12.703 119.712 12.4841 119.074 12.2499C118.435 12.0158 117.888 11.6404 117.43 11.1241C116.972 10.6077 116.743 9.91114 116.743 9.03436C116.743 8.26597 116.954 7.57234 117.375 6.95373C117.797 6.33539 118.426 5.846 119.264 5.48557C120.101 5.12514 121.127 4.94519 122.344 4.94519C123.175 4.94519 123.995 5.03837 124.801 5.22446C125.608 5.41082 126.319 5.68368 126.934 6.04411L125.832 8.69208C124.627 8.04357 123.458 7.71918 122.326 7.71918C121.615 7.71918 121.098 7.82464 120.772 8.03449C120.447 8.24488 120.284 8.51801 120.284 8.85414C120.284 9.19055 120.477 9.44285 120.863 9.61078C121.248 9.77899 121.869 9.95306 122.724 10.1333C123.687 10.3375 124.485 10.5565 125.118 10.7909C125.75 11.025 126.298 11.3972 126.762 11.9077C127.225 12.4182 127.458 13.1118 127.458 13.988C127.458 14.7447 127.247 15.4292 126.825 16.0417C126.404 16.6542 125.771 17.1436 124.928 17.5099C124.085 17.8762 123.061 18.0593 121.856 18.0593C120.832 18.0593 119.839 17.933 118.875 17.681Z" fill="#A6CE39"/>
<path d="M142.707 5.19739V17.8072H139.762L134.178 11.0879V17.8072H130.674V5.19739H133.618L139.201 11.9166V5.19739H142.707Z" fill="#A6CE39"/>
<path d="M156.963 15.0511V17.8072H146.809V5.19739H156.728V7.95349H150.35V10.079H155.969V12.7451H150.35V15.0511H156.963Z" fill="#A6CE39"/>
<path d="M163.214 8.02552H159.329V5.19733H170.658V8.02552H166.791V17.8071H163.214V8.02552Z" fill="#A6CE39"/>
</g>
<defs>
<clipPath id="clip0_1602_81">
<rect width="171" height="39" fill="white"/>
</clipPath>
</defs>
</svg>
