<svg width="150" height="42" fill="none" xmlns="http://www.w3.org/2000/svg"><path d="M45.19 24.875c2.019 2.18 4.506 3.269 7.46 3.269 1.255 0 2.675-.322 4.26-.964l.256-4.76-13.94-.52a11.37 11.37 0 0 0 1.964 2.975zM21.306 21.08 19.73 27.68h7.375l.582-3.371h4.807l.53 3.371h7.375l-1.25-5.933-17.842-.666zM28.618.482l-4.771 19.96 17.842.667L37.344.482h-8.726zm2.566 17.494.719-4.163.496-3.217c.011-.057.035-.224.069-.499s.09-.768.17-1.48l.129-.98c.04-.297.072-.567.094-.808l.223 2.511c.057.516.102.943.136 1.282.035.338.063.605.086.8.217 1.743.337 2.74.36 2.993.01.157.033.312.068.465l.462 3.096h-3.012zm23.048 2.15a3.997 3.997 0 0 1-1.411-1.342 6.854 6.854 0 0 1-.882-2.15 12.335 12.335 0 0 1-.307-2.89c0-2.224.41-3.967 1.232-5.229.82-1.25 1.962-1.875 3.422-1.874 1.118 0 2.207.533 3.268 1.599V.654A10.277 10.277 0 0 0 56.029 0c-3.548 0-6.383 1.261-8.504 3.784-2.122 2.535-3.183 5.895-3.182 10.08 0 2.892.48 5.352 1.424 7.396l13.939.52.155-2.91c-1.243 1.146-2.48 1.72-3.712 1.72a3.885 3.885 0 0 1-1.917-.464zm31.177-7.44c.368.65.816 1.252 1.334 1.79.612.636 1.275 1.22 1.984 1.746l1.164.912c.844.676 1.266 1.37 1.266 2.08a1.54 1.54 0 0 1-.581 1.23c-.427.34-.962.515-1.506.491-1.632 0-3.149-.963-4.552-2.89v4.663l12.684.473c.732-1.353 1.107-2.912 1.107-4.689 0-1.536-.331-2.878-.993-4.025-.65-1.146-1.728-2.265-3.234-3.354l-1.13-.843c-.969-.7-1.453-1.405-1.453-2.116a1.42 1.42 0 0 1 .547-1.118c.372-.328.856-.5 1.352-.481.718 0 1.449.26 2.19.782a7.576 7.576 0 0 1 1.985 2.142V1.36C95.85.454 94.139.001 92.44.001c-1.906 0-3.531.573-4.877 1.72-.492.403-.929.869-1.3 1.385a9.856 9.856 0 0 0-1.847 5.616 8.647 8.647 0 0 0 .24 2.064c.163.664.417 1.304.752 1.9zM0 27.68h7.135v-7.128L0 20.285v7.394zm13.08-7.64 7.135.267V.482h-7.134v9.392H9.676V.482H2.54v19.164l7.135.267v-3.555h3.405v3.682h-.001zm-2.54 7.64h7.136v-6.734l-7.135-.267v7.001h-.002zM74.406.482l-4.21 11.387.189-11.387h-7.136v21.43l7.061.265-.114-7.384 2.898 7.488 7.455.278-4.312-9.262L81.935.482h-7.53zm31.193 0-5.452 22.809 19.133.714L114.325.482h-8.726zm2.566 17.494.719-4.163.496-3.217c.011-.057.034-.223.068-.499.035-.275.092-.768.172-1.48.045-.355.088-.681.128-.98.04-.297.072-.567.094-.808l.222 2.511c.057.516.103.943.137 1.282.035.338.063.605.086.8.217 1.743.337 2.74.359 2.993.011.157.034.312.068.465l.462 3.096h-3.011zm15.323 9.703h6.947l.351-2.511-7.92-.296.622 2.807zm-62.779-5.128v5.128h7.135l-.074-4.864-7.061-.264zM143.037.481l-1.301 8.24a73.55 73.55 0 0 0-.497 3.836c-.148 1.411-.285 3.028-.41 4.85-.423-4.059-.919-7.573-1.488-10.544L138.143.482H132l-1.334 7.585a96.736 96.736 0 0 0-.925 6.932l-.222 2.082-.239-2.426c-.171-1.662-.479-3.95-.924-6.863l-1.164-7.31h-7.049l5.264 23.752 7.921.296.999-7.122a74.92 74.92 0 0 0 .291-2.288c.08-.722.149-1.41.205-2.063.114-1.285.2-2.162.257-2.632.023.23.062.561.12.997.059.436.126.98.205 1.635.16 1.318.4 2.878.719 4.678l1.226 6.945 7.712.288L150 .483h-6.963V.482zm-7.811 27.198h6.879l.418-2.073-7.713-.288.416 2.361zm-25.741-3.307.52 3.307h7.375l-.64-3.036-7.255-.27zm-27.507 2.654c1.916.745 3.713 1.117 5.39 1.118 2.429 0 4.437-.849 6.023-2.546a8.537 8.537 0 0 0 1.27-1.78l-12.683-.473v3.68zm-11.425-4.107 1.842 4.76h7.701l-2.087-4.482-7.456-.278zm26.157 4.76h7.374l.582-3.371-7.06-.379-.896 3.75zM7.034 36.497h4.645c.002.437-.018.873-.06 1.308a4.664 4.664 0 0 1-.238 1.093 4.38 4.38 0 0 1-.68 1.254c-.282.36-.623.669-1.01.913a4.72 4.72 0 0 1-1.271.558 5.44 5.44 0 0 1-1.457.192 5.096 5.096 0 0 1-1.917-.348 4.314 4.314 0 0 1-1.486-.979 4.43 4.43 0 0 1-.968-1.513 5.296 5.296 0 0 1-.346-1.95 5.35 5.35 0 0 1 .34-1.94 4.262 4.262 0 0 1 .967-1.506 4.391 4.391 0 0 1 1.51-.972 5.34 5.34 0 0 1 1.971-.348 4.862 4.862 0 0 1 2.472.612 4.227 4.227 0 0 1 1.684 1.897l-2.221.924a2.268 2.268 0 0 0-.806-1.068 2.015 2.015 0 0 0-1.129-.325 2.264 2.264 0 0 0-.955.198c-.284.13-.535.324-.734.565a2.724 2.724 0 0 0-.478.882c-.12.372-.178.761-.173 1.153a3.66 3.66 0 0 0 .15 1.068c.09.311.242.601.447.852.2.241.454.432.74.559a2.5 2.5 0 0 0 1.027.197c.225.001.45-.025.669-.077.207-.049.403-.134.58-.252.171-.118.316-.272.422-.45.12-.207.197-.436.228-.673H7.034v-1.824zm28.505 3.493h-3.343l-.537 1.573h-2.497l3.427-9.052h2.556l3.427 9.052h-2.496l-.537-1.573zm-.621-1.79-1.051-3.013-1.05 3.014h2.1zm21.471 3.362 1.528-9.052h2.317l1.804 4.829 1.791-4.827h2.317l1.529 9.052h-2.33l-.775-5.21-2.125 5.21h-.933l-2.018-5.21-.776 5.21h-2.329v-.002zm32.302-9.052v9.052h-2.34V32.51h2.34zm19.083 9.052V32.51h2.341l4.323 5.535v-5.533h2.329v9.052h-2.33l-4.322-5.535v5.535h-2.341v-.002zm32.624-5.065h4.647c0 .48-.022.917-.061 1.31-.035.372-.115.738-.239 1.091a4.361 4.361 0 0 1-.68 1.255c-.281.36-.622.668-1.008.912a4.729 4.729 0 0 1-1.273.558c-.475.13-.965.195-1.457.192a5.1 5.1 0 0 1-1.917-.348 4.33 4.33 0 0 1-1.487-.978 4.457 4.457 0 0 1-.966-1.513 5.683 5.683 0 0 1-.007-3.89 4.25 4.25 0 0 1 .968-1.506 4.391 4.391 0 0 1 1.51-.973 5.337 5.337 0 0 1 1.97-.347 4.854 4.854 0 0 1 2.471.612 4.232 4.232 0 0 1 1.686 1.897l-2.222.924a2.267 2.267 0 0 0-.806-1.069 2.017 2.017 0 0 0-1.129-.324 2.262 2.262 0 0 0-.955.198c-.284.13-.535.323-.733.564a2.729 2.729 0 0 0-.479.883c-.12.372-.179.761-.174 1.152-.003.362.048.722.15 1.069.09.311.243.601.449.852.2.241.453.432.74.559a2.49 2.49 0 0 0 1.027.197c.225.001.449-.025.668-.078a1.75 1.75 0 0 0 .579-.252c.173-.117.318-.27.425-.45.118-.207.195-.435.226-.672h-1.923v-1.825z" fill="#fff"/></svg>