<svg width="194" height="46" viewBox="0 0 194 46" fill="none" xmlns="http://www.w3.org/2000/svg">
<g clip-path="url(#clip0_910_231)">
<path d="M10.901 20.24L14.4114 28.52C16.3514 33.12 18.0143 36.8 18.1067 36.8C18.1991 36.8 19.7695 33.12 21.7095 28.52C23.6495 24.012 25.4972 20.24 25.7743 20.24C26.0514 20.24 27.3448 22.724 28.4533 25.76L30.6705 31.28L32.6105 30.268C33.7191 29.624 34.7353 29.072 34.92 28.98C35.1048 28.796 33.0724 23.644 30.3933 17.48L25.5895 6.25598L18.3838 23.6516L10.5314 6.34798L5.63525 17.572C2.95621 23.644 0.923826 28.796 1.10859 28.98C1.29335 29.072 2.3095 29.624 3.32568 30.176L3.32573 30.176L5.35811 31.28L10.901 20.24Z" fill="white"/>
<path d="M186.055 27.048L178.757 18.308L178.48 24.288L178.203 30.36H175.986H173.769L173.491 17.02C173.307 9.65999 173.307 3.67999 173.399 3.67999C173.399 3.67999 176.725 7.63599 180.79 12.604L187.995 21.436L188.272 15.824L188.55 10.12H191.044H193.538V23C193.538 30.084 193.446 35.88 193.446 35.88C193.353 35.88 190.028 31.924 186.055 27.048V27.048Z" fill="white"/>
<path d="M44.2504 31.464L41.9409 29.9L49.0542 18.584L56.26 7.17599L58.4771 10.764C59.6781 12.696 62.819 17.756 65.4981 22.08L70.3943 29.808L68.2695 31.556L66.1447 33.304L65.0362 31.832L64.02 30.36H56.0752H48.1304L47.3914 31.74L46.6523 33.028L44.2504 31.464V31.464ZM60.0476 24.38C60.0476 23.184 57.1838 18.4 56.5371 18.4C55.7981 18.4 51.7333 23.46 51.7333 24.38C51.7333 24.656 53.5809 24.84 55.8904 24.84C58.2 24.84 60.0476 24.656 60.0476 24.38Z" fill="white"/>
<path d="M111.042 9.66C110.857 9.844 112.89 14.904 115.569 21.068L120.465 32.2L128.317 15.2969L135.523 32.292L140.419 21.16C143.098 15.088 145.131 9.936 144.946 9.752C144.761 9.568 143.652 9.016 142.636 8.464L140.696 7.452L138.479 12.88C137.278 15.916 136.077 18.4 135.708 18.4C135.431 18.4 133.583 14.628 131.643 10.12L128.132 1.84L124.622 9.752C122.682 14.168 120.834 17.94 120.65 18.216C120.372 18.4 119.079 16.1 117.693 13.064L115.291 7.452L113.259 8.464C112.243 9.016 111.227 9.568 111.042 9.66Z" fill="white"/>
<path d="M79.1704 29.716L77.5999 28.152L81.8495 23.828L86.099 19.504L81.8495 15.548L77.5076 11.684L79.3552 9.75199L81.2952 7.91199L85.4523 11.96L89.6095 16.008L93.7666 11.96L97.9238 7.91199L99.8638 9.75199L101.711 11.684L97.3695 15.548L93.12 19.504L97.3695 23.828L101.711 28.152L99.7714 29.9L97.8314 31.648L93.7666 27.6L89.6095 23.552L85.6371 27.416C83.5123 29.532 81.48 31.28 81.2028 31.28C81.018 31.28 80.0942 30.544 79.1704 29.716V29.716Z" fill="white"/>
<path d="M155.2 20.24V10.12H157.972H160.743V20.24V30.36H157.972H155.2V20.24Z" fill="white"/>
<circle cx="158" cy="4" r="3" fill="white"/>
<path d="M43.9365 42.6788H45.3037V45.2916C44.9527 45.5553 44.5462 45.7577 44.0843 45.8988C43.6224 46.0399 43.1574 46.1104 42.6894 46.1104C42.0181 46.1104 41.4145 45.9693 40.8787 45.6872C40.3429 45.3989 39.921 45.0033 39.6131 44.5004C39.3113 43.9913 39.1604 43.4179 39.1604 42.78C39.1604 42.1421 39.3113 41.5717 39.6131 41.0688C39.921 40.5597 40.346 40.1641 40.8879 39.882C41.4299 39.5937 42.0396 39.4496 42.7171 39.4496C43.2837 39.4496 43.7979 39.5447 44.2598 39.7348C44.7217 39.9249 45.1097 40.2009 45.4238 40.5628L44.4631 41.446C44.0012 40.9615 43.4438 40.7192 42.791 40.7192C42.3783 40.7192 42.0119 40.8051 41.6916 40.9768C41.3714 41.1485 41.122 41.3908 40.9434 41.7036C40.7647 42.0164 40.6754 42.3752 40.6754 42.78C40.6754 43.1787 40.7647 43.5344 40.9434 43.8472C41.122 44.16 41.3683 44.4053 41.6824 44.5832C42.0027 44.7549 42.366 44.8408 42.7725 44.8408C43.2036 44.8408 43.5916 44.7488 43.9365 44.5648V42.6788Z" fill="white"/>
<path d="M66.6574 44.62H63.6551L63.0823 46H61.5488L64.4311 39.56H65.9092L68.8007 46H67.2302L66.6574 44.62ZM66.1863 43.4884L65.1609 41.0228L64.1354 43.4884H66.1863Z" fill="white"/>
<path d="M91.061 46L91.0518 42.136L89.1487 45.3192H88.4744L86.5806 42.2188V46H85.1764V39.56H86.4143L88.8347 43.562L91.2181 39.56H92.4467L92.4652 46H91.061Z" fill="white"/>
<path d="M109.704 39.56H111.201V46H109.704V39.56Z" fill="white"/>
<path d="M134.371 39.56V46H133.142L129.918 42.09V46H128.44V39.56H129.678L132.893 43.47V39.56H134.371Z" fill="white"/>
<path d="M155.975 42.6788H157.343V45.2916C156.992 45.5553 156.585 45.7577 156.123 45.8988C155.661 46.0399 155.196 46.1104 154.728 46.1104C154.057 46.1104 153.453 45.9693 152.918 45.6872C152.382 45.3989 151.96 45.0033 151.652 44.5004C151.35 43.9913 151.199 43.4179 151.199 42.78C151.199 42.1421 151.35 41.5717 151.652 41.0688C151.96 40.5597 152.385 40.1641 152.927 39.882C153.469 39.5937 154.079 39.4496 154.756 39.4496C155.323 39.4496 155.837 39.5447 156.299 39.7348C156.761 39.9249 157.149 40.2009 157.463 40.5628L156.502 41.446C156.04 40.9615 155.483 40.7192 154.83 40.7192C154.417 40.7192 154.051 40.8051 153.731 40.9768C153.41 41.1485 153.161 41.3908 152.982 41.7036C152.804 42.0164 152.714 42.3752 152.714 42.78C152.714 43.1787 152.804 43.5344 152.982 43.8472C153.161 44.16 153.407 44.4053 153.721 44.5832C154.042 44.7549 154.405 44.8408 154.811 44.8408C155.243 44.8408 155.631 44.7488 155.975 44.5648V42.6788Z" fill="white"/>
</g>
<defs>
<clipPath id="clip0_910_231">
<rect width="194" height="46" fill="white"/>
</clipPath>
</defs>
</svg>
