<svg width="191" height="48" viewBox="0 0 191 48" fill="none" xmlns="http://www.w3.org/2000/svg">
<path d="M80.6183 47.0517C80.6183 46.9637 80.2132 43.8284 79.7376 40.0413C79.2444 36.2719 78.8569 32.9957 78.8569 32.7843C78.8569 32.4673 78.9626 32.3792 79.3501 32.3792H79.8257L80.495 37.7163C80.8649 40.6402 81.2525 43.6875 81.3581 44.4977L81.5519 45.9421H95.4318H109.329L109.365 43.8812C109.382 42.7363 109.417 41.3624 109.435 40.834C109.453 40.3055 109.47 38.3328 109.488 36.4833L109.506 33.0837H110.14H110.791L110.686 38.1566C110.615 40.9396 110.562 44.1102 110.562 45.2023V47.1751H95.5904C87.3646 47.1751 80.6183 47.1222 80.6183 47.0517Z" fill="#F2F4F5"/>
<path d="M116.481 46.2591C116.428 45.7483 116.304 43.388 116.199 41.0101C116.093 38.6322 115.97 36.4304 115.917 36.131C115.847 35.6378 115.882 35.5497 116.164 35.5497C116.463 35.5497 116.516 35.7259 116.622 36.8003C116.692 37.4873 116.78 38.0157 116.798 37.9805C116.833 37.9452 117.044 34.6162 117.08 33.3127C117.08 33.2775 117.203 33.2599 117.344 33.2599C117.485 33.2599 117.608 33.1894 117.608 33.0837C117.608 32.9957 117.766 32.9076 117.978 32.9076C118.33 32.9076 118.348 32.978 118.242 33.9292C118.189 34.4753 118.101 37.0293 118.048 39.601C117.995 42.1726 117.907 44.6386 117.855 45.1142L117.766 45.9421H131.594H145.438L145.526 45.5545C145.632 45.0437 146.319 41.1334 147.024 37.0469C147.746 32.7843 147.64 33.0837 148.257 33.0837C148.574 33.0837 148.785 33.1718 148.785 33.3127C148.767 33.4184 148.239 36.5713 147.587 40.3055L146.389 47.087L131.488 47.1398L116.569 47.175L116.481 46.2591Z" fill="#F2F4F5"/>
<path d="M151.515 46.9637C151.321 46.4 149.19 32.8019 149.26 32.6082C149.401 32.2559 149.842 32.344 149.842 32.7139C149.842 32.9076 149.93 33.0838 150.018 33.119C150.124 33.1542 150.634 35.6554 151.163 38.7027C151.691 41.7323 152.149 44.2511 152.184 44.2863C152.22 44.3216 152.625 42.4721 153.1 40.1823C153.558 37.8748 154.069 35.3736 154.228 34.6338L154.51 33.2599H155.073C155.461 33.2599 155.654 33.348 155.654 33.5065C155.654 33.6474 155.108 36.4833 154.421 39.7947C153.752 43.1062 153.188 45.854 153.188 45.8892C153.188 45.9068 159.547 45.9245 167.315 45.9068L181.442 45.854L182.305 43.1238C184.912 34.8276 184.912 34.8452 185.211 34.8452C186.021 34.8628 185.986 34.9861 184.189 40.7635C183.221 43.846 182.357 46.5586 182.252 46.7876L182.076 47.1751H166.839C154.791 47.1751 151.568 47.1222 151.515 46.9637V46.9637Z" fill="#F2F4F5"/>
<path d="M44.6326 45.2023C44.3507 44.392 43.2939 41.4152 42.2899 38.5794C41.2859 35.7435 40.458 33.3832 40.458 33.3303C40.458 33.2951 40.7222 33.2599 41.0393 33.2599H41.6029L42.5717 35.9549C43.1001 37.4168 44.0865 40.1822 44.7735 42.067L46.0065 45.5017L54.9897 45.4313C59.9392 45.396 64.2899 45.3432 64.6774 45.3256C65.0649 45.308 67.2139 45.2903 69.4509 45.2727L73.5021 45.2375L72.2515 39.4777L70.9833 33.7002L71.5117 33.6474C71.7935 33.6122 72.0578 33.6298 72.1106 33.6826C72.1634 33.7355 72.6919 36.0605 73.3084 38.8436C74.1186 42.5954 74.4357 43.7755 74.5061 43.388C74.6294 42.842 75.8624 35.2503 75.8624 35.1094C75.8624 35.0565 75.9857 35.0213 76.1266 35.0213C76.2675 35.0213 76.3908 35.0389 76.3908 35.0741C76.3908 35.0918 76.2675 36.2191 76.1266 37.5753C75.9857 38.9316 75.7391 41.2743 75.5982 42.7715C75.2107 46.7171 75.4925 46.2943 73.2555 46.2943C72.2163 46.312 69.7503 46.3472 67.7599 46.3824C65.7695 46.4353 59.8688 46.5057 54.6374 46.5586L45.1258 46.6466L44.6326 45.2023Z" fill="#F2F4F5"/>
<path d="M115.847 34.0525C115.847 33.5241 115.935 33.0837 116.023 33.0837C116.129 33.0837 116.199 33.2775 116.199 33.5065C116.199 33.7355 116.252 34.1758 116.305 34.4753C116.393 34.898 116.357 35.0213 116.129 35.0213C115.9 35.0213 115.847 34.8275 115.847 34.0525Z" fill="#F2F4F5"/>
<path d="M183.062 15.5929L182.375 15.3815L180.12 9.21659L177.883 3.05165L174.607 2.99881C172.811 2.98119 171.331 2.99881 171.331 3.06926C171.331 3.1221 171.824 4.51362 172.405 6.16935C173.004 7.80746 173.445 9.18137 173.409 9.21659C173.357 9.26944 171.155 7.87792 168.495 6.13412L163.669 2.96358H160.974C158.49 2.96358 158.279 2.98119 158.367 3.28063C159.212 6.23981 161.291 13.8667 161.291 14.0429C161.291 14.2542 160.833 14.2718 158.754 14.1838C157.363 14.1133 156.095 14.0076 155.936 13.9548C155.742 13.8843 155.654 13.9372 155.654 14.1309C155.654 14.2895 155.549 14.4128 155.408 14.4128C155.267 14.4128 155.091 14.0781 154.967 13.5849C153.435 6.99721 152.484 3.08688 152.431 3.03403C152.396 2.99881 151.938 5.34149 151.409 8.24782C150.493 13.3559 150.441 13.5321 150.053 13.5321C149.701 13.5321 149.666 13.4616 149.754 12.9684C150 11.5417 151.779 0.233387 151.779 0.110088C151.779 0.0220177 158.578 -0.0132106 166.875 0.00440353L181.988 0.0572459L184.489 6.66255C187.43 14.3951 187.8 15.4344 187.695 15.5225C187.483 15.7338 183.678 15.769 183.062 15.5929V15.5929Z" fill="#F2F4F5"/>
<path d="M168.072 13.3735C167.826 12.5457 167.544 11.6474 167.456 11.3831C167.368 11.1013 167.332 10.89 167.385 10.89C167.667 10.89 172.74 14.5009 172.687 14.6594C172.652 14.7827 171.877 14.8531 170.573 14.8707H168.512L168.072 13.3735V13.3735Z" fill="#F2F4F5"/>
<path d="M129.233 14.3599C129.233 14.1838 128.018 14.1309 123.209 14.0957C119.915 14.0781 117.167 14.0253 117.114 13.99C117.079 13.9372 116.938 12.211 116.833 10.1502L116.621 6.39834L116.428 8.24782C116.304 9.26944 116.163 10.749 116.093 11.5593C115.899 13.8667 115.67 13.2326 115.758 10.6786C115.811 9.39274 115.881 7.31428 115.934 6.04606C115.97 4.77784 116.022 2.94597 116.022 1.95958V0.145325H131.153H146.283L146.548 1.34309C147.428 5.27104 149.155 13.7434 149.102 13.7963C148.996 13.9196 137.018 13.99 136.913 13.8667C136.86 13.8139 136.49 11.6297 136.103 9.02285C135.715 6.41596 135.363 4.02043 135.31 3.72099L135.204 3.13973H131.875C128.687 3.13973 128.528 3.15734 128.528 3.4744C128.528 3.66815 128.845 6.20459 129.233 9.11092C129.621 12.0172 129.938 14.448 129.938 14.5008C129.938 14.5537 129.779 14.5889 129.585 14.5889C129.392 14.5889 129.233 14.4832 129.233 14.3599V14.3599Z" fill="#F2F4F5"/>
<path d="M67.9009 13.4088C66.756 13.3735 65.8224 13.2679 65.8224 13.1974C65.8224 13.1093 65.4701 12.6514 65.0298 12.1582C64.3957 11.4536 64.0082 11.1894 63.1275 10.9076C61.8768 10.5024 60.2563 10.1325 57.9313 9.74503C56.1699 9.4632 55.6062 9.2166 55.6062 8.74102C55.6062 8.28306 56.4165 7.75463 57.3324 7.61372C58.4245 7.45519 61.0138 7.80747 62.6343 8.35351C64.1491 8.86432 63.8849 9.02285 65.5406 6.60971L66.7207 4.90114L66.1395 4.65455C65.8224 4.51363 64.8536 4.23181 63.9729 4.00282C62.599 3.63293 61.9649 3.58008 59.2171 3.58008C56.4341 3.58008 55.8704 3.63293 54.6374 3.98521C51.1146 5.00683 48.9657 6.97961 48.631 9.48082C48.5077 10.5201 49.0714 11.665 50.093 12.3871C50.4981 12.669 50.8328 12.9684 50.8328 13.0213C50.8504 13.1974 48.3492 13.3383 46.1827 13.2855C45.1258 13.2502 43.4349 13.215 42.4661 13.215L40.6694 13.1798L41.0041 11.7354C41.1802 10.9252 41.8672 8.01884 42.5365 5.25343L43.7343 0.233398H59.041H74.3477L75.1051 5.95799C75.9505 12.4224 75.9682 12.6514 75.6159 12.6514C75.3693 12.6514 75.3164 12.4576 74.3477 7.94839C74.0658 6.66256 73.784 5.60571 73.7135 5.60571C73.6255 5.60571 73.5726 5.74662 73.5726 5.92276C73.5726 6.16936 72.4982 13.215 72.4453 13.2855C72.3749 13.3912 69.5918 13.4616 67.9009 13.4088V13.4088Z" fill="#F2F4F5"/>
<path d="M105.19 11.8235C103.622 11.7002 103.622 11.6826 104.309 10.7843C106.493 7.93077 104.644 4.83068 100.064 3.66815C98.8486 3.3511 98.1088 3.31587 92.6837 3.31587H86.6596L86.3602 5.92276C86.2017 7.3495 85.9727 9.16376 85.867 9.97401L85.6733 11.436L83.0135 11.3303C79.1384 11.1718 78.839 11.1365 78.9447 10.661C78.9799 10.4496 79.2969 8.17737 79.6492 5.60571C79.9839 3.03404 80.3186 0.761819 80.3538 0.55045L80.4419 0.145325H95.5019H110.562V2.13572C110.562 3.21018 110.615 5.86992 110.685 8.01884L110.791 11.9292L108.343 11.9116C107.004 11.894 105.577 11.8587 105.19 11.8235V11.8235Z" fill="#F2F4F5"/>
<path d="M92.8601 8.65294C92.9305 7.78984 93.001 6.99721 93.0362 6.89152C93.1419 6.53924 96.2772 6.59208 97.1403 6.94437C98.2324 7.36711 98.5318 8.3535 97.8449 9.21659C97.2636 9.974 96.5062 10.1854 94.5334 10.1854H92.7544L92.8601 8.65294Z" fill="#F2F4F5"/>
<path d="M117.96 37.9276C117.96 37.7867 117.889 37.6634 117.784 37.6634C117.695 37.6634 117.607 37.5401 117.607 37.3992C117.607 37.2583 117.731 37.135 117.872 37.135C118.048 37.135 118.136 37.3111 118.136 37.6634C118.136 37.9628 118.101 38.1918 118.048 38.1918C117.995 38.1918 117.96 38.0685 117.96 37.9276Z" fill="#F2F4F5"/>
<path d="M185.123 36.8531C184.823 36.5361 184.841 36.4304 185.211 36.4128C185.387 36.4128 185.422 36.3599 185.299 36.3071C184.982 36.1838 185.017 35.902 185.334 35.902C185.616 35.902 185.669 36.3071 185.457 36.8003C185.352 37.0469 185.299 37.0645 185.123 36.8531Z" fill="#F2F4F5"/>
<path d="M75.7564 35.7611C75.8092 35.6025 76.0558 34.0525 76.32 32.3439C76.5842 30.6177 76.8484 29.2086 76.9189 29.2086C76.9717 29.2086 76.8837 30.4945 76.7075 32.0797C76.5314 33.6474 76.3729 35.1446 76.3552 35.4088C76.3376 35.6906 76.1967 35.9196 76.003 35.9724C75.7564 36.0253 75.6859 35.9724 75.7564 35.7611Z" fill="#F2F4F5"/>
<path d="M115.846 35.3031C115.846 34.8628 115.934 34.4576 116.04 34.4048C116.287 34.2463 116.304 34.2815 116.427 35.2503C116.533 35.9901 116.516 36.0781 116.198 36.0781C115.899 36.0781 115.846 35.9548 115.846 35.3031V35.3031Z" fill="#F2F4F5"/>
<path d="M116.938 35.5497C116.938 35.215 116.974 35.0741 117.027 35.2503C117.062 35.4088 117.062 35.6906 117.027 35.8668C116.974 36.0253 116.938 35.8844 116.938 35.5497Z" fill="#F2F4F5"/>
<path d="M79.7368 35.5673C79.7368 35.4793 79.8601 35.3736 80.001 35.3031C80.1596 35.2503 80.2652 35.3031 80.2652 35.4616C80.2652 35.6025 80.1419 35.7258 80.001 35.7258C79.8601 35.7258 79.7368 35.6554 79.7368 35.5673Z" fill="#F2F4F5"/>
<path d="M185.228 35.4969L184.752 35.2855L186.849 28.6802C187.993 25.0517 188.927 22.0221 188.945 21.934C188.945 21.8635 181.987 21.8283 173.497 21.8459L158.049 21.8988L156.852 27.7995C156.2 31.0405 155.654 33.7178 155.654 33.7531C155.654 33.7707 155.372 33.7883 155.037 33.7883C154.703 33.7883 154.421 33.7707 154.421 33.7531C154.421 33.7178 154.967 30.9877 155.654 27.6762L156.887 21.6522L156.253 19.0453C155.918 17.6185 155.478 15.7514 155.302 14.9236C155.108 14.0957 154.914 13.2678 154.844 13.0741C154.738 12.7746 154.756 12.757 154.967 13.0389C155.249 13.3559 158.014 13.673 160.075 13.6201L161.255 13.5849L161.731 15.4168C161.995 16.4208 162.312 17.3015 162.418 17.3543C162.647 17.5128 169.041 17.5481 169.129 17.3895C169.164 17.3367 169.058 16.7907 168.864 16.1566C168.089 13.4792 168.001 13.1798 168.16 13.2678C168.266 13.3383 168.336 13.4792 168.336 13.6201C168.336 14.1485 168.812 14.3775 169.569 14.219C169.957 14.1309 170.503 14.1133 170.767 14.1838C171.031 14.2542 171.524 14.2895 171.859 14.2895C172.37 14.2718 172.916 14.5537 174.941 15.9276L177.407 17.5833H180.278C181.846 17.5833 183.132 17.5481 183.132 17.5128C183.132 17.46 182.903 16.7907 182.604 16.0156C182.322 15.223 182.163 14.5889 182.251 14.5889C182.357 14.5889 182.427 14.6594 182.427 14.7474C182.427 14.906 184.083 15.223 184.541 15.1525C184.682 15.1173 185.439 15.0821 186.232 15.0645L187.659 15.0116L188.909 18.3407L190.178 21.6698L188.046 28.4864C186.866 32.2206 185.862 35.3736 185.792 35.4969C185.721 35.6378 185.58 35.6378 185.228 35.4969V35.4969Z" fill="#F2F4F5"/>
<path d="M39.4184 30.4768C38.5025 27.9052 37.7627 25.7034 37.7627 25.5977C37.7627 25.2983 40.6866 13.0388 40.7923 12.8451C40.9156 12.6689 44.3328 12.528 44.6146 12.6866C44.7027 12.7394 45.1959 12.7218 45.7243 12.6513C46.2527 12.5809 46.9925 12.5985 47.3624 12.7042C47.8204 12.8099 48.1022 12.8099 48.2607 12.6689C48.4016 12.5633 48.5602 12.528 48.6306 12.5985C48.7011 12.6689 49.0886 12.7042 49.4937 12.6689C49.9869 12.6513 50.5506 12.7746 51.2023 13.0741C51.7483 13.3207 53.2631 13.7082 54.637 13.9548C58.4593 14.6593 59.0934 14.9059 58.882 15.5929C58.6002 16.4912 56.3808 16.8435 53.8444 16.4031C52.4353 16.1565 51.6955 15.9276 50.1102 15.223L49.4761 14.9412L47.8732 17.0372L46.2703 19.1509L47.2743 19.5208C52.2415 21.3703 60.3088 20.9828 63.3736 18.7458C65.505 17.1782 66.5618 14.6946 65.7516 13.1445C65.4521 12.5809 65.5578 12.4223 66.051 12.6866C66.2447 12.7922 66.8084 12.8275 67.3016 12.7746C67.7948 12.7218 68.7283 12.7394 69.3977 12.8099C70.067 12.8803 70.5778 12.8627 70.5778 12.7746C70.5778 12.6866 70.8949 12.6689 71.2824 12.7394C71.7404 12.8099 71.987 12.7922 71.987 12.6689C71.987 12.5633 72.1103 12.4752 72.2512 12.4752C72.3921 12.4752 72.5154 12.5633 72.5154 12.6513C72.5154 12.757 72.2335 14.5889 71.8813 16.7554C71.529 18.9043 71.071 21.7931 70.8596 23.167L70.4545 25.6682L71.3 29.5961C71.7756 31.7627 72.1983 33.6826 72.2335 33.8764C72.304 34.1758 72.2335 34.2286 71.7227 34.2463C71.0358 34.2463 71.2119 34.8275 69.9437 28.9092L69.2568 25.6858H54.1614C42.1838 25.6858 39.0485 25.7386 39.0485 25.9148C39.0485 26.0205 39.6826 27.8699 40.44 30.0012C41.6378 33.3479 41.7963 33.894 41.5321 33.982C41.3736 34.0525 41.2327 34.0173 41.1975 33.9468C41.1622 33.8587 41.0565 33.7883 40.9861 33.7883C40.898 33.7883 40.9156 34.0173 41.0037 34.3167C41.1094 34.5985 41.1622 34.9156 41.127 35.0037C41.1094 35.0917 40.3344 33.0661 39.4184 30.4768V30.4768Z" fill="#F2F4F5"/>
<path d="M71.9868 35.0213C71.9868 34.9332 72.1101 34.8452 72.251 34.8452C72.3919 34.8452 72.5152 34.9332 72.5152 35.0213C72.5152 35.127 72.3919 35.1974 72.251 35.1974C72.1101 35.1974 71.9868 35.127 71.9868 35.0213Z" fill="#F2F4F5"/>
<path d="M110.562 34.4224C110.562 34.0349 110.139 33.6121 109.769 33.6121C109.487 33.6121 109.47 33.1366 109.54 27.7995L109.593 21.9868H94.0399H78.469L78.5746 22.6562C78.6803 23.2374 79.9133 32.9076 79.9133 33.0661C79.9133 33.1013 79.7196 33.0661 79.4906 33.0133C79.1207 32.9252 79.0502 32.978 78.9974 33.3832C78.9622 33.665 78.5923 31.1462 78.1695 27.7995L77.4121 21.7226L78.1871 16.1742L78.9445 10.6257L81.1463 10.6785C84.5634 10.7666 85.5322 10.8195 85.6555 10.9251C85.7084 10.978 85.5851 12.3695 85.3913 14.0076C85.1799 15.6281 85.0214 17.1077 85.0214 17.2838C85.0214 17.5657 85.268 17.5833 88.5971 17.5481L92.1551 17.4952L92.3313 15.7338L92.5074 13.9724L95.2376 13.8667C98.9366 13.7082 101.667 12.9508 103.551 11.5416C104.045 11.1717 104.274 11.1189 105.19 11.1894C105.771 11.2246 107.145 11.2774 108.219 11.295C110.174 11.3303 110.21 11.3303 110.21 10.9428C110.21 10.7138 110.28 10.5376 110.368 10.5376C110.456 10.5376 110.58 10.3615 110.615 10.1501C110.65 9.92113 110.703 12.2462 110.72 15.2934C110.773 23.3255 110.72 34.5633 110.632 34.6514C110.597 34.6866 110.562 34.5985 110.562 34.4224V34.4224Z" fill="#F2F4F5"/>
<path d="M79.561 34.1582C79.561 34.0701 79.6843 33.9644 79.8252 33.894C79.9838 33.8411 80.0895 33.894 80.0895 34.0525C80.0895 34.1934 79.9662 34.3167 79.8252 34.3167C79.6843 34.3167 79.561 34.2463 79.561 34.1582Z" fill="#F2F4F5"/>
<path d="M149.842 33.982C149.842 33.894 149.947 33.7707 150.07 33.7354C150.176 33.6826 150.106 33.6298 149.894 33.6298C149.665 33.6121 149.472 33.7178 149.472 33.8411C149.454 33.9468 149.384 33.7707 149.331 33.436C149.225 32.8724 149.489 30.7234 149.701 30.5297C149.753 30.4768 149.894 31.1286 150.018 31.974C150.141 32.8371 150.264 33.665 150.299 33.8411C150.317 34.0173 150.247 34.1406 150.088 34.1406C149.947 34.1406 149.842 34.0701 149.842 33.982V33.982Z" fill="#F2F4F5"/>
<path d="M115.793 33.0661C115.723 32.5377 115.688 31.6746 115.688 31.1462C115.705 30.2655 115.723 30.3183 115.952 31.8331C116.075 32.7491 116.128 33.5945 116.04 33.7355C115.952 33.9116 115.864 33.6826 115.793 33.0661Z" fill="#F2F4F5"/>
<path d="M117.15 29.2262C117.22 26.6546 117.326 24.1886 117.379 23.7658C117.431 23.3431 117.361 20.9124 117.255 18.3583C117.132 15.7866 117.079 13.6553 117.15 13.5849C117.291 13.444 122.61 13.444 122.839 13.5849C122.945 13.6553 123.068 13.6377 123.138 13.5673C123.332 13.3911 126.626 13.3735 126.961 13.5496C127.119 13.6377 127.295 13.6553 127.348 13.5849C127.419 13.532 127.965 13.4616 128.599 13.444L129.726 13.4087L129.92 14.4832C130.026 15.0821 130.149 15.9804 130.219 16.4912C130.307 17.1605 130.413 17.4071 130.624 17.4248C132.492 17.5481 137.335 17.4776 137.335 17.3367C137.335 17.231 137.212 16.4384 137.071 15.5577C136.666 13.1445 136.56 13.3383 138.357 13.3735C139.203 13.3911 140.066 13.3559 140.295 13.303C140.506 13.2502 140.682 13.2678 140.682 13.3559C140.682 13.4263 141.105 13.4616 141.616 13.4263C142.109 13.3911 144.011 13.3383 145.808 13.3207L149.084 13.2678L149.93 17.3191C150.388 19.5561 150.757 21.6169 150.74 21.8987C150.722 22.5152 148.644 34.1582 148.626 33.8411C148.608 33.7178 148.415 33.6121 148.186 33.6121C147.957 33.6121 147.71 33.7178 147.657 33.8411C147.534 34.0877 147.481 34.44 148.697 27.3591C149.225 24.2767 149.665 21.705 149.665 21.6874C149.665 21.6521 142.69 21.6345 134.165 21.6345H118.664L118.647 22.48C118.647 22.938 118.612 23.4312 118.594 23.5721C118.541 23.8187 118.259 33.0309 118.277 33.6121C118.277 33.7883 118.101 33.8764 117.66 33.894L117.026 33.9116L117.15 29.2262Z" fill="#F2F4F5"/>
<path d="M75.8799 14.9764C75.1577 11.5769 75.1929 11.8411 75.281 11.9996C75.3338 12.0701 75.4747 12.1229 75.598 12.1229C75.7213 12.1229 75.8799 12.3343 75.9327 12.6161C76.1265 13.6201 76.602 17.6009 76.5316 17.6714C76.4963 17.7066 76.1969 16.4912 75.8799 14.9764V14.9764Z" fill="#F2F4F5"/>
<path d="M149.877 14.8531C149.507 13.5849 149.718 12.6513 150.352 12.6513C150.599 12.6513 150.581 12.9684 150.3 14.4127L150.071 15.5577L149.877 14.8531V14.8531Z" fill="#F2F4F5"/>
<path d="M115.705 13.532C115.687 12.3695 115.74 11.982 115.846 12.2638C115.952 12.4928 115.952 13.1974 115.864 13.9372L115.723 15.2054L115.705 13.532Z" fill="#F2F4F5"/>
<path d="M129.233 12.8451C129.233 12.757 129.356 12.6513 129.497 12.5809C129.656 12.528 129.761 12.5809 129.761 12.7394C129.761 12.8803 129.638 13.0036 129.497 13.0036C129.356 13.0036 129.233 12.9332 129.233 12.8451Z" fill="#F2F4F5"/>
<path d="M148.432 12.6689C148.432 12.5809 148.555 12.4752 148.696 12.4047C148.855 12.3519 148.961 12.4047 148.961 12.5633C148.961 12.7042 148.837 12.8275 148.696 12.8275C148.555 12.8275 148.432 12.757 148.432 12.6689Z" fill="#F2F4F5"/>
<path d="M116.956 12.0348C116.956 11.6473 116.991 11.5064 117.026 11.7354C117.061 11.9468 117.061 12.2638 117.026 12.44C116.973 12.5985 116.938 12.4224 116.956 12.0348Z" fill="#F2F4F5"/>
<path d="M65.0118 12.0877C64.8004 11.8411 64.7828 11.7706 64.959 11.9115C65.1175 12.0172 65.2936 12.0701 65.3465 11.9996C65.4169 11.9468 65.4698 12.0172 65.4698 12.1758C65.4698 12.5633 65.4169 12.5456 65.0118 12.0877V12.0877Z" fill="#F2F4F5"/>
<path d="M49.0007 11.9468C48.7365 11.6649 48.7365 11.5945 48.9479 11.5945C49.0888 11.5945 49.353 11.753 49.5291 11.9468C49.7934 12.2286 49.7934 12.299 49.582 12.299C49.4411 12.299 49.1769 12.1405 49.0007 11.9468Z" fill="#F2F4F5"/>
<path d="M160.234 11.7706C160.234 11.6826 160.357 11.5945 160.498 11.5945C160.639 11.5945 160.762 11.6826 160.762 11.7706C160.762 11.8763 160.639 11.9468 160.498 11.9468C160.357 11.9468 160.234 11.8763 160.234 11.7706Z" fill="#F2F4F5"/>
<path d="M129.057 11.436C129.057 11.3479 129.162 11.2422 129.286 11.1894C129.427 11.1365 129.532 11.207 129.532 11.3479C129.532 11.4888 129.427 11.5945 129.286 11.5945C129.162 11.5945 129.057 11.5241 129.057 11.436Z" fill="#F2F4F5"/>
<path d="M63.6203 11.0661C63.2857 10.9428 63.2857 10.9251 63.5851 10.8018C63.9198 10.6609 64.1311 10.7666 64.0431 11.0308C64.0078 11.1189 63.8141 11.1365 63.6203 11.0661V11.0661Z" fill="#F2F4F5"/>
<path d="M85.7258 10.0973C85.7258 9.95639 85.6554 9.83309 85.5497 9.83309C85.4616 9.83309 85.3735 9.76263 85.3735 9.65695C85.3735 9.56888 85.4968 9.4808 85.6377 9.4808C85.7963 9.4808 85.902 9.63933 85.902 9.92116C85.902 10.1678 85.8667 10.3615 85.8139 10.3615C85.761 10.3615 85.7258 10.2382 85.7258 10.0973Z" fill="#F2F4F5"/>
<path d="M57.8955 3.31585C57.8955 3.22778 58.0012 3.13971 58.1421 3.13971C58.283 3.13971 58.4592 3.22778 58.512 3.31585C58.5648 3.42154 58.4592 3.49199 58.2654 3.49199C58.054 3.49199 57.8955 3.42154 57.8955 3.31585Z" fill="#F2F4F5"/>
<path d="M59.3047 3.42151C59.3047 3.38629 59.4984 3.31583 59.745 3.2806C59.9916 3.22776 60.1854 3.26299 60.1854 3.33344C60.1854 3.42151 59.9916 3.49197 59.745 3.49197C59.4984 3.49197 59.3047 3.45674 59.3047 3.42151Z" fill="#F2F4F5"/>
<path d="M48.6835 39.0197L48.2432 37.7163L48.6483 37.2055C49.1943 36.5009 52.0302 32.6258 53.4393 30.6706L54.6019 29.0325H58.2128C61.1015 29.0325 61.7884 29.0853 61.718 29.2615C61.6651 29.3848 60.5554 30.9701 59.252 32.7843C57.9309 34.581 56.7332 36.2719 56.557 36.5185L56.2752 36.9589H57.5434C58.7764 36.9589 58.8116 36.9412 58.7236 36.5713C58.6707 36.3424 58.565 35.8668 58.5122 35.5145L58.3889 34.8452H61.6299H64.8885L65.0647 35.4617C65.2408 36.0253 65.2232 36.0782 64.9061 36.0782C64.7124 36.0782 63.7084 36.3071 62.6691 36.6066C61.6475 36.8884 59.3401 37.5225 57.5434 37.9981C54.2848 38.8964 49.9517 40.0766 49.4233 40.2527C49.1943 40.3232 49.0358 40.0413 48.6835 39.0197V39.0197Z" fill="#FBDD00"/>
<path d="M33.2886 36.5714L30.6817 33.9645L16.291 33.9997L1.90022 34.0525L4.27812 35.902C5.58157 36.906 6.6208 37.822 6.58558 37.91C6.55035 38.0157 6.28614 38.139 5.9867 38.2095C5.4935 38.2975 5.19406 38.1214 2.67524 36.131C0.138804 34.1054 -0.0725654 33.9116 0.0155053 33.4713C0.0683476 33.2071 0.226875 32.2383 0.367788 31.3223C0.508701 30.4064 1.30134 25.2983 2.1292 19.9612C2.95706 14.6418 3.69686 9.9564 3.7497 9.56889C3.96107 8.12453 3.52072 8.24783 8.29415 8.24783C10.6544 8.24783 12.9267 8.30067 13.367 8.35352L14.142 8.4592L13.9131 9.99163C13.7898 10.8195 13.6841 11.5593 13.6841 11.6474C13.6841 11.7178 14.4767 11.7707 15.4455 11.7707H17.2245L17.1188 12.3519C17.066 12.6514 16.8194 14.4304 16.5728 16.2623C16.3262 18.1117 15.9035 21.2647 15.604 23.2903C15.3222 25.3159 15.0932 27.1654 15.0932 27.3944V27.7995L18.6513 27.7643L22.2269 27.7114L22.861 22.8676C23.1957 20.2078 23.7594 15.8924 24.094 13.2855L24.6929 8.54727L30.2237 8.65296C33.2534 8.7058 35.7722 8.79387 35.825 8.84671C35.9307 8.93478 35.8074 9.85072 33.8523 23.6602L32.3727 34.0525L34.8563 36.5361L37.3222 39.0373L36.6001 39.1078C35.8779 39.1606 35.8779 39.1606 33.2886 36.5714Z" fill="#FBDD00"/>
<path d="M178.711 36.3424C178.605 36.2543 175.118 35.5145 172.916 35.1094C169.006 34.3872 162.436 33.119 161.432 32.8724C161.062 32.7843 160.762 32.6258 160.762 32.5025C160.78 32.3792 161.114 30.8291 161.52 29.0325L162.277 25.7739L165.289 25.721L168.301 25.6858L171.172 29.3848C172.757 31.4104 174.096 33.0838 174.149 33.0838C174.202 33.0838 174.73 31.4456 175.294 29.4376L176.351 25.7739L179.926 25.721C181.882 25.7034 183.484 25.7034 183.484 25.7563C183.484 25.7915 182.78 28.1694 181.899 31.0581C181.036 33.9468 180.314 36.3248 180.314 36.36C180.314 36.4657 178.799 36.4481 178.711 36.3424V36.3424Z" fill="#FBDD00"/>
<path d="M82.52 30.5473L80.6353 25.862L83.9996 25.8972L87.3638 25.95L88.544 29.5609C89.2309 31.657 89.777 33.0661 89.8474 32.9076C89.9003 32.7667 90.4639 31.1462 91.0628 29.2967L92.1901 25.95H94.6209H97.0692L97.6329 27.2711C97.9323 27.9933 98.6017 29.5786 99.1125 30.7939C99.6233 32.0093 100.099 33.0485 100.152 33.119C100.222 33.1894 100.698 31.5866 101.209 29.5609L102.16 25.862H105.242C107.761 25.862 108.289 25.8972 108.219 26.1086C108.166 26.2319 107.602 28.1166 106.951 30.2831C106.317 32.4497 105.753 34.3696 105.7 34.5457C105.63 34.7923 105.489 34.8276 105.048 34.7571C104.502 34.6514 92.3663 34.898 87.0468 35.127L84.4047 35.2327L82.52 30.5473V30.5473Z" fill="#FBDD00"/>
<path d="M134.077 34.5809C133.02 34.4576 131.699 34.3343 131.17 34.3343C129.603 34.2991 129.655 34.4753 130.008 30.6706C130.184 28.8563 130.36 27.0421 130.413 26.6546L130.501 25.95H134.024H137.547L137.423 27.2711C137.37 27.9933 137.141 29.9836 136.93 31.6746C136.631 34.0877 136.49 34.7571 136.278 34.7747C136.137 34.7923 135.151 34.7042 134.077 34.5809V34.5809Z" fill="#FBDD00"/>
<path d="M40.7568 44.9556C40.7391 44.938 34.5742 44.8852 27.0706 44.8147C19.567 44.7443 13.3492 44.621 13.2435 44.5505C8.43483 40.7635 4.89439 37.8219 5.08815 37.7691C6.21545 37.4168 6.10977 37.3463 10.0201 40.464L13.7719 43.4232L20.5534 43.5465C24.2876 43.5994 30.3116 43.705 33.9401 43.7579L40.5454 43.8636L38.0794 41.38C35.8953 39.1782 35.1379 38.1918 35.6663 38.1918C36.3356 38.1918 37.322 38.9845 39.5414 41.2919C40.9153 42.7363 42.0778 43.8636 42.1307 43.8107C42.1835 43.7579 42.3068 43.2471 42.4125 42.6658C42.5358 42.1022 42.6767 41.5561 42.7472 41.4857C42.9938 41.2038 43.4869 43.0533 43.346 43.7755C43.1523 44.9028 43.0642 44.9733 41.8665 44.9733C41.2852 44.9909 40.7744 44.9733 40.7568 44.9556V44.9556Z" fill="#FBDD00"/>
<path d="M61.207 42.9829L60.3615 42.9301L60.0445 41.838L59.7274 40.7459L54.4784 40.6578L49.2118 40.5698L49.0709 40.1646C48.8595 39.6186 48.3487 39.7947 55.729 37.822C56.9092 37.5049 57.8427 37.1879 57.7899 37.0998C57.737 37.0293 57.8779 36.9765 58.1069 36.9941C58.5825 37.0293 59.7627 36.7651 62.2286 36.0605C63.215 35.7787 64.2543 35.5145 64.5537 35.4793C65.0469 35.4264 65.0997 35.4793 65.2759 36.1838L65.4696 36.9589H66.7026C67.3896 36.9589 67.9708 37.0469 68.0413 37.1526C68.1646 37.3464 68.9925 40.2879 68.9925 40.5169C68.9925 40.605 68.4464 40.6578 67.7595 40.6578C66.3856 40.6578 66.3856 40.6402 66.7202 41.9965C66.8259 42.4369 66.8788 42.8244 66.8259 42.8948C66.7026 43.0005 62.5809 43.071 61.207 42.9829V42.9829Z" fill="#FBDD00"/>
<path d="M18.4577 41.7323C17.6298 40.6226 17.4537 40.4817 16.6258 40.2351C16.115 40.0942 14.4769 39.6362 12.9797 39.2311L10.2495 38.4737L11.1478 38.3504C11.641 38.2975 13.1206 38.1742 14.4241 38.1038L16.8196 37.9805L17.3832 36.7651C17.6827 36.0958 18.035 35.5497 18.1406 35.5497C18.2639 35.5497 19.814 36.0958 21.6106 36.7651L24.8692 37.9628L28.7443 38.1918C30.8757 38.2975 32.6371 38.4208 32.6723 38.456C32.7075 38.4737 32.1791 38.8083 31.5274 39.1782C30.8757 39.5305 30.1006 39.9709 29.8364 40.1294L29.3432 40.4288L31.0518 41.697C31.9854 42.384 32.6547 42.9476 32.5138 42.9476C32.3905 42.9476 30.6467 42.7011 28.6563 42.384L25.0454 41.838L22.5794 42.3312C21.2231 42.5954 19.9549 42.8596 19.7435 42.8948C19.4617 42.9653 19.1799 42.7187 18.4577 41.7323V41.7323Z" fill="#FBDD00"/>
<path d="M128.88 42.4545C128.88 41.9789 129.567 34.8628 129.691 34.1758L129.779 33.5945L131.135 33.7178C131.875 33.7707 133.407 33.9116 134.517 34.0349L136.543 34.2287L136.507 34.7571C136.454 35.4793 135.768 41.4857 135.644 42.2079L135.556 42.7715H132.227C129.092 42.7715 128.88 42.7539 128.88 42.4545V42.4545Z" fill="#FBDD00"/>
<path d="M87.1528 42.0317C87.0647 41.8028 86.3954 40.1294 85.6556 38.2799C84.9158 36.4481 84.3169 34.8628 84.3169 34.7571C84.3169 34.6514 84.8805 34.581 85.6908 34.581C86.4306 34.5633 88.9846 34.5105 91.3625 34.44C100.064 34.1934 105.419 34.1054 105.595 34.2111C105.736 34.2991 105.295 35.9725 103.781 40.9749L103.323 42.4192H100.557H97.7917L96.4883 39.1606C95.7661 37.3816 95.132 35.9372 95.0967 35.9901C95.0615 36.0253 94.5683 37.4697 94.0047 39.1959L93.0007 42.3312L90.1472 42.384C87.3289 42.4192 87.3113 42.4192 87.1528 42.0317V42.0317Z" fill="#FBDD00"/>
<path d="M159.459 38.1566C159.97 35.902 160.481 33.6122 160.604 33.0661L160.798 32.0797L161.872 32.3263C163.352 32.6434 168.988 33.7531 170.714 34.0701C174.184 34.7042 174.889 34.8452 176.879 35.2855C178.042 35.5321 179.31 35.7787 179.715 35.8492L180.437 35.9372L179.874 37.8219C179.557 38.8436 179.134 40.2703 178.923 40.9749L178.535 42.2431H175.77H173.004L170.115 38.6322C168.513 36.6418 167.192 35.0565 167.139 35.0918C167.103 35.127 166.663 36.7299 166.17 38.6674L165.254 42.155L161.89 42.2079L158.525 42.2431L159.459 38.1566V38.1566Z" fill="#FBDD00"/>
<path d="M38.8547 6.68016C37.745 4.93636 36.7938 3.56246 36.741 3.63292C36.6882 3.70337 36.4416 5.09489 36.2302 6.71539C36.0012 8.33589 35.7722 9.60411 35.7194 9.49842C35.6137 9.33989 30.3999 9.12853 26.2078 9.12853C24.5873 9.12853 24.5696 9.12853 24.6577 8.74101C24.7106 8.51203 24.8162 7.87792 24.8691 7.33188L24.9924 6.31026H19.7081H14.4239L14.3182 7.33188C14.2478 7.87792 14.1597 8.45919 14.1069 8.61772C14.0364 8.8467 13.4023 8.88193 8.9283 8.88193C4.47192 8.86431 3.83781 8.82908 3.90827 8.6001C3.9435 8.45919 4.19009 6.89153 4.45431 5.13012C4.71852 3.3687 4.98273 1.83627 5.03557 1.7482C5.10603 1.66013 11.6937 1.53683 20.994 1.46638L36.8467 1.34308L39.0485 4.88352C40.8627 7.78985 41.2326 8.52964 41.1974 8.98761C41.1798 9.30467 41.0917 9.62172 41.0036 9.70979C40.9156 9.79786 39.9468 8.42396 38.8547 6.68016V6.68016Z" fill="#FBDD00"/>
<path d="M88.4207 47.0517C92.3662 47.0165 98.813 47.0165 102.776 47.0517C106.722 47.0693 103.481 47.087 95.5896 47.087C87.6985 47.087 84.4575 47.0693 88.4207 47.0517Z" fill="#A0A0A0"/>
<path d="M124.354 47.0517C128.317 47.0165 134.728 47.0165 138.621 47.0517C142.514 47.0693 139.29 47.087 131.434 47.087C123.596 47.087 120.408 47.0693 124.354 47.0517Z" fill="#A0A0A0"/>
<path d="M159.582 47.0517C163.633 47.0165 170.221 47.0165 174.202 47.0517C178.2 47.0693 174.889 47.087 166.839 47.087C158.807 47.087 155.531 47.0693 159.582 47.0517Z" fill="#A0A0A0"/>
<path d="M115.67 31.8507C115.67 31.5161 115.723 31.4809 115.881 31.6394C116.04 31.7979 116.04 31.9036 115.881 32.0621C115.723 32.2206 115.67 32.1854 115.67 31.8507V31.8507Z" fill="#A0A0A0"/>
<path d="M76.8483 29.0325C76.9893 28.0461 77.0949 27.9052 77.0949 28.6978C77.0949 29.0325 77.0069 29.42 76.9188 29.5609C76.7955 29.7371 76.7779 29.5785 76.8483 29.0325Z" fill="#A0A0A0"/>
<path d="M115.776 13.0917C115.723 12.9332 115.67 12.5809 115.688 12.3343C115.705 11.9468 115.74 11.9996 115.864 12.5457C116.04 13.2502 115.969 13.6025 115.776 13.0917Z" fill="#A0A0A0"/>
<path d="M52.7521 0.198144C56.2749 0.162915 61.9819 0.162915 65.4342 0.198144C68.8866 0.215758 66.0155 0.233372 59.0403 0.233372C52.0651 0.233372 49.2292 0.215758 52.7521 0.198144Z" fill="#A0A0A0"/>
<path d="M89.3014 0.198144C92.7538 0.162915 98.4255 0.162915 101.895 0.198144C105.348 0.215758 102.512 0.233372 95.5896 0.233372C88.6673 0.233372 85.8314 0.215758 89.3014 0.198144Z" fill="#A0A0A0"/>
<path d="M125.058 0.198144C128.51 0.162915 134.182 0.162915 137.652 0.198144C141.104 0.215758 138.268 0.233372 131.346 0.233372C124.424 0.233372 121.588 0.215758 125.058 0.198144Z" fill="#A0A0A0"/>
</svg>
