<svg width="174" height="36" fill="none" xmlns="http://www.w3.org/2000/svg"><path fill-rule="evenodd" clip-rule="evenodd" d="M77.85 8.07c-.02.033-.417.082-.88.109-.796.046-.852.058-1 .227l-.159.178.043 1.864c.132 5.77.024 12.551-.209 13.013-.18.358-.396.61-.523.61-.05 0-.09.03-.09.066 0 .422-1.014-.176-1.125-.663a7.05 7.05 0 0 0-.137-.473c-.115-.356-.132-12.345-.017-12.926.15-.762.153-.73-.089-.96-.206-.198-.27-.218-.767-.247-.97-.055-2.235-.193-2.356-.256-.24-.125-.901-.074-1.041.081-.145.161-.165 7.751-.02 8.128.05.132.05 3.108 0 4.302-.029.68.131 2.825.224 3.005.06.114.108.3.108.414 0 .114.03.207.067.207.037 0 .068.041.068.091 0 .424 1.284 1.823 1.932 2.106l.494.214c.123.053.277.096.343.096s.158.039.204.085c.117.117 2.228.157 2.726.052.203-.044.476-.094.607-.113.433-.063 1.951-.898 1.962-1.08.002-.04.126-.207.275-.372.148-.165.27-.353.27-.419.001-.065.032-.118.07-.118.037 0 .067-.049.067-.108 0-.06.04-.205.09-.322.296-.696.337-.93.474-2.688.048-.615.106-1.164.129-1.22.023-.056.059-1.878.079-4.05.023-2.517.063-3.995.107-4.078.141-.263.092-4.573-.053-4.705-.139-.124-1.799-.17-1.873-.05zm67.835.21a2.78 2.78 0 0 1-.576.063c-.224.005-.483.053-.577.106-.113.065-.384.098-.822.1-.495.001-.673.026-.737.103a.317.317 0 0 1-.212.102c-.094 0-.127.05-.127.186-.021 14.256.002 17.664.118 17.794.11.123.174.13.865.084.41-.028 1.204-.074 1.763-.102 1.094-.057 1.61-.145 1.766-.3.153-.153.112-3.33-.167-12.816a181.667 181.667 0 0 1-.065-3.58c-.007-1.301-.027-1.633-.105-1.711-.106-.106-.825-.125-1.124-.03zM95.6 8.5c-.242.27-.286.782-.29 3.338-.004 2.725-.064 4.845-.14 4.947-.028.038-.066 1.413-.084 3.056-.022 1.912-.06 3.036-.106 3.122-.147.272-.121 3.662.028 3.827.155.172 3.732.178 3.903.008.049-.05.27-.085.528-.086.282-.001.492-.038.575-.102.073-.054.247-.099.386-.099.14 0 .272-.028.293-.062.021-.034.166-.084.323-.11.157-.026.332-.07.39-.098l.375-.177c.15-.07.287-.143.305-.163.068-.067.487-.271.561-.271.041 0 .22-.122.397-.271.176-.15.342-.271.367-.271.072 0 .845-.81.845-.885 0-.037.077-.188.17-.335.093-.148.169-.329.169-.402 0-.074.041-.158.092-.188.093-.055.136-.193.249-.794.034-.183.093-.365.132-.403.038-.039.07-.215.07-.393 0-.178.042-.454.094-.614.356-1.098.324-6.533-.048-8.017-.176-.708-.398-1.258-.631-1.57-.089-.12-.162-.257-.163-.306-.002-.152-1.204-1.343-1.356-1.343-.041 0-.172-.072-.291-.16-.401-.296-1.415-.72-1.843-.772-.149-.017-.302-.055-.339-.084-.038-.029-.205-.075-.373-.102-.168-.027-.336-.072-.373-.1-.037-.029-.438-.068-.89-.088-.452-.02-.885-.07-.962-.11-.297-.159-2.208-.096-2.363.078zm25.313-.076c-.068.04-.495.088-.949.108-.453.02-.855.059-.892.087-.038.027-.263.07-.501.097-.4.043-.716.172-.837.341-.079.11-.064 7.072.016 7.221.043.081.084 1.985.11 5.164l.042 5.035.166.178c.163.176.186.18 1.364.228.66.027 1.237.08 1.284.117.089.073.547-.101.643-.245.027-.041.05-1.346.051-2.9l.001-2.825.197-.14c.55-.392 1.498-.097 1.498.466 0 .137.045.309.099.38.055.073.101.274.102.447.001.172.048.401.104.508.056.107.101.291.102.41 0 .119.03.235.068.259.037.022.069.154.07.291.001.138.046.327.099.42.053.093.098.282.099.42.002.137.031.267.064.288.034.02.083.227.11.458.027.232.072.468.099.526.125.258.226.6.254.86.046.418.344.688.646.585.245-.084.943-.149 1.813-.168.864-.02 1.213-.293.985-.771a1.157 1.157 0 0 1-.103-.396.8.8 0 0 0-.059-.295 3.075 3.075 0 0 1-.26-.83 2 2 0 0 0-.119-.44 3.945 3.945 0 0 1-.171-.678 4.043 4.043 0 0 0-.178-.697 1.293 1.293 0 0 1-.095-.415.998.998 0 0 0-.101-.388.964.964 0 0 1-.102-.358c0-.193-.109-.569-.244-.841a.92.92 0 0 1-.095-.312c0-.065-.049-.218-.11-.339-.109-.218.02-.75.181-.75.071 0 .471-.358.471-.422 0-.029.122-.175.272-.323.149-.15.271-.313.271-.365 0-.051.045-.131.102-.178.055-.046.101-.126.101-.178 0-.052.031-.148.068-.212.569-.989.719-3.536.327-5.574-.047-.242-.124-.48-.172-.53a.411.411 0 0 1-.087-.25c0-.088-.031-.18-.068-.202-.037-.024-.068-.113-.068-.2a.356.356 0 0 0-.101-.24c-.057-.047-.102-.123-.102-.168 0-.046-.122-.207-.271-.36-.15-.151-.272-.318-.272-.37 0-.052-.114-.16-.254-.238a1.323 1.323 0 0 1-.354-.284c-.055-.077-.152-.14-.216-.14s-.135-.028-.156-.064c-.022-.035-.184-.13-.36-.21a18.543 18.543 0 0 1-.439-.208.678.678 0 0 0-.257-.06.886.886 0 0 1-.323-.092c-.101-.052-.431-.11-.734-.13-.303-.019-.614-.069-.691-.11-.182-.097-1.97-.096-2.138.002zm50.979.007c-.075.043-.502.092-.95.107-.447.015-.844.052-.881.08-.037.029-.366.074-.729.1-.364.027-.661.071-.661.099 0 .028-.076.085-.17.128-.178.081-.253.562-.101.656.04.025.068.451.068 1.05 0 .6-.028 1.026-.068 1.051-.038.023-.068.235-.068.47 0 .25-.043.511-.102.624a.936.936 0 0 0-.101.342c0 .082-.031.168-.068.19-.038.024-.068.1-.068.17 0 .069-.046.172-.102.228-.056.056-.102.146-.102.2 0 .054-.046.136-.101.182a.317.317 0 0 0-.102.214c0 .116-.169.443-.274.532a6.697 6.697 0 0 0-.338.44c-.403.551-.527.647-.812.627l-.237-.017.011-1.74c.008-1.091.039-1.79.085-1.876.135-.251.096-3.211-.045-3.496l-.119-.238-.691-.002c-.39 0-.709.028-.733.067-.023.037-.2.068-.394.068-.193.001-.642.046-.996.1-.354.056-.799.1-.988.101-.648.003-.615-.214-.564 3.661.071 5.438.138 8.296.197 8.406.031.057.025.159-.013.226-.038.068-.049.249-.024.405.069.433.155 2.564.166 4.112.012 1.697.03 1.74.667 1.665.214-.026.71-.07 1.102-.1.391-.03.818-.089.948-.132.131-.043.421-.079.644-.08.687-.004.704-.037.722-1.362.01-.79.04-1.148.104-1.243.069-.102.09-.507.09-1.675 0-2.148.143-2.201 1.335-.504.082.116.151.261.153.323.002.06.05.129.106.15.055.021.101.073.101.114 0 .04.077.174.17.296.093.122.169.269.169.326 0 .057.046.142.102.189a.314.314 0 0 1 .102.21c0 .07.025.128.055.128s.108.13.173.288c.065.159.163.389.217.51.054.123.097.264.097.314 0 .05.046.13.102.176.058.048.102.196.102.343 0 .143.03.278.067.3.038.024.069.14.069.259.004.858.457 1.226 1.186.964.149-.054.506-.1.793-.101.286-.002.537-.029.557-.06.019-.032.417-.08.884-.106 1.136-.063 1.537-.301 1.301-.774-.05-.1-.13-.38-.179-.622a3.352 3.352 0 0 0-.179-.623.954.954 0 0 1-.092-.36c0-.098-.076-.278-.17-.4-.093-.122-.17-.296-.171-.385a.582.582 0 0 0-.102-.295.542.542 0 0 1-.099-.272c0-.078-.077-.253-.17-.39-.093-.137-.17-.343-.17-.457 0-.114-.03-.207-.068-.207-.038 0-.133-.144-.212-.321a6.936 6.936 0 0 0-.203-.424 7.571 7.571 0 0 1-.178-.339 6.453 6.453 0 0 0-.372-.604c-.14-.202-.255-.392-.255-.422 0-.084-.426-.668-.487-.668-.03 0-.055-.034-.055-.076 0-.095-.281-.411-.705-.795-.25-.226-.119-.756.186-.756.09 0 .263-.182.38-.401.042-.077.114-.14.16-.14.098 0 .227-.142.434-.475.081-.131.21-.283.286-.337.077-.055.14-.149.14-.208 0-.06.092-.195.204-.303.112-.107.203-.23.203-.273 0-.092.206-.524.273-.574.025-.019.063-.11.083-.203.044-.2.181-.596.263-.761a.646.646 0 0 0 .06-.238c0-.066.046-.207.101-.314.056-.107.102-.327.102-.489 0-.162.047-.433.104-.602.128-.377.1-2.646-.042-3.367-.116-.591-.635-.863-1.113-.584zm-118.12.182c-.035.034-.888.08-1.895.103-1.007.023-2.09.052-2.407.065-.317.012-1.63.045-2.916.073-1.287.027-2.39.077-2.453.11-.063.034-.25.061-.415.061-.593 0-.864.576-.561 1.192.066.136.106.542.129 1.304.044 1.534-.09 1.429 1.762 1.386 1.675-.038 1.913.011 1.972.404.039.253.102 1.8.18 4.39.03.987.084 2.04.122 2.337.038.299.07 1.384.073 2.413.004 1.49.025 1.91.103 2.067.073.146.101.5.11 1.367.007.644.039 1.187.071 1.207.033.02.06.093.06.161 0 .185.21.209 1.222.138.503-.035 1.295-.082 1.761-.105.584-.028.917-.076 1.068-.152l.22-.112v-2.448c0-1.984-.018-2.485-.096-2.644-.08-.161-.1-.817-.118-3.575-.012-1.858-.044-3.392-.073-3.41-.103-.063-.058-1.711.052-1.925l.104-.2h1.557c2.013 0 2.007.006 1.705-1.626-.038-.205-.072-.794-.074-1.31-.006-1.008-.02-1.052-.403-1.25-.14-.073-.205-.074-.33-.007-.12.064-.175.065-.236.004-.096-.096-.206-.103-.294-.018zm85.919-.005c-.02.032-.589.075-1.265.096-1.582.048-1.556.03-1.556 1.037 0 .638-.073 1.053-.277 1.575a1.055 1.055 0 0 0-.061.326.8.8 0 0 1-.079.317c-.043.08-.101.239-.13.351-.077.31-.203.644-.379 1.008-.087.18-.159.37-.159.422 0 .136-.335.823-.447.916a.296.296 0 0 0-.095.198.305.305 0 0 1-.102.203.313.313 0 0 0-.101.211c0 .07-.031.128-.068.128-.037 0-.068.059-.068.13 0 .17-.468.557-.644.532-.16-.022-.225-.491-.11-.79.08-.208.136-6.07.059-6.147-.115-.115-4.418-.03-4.509.09-.11.145-.124 6.324-.014 6.529.044.083.085 1.399.11 3.57.023 1.892.065 3.47.094 3.507.029.037.07 1.102.09 2.367.025 1.526.062 2.322.111 2.372.092.09 1.29.063 1.384-.03.037-.037.251-.067.476-.067.226 0 .624-.047.885-.102.261-.055.554-.1.65-.1.402 0 .401.006.401-2.905v-2.657l.173-.065c.214-.082.547.07.644.292.036.082.17.287.297.455.129.168.235.347.238.399.002.051.081.164.174.25.093.087.169.2.169.254 0 .053.046.135.102.181a.303.303 0 0 1 .101.204c0 .065.046.157.102.203a.314.314 0 0 1 .102.211c0 .07.03.127.068.127.037 0 .068.058.068.128s.045.165.101.211c.056.047.102.188.102.314 0 .125.029.229.063.229.035 0 .083.068.108.152.024.084.107.29.184.458.093.2.152.496.173.86.049.881-.023.852 2.027.84 1.71-.011 2.017-.052 2.074-.275.044-.174-.15-1.499-.288-1.967a1.942 1.942 0 0 1-.069-.45c0-.116-.046-.25-.102-.296-.061-.051-.102-.2-.102-.373 0-.174-.04-.322-.101-.372a.354.354 0 0 1-.102-.242c0-.087-.027-.174-.06-.194-.033-.02-.076-.122-.095-.224-.051-.27-.216-.687-.308-.78a.32.32 0 0 1-.08-.197c0-.065-.076-.262-.169-.437-.093-.176-.17-.358-.17-.406 0-.048-.09-.186-.199-.306a1.746 1.746 0 0 1-.284-.428c-.115-.285-.353-.594-.856-1.11-.233-.239-.423-.463-.423-.499 0-.124.193-.431.333-.53.077-.055.141-.127.141-.16 0-.068.413-.61.491-.644.028-.012.052-.064.052-.114a.32.32 0 0 1 .084-.18c.047-.05.146-.204.219-.344.074-.14.158-.254.186-.254.029 0 .053-.057.053-.128 0-.07.046-.165.102-.211.055-.046.101-.129.101-.182 0-.054.077-.198.17-.32.093-.123.169-.284.169-.36 0-.076.046-.176.102-.223.056-.046.102-.168.102-.27 0-.103.046-.225.101-.272.057-.046.102-.128.102-.181 0-.138.211-.788.281-.866.032-.035.058-.214.058-.396 0-.183.043-.413.096-.512.234-.441.343-3.659.134-3.977-.112-.172-.844-.258-.935-.11zm-82.16.132c-.31.016-.411.054-.553.203l-.172.184.062 2.1c.035 1.156.096 2.21.136 2.343.044.143.096 1.45.13 3.186.03 1.619.077 3.06.103 3.204.03.167.016.318-.04.421-.07.131-.069.181.003.268.07.083.101.855.144 3.439.03 1.832.072 3.413.095 3.514.092.422.117.426 2.114.377l1.81-.046.19-.181c.207-.2.272-.725.108-.888-.08-.082-.13-.957-.23-4.083-.055-1.712-.047-1.74.509-1.658.171.026.35.078.396.116.058.048.111.048.17 0 .365-.304.52.347.564 2.391.024 1.063.07 1.824.114 1.917.056.114.054.174-.005.233-.098.098-.107.57-.013.63.038.022.068.201.068.397 0 .592.04.615 1.13.641.516.012.968.046 1.006.075.108.084 2.028.135 2.107.056.024-.024.053-16.966.03-17.886-.004-.136-.192-.16-1.967-.252a35.103 35.103 0 0 1-1.534-.107c-.742-.088-.704-.302-.704 3.916 0 3.775-.008 3.877-.32 3.946a2.594 2.594 0 0 0-.402.138c-.117.052-.38.095-.583.095-.596 0-.593.009-.593-1.721 0-.956-.027-1.523-.076-1.615-.05-.092-.088-.988-.112-2.607L61.18 9.02l-.196-.164c-.195-.165-1.62-.213-3.453-.116zm34.51-.02c-.018.018-.29.045-.605.061-2.086.104-2.313.128-2.431.254-.134.144-.122 3.016.013 3.275.038.073.085.79.102 1.592.018.803.057 1.49.086 1.528.1.125.16 1.96.07 2.126-.14.26-.491.176-.58-.138-.037-.137-.092-.272-.12-.3-.028-.027-.05-.164-.05-.302 0-.14-.045-.289-.102-.336-.056-.046-.102-.174-.102-.284a.491.491 0 0 0-.102-.301c-.056-.056-.101-.205-.101-.33 0-.126-.03-.248-.068-.271-.038-.023-.068-.113-.068-.199a.352.352 0 0 0-.102-.241.304.304 0 0 1-.102-.202c0-.107-.115-.4-.275-.695a.785.785 0 0 1-.063-.31.622.622 0 0 0-.1-.322.533.533 0 0 1-.102-.255.384.384 0 0 0-.104-.225.424.424 0 0 1-.101-.263c0-.088-.027-.177-.06-.197-.033-.02-.076-.122-.096-.225-.05-.27-.215-.686-.308-.779a.327.327 0 0 1-.078-.202.64.64 0 0 0-.06-.24 6.294 6.294 0 0 1-.282-.796c-.126-.435-.237-.711-.285-.711-.028 0-.052-.056-.052-.124 0-.398-.529-.5-1.525-.293a6.032 6.032 0 0 1-.929.074c-.324.002-.608.034-.63.072-.024.037-.176.067-.34.067-.163 0-.378.031-.479.07l-.182.07.042 2.522c.093 5.509.121 6.527.19 6.706.043.11.095 1.46.13 3.355.061 3.181.132 4.992.2 5.06.08.08.896.195 1.76.247.504.03 1.162.077 1.463.103.542.048.55.047.695-.139.184-.233.216-1.498.046-1.796-.073-.127-.097-.444-.1-1.275 0-.608-.032-1.162-.069-1.231-.08-.149-.25-3.096-.183-3.163.225-.225.725.253.725.693 0 .129.025.287.056.352.031.064.107.219.17.343.062.124.113.324.113.445 0 .12.045.278.1.35.054.072.1.198.101.28.001.082.033.168.07.19.038.024.068.128.068.233 0 .105.046.23.102.276a.306.306 0 0 1 .102.203c0 .066.045.157.101.203.056.047.102.186.102.31 0 .123.03.243.067.267.038.023.068.117.068.21 0 .094.077.307.17.474.093.167.17.372.17.457 0 .085.044.213.099.286.055.072.1.229.102.348 0 .118.093.392.205.608.112.215.204.455.204.531 0 .078.084.24.186.362.217.259.089.247 2.356.223l1.49-.015.188-.18.187-.178v-1.136c0-.624-.025-1.151-.057-1.17-.071-.045-.148-5.986-.15-11.508v-4.18l-.207-.174c-.19-.16-.645-.245-.75-.14zm60.933.037c-.665.13-1.661.495-1.661.607 0 .02-.114.096-.254.17-.269.139-.864.72-.972.948a4.025 4.025 0 0 1-.195.339c-.228.353-.33.568-.378.796a.994.994 0 0 1-.1.288c-.029.038-.074.205-.102.373-.026.168-.071.336-.098.373-.108.149-.205 1.08-.234 2.258-.02.762-.061 1.278-.107 1.333-.138.166-.118 6.524.022 6.792.061.12.112.372.112.56 0 .189.028.396.061.46.216.427.482 1.019.482 1.077 0 .037.092.17.203.296.112.125.204.248.204.273 0 .101.762.811.871.811.039 0 .096.039.126.086.074.119.748.456.91.456.072 0 .149.046.17.102.025.065.13.101.289.101.138 0 .289.039.336.085.135.135 2.904.108 3.434-.033.763-.203 1.583-.55 1.682-.71.03-.047.094-.087.144-.087.142 0 .92-.749.92-.886 0-.068.038-.148.085-.178.342-.219.551-1.39.506-2.85-.033-1.132-.098-1.28-.522-1.206-.131.023-.307.04-.391.039-.389-.01-.587 0-1.475.071-1.237.1-1.186.05-1.189 1.14-.001.643-.026.886-.101.986a.5.5 0 0 0-.099.247c0 .317-.665.74-1.163.74-.742 0-1.414-.582-1.414-1.224 0-.102-.046-.203-.102-.224-.076-.03-.102-.15-.102-.478 0-.241-.03-.458-.067-.48-.041-.026-.068-.486-.068-1.153s.027-1.127.068-1.152c.042-.026.069-.688.071-1.75.002-.938.036-1.92.075-2.181.04-.261.084-.902.099-1.423.015-.522.056-1.01.09-1.085.034-.074.075-.297.091-.494.033-.412.27-.762.66-.976.587-.323 1.86-.025 1.955.456a.505.505 0 0 0 .119.218c.065.065.094.263.094.636 0 .784-.131.736 2.019.736 2.162 0 2.051.041 2.047-.75-.001-.308-.04-.57-.099-.673a.952.952 0 0 1-.099-.39.935.935 0 0 0-.066-.34c-.14-.258-.276-.583-.276-.657 0-.043-.092-.166-.203-.273-.112-.108-.204-.235-.204-.283 0-.1-.716-.836-.813-.836-.077 0-.702-.418-.735-.491-.012-.028-.069-.051-.125-.051-.057 0-.199-.04-.317-.09-.427-.181-.695-.265-1.027-.32l-.746-.128c-.463-.08-2.033-.082-2.441-.001zm-38.359.205c-.072.042-1.483.085-3.66.11-3.867.047-3.633.02-3.846.442-.072.142-.075.206-.014.28.101.122.133 1.688.182 8.855.05 7.447.078 8.54.215 8.692.114.126 8.414.19 8.608.066.117-.074.238-2.74.134-2.96-.116-.247-.845-.25-3.26-.012-1.366.134-1.479.1-1.541-.465-.127-1.157-.148-3.388-.033-3.483.136-.113 1.461-.272 2.301-.276.806-.004.843-.04.881-.885.016-.353.067-.989.113-1.412.119-1.09.134-1.078-1.244-.971-2.482.194-2.279.383-2.279-2.123 0-1.974.02-2.111.322-2.254.229-.107 3.886-.122 3.992-.016.082.082.417-.068.599-.268.125-.139.123-.266-.022-.986a4.768 4.768 0 0 1-.072-.75c-.003-.225-.032-.438-.065-.474-.033-.035-.073-.254-.089-.485-.039-.583-.154-.698-.692-.696-.227.002-.466.033-.53.07zm8.177 3.012a.902.902 0 0 0 .324.101c.729 0 1.574 1.443 1.567 2.677-.006 1.276-.934 2.266-2.323 2.478-.205.031-.469.076-.587.1-.359.075-.366.024-.346-2.72l.018-2.485.236-.127c.287-.153.839-.166 1.111-.024zm-22.599.405c.642.438 1.214 1.299 1.217 1.828 0 .15.044.396.098.545.118.327.138 3.038.028 3.795-.038.261-.095.764-.126 1.119-.058.655-.201 1.374-.291 1.463-.027.028-.05.118-.05.201 0 .083-.046.169-.101.19-.061.023-.102.125-.102.252 0 .135-.069.295-.186.433l-.294.349c-.151.178-.459.433-.526.433-.03 0-.127.076-.215.17-.368.391-1.127.095-.895-.35.035-.07.085-1.132.11-2.362.068-3.345.203-6.997.26-7.055.028-.027.05-.287.05-.576 0-.84.266-.952 1.023-.435zm13.912 11.403c.214.014.565.014.78 0 .214-.013.039-.024-.39-.024s-.604.01-.39.024zM27.736 20.354l-6.62.172-.238 7.19-.357 4.257-5.768-.057v-4.084l-.477-7.133-6.917.287-.238-6.903 10.188-.057 10.547-.288.178.921-.298 5.695zm5.053 4.278 1.142-7.707-4.78-9.671-3.249 1.074-4.239-4.388L14.175 0l-1.64 5.844-1.156-3.068L5.627 8.2 2.409 13.63l-.142 5.625L0 18.212l1.545 9.011 3.504 5.804 8.268 2.735L20.09 36l11.677-4.12 3.36-8.021-2.337.773z" fill="#fff"/></svg>