<svg width="184" height="38" viewBox="0 0 184 38" fill="none" xmlns="http://www.w3.org/2000/svg">
<g clip-path="url(#clip0_2270_22)">
<path fill-rule="evenodd" clip-rule="evenodd" d="M87.2128 0.250392C87.0325 0.511023 87.0334 5.29004 87.2137 5.47281C87.372 5.6332 94.0512 5.66071 94.208 5.50172C94.3396 5.36837 94.3396 0.304476 94.208 0.17113C94.139 0.101193 93.2599 0.0778809 90.724 0.0778809H87.3319L87.2128 0.250392ZM124.05 0.228012C123.927 0.459736 123.94 30.0887 124.062 30.2127C124.243 30.396 131.306 30.3414 131.404 30.1559C131.511 29.954 131.515 0.560911 131.409 0.276968L131.334 0.0778809H127.731C124.248 0.0778809 124.126 0.0825433 124.05 0.228012ZM40.7648 3.45863C38.7904 3.63907 36.1606 4.50628 34.696 5.45929C34.6141 5.51244 34.3556 5.67609 34.121 5.82296C33.8868 5.96983 33.6495 6.13581 33.5938 6.19223C33.5382 6.24818 33.4429 6.29434 33.3827 6.29434C33.3224 6.29434 33.2732 6.32324 33.2732 6.35868C33.2732 6.39458 33.1127 6.54051 32.9158 6.68365C32.16 7.23382 30.13 9.37762 30.13 9.62566C30.13 9.66949 30.084 9.73383 30.0274 9.76787C29.9709 9.8019 29.8071 10.0243 29.6631 10.2621C29.5191 10.4994 29.36 10.7619 29.3094 10.8449C27.284 14.1506 26.583 19.0359 27.6143 22.6516C27.6994 22.951 27.7946 23.3179 27.8259 23.4676C27.8567 23.6172 27.9602 23.9319 28.0554 24.1669C28.4266 25.0822 28.6861 25.6874 28.756 25.7988C28.796 25.8631 28.8968 26.0552 28.9805 26.2263C29.4607 27.2087 30.5771 28.7403 31.4732 29.6453C32.3311 30.5121 33.2185 31.2571 33.8795 31.666C33.9485 31.7085 34.1132 31.8222 34.2452 31.9183C34.3772 32.0148 34.5207 32.0931 34.564 32.0931C34.6072 32.0931 34.69 32.1416 34.7484 32.2008C34.8873 32.3416 36.7697 33.2587 36.9201 33.2587C36.984 33.2587 37.1643 33.3245 37.3207 33.4051C39.7744 34.6649 45.7608 34.4477 48.507 32.9995C48.6418 32.9286 48.7895 32.8703 48.8345 32.8703C48.8796 32.8703 49.053 32.7827 49.22 32.6759C49.387 32.5692 49.5572 32.482 49.5986 32.482C49.6395 32.482 49.7913 32.4032 49.9362 32.3071C50.0807 32.2106 50.2978 32.0721 50.4188 31.9985C50.7679 31.7859 50.9128 31.6856 51.3535 31.355C51.5812 31.1839 51.8563 30.9848 51.9644 30.9126C52.0725 30.8403 52.1907 30.7265 52.2275 30.6599C52.2643 30.5937 52.3232 30.5391 52.3586 30.5391C52.6369 30.5391 55.2768 27.4544 55.2768 27.129C55.2768 27.0917 55.3224 27.0227 55.3785 26.9756C55.6333 26.7611 56.683 24.4187 56.9853 23.3902C58.2843 18.9683 57.6104 14.0401 55.2069 10.3824C55.0979 10.2159 54.9732 10.0234 54.9305 9.95483C54.6936 9.57437 54.2561 9.01395 54.1963 9.01395C54.1581 9.01395 54.1268 8.97152 54.1268 8.91977C54.1268 8.86801 54.0381 8.737 53.93 8.62836C53.8219 8.52019 53.5265 8.21294 53.2735 7.94578C53.021 7.67862 52.7988 7.45995 52.7804 7.45995C52.762 7.45995 52.6001 7.31541 52.4212 7.13917C52.101 6.82446 50.8769 5.90595 50.7776 5.90595C50.75 5.90595 50.6607 5.84487 50.5798 5.77074C50.4988 5.69661 50.272 5.54368 50.0756 5.43131C47.1546 3.76029 44.2322 3.14112 40.7648 3.45863ZM12.19 7.07437C11.747 7.1084 11.178 7.19559 10.925 7.26832C10.672 7.34059 10.327 7.42825 10.1582 7.46321C9.98983 7.49772 9.68485 7.59843 9.48107 7.68748C9.27729 7.77607 9.06845 7.84833 9.01647 7.84833C8.96495 7.84833 8.58177 8.02318 8.16501 8.23718C7.74825 8.45072 7.39681 8.62556 7.38393 8.62556C7.37059 8.62556 7.36001 8.40083 7.36001 8.12622C7.36001 7.32567 7.63141 7.38209 3.78443 7.38209C1.63255 7.38209 0.397455 7.41099 0.301775 7.46275C0.117775 7.56252 0.0621146 37.7198 0.245195 37.9058C0.425975 38.089 7.18291 38.0345 7.28043 37.8489C7.33241 37.7505 7.36001 36.2809 7.36001 33.6135C7.36001 31.3672 7.38807 29.5288 7.42211 29.5288C7.45615 29.5288 7.55091 29.58 7.63279 29.643C7.71467 29.7059 7.82553 29.7582 7.87889 29.7596C7.93271 29.761 8.11303 29.8495 8.28001 29.9563C8.44699 30.0631 8.63007 30.1507 8.68711 30.1507C8.74415 30.1507 8.96035 30.2379 9.16781 30.3447C9.37527 30.451 9.60021 30.5386 9.66737 30.5386C9.73453 30.5391 9.99305 30.6105 10.2424 30.6972C11.7585 31.2273 15.0756 31.2296 16.7132 30.7018C16.9874 30.6132 17.2569 30.5405 17.3126 30.54C17.3678 30.5396 17.6019 30.4515 17.8324 30.3447C18.0628 30.2379 18.2763 30.1503 18.3066 30.1503C18.3605 30.1498 19.2069 29.7209 19.6627 29.4635C21.5349 28.4046 23.8119 25.8892 24.4573 24.1669C24.5134 24.0173 24.5912 23.8522 24.6303 23.8C24.6698 23.7478 24.7305 23.5907 24.7655 23.4503C24.8005 23.3104 24.8966 23.0032 24.9789 22.7682C25.7485 20.5796 25.7218 17.0954 24.921 15.2024C24.8345 14.9973 24.7632 14.7814 24.7632 14.7231C24.7632 14.5049 23.7351 12.5798 23.3331 12.0455C22.6352 11.1176 21.9383 10.3712 21.2368 9.80004C21.0469 9.64571 20.8803 9.49278 20.8661 9.46108C20.8523 9.42891 20.7975 9.4028 20.7451 9.4028C20.6931 9.4028 20.5689 9.31514 20.47 9.20837C20.3711 9.1016 20.2483 9.01395 20.1977 9.01395C20.1471 9.01395 20.0661 8.96639 20.0183 8.90811C19.9148 8.78129 18.216 7.93086 17.6718 7.73364C16.0398 7.1415 14.2044 6.9205 12.19 7.07437ZM71.9518 7.0669C70.8488 7.13451 69.2848 7.5518 68.2705 8.04882C68.0589 8.15233 67.8514 8.23718 67.8091 8.23718C67.7667 8.23718 67.603 8.32623 67.4448 8.43487C67.0772 8.68851 67.0068 8.63629 67.0068 8.11083C67.0068 7.31588 67.3293 7.38209 63.4579 7.38349C61.456 7.38395 60.0213 7.41472 59.9532 7.45809C59.8064 7.55227 59.731 37.1985 59.8764 37.7076L59.9596 37.999H63.3788C66.5455 37.999 66.8058 37.9888 66.9001 37.8629C66.9815 37.7543 67.0022 36.9206 67.0041 33.6714C67.0068 29.6094 67.0206 29.3926 67.2686 29.601C67.5418 29.8309 68.765 30.3433 69.8818 30.6948C71.6239 31.2441 74.6433 31.2445 76.4368 30.6958C78.9227 29.9358 80.9899 28.58 82.4812 26.7313C82.5677 26.6245 82.7374 26.4147 82.8584 26.265C83.053 26.0249 83.1537 25.8711 83.5452 25.2174C83.657 25.0309 84.2628 23.7851 84.445 23.3673C84.6842 22.8195 84.9744 21.6385 85.0904 20.7438C85.2808 19.2774 85.1359 16.8986 84.796 15.8985C84.7104 15.6458 84.64 15.3838 84.6395 15.3157C84.6395 15.2477 84.5531 15.0197 84.4482 14.8094C84.3428 14.5991 84.2568 14.38 84.2568 14.3222C84.2568 14.2648 84.1704 14.0788 84.065 13.9095C83.9597 13.7403 83.8732 13.5654 83.8732 13.5211C83.8732 13.3766 82.8704 11.8268 82.5567 11.4864C82.4375 11.3568 82.34 11.2323 82.34 11.209C82.34 11.1657 81.1702 10.0033 80.9067 9.78465C80.5663 9.50257 79.8891 9.01395 79.8385 9.01395C79.8082 9.01395 79.7295 8.96453 79.6628 8.90391C79.5115 8.76684 78.9613 8.44932 78.5068 8.23811C78.3169 8.14953 78.0583 8.02924 77.9318 7.97002C76.9686 7.52056 75.4745 7.14943 74.29 7.06597C73.3199 6.99743 73.0802 6.99743 71.9518 7.0669ZM108.522 7.07576C107.288 7.17041 105.908 7.57465 104.538 8.24278C103.644 8.67872 103.653 8.68058 103.653 8.05348C103.653 7.78026 103.613 7.52802 103.561 7.47534C103.429 7.34152 96.7477 7.34152 96.6152 7.47534C96.4928 7.59936 96.4804 37.6172 96.6028 37.8489C96.727 38.0839 103.45 38.0839 103.574 37.8489C103.626 37.7505 103.653 36.2945 103.653 33.6569C103.653 31.4343 103.683 29.5973 103.719 29.5749C103.754 29.5525 104.057 29.6691 104.39 29.8346C105.268 30.2706 105.691 30.4524 106.013 30.5331C106.17 30.5722 106.54 30.6734 106.835 30.7573C108.491 31.2282 111.159 31.2282 112.815 30.7573C113.11 30.6734 113.482 30.5718 113.643 30.5317C114.031 30.4347 115.495 29.761 116.035 29.4309C116.598 29.0872 117.146 28.704 117.146 28.6546C117.146 28.6228 117.189 28.5963 117.24 28.5963C117.351 28.5963 117.387 28.5622 118.546 27.3901C119.041 26.8884 119.447 26.4301 119.447 26.3718C119.447 26.3131 119.476 26.265 119.513 26.265C119.569 26.265 119.727 26.0291 120.27 25.1386C120.562 24.6574 121.363 22.8684 121.363 22.6955C121.363 22.6446 121.446 22.2996 121.549 21.928C122.246 19.3833 121.797 15.7111 120.511 13.4433C120.475 13.3794 120.389 13.2218 120.321 13.0936C119.738 11.997 118.087 10.0952 117.185 9.48019C116.974 9.33612 116.784 9.19765 116.763 9.17201C116.582 8.95194 114.889 8.05488 114.118 7.77047C113.666 7.60402 113.505 7.55413 112.738 7.34386C111.714 7.06271 110.062 6.9578 108.522 7.07576ZM143.903 7.06131C143.3 7.11959 142.393 7.34665 141.488 7.6651C140.838 7.89449 140.274 8.15419 139.511 8.57614C139.239 8.72674 138.425 9.26759 138.383 9.32587C138.362 9.35524 138.306 9.39347 138.259 9.41026C138.117 9.46108 137.401 10.1073 136.937 10.602C136.7 10.8556 136.41 11.1582 136.294 11.2743C136.178 11.3904 136.083 11.513 136.083 11.5471C136.083 11.5811 135.999 11.6981 135.897 11.8072C135.491 12.2418 134.328 14.4075 134.199 14.9707C134.172 15.0924 134.071 15.4365 133.975 15.7358C133.282 17.8941 133.411 20.8846 134.298 23.2736C134.362 23.4443 134.453 23.69 134.501 23.8191C134.584 24.042 135.061 24.9651 135.261 25.2906C135.497 25.6734 135.849 26.1951 135.942 26.3C135.999 26.3639 136.131 26.5247 136.237 26.6581C136.971 27.5873 139.065 29.3735 139.42 29.3735C139.482 29.3735 139.533 29.4005 139.533 29.4336C139.533 29.532 140.625 30.0561 141.412 30.3349C144.575 31.4567 147.984 31.2646 150.911 29.7992C151.677 29.4164 151.723 29.4178 151.723 29.8314C151.723 30.3176 151.675 30.3116 155.442 30.2883L158.815 30.2673L158.834 18.8489C158.85 9.76553 158.834 7.41799 158.758 7.36857C158.705 7.33453 157.158 7.30656 155.319 7.30562C151.454 7.30422 151.723 7.24734 151.723 8.0684C151.723 8.64002 151.774 8.63209 150.922 8.19802C150.544 8.00592 150.197 7.84833 150.15 7.84833C150.104 7.84833 149.92 7.77746 149.742 7.69028C149.565 7.60355 149.274 7.50191 149.096 7.46508C148.918 7.42825 148.496 7.32241 148.158 7.23056C147.483 7.04639 145.055 6.94988 143.903 7.06131ZM87.2201 7.44643C87.1033 7.57744 87.0932 8.4815 87.0932 18.8653V30.1419L87.2638 30.2626C87.5458 30.4631 93.9932 30.4435 94.173 30.2417C94.3874 30.0015 94.3662 7.50145 94.1519 7.38488C93.8515 7.22216 87.3692 7.27998 87.2201 7.44643ZM161.015 7.5532C160.879 7.69121 160.903 8.01012 161.077 8.37426C161.161 8.55097 161.23 8.74865 161.23 8.81393C161.23 8.87874 161.316 9.12305 161.422 9.35664C161.527 9.59023 161.613 9.82941 161.613 9.88816C161.613 9.94691 161.679 10.1329 161.759 10.3013C161.839 10.4696 161.946 10.7642 161.996 10.9568C162.047 11.1489 162.115 11.3414 162.147 11.3843C162.217 11.4757 162.673 12.7546 162.758 13.0955C162.79 13.2246 162.857 13.4078 162.907 13.5025C162.957 13.5971 163.08 13.9109 163.179 14.2C163.437 14.9413 163.53 15.2048 163.726 15.7358C163.819 15.9922 163.99 16.4646 164.105 16.7849C164.22 17.1056 164.396 17.5775 164.497 17.8339C164.598 18.0904 164.68 18.3524 164.681 18.4167C164.681 18.4806 164.734 18.6359 164.798 18.7613C164.863 18.8867 164.982 19.1842 165.063 19.422C165.143 19.6597 165.317 20.1516 165.449 20.5148C165.791 21.4599 165.942 21.8795 166.16 22.4964C166.266 22.7957 166.396 23.1454 166.449 23.2736C166.503 23.4018 166.589 23.6466 166.641 23.8173C166.693 23.9884 166.84 24.408 166.967 24.7497C167.094 25.092 167.24 25.4939 167.292 25.6435C167.344 25.7932 167.464 26.1252 167.559 26.3816C167.653 26.638 167.824 27.1103 167.938 27.4307C168.052 27.7514 168.224 28.2102 168.32 28.4508L168.494 28.8881L167.848 30.8599C167.493 31.9444 167.153 32.9417 167.091 33.0764C167.03 33.2112 166.98 33.3744 166.98 33.4392C166.98 33.504 166.91 33.7222 166.825 33.9245C166.739 34.1269 166.639 34.4183 166.602 34.5721C166.565 34.726 166.456 35.079 166.36 35.3568C165.682 37.3207 165.659 37.4092 165.761 37.6344C165.889 37.9207 165.87 37.9193 169.639 37.9203C173.148 37.9212 173.46 37.8983 173.544 37.6312C173.567 37.5556 173.656 37.3193 173.74 37.1053C173.824 36.8917 173.938 36.5593 173.992 36.3672C174.047 36.1746 174.219 35.6678 174.375 35.2403C174.532 34.8132 174.688 34.3586 174.723 34.2304C174.759 34.1022 174.914 33.6476 175.07 33.22C175.225 32.7925 175.398 32.3029 175.455 32.1323C175.512 31.9612 175.701 31.4189 175.875 30.9275C176.049 30.4361 176.209 29.9642 176.232 29.8784C176.253 29.7931 176.349 29.5134 176.445 29.2569C176.541 29.0005 176.661 28.6681 176.712 28.5189C176.763 28.3692 176.859 28.0895 176.926 27.8969C176.993 27.7048 177.132 27.3024 177.236 27.0036C177.339 26.7042 177.5 26.2497 177.595 25.9932C177.689 25.7368 177.809 25.4044 177.861 25.2552C177.913 25.1055 178.077 24.6509 178.224 24.2448C178.372 23.8387 178.519 23.4018 178.552 23.2736C178.584 23.1454 178.684 22.8764 178.775 22.6754C178.866 22.4749 178.94 22.2544 178.94 22.1859C178.94 22.1173 178.998 21.9495 179.067 21.8124C179.137 21.6758 179.255 21.3713 179.329 21.1363C179.403 20.9013 179.567 20.4295 179.695 20.0873C179.822 19.7455 179.986 19.2909 180.059 19.0774C180.132 18.8634 180.269 18.4787 180.363 18.2223C180.457 17.9659 180.625 17.494 180.738 17.1732C180.85 16.8529 181.026 16.3713 181.129 16.1032C181.232 15.8356 181.317 15.554 181.317 15.478C181.317 15.402 181.349 15.3064 181.389 15.2658C181.428 15.2253 181.546 14.9297 181.652 14.6089C181.959 13.6717 182.16 13.1127 182.291 12.8232C182.359 12.674 182.441 12.4469 182.472 12.3178C182.504 12.1891 182.651 11.7513 182.799 11.3452C182.947 10.9391 183.11 10.485 183.162 10.3353C183.214 10.1856 183.337 9.85972 183.437 9.61121C183.535 9.3627 183.617 9.11326 183.617 9.05731C183.617 9.00136 183.703 8.75798 183.808 8.51646C184 8.07726 184.041 7.81383 183.954 7.58304C183.891 7.41799 176.787 7.39281 176.661 7.55693C176.582 7.6609 176.384 8.17377 176.086 9.05311C175.984 9.35198 175.822 9.82428 175.726 10.1022C175.631 10.3796 175.523 10.712 175.488 10.8402C175.452 10.9684 175.194 11.7378 174.915 12.55C174.635 13.3617 174.377 14.131 174.342 14.2592C174.307 14.3874 174.199 14.7199 174.104 14.9977C174.008 15.2752 173.854 15.7298 173.761 16.0076C173.668 16.2855 173.55 16.6352 173.498 16.7849C173.446 16.9345 173.349 17.2143 173.284 17.4064C173.218 17.5989 173.084 17.9752 172.986 18.2428C172.887 18.5104 172.807 18.7916 172.807 18.8681C172.807 19.1618 172.454 19.3026 172.273 19.0816C172.185 18.9739 171.986 18.4531 171.646 17.4455C171.559 17.1891 171.46 16.9443 171.427 16.9014C171.393 16.8585 171.324 16.6674 171.273 16.4767C171.223 16.2855 171.121 15.9885 171.046 15.816C170.972 15.6435 170.818 15.2407 170.705 14.9199C170.591 14.5996 170.4 14.075 170.279 13.7543C170.159 13.434 169.966 12.9094 169.852 12.5887C169.545 11.727 169.321 11.1256 169.13 10.6458C169.036 10.4108 168.933 10.1134 168.901 9.9842C168.87 9.85552 168.789 9.62799 168.721 9.47926C168.61 9.23448 168.476 8.87407 168.203 8.08146C168.151 7.93179 168.08 7.73084 168.044 7.63479L167.98 7.45995H164.544C161.973 7.45995 161.084 7.48326 161.015 7.5532ZM43.9806 8.15372C45.8303 8.4358 47.8906 9.35757 49.1253 10.456C50.4685 11.6506 51.2799 12.6908 51.9699 14.104C53.5279 17.294 53.3752 21.548 51.6051 24.2718L51.4611 24.4933L51.2413 24.1539C51.1207 23.9674 50.9873 23.759 50.945 23.6904C50.9027 23.6224 50.7316 23.3608 50.5641 23.109C50.186 22.5407 50.1626 22.5038 49.8332 21.9569C49.686 21.7122 49.5135 21.4347 49.45 21.3406C49.3865 21.2468 49.266 21.0529 49.1818 20.9102C49.0972 20.7675 48.9509 20.554 48.8557 20.4356C48.7609 20.3171 48.6832 20.1969 48.6832 20.1679C48.6832 20.1395 48.5972 20.0015 48.4918 19.8612C48.3865 19.7213 48.3 19.5749 48.3 19.5362C48.3 19.4975 48.2108 19.3609 48.1018 19.2327L47.904 18.9995L49.5204 18.9786C50.738 18.9627 51.1364 18.9338 51.1355 18.862C51.1138 17.1942 50.6663 15.5759 49.8516 14.2205C49.3801 13.4363 49.2849 13.3001 49.1782 13.2586C49.117 13.2349 49.0668 13.178 49.0668 13.1328C49.0668 13.0474 48.2365 12.2031 47.8828 11.928C47.7729 11.8427 47.6353 11.7303 47.5778 11.6781C47.2968 11.4254 45.73 10.5684 45.5488 10.5684C45.5087 10.5684 45.316 10.4989 45.1205 10.4136C44.6131 10.1931 43.3357 9.99866 42.3968 9.99866C41.4575 9.99866 40.1806 10.1931 39.6727 10.4136C39.4772 10.4989 39.2836 10.5684 39.2422 10.5684C38.9188 10.5684 37.4845 11.4436 36.6611 12.1434C36.3354 12.4203 36.3299 12.4152 35.8662 11.4482L35.4743 10.6309L35.6965 10.443C35.8184 10.3395 36.0134 10.2019 36.1293 10.1376C36.2453 10.0733 36.34 9.9884 36.34 9.9497C36.34 9.911 36.4178 9.85459 36.5125 9.82475C36.6073 9.79444 36.7683 9.70399 36.8699 9.62333C37.0981 9.44289 38.7578 8.62556 38.8962 8.62556C38.9519 8.62556 39.2362 8.54211 39.5278 8.44C39.8195 8.33789 40.3687 8.212 40.7482 8.15978C41.1277 8.10803 41.4727 8.05441 41.515 8.04089C41.7602 7.9621 43.1351 8.02504 43.9806 8.15372ZM33.6568 12.9798C33.6568 13.0241 33.8068 13.33 33.9903 13.6596C34.1734 13.9897 34.4802 14.5571 34.6716 14.9208C34.863 15.285 35.115 15.7568 35.2319 15.9699C35.4766 16.4161 35.5428 16.5452 35.6109 16.707C35.6381 16.7713 35.7604 16.9984 35.8832 17.2124C36.0061 17.426 36.1666 17.723 36.2397 17.8726C36.3133 18.0223 36.4339 18.2363 36.5079 18.3482C36.5824 18.4601 36.6795 18.6489 36.7241 18.7678L36.8051 18.9841L35.2199 18.9413L33.6348 18.8979L33.684 19.5707C33.7107 19.9404 33.7875 20.4351 33.8542 20.6701C33.9209 20.9051 34.0051 21.2412 34.0414 21.4166C34.1044 21.7191 34.3004 22.2129 34.5621 22.7295C34.6274 22.8577 34.7144 23.0326 34.7553 23.1179C34.7967 23.2037 34.851 23.3137 34.8763 23.3631C35.552 24.6905 38.2863 27.0423 39.1538 27.0423C39.198 27.0423 39.3903 27.1122 39.5812 27.198C40.8986 27.7887 43.648 27.7789 45.31 27.1775C46.3708 26.7933 47.4329 26.1676 48.1436 25.5079C48.4951 25.1815 48.4583 25.1614 48.7913 25.8571C48.9495 26.1886 49.1432 26.5821 49.2209 26.7322L49.3626 27.005L49.157 27.1966C49.0443 27.302 48.8957 27.4241 48.8272 27.468C48.7586 27.5118 48.5001 27.6852 48.2522 27.854C48.0042 28.0223 47.6983 28.2163 47.5718 28.2848C47.4453 28.3534 47.2728 28.4475 47.1882 28.4937C44.477 29.9778 40.359 29.9703 37.6432 28.4755C37.5379 28.4177 37.3069 28.2955 37.1298 28.2046C36.9527 28.1137 36.7674 27.9897 36.7177 27.9291C36.6685 27.8689 36.5976 27.8195 36.5608 27.8195C36.2986 27.8195 34.6509 26.2967 34.0377 25.4883C33.8919 25.2957 33.7465 25.1269 33.7148 25.1125C33.6826 25.0985 33.6568 25.0411 33.6568 24.9861C33.6568 24.9306 33.6021 24.8397 33.5359 24.7838C33.4692 24.7278 33.3307 24.5222 33.2286 24.3273C33.126 24.1324 33.0087 23.9203 32.9678 23.8564C32.8454 23.6648 32.43 22.7206 32.43 22.6349C32.43 22.591 32.3624 22.4003 32.2801 22.2115C31.2331 19.8122 31.6775 15.9577 33.327 13.1267C33.4558 12.9062 33.6568 12.8166 33.6568 12.9798ZM147.468 13.6349C148.873 13.8606 149.983 14.5856 150.833 15.8323C150.985 16.0561 151.11 16.2561 151.11 16.2767C151.11 16.2972 151.193 16.4986 151.294 16.7243C152.168 18.6806 151.698 21.3569 150.2 22.9472C149.933 23.2298 148.975 23.9338 148.857 23.9338C148.826 23.9338 148.604 24.028 148.364 24.1422C147.703 24.4588 145.729 24.4588 144.983 24.1427C144.712 24.028 144.463 23.9338 144.431 23.9338C144.198 23.9338 142.612 22.7402 142.604 22.5589C142.602 22.508 142.54 22.4204 142.466 22.3644C141.866 21.9089 141.217 20.1171 141.222 18.9296C141.226 18.0265 141.735 16.3942 142.111 16.0771C142.169 16.0286 142.217 15.9489 142.217 15.8999C142.217 15.6239 144.045 14.0653 144.369 14.0653C144.411 14.0653 144.585 13.9935 144.755 13.9058C145.015 13.7711 146.093 13.5552 146.625 13.5309C146.709 13.5272 147.089 13.5738 147.468 13.6349ZM13.9679 13.8736C14.2761 13.9823 14.5912 14.1063 14.668 14.1501C14.7449 14.1935 14.9519 14.3049 15.128 14.3977C15.5986 14.6462 16.3378 15.3115 16.8296 15.9302C17.0237 16.1745 17.5026 17.1658 17.6737 17.6787C17.8765 18.2857 17.8517 20.0215 17.6323 20.5927C17.5417 20.8277 17.4349 21.1321 17.3945 21.2697C17.354 21.4072 17.2873 21.5406 17.2459 21.5662C17.2049 21.5923 17.1005 21.7532 17.0145 21.9243C16.8245 22.3015 15.7619 23.4 15.4059 23.5865C15.2647 23.6606 15.1018 23.7688 15.0443 23.8275C14.9864 23.8863 14.9082 23.9338 14.87 23.9338C14.8323 23.9338 14.6193 24.0168 14.3966 24.1184C13.0212 24.7446 10.3367 24.4882 9.66369 23.6667C9.60941 23.6 9.52247 23.5454 9.47095 23.5454C9.39321 23.5454 8.70321 22.8381 8.32463 22.37C7.21925 21.0035 7.03525 17.7677 7.98515 16.3844C8.06289 16.2711 8.12683 16.1475 8.12683 16.1102C8.12683 15.9918 8.96955 14.9618 9.12641 14.8886C9.20921 14.8499 9.27683 14.7903 9.27683 14.7558C9.27683 14.7213 9.44059 14.5968 9.64069 14.4783C9.84125 14.3604 10.0395 14.234 10.0818 14.1972C10.6697 13.6867 12.9067 13.5002 13.9679 13.8736ZM73.7532 13.9044C74.8461 14.3567 75.434 14.7455 76.079 15.4435C76.3168 15.7008 76.8968 16.5182 76.8968 16.5965C76.8968 16.6124 76.9778 16.8096 77.0772 17.0352C77.7667 18.6023 77.5776 20.499 76.5716 22.1071C76.401 22.3803 75.1981 23.5454 75.0872 23.5454C75.0283 23.5454 74.98 23.5725 74.98 23.6056C74.98 23.7403 73.8585 24.235 73.2362 24.3744C71.5236 24.7595 69.7056 24.2453 68.5616 23.0526C68.2001 22.6759 67.62 21.8889 67.62 21.7751C67.62 21.7499 67.5483 21.5793 67.4604 21.3956C66.9093 20.2421 66.8652 17.6125 67.384 16.9014C67.4153 16.8585 67.4889 16.7014 67.5473 16.5517C67.7851 15.9419 69.0478 14.4555 69.3289 14.4541C69.3625 14.4536 69.483 14.3842 69.5971 14.2988C70.4279 13.6801 72.692 13.4652 73.7532 13.9044ZM110.072 13.7972C113.022 14.766 114.605 17.2991 114.051 20.1651C113.927 20.8109 113.379 22.0189 113.056 22.3626C112.392 23.0685 111.992 23.4321 111.684 23.6084C111.484 23.7235 111.32 23.8438 111.32 23.8755C111.32 23.9077 111.267 23.9338 111.202 23.9338C111.137 23.9338 110.951 24.0028 110.788 24.0872C108.82 25.1046 105.958 24.2896 104.656 22.3411C102.939 19.7716 103.653 15.6827 106.032 14.4522C106.194 14.3688 106.347 14.2662 106.373 14.2247C106.398 14.1827 106.53 14.1137 106.665 14.0713C106.801 14.0289 107.101 13.9235 107.333 13.8377C107.882 13.6344 109.503 13.6107 110.072 13.7972Z" fill="white"/>
</g>
<defs>
<clipPath id="clip0_2270_22">
<rect width="184" height="38" fill="white"/>
</clipPath>
</defs>
</svg>
