<svg width="145" height="70" viewBox="0 0 145 70" fill="none" xmlns="http://www.w3.org/2000/svg">
<path d="M4.43941 61.43C4.47909 61.4198 4.51634 61.4018 4.54893 61.3771C4.58154 61.3523 4.60885 61.3213 4.62923 61.2857C4.6496 61.2501 4.66264 61.211 4.66757 61.1703C4.67251 61.1297 4.66923 61.0884 4.65793 61.0491C4.58711 60.7873 4.58711 60.5115 4.65793 60.2499C4.67968 60.1801 4.67518 60.1048 4.64529 60.0381C4.6154 59.9714 4.56216 59.9179 4.49559 59.8878C3.72384 59.5554 3.06426 59.0076 2.59585 58.3099C2.12745 57.6123 1.87008 56.7945 1.85458 55.9543C1.85081 55.3482 1.97574 54.7481 2.22115 54.1938C2.46654 53.6395 2.8268 53.1436 3.2781 52.7389C4.32758 51.8132 5.69479 51.3298 7.09291 51.3903C8.11875 51.3674 9.13202 51.6196 10.0274 52.1209C10.0912 52.1587 10.1667 52.1719 10.2397 52.1582L13.4926 51.5339C13.5361 51.5248 13.581 51.5253 13.6243 51.5353C13.6676 51.5454 13.7083 51.5647 13.7433 51.5921C13.7784 51.6194 13.8071 51.6541 13.8274 51.6936C13.8476 51.7332 13.8591 51.7767 13.8609 51.8211L13.9608 54.3185C13.9636 54.3919 13.9398 54.4637 13.8939 54.5211C13.8482 54.5784 13.7832 54.6172 13.711 54.6307L12.5061 54.868C12.428 54.8831 12.3589 54.9282 12.3134 54.9934C12.268 55.0587 12.2497 55.1391 12.2626 55.2176C12.3974 55.8967 12.3531 56.5992 12.1341 57.256C11.9153 57.9128 11.5292 58.5013 11.0138 58.9637C10.1335 59.7888 8.99064 60.2774 7.78594 60.3435C7.71032 60.3513 7.64031 60.3869 7.58952 60.4435C7.53874 60.5001 7.51083 60.5734 7.51122 60.6494C7.50554 60.718 7.50554 60.7869 7.51122 60.8555C7.52279 60.9256 7.55841 60.9895 7.61196 61.0363C7.66551 61.083 7.73364 61.1095 7.80467 61.1115C9.20322 61.1316 10.5746 61.5008 11.7942 62.1853C12.3036 62.4885 12.7231 62.9215 13.0101 63.44C13.2972 63.9584 13.4414 64.5437 13.4281 65.1363C13.4148 65.7287 13.2444 66.307 12.9342 66.812C12.6241 67.3171 12.1855 67.7306 11.6631 68.0105C10.2619 68.7241 8.70171 69.0679 7.13037 69.0095C5.56089 69.0803 3.99914 68.7516 2.59132 68.0543C2.04949 67.7779 1.59777 67.3526 1.28921 66.8283C0.980659 66.3042 0.828073 65.7028 0.849373 65.0949C0.849373 63.2156 2.21671 61.9731 4.43941 61.43ZM7.1491 65.8878C8.88896 65.8878 9.7589 65.6235 9.7589 65.0949C9.7589 64.5392 8.89104 64.277 7.1491 64.277C5.40715 64.277 4.53931 64.5392 4.53931 65.0949C4.53931 65.6506 5.40715 65.8878 7.1491 65.8878ZM8.67876 55.9543C8.68716 55.7519 8.65024 55.5501 8.57072 55.3638C8.49119 55.1774 8.37107 55.0112 8.2191 54.8772C8.06714 54.7431 7.88717 54.6447 7.69234 54.5891C7.4975 54.5336 7.29271 54.5221 7.09291 54.5558C5.06376 54.4746 5.01381 57.4278 7.09291 57.2467C8.04192 57.2405 8.67876 56.766 8.67876 55.9543Z" fill="white"/>
<path d="M15.9501 52.789C15.9266 52.7205 15.9281 52.6459 15.9544 52.5785C15.9807 52.5111 16.03 52.4551 16.0937 52.4206C17.3888 51.7621 18.8178 51.4095 20.2706 51.3904C23.7732 51.3904 25.1968 53.0762 25.1968 56.4228V63.2594C25.1968 63.2995 25.1888 63.3393 25.1735 63.3765C25.1581 63.4136 25.1356 63.4473 25.1072 63.4757C25.0788 63.5042 25.045 63.5267 25.008 63.5421C24.9708 63.5574 24.931 63.5653 24.8909 63.5653H22.075C21.9939 63.5653 21.9161 63.5331 21.8586 63.4757C21.8013 63.4183 21.7691 63.3405 21.7691 63.2594C21.7692 63.2014 21.7527 63.1448 21.7218 63.0957C21.6909 63.0468 21.6468 63.0076 21.5944 62.9828C21.5421 62.9579 21.4838 62.9484 21.4263 62.9554C21.3688 62.9624 21.3144 62.9855 21.2696 63.0222C20.5043 63.5463 19.5855 63.7991 18.6598 63.7402C18.1585 63.7764 17.6553 63.7044 17.1845 63.5289C16.7135 63.3535 16.2858 63.0787 15.9305 62.7233C15.5751 62.368 15.3004 61.9404 15.1249 61.4694C14.9494 60.9985 14.8775 60.4953 14.9136 59.9941C14.9136 57.4405 16.6805 56.0669 19.1842 56.0669C19.8287 56.0436 20.4696 56.1697 21.0573 56.4352C21.106 56.4599 21.1604 56.4712 21.2149 56.4678C21.2694 56.4644 21.3219 56.4465 21.3672 56.4159C21.4124 56.3853 21.4487 56.3432 21.4721 56.2939C21.4956 56.2446 21.5054 56.1899 21.5006 56.1355C21.4993 55.931 21.4549 55.7291 21.3705 55.5429C21.2858 55.3567 21.1629 55.1904 21.0097 55.0549C20.8566 54.9194 20.6765 54.8177 20.4814 54.7564C20.2863 54.6952 20.0804 54.6758 19.8773 54.6995C18.9364 54.7474 18.0111 54.9586 17.1426 55.3239C17.1041 55.3387 17.0631 55.3456 17.0219 55.3441C16.9807 55.3426 16.9402 55.3328 16.9029 55.3153C16.8656 55.2979 16.8322 55.2731 16.8047 55.2423C16.7773 55.2116 16.7562 55.1756 16.7431 55.1365L15.9501 52.789ZM21.5069 59.7131V59.2511C21.5072 59.1964 21.4928 59.1427 21.4654 59.0956C21.438 59.0484 21.3984 59.0093 21.3507 58.9825C20.9359 58.7713 20.4736 58.6702 20.0084 58.6891C19.3466 58.6891 18.8721 59.0325 18.8721 59.5882C18.8721 60.1438 19.3466 60.4311 20.0084 60.4311C20.2701 60.4574 20.5344 60.427 20.7833 60.3418C21.0323 60.2567 21.2598 60.1189 21.4507 59.9378C21.4982 59.8755 21.5204 59.7975 21.5131 59.7193L21.5069 59.7131Z" fill="white"/>
<path d="M45.9277 63.5653H42.5874C42.5062 63.5653 42.4284 63.5331 42.371 63.4757C42.3136 63.4184 42.2814 63.3406 42.2814 63.2594V56.8723C42.2814 55.736 41.7819 55.1865 40.8079 55.1865C40.4552 55.1741 40.1055 55.2568 39.7958 55.4259C39.486 55.5951 39.2274 55.8445 39.0473 56.148C39.0251 56.1926 39.0144 56.2419 39.016 56.2917V63.2656C39.016 63.3468 38.9838 63.4246 38.9264 63.482C38.8691 63.5394 38.7913 63.5716 38.7101 63.5716H35.3636C35.2824 63.5716 35.2046 63.5394 35.1473 63.482C35.0898 63.4246 35.0577 63.3468 35.0577 63.2656V56.8474C35.0577 55.7422 34.5831 55.1865 33.6591 55.1865C33.3093 55.1716 32.9612 55.243 32.6454 55.3944C32.3297 55.5457 32.056 55.7724 31.8485 56.0544C31.8075 56.1082 31.7855 56.174 31.786 56.2417V63.2656C31.786 63.3059 31.7781 63.3457 31.7627 63.3827C31.7473 63.4199 31.7248 63.4536 31.6964 63.482C31.668 63.5104 31.6343 63.5329 31.5971 63.5483C31.5601 63.5637 31.5203 63.5716 31.48 63.5716H28.146C28.0649 63.5716 27.9871 63.5394 27.9297 63.482C27.8724 63.4246 27.8401 63.3468 27.8401 63.2656V52.0273C27.8401 51.9462 27.8724 51.8683 27.9297 51.811C27.9871 51.7537 28.0649 51.7214 28.146 51.7214H31.4863C31.5675 51.7214 31.6453 51.7537 31.7026 51.811C31.7601 51.8683 31.7922 51.9462 31.7922 52.0273V52.1647C31.7926 52.2204 31.8081 52.2751 31.837 52.3227C31.8661 52.3704 31.9076 52.4091 31.9572 52.4348C32.0067 52.4605 32.0623 52.4722 32.1179 52.4686C32.1736 52.4651 32.2272 52.4463 32.273 52.4145C33.1568 51.7963 34.217 51.481 35.2949 51.5153C36.7995 51.5153 37.9172 52.0648 38.4667 52.889C38.4926 52.9272 38.5266 52.9591 38.5664 52.9826C38.6061 53.0059 38.6506 53.0203 38.6967 53.0245C38.7426 53.0286 38.7889 53.0226 38.8323 53.0067C38.8757 52.9909 38.9149 52.9655 38.9473 52.9326C39.4052 52.4616 39.9569 52.092 40.5669 51.8478C41.1767 51.6037 41.831 51.4904 42.4875 51.5153C44.9848 51.5153 46.2336 52.9638 46.2336 55.8358V63.2782C46.2288 63.356 46.1944 63.4291 46.1376 63.4825C46.0807 63.5359 46.0056 63.5655 45.9277 63.5653Z" fill="white"/>
<path d="M59.1721 62.3169C59.1973 62.3821 59.1999 62.4538 59.1795 62.5205C59.1592 62.5873 59.117 62.6454 59.0598 62.6853C57.7456 63.527 56.2049 63.9453 54.6456 63.884C53.7899 63.9219 52.935 63.7903 52.1304 63.4967C51.3257 63.2032 50.5869 62.7534 49.9567 62.1734C48.8303 60.9484 48.2053 59.3452 48.2053 57.6812C48.2053 56.0171 48.8303 54.4138 49.9567 53.1889C50.5714 52.5888 51.3021 52.1205 52.104 51.8124C52.9059 51.5043 53.7623 51.363 54.6206 51.3971C56.1284 51.3698 57.5863 51.9373 58.6789 52.9766C59.2348 53.4817 59.6737 54.1021 59.9648 54.7945C60.256 55.4868 60.3925 56.2344 60.3646 56.985C60.3741 57.5704 60.3154 58.155 60.1898 58.727C60.1743 58.7946 60.1361 58.855 60.0816 58.8981C60.0272 58.9412 59.9596 58.9645 59.8901 58.9642H52.76C52.7065 58.9639 52.6538 58.9776 52.6072 59.004C52.5606 59.0305 52.5219 59.0687 52.4947 59.1148C52.4675 59.1609 52.4529 59.2135 52.4524 59.267C52.4518 59.3206 52.4653 59.3732 52.4915 59.4199C52.9286 60.2004 53.7902 60.6 55.0639 60.6C56.041 60.6175 57.0069 60.3899 57.8734 59.9382C57.9115 59.9175 57.9536 59.905 57.9967 59.9018C58.0399 59.8985 58.0833 59.9044 58.1241 59.9192C58.1647 59.9339 58.2019 59.9572 58.233 59.9874C58.2641 60.0176 58.2884 60.054 58.3043 60.0942L59.1721 62.3169ZM52.6414 56.3232H56.0879C56.1347 56.3237 56.1809 56.3134 56.2232 56.2931C56.2653 56.2728 56.3024 56.2432 56.3314 56.2064C56.3602 56.1697 56.3804 56.1267 56.3902 56.0809C56.3998 56.0352 56.399 55.9877 56.3875 55.9423C56.2621 55.5533 56.0087 55.2182 55.6687 54.9915C55.3285 54.7647 54.9218 54.6598 54.5145 54.6936C54.0811 54.6631 53.6481 54.759 53.268 54.9696C52.8879 55.1801 52.5771 55.4963 52.373 55.8799C52.3497 55.9261 52.3386 55.9775 52.3406 56.0293C52.3426 56.081 52.3578 56.1314 52.3846 56.1757C52.4114 56.2201 52.4491 56.2568 52.494 56.2826C52.5389 56.3084 52.5896 56.3223 52.6414 56.3232Z" fill="white"/>
<path d="M66.0564 59.0636C64.2894 58.6704 61.9731 57.815 61.9981 55.2677C61.9981 52.814 63.9773 51.3903 66.6371 51.3903C68.3435 51.3102 70.0254 51.8194 71.4009 52.8326C71.458 52.8771 71.4976 52.9404 71.5124 53.0113C71.5273 53.0822 71.5165 53.1561 71.482 53.2198L70.277 55.4986C70.2575 55.5357 70.2306 55.5684 70.198 55.5947C70.1655 55.621 70.1278 55.6402 70.0873 55.6514C70.047 55.6625 70.0047 55.6652 69.9632 55.6594C69.9217 55.6535 69.8819 55.6392 69.8462 55.6172C68.9579 55.0303 67.9201 54.7097 66.8555 54.6933C66.2998 54.6933 65.9315 54.9305 65.9315 55.2177C65.9315 56.429 72.175 55.6672 72.175 59.8816C72.175 62.304 70.1958 63.89 67.0616 63.89C65.9084 63.8902 64.7683 63.6476 63.715 63.1782C63.0009 62.8943 62.3512 62.4695 61.8045 61.9294C61.7625 61.8749 61.7397 61.8079 61.7397 61.739C61.7397 61.6701 61.7625 61.6032 61.8045 61.5486L63.3467 59.4196C63.3708 59.386 63.4013 59.3578 63.4366 59.3365C63.4718 59.315 63.5111 59.301 63.5519 59.2952C63.5927 59.2893 63.6343 59.2919 63.6742 59.3025C63.714 59.3131 63.7512 59.3317 63.7837 59.3572C64.2419 59.6996 64.7464 59.975 65.2821 60.1751C65.9361 60.4411 66.6309 60.5932 67.3363 60.6246C67.9607 60.6246 68.2354 60.4373 68.2354 60.1001C68.279 59.6131 67.2926 59.3509 66.0564 59.0636Z" fill="white"/>
<path d="M4.77398 15.1218L4.55545 16.5703C4.48905 17.0142 4.5191 17.4671 4.64356 17.8982C4.76802 18.3294 4.98398 18.7286 5.2767 19.0687C5.56943 19.4088 5.93204 19.6819 6.33984 19.8692C6.74763 20.0565 7.19101 20.1537 7.63977 20.1541H26.3704L4.66785 27.3404C4.12075 27.5219 3.63459 27.8512 3.26321 28.2921C2.89183 28.7329 2.64974 29.2679 2.56378 29.8379L1.69592 35.6256L1.38374 37.6923C1.31733 38.136 1.34738 38.5889 1.47184 39.0201C1.59631 39.4512 1.81226 39.8504 2.10499 40.1905C2.39771 40.5308 2.76033 40.8038 3.16812 40.991C3.57591 41.1784 4.0193 41.2755 4.46805 41.2759H25.1154C25.8619 41.2755 26.5834 41.0075 27.1492 40.5207C27.7151 40.0339 28.0878 39.3604 28.1997 38.6225L28.4182 37.174C28.4847 36.7302 28.4547 36.2772 28.3301 35.8462C28.2057 35.415 27.9897 35.0157 27.697 34.6756C27.4043 34.3355 27.0417 34.0625 26.6338 33.8751C26.2261 33.6879 25.7827 33.5906 25.3339 33.5902H7.85205L28.2434 26.8472C28.7905 26.6657 29.2767 26.3363 29.648 25.8956C30.0194 25.4547 30.2615 24.9197 30.3475 24.3498L31.2154 18.5558L31.59 16.0584C31.6544 15.6155 31.6229 15.1639 31.4975 14.7343C31.3721 14.3047 31.1559 13.9071 30.8634 13.5684C30.5708 13.2296 30.2089 12.9579 29.8021 12.7713C29.3954 12.5846 28.9531 12.4877 28.5056 12.4871H7.85829C7.11462 12.4869 6.39531 12.7522 5.82987 13.2352C5.26443 13.7182 4.88999 14.3873 4.77398 15.1218ZM35.2737 15.1218L31.8834 37.6984C31.817 38.1422 31.8471 38.5952 31.9715 39.0263C32.096 39.4575 32.3119 39.8567 32.6047 40.1968C32.8973 40.5369 33.2599 40.8099 33.6678 40.9973C34.0756 41.1846 34.5189 41.2818 34.9677 41.2822H36.3475C37.0939 41.2817 37.8155 41.0138 38.3814 40.5269C38.9471 40.0401 39.3199 39.3667 39.4318 38.6287L42.822 16.0458C42.8845 15.6039 42.8515 15.1537 42.7253 14.7257C42.599 14.2976 42.3824 13.9016 42.0901 13.5643C41.7979 13.227 41.4366 12.9563 41.0308 12.7705C40.625 12.5846 40.184 12.488 39.7378 12.4871H38.3579C37.6143 12.4869 36.895 12.7522 36.3295 13.2352C35.7641 13.7182 35.3897 14.3873 35.2737 15.1218ZM41.1301 3.20294H39.7503C39.0038 3.20345 38.2823 3.47139 37.7164 3.9582C37.1506 4.44501 36.7779 5.11845 36.6659 5.85643C36.5995 6.30024 36.6295 6.75316 36.754 7.18431C36.8786 7.61545 37.0945 8.01469 37.3871 8.35482C37.6799 8.69496 38.0425 8.96798 38.4504 9.15528C38.8581 9.34259 39.3015 9.43978 39.7503 9.44022H41.1301C41.8765 9.43971 42.598 9.17176 43.1639 8.68496C43.7297 8.19814 44.1024 7.5247 44.2144 6.78673C44.2808 6.34291 44.2507 5.88999 44.1263 5.45886C44.0018 5.02771 43.7859 4.62846 43.4931 4.28833C43.2004 3.9482 42.8378 3.67517 42.43 3.48787C42.0222 3.30056 41.5789 3.20337 41.1301 3.20294ZM74.2208 3.20294H72.841C72.0945 3.20345 71.373 3.47139 70.8072 3.9582C70.2413 4.44501 69.8686 5.11845 69.7566 5.85643C69.6903 6.30024 69.7203 6.75316 69.8447 7.18431C69.9692 7.61545 70.1852 8.01469 70.4779 8.35482C70.7707 8.69496 71.1333 8.96798 71.541 9.15528C71.9489 9.34259 72.3923 9.43978 72.841 9.44022H74.2208C74.9672 9.43971 75.6888 9.17176 76.2546 8.68496C76.8205 8.19814 77.1931 7.5247 77.3051 6.78673C77.3718 6.34134 77.3413 5.88682 77.2157 5.45435C77.0901 5.02186 76.8725 4.62167 76.5777 4.28122C76.283 3.94077 75.918 3.66813 75.5079 3.482C75.0979 3.29587 74.6524 3.20068 74.2021 3.20294H74.2208ZM68.0584 41.2885H69.4383C70.1847 41.2879 70.9062 41.02 71.472 40.5332C72.0379 40.0464 72.4106 39.373 72.5225 38.635L75.894 16.0458C75.9565 15.6039 75.9235 15.1537 75.7973 14.7257C75.671 14.2976 75.4544 13.9016 75.1621 13.5643C74.8699 13.227 74.5086 12.9563 74.1028 12.7705C73.697 12.5846 73.256 12.488 72.8098 12.4871H71.4299C70.6835 12.4876 69.9619 12.7555 69.3961 13.2424C68.8302 13.7292 68.4576 14.4026 68.3456 15.1406L64.9554 37.7172C64.8929 38.1591 64.926 38.6093 65.0522 39.0374C65.1784 39.4654 65.395 39.8615 65.6873 40.1988C65.9796 40.5361 66.3409 40.8068 66.7467 40.9925C67.1525 41.1784 67.5933 41.275 68.0397 41.2759L68.0584 41.2885ZM80.5455 15.1343L77.1553 37.7109C77.0889 38.1548 77.1189 38.6077 77.2433 39.0388C77.3678 39.47 77.5837 39.8692 77.8765 40.2093C78.1693 40.5494 78.5319 40.8225 78.9396 41.0098C79.3475 41.1971 79.7909 41.2943 80.2396 41.2947H102.86C103.606 41.2942 104.328 41.0263 104.894 40.5395C105.46 40.0527 105.832 39.3792 105.944 38.6413L109.335 16.0646C109.401 15.6192 109.369 15.1648 109.242 14.7326C109.116 14.3005 108.897 13.9008 108.602 13.5609C108.307 13.2211 107.942 12.9492 107.531 12.7638C107.12 12.5785 106.675 12.484 106.225 12.4871H83.6048C82.8612 12.4869 82.1419 12.7522 81.5764 13.2352C81.011 13.7182 80.6366 14.3873 80.5205 15.1218L80.5455 15.1343ZM98.6955 33.5902H85.8212C85.7731 33.5898 85.7254 33.5791 85.6816 33.5587C85.6378 33.5384 85.5989 33.5088 85.5675 33.4722C85.5361 33.4355 85.5131 33.3925 85.4997 33.346C85.4864 33.2996 85.4833 33.2509 85.4904 33.2031L87.4072 20.4351C87.419 20.3556 87.459 20.283 87.5196 20.2304C87.5803 20.1777 87.6577 20.1485 87.738 20.1479H100.612C100.66 20.1482 100.708 20.159 100.752 20.1793C100.796 20.1997 100.835 20.2293 100.866 20.2659C100.897 20.3026 100.92 20.3456 100.934 20.3921C100.947 20.4385 100.95 20.4872 100.943 20.535L99.0263 33.303C99.0145 33.3825 98.9745 33.455 98.9139 33.5076C98.8532 33.5603 98.7758 33.5896 98.6955 33.5902ZM48.2102 2.6535L42.947 37.6984C42.8805 38.1422 42.9105 38.5952 43.0351 39.0263C43.1595 39.4575 43.3755 39.8567 43.6682 40.1968C43.9609 40.5369 44.3235 40.8099 44.7313 40.9973C45.1391 41.1846 45.5825 41.2818 46.0312 41.2822H47.4111C48.1575 41.2817 48.8791 41.0138 49.4448 40.5269C50.0107 40.0401 50.3834 39.3667 50.4953 38.6287L55.7587 3.58379C55.8251 3.13946 55.795 2.68601 55.6701 2.25443C55.5453 1.82283 55.3287 1.42328 55.0353 1.08304C54.7419 0.742797 54.3786 0.4699 53.97 0.282986C53.5615 0.0960729 53.1174 -0.00045339 52.6682 1.60104e-06H51.2945C50.5481 0.000513676 49.8266 0.268462 49.2608 0.755269C48.6949 1.24207 48.3222 1.91551 48.2102 2.6535ZM59.0491 2.6535L53.7857 37.6984C53.7193 38.1422 53.7493 38.5952 53.8738 39.0263C53.9982 39.4575 54.2143 39.8567 54.5069 40.1968C54.7997 40.5369 55.1623 40.8099 55.5701 40.9973C55.9779 41.1846 56.4213 41.2818 56.87 41.2822H58.2498C58.9963 41.2817 59.7178 41.0138 60.2836 40.5269C60.8495 40.0401 61.2222 39.3667 61.3342 38.6287L66.5974 3.59003C66.6648 3.14575 66.6355 2.69215 66.5115 2.26024C66.3876 1.82833 66.1718 1.42829 65.8789 1.08743C65.586 0.74659 65.2231 0.47298 64.8148 0.285303C64.4066 0.0976272 63.9625 0.000309847 63.5132 1.60104e-06H62.1333C61.3868 0.000513676 60.6653 0.268462 60.0995 0.755269C59.5336 1.24207 59.1609 1.91551 59.0491 2.6535ZM136.013 14.9845L132.804 36.3624L128.546 14.8472C128.402 14.142 128.019 13.5083 127.461 13.0532C126.904 12.598 126.207 12.3495 125.487 12.3497H116.396C115.652 12.3495 114.933 12.6148 114.367 13.0979C113.802 13.5809 113.428 14.25 113.311 14.9845L109.896 37.7047C109.829 38.1485 109.86 38.6014 109.984 39.0325C110.109 39.4637 110.325 39.863 110.617 40.2031C110.91 40.5432 111.273 40.8162 111.681 41.0036C112.088 41.1908 112.532 41.288 112.981 41.2885H114.929C115.675 41.2879 116.397 41.02 116.963 40.5332C117.529 40.0464 117.901 39.373 118.013 38.635L121.022 18.612L125.012 38.7786C125.156 39.4837 125.539 40.1174 126.096 40.5726C126.653 41.0277 127.352 41.2762 128.072 41.2759H137.624C138.369 41.274 139.089 41.0054 139.654 40.5187C140.219 40.0321 140.59 39.3594 140.702 38.6225L144.118 15.9023C144.183 15.4585 144.154 15.0055 144.03 14.5744C143.904 14.1433 143.689 13.744 143.396 13.4039C143.103 13.0637 142.741 12.7907 142.333 12.6034C141.925 12.4161 141.482 12.3189 141.033 12.3185H139.085C138.339 12.3224 137.619 12.5935 137.055 13.0826C136.492 13.5716 136.122 14.2463 136.013 14.9845Z" fill="#F9B233"/>
</svg>
