<svg width="150" height="41" fill="none" xmlns="http://www.w3.org/2000/svg"><path d="M27.749 2.218C30.133.417 33.246-.102 36.166.064c2.61.126 5.254.979 7.202 2.767 2.001 1.868 3.243 4.521 3.46 7.248-1.546.007-3.087.004-4.629.004-.32-1.462-.909-2.977-2.167-3.88-2.218-1.654-5.281-1.78-7.855-.985-2.17.636-3.682 2.66-4.019 4.855-1.551.02-3.103.01-4.651.006.296-3.04 1.771-6.01 4.242-7.86zM52.055.014c1.535-.007 3.066-.007 4.598 0 .073 3.35.017 6.702.03 10.055-1.552.024-3.103.024-4.658 0 .016-3.353-.04-6.705.03-10.055zM72.422.05c1.488-.043 2.98-.083 4.465-.01.376.294.11.893.2 1.306-.017 2.913 0 5.827-.01 8.737-1.552-.004-3.103.006-4.652-.007-.01-3.343-.01-6.683-.003-10.025zM87.824 1.639C90.042.204 92.846-.25 95.43.217c2.427.446 4.375 2.16 5.807 4.085 1.432-1.894 3.373-3.522 5.744-4.028 3.003-.633 6.426-.014 8.69 2.157 2.051 1.995 3.1 4.835 3.319 7.648-1.545.007-3.093.004-4.638.004-.236-1.669-.762-3.473-2.227-4.472-1.945-1.242-4.655-1.132-6.53.193-1.345.992-1.911 2.677-2.107 4.275-1.538.004-3.08.01-4.622-.006-.256-1.678-.892-3.437-2.327-4.462-2.31-1.532-5.897-1.006-7.438 1.378-.613.92-.873 2.008-1.036 3.087-1.568.007-3.133.02-4.701-.013.316-3.23 1.715-6.536 4.461-8.424zM124.643.014c1.532-.007 3.063-.007 4.598 0 .07 3.35.014 6.702.03 10.055-1.555.027-3.11.01-4.661.014.016-3.357-.04-6.713.033-10.069zM134.532.05c5.144-.09 10.288-.02 15.436-.033.053 1.575.023 3.15.027 4.725-1.752.03-3.5-.003-5.248.023-.153 1.768-.046 3.546-.08 5.318-1.551 0-3.103.006-4.655-.007-.013-1.771.007-3.54-.013-5.31-1.828-.027-3.656.013-5.48-.027 0-1.562-.017-3.127.013-4.688zM0 .177C2.75.17 5.497.184 8.247.17c3.34-.16 6.81 1.306 8.864 3.976 1.298 1.681 1.731 3.842 1.814 5.92-1.568.03-3.136.013-4.704.013-.034-1.874-.863-3.889-2.644-4.718-2.158-.989-4.598-.506-6.889-.579-.053 1.768-.013 3.533-.027 5.3-1.554-.003-3.106.014-4.661-.016C0 6.77.003 3.473 0 .177zM0 11.265c1.552-.03 3.103-.017 4.655-.01.013 4.102.003 8.207.006 12.312H0V11.265zM14.187 11.415c1.569.003 3.133-.007 4.698.01.02 4.098.004 8.194.01 12.292-1.578.134-3.16.087-4.741-.006.013-4.1-.05-8.198.033-12.296zM23.553 11.261c1.552-.02 3.104-.023 4.659.004-.127 2.03.24 4.205 1.678 5.74 3.173 3.423 9.952 2.56 11.733-1.921.64-1.182.47-2.55.54-3.836 1.568.003 3.136-.013 4.704.017.187 3.023-.523 6.173-2.424 8.583-1.927 2.527-5.14 3.783-8.25 3.9-3.27.219-6.796-.52-9.233-2.834-2.53-2.464-3.793-6.153-3.407-9.653zM52.025 23.734c.02-4.165-.04-8.327.03-12.493 1.541.014 3.086-.006 4.631.02.023 2.557-.04 5.118.023 7.672l.11.113c3.2.067 6.403.006 9.606.027 0 1.551-.003 3.106 0 4.658-4.794.146-9.606.14-14.4.003zM72.425 11.255c1.552-.007 3.103-.02 4.655.01 0 4.152-.004 8.3 0 12.449-1.552.127-3.11.13-4.662 0 .004-4.152-.01-8.307.007-12.46zM83.413 11.255c1.551-.007 3.103-.02 4.655.01v12.482a35.114 35.114 0 0 1-4.662.007c.007-4.165-.01-8.334.007-12.5zM98.826 11.258c1.571-.017 3.146-.013 4.717-.003.014 4.158 0 8.32.007 12.482-1.578.117-3.17.14-4.745-.016.014-4.152-.026-8.308.02-12.463zM114.365 23.707c-.17-4.138-.05-8.31-.057-12.459h4.622c.189 4.169.126 8.354.036 12.526-1.531.04-3.076.136-4.601-.067zM124.613 23.764c-.01-4.172-.003-8.344-.003-12.516h4.641c.047 4.162.007 8.324.02 12.486-1.548.126-3.106.11-4.658.03zM140.016 11.255c1.548-.01 3.1-.02 4.654.01 0 4.158-.003 8.317 0 12.476-1.551.11-3.113.136-4.661-.017.003-4.155-.007-8.314.007-12.47z" fill="#FFFC00"/><path d="M33.1 32.56c1.391-1.268 3.572-1.208 5.16-.349-.2.48-.396.959-.589 1.442-.989-.386-2.294-.936-3.173-.023-.966 1.225-.989 3.173-.057 4.424.99.9 2.394.36 3.513.067.003.516.003 1.036.007 1.552-1.192.393-2.504.552-3.726.216-1.379-.393-2.181-1.835-2.268-3.193-.133-1.442.03-3.083 1.133-4.135zM59.6 31.725h1.83v8.24H59.6v-8.24zM82.657 31.725H88.9v1.498h-2.248c.007 2.241-.013 4.485.014 6.726-.616.01-1.232.017-1.845.023v-6.749h-2.164c-.003-.5-.003-.999 0-1.498zM109.014 31.722c.673.003 1.349.003 2.024.003a183.244 183.244 0 0 1 1.615 3.243 64.495 64.495 0 0 0 1.665-3.24c.666-.003 1.335-.003 2.004-.01-.895 1.705-1.884 3.36-2.726 5.088-.134 1.045-.03 2.108-.054 3.16h-1.754c-.01-1.023.046-2.045-.027-3.063-.849-1.762-1.845-3.45-2.747-5.181z" fill="#fff"/></svg>