<svg width="204" height="36" viewBox="0 0 204 36" fill="none" xmlns="http://www.w3.org/2000/svg">
<g clip-path="url(#clip0_1511_57)">
<path fill-rule="evenodd" clip-rule="evenodd" d="M61.2075 0H72.0525C71.61 0.37644 71.25 0.852753 71.0476 1.52881C69.555 1.59795 68.055 1.81306 66.5625 2.1895C64.89 2.61203 63.435 3.6338 63.435 5.39309C63.435 5.96159 63.585 6.49936 63.84 6.96799L63.8251 6.59923L64.05 6.484C64.2525 6.37644 64.47 6.28425 64.68 6.19206C65.22 5.96159 65.7826 5.76952 66.345 5.6082C69.645 4.65557 74.505 4.65557 77.805 5.6082C78.3675 5.76952 78.93 5.96927 79.47 6.19206C79.68 6.27657 79.8975 6.37644 80.1 6.484L80.325 6.59923L80.3101 6.96799C80.5651 6.49936 80.715 5.96159 80.715 5.39309C80.715 3.6338 79.26 2.59667 77.5875 2.1895C75.9975 1.80538 74.4075 1.5749 72.8175 1.52113C73.1475 1.09091 73.6575 0.814341 74.1675 0.545455C74.49 0.368758 74.8125 0.199744 75.105 0H82.9425C84.0075 0 84.8775 0.891165 84.8775 1.98207V34.0103C84.8775 35.1012 84.0075 35.9924 82.9425 35.9924H61.2075C60.1425 35.9924 59.2725 35.1012 59.2725 34.0103V1.98207C59.265 0.891165 60.135 0 61.2075 0ZM73.695 15.5954C76.4475 13.9898 77.7075 12.1383 77.865 9.07299C76.7475 12.822 75.1125 14.6351 73.695 15.5954ZM64.41 10.8015C64.8 16.1793 70.47 16.6325 72.075 19.6748C73.6801 16.6325 79.35 16.1716 79.74 10.8015L79.92 6.83739C76.0425 4.77081 68.115 4.77081 64.2375 6.83739L64.41 10.8015Z" fill="url(#paint0_linear_1511_57)"/>
<path fill-rule="evenodd" clip-rule="evenodd" d="M31.5675 0H53.3025C54.3674 0 55.2374 0.891165 55.2374 1.98207V34.0103C55.2374 35.1012 54.3674 35.9924 53.3025 35.9924H31.5675C30.5024 35.9924 29.6324 35.1012 29.6324 34.0103V1.98207C29.6324 0.891165 30.5024 0 31.5675 0ZM44.1749 24.6377C46.9275 23.032 48.1875 21.1805 48.3449 18.1152C47.2274 21.8642 45.5925 23.6774 44.1749 24.6377ZM34.7775 20.1357C35.1674 25.5135 40.8375 25.9744 42.4425 29.009C44.0475 25.9667 49.7174 25.5057 50.1075 20.1357L50.2874 16.1716C46.41 14.105 38.4824 14.105 34.605 16.1716L34.7775 20.1357ZM41.415 10.863C39.9224 10.9321 38.4225 11.1472 36.93 11.5237C35.2574 11.9462 33.8024 12.968 33.8024 14.7272C33.8024 15.2958 33.9525 15.8335 34.2075 16.3022L34.1925 15.9334L34.4175 15.8182C34.62 15.7107 34.8374 15.6184 35.0475 15.5263C35.5874 15.2958 36.15 15.1037 36.7125 14.9423C40.0124 13.9898 44.8725 13.9898 48.1724 14.9423C48.735 15.1037 49.2975 15.3034 49.8375 15.5263C50.0474 15.6108 50.265 15.7107 50.4674 15.8182L50.6925 15.9334L50.6775 16.3022C50.9325 15.8335 51.0825 15.2958 51.0825 14.7272C51.0825 12.968 49.6274 11.9309 47.955 11.5237C46.365 11.1396 44.7749 10.9091 43.185 10.8554C43.515 10.4251 44.025 10.1485 44.535 9.87966C45.66 9.2727 46.755 8.68118 46.8899 6.98335C44.805 7.25225 45.855 7.15237 43.8 8.4507C42.8099 8.98848 41.7974 9.53397 41.415 10.863Z" fill="url(#paint1_linear_1511_57)"/>
<path fill-rule="evenodd" clip-rule="evenodd" d="M1.935 0H5.0625L5.1375 1.68246C5.5275 7.06018 11.1975 7.51344 12.8025 10.5557C14.4075 7.51344 20.0775 7.0525 20.4675 1.68246L20.5425 0H23.67C24.735 0 25.605 0.891165 25.605 1.98207V34.0103C25.605 35.1012 24.735 35.9923 23.67 35.9923H20.55L20.6475 33.8643C16.77 31.7977 8.8425 31.7977 4.965 33.8643L5.0625 35.9923H1.935C0.87 36 0 35.1012 0 34.0103V1.98207C0 0.891165 0.87 0 1.935 0ZM18.7425 0C17.64 3.20359 16.1475 4.82458 14.835 5.70807C17.3325 4.2484 18.6 2.58131 18.93 0H18.7425ZM11.7825 28.5634C10.29 28.6325 8.79 28.8476 7.2975 29.2241C5.625 29.6466 4.17 30.6684 4.17 32.4276C4.17 32.9962 4.32 33.5339 4.575 34.0025L4.56 33.6338L4.785 33.5186C4.9875 33.411 5.205 33.3188 5.415 33.2266C5.955 32.9962 6.5175 32.8041 7.08 32.6427C10.38 31.6902 15.24 31.6902 18.54 32.6427C19.1025 32.8041 19.665 33.0038 20.205 33.2266C20.415 33.3112 20.6325 33.411 20.835 33.5186L21.06 33.6338L21.045 34.0025C21.3 33.5339 21.45 32.9962 21.45 32.4276C21.45 30.6684 19.995 29.6312 18.3225 29.2241C16.7325 28.84 15.1425 28.6095 13.5525 28.5557C13.8825 28.1254 14.3925 27.8489 14.9025 27.58C16.0275 26.9731 17.1225 26.3815 17.2575 24.6838C15.1725 24.9526 16.2225 24.8528 14.1675 26.1511C13.1775 26.6812 12.165 27.2266 11.7825 28.5634Z" fill="url(#paint2_linear_1511_57)"/>
<path fill-rule="evenodd" clip-rule="evenodd" d="M105.87 20.7043C110.228 20.7043 112.905 17.9309 112.905 14.1589V14.1051C112.905 10.3868 110.31 8.95786 107.655 8.49691L112.598 3.66465V0.345825H99.3904V4.11792H107.07L102.405 8.91944L103.072 11.7236H104.858C107.258 11.7236 108.682 12.6378 108.682 14.2664V14.3202C108.682 15.8106 107.535 16.7479 105.915 16.7479C103.935 16.7479 102.54 15.8874 101.198 14.3433L98.2504 17.2472C99.923 19.2754 102.353 20.7043 105.87 20.7043Z" fill="white"/>
<path fill-rule="evenodd" clip-rule="evenodd" d="M134.737 20.7042C140.767 20.7042 145.148 16.041 145.148 10.3483V10.2945C145.148 4.60179 140.82 0 134.79 0C128.76 0 124.38 4.66325 124.38 10.3483V10.402C124.38 16.1024 128.708 20.7042 134.737 20.7042ZM134.79 16.6402C131.325 16.6402 128.872 13.7823 128.872 10.3483V10.2945C128.872 6.86044 131.272 4.06402 134.737 4.06402C138.203 4.06402 140.655 6.92189 140.655 10.3559V10.4098C140.655 13.8438 138.255 16.6402 134.79 16.6402Z" fill="white"/>
<path fill-rule="evenodd" clip-rule="evenodd" d="M146.041 20.3585H150.42L152.205 15.8719H160.47L162.255 20.3585H166.747L158.385 0.199707H154.418L146.041 20.3585ZM153.75 11.9846L156.345 5.49292L158.94 11.9846H153.75Z" fill="white"/>
<path fill-rule="evenodd" clip-rule="evenodd" d="M169.77 20.3586H174.075V14.2434L176.333 11.8388L182.392 20.3586H187.553L179.235 8.83494L187.193 0.345825H182.002L174.075 9.09619V0.345825H169.77V20.3586Z" fill="white"/>
<path fill-rule="evenodd" clip-rule="evenodd" d="M196.822 20.6503C201.037 20.6503 204 18.4223 204 14.4428V14.3891C204 10.9012 201.765 9.44161 197.805 8.38138C194.43 7.4979 193.59 7.06768 193.59 5.75398V5.69252C193.59 4.71685 194.453 3.9486 196.103 3.9486C197.753 3.9486 199.455 4.6938 201.18 5.92299L203.415 2.60417C201.435 0.975495 199.005 0.0612793 196.155 0.0612793C192.165 0.0612793 189.315 2.46589 189.315 6.09201V6.14579C189.315 10.1176 191.857 11.2393 195.795 12.2687C199.065 13.1292 199.732 13.6976 199.732 14.8116V14.8654C199.732 16.0408 198.675 16.7553 196.912 16.7553C194.677 16.7553 192.84 15.8103 191.078 14.3276L188.535 17.4467C190.875 19.5901 193.868 20.6503 196.822 20.6503Z" fill="white"/>
<path fill-rule="evenodd" clip-rule="evenodd" d="M102.54 36.0001C104.033 36.0001 105.187 35.4008 106.028 34.671V31.0449H102.48V32.6351H104.287V33.8259C103.83 34.164 103.253 34.3253 102.6 34.3253C101.152 34.3253 100.132 33.2037 100.132 31.6748V31.6518C100.132 30.2306 101.168 29.0475 102.473 29.0475C103.418 29.0475 103.98 29.3547 104.602 29.8926L105.735 28.4943C104.888 27.7568 103.995 27.3496 102.533 27.3496C100.065 27.3496 98.2576 29.2933 98.2576 31.6748V31.6979C98.2504 34.1716 99.9979 36.0001 102.54 36.0001Z" fill="white"/>
<path fill-rule="evenodd" clip-rule="evenodd" d="M118.245 35.8539H120.075L120.818 33.9794H124.268L125.011 35.8539H126.885L123.39 27.434H121.733L118.245 35.8539ZM121.463 32.3584L122.55 29.6465L123.638 32.3584H121.463Z" fill="white"/>
<path fill-rule="evenodd" clip-rule="evenodd" d="M139.357 35.8542H141.112V30.4304L143.385 33.972H143.437L145.733 30.3997V35.8542H147.517V27.4957H145.583L143.437 31.0297L141.293 27.4957H139.357V35.8542Z" fill="white"/>
<path d="M162.547 27.4957H160.755V35.8542H162.547V27.4957Z" fill="white"/>
<path fill-rule="evenodd" clip-rule="evenodd" d="M175.785 35.8542H177.562V30.538L181.515 35.8542H183.038V27.4957H181.268V32.6429L177.442 27.4957H175.785V35.8542Z" fill="white"/>
<path fill-rule="evenodd" clip-rule="evenodd" d="M200.123 36.0001C201.615 36.0001 202.771 35.4008 203.61 34.671V31.0449H200.063V32.6351H201.871V33.8259C201.413 34.164 200.835 34.3253 200.183 34.3253C198.736 34.3253 197.708 33.2037 197.708 31.6748V31.6518C197.708 30.2306 198.743 29.0475 200.048 29.0475C200.993 29.0475 201.556 29.3547 202.178 29.8926L203.31 28.4943C202.463 27.7568 201.57 27.3496 200.108 27.3496C197.641 27.3496 195.833 29.2933 195.833 31.6748V31.6979C195.833 34.1716 197.588 36.0001 200.123 36.0001Z" fill="white"/>
</g>
<defs>
<linearGradient id="paint0_linear_1511_57" x1="83.6193" y1="1.41111" x2="60.0469" y2="33.6873" gradientUnits="userSpaceOnUse">
<stop stop-color="#F8B900"/>
<stop offset="1" stop-color="#E67508"/>
</linearGradient>
<linearGradient id="paint1_linear_1511_57" x1="53.986" y1="1.41119" x2="30.4135" y2="33.6873" gradientUnits="userSpaceOnUse">
<stop stop-color="#F8B900"/>
<stop offset="1" stop-color="#E67508"/>
</linearGradient>
<linearGradient id="paint2_linear_1511_57" x1="24.3526" y1="1.41111" x2="0.780135" y2="33.6873" gradientUnits="userSpaceOnUse">
<stop stop-color="#F8B900"/>
<stop offset="1" stop-color="#E67508"/>
</linearGradient>
<clipPath id="clip0_1511_57">
<rect width="204" height="36" fill="white"/>
</clipPath>
</defs>
</svg>
