<svg width="170" height="32" fill="none" xmlns="http://www.w3.org/2000/svg"><path fill-rule="evenodd" clip-rule="evenodd" d="m165.265 17.315 4.735 7.67-5.398.004-4.465-7.201h-.049v7.201h-4.865V6.316h7.263c1.688-.1 3.359.39 4.727 1.386a5.23 5.23 0 0 1 1.785 4.319 5.683 5.683 0 0 1-1.08 3.475 3.84 3.84 0 0 1-2.653 1.819zm-1.614-6.182a1.915 1.915 0 0 0-.771-.721 3.428 3.428 0 0 0-1.067-.335 8.51 8.51 0 0 0-1.253-.086h-.471v4.668h.471c.419.002.838-.027 1.253-.086a3.428 3.428 0 0 0 1.067-.335c.32-.162.588-.412.771-.72a2.653 2.653 0 0 0 0-2.385zm-22.075-4.816h10.644v4.134h-5.761v3.007h5.761v4.26h-5.761v3.006h5.761v4.26h-10.644V6.317zM71.204 10.45h-5.76v3.007h5.76v4.26h-5.76v3.006h5.76v4.26H60.56V6.317h10.644v4.134zM53.16 24.99l-4.465-7.201h-.049v7.201H43.78V6.316h7.264c1.688-.1 3.359.39 4.726 1.386a5.224 5.224 0 0 1 1.786 4.319 5.694 5.694 0 0 1-1.08 3.475 4.583 4.583 0 0 1-3.015 1.813l5.097 7.67-5.399.01zm-.953-13.855a1.913 1.913 0 0 0-.77-.72 3.417 3.417 0 0 0-1.067-.335 8.527 8.527 0 0 0-1.254-.086h-.47v4.668h.47c.42.002.84-.027 1.254-.087a3.417 3.417 0 0 0 1.067-.335c.32-.161.587-.412.77-.72a2.643 2.643 0 0 0 0-2.385zm31.77-4.11a8.639 8.639 0 0 1 2.818 1.993 9.311 9.311 0 0 1 1.891 2.997c.904 2.343.9 4.94-.01 7.28a9.312 9.312 0 0 1-1.905 2.983 8.805 8.805 0 0 1-2.818 1.992 8.167 8.167 0 0 1-3.371.72h-6.373V6.317h6.373a8.344 8.344 0 0 1 3.395.704v.002zm-5.273 3.405v10.449h1.008c.654.005 1.305-.1 1.925-.309a4.28 4.28 0 0 0 2.658-2.6c.273-.74.405-1.525.39-2.315a5.265 5.265 0 0 0-1.351-3.838 4.773 4.773 0 0 0-3.579-1.385l-1.051-.002zm30.943 0h-4.02v14.56h-4.86v-14.56h-4.02V6.32h12.9v4.11zm7.83 14.563h-4.865V6.265h4.865v18.727zm5.547-16.096a8.377 8.377 0 0 1 2.987-1.915 10.643 10.643 0 0 1 3.806-.662 8.8 8.8 0 0 1 4.711 1.231 8.05 8.05 0 0 1 3.104 3.667l-4.275 1.81a4.473 4.473 0 0 0-1.45-2.042 3.646 3.646 0 0 0-2.297-.742 3.912 3.912 0 0 0-1.908.463 4.206 4.206 0 0 0-1.426 1.266 6.059 6.059 0 0 0-.874 1.787 6.924 6.924 0 0 0 0 4.017c.191.639.49 1.24.885 1.776.382.52.878.944 1.449 1.242.6.308 1.267.464 1.941.453a3.888 3.888 0 0 0 2.505-.79 3.106 3.106 0 0 0 1.127-2.252h-3.677v-3.574h8.94a20.94 20.94 0 0 1-.378 3.853 8.165 8.165 0 0 1-1.392 3.066 7.711 7.711 0 0 1-3.078 2.588 9.614 9.614 0 0 1-4.068.848 10.207 10.207 0 0 1-3.724-.662 8.514 8.514 0 0 1-2.942-1.892 8.324 8.324 0 0 1-1.908-2.934 10.192 10.192 0 0 1-.667-3.75 10.543 10.543 0 0 1 .677-3.853 8.602 8.602 0 0 1 1.932-3.001v.002z" fill="#F6F6F6"/><path fill-rule="evenodd" clip-rule="evenodd" d="M23.59 10.397c-.018.508.023 1.077-.77 1.337-.47.154-1.049-.489-1.08-.937.236-.314.557-.551.925-.684.739-.279.914-.332.924.284zM9.952 11.734c-.794-.26-.753-.829-.77-1.337.01-.616.185-.563.924-.283.368.133.69.37.924.684-.032.45-.609 1.09-1.079.937v-.001zm17.981 14.875c.486-.231.927-.546 1.304-.93 1.853-1.977 2.213-4.256 2.435-6.894.058-.687.045-1.38.081-2.084.005-.109.022-.598.072-.597.145.16.26.345.34.545.228.615.372 1.257.43 1.909.212 1.283.249 2.588.11 3.881-.064.45-.214.884-.44 1.277-1.159 1.94-2.44 3.739-3.662 5.647-.101.158-.176-.145-.245-.196l-.098-.099c-.278-.15-.385-.168-.519-.076-.043.081-.081.163-.122.244a38.787 38.787 0 0 1-1.163 2.302.21.21 0 0 1-.351.024.21.21 0 0 1-.044-.129c0-.727.005-1.455-.005-2.183-.005-.454.005-1.008-.624-1.007-.614 0-.633.536-.64 1.001-.006.425 0 .85 0 1.34a.211.211 0 0 1-.218.215.212.212 0 0 1-.108-.033 6.682 6.682 0 0 0-1.693-.926 3.161 3.161 0 0 0-2.962.326l.132-.12a3.097 3.097 0 0 1 2.742-.733c.267.058.541.08.815.065a.213.213 0 0 0 .164-.095.21.21 0 0 0 .021-.189c-.38-1.01-1.566-4.71.874-5.967a.216.216 0 0 0 .119-.163c.085-.68 1.324-3.618-2.043-5.535-.528.47-1.18 1.566-2.01 2.268 1.467.315 2.242-.57 2.951-1.181-.29 1.711-1.623 1.833-2.685 2.455.915-.393 1.825.14 2.911-.433-.786 1.504-2.341.762-3.297 1.555.917.593 1.763.27 2.604.178.237-.032.478-.023.713.027-.198.287-.428.55-.684.786a3.26 3.26 0 0 1-1.087.538 2.24 2.24 0 0 1-1.233.033c-1.201-.376-2.38-.823-3.552-1.284a.873.873 0 0 1-.465-.555c-.073-.381.015-.79-.022-1.182a.922.922 0 0 1 .734-1.075 5.115 5.115 0 0 0 2.751-1.896c.228-.33.39-.699.482-1.089v-.022c.002-.36-.06-.716-.185-1.053-.07-.269-.063-.551.02-.816l.02-.087v-.012h.006l.238-1.026c.08-.318.27-.597.538-.786l.072-.044a.601.601 0 0 1 .091-.06 8.186 8.186 0 0 1 1.403-.575 6.047 6.047 0 0 0 3.559-3.838 3.565 3.565 0 0 0 .146-1.817c-.163.332-.415.997-.57 1.332a1.23 1.23 0 0 1-1.293.81c-1.56.01-3.064.274-3.918 1.9a3.994 3.994 0 0 1-1.861 2.018 3.88 3.88 0 0 1 .212-1.39c-.725-.298-.44-.72-.052-1.14.527-.571 1.06-1.135 1.619-1.731a2.757 2.757 0 0 1-1.253-.696h3.051c0-.031.005-.061.009-.092a8.663 8.663 0 0 1-2.662-.953c1.418-.874 4.364-.44 4.861-.599.006-.118-.407-.206-.83-.344-.978-.253-1.346-.332-2.321-.596a12.534 12.534 0 0 1-2.781-1.127h4.006a11.928 11.928 0 0 0-4.42-1.467 24.055 24.055 0 0 0-2.056-.045l-.004-.257v.257a24.049 24.049 0 0 0-2.055.045A11.934 11.934 0 0 0 9.915 3.83h4.007c-.879.486-1.813.864-2.782 1.127-.978.264-1.342.343-2.32.596-.423.138-.836.226-.83.344.497.163 3.443-.275 4.86.599a8.659 8.659 0 0 1-2.66.953c0 .03.005.06.008.092h3.051c-.348.338-.78.578-1.251.696.558.596 1.092 1.16 1.618 1.73.388.419.674.841-.052 1.141.156.446.228.917.214 1.39a3.994 3.994 0 0 1-1.862-2.017c-.854-1.63-2.358-1.891-3.919-1.902a1.23 1.23 0 0 1-1.292-.81c-.155-.334-.407-.998-.57-1.33a3.557 3.557 0 0 0 .146 1.816 6.046 6.046 0 0 0 3.56 3.838c.484.148.953.34 1.401.575a.606.606 0 0 1 .092.06c.023.014.048.028.072.044.268.19.458.468.537.786l.24 1.026h.003v.012l.02.088c.083.264.09.546.02.815a2.997 2.997 0 0 0-.185 1.075c.091.39.255.76.483 1.09a5.11 5.11 0 0 0 2.75 1.895.921.921 0 0 1 .734 1.075c-.036.392.051.801-.022 1.182a.873.873 0 0 1-.465.555c-1.172.46-2.352.908-3.553 1.284a2.241 2.241 0 0 1-1.233-.033 3.263 3.263 0 0 1-1.086-.538 4.65 4.65 0 0 1-.683-.785c.234-.05.475-.06.712-.027.841.091 1.687.415 2.608-.178-.956-.794-2.512-.051-3.297-1.556 1.086.571 1.997.041 2.91.434-1.06-.622-2.394-.746-2.685-2.456.71.61 1.487 1.497 2.952 1.181-.83-.701-1.482-1.797-2.011-2.267-3.367 1.917-2.129 4.856-2.042 5.535a.214.214 0 0 0 .119.163c2.44 1.256 1.251 4.957.872 5.967a.214.214 0 0 0 .091.256c.028.017.06.026.093.029.273.014.547-.008.815-.066a3.097 3.097 0 0 1 2.742.734l.132.12a3.16 3.16 0 0 0-2.961-.326 6.667 6.667 0 0 0-1.694.925.213.213 0 0 1-.326-.182v-1.34c-.007-.465-.026-1-.64-1-.629 0-.618.553-.625 1.007-.01.727-.006 1.455-.005 2.183a.21.21 0 0 1-.394.104 39.116 39.116 0 0 1-1.163-2.301c-.037-.082-.082-.163-.122-.245-.134-.092-.245-.074-.52.077l-.097.099c-.069.05-.144.353-.245.196-1.222-1.91-2.504-3.707-3.662-5.647a3.522 3.522 0 0 1-.44-1.277 14.31 14.31 0 0 1 .11-3.881 7.374 7.374 0 0 1 .43-1.91c.079-.2.194-.384.339-.544.05 0 .067.489.072.596.036.705.023 1.398.081 2.085.222 2.637.582 4.916 2.434 6.894.377.384.819.699 1.305.93a.212.212 0 0 0 .269-.29c-.565-1.15-1.175-2.281-1.63-3.474-.464-1.215-.775-2.49-1.131-3.749a.21.21 0 0 1 .267-.259c.264.091.618.236.897.343a.21.21 0 0 0 .278-.256c-.353-1.214-1.5-4.766-1.5-4.766.07.081.74 1.059.787 1.146a20.366 20.366 0 0 1 1.414 2.71c.192.496.349.854.433 1.042.039.081.053.178-.017.238-.952.806-.182 2.345.222 2.824a5.88 5.88 0 0 1 1.175 2.3c.057.173.131.42.213.68a.21.21 0 0 0 .407-.077c-.071-1.087-.263-2.561-.622-2.898-.552-.52-.436-2.313.184-2.632.576-.297.706-.612.415-1.118a.214.214 0 0 1 .013-.24.215.215 0 0 1 .063-.056l2.65-1.517a.212.212 0 0 0-.07-.394 3.63 3.63 0 0 0-2.563.754 1.165 1.165 0 0 1-1.706-.652 3.217 3.217 0 0 1-.14-.413c-.031-.115.073-.212.187-.244 1.304-.326 1.5-.393 1.565-.788a.212.212 0 0 0-.207-.245 2.58 2.58 0 0 1-1.342-.163 1.706 1.706 0 0 1-.47-.943.212.212 0 0 1 .285-.253c.46.195.586.189.838-.005a.216.216 0 0 0 .035-.31 1.241 1.241 0 0 0-.191-.194c-.956-.746-2.425-4.865-2.376-6.08a2.77 2.77 0 0 0-.83 1.234C1.646 7.454.876 7.324 1.02 5.9l1.118.579s.059-.433-.541-.934C.31 4.47.117 3.04.075 1.487A1.368 1.368 0 0 1 2.15.2c2.497 1.174 5.937 2.356 8.777 1.991l.093-.02.009-.004-.007.004a27.712 27.712 0 0 1 5.37-.57h.016c1.804.014 3.603.205 5.37.57l-.007-.004.008.005.094.02c2.84.364 6.276-.816 8.776-1.992a1.368 1.368 0 0 1 2.076 1.287c-.041 1.553-.236 2.984-1.522 4.058-.6.501-.54.934-.54.934L31.78 5.9c.144 1.424-.627 1.554-1.636 1.966a2.77 2.77 0 0 0-.83-1.235c.05 1.216-1.419 5.335-2.375 6.081-.07.058-.135.123-.192.195a.215.215 0 0 0-.022.244.215.215 0 0 0 .055.066c.253.194.378.2.839.004a.211.211 0 0 1 .285.254 1.712 1.712 0 0 1-.47.943 2.583 2.583 0 0 1-1.342.163.212.212 0 0 0-.207.244c.065.396.257.462 1.564.788.114.029.218.127.187.245-.037.14-.084.279-.14.413a1.166 1.166 0 0 1-1.706.652 3.629 3.629 0 0 0-2.563-.754.211.211 0 0 0-.07.394l2.65 1.517a.216.216 0 0 1 .077.296c-.291.506-.163.822.414 1.118.62.318.733 2.111.184 2.631-.358.338-.55 1.813-.623 2.898a.21.21 0 0 0 .408.078c.081-.26.156-.506.213-.68a5.895 5.895 0 0 1 1.175-2.3c.407-.479 1.174-2.018.222-2.825a.192.192 0 0 1-.018-.238c.082-.187.245-.545.433-1.04.403-.938.876-1.844 1.414-2.711.048-.09.719-1.069.787-1.147 0 0-1.145 3.553-1.498 4.767a.212.212 0 0 0 .277.256c.278-.107.632-.252.896-.343a.209.209 0 0 1 .268.26c-.356 1.256-.666 2.531-1.13 3.748-.457 1.192-1.067 2.325-1.63 3.475a.211.211 0 0 0 .268.289l-.01-.003zm-17.419-9.385-.116.06c.042-.021.082-.04.117-.06zM5.731 1.704c.221.054.433.104.637.148a4.568 4.568 0 0 0-.636-.148zm-.278.303c-2.943-.23-2.397 1.94-1.827 3.229l.475.787c.029.031.051.067.068.105 0 .008.006.015.009.022.733 1.73 1.343 5.41 4.874 6.821a5.092 5.092 0 0 1-.404-.26 9.9 9.9 0 0 1-2.45-3.114c-1.576-3.171-1.163-5.16-1.354-5.95.304.107 1.385.338 1.597.413.02-.049-1.897-.88-2.445-1.169a2.02 2.02 0 0 1 .8-.287c1.243-.13 1.71.265 2.516.38a4.835 4.835 0 0 0 1.606-.125l-3.465-.852zm16.803 15.218c.035.02.075.04.116.06l-.116-.06zm4.148-15.372c.203-.046.415-.095.636-.148a4.554 4.554 0 0 0-.636.147v.001zm2.189 4.3c0-.008.006-.016.01-.023a.383.383 0 0 1 .067-.106l.475-.786c.57-1.29 1.115-3.46-1.827-3.23l-3.467.85a4.835 4.835 0 0 0 1.606.126c.806-.116 1.274-.51 2.517-.38.284.038.556.136.8.287-.548.289-2.465 1.12-2.446 1.169.214-.074 1.294-.306 1.598-.412-.193.793.22 2.781-1.356 5.95a9.894 9.894 0 0 1-2.45 3.113 5.015 5.015 0 0 1-.403.26c3.533-1.413 4.142-5.089 4.876-6.82v.001zM16.378 17.418c-.423 0-.88 0-1.467-.01a3.874 3.874 0 0 1-1.554-.3.854.854 0 0 1-.351-.857c.03-.445.608-.758.608-.758-.021 1.039.88 1.317 2.762 1.334h.017c1.882-.017 2.783-.295 2.762-1.334 0 0 .577.313.607.758a.854.854 0 0 1-.351.857 3.87 3.87 0 0 1-1.554.3c-.584.01-1.042.014-1.467.01l-.008-.046-.004.046zm.008 11.133c.055 1.37-2.3 1.489-4.29.297-.112-.424.106-1.153-.124-1.313-.343-.237-.89.076-1.235.296-.346.22-.57.643-.91.907.147-2.119 2.26-4.04 5.507-4.222.357-.02.718-.043 1.053-.041.334.001.696.022 1.052.041 3.247.18 5.36 2.105 5.507 4.222-.342-.264-.563-.686-.91-.907-.347-.221-.892-.532-1.235-.296-.23.163-.012.89-.124 1.313-1.991 1.192-4.347 1.073-4.291-.297z" fill="#D71920"/></svg>