<svg viewBox="0 0 140 74" xmlns="http://www.w3.org/2000/svg"><g fill="#fff"><path d="M71 21.2c0 1.3.2 2.6.6 3.9.9-1.5 2.1-2.8 3.4-3.9 0-1.8.6-3.6 1.6-5.1s2.5-2.6 4.2-3.3c.3.7.9 1.2 1.6 1.5s1.5.3 2.2.1c.5-.2 1-.5 1.4-.9s.6-.9.8-1.5c.8-.3 1.4-.8 1.8-1.5.4-.6.5-1.5.2-2.3-.2-.8-.8-1.5-1.5-1.8-.7-.4-1.6-.5-2.4-.2-.4-.4-.9-.6-1.4-.8-.5-.1-1.1-.1-1.6.1-.7.2-1.3.7-1.8 1.4-.4.6-.6 1.4-.4 2.2-2.5.9-4.7 2.5-6.3 4.7-1.6 2.1-2.4 4.8-2.4 7.4z"/><path d="M92.9 4H47v17.3c-1.4 1.1-2.5 2.4-3.4 3.9-.4-1.3-.6-2.6-.6-3.9V0h53.9v21.3c0 2.4-.6 4.7-1.9 6.7s-3 3.7-5.1 4.8-4.5 1.6-6.8 1.4c-2.4-.2-4.6-.9-6.6-2.3.1-1.4.7-2.7 1.5-3.9 1.3 1.1 2.9 1.8 4.6 2.1 1.7.2 3.4 0 5-.7s2.9-1.9 3.8-3.3 1.4-3.1 1.4-4.8V4z"/><path d="M71 32.6c0-2.4.6-4.7 1.9-6.7 1.2-2 3-3.7 5.1-4.8s4.5-1.6 6.8-1.4c2.4.2 4.6.9 6.6 2.3-.1 1.4-.7 2.7-1.5 3.9-1-.9-2.2-1.5-3.4-1.8-1.3-.4-2.6-.4-3.9-.2s-2.5.7-3.6 1.4-2 1.7-2.7 2.8-1.1 2.4-1.2 3.7 0 2.6.5 3.9c.4 1.2 1.1 2.4 2.1 3.3.9.9 2 1.7 3.3 2.1.3-.7.9-1.2 1.6-1.5s1.5-.3 2.2-.1c.5.2 1 .5 1.4.9s.6.9.8 1.5c.8.2 1.5.8 1.9 1.5s.5 1.6.2 2.4c-.2.8-.8 1.5-1.5 1.9s-1.6.5-2.4.2c-.4.4-.9.6-1.4.8-.5.1-1.1.1-1.6-.1-.7-.2-1.3-.7-1.7-1.4-.4-.6-.6-1.4-.4-2.2-2.5-.9-4.7-2.6-6.2-4.8-2.1-2.3-2.9-4.9-2.9-7.6zM68.9 32.6c0-1.3-.2-2.6-.6-3.9-.9 1.5-2.1 2.8-3.4 3.9 0 1.8-.6 3.6-1.6 5.1s-2.5 2.6-4.2 3.3c-.3-.7-.9-1.2-1.6-1.5s-1.5-.3-2.2-.1c-.5.2-1 .5-1.4.9s-.6.9-.8 1.5c-.4.1-.8.3-1.1.6s-.6.6-.8 1-.3.8-.3 1.2 0 .8.1 1.2.3.8.6 1.1.6.6 1 .8.8.3 1.2.3.8 0 1.2-.1c.4.4.9.6 1.4.8.5.1 1.1.1 1.6-.1.7-.2 1.3-.7 1.8-1.4.4-.6.6-1.4.4-2.2 2.5-.9 4.7-2.6 6.3-4.7 1.6-2.4 2.4-5 2.4-7.7zM68.9 21.2c0-2.7-.8-5.3-2.4-7.5-1.5-2.1-3.7-3.8-6.3-4.7.1-.8 0-1.5-.4-2.2s-1-1.1-1.8-1.4c-.5-.2-1.1-.2-1.6-.1s-1 .4-1.5.7c-.8-.2-1.7-.2-2.4.2S51.2 7.3 51 8c-.2.8-.2 1.7.2 2.4s1 1.3 1.8 1.5c.1.6.5 1.2 1 1.7.5.4 1.1.7 1.8.8s1.3-.1 1.9-.4 1-.8 1.3-1.4c1.2.5 2.3 1.2 3.3 2.1s1.6 2.1 2.1 3.3c.4 1.2.6 2.5.5 3.9-.1 1.3-.5 2.6-1.2 3.7s-1.6 2.1-2.7 2.8-2.3 1.2-3.6 1.4-2.6.1-3.9-.2c-1.3-.4-2.4-1-3.4-1.8-.9 1.1-1.4 2.5-1.5 3.9 1.9 1.4 4.2 2.2 6.6 2.3 2.4.2 4.7-.3 6.8-1.4 2-1 3.8-2.6 5-4.6 1.2-2.1 1.9-4.4 1.9-6.8z"/><path d="M43 32.6c0-2.4.6-4.7 1.9-6.7 1.2-2 3-3.7 5.1-4.8s4.5-1.6 6.8-1.4c2.4.2 4.6.9 6.6 2.3-.1 1.4-.7 2.7-1.5 3.9-1.3-1.1-2.9-1.8-4.6-2.1-1.7-.2-3.4 0-5 .7s-2.9 1.9-3.8 3.3-1.4 3.1-1.4 4.8v17.3H93V32.6c1.4-1.1 2.5-2.4 3.4-3.9.4 1.3.6 2.6.6 3.9v22.3H43zM17 65.2h2.8l1.9 5.5 2-5.5h2.8v8.4h-1.9v-6.5l-2.2 6.5H21l-2.1-6.5v6.5H17zM31 65.2h1.5l3.7 8.4h-2.1l-.7-1.8h-3.3l-.7 1.8h-2.1zm.8 2.5-1 2.6h2.1zM41.3 67.3c-.2-.2-.4-.3-.6-.4s-.5-.1-.7-.1h-.4c-.1 0-.3.1-.4.2l-.3.3c-.1.1-.1.3-.1.4s0 .2.1.3c0 .1.1.2.2.3.2.1.5.3.7.3l.9.3c.3.1.6.2.9.4s.5.4.7.7c.2.4.3.8.3 1.2s-.1.8-.3 1.2c-.2.3-.4.6-.7.9-.3.2-.7.4-1 .5-.4.1-.8.2-1.2.2-.5 0-1-.1-1.5-.3s-.9-.5-1.3-.8l1.3-1.5c.2.3.4.5.7.6s.6.2.9.2c.2 0 .3 0 .5-.1.1 0 .3-.1.4-.2l.3-.3c.1-.1.1-.3.1-.4s0-.2-.1-.3-.1-.2-.2-.3c-.2-.2-.5-.3-.7-.4-.3-.1-.6-.2-1-.3-.3-.1-.7-.2-1-.4s-.5-.4-.7-.7-.3-.7-.3-1.1.1-.8.3-1.2c.2-.3.4-.6.7-.9.3-.2.7-.4 1-.5.4-.1.8-.2 1.2-.2.5 0 .9.1 1.4.2.4.1.9.4 1.2.7zM49.5 67.4c-.2-.2-.4-.4-.7-.5s-.6-.2-.9-.2-.7.1-1 .2-.6.3-.8.6-.4.5-.5.9c-.1.3-.2.7-.2 1.1s.1.7.2 1.1c.1.3.3.6.5.9.2.2.5.4.8.6.3.1.6.2.9.2.4 0 .7-.1 1-.2.3-.2.5-.4.7-.7l1.6 1.2c-.3.5-.8.9-1.4 1.1-.5.2-1.1.4-1.7.4s-1.3-.1-1.8-.3-1-.5-1.4-.9-.7-.9-.9-1.4c-.5-1.2-.5-2.5 0-3.7.2-.5.5-1 .9-1.4s.9-.7 1.4-.9c.6-.2 1.2-.3 1.8-.3.2 0 .5 0 .7.1.3 0 .5.1.8.2s.5.2.7.4l.6.6zM51.7 69.4c0-.6.1-1.3.3-1.8s.5-1 .9-1.4.9-.7 1.4-.9c1.2-.4 2.5-.4 3.7 0 .5.2 1 .5 1.4.9s.7.9.9 1.4c.5 1.2.5 2.5 0 3.7-.2.5-.5 1-.9 1.4s-.9.7-1.4.9c-1.2.4-2.5.4-3.7 0-.5-.2-1-.5-1.4-.9s-.7-.9-.9-1.4c-.2-.6-.3-1.2-.3-1.9zm1.9 0c0 .4.1.7.2 1.1.1.3.3.6.5.9.2.2.5.4.8.6.7.3 1.5.3 2.1 0 .3-.1.6-.3.8-.6.2-.2.4-.5.5-.9.1-.3.2-.7.2-1.1s-.1-.7-.2-1.1c-.1-.3-.3-.6-.5-.9-.2-.2-.5-.4-.8-.6-.7-.3-1.5-.3-2.1 0-.3.1-.6.3-.8.6-.2.2-.4.5-.5.9s-.2.8-.2 1.1zM63.7 66.9h-2.4v-1.6H68v1.6h-2.4v6.8h-1.9zM80.1 73.1c-.5.3-1.1.5-1.7.6s-1.2.2-1.8.2-1.2-.1-1.8-.3c-.5-.2-1-.5-1.4-.9s-.7-.9-.9-1.4c-.5-1.2-.5-2.5 0-3.7.2-.5.5-1 .9-1.4s.9-.7 1.4-.9c.6-.2 1.2-.3 1.8-.3s1.3.1 1.9.2c.6.2 1.1.4 1.5.8l-1.3 1.4c-.2-.3-.5-.5-.9-.6s-.8-.2-1.2-.2-.7.1-1.1.2c-.3.1-.6.3-.8.6-.2.2-.4.5-.5.9-.1.3-.2.7-.2 1.1s.1.7.2 1.1c.1.3.3.6.5.9.2.2.5.4.8.6.3.1.7.2 1.1.2s.7 0 1.1-.1c.2-.1.5-.2.7-.3v-1.4h-1.5v-1.7h3.3v4.4zM84.5 65.2H86l3.7 8.4h-2.1l-.7-1.8h-3.3l-.7 1.8h-2.1zm.7 2.5-1 2.6h2.1zM90.5 65.2h2.8l1.9 5.5 2-5.5h2.8v8.4h-1.9v-6.5L96 73.7h-1.4l-2.1-6.5v6.5h-1.9zM101.8 65.2h1.9v8.4h-1.9zM105.3 65.2h2.5l3.6 5.9v-5.9h1.9v8.4h-2.4l-3.7-6v6h-1.9zM122.7 73.1c-.5.3-1.1.5-1.7.6s-1.2.2-1.8.2-1.2-.1-1.8-.3c-.5-.2-1-.5-1.4-.9s-.7-.9-.9-1.4c-.5-1.2-.5-2.5 0-3.7.2-.5.5-1 .9-1.4s.9-.7 1.4-.9c.6-.2 1.2-.3 1.8-.3s1.3.1 1.9.2c.6.2 1.1.4 1.5.8l-1.3 1.4c-.2-.3-.5-.5-.9-.6s-.8-.2-1.2-.2-.7.1-1.1.2c-.3.1-.6.3-.8.6-.2.2-.4.5-.5.9-.1.3-.2.7-.2 1.1s.1.7.2 1.1c.1.3.3.6.5.9.2.2.5.4.8.6.3.1.7.2 1.1.2s.7 0 1.1-.1c.2-.1.5-.2.7-.3v-1.4h-1.5v-1.7h3.3v4.4z"/></g></svg>