<svg width="162" height="56" viewBox="0 0 162 56" fill="none" xmlns="http://www.w3.org/2000/svg">
<path d="M55.2506 55.656C53.9418 55.3103 52.8716 54.4706 52.3201 53.3429C51.7685 52.1986 51.7521 52.0998 51.7109 48.4778L51.678 45.2015H52.8798H54.0817V48.0662C54.0817 51.6553 54.164 52.1657 54.872 52.8901C55.3988 53.4334 55.7363 53.5569 56.7159 53.5569C57.4486 53.5569 57.6297 53.5322 57.9095 53.3758C58.3294 53.1535 58.7904 52.6678 59.0126 52.2315C59.2925 51.6635 59.3501 50.9638 59.3501 48.025V45.2015H60.552H61.7539L61.7127 48.4366C61.6715 52.034 61.6468 52.2315 61.1035 53.3429C60.5191 54.52 59.3419 55.4091 57.9919 55.6972C57.1851 55.8701 55.9915 55.8454 55.2506 55.656V55.656Z" fill="white"/>
<path d="M129.091 55.6972C127.123 55.2692 125.444 53.5734 125 51.573C124.81 50.7251 124.86 49.408 125.115 48.6589C125.806 46.6256 127.535 45.2344 129.7 44.9628C132.984 44.5594 135.866 47.0784 135.857 50.3465C135.849 51.927 135.372 53.0712 134.269 54.1743C133.462 54.981 132.746 55.4009 131.741 55.6561C130.992 55.8454 129.873 55.8619 129.091 55.6972ZM131.643 53.3347C133.182 52.6267 133.89 50.791 133.273 49.1199C133.059 48.5519 132.384 47.7946 131.816 47.49C130.663 46.8726 129.264 47.0455 128.292 47.9263C126.481 49.5891 127.074 52.6349 129.362 53.4581C129.972 53.6722 131.017 53.6145 131.643 53.3347Z" fill="white"/>
<path d="M3.02713 55.5738C2.632 55.4915 2.17101 55.3762 1.99814 55.3268C1.45484 55.1457 0.491699 54.7341 0.491699 54.6683C0.491699 54.6189 1.30666 52.7749 1.35605 52.7091C1.36428 52.7008 1.6524 52.7914 1.98168 52.9231C3.9738 53.7134 6.29521 53.7874 6.78912 53.0795C6.99492 52.7914 6.94553 52.3469 6.69034 52.0999C6.35283 51.7871 6.07295 51.6718 4.85462 51.3343C2.74725 50.7581 2.17924 50.5111 1.51246 49.8855C0.91976 49.3175 0.705729 48.8071 0.705729 47.9592C0.705729 47.1278 0.903296 46.6833 1.52069 46.1153C2.92835 44.8311 6.3446 44.6829 8.78125 45.7942L9.20108 45.9836L8.78948 46.8891C8.55899 47.3912 8.36965 47.8028 8.35319 47.8193C8.33673 47.8358 7.99922 47.737 7.59585 47.6053C6.62449 47.276 5.80129 47.1525 4.81346 47.1854C3.85856 47.2266 3.38111 47.3995 3.25763 47.7781C3.06829 48.3214 3.46343 48.6672 4.68998 49.0376C7.40652 49.8526 8.08154 50.1572 8.74832 50.8816C9.30809 51.4825 9.50566 52.0423 9.44804 52.8572C9.34102 54.2567 8.37789 55.228 6.69034 55.6067C5.85892 55.7878 3.97381 55.7796 3.02713 55.5738Z" fill="white"/>
<path d="M154.709 55.615C153.886 55.4668 153.243 55.2692 152.56 54.9564L151.959 54.6765L152.116 54.3225C152.725 52.9149 152.865 52.6762 153.005 52.742C154.025 53.1948 155.713 53.5981 156.61 53.5981C157.87 53.5981 158.644 53.0384 158.347 52.3304C158.191 51.96 157.631 51.6883 156.223 51.3014C154.124 50.717 153.416 50.3877 152.782 49.6715C152.379 49.2105 152.181 48.626 152.19 47.9016C152.198 46.6092 153.145 45.6379 154.775 45.2427C156.363 44.8558 158.734 45.0863 160.191 45.7613L160.677 45.9836L160.257 46.9385L159.829 47.8934L159.335 47.6958C158.561 47.3748 157.524 47.1772 156.627 47.1772C155.606 47.1772 155.145 47.2925 154.882 47.6053C154.626 47.9099 154.626 48.091 154.882 48.3955C155.12 48.6837 155.565 48.8648 157.104 49.3175C159.121 49.9102 160.216 50.5688 160.702 51.4661C160.866 51.7789 160.891 51.9435 160.891 52.6515C160.891 53.3265 160.858 53.5487 160.71 53.8616C160.331 54.693 159.343 55.368 158.15 55.615C157.409 55.7631 155.54 55.7714 154.709 55.615V55.615Z" fill="white"/>
<path d="M29.2213 51.4989V47.4241H27.4926H25.7639V46.354V45.2838H30.4561H35.1483V46.354V47.4241H33.3784H31.6086V51.4989V55.5737H30.415H29.2213V51.4989Z" fill="white"/>
<path d="M79.0244 50.4288V45.2756L81.8891 45.3003L84.7456 45.325L85.4042 45.5555C86.285 45.8683 86.8777 46.2387 87.4786 46.8643C88.3923 47.8192 88.8204 48.9552 88.8204 50.4288C88.8204 52.4538 87.8655 54.0837 86.178 54.9069C84.9761 55.4914 84.8279 55.5161 81.7656 55.5572L79.0244 55.5902V50.4288V50.4288ZM84.7127 53.1206C85.363 52.8654 85.7993 52.4538 86.1203 51.8035C86.3755 51.2849 86.392 51.2026 86.392 50.3876C86.392 49.3751 86.252 48.9882 85.6923 48.379C85.0337 47.6628 84.2188 47.4323 82.383 47.4241H81.4117V50.3958V53.3676L82.8358 53.3346C84.0377 53.3017 84.3175 53.2688 84.7127 53.1206V53.1206Z" fill="white"/>
<path d="M105.696 50.4288V45.2838H106.889H108.083V50.4288V55.5737H106.889H105.696V50.4288Z" fill="white"/>
<path d="M1.47949 14.6199V0L9.69496 0.0329278C17.7622 0.0576236 17.9187 0.0658556 18.7254 0.238726C20.4541 0.617395 22.1334 1.30888 23.2859 2.12384C24.5207 2.99642 25.8295 4.50286 26.4881 5.81174C26.8421 6.52792 27.2207 7.63923 27.4265 8.59413C27.6653 9.73837 27.69 11.854 27.4595 13.0558C26.7515 16.8672 24.3149 19.7155 20.6599 21.0326C19.3345 21.51 17.5318 21.8228 16.0912 21.8146H15.268L12.9219 18.8017C11.6295 17.1389 10.5675 15.7559 10.5511 15.723C10.5346 15.6901 11.9258 15.6489 13.6381 15.6242C16.2887 15.5995 16.8238 15.5748 17.2436 15.4513C18.8983 14.9656 20.1413 13.7638 20.6105 12.1997C20.7834 11.6235 20.7834 10.3311 20.6187 9.68075C20.2977 8.44596 19.3839 7.35934 18.1903 6.76665C17.0378 6.19864 16.865 6.18218 12.3292 6.18218H8.31199V17.7069V29.2316H4.89574H1.47949V14.6199V14.6199Z" fill="white"/>
<path d="M38.0293 14.6199V0L46.3682 0.0329278C54.5261 0.0576236 54.7154 0.0576231 55.4645 0.230494C59.0207 1.05369 61.5808 2.92233 63.0544 5.77881C63.8611 7.35111 64.2315 8.86579 64.2315 10.6686C64.2398 12.7677 63.7129 14.4964 62.5769 16.1017C61.7208 17.3117 60.0168 18.7276 58.7408 19.2792C58.4856 19.3862 58.2798 19.4932 58.2798 19.5179C58.2798 19.5426 59.9345 21.7076 61.9513 24.3336C63.9681 26.9596 65.6392 29.1328 65.6556 29.174C65.6803 29.2069 63.9681 29.2316 61.8443 29.2316H57.9917L52.5833 22.1933L47.175 15.155H49.8833C52.7891 15.155 53.53 15.0974 54.4932 14.7763C56.8228 13.9943 57.9506 11.6976 57.2015 9.26915C56.7981 7.96027 55.7115 6.96421 54.1639 6.50322C53.5629 6.32212 53.4312 6.31389 49.2083 6.28096L44.8618 6.25626V17.7398V29.2316H41.4455H38.0293V14.6199V14.6199Z" fill="white"/>
<path d="M76.9663 14.6199V0.00823975H80.3826H83.7988V14.6199V29.2316H80.3826H76.9663V14.6199Z" fill="white"/>
<path d="M96.97 14.6199V0.00823975H99.7112L102.444 0.0164715L113.598 14.5541C119.731 22.5473 124.769 29.1246 124.777 29.1657C124.794 29.1987 122.999 29.2234 120.785 29.2151L116.768 29.1904L110.306 20.9256L103.844 12.6689L103.819 20.9503L103.802 29.2316H100.386H96.97V14.6199Z" fill="white"/>
<path d="M144.797 17.748V6.26451H139.899H135.001V3.13637V0.00823975H148.255H161.508V3.13637V6.26451H156.569H151.63V17.748V29.2316H148.214H144.797V17.748Z" fill="white"/>
<path d="M120.826 15.4266L117.476 11.1625L117.467 5.58949V0.00823975H120.842H124.217V9.84539C124.217 15.2538 124.209 19.6825 124.193 19.6825C124.185 19.6825 122.67 17.7645 120.826 15.4266Z" fill="white"/>
</svg>
