<svg width="159" height="85" viewBox="0 0 159 85" fill="none" xmlns="http://www.w3.org/2000/svg">
<path d="M55.8149 82.6421C54.5831 82.6421 53.6446 82.3184 52.9989 81.6706C52.3609 81.023 52.0419 80.0255 52.0419 78.678C52.0419 77.7994 52.1902 77.0661 52.4871 76.478C52.7837 75.8898 53.2215 75.4505 53.8003 75.1603C54.379 74.8624 55.084 74.7136 55.9149 74.7136C56.4343 74.7136 56.9055 74.7695 57.3283 74.8811C57.7514 74.9929 58.1149 75.1642 58.4192 75.3949C58.7308 75.6182 58.9682 75.9011 59.1312 76.2436C59.3019 76.5859 59.3874 76.9918 59.3874 77.4607H58.3077C58.3077 77.1332 58.2485 76.8539 58.1297 76.6232C58.0109 76.385 57.8404 76.1913 57.6178 76.0425C57.4026 75.8937 57.1502 75.7893 56.861 75.7298C56.5715 75.6629 56.2636 75.6292 55.9372 75.6292C55.492 75.6292 55.0949 75.6851 54.7464 75.7969C54.3976 75.9085 54.1045 76.0833 53.8672 76.3217C53.6296 76.5599 53.4479 76.8652 53.3218 77.2373C53.1956 77.6095 53.1325 78.0526 53.1325 78.5662V78.8008C53.1325 79.493 53.2365 80.0551 53.4441 80.487C53.6593 80.9186 53.9672 81.2351 54.3679 81.436C54.7685 81.6298 55.2509 81.7265 55.8149 81.7265C56.386 81.7265 56.8572 81.6484 57.2283 81.4919C57.5992 81.3283 57.8737 81.0825 58.0518 80.755C58.2373 80.4275 58.3301 80.0143 58.3301 79.5155V79.3815H55.6368V78.4769H59.3984V82.5081H58.5973L58.4858 81.5366C58.2856 81.7972 58.048 82.0093 57.7735 82.1732C57.499 82.3368 57.1947 82.456 56.861 82.5306C56.5346 82.6048 56.1858 82.6421 55.8149 82.6421ZM63.6934 82.5081L66.7096 74.8476H68.1006L71.128 82.5081H69.9816L69.2358 80.6098H65.5185L64.784 82.5081H63.6934ZM65.8637 79.7051H68.8796L67.9559 77.3045C67.9337 77.2373 67.9004 77.1444 67.8559 77.0252C67.8114 76.906 67.763 76.7758 67.7111 76.6344C67.6592 76.4853 67.6073 76.3365 67.5552 76.1877C67.5033 76.0312 67.4552 75.8898 67.4107 75.7632H67.3438C67.2919 75.9123 67.2326 76.0833 67.1657 76.2771C67.099 76.4705 67.0321 76.6605 66.9655 76.8465C66.8986 77.0252 66.8431 77.1779 66.7986 77.3045L65.8637 79.7051ZM75.4978 82.5081V74.8476H77.1339L78.8701 79.8169C78.9146 79.951 78.9592 80.0998 79.0037 80.2636C79.0556 80.4199 79.1001 80.5689 79.1373 80.7103C79.1818 80.8517 79.2151 80.9745 79.2372 81.0789H79.3153C79.3375 80.9671 79.3672 80.8405 79.4041 80.6991C79.4413 80.5503 79.4822 80.3976 79.5267 80.2412C79.5713 80.085 79.612 79.9436 79.6491 79.8169L81.3854 74.8476H83.0102V82.5081H81.953V78.0192C81.953 77.7882 81.9565 77.5388 81.9641 77.2708C81.9715 76.9954 81.9789 76.746 81.9863 76.5226C81.9937 76.2919 81.9975 76.128 81.9975 76.0313H81.9084C81.886 76.128 81.8492 76.2658 81.797 76.4445C81.7451 76.6158 81.6894 76.798 81.6301 76.9918C81.5782 77.1779 81.5299 77.3453 81.4854 77.4941L79.6936 82.5081H78.7811L76.9891 77.4941C76.9446 77.3678 76.8965 77.2225 76.8443 77.0587C76.7998 76.8874 76.7517 76.7125 76.6998 76.5339C76.6553 76.3552 76.6108 76.1877 76.5663 76.0313H76.4882C76.4958 76.1951 76.4994 76.3998 76.4994 76.6454C76.5068 76.8838 76.5106 77.1258 76.5106 77.3713C76.5179 77.6095 76.5218 77.8254 76.5218 78.0192V82.5081H75.4978ZM88.2598 82.5081V74.8476H94.1362V75.7632H89.3171V78.1307H93.6464V79.0463H89.3171V81.5925H94.2031V82.5081H88.2598ZM101.935 82.6421C101.52 82.6421 101.119 82.6013 100.733 82.5193C100.355 82.4374 100.017 82.3072 99.7205 82.1285C99.4236 81.9425 99.1863 81.704 99.0082 81.4138C98.8375 81.1236 98.7523 80.7662 98.7523 80.3417C98.7523 80.3045 98.7523 80.2672 98.7523 80.2302C98.7596 80.1929 98.7635 80.1557 98.7635 80.1184H99.8319C99.8319 80.1409 99.8281 80.1779 99.8207 80.2302C99.8207 80.2749 99.8207 80.3157 99.8207 80.353C99.8207 80.6509 99.9098 80.9038 100.088 81.1124C100.266 81.3206 100.511 81.4771 100.822 81.5813C101.141 81.678 101.501 81.7265 101.902 81.7265C102.08 81.7265 102.266 81.7153 102.458 81.6931C102.659 81.6706 102.848 81.6333 103.026 81.5813C103.211 81.5218 103.375 81.4473 103.516 81.3579C103.664 81.2612 103.779 81.1458 103.861 81.0118C103.95 80.8704 103.994 80.6991 103.994 80.4982C103.994 80.245 103.92 80.0365 103.772 79.8728C103.631 79.7016 103.442 79.5637 103.204 79.4596C102.967 79.348 102.696 79.251 102.392 79.1694C102.095 79.08 101.787 78.9943 101.468 78.9123C101.149 78.8306 100.837 78.7375 100.533 78.6333C100.236 78.5215 99.9691 78.3875 99.7317 78.2313C99.4943 78.0674 99.3013 77.8665 99.1529 77.6281C99.012 77.39 98.9415 77.0998 98.9415 76.7572C98.9415 76.4371 99.0046 76.1505 99.1305 75.8972C99.2641 75.6443 99.4572 75.4322 99.7093 75.2609C99.9691 75.0822 100.288 74.9482 100.667 74.8589C101.045 74.7621 101.479 74.7136 101.969 74.7136C102.369 74.7136 102.74 74.7583 103.082 74.8476C103.43 74.9296 103.735 75.0597 103.994 75.2384C104.261 75.4097 104.469 75.6292 104.617 75.8972C104.766 76.1653 104.84 76.4892 104.84 76.8687V77.0028H103.794V76.8353C103.794 76.5823 103.716 76.3664 103.56 76.1877C103.404 76.009 103.189 75.8712 102.915 75.7745C102.648 75.6777 102.343 75.6292 102.002 75.6292C101.557 75.6292 101.186 75.6739 100.889 75.7632C100.592 75.8452 100.37 75.9679 100.221 76.1318C100.08 76.2883 100.01 76.467 100.01 76.6679C100.01 76.8986 100.08 77.0921 100.221 77.2486C100.37 77.4048 100.563 77.5352 100.8 77.6394C101.038 77.7361 101.308 77.8254 101.612 77.9074C101.917 77.9893 102.225 78.0748 102.536 78.1642C102.855 78.2461 103.163 78.3428 103.46 78.4546C103.764 78.5588 104.035 78.6928 104.272 78.8567C104.517 79.0129 104.71 79.214 104.851 79.4596C104.992 79.6977 105.063 79.9918 105.063 80.3417C105.063 80.8852 104.929 81.3283 104.662 81.6706C104.395 82.0058 104.028 82.2513 103.56 82.4078C103.093 82.564 102.551 82.6421 101.935 82.6421Z" fill="white"/>
<path fill-rule="evenodd" clip-rule="evenodd" d="M0 54.7212V71.9573H8.86467C9.88303 71.9573 10.7845 71.7983 11.5691 71.48C12.3538 71.1617 12.9798 70.6593 13.4473 69.9724C13.9147 69.2858 14.1484 68.3812 14.1484 67.2588C14.1484 66.4213 13.9982 65.7178 13.6977 65.1484C13.4139 64.562 13.0299 64.0931 12.5458 63.7414C12.0616 63.3894 11.5191 63.1467 10.9181 63.0126V62.9121C11.4523 62.7278 11.9281 62.4516 12.3454 62.083C12.7628 61.7144 13.0883 61.2539 13.3221 60.7011C13.5558 60.1484 13.6726 59.5453 13.6726 58.8921C13.6726 58.0377 13.4723 57.3008 13.0716 56.681C12.6877 56.0613 12.1368 55.5837 11.4189 55.2488C10.7011 54.8971 9.84963 54.7212 8.86467 54.7212H0ZM8.83964 69.8971H2.37894V64.1432H8.6393C9.32376 64.1432 9.89138 64.2522 10.3421 64.4699C10.7929 64.671 11.1351 64.9891 11.3688 65.4248C11.6025 65.8434 11.7194 66.371 11.7194 67.0076C11.7194 68.046 11.4523 68.7916 10.9181 69.2437C10.3839 69.6794 9.69104 69.8971 8.83964 69.8971ZM8.41392 62.108H2.37894V56.7814H8.58923C9.39054 56.7814 10.0333 56.9993 10.5174 57.4348C11.0016 57.8534 11.2436 58.515 11.2436 59.4197C11.2436 59.9389 11.1184 60.408 10.868 60.8266C10.6343 61.2287 10.3087 61.547 9.89138 61.7815C9.47401 61.9993 8.98154 62.108 8.41392 62.108ZM20.6903 71.5553C21.7421 72.0244 22.9941 72.2588 24.4465 72.2588C25.9157 72.2588 27.176 72.0244 28.2277 71.5553C29.2962 71.0864 30.1143 70.3494 30.6819 69.3442C31.2495 68.3225 31.5334 67.0161 31.5334 65.4248V54.7212H29.1794V65.676C29.1794 67.1835 28.762 68.314 27.9273 69.0678C27.0926 69.8216 25.9323 70.1986 24.4465 70.1986C22.9774 70.1986 21.8339 69.8216 21.0159 69.0678C20.2145 68.314 19.8139 67.1835 19.8139 65.676V54.7212H17.4349V65.4248C17.4349 67.0161 17.7104 68.3225 18.2613 69.3442C18.8289 70.3494 19.6386 71.0864 20.6903 71.5553ZM35.8015 71.9573V54.7212H38.1804V69.8719H46.7195V71.9573H35.8015ZM49.2269 54.7212V71.9573H60.145V69.8719H51.6061V54.7212H49.2269Z" fill="white"/>
<path d="M108.914 66.7821L106.689 66.5031L105.437 66.2239L105.993 68.5967L107.384 67.8989L106.271 67.6196L108.914 66.7821Z" fill="white"/>
<path fill-rule="evenodd" clip-rule="evenodd" d="M75.023 55.7261C73.604 54.8217 71.7926 54.3694 69.589 54.3694C67.3521 54.3694 65.4988 54.8217 64.0299 55.7261C62.5775 56.6138 61.8512 58.0042 61.8512 59.8969C61.8512 61.1867 62.1934 62.2085 62.878 62.9623C63.5623 63.7161 64.3637 64.2605 65.2818 64.5954C66.2002 64.9137 67.3602 65.2236 68.7627 65.5251C69.9147 65.7596 70.741 65.9858 71.2416 66.2035C71.7593 66.4047 72.018 66.7145 72.018 67.1332C72.018 67.6023 71.7843 67.9122 71.3169 68.0628C70.8661 68.2137 70.2902 68.289 69.589 68.289C68.6373 68.289 67.9362 68.1465 67.4854 67.8619C67.0349 67.5605 66.8095 66.9741 66.8095 66.103H61.5757C61.5757 68.398 62.3185 69.9976 63.8045 70.902C65.307 71.8066 67.4019 72.2589 70.0899 72.2589C72.3935 72.2589 74.23 71.7648 75.599 70.7764C76.9847 69.7881 77.6774 68.2721 77.6774 66.2288C77.6606 65.0227 77.3185 64.0678 76.6507 63.3643C75.9829 62.6608 75.1983 62.1582 74.2967 61.8568C73.4119 61.5385 72.2768 61.237 70.8911 60.9524C69.7058 60.7178 68.8462 60.4917 68.3119 60.274C67.7777 60.0562 67.5106 59.7211 67.5106 59.269C67.5106 58.9507 67.7027 58.6827 68.0865 58.465C68.4872 58.2472 69.0548 58.1382 69.7892 58.1382C70.5405 58.1382 71.0999 58.3057 71.467 58.6408C71.8344 58.9757 72.018 59.3946 72.018 59.8969V59.9975H77.2017V59.6961C77.1681 57.9373 76.4421 56.6138 75.023 55.7261ZM92.0431 65.3995V71.9572H97.5774V54.6708H92.0431V60.9774H85.9581V54.6708H80.4239V71.9572H85.9581V65.3995H92.0431ZM118.433 71.9572L113.088 70.551C108.636 63.0136 107.245 63.8508 107.106 65.2466C106.994 66.3664 105.576 70.83 105.576 70.83C103.766 71.3063 102.427 71.507 101.414 71.6588C100.751 71.7581 100.228 71.8365 99.8046 71.9572H99.681L105.966 54.6708H112.402L118.687 71.9572H118.433ZM136.275 62.8367C136.842 61.9824 137.126 61.0277 137.126 59.9725C137.126 59.0176 136.901 58.1382 136.45 57.3342C136.016 56.5135 135.357 55.8685 134.472 55.3996C133.603 54.9138 132.552 54.6708 131.316 54.6708H120.774V71.9572H126.308V65.6509H128.362L131.417 71.9572H137.627L133.796 64.7213C134.881 64.3192 135.707 63.6911 136.275 62.8367ZM131.041 59.0679C131.341 59.3693 131.492 59.7463 131.492 60.1987C131.492 60.6507 131.341 61.0361 131.041 61.3542C130.74 61.6559 130.373 61.8065 129.939 61.8065H126.308V58.6156H129.939C130.373 58.6156 130.74 58.7664 131.041 59.0679ZM151.933 54.6708H158.795L152.61 61.7815L158.92 71.9572H152.384L148.803 65.6256L145.798 68.0881V71.9572H140.264V54.6708H145.798V62.0579L151.933 54.6708Z" fill="white"/>
<path d="M108.914 66.7821L106.689 66.5031L105.437 66.2239L105.993 68.5967L107.384 67.8989L106.271 67.6196L108.914 66.7821Z" fill="white"/>
<path d="M63.3502 22.5769L63.3983 22.8655C63.4047 22.7296 63.3838 22.6417 63.3502 22.5769Z" fill="white"/>
<path d="M104.134 35.165C103.191 32.3562 99.8185 30.8359 98.8085 30.4364C97.3386 29.857 95.8498 29.6499 94.4112 29.6854V29.2066C94.4112 26.2471 93.0522 23.6058 90.9236 21.872C91.4044 21.0312 91.7514 20.1047 91.9377 19.1197C90.9236 19.8036 89.255 20.6611 85.3596 21.6273C78.4387 23.3423 76.8579 24.7874 76.8579 24.7874C76.3747 25.1074 75.9733 25.5319 75.6431 26.0131C75.7934 25.3061 76.3267 24.6745 76.3267 24.6745C76.3267 24.6745 75.0679 25.2977 74.5034 26.9208C74.0289 28.28 74.2609 29.3258 74.2943 29.4575C73.9473 28.257 73.9806 27.1592 74.3947 26.1803C75.7853 22.8884 81.1358 21.3784 84.0108 20.567C84.4334 20.4478 84.7992 20.3453 85.1065 20.2491C85.2759 20.1968 89.2382 18.9607 89.4537 17.9255C89.4975 17.7122 89.4285 17.4988 89.2634 17.3587C89.0082 17.1391 88.6277 17.0973 87.4378 17.5386C86.6874 17.8167 86.3716 17.7205 86.2712 17.6662C86.175 17.6139 86.1498 17.5344 86.1478 17.5344L86.1144 16.8317L85.4265 17.1224C83.2748 18.0322 82.7083 17.8586 82.6162 17.8167C82.6162 17.7916 82.6205 17.7498 82.6266 17.7289L82.9299 16.9551L82.1018 17.0157C80.8891 17.1057 79.9755 16.8714 79.3838 16.3172C80.4668 16.5577 81.8489 16.5284 82.9467 15.7964C83.4735 15.4451 83.8144 15.4576 83.8938 15.5392C83.9335 15.5957 83.9732 15.8069 83.9732 15.9617V16.6874L84.6611 16.4573C88.3496 15.2213 91.2266 16.9739 91.2538 16.9906L91.4797 17.1329L91.7265 17.0346C94.0118 16.1206 96.6904 13.3767 96.8033 13.2596L97.2589 12.7911L96.7008 12.4502C95.3939 11.6513 93.8279 10.9611 92.0923 10.4006V8.8885C92.0923 3.97996 88.1133 0 83.2059 0H70.5515V9.54941C62.7231 7.91391 56.0782 11.143 55.7813 11.2915L54.696 11.8311L55.8335 12.2515C60.9166 14.1275 62.9175 16.5389 63.4527 17.3064C62.4346 18.9545 62.0144 21.232 61.9055 21.9201C55.2837 27.7069 55.0891 33.2723 55.083 33.5086L55.0578 34.7027L55.9528 33.9122C58.6835 31.4967 61.6694 31.5511 61.6964 31.5572L62.2588 31.5761L62.236 31.0135C62.2131 30.4719 62.2484 29.9677 62.3133 29.5162C63.6619 35.4746 69.134 40.0401 75.3859 40.0401C75.4904 40.0401 75.595 40.0401 75.6996 40.036C79.3815 39.9459 81.1631 39.3479 82.8861 38.7684C84.0736 38.3689 85.2927 37.9633 87.1934 37.7186C86.9758 38.7559 86.0536 39.5403 84.9518 39.5403H83.2415C80.1678 40.4082 78.0454 40.5963 75.9568 40.5963C75.4569 40.5963 74.9593 40.5858 74.4492 40.5713C73.1108 40.5315 71.7958 40.3035 70.5559 39.9041V46.7117H84.9518C89.9093 46.7117 93.9721 42.8969 94.3756 38.0427C97.8174 39.0676 99.0634 41.2217 99.1303 41.3429L99.9897 42.9199L100.111 41.1277C100.306 38.2561 99.1743 36.4847 98.4989 35.6941C100.876 34.2468 103.252 35.7087 103.358 35.7758L104.607 36.5704L104.136 35.167L104.134 35.165ZM84.9518 26.9164C86.2147 26.9164 87.2414 27.9433 87.2414 29.2066V31.6014C86.0788 32.1617 85.1505 32.7181 84.5649 33.0693C84.3746 33.1845 84.222 33.2764 84.1133 33.3351C81.1694 34.9539 79.3919 34.7091 78.3341 33.998C78.0853 33.8662 77.8844 33.6927 77.7236 33.4918C77.6251 33.3685 77.5417 33.2368 77.4684 33.0967C77.2445 32.6637 77.1443 32.1721 77.1046 31.7415C77.0461 31.1138 77.113 30.6184 77.113 30.6184C77.2468 31.4025 77.4936 31.8668 77.7236 32.143V30.1541C80.3622 30.0515 81.8153 31.4194 81.8802 31.4842L82.677 32.2663L82.7688 31.1536C82.909 29.4514 82.5139 28.027 81.5981 26.9164H84.9518ZM85.9409 12.7011L85.3596 12.3435L84.2367 11.6554C84.6048 11.6157 84.9895 11.6178 85.3596 11.6387C86.5367 11.7077 87.5864 11.9964 87.5864 11.9964L85.943 12.7011H85.9409ZM77.2885 7.86789V6.73226H83.2079C84.3934 6.73226 85.3596 7.69641 85.3596 8.88431V8.98261C84.1802 8.85085 82.9779 8.76929 81.7673 8.7463C76.6884 8.65428 72.8098 9.66652 71.9965 9.89865C74.148 8.72536 75.9565 8.15025 77.2906 7.86789H77.2885ZM56.3334 32.2538C56.3479 32.1951 56.3626 32.1326 56.3771 32.0698C56.3771 32.0654 56.3771 32.0613 56.3792 32.0593C56.3939 32.0006 56.4107 31.938 56.4272 31.8753C56.4295 31.8668 56.4316 31.8584 56.4336 31.8502C56.4504 31.7915 56.4649 31.731 56.4837 31.6703C56.488 31.6578 56.4921 31.6453 56.4941 31.6325C56.5109 31.5741 56.5277 31.5156 56.5466 31.4548C56.5506 31.438 56.557 31.4214 56.5633 31.4046C56.5822 31.3461 56.5987 31.2897 56.6175 31.2289C56.6239 31.208 56.6323 31.1871 56.6386 31.1662C56.6572 31.1097 56.676 31.0513 56.6972 30.9926C56.7055 30.9696 56.7137 30.9446 56.7221 30.9216C56.7429 30.865 56.7618 30.8065 56.7829 30.7501C56.7933 30.7207 56.8037 30.6914 56.8162 30.6623C56.8371 30.6079 56.8582 30.5512 56.879 30.4969C56.8915 30.4634 56.9063 30.43 56.9187 30.3966C56.9396 30.3422 56.9605 30.2878 56.9836 30.2335C56.9981 30.198 57.0149 30.1602 57.0294 30.1227C57.0526 30.0703 57.0734 30.016 57.0963 29.9616C57.1131 29.9218 57.1319 29.8822 57.1487 29.8404C57.1716 29.788 57.1948 29.7357 57.2197 29.6813C57.2385 29.6395 57.2596 29.5956 57.2805 29.5517C57.3054 29.4993 57.3286 29.447 57.3535 29.3947C57.3746 29.3487 57.3975 29.3028 57.4204 29.2568C57.4456 29.2045 57.4708 29.1542 57.4957 29.1019C57.5209 29.0539 57.5461 29.0036 57.571 28.9536C57.5962 28.9033 57.6234 28.851 57.6506 28.801C57.6776 28.7486 57.7069 28.6943 57.7364 28.6419C57.7633 28.5917 57.7885 28.5437 57.8158 28.4934C57.847 28.439 57.8783 28.3826 57.9099 28.3262C57.9371 28.2759 57.9641 28.2279 57.9933 28.1776C58.0269 28.1212 58.0602 28.0645 58.0938 28.0061C58.1231 27.9558 58.1523 27.9058 58.1836 27.8555C58.2192 27.797 58.2569 27.7363 58.2945 27.6758C58.3238 27.6276 58.353 27.5796 58.3843 27.5313C58.4243 27.4685 58.466 27.406 58.5057 27.3432C58.537 27.295 58.5685 27.247 58.5998 27.1987C58.6415 27.1362 58.6855 27.0714 58.7296 27.0065C58.7629 26.9583 58.7942 26.9103 58.8278 26.862C58.8738 26.7972 58.9199 26.7303 58.9679 26.6655C59.0013 26.6175 59.0348 26.5693 59.0702 26.5213C59.1183 26.4544 59.1687 26.3873 59.2188 26.3204C59.2544 26.2724 59.2897 26.2242 59.3274 26.1762C59.3775 26.1093 59.432 26.0422 59.4844 25.9753C59.522 25.9273 59.5597 25.877 59.5994 25.829C59.6535 25.7599 59.7123 25.6889 59.7685 25.6197C59.8062 25.5717 59.8438 25.5258 59.8838 25.4776C59.9443 25.4044 60.0049 25.3333 60.0677 25.2601C60.1074 25.2141 60.145 25.1681 60.1847 25.122C60.2476 25.0489 60.3122 24.9757 60.3771 24.9045C60.419 24.8585 60.4587 24.8104 60.5004 24.7644C60.5653 24.6933 60.6322 24.6222 60.6971 24.5511C60.7431 24.503 60.7869 24.4528 60.8329 24.4047C60.8998 24.3336 60.9688 24.2625 61.0377 24.1914C61.0858 24.1412 61.1319 24.0931 61.1799 24.0429C61.2512 23.9718 61.3242 23.8986 61.3974 23.8275C61.4476 23.7773 61.4956 23.7292 61.546 23.679C61.6213 23.6037 61.7007 23.5305 61.778 23.4552C61.8281 23.4071 61.8762 23.3611 61.9266 23.313C62.0123 23.2314 62.1021 23.1499 62.1919 23.0683C62.236 23.0264 62.28 22.9867 62.3258 22.9449C62.4619 22.8236 62.6018 22.7002 62.742 22.5768L62.8926 22.4471L62.9175 22.2505C62.9175 22.2505 62.9175 22.2359 62.9238 22.2129V22.2087C62.9259 22.1941 62.9302 22.1711 62.9322 22.1481C62.9322 22.1397 62.9343 22.1293 62.9363 22.1188C62.9386 22.1 62.9427 22.0811 62.9467 22.0602C62.9467 22.0477 62.9511 22.0351 62.9531 22.0205C62.9574 21.9954 62.9615 21.9682 62.9679 21.941C62.9699 21.9264 62.9719 21.9138 62.974 21.8992C62.9803 21.8594 62.9887 21.8155 62.9971 21.7695C62.9971 21.7632 62.9992 21.757 63.0012 21.7507C63.0055 21.7507 63.0075 21.7465 63.0116 21.7444C63.022 21.6733 63.0325 21.6022 63.0432 21.5332C63.0432 21.5269 63.0432 21.5227 63.0452 21.5165C63.0556 21.46 63.0681 21.4014 63.0806 21.3387C63.0806 21.3387 63.0806 21.3345 63.0806 21.3324C63.0933 21.2739 63.1057 21.2111 63.1205 21.1484C63.1225 21.1358 63.1246 21.1254 63.1289 21.1128C63.1582 20.979 63.1935 20.8367 63.2312 20.6883C63.2355 20.6715 63.2396 20.6569 63.2439 20.6401C63.2584 20.5795 63.2752 20.5188 63.292 20.4582C63.296 20.4415 63.3001 20.4247 63.3044 20.408C63.3253 20.3327 63.3462 20.2553 63.3693 20.178C63.3734 20.1654 63.3777 20.1529 63.3797 20.1403C63.3986 20.0755 63.4194 20.0085 63.4382 19.9437C63.4446 19.9207 63.4527 19.8977 63.4591 19.8768C63.48 19.8099 63.5011 19.7429 63.524 19.676C63.5281 19.6635 63.5324 19.6488 63.5364 19.6363C63.5637 19.5568 63.5909 19.4794 63.6181 19.4C63.6265 19.379 63.6349 19.356 63.641 19.3351C63.6642 19.2745 63.6871 19.2138 63.7099 19.1532C63.7183 19.1302 63.7267 19.1072 63.7372 19.0841C63.7687 19.0047 63.8 18.9273 63.8333 18.8478C63.8377 18.8394 63.8417 18.829 63.846 18.8206C63.8753 18.7516 63.9066 18.6826 63.9379 18.6136C63.9483 18.5906 63.9587 18.5676 63.9694 18.5445C63.9987 18.4818 64.0279 18.4212 64.0592 18.3605C64.0676 18.3438 64.076 18.327 64.0844 18.3103C64.1221 18.235 64.1618 18.1618 64.2014 18.0886C64.2119 18.0719 64.2203 18.0552 64.2307 18.0363C64.264 17.9799 64.2956 17.9234 64.3309 17.869C64.3437 17.8481 64.3561 17.8293 64.3686 17.8084C64.4126 17.7394 64.4566 17.6704 64.5047 17.6034L64.6866 17.3441L64.6657 17.3023C65.3974 16.1541 65.8156 15.1125 65.1422 14.3596C64.3521 13.4729 60.0926 12.1887 57.5898 11.8207C57.5273 11.7935 57.4665 11.7663 57.4016 11.7391C57.4749 11.7119 57.5502 11.6826 57.6295 11.6554C57.6611 11.6429 57.6964 11.6324 57.728 11.6199C57.7761 11.6032 57.8241 11.5843 57.8743 11.5676C57.916 11.553 57.96 11.5383 58.0017 11.5237C58.0457 11.5091 58.0897 11.4923 58.1355 11.4777C58.1859 11.4609 58.2401 11.4421 58.2925 11.4254C58.3322 11.4128 58.3719 11.3982 58.4138 11.3857C58.4724 11.3668 58.5329 11.348 58.5935 11.3271C58.6311 11.3145 58.6688 11.302 58.7084 11.2915C58.7733 11.2706 58.8423 11.2497 58.9092 11.2309C58.9448 11.2204 58.9804 11.21 59.018 11.1974C59.0911 11.1765 59.1664 11.1535 59.2437 11.1326C59.2773 11.1242 59.3086 11.1138 59.3422 11.1054C59.4236 11.0824 59.5052 11.0594 59.5889 11.0364C59.6202 11.028 59.6495 11.0197 59.6808 11.0113C59.7685 10.9883 59.8586 10.9653 59.9484 10.9402C59.9756 10.9339 60.0028 10.9255 60.0321 10.9193C60.1282 10.8942 60.2244 10.8712 60.3229 10.8482C60.3458 10.8419 60.3709 10.8377 60.3938 10.8314C60.4984 10.8063 60.603 10.7812 60.7096 10.7582C60.7284 10.7541 60.7452 10.7499 60.764 10.7457C60.8769 10.7206 60.9919 10.6955 61.109 10.6704C61.1194 10.6683 61.1319 10.6662 61.1423 10.6641C61.268 10.639 61.3934 10.6118 61.5208 10.5888C61.5208 10.5888 61.5249 10.5888 61.5272 10.5888C63.5115 10.2082 65.9181 9.99069 68.5046 10.2835C68.929 10.3316 69.3556 10.3922 69.7883 10.4675C69.7883 10.4675 69.7883 10.4675 69.7904 10.4675C69.9702 10.4989 70.1501 10.5344 70.332 10.5721C70.332 10.5721 70.334 10.5721 70.3363 10.5721C70.4093 10.5867 70.4806 10.6055 70.5536 10.6202C70.6144 10.6327 70.6749 10.6474 70.7334 10.6599C70.7815 10.6704 70.8296 10.6829 70.8777 10.6934C70.767 10.752 70.6604 10.8126 70.5536 10.8733C69.4958 11.4756 68.5695 12.241 68.0091 13.2177C68.7114 12.4815 69.6148 11.9964 70.5536 11.6136C70.928 11.4609 71.3063 11.3229 71.6828 11.1932C72.9541 10.7687 74.4011 10.4801 75.7141 10.1998C75.7497 10.1935 75.7873 10.1894 75.8227 10.1831C75.9524 10.1643 76.0842 10.1455 76.218 10.1266C76.2806 10.1183 76.3414 10.1099 76.404 10.1015C76.6027 10.0764 76.8054 10.0492 77.0146 10.0262C77.0209 10.0262 77.0293 10.0262 77.0357 10.0242C77.1171 10.0158 77.2049 10.0074 77.2885 9.99694C77.4244 9.98232 77.5582 9.96767 77.6984 9.95304C77.7256 9.95095 77.7505 9.94885 77.7778 9.94467C78.0016 9.92376 78.2296 9.90493 78.4616 9.88611C78.4804 9.88611 78.4992 9.88402 78.5181 9.88193C78.746 9.86521 78.9801 9.85056 79.2184 9.838C79.2352 9.838 79.252 9.838 79.2688 9.8359C79.5028 9.82337 79.7433 9.81291 79.986 9.80663C80.0297 9.80663 80.0737 9.80453 80.1175 9.80247C80.3558 9.79619 80.5985 9.78991 80.843 9.78781C80.885 9.78781 80.9267 9.78781 80.9707 9.78781C81.2279 9.78781 81.4872 9.78781 81.7507 9.792C82.0056 9.79619 82.2672 9.80453 82.5348 9.815C82.704 9.82128 82.8777 9.83174 83.0512 9.84218C83.1515 9.84846 83.2499 9.85056 83.3501 9.85893C83.5781 9.87355 83.8124 9.89239 84.0464 9.9112C84.0945 9.91539 84.1426 9.91748 84.1907 9.92167C84.5733 9.95513 84.9663 9.99694 85.3617 10.0451C87.5612 10.3044 89.9116 10.7708 92.0967 11.5028C93.2987 11.9064 94.4509 12.3874 95.4985 12.9584C95.5089 12.9647 95.5194 12.9689 95.5298 12.9751C95.0302 12.858 93.8655 12.6133 92.0967 12.4042C91.0531 12.2808 89.7987 12.1699 88.3432 12.1051L89.2779 11.7956C89.2779 11.7956 87.622 11.2079 85.3617 10.9737C84.4751 10.8816 83.4944 10.8419 82.4844 10.9151L83.4234 12.0842C82.589 12.1114 81.7171 12.1553 80.8077 12.2201C79.6138 12.3038 78.4344 12.5548 77.2926 12.9396C76.7785 13.1132 76.2702 13.3097 75.7746 13.5356C75.5197 12.6719 75.0137 11.8771 74.3403 11.302C74.7 12.1511 74.8987 13.0462 74.93 13.9476C74.6519 13.2156 74.194 12.5485 73.6107 12.0486C73.9264 12.7953 74.1144 13.5775 74.1772 14.3701C74.1709 14.3743 74.1668 14.3764 74.1604 14.3805C73.9348 13.429 73.3995 12.5401 72.6676 11.9127C73.0775 12.8852 73.2802 13.9184 73.2594 14.9536C72.9813 15.1439 72.7073 15.3405 72.4397 15.5455C72.1616 14.9808 71.7726 14.4726 71.3023 14.0689C71.5699 14.7026 71.7477 15.3635 71.8332 16.0328C71.388 16.4051 70.9634 16.8024 70.5599 17.2144C69.4581 18.3375 68.5151 19.5944 67.7875 20.935C65.822 24.5574 65.1633 29.0435 66.2359 32.8184C66.2359 32.8184 63.5136 30.043 63.3902 24.1077C62.5372 24.5386 59.158 26.5274 56.3374 32.2538H56.3334Z" fill="white"/>
</svg>
