<svg width="64" height="85" viewBox="0 0 64 85" fill="none" xmlns="http://www.w3.org/2000/svg">
<path d="M11.5013 84.0892C10.3908 83.797 8.98816 82.9398 8.48163 82.258C7.25429 80.5046 6.96207 78.3616 7.72185 76.5888L8.13096 75.6342L7.04 74.329C3.08523 69.6729 0.864327 64.3739 0.279879 58.1787C-0.18768 53.2109 0.844844 47.795 3.14367 43.2168C7.23481 35.093 14.9885 29.3654 23.7747 27.9822C24.9631 27.7874 26.0151 27.6121 26.132 27.5926C26.2489 27.5536 26.4437 27.0276 26.58 26.4042C26.9307 24.8652 27.3983 24.008 28.3334 23.1508C29.3854 22.2157 30.7491 21.8066 33.0869 21.7676L34.9961 21.7286L35.7169 20.4818C36.5936 18.9817 38.7171 16.6829 40.0223 15.7867C40.5678 15.4166 41.0159 15.0659 41.0159 14.988C41.0159 14.8906 40.2561 14.8321 39.321 14.8321C38.3664 14.8321 37.704 14.7542 37.8209 14.6568C37.9183 14.5789 39.1846 14.0918 40.6263 13.5853C42.0874 13.0788 43.3732 12.6112 43.5096 12.5138C43.6654 12.4164 42.4965 11.5982 40.2561 10.2345C38.3275 9.06559 36.7689 8.11099 36.7884 8.09151C36.8079 8.07203 38.756 8.3058 41.1133 8.59803C43.4706 8.89025 45.4188 9.10455 45.4577 9.08507C45.4967 9.04611 45.0291 7.50706 44.4447 5.65631C43.8407 3.80556 43.3732 2.28599 43.4121 2.24703C43.4316 2.22755 44.6785 3.338 46.1785 4.72119C47.6786 6.0849 48.9449 7.23432 49.0034 7.23432C49.0618 7.23432 49.9969 5.67579 51.1074 3.76659C52.1983 1.87688 53.1919 0.181977 53.3088 0.026124C53.4452 -0.188174 53.4841 0.902796 53.3867 3.78607C53.3283 6.00698 53.3088 7.81876 53.3672 7.81876C53.4452 7.81876 55.0816 7.02002 57.0103 6.04594C58.9585 5.09134 60.556 4.31208 60.5949 4.35104C60.6144 4.39 59.6014 5.67579 58.3156 7.23432C57.0298 8.79284 55.8219 10.2929 55.6271 10.5657L55.257 11.0722L59.5819 12.5918C61.9586 13.4295 63.9263 14.1308 63.9652 14.1503C63.9847 14.1698 62.4652 14.3061 60.556 14.4425C58.6468 14.5594 56.6791 14.7347 56.1726 14.7932L55.2764 14.9295L57.3999 17.8518C58.5883 19.4688 59.6403 20.9494 59.7572 21.1442C59.952 21.5143 59.3091 21.1831 54.127 18.3973L52.5295 17.5206L52.4711 20.5792L52.4126 23.6378L50.9515 21.0857C50.1528 19.6831 49.432 18.5531 49.354 18.5336C49.2566 18.5336 48.4968 19.4298 47.6202 20.5208C46.7435 21.6312 45.9837 22.5858 45.9058 22.6637C45.8474 22.7417 45.8279 22.2351 45.8473 21.5338L45.9253 20.2675L44.8733 20.9104C43.8797 21.5143 41.7952 23.443 41.7952 23.7742C41.7952 23.8521 42.0095 24.0275 42.2822 24.1443C43.1784 24.5535 44.7564 26.2094 45.2239 27.203C45.7889 28.3913 45.8084 29.2875 45.3019 31.1967L44.9122 32.6578L45.3603 33.0085C48.5943 35.6385 49.8606 36.9243 51.7698 39.5933C54.0101 42.7298 55.8414 47.1911 56.5038 51.1653C57.361 56.2695 56.6596 62.2309 54.653 66.887C53.4257 69.7508 52.4321 71.3288 49.8995 74.5238C49.432 75.1082 49.393 75.2836 49.5878 75.5173C49.8021 75.7706 49.7437 75.9654 49.2177 76.6862C48.6137 77.5239 48.6137 77.5629 48.906 78.1279C49.2956 78.9071 49.2956 80.9137 48.8865 81.7709C48.4579 82.6866 47.2111 83.6996 46.2175 83.9723C45.1071 84.2841 12.6702 84.3815 11.5013 84.0892V84.0892ZM17.9302 82.6866C17.073 82.6476 16.3327 82.5307 16.2743 82.4138C16.1379 82.1995 15.495 82.3943 15.495 82.6476C15.495 82.745 16.3912 82.8034 17.5016 82.784C19.4303 82.745 19.4303 82.745 17.9302 82.6866ZM35.6195 82.6671L30.301 82.6281V81.8878C30.301 81.4008 30.2426 81.2644 30.1257 81.4397C30.0088 81.6151 29.6971 81.6735 29.1516 81.6151C28.3918 81.5566 28.3529 81.5761 28.3529 82.0826V82.6281L25.1969 82.6671C23.4435 82.706 26.2683 82.7255 31.4699 82.7255C36.6715 82.7255 38.5223 82.706 35.6195 82.6671V82.6671ZM17.9302 77.3291L19.0601 74.6407H20.755H22.4694L23.5994 77.3876L24.7488 80.154L24.8072 77.485L24.8657 74.8355H26.6969C28.5282 74.8355 28.5282 74.8355 28.8789 75.4199C29.0542 75.7511 29.2685 76.0044 29.3269 76.0044C29.3854 76.0044 29.5997 75.7511 29.775 75.4199L30.1257 74.8355H35.4831C40.7432 74.8355 40.8211 74.8355 40.8211 75.2446C40.8211 75.6342 40.8211 75.6342 41.464 75.1861C42.029 74.777 42.3017 74.7381 44.133 74.7381C45.672 74.7381 46.3344 74.816 46.8214 75.0693C47.4254 75.381 47.4448 75.381 47.4448 74.9913C47.4448 74.777 47.9319 74.0562 48.5358 73.4133C54.6141 66.6922 56.796 57.1462 54.2244 48.5353L53.7764 47.0742L53.679 49.1198C53.5426 51.6913 53.0166 52.9187 51.3996 54.5551C49.88 56.0552 48.5943 56.5617 46.1591 56.6007C44.5421 56.6202 44.3083 56.5617 43.5875 56.0942C42.4576 55.3344 41.8341 54.6331 41.2887 53.5031L40.8211 52.529V53.4642V54.3798H40.1392C39.6912 54.3798 38.6392 53.9707 37.1001 53.1914C35.7948 52.5485 34.6844 52.0615 34.6259 52.1394C34.5091 52.2368 33.8467 56.6007 33.8272 57.3605C33.8077 57.9644 32.5219 57.7696 30.6517 56.8929L28.9568 56.0747L28.8984 55.237L28.8399 54.3993L26.7164 55.3539C25.4111 55.9578 24.3397 56.328 23.8916 56.328C23.2292 56.328 23.1513 56.25 22.5474 55.1785L21.9045 54.0096L20.8914 54.1265C20.3264 54.185 19.8199 54.2824 19.7615 54.3603C19.6836 54.4188 19.3913 55.198 19.0991 56.0942C18.4757 58.0229 18.5731 58.0034 15.3586 56.9903L13.0988 56.289L13.2157 55.3928C13.2741 54.8863 13.391 54.3214 13.4689 54.1265C13.5663 53.8733 13.2546 54.0291 12.5533 54.5551C11.3844 55.4513 9.18297 56.3669 7.41015 56.7176C6.76725 56.8345 5.32561 56.9124 4.19568 56.8734L2.15011 56.815L2.09167 55.9383C1.91633 53.5421 2.77352 48.6912 3.78657 46.3144C4.02035 45.7884 4.1762 45.3208 4.11776 45.2819C3.98138 45.1455 3.02678 47.7561 2.53974 49.6263C1.79944 52.4511 1.54618 55.4708 1.81893 57.9839C2.03322 59.971 2.793 63.653 2.94886 63.4777C2.98782 63.4387 2.89041 62.7374 2.73456 61.8997C2.57871 61.062 2.44234 60.01 2.44234 59.5424C2.44234 58.7632 2.4813 58.7047 3.08523 58.5878C9.33882 57.2436 15.5535 57.5358 16.4691 59.2307C16.5665 59.445 16.6639 60.1074 16.6639 60.7113C16.6639 61.8412 16.3912 62.5621 15.5729 63.653L15.1054 64.257L15.5145 64.6271C15.7483 64.8219 16.021 65.2116 16.1184 65.4843C16.2938 65.9324 16.3717 65.8155 16.9756 64.218C17.3458 63.2634 18.2809 61.1789 19.0407 59.6009C20.4044 56.776 20.4433 56.7176 21.0668 56.7176C21.6707 56.7176 21.7876 56.8734 24.4565 61.062C28.6646 67.6273 28.3918 67.2377 28.2749 66.5558C27.5346 62.3673 26.9892 58.9775 26.9892 58.4904C26.9892 57.4189 27.8269 57.6527 31.7622 59.8152C33.6908 60.8866 35.3078 61.7244 35.3468 61.6854C35.3857 61.6464 35.6 60.2243 35.8338 58.5294L36.2429 55.4513L36.8663 55.3928C37.256 55.3539 38.23 55.6461 39.6522 56.25L41.8536 57.1851L41.7367 58.3735C41.6783 59.0164 41.5614 59.7178 41.503 59.9321C41.425 60.1463 41.5419 60.0684 41.7367 59.7372C42.3407 58.8216 43.607 57.7696 44.581 57.3994C45.2824 57.1267 45.9058 57.0877 47.4838 57.1462C49.3346 57.2046 49.6073 57.2631 51.01 57.9644C52.4711 58.6852 52.5101 58.7242 52.5101 59.4255C52.5101 59.9905 52.3737 60.2827 51.8282 60.8087C51.458 61.1789 51.1463 61.549 51.1463 61.627C51.1463 61.7049 51.536 61.7828 52.023 61.7828H52.8997V62.8738C52.8997 66.1077 50.7372 70.0235 48.2046 71.3483C47.4838 71.7379 47.0552 71.7963 45.4967 71.7963C43.3732 71.8158 42.8472 71.6015 41.7562 70.3742C41.1133 69.6729 40.7237 68.7572 40.3146 66.9454L40.1782 66.361L40.0418 67.0428C39.9444 67.413 39.7886 68.2312 39.6522 68.8546C39.4379 69.9456 39.4184 69.9651 38.795 69.9651C38.3664 69.9651 37.4897 69.5949 36.2819 68.9131L34.4311 67.8611L34.3532 69.4196C34.2948 70.3937 34.1584 71.0366 34.0025 71.134C33.8662 71.2119 32.7557 71.4067 31.5284 71.5431C29.1126 71.8158 28.9373 71.7574 28.9373 70.7833C28.9373 70.3742 28.8789 70.3742 27.184 71.2314C26.0346 71.8158 25.1774 72.1081 24.7098 72.1081C24.0085 72.1081 23.9111 72.0301 23.3071 71.0171C22.6837 69.9651 22.6448 69.9456 21.8655 70.004L21.0473 70.0625L20.9888 71.1924L20.9304 72.3029H20.2485C19.8784 72.3029 18.6121 71.9327 17.4237 71.4846L15.2612 70.6469L15.3392 69.8287C15.3976 69.0105 15.3976 69.0105 15.008 69.3806C14.3846 69.9651 13.0014 70.3937 11.2675 70.53L9.65053 70.6469L10.9168 72.0106C11.9104 73.0821 12.1637 73.5107 12.1831 74.0172V74.6407H13.4105C15.1249 74.6407 16.3522 75.2641 16.4301 76.1602C16.4691 76.5888 16.3717 76.959 16.1574 77.1928C15.8457 77.5434 15.8457 77.5629 16.2353 77.5629C16.6249 77.5629 16.6639 77.6603 16.6639 78.8682C16.6639 79.5695 16.7029 80.115 16.7418 80.076C16.7808 80.0371 17.3263 78.7902 17.9302 77.3291V77.3291ZM41.0159 79.4331C41.0159 79.2773 40.938 79.0825 40.8211 79.024C40.7237 78.9656 40.6263 79.0825 40.6263 79.2968C40.6263 79.5305 40.7237 79.7059 40.8211 79.7059C40.938 79.7059 41.0159 79.589 41.0159 79.4331ZM10.3129 75.2446C10.3713 75.1472 10.2934 75.0303 10.1376 74.9524C9.96224 74.8939 9.84535 74.9524 9.84535 75.1277C9.84535 75.4394 10.1571 75.5173 10.3129 75.2446ZM7.31274 71.1535C7.31274 70.7443 7.19585 70.53 6.90362 70.4521C6.29969 70.2573 6.24125 70.4521 6.72829 71.1145C7.25429 71.8548 7.31274 71.8548 7.31274 71.1535V71.1535ZM47.6397 62.1724C47.6397 62.075 47.4643 61.9776 47.2695 61.9776C47.0552 61.9776 46.8214 62.075 46.763 62.1724C46.6851 62.2893 46.8604 62.3673 47.1331 62.3673C47.4059 62.3673 47.6397 62.2893 47.6397 62.1724ZM29.6581 39.7686C30.2816 39.7686 30.5738 39.9829 32.5804 41.9311C33.8077 43.1194 34.8402 44.0545 34.8792 44.0156C34.9182 43.9766 34.8792 43.1584 34.7818 42.2038C34.6844 41.2297 34.587 39.9829 34.587 39.4374V38.4049H35.2299C35.5805 38.4049 36.8663 38.7361 38.0937 39.1452L40.3341 39.905L40.4509 42.0285C40.5289 43.1974 40.5873 44.639 40.6068 45.2234L40.6458 46.2949L40.9964 45.2234C41.464 43.7623 41.8731 43.0025 42.7108 42.0869C43.7823 40.8985 44.62 40.5479 46.4123 40.5479C48.302 40.5479 49.5099 41.0544 51.0879 42.535L52.1983 43.5675L51.6529 42.5934C49.919 39.5153 46.4318 35.8138 43.2953 33.7098C35.6195 28.5667 26.4826 27.69 18.1835 31.2941C16.5275 31.9954 13.8975 33.515 13.0403 34.2553C12.7286 34.5086 13.1377 34.2943 13.9365 33.7877C16.8782 31.937 20.7161 30.5928 23.95 30.3005L25.4306 30.1642V30.846V31.5084L23.5409 32.0344C20.229 32.9695 17.112 34.5086 14.4235 36.5152C13.0014 37.5867 10.5856 39.8855 9.90379 40.8596L9.49468 41.4245L11.4818 41.3661C13.2741 41.3076 13.5079 41.3466 14.0144 41.7362C14.5404 42.1453 14.5599 42.2233 14.482 43.6649C14.443 44.9312 14.3261 45.3014 13.8001 46.1586C13.2157 47.0937 13.2157 47.1521 13.5274 47.4638C13.8391 47.7366 14.2482 48.5353 14.6183 49.6068C14.7547 49.977 14.7742 49.977 14.969 49.5094C16.6249 45.6131 18.1835 42.8856 20.1122 40.5089C21.0083 39.3595 21.2421 39.1841 21.7876 39.1841C22.411 39.1841 22.4305 39.2036 24.1448 42.8467C25.0994 44.8533 26.5411 47.756 27.3593 49.3146L28.8399 52.1394L28.8984 45.9637L28.9373 39.7686H29.6581V39.7686ZM8.36474 51.1653C8.65697 50.951 8.67645 50.8731 8.46215 50.8731C8.3063 50.8731 7.99459 51.0095 7.78029 51.1653C7.50755 51.3796 7.48807 51.4381 7.70237 51.4381C7.85822 51.4381 8.16993 51.3212 8.36474 51.1653ZM46.6461 49.5678C46.6461 48.6522 46.5877 48.36 46.4708 48.6327C46.1591 49.3535 46.2565 50.8731 46.6071 50.8731C46.6461 50.8731 46.6656 50.2887 46.6461 49.5678ZM48.2241 47.1911C48.7111 47.0547 48.7111 47.0547 48.302 46.8209C47.9514 46.6456 47.815 46.6651 47.5422 46.9768C47.1526 47.4054 47.3085 47.4443 48.2241 47.1911V47.1911ZM53.5621 46.5482C53.5036 46.2949 53.1919 45.6131 52.8802 45.0286L52.3347 43.9571L52.3152 44.639C52.3152 45.0481 52.1009 45.6326 51.8282 46.0417C51.5555 46.4313 51.3412 46.8014 51.3412 46.8599C51.3412 46.9378 51.8672 46.9768 52.5295 46.9768C53.6595 46.9768 53.6984 46.9573 53.5621 46.5482ZM4.76065 44.113C4.99443 43.6454 5.1308 43.2753 5.07235 43.2753C4.97494 43.2753 4.19568 44.7364 4.19568 44.9507C4.19568 45.165 4.31257 44.9897 4.76065 44.113ZM6.33866 41.8142C6.31918 41.2492 6.31917 41.2492 6.02695 41.6193C5.85162 41.8336 5.59835 42.2428 5.4425 42.535L5.16976 43.061L5.75421 42.7298C6.20229 42.4765 6.33866 42.2622 6.33866 41.8142ZM43.9576 29.9888C44.5421 27.7874 42.4576 25.7029 38.2106 24.2612C36.7689 23.7547 34.1194 23.2092 33.2038 23.2092C32.7167 23.2092 32.6388 23.2872 32.6388 23.7547C32.6388 24.1833 32.483 24.3586 31.8596 24.6314C31.0803 25.0015 30.4569 25.6834 30.2231 26.4432C30.1062 26.8328 30.1841 26.8718 31.7232 26.9887C35.0545 27.2614 39.847 28.703 42.477 30.2031C43.0225 30.5148 43.5096 30.7681 43.5875 30.7876C43.6654 30.8071 43.8213 30.4369 43.9576 29.9888V29.9888ZM41.9315 21.0663L43.3147 19.722L41.7757 20.4818C40.8601 20.9494 39.9639 21.2611 39.5548 21.2611C38.9314 21.2611 38.8729 21.2221 38.8729 20.6571C38.8729 20.2091 39.1846 19.6831 40.0613 18.6116C40.7042 17.8128 41.1523 17.1699 41.0549 17.1699C40.7627 17.1699 38.3859 19.5662 37.743 20.5208L37.1001 21.4364L37.6456 21.5728C37.9378 21.6312 38.6781 21.8455 39.2626 22.0403C39.847 22.2352 40.373 22.4105 40.4315 22.4105C40.4899 22.43 41.1718 21.826 41.9315 21.0663V21.0663ZM49.432 16.3907C50.0554 16.3907 50.2112 16.4881 50.5035 17.0336L50.8541 17.657L50.9126 16.5465C50.971 15.4166 50.971 15.4166 51.5749 15.4166C51.9061 15.4166 52.6659 15.6893 53.2504 16.0205C54.3218 16.6244 54.3413 16.566 53.5426 15.4945C53.2698 15.1244 53.0945 14.6178 53.0945 14.2087V13.5074L54.692 13.3515L56.309 13.1762L54.692 12.6112C53.1724 12.0852 53.0945 12.0268 53.0945 11.4813C53.0945 11.1112 53.3478 10.6046 53.8153 10.0202L54.5556 9.12403L53.7374 9.55263C53.2893 9.76693 52.6464 9.96174 52.3347 9.96174H51.7503L51.6918 8.09151L51.6334 6.20179L50.7762 7.70188C49.9774 9.10455 49.8995 9.18248 49.2566 9.18248C48.7696 9.18248 48.3605 8.98766 47.776 8.50062C47.3474 8.13047 46.9578 7.85773 46.9188 7.89669C46.8799 7.91617 46.9968 8.32529 47.1526 8.79284C47.3085 9.24092 47.4448 9.88382 47.4448 10.215V10.7995L45.7499 10.6826L44.0356 10.5657L45.107 11.228C45.6915 11.5982 46.237 11.9099 46.3344 11.9099C46.4123 11.9099 46.4708 12.2021 46.4708 12.5723C46.4708 13.1178 46.3734 13.2736 45.9448 13.4295C45.4577 13.6048 45.4382 13.6243 45.8473 13.6438C46.198 13.6632 46.2759 13.7801 46.2759 14.2672C46.2759 14.5984 46.198 15.0075 46.1006 15.1828C45.9448 15.475 46.0227 15.514 46.7825 15.4361L47.6397 15.3776V16.5076L47.6591 17.657L48.1851 17.0141C48.6137 16.5076 48.8475 16.3907 49.432 16.3907V16.3907Z" fill="white"/>
<path d="M47.4449 16.4881V15.6114H46.6657C45.9059 15.6114 45.8864 15.592 45.8864 14.9491C45.8864 14.5984 46.0228 14.1893 46.1786 14.0529C46.3345 13.9165 46.4709 13.5854 46.4709 13.2931C46.4709 12.8645 46.276 12.6502 45.4968 12.2022C44.6201 11.6956 44.5227 11.5593 44.5227 10.9748V10.293L45.8864 10.4293L47.2501 10.5657L46.9579 9.74748C46.8021 9.2994 46.6657 8.69547 46.6657 8.38377C46.6657 7.87724 46.7241 7.8188 47.3475 7.8188C47.8151 7.8188 48.2242 7.99413 48.6918 8.40325L49.3541 9.00718L49.997 7.8188C50.601 6.76679 50.7179 6.6499 51.2828 6.6499H51.9257V8.20843V9.78644L52.5102 9.47473C52.8219 9.31888 53.3479 9.18251 53.6791 9.18251C54.2245 9.18251 54.2635 9.22147 54.2635 9.92281C54.2635 10.4293 54.1271 10.7995 53.8739 11.0333C53.6596 11.2281 53.4842 11.4619 53.4842 11.5398C53.4842 11.6177 53.9323 11.832 54.4583 12.0073C55.374 12.319 55.4324 12.3775 55.4324 12.9814V13.6438L54.244 13.7022L53.0751 13.7607L53.6596 14.54C54.0297 15.027 54.2635 15.553 54.2635 15.9621C54.2635 16.5271 54.2051 16.5855 53.6791 16.5855C53.3479 16.5855 52.6465 16.3712 52.1205 16.0985L51.1464 15.6114V16.3907C51.1464 17.1505 51.127 17.17 50.4841 17.17C49.9776 17.17 49.7827 17.0726 49.6853 16.7803C49.5684 16.3907 49.549 16.3907 49.1593 16.8777C48.8866 17.2284 48.5944 17.3648 48.1073 17.3648C47.4449 17.3648 47.4449 17.3648 47.4449 16.4881V16.4881Z" fill="#FFCE00"/>
<path d="M50.5035 18.5921C49.9775 17.696 49.4904 16.9751 49.393 16.9751C49.3151 16.9751 48.7501 17.6375 48.1267 18.4363C47.5228 19.235 46.9578 19.8974 46.9188 19.8974C46.8604 19.8974 46.8604 19.0207 46.9383 17.9492C47.0163 16.8777 47.0163 16.0011 46.9578 16.0011C46.8994 16.0011 45.9837 16.4491 44.9122 16.9751C43.8408 17.5206 42.9641 17.9103 42.9641 17.8713C42.9641 17.8323 43.5875 17.0336 44.3473 16.079L45.7305 14.3451L44.9902 14.3062C44.5616 14.2672 43.7433 14.1893 43.1589 14.1308L42.0874 14.0139L43.9187 13.3516C44.9122 13.0009 45.7694 12.6892 45.7889 12.6502C45.8279 12.6113 44.7564 11.9294 43.4316 11.1307C41.8536 10.1761 41.1328 9.65006 41.3861 9.6111C41.5809 9.57214 42.7887 9.68903 44.0551 9.84488C45.3214 10.0202 46.4513 10.1566 46.5877 10.1566C46.724 10.1566 46.5487 9.2994 46.0617 7.77983C45.6331 6.49405 45.3408 5.38359 45.3798 5.32515C45.4382 5.28619 46.2954 5.98752 47.289 6.92264C48.2631 7.83828 49.1398 8.59806 49.2177 8.59806C49.2761 8.59806 49.9775 7.52657 50.7372 6.2213C51.497 4.89655 52.2178 3.68869 52.3347 3.53284C52.4711 3.31854 52.5101 4.09781 52.4127 6.31871L52.2763 9.3968L54.8673 8.09154C56.309 7.3902 57.3805 6.92264 57.2636 7.05901C57.1467 7.21486 56.309 8.26687 55.3739 9.41629L53.679 11.4813L56.6012 12.4944C58.2182 13.0593 59.504 13.5464 59.4845 13.5659C59.4455 13.6048 58.1597 13.7217 56.6207 13.8386C55.0622 13.975 53.7569 14.1114 53.7179 14.1503C53.679 14.1893 54.3219 15.1828 55.1791 16.3323C57.2246 19.1376 57.2051 19.0792 55.9973 18.3973C55.4128 18.0661 54.1855 17.4037 53.2504 16.8972L51.5555 15.9816L51.497 18.0856L51.4386 20.1896L50.5035 18.5921V18.5921ZM49.6463 15.2218C49.7047 15.2802 49.919 15.6309 50.1528 16.0011L50.5619 16.6829V15.5725C50.5619 14.9491 50.6009 14.4425 50.6398 14.4425C50.6983 14.4425 51.4191 14.8127 52.2568 15.2608L53.7764 16.079L53.2504 15.3582C52.9387 14.9685 52.4711 14.3451 52.1984 13.975L51.7113 13.2931L52.549 13.1957C53.0166 13.1373 53.7374 13.0593 54.166 13.0399L54.9453 12.9814L53.5816 12.5139C52.8413 12.2606 52.1789 12.0268 52.1399 11.9879C52.101 11.9489 52.4321 11.5008 52.8802 10.9748C53.3088 10.4293 53.679 9.94229 53.679 9.88384C53.679 9.8254 53.153 10.0202 52.5101 10.3514C51.8672 10.6631 51.3217 10.9359 51.3022 10.9359C51.2632 10.9359 51.2632 10.0787 51.3022 9.04614L51.3412 7.13694L50.4645 8.6565C49.9775 9.47473 49.5099 10.1566 49.432 10.1566C49.3346 10.1566 48.9644 9.84488 48.5943 9.45525C48.2436 9.06562 47.776 8.67599 47.6007 8.57858C47.3085 8.42272 47.2695 8.44221 47.4254 8.85132C47.5228 9.10458 47.7371 9.76695 47.9124 10.3319L48.2046 11.3644L46.9968 11.2281C46.3344 11.1696 45.6136 11.0527 45.3993 11.0138C45.0486 10.9164 45.672 11.345 47.5228 12.4944L48.0877 12.845L47.5228 13.1568C47.1137 13.3711 47.0552 13.449 47.3085 13.4685C47.6202 13.4685 47.5812 13.5853 47.0552 14.2477C46.4123 15.0659 46.4513 15.1828 47.25 14.7348C47.5228 14.5789 47.7955 14.462 47.8929 14.4425C47.9709 14.4425 48.0293 14.988 48.0293 15.6699L48.0488 16.8777L48.7891 16.0011C49.2177 15.514 49.5878 15.1634 49.6463 15.2218V15.2218Z" fill="#FF1700"/>
<path d="M10.9168 83.0372C10.0206 82.6281 9.00758 81.693 8.54002 80.7969C7.85817 79.55 8.13091 77.0953 9.10499 75.7706C9.2998 75.4979 9.16343 75.2641 8.13091 74.1731C5.46193 71.3093 2.96828 66.6727 1.95524 62.679C0.669453 57.6527 0.844787 52.2368 2.44228 47.3469C3.80599 43.1974 5.92948 39.7686 9.14395 36.5346C13.1572 32.5214 17.5795 30.1642 23.3071 28.9173C25.6254 28.4303 31.4699 28.4303 33.8077 28.9173C45.068 31.3331 53.3282 39.7102 55.5491 50.9705C56.0362 53.4447 56.0362 58.1203 55.5491 60.7113C54.614 65.7181 52.2957 70.4911 49.1007 74.0173C48.0097 75.2056 47.9903 75.2446 48.3215 75.6147C48.6721 76.0044 48.6526 76.0433 48.0877 76.8421L47.5032 77.6603L47.9708 78.3227C48.263 78.7708 48.4189 79.2578 48.4189 79.8228C48.4189 82.1021 46.8993 83.3879 44.2108 83.4074C43.4511 83.4074 42.5354 83.31 42.1847 83.1736C41.6782 83.0178 41.5029 83.0178 41.4445 83.1736C41.386 83.3489 38.7949 83.4074 31.4504 83.4074L21.5148 83.3879L21.3005 82.9204C21.0277 82.2969 20.4822 82.2969 20.2095 82.9204L19.9757 83.4074H15.8456C12.2805 83.3879 11.5792 83.3489 10.9168 83.0372ZM15.1248 81.8294L16.0794 81.4203V79.7838V78.1474H14.4235H12.7675V78.8292C12.7675 79.4526 12.8065 79.5111 13.352 79.5111C13.8001 79.5111 13.9364 79.589 13.9364 79.9007C13.9364 80.2319 13.8001 80.2903 13.1766 80.2903C12.1441 80.2903 11.5207 79.55 11.6766 78.537C11.8714 77.3291 12.9429 76.8421 14.1118 77.4655C14.6572 77.7382 14.6767 77.7188 15.2612 76.9979C15.943 76.1408 15.9041 76.0433 14.6572 75.5173C13.6442 75.1082 12.261 75.1472 11.248 75.6342C8.69587 76.8811 8.69587 80.5631 11.248 81.8294C12.3584 82.3749 13.8585 82.3749 15.1248 81.8294V81.8294ZM45.7694 81.9657C47.1331 81.4008 47.6591 79.9007 46.8603 78.8682C46.5097 78.4201 45.5161 77.9915 44.0939 77.6798C43.49 77.5434 43.3536 76.9785 43.9186 76.9785C44.1134 76.9785 44.6589 77.1148 45.1265 77.2707L45.9837 77.5824L46.5097 76.9395C46.8019 76.5888 47.0552 76.2382 47.0552 76.1797C47.0552 75.9265 45.5745 75.3615 44.6784 75.2641C43.3536 75.1472 42.4965 75.3615 41.8146 75.9849C41.3081 76.4525 41.2107 76.7057 41.2107 77.4071C41.2107 78.6539 41.8925 79.2383 43.8991 79.7059C44.5031 79.8423 44.8927 80.0371 44.8537 80.1734C44.7368 80.4851 43.3147 80.3683 42.5744 79.9981C41.951 79.6669 41.951 79.6669 41.386 80.3293C41.0938 80.68 40.8405 81.0306 40.821 81.1086C40.821 81.2839 41.8536 81.8489 42.5744 82.0632C43.3731 82.2969 45.068 82.258 45.7694 81.9657ZM19.3328 81.654C19.4302 81.3229 19.6056 81.2644 20.6965 81.2644C21.7875 81.2644 21.9823 81.3229 22.0603 81.654C22.1577 81.9852 22.333 82.0437 23.424 82.0437C24.5539 82.0437 24.6708 82.0047 24.5734 81.7125C24.4955 81.5177 23.8526 79.9786 23.1512 78.3032L21.8654 75.2251H20.755H19.6445L18.3393 78.3422C17.6379 80.0371 16.995 81.5761 16.9366 81.7515C16.8392 81.9852 17.0145 82.0437 18.0276 82.0437C19.0601 82.0437 19.2549 81.9852 19.3328 81.654V81.654ZM27.7684 80.4462L27.7878 78.8292L28.4697 79.9591C28.8593 80.5631 29.2295 81.0696 29.2879 81.0696C29.3659 81.0696 29.7555 80.5631 30.1451 79.9397L30.8854 78.8292V80.4462V82.0437H32.0543H33.2232V78.7318V75.4199H31.9764H30.7101L30.0672 76.4914C29.7165 77.0759 29.3853 77.5629 29.3269 77.5629C29.2684 77.5629 28.9373 77.0759 28.5866 76.4914L27.9437 75.4199H26.6774H25.4306V78.7318V82.0437H26.5995H27.7684V80.4462V80.4462ZM40.2366 81.167V80.2903H38.4832C36.8663 80.2903 36.7299 80.2514 36.7299 79.9007C36.7299 79.5695 36.8858 79.5305 38.3469 79.4721L39.9444 79.4137L40.0028 78.6928L40.0613 77.9525H38.4053C36.8663 77.9525 36.7299 77.9136 36.7299 77.5629C36.7299 77.1928 36.8663 77.1733 38.4832 77.1733H40.2366V76.2966V75.4199H37.3143H34.3921V78.7318V82.0437H37.3143H40.2366V81.167ZM11.5791 74.1341C11.6181 74.0952 11.0142 73.3744 10.2349 72.4977C9.22188 71.3872 8.67639 70.9392 8.36469 70.9392C8.11142 70.9392 7.89713 70.9976 7.89713 71.095C7.89713 71.1729 8.52054 71.9522 9.28032 72.8484C10.4297 74.2121 10.722 74.4458 11.0726 74.329C11.3064 74.2705 11.5402 74.1731 11.5791 74.1341V74.1341ZM20.4043 70.608L20.4628 69.478L21.846 69.4196L23.2486 69.3612L23.872 70.3937C24.2227 70.9586 24.5344 71.4652 24.5734 71.5041C24.6708 71.621 28.723 69.7118 28.7424 69.556C28.7424 69.3612 26.4436 65.6012 23.6188 61.2178L21.0667 57.2631L19.9173 59.5619C18.4562 62.4841 16.7807 66.6142 16.2937 68.5624C16.0794 69.3806 15.9235 70.0625 15.943 70.082C16.0599 70.1599 20.0926 71.6989 20.2095 71.7184C20.2874 71.7184 20.3654 71.2119 20.4043 70.608V70.608ZM47.698 70.7054C48.828 70.1404 50.1917 68.6598 50.9904 67.1208C52.0424 65.1142 52.6659 62.3478 52.0814 62.3673C51.458 62.3867 46.4707 63.0881 46.3928 63.166C46.3538 63.205 46.2564 63.7894 46.1785 64.4713L46.0421 65.7181L46.9772 65.5622L47.9318 65.4259L47.4448 65.8155C46.2759 66.7311 45.2628 66.926 44.9122 66.2831C44.3862 65.2895 44.9317 62.8933 45.9252 61.8413C46.724 61.0035 47.8929 61.062 48.9254 62.0166C49.3345 62.3867 49.3345 62.3673 50.6203 60.9256C51.3411 60.1269 51.9256 59.445 51.9256 59.3866C51.9256 59.3476 51.2437 58.958 50.4255 58.5489C48.4578 57.5748 46.5097 57.4189 44.9511 58.0813C41.6782 59.484 39.9833 64.4518 41.425 68.3091C41.8536 69.478 43.1978 70.8612 44.0745 71.0561C44.3667 71.1145 44.7174 71.1924 44.8148 71.2509C45.2434 71.4067 46.9577 71.095 47.698 70.7054V70.7054ZM31.879 70.8418C32.5803 70.7638 33.2817 70.6275 33.418 70.5495C33.5934 70.4326 33.7103 69.7508 33.7882 68.5234L33.9051 66.6532L36.3208 68.0169C37.6455 68.7767 38.7755 69.3612 38.795 69.3222C38.8924 69.2248 41.2107 57.828 41.1522 57.7696C40.9184 57.5358 37.0026 55.9968 36.9052 56.0942C36.8468 56.1721 36.5935 57.7501 36.3403 59.6009C36.1065 61.4321 35.8727 62.9517 35.8532 62.9517C35.8337 62.9517 33.983 61.9387 31.7426 60.7113C29.5217 59.5035 27.671 58.5099 27.6515 58.5294C27.632 58.5489 28.0801 61.3737 28.6645 64.8025C29.2295 68.2312 29.7165 71.0755 29.7165 71.1145C29.7165 71.1535 29.9113 71.134 30.1646 71.0755C30.3984 71.0171 31.1776 70.9002 31.879 70.8418V70.8418ZM12.8065 69.5754C14.5209 69.0494 15.5924 67.978 15.5924 66.7506C15.5924 66.0688 15.4755 65.7765 15.0274 65.309C14.7157 64.9778 14.2871 64.6661 14.0923 64.5882C13.7806 64.4907 13.839 64.3739 14.5404 63.5751C17.0924 60.6724 16.469 58.9969 12.6312 58.4515C10.6051 58.1592 7.11786 58.432 4.03977 59.0943L3.00725 59.3086L3.12413 60.3022C3.63066 64.0816 5.98793 69.5949 7.21527 69.8287C7.42957 69.8677 8.50106 69.9261 9.57255 69.9456C11.0531 69.9651 11.8714 69.8677 12.8065 69.5754V69.5754ZM18.5146 55.5097C18.8068 54.6136 19.099 53.8343 19.177 53.7564C19.2354 53.6979 20.0147 53.5616 20.8719 53.5031L22.4499 53.3668L23.1123 54.5551C23.4629 55.198 23.8136 55.7435 23.8915 55.7435C24.2032 55.7435 28.645 53.6005 28.6061 53.4642C28.5866 53.3862 27.8853 52.003 27.0281 50.3861C26.1709 48.7886 24.6513 45.73 23.6577 43.6065L21.8265 39.7296L21.0862 40.5868C18.3782 43.6649 15.5729 49.2561 14.1312 54.4188L13.7611 55.724L15.8456 56.4059C16.995 56.776 17.9496 57.0683 17.9691 57.0877C17.9886 57.1072 18.2419 56.3864 18.5146 55.5097V55.5097ZM33.2232 56.9124C33.2232 56.6202 34.022 50.99 34.0609 50.9316C34.0999 50.9121 35.4636 51.555 37.1 52.3537C38.756 53.1525 40.1392 53.7564 40.1976 53.6979C40.3535 53.5616 39.847 40.6647 39.6911 40.5284C39.4963 40.3336 35.3077 38.9893 35.2103 39.0673C35.1714 39.1257 35.2688 40.6258 35.4441 42.4181C35.6 44.2299 35.6974 45.73 35.6584 45.7884C35.561 45.8663 32.3076 42.9051 30.788 41.3466C30.262 40.8011 29.7555 40.353 29.6776 40.353C29.5996 40.353 29.5217 43.7623 29.5217 47.9119V55.4903L31.2166 56.289C33.0284 57.1657 33.2232 57.2241 33.2232 56.9124V56.9124ZM7.58542 55.9383C11.7155 54.8863 14.5404 52.3342 14.0144 50.1523C13.8001 49.2951 13.352 48.4964 12.7286 47.8145L12.1441 47.2106L12.748 46.3144C14.0728 44.4052 14.3066 43.0025 13.4299 42.3207C12.4753 41.5804 9.57255 41.9116 6.88409 43.061C6.14378 43.3727 5.87104 43.626 5.48141 44.4247C4.68266 45.9832 3.84495 48.1846 3.41636 49.899C2.98776 51.5939 2.52021 55.5682 2.71502 56.0357C2.87087 56.4838 5.71519 56.4254 7.58542 55.9383V55.9383ZM48.6137 55.4903C49.354 55.2175 50.0164 54.7499 50.8151 53.9707C52.3152 52.4706 52.9386 51.0874 53.0555 49.0418L53.1529 47.5028L51.0489 47.6392C49.88 47.7171 48.5552 47.834 48.0877 47.8924L47.25 48.0093V49.3535V50.7173L47.7954 50.6004C48.0877 50.5224 48.4968 50.4055 48.7111 50.3471C49.0618 50.2497 49.0423 50.2887 48.6137 50.7757C47.0357 52.4901 45.594 52.081 45.6135 49.938C45.6135 48.5353 45.9642 47.5223 46.7045 46.6651C47.4837 45.7884 48.3215 45.7689 49.2566 46.5872C49.6267 46.9183 49.9774 47.1716 50.0358 47.1716C50.1722 47.1716 51.7307 44.7364 51.7307 44.5026C51.7307 44.113 49.3929 42.0869 48.3799 41.6193C44.8732 39.9829 41.7172 42.8272 41.1133 48.1457C40.8795 50.1718 41.6393 53.094 42.7108 54.2824C44.3082 56.0747 46.0616 56.4254 48.6137 55.4903V55.4903ZM7.8192 41.6973C8.15039 41.5804 8.92965 40.8206 9.65047 39.9244C12.6117 36.2814 17.2483 33.2228 22.0213 31.7617C25.0215 30.8265 25.0409 30.8265 23.9695 30.9434C20.9108 31.2941 17.1314 32.6968 14.3066 34.5475C11.4817 36.3983 9.65047 38.1516 7.48801 41.0933C6.8646 41.9505 6.90357 42.0479 7.8192 41.6973Z" fill="black"/>
<path d="M20.4044 78.8292C20.6576 78.0695 20.833 78.0889 21.1057 78.9266C21.32 79.4916 21.3005 79.5111 20.755 79.5111C20.2096 79.5111 20.2096 79.4916 20.4044 78.8292V78.8292Z" fill="black"/>
<path d="M21.0278 66.3415C21.1057 66.0493 21.2811 65.5428 21.4174 65.2116L21.6512 64.6077L22.0214 65.5428C22.2162 66.0493 22.3331 66.4974 22.2941 66.5363C22.2552 66.5753 21.924 66.6532 21.5538 66.7312C20.9304 66.848 20.9109 66.8286 21.0278 66.3415Z" fill="black"/>
<path d="M9.68944 67.2571C9.57256 66.9454 9.53359 66.6337 9.59204 66.5753C9.74789 66.4194 11.0921 66.4194 11.4818 66.5753C11.9688 66.7701 11.8519 67.413 11.2869 67.6273C10.3713 67.9779 9.90374 67.861 9.68944 67.2571Z" fill="black"/>
<path d="M9.26099 63.5556C9.26099 62.7569 9.47528 62.5621 10.3325 62.5621C11.2286 62.5621 11.0728 63.7699 10.1182 64.1206C9.33891 64.4128 9.26099 64.3739 9.26099 63.5556Z" fill="black"/>
<path d="M20.5212 48.7107L21.0472 47.1327L21.3589 48.2042C22.0213 50.4446 22.0602 50.2887 20.9692 50.2887H20.0146L20.5212 48.7107V48.7107Z" fill="black"/>
<path d="M6.80612 51.6329C6.86456 51.3017 6.92301 50.9316 6.92301 50.8342C6.92301 50.5809 8.16983 50.0939 8.87117 50.0939C9.59199 50.0939 9.80628 50.503 9.45561 51.1654C9.14391 51.7498 8.15035 52.2368 7.31264 52.2368C6.70871 52.2368 6.68923 52.2174 6.80612 51.6329V51.6329Z" fill="black"/>
<path d="M7.91674 45.9638C8.13104 45.1845 8.26741 45.0676 8.96875 44.9312C9.74801 44.7949 10.1182 45.0481 9.94283 45.6131C9.80646 46.0417 8.79341 46.5872 8.11156 46.5872C7.78037 46.5872 7.74141 46.5093 7.91674 45.9638Z" fill="black"/>
<path d="M42.3796 31.0798C38.8534 29.0148 34.3921 27.7484 29.9893 27.5536L27.2229 27.4367L27.5736 26.1704C28.0216 24.534 28.4308 24.008 29.7555 23.3456C31.7232 22.352 34.8207 22.43 38.3859 23.5404C42.5744 24.8652 44.7174 26.7354 44.7174 29.0927C44.7174 30.1057 44.2888 31.8396 44.0355 31.898C43.9186 31.9175 43.1783 31.5474 42.3796 31.0798V31.0798ZM29.5997 26.112C29.775 25.2353 30.3789 24.4755 31.314 23.9885L32.1517 23.5794L31.4699 23.6963C30.3205 23.9106 29.4438 24.4755 28.9957 25.2743C28.4113 26.2873 28.4113 26.7159 29.0152 26.7159C29.3659 26.7159 29.5022 26.5796 29.5997 26.112V26.112Z" fill="black"/>
<path d="M39.5548 22.8976C38.9119 22.6638 37.8794 22.3521 37.256 22.2157C36.6326 22.0988 36.1066 21.9235 36.0481 21.8455C35.8923 21.5923 37.782 19.0012 38.9898 17.8518C40.4315 16.4686 42.4381 15.2218 43.2174 15.2218C43.6459 15.2218 43.7434 15.2802 43.607 15.4751C43.5096 15.592 42.516 16.8193 41.425 18.2025C40.3341 19.5662 39.4964 20.6767 39.5548 20.6767C39.6133 20.6767 41.0549 19.9753 42.7693 19.1181C44.4837 18.2609 45.9058 17.5596 45.9448 17.5596C45.9837 17.5596 45.9837 17.8518 45.9253 18.183C45.8084 18.9818 45.4967 19.3519 44.1135 20.3065C43.5096 20.7156 42.5355 21.5728 41.951 22.2157C41.3666 22.8781 40.8406 23.3846 40.8016 23.3846C40.7627 23.3651 40.1977 23.1508 39.5548 22.8976Z" fill="black"/>
</svg>
