<svg width="150" height="50" fill="none" xmlns="http://www.w3.org/2000/svg"><path d="M34.656 38.185h7.836v9.303c-1.132.821-2.33 1.432-3.607 1.798a14.017 14.017 0 0 1-3.996.555c-1.81 0-3.464-.289-4.951-.855-1.488-.566-2.764-1.354-3.819-2.353a10.387 10.387 0 0 1-2.453-3.563c-.577-1.377-.866-2.875-.866-4.485 0-1.643.278-3.152.822-4.529a10.236 10.236 0 0 1 2.33-3.563c1.01-1 2.243-1.776 3.675-2.331 1.432-.555 3.042-.833 4.818-.833.92 0 1.776.078 2.586.222.81.156 1.554.356 2.231.622a11.25 11.25 0 0 1 1.865.932c.566.367 1.066.755 1.51 1.177l-1.477 2.253c-.233.356-.532.567-.899.655-.366.078-.766-.01-1.188-.277-.4-.244-.788-.455-1.143-.633a6.646 6.646 0 0 0-1.099-.433 7.886 7.886 0 0 0-1.177-.244c-.41-.056-.876-.078-1.387-.078-.955 0-1.82.167-2.586.51-.766.334-1.421.811-1.954 1.433-.544.61-.955 1.354-1.243 2.22-.289.866-.433 1.82-.433 2.875 0 1.165.166 2.209.488 3.12.322.91.777 1.675 1.365 2.297a5.973 5.973 0 0 0 2.12 1.432c.822.322 1.732.488 2.731.488.61 0 1.177-.055 1.677-.177.5-.123.987-.278 1.454-.489v-3.341H35.71c-.322 0-.577-.089-.755-.255a.87.87 0 0 1-.277-.655v-2.797h-.022zm30.692 11.412h-3.963c-.444 0-.799-.1-1.076-.311a1.93 1.93 0 0 1-.622-.8l-1.299-3.84h-8.38l-1.288 3.852c-.111.277-.311.533-.6.766a1.702 1.702 0 0 1-1.065.344h-3.996l8.525-22.034h5.24l8.524 22.023zm-8.114-8.414-2.043-6.028c-.155-.377-.31-.833-.488-1.354-.167-.522-.344-1.077-.51-1.688-.156.611-.312 1.188-.49 1.71-.166.522-.332.977-.488 1.365l-2.009 5.995h6.028zm34.622-13.61v22.035h-4.507V36.93c0-.288.011-.61.022-.954.011-.345.045-.689.078-1.044L81.6 46.255a1.835 1.835 0 0 1-.732.8c-.311.177-.655.277-1.055.277h-.7c-.388 0-.743-.089-1.054-.277a1.835 1.835 0 0 1-.733-.8L71.476 34.9c.034.366.056.721.078 1.065.023.344.034.666.034.955v12.666H67.08V27.574h3.896c.222 0 .41 0 .577.01.167.012.311.045.444.09.133.044.245.133.356.233.11.11.21.255.31.444l5.695 11.178c.2.388.4.777.577 1.198.189.411.366.833.533 1.266.166-.444.355-.877.533-1.299.188-.422.388-.821.6-1.21l5.65-11.134c.1-.188.2-.344.31-.444a.898.898 0 0 1 .355-.233c.133-.055.278-.077.444-.088.167-.012.356-.012.578-.012h3.918zm9.402 3.93v5.14h6.927v3.785h-6.927v5.25h9.047v3.93H96.118V27.574h14.187v3.929h-9.047zm24.365.544a1.95 1.95 0 0 1-.477.544c-.166.122-.377.178-.644.178-.233 0-.477-.078-.743-.223-.267-.144-.567-.31-.911-.488a7.512 7.512 0 0 0-1.154-.488 4.713 4.713 0 0 0-1.488-.222c-.954 0-1.676.2-2.142.61-.466.41-.699.955-.699 1.654 0 .444.144.81.422 1.099.277.289.654.544 1.11.755.455.21.988.41 1.576.577a56.19 56.19 0 0 1 1.809.588c.611.222 1.221.467 1.81.766a6.08 6.08 0 0 1 1.576 1.122 5.29 5.29 0 0 1 1.11 1.653c.277.655.422 1.432.422 2.354a7.545 7.545 0 0 1-.533 2.852 6.712 6.712 0 0 1-1.532 2.32c-.666.655-1.499 1.177-2.475 1.555-.988.377-2.098.566-3.353.566-.688 0-1.387-.067-2.098-.211a12.976 12.976 0 0 1-2.064-.6 12.74 12.74 0 0 1-1.876-.91 7.963 7.963 0 0 1-1.532-1.176l1.51-2.387c.122-.167.277-.31.477-.433.2-.111.411-.178.644-.178.299 0 .61.1.91.289.311.189.655.4 1.043.633.389.233.833.444 1.343.632.5.19 1.099.289 1.788.289.932 0 1.642-.2 2.164-.61.511-.411.766-1.055.766-1.943 0-.51-.144-.932-.422-1.254-.277-.322-.655-.589-1.11-.8-.455-.21-.977-.4-1.565-.555a77.962 77.962 0 0 1-1.798-.532c-.611-.2-1.21-.433-1.798-.722a5.652 5.652 0 0 1-1.566-1.132 5.282 5.282 0 0 1-1.11-1.754c-.277-.7-.421-1.565-.421-2.598 0-.821.166-1.631.499-2.42a6.2 6.2 0 0 1 1.465-2.098c.644-.61 1.432-1.11 2.376-1.476.932-.366 2.009-.555 3.219-.555.677 0 1.332.056 1.976.156.644.1 1.243.266 1.82.466.578.21 1.11.455 1.61.743.499.29.943.611 1.343.977l-1.277 2.387z" fill="#fff"/><path d="M8.103.233c1.521 0 2.82.144 3.886.422 1.065.277 1.942.677 2.62 1.199.676.521 1.165 1.143 1.475 1.876.311.732.467 1.554.467 2.464 0 .5-.067.966-.211 1.432a4.314 4.314 0 0 1-.666 1.288c-.3.4-.688.766-1.166 1.099a7.456 7.456 0 0 1-1.71.865c1.455.356 2.52.922 3.22 1.71.7.788 1.043 1.81 1.043 3.053 0 .932-.177 1.809-.544 2.62-.366.81-.899 1.509-1.598 2.108-.7.6-1.565 1.066-2.598 1.41-1.032.333-2.197.51-3.518.51H0V.234h8.103zm-2.997 3.83v5.439H7.77c.566 0 1.077-.044 1.532-.122a3.087 3.087 0 0 0 1.155-.422c.321-.2.555-.477.721-.832.167-.356.244-.8.244-1.333 0-.521-.066-.954-.2-1.31a1.956 1.956 0 0 0-.599-.843 2.59 2.59 0 0 0-1.032-.455 7.246 7.246 0 0 0-1.488-.133H5.106v.01zm3.597 14.353c.677 0 1.232-.09 1.654-.256.433-.166.766-.388 1.01-.666.244-.277.41-.577.5-.921.088-.344.133-.688.133-1.043 0-.4-.056-.766-.156-1.088a1.877 1.877 0 0 0-.544-.822c-.255-.222-.6-.388-1.021-.51-.422-.122-.955-.178-1.598-.178H5.106v5.484h3.597zM94.265.233v22.034h-4.507V9.602c0-.289.011-.61.022-.955.011-.344.045-.688.078-1.043l-5.85 11.322a1.835 1.835 0 0 1-.733.8c-.31.177-.655.277-1.054.277h-.7c-.388 0-.743-.089-1.054-.278a1.835 1.835 0 0 1-.733-.799L73.884 7.57c.034.367.056.722.078 1.066.022.344.033.666.033.955v12.665H69.49V.233h3.896c.222 0 .41 0 .577.011.167.011.31.045.444.089.133.056.244.133.355.233.111.111.211.255.311.444l5.672 11.178c.2.389.4.777.578 1.2.188.41.366.832.532 1.265.167-.444.356-.877.533-1.3.189-.421.389-.82.6-1.21l5.65-11.133c.1-.189.2-.344.31-.444a.898.898 0 0 1 .356-.233c.133-.055.277-.078.444-.089.166-.01.355-.01.577-.01h3.94zm9.413 22.034h-5.14V.233h5.14v22.034zM127.166.233v22.034h-2.664c-.388 0-.721-.066-.988-.188-.266-.122-.532-.344-.799-.655L112.325 8.28c.045.388.067.777.078 1.143.011.367.022.71.022 1.033v11.81h-4.507V.233h2.687c.222 0 .41.011.555.033.155.023.288.056.41.111.122.056.233.134.344.234.111.1.234.233.378.41l10.479 13.232a16.008 16.008 0 0 1-.111-1.232c-.023-.4-.034-.777-.034-1.121V.244h4.54v-.01zm14.853 10.623h7.837v9.302c-1.133.822-2.331 1.432-3.608 1.799a14.02 14.02 0 0 1-3.996.555c-1.809 0-3.463-.289-4.951-.855-1.487-.566-2.764-1.354-3.818-2.353a10.394 10.394 0 0 1-2.454-3.564c-.577-1.376-.865-2.875-.865-4.484 0-1.643.277-3.153.821-4.53a10.24 10.24 0 0 1 2.331-3.562c1.01-1 2.242-1.776 3.674-2.331C138.422.278 140.032 0 141.808 0c.921 0 1.776.078 2.586.222.811.155 1.554.355 2.231.622.678.266 1.299.577 1.865.932.566.366 1.066.755 1.51 1.177l-1.476 2.264c-.233.355-.533.566-.9.655-.366.078-.765-.011-1.187-.277-.4-.245-.788-.456-1.144-.633a6.62 6.62 0 0 0-1.099-.433 7.86 7.86 0 0 0-1.176-.244 10.543 10.543 0 0 0-1.388-.078c-.954 0-1.82.167-2.586.51a5.349 5.349 0 0 0-1.954 1.433c-.544.61-.954 1.354-1.243 2.22-.289.866-.433 1.82-.433 2.875 0 1.165.167 2.209.488 3.119.322.91.777 1.676 1.366 2.298a5.97 5.97 0 0 0 2.12 1.432c.821.322 1.732.488 2.731.488a7.13 7.13 0 0 0 1.676-.178 8.3 8.3 0 0 0 1.454-.488v-3.341h-2.176c-.322 0-.577-.089-.755-.255a.872.872 0 0 1-.277-.655v-2.809h-.022zm-80 1.488a7.082 7.082 0 0 1-6.972 5.794h-.155c-.5-.011-1.033 0-2.365-.566-1.32-.566-1.61-.9-2.575-1.654-.555-.433-1.354-1.265-2.142-1.965-.778.844-2.543 2.797-2.698 2.953.677.733 2.331 2.176 2.997 2.686l-.1-.089a10.906 10.906 0 0 0 6.871 2.542c.555 0 1.01-.022 1.499-.077 4.385-.533 8.059-3.652 9.258-7.926l-3.619-1.698z" fill="red"/><path d="M49.697 6.394a7.042 7.042 0 0 1 5.339-2.442c1.665 0 3.23.577 4.473 1.587l-1.687 1.21 7.781 3.574-.799-8.525-2.009 1.421C60.764 1.188 58 .033 55.047.033a10.96 10.96 0 0 0-8.47 3.996v.012c-.077.1-6.171 7.548-8.68 10.012a6.817 6.817 0 0 1-.422.378c-.022.022-.056.044-.078.066a19.392 19.392 0 0 1-.643.544l-.489.389c-.044.033-.089.066-.122.1-.111.088-.222.166-.322.244a1.18 1.18 0 0 0-.122.1.926.926 0 0 1-.133.088c-.145.1-.289.2-.422.3a.747.747 0 0 1-.122.078l-.4.266a.976.976 0 0 1-.11.067c-.123.078-.234.144-.345.21-.044.023-.089.056-.133.079-.111.066-.211.122-.31.177-.733.4-1.344.655-1.855.81-.51.156-.91.233-1.72.233-3.93-.188-7.038-3.585-6.738-7.614.255-3.486 3.108-6.305 6.593-6.539 2.232-.144 4.196.81 5.662 2.243.244.233 2.23 2.375 2.653 2.897.755-.81 2.564-2.942 2.63-3.02-.355-.466-1.853-2.042-1.953-2.153C36.864 1.61 33.79.056 30.337.1 24.6.178 19.803 4.762 19.492 10.49 19.16 16.595 23.822 21.7 29.75 22.1c.211.012 1.155.045 1.654-.01.51-.056.966-.167 1.354-.256.622-.144 1.255-.477 1.266-.477.033-.01.066-.033.1-.044.122-.056.255-.111.388-.178.056-.022.122-.055.178-.089.133-.066.277-.133.422-.21.055-.023.1-.056.155-.078.389-.211.81-.444 1.232-.71.056-.034.122-.078.178-.112.155-.1.31-.2.477-.31.067-.045.144-.1.222-.145.156-.11.322-.222.489-.344.066-.055.133-.1.21-.155.167-.122.334-.256.5-.378a1.18 1.18 0 0 0 .122-.1c.033-.022.056-.044.089-.066.244-.189.488-.4.744-.61.055-.045.122-.1.177-.156.189-.167.389-.333.588-.51.09-.078.167-.156.256-.223.033-.033.078-.066.11-.1l.445-.41c.089-.078 2.309-2.254 3.807-4.074 1.499-1.82 3.12-3.996 4.785-5.961z" fill="red"/></svg>