<svg width="179" height="61" viewBox="0 0 179 61" fill="none" xmlns="http://www.w3.org/2000/svg">
<path d="M47.8435 60.3098C46.6904 59.9325 45.742 59.0704 45.3109 57.9926C45.1061 57.4861 45.063 57.1843 45.063 56.1497C45.063 54.9858 45.0845 54.8672 45.3971 54.2098C46.173 52.5932 47.8004 51.7095 49.6972 51.8819C50.969 52.0004 52.5748 52.8842 52.2407 53.2829C52.1329 53.4123 52.0359 53.3799 51.5725 53.0674C50.2253 52.1621 48.4363 52.1405 47.1107 53.0135C45.6234 53.9942 45.1061 56.279 45.9683 58.0357C46.5934 59.2967 47.6819 59.9218 49.2554 59.9218C50.2038 59.9218 50.7319 59.7817 51.4001 59.3613L51.9066 59.038V57.7448V56.4623L50.4516 56.4946C49.0075 56.5269 48.9967 56.5269 48.9967 56.2898C48.9967 56.0419 49.0075 56.0419 50.7211 56.0419H52.4455V57.6585V59.2751L51.9928 59.6092C51.1306 60.2343 50.6672 60.3852 49.4278 60.4283C48.6734 60.4499 48.1453 60.4067 47.8435 60.3098Z" fill="white"/>
<path d="M79.8198 56.1821V51.9358L80.1647 51.9681C80.488 52.0005 80.6173 52.1621 82.0292 54.2852C82.859 55.5354 83.5919 56.6563 83.6565 56.764C83.7859 56.958 83.9583 56.7209 86.4587 52.8411C86.9975 52.0005 87.0622 51.9466 87.4178 51.9466H87.795V56.1497V60.3529H87.5256H87.2562V56.6239C87.2562 53.908 87.2238 52.9273 87.1376 52.9812C87.073 53.0243 86.4587 53.908 85.7797 54.9534C83.9368 57.7663 83.8721 57.8633 83.7967 57.8741C83.7643 57.8741 82.9884 56.7425 82.0723 55.3738L80.4126 52.8626L80.3802 56.5916L80.3587 60.3313L80.0893 60.3744L79.8198 60.4283V56.1821Z" fill="white"/>
<path d="M98.4969 60.3854L98.249 60.3423V56.1392V51.9468H98.5185H98.7879V56.2038C98.7879 58.5425 98.7771 60.4501 98.7663 60.4501C98.7448 60.4393 98.6262 60.407 98.4969 60.3854Z" fill="white"/>
<path d="M128.803 60.3207C128.005 60.0513 127.488 59.7172 126.938 59.1244C125.537 57.5833 125.537 54.7919 126.96 53.1646C127.779 52.2269 129.557 51.6665 130.926 51.9252C131.669 52.0653 132.801 52.5718 133.103 52.9059C133.265 53.0784 133.275 53.143 133.157 53.2723C133.038 53.4017 132.92 53.3586 132.402 53.0245C131.325 52.3347 129.73 52.1838 128.62 52.6796C125.85 53.8974 125.71 58.2407 128.404 59.5663C128.964 59.8465 129.126 59.8681 130.204 59.8681C131.292 59.8681 131.432 59.8465 131.928 59.5771C132.898 59.049 132.855 59.1244 132.823 57.7557L132.79 56.5271L131.325 56.4948C129.913 56.4732 129.848 56.4624 129.902 56.2577C129.956 56.0529 130.053 56.0421 131.669 56.0421H133.383V57.6372V59.2214L133.027 59.5016C132.833 59.6633 132.413 59.922 132.09 60.0944C131.572 60.3638 131.357 60.3962 130.365 60.4285C129.633 60.45 129.083 60.4069 128.803 60.3207Z" fill="white"/>
<path d="M62.0696 60.2236C62.2959 59.6848 65.4968 52.5717 65.6369 52.2915C65.7878 51.9898 65.874 51.9359 66.1434 51.9682C66.4344 52.0005 66.5099 52.0867 66.8008 52.7549C67.2535 53.8003 68.9994 57.7017 69.7862 59.4153L70.2173 60.3637L69.8832 60.3314C69.5598 60.2991 69.506 60.2344 69.1072 59.2968L68.6653 58.3053L66.0895 58.3268L63.503 58.3591L63.0719 59.3614C62.6731 60.2883 62.63 60.353 62.3283 60.353C62.1235 60.353 62.0373 60.3098 62.0696 60.2236ZM68.3851 57.691C68.3743 57.497 66.1758 52.6795 66.1003 52.6579C66.0464 52.6579 65.7986 53.1321 65.5399 53.7249C65.2812 54.3177 64.7855 55.4708 64.4298 56.2899L63.7832 57.7664H66.0895C67.3613 57.7664 68.3959 57.7341 68.3851 57.691Z" fill="white"/>
<path d="M109.263 56.1823C109.285 53.5203 109.339 52.0114 109.404 51.9899C109.468 51.9791 110.632 53.337 111.99 55.0291C113.359 56.7103 114.652 58.2946 114.868 58.5533L115.266 59.0059L115.277 55.4817V51.9468H115.547H115.816V56.1499C115.816 58.8012 115.773 60.3531 115.708 60.3531C115.654 60.3531 115.277 59.9543 114.878 59.4693C114.48 58.9844 113.876 58.2623 113.553 57.8635C113.23 57.4648 112.281 56.3116 111.462 55.2985C110.632 54.2855 109.91 53.4987 109.867 53.5418C109.813 53.5957 109.792 55.1476 109.802 56.9906L109.835 60.3531H109.533H109.242L109.263 56.1823Z" fill="white"/>
<path d="M100.609 34.6492C96.8911 34.1211 94.3261 32.3859 92.9897 29.5084L92.7634 29.0018L94.2938 28.1935C96.029 27.2775 96.4062 27.105 96.4493 27.1697C96.4708 27.1912 96.6109 27.4283 96.7618 27.6978C97.9258 29.7347 100.2 30.8232 103.228 30.8232C105.276 30.8232 106.709 30.3921 107.668 29.5191C108.897 28.3983 109.059 26.6524 108.046 25.4992C107.216 24.5508 105.89 24.0766 102.937 23.6563C100.566 23.3114 99.7579 23.139 98.691 22.7833C95.4901 21.684 94.0028 19.895 93.8627 16.942C93.7118 14.1184 94.865 12.1892 97.4947 10.8421C99.2945 9.92598 100.631 9.64577 103.261 9.65655C105.114 9.65655 105.416 9.68888 106.494 9.94754C108.164 10.3679 109.619 11.1007 110.611 12.0168C111.354 12.6958 112.26 13.8813 112.26 14.1722C112.26 14.2477 111.57 14.668 110.729 15.0883C109.878 15.5194 109.123 15.9182 109.059 15.9721C108.962 16.0475 108.746 15.8966 108.283 15.4332C107.507 14.6357 106.569 14.1076 105.319 13.7519C103.552 13.2346 100.965 13.4286 99.704 14.1615C98.2706 15.0129 97.7426 16.7265 98.5724 17.8796C99.2298 18.7742 100.48 19.2376 103.508 19.6687C108.272 20.3584 110.481 21.2529 111.839 23.0635C112.755 24.2706 113.068 25.3483 113.057 27.2667C113.057 28.7971 112.895 29.4976 112.303 30.5969C111.775 31.5561 111.354 32.041 110.481 32.7092C109.296 33.6038 108.1 34.1211 106.278 34.509C104.985 34.7893 102.043 34.8647 100.609 34.6492Z" fill="white"/>
<path d="M57.5107 34.5413C53.1136 33.8407 49.8588 31.2865 48.3931 27.3851C47.7788 25.747 47.5525 24.4321 47.5525 22.4168C47.5525 21.0049 47.5956 20.4337 47.7788 19.6039C48.6733 15.5732 50.9042 12.6849 54.3207 11.1006C56.0342 10.3031 57.7155 9.96897 59.9895 9.97974C62.2743 9.97974 63.4598 10.2276 65.3351 11.1006C66.3158 11.5532 67.1995 12.1244 68.1911 12.9543L68.87 13.5147L67.372 14.9373L65.8847 16.3599L65.2812 15.8642C64.5591 15.2714 63.2119 14.6248 62.1881 14.3661C61.1966 14.1182 58.9226 14.1182 57.9203 14.3661C55.3876 14.9912 53.577 16.5216 52.5316 18.9141C51.6802 20.8648 51.7018 24.098 52.5855 26.1026C53.5231 28.215 55.3014 29.7022 57.6185 30.295C58.8795 30.6291 61.078 30.6291 62.2635 30.3058C63.3844 30.004 64.5483 29.4328 65.4213 28.7646L66.1434 28.2042L67.6522 29.7022L69.161 31.2003L68.6437 31.6745C67.0594 33.1186 64.5375 34.261 62.2096 34.5844C61.0888 34.746 58.6424 34.7137 57.5107 34.5413Z" fill="white"/>
<path d="M73.9138 34.1857L71.7368 34.1641L71.7584 22.2767L71.7907 10.4001H74.0001C75.8861 10.4001 76.2094 10.4217 76.2202 10.5618C76.231 10.648 76.2417 12.8897 76.2525 15.5517C76.2525 18.2029 76.2956 20.3691 76.3495 20.3584C76.4142 20.3584 78.3325 18.2352 81.3286 14.8404C82.4064 13.6225 83.9798 11.8766 84.745 11.0683L85.4348 10.3354L88.1183 10.3462C89.6487 10.357 90.8127 10.4001 90.8127 10.454C90.8127 10.5079 88.8835 12.631 86.5341 15.1637C80.7467 21.3822 80.3587 21.8025 80.391 21.9534C80.4018 22.0288 81.652 23.376 83.1608 24.9603C89.7457 31.847 91.7826 34.0024 91.7826 34.0779C91.7826 34.1318 90.5325 34.1641 89.0021 34.1641H86.2215L82.0184 29.7238C79.712 27.2774 77.5027 24.9279 77.1255 24.4968C76.7375 24.0765 76.3926 23.7317 76.3495 23.7209C76.2956 23.7101 76.2633 26.0596 76.2633 28.9263C76.2633 31.8039 76.231 34.1641 76.1879 34.1857C76.134 34.2072 75.1209 34.2072 73.9138 34.1857Z" fill="white"/>
<path d="M125.43 34.1964L116.571 34.1641L116.592 22.2767L116.624 10.4001L125.494 10.3677L134.353 10.3462V12.5017V14.6571H127.671H120.989V17.4592V20.2613H127.456H133.922V22.309V24.3567H127.456H120.989V27.1049V29.8531H127.671H134.353V32.0625C134.353 33.2803 134.342 34.2611 134.332 34.2503C134.31 34.2287 130.312 34.2072 125.43 34.1964Z" fill="white"/>
<path d="M0.283203 22.2552V10.3247L6.78193 10.3786C12.8819 10.4217 13.3238 10.4433 14.1859 10.648C16.6432 11.2516 18.1628 12.3077 19.0034 14.0213C19.9518 15.9505 19.9518 18.4077 19.0034 19.895C18.6693 20.4338 17.8179 21.2206 17.2359 21.5547C16.7078 21.8457 16.6647 21.9534 17.0419 22.0504C17.182 22.0828 17.6024 22.3199 17.958 22.5677C20.1242 24.0766 20.9757 26.9649 20.0596 29.6915C19.7363 30.6831 19.4776 31.1249 18.8849 31.7716C17.958 32.7846 16.7509 33.4205 14.9404 33.8731C14.0674 34.0779 13.6902 34.0995 7.15913 34.1318L0.283203 34.1749V22.2552ZM12.9573 29.9718C14.3476 29.7023 15.3714 29.0772 15.8133 28.2258C16.0396 27.7624 16.0935 26.8248 15.8995 26.329C15.5439 25.3806 14.4985 24.5292 13.1729 24.1089C12.44 23.8826 12.246 23.8718 8.52785 23.8718H4.64802L4.61569 26.8356C4.60491 28.4629 4.61569 29.8532 4.64802 29.9287C4.68035 30.0364 5.54253 30.0688 8.56018 30.0688C10.6941 30.0688 12.6663 30.0256 12.9573 29.9718ZM13.5393 19.7333C15.3176 19.0867 15.8672 17.3192 14.7679 15.8211C14.3368 15.2176 13.798 14.8512 13.0004 14.6141C12.5155 14.474 11.761 14.4416 8.5063 14.4416H4.59413V17.1791C4.59413 18.8927 4.63724 19.9381 4.7019 19.9596C4.75579 19.9812 6.68493 19.9704 8.9805 19.9273C11.9982 19.8842 13.2699 19.8303 13.5393 19.7333Z" fill="white"/>
<path d="M21.2991 34.1209C21.2991 34.0778 21.5362 33.5605 22.9157 30.4997C23.433 29.3466 24.5969 26.7492 25.5022 24.7339C26.3967 22.7185 27.5391 20.1751 28.0457 19.0758C28.5414 17.9765 29.6192 15.5839 30.4382 13.741L31.9363 10.4L34.3073 10.3677C36.1287 10.3462 36.7106 10.3785 36.7969 10.4755C36.8615 10.5509 37.5513 12.049 38.3272 13.7949C39.114 15.5408 40.1702 17.9226 40.6875 19.0758C41.2048 20.229 42.1209 22.2659 42.7244 23.6023C43.3171 24.9386 44.632 27.8593 45.6343 30.101L47.4664 34.164L45.0307 34.1425L42.6058 34.1101L41.6143 31.9008L40.6336 29.6914L34.372 29.6591L28.1211 29.6376L27.108 31.9008L26.095 34.1533L23.7024 34.164C22.3768 34.164 21.2991 34.1425 21.2991 34.1209ZM38.7583 25.4452C38.7583 25.3697 37.2279 21.8024 36.0748 19.1836C35.9023 18.7956 35.4605 17.7933 35.0833 16.9527C34.5013 15.6055 34.2319 15.1528 34.2319 15.5193C34.2319 15.5732 33.8008 16.6078 33.2727 17.8041C31.8177 21.1235 30.0071 25.2512 29.9533 25.4128C29.9101 25.5098 30.8262 25.5422 34.3289 25.5422C36.7861 25.5422 38.7583 25.4991 38.7583 25.4452Z" fill="white"/>
<path d="M135.571 34.0347C135.603 33.9593 136.207 32.6121 136.918 31.0387C137.619 29.4652 138.912 26.5876 139.796 24.6261C140.669 22.6755 141.746 20.2721 142.188 19.2914C142.641 18.3106 143.234 16.985 143.514 16.3276C143.805 15.681 144.516 14.0751 145.109 12.7711L146.187 10.4001L148.428 10.3678C150.724 10.3354 151.166 10.3678 151.166 10.5725C151.166 10.6264 151.909 12.34 152.825 14.3661C153.731 16.3923 155.218 19.7009 156.123 21.7163C158.721 27.5252 159.055 28.2689 160.111 30.6076C160.66 31.8254 161.253 33.1187 161.415 33.4959L161.717 34.1641L159.281 34.1425L156.845 34.1102L155.854 31.9008L154.873 29.6915L148.622 29.6592L142.371 29.6376L141.347 31.9008L140.334 34.1641H137.92C136.034 34.1641 135.528 34.1317 135.571 34.0347ZM152.836 24.9818C152.696 24.6693 151.995 23.0527 151.273 21.3929C149.064 16.3168 148.655 15.4115 148.579 15.4115C148.536 15.4115 148.417 15.6379 148.31 15.9288C148.202 16.2091 147.749 17.2652 147.307 18.2675C146.865 19.2806 146.273 20.6385 145.993 21.2852C145.712 21.9426 145.195 23.1065 144.861 23.8717C144.516 24.6477 144.225 25.3374 144.193 25.4129C144.15 25.5099 145.076 25.5422 148.611 25.5422H153.095L152.836 24.9818Z" fill="white"/>
<path d="M166.125 24.3028L166.146 14.4416H162.32H158.494L158.516 12.4154L158.548 10.4001L168.334 10.3677L178.109 10.3462V12.3939V14.4416H174.337H170.565V24.3028V34.1641H168.334H166.092L166.125 24.3028Z" fill="white"/>
<g clip-path="url(#clip0_2216_2)">
<path d="M100.609 24.7773C96.8911 24.2492 94.3261 22.5141 92.9897 19.6365L92.7634 19.13L94.2938 18.3217C96.029 17.4056 96.4062 17.2332 96.4493 17.2979C96.4708 17.3194 96.6109 17.5565 96.7618 17.826C97.9258 19.8629 100.2 20.9514 103.228 20.9514C105.276 20.9514 106.709 20.5203 107.668 19.6473C108.897 18.5265 109.059 16.7806 108.046 15.6274C107.216 14.679 105.89 14.2048 102.937 13.7845C100.566 13.4396 99.7579 13.2671 98.691 12.9115C95.4901 11.8122 94.0028 10.0232 93.8627 7.07019C93.7118 4.24653 94.865 2.31739 97.4947 0.970226C99.2945 0.054154 100.631 -0.226056 103.261 -0.215279C105.114 -0.215279 105.416 -0.182947 106.494 0.0757092C108.164 0.496025 109.619 1.22888 110.611 2.14495C111.354 2.82393 112.26 4.00943 112.26 4.30042C112.26 4.37586 111.57 4.79617 110.729 5.21649C109.878 5.64758 109.123 6.04634 109.059 6.10023C108.962 6.17567 108.746 6.02479 108.283 5.56136C107.507 4.76384 106.569 4.23575 105.319 3.8801C103.552 3.36279 100.965 3.55678 99.704 4.28964C98.2706 5.14105 97.7426 6.85464 98.5724 8.00781C99.2298 8.90233 100.48 9.36576 103.508 9.79685C108.272 10.4866 110.481 11.3811 111.839 13.1917C112.755 14.3988 113.068 15.4765 113.057 17.3949C113.057 18.9252 112.895 19.6258 112.303 20.7251C111.775 21.6842 111.354 22.1692 110.481 22.8374C109.296 23.7319 108.1 24.2492 106.278 24.6372C104.985 24.9174 102.043 24.9929 100.609 24.7773Z" fill="white" fill-opacity="0.1"/>
<path d="M57.5107 24.6697C53.1136 23.9691 49.8588 21.4149 48.3931 17.5135C47.7788 15.8754 47.5525 14.5605 47.5525 12.5452C47.5525 11.1334 47.5956 10.5622 47.7788 9.73231C48.6733 5.70159 50.9042 2.81327 54.3207 1.229C56.0342 0.431482 57.7155 0.097385 59.9895 0.108162C62.2743 0.108162 63.4598 0.356041 65.3351 1.229C66.3158 1.68165 67.1995 2.25285 68.1911 3.0827L68.87 3.64312L67.372 5.06573L65.8847 6.48834L65.2812 5.99258C64.5591 5.39983 63.2119 4.75319 62.1881 4.49453C61.1966 4.24665 58.9226 4.24665 57.9203 4.49453C55.3876 5.11962 53.577 6.65 52.5316 9.04256C51.6802 10.9933 51.7018 14.2265 52.5855 16.231C53.5231 18.3434 55.3014 19.8307 57.6185 20.4234C58.8795 20.7575 61.078 20.7575 62.2635 20.4342C63.3844 20.1324 64.5483 19.5612 65.4213 18.893L66.1434 18.3326L67.6522 19.8307L69.161 21.3287L68.6437 21.8029C67.0594 23.2471 64.5375 24.3895 62.2096 24.7128C61.0888 24.8744 58.6424 24.8421 57.5107 24.6697Z" fill="white" fill-opacity="0.1"/>
<path d="M73.9138 24.3138L71.7368 24.2923L71.7584 12.4049L71.7907 0.528287H74.0001C75.8861 0.528287 76.2094 0.549841 76.2202 0.689947C76.231 0.776165 76.2417 3.01785 76.2525 5.67985C76.2525 8.33107 76.2956 10.4973 76.3495 10.4865C76.4142 10.4865 78.3325 8.3634 81.3286 4.96854C82.4064 3.7507 83.9798 2.00478 84.745 1.19648L85.4348 0.463623L88.1183 0.4744C89.6487 0.485178 90.8127 0.528287 90.8127 0.582173C90.8127 0.63606 88.8835 2.75919 86.5341 5.29186C80.7467 11.5104 80.3587 11.9307 80.391 12.0816C80.4018 12.157 81.652 13.5042 83.1608 15.0884C89.7457 21.9752 91.7826 24.1306 91.7826 24.2061C91.7826 24.2599 90.5325 24.2923 89.0021 24.2923H86.2215L82.0184 19.852C79.712 17.4056 77.5027 15.0561 77.1255 14.625C76.7375 14.2047 76.3926 13.8598 76.3495 13.8491C76.2956 13.8383 76.2633 16.1877 76.2633 19.0545C76.2633 21.932 76.231 24.2923 76.1879 24.3138C76.134 24.3354 75.1209 24.3354 73.9138 24.3138Z" fill="white" fill-opacity="0.1"/>
<path d="M125.43 24.3246L116.571 24.2922L116.592 12.4049L116.624 0.528252L125.494 0.49592L134.353 0.474365V2.62983V4.78529H127.671H120.989V7.5874V10.3895H127.456H133.922V12.4372V14.4849H127.456H120.989V17.2331V19.9813H127.671H134.353V22.1907C134.353 23.4085 134.342 24.3892 134.332 24.3785C134.31 24.3569 130.312 24.3354 125.43 24.3246Z" fill="white" fill-opacity="0.1"/>
<path d="M0.283203 12.3834V0.452881L6.78193 0.506767C12.8819 0.549877 13.3238 0.571431 14.1859 0.7762C16.6432 1.37973 18.1628 2.43591 19.0034 4.1495C19.9518 6.07864 19.9518 8.53587 19.0034 10.0231C18.6693 10.562 17.8179 11.3488 17.2359 11.6828C16.7078 11.9738 16.6647 12.0816 17.0419 12.1786C17.182 12.2109 17.6024 12.448 17.958 12.6959C20.1242 14.2047 20.9757 17.0931 20.0596 19.8197C19.7363 20.8112 19.4776 21.2531 18.8849 21.8997C17.958 22.9128 16.7509 23.5487 14.9404 24.0013C14.0674 24.2061 13.6902 24.2276 7.15913 24.26L0.283203 24.3031V12.3834ZM12.9573 20.0999C14.3476 19.8305 15.3714 19.2054 15.8133 18.354C16.0396 17.8906 16.0935 16.953 15.8995 16.4572C15.5439 15.5088 14.4985 14.6574 13.1729 14.2371C12.44 14.0107 12.246 14 8.52785 14H4.64802L4.61569 16.9637C4.60491 18.5911 4.61569 19.9814 4.64802 20.0568C4.68035 20.1646 5.54253 20.1969 8.56018 20.1969C10.6941 20.1969 12.6663 20.1538 12.9573 20.0999ZM13.5393 9.86148C15.3176 9.21484 15.8672 7.44736 14.7679 5.94931C14.3368 5.34578 13.798 4.97936 13.0004 4.74225C12.5155 4.60215 11.761 4.56982 8.5063 4.56982H4.59413V7.30725C4.59413 9.02085 4.63724 10.0662 4.7019 10.0878C4.75579 10.1094 6.68493 10.0986 8.9805 10.0555C11.9982 10.0124 13.2699 9.95848 13.5393 9.86148Z" fill="white" fill-opacity="0.1"/>
<path d="M21.2991 24.2493C21.2991 24.2062 21.5362 23.6889 22.9157 20.6282C23.433 19.475 24.5969 16.8777 25.5022 14.8623C26.3967 12.8469 27.5391 10.3035 28.0457 9.2042C28.5414 8.10492 29.6192 5.71235 30.4382 3.86943L31.9363 0.528461L34.3073 0.496129C36.1287 0.474574 36.7106 0.506906 36.7969 0.603902C36.8615 0.679343 37.5513 2.17739 38.3272 3.92332C39.114 5.66924 40.1702 8.05103 40.6875 9.2042C41.2048 10.3574 42.1209 12.3943 42.7244 13.7307C43.3171 15.0671 44.632 17.9877 45.6343 20.2294L47.4664 24.2924L45.0307 24.2709L42.6058 24.2386L41.6143 22.0292L40.6336 19.8199L34.372 19.7875L28.1211 19.766L27.1081 22.0292L26.095 24.2817L23.7024 24.2924C22.3768 24.2924 21.2991 24.2709 21.2991 24.2493ZM38.7583 15.5736C38.7583 15.4982 37.2279 11.9309 36.0748 9.31198C35.9023 8.92399 35.4605 7.9217 35.0833 7.08107C34.5013 5.73391 34.2319 5.28126 34.2319 5.64769C34.2319 5.70157 33.8008 6.7362 33.2727 7.93248C31.8177 11.2519 30.0071 15.3796 29.9533 15.5413C29.9101 15.6383 30.8262 15.6706 34.3289 15.6706C36.7861 15.6706 38.7583 15.6275 38.7583 15.5736Z" fill="white" fill-opacity="0.1"/>
<path d="M135.571 24.1629C135.603 24.0875 136.207 22.7403 136.918 21.1668C137.619 19.5933 138.912 16.7158 139.796 14.7543C140.669 12.8036 141.746 10.4003 142.188 9.41955C142.641 8.43881 143.234 7.1132 143.514 6.45578C143.805 5.80914 144.516 4.20332 145.109 2.89927L146.187 0.528257L148.428 0.495925C150.724 0.463593 151.166 0.495925 151.166 0.700694C151.166 0.754581 151.909 2.46818 152.825 4.49431C153.731 6.52045 155.218 9.82908 156.123 11.8444C158.721 17.6534 159.055 18.3971 160.111 20.7357C160.66 21.9536 161.253 23.2468 161.415 23.6241L161.717 24.2922L159.281 24.2707L156.845 24.2384L155.854 22.029L154.873 19.8197L148.622 19.7873L142.371 19.7658L141.347 22.029L140.334 24.2922H137.92C136.034 24.2922 135.528 24.2599 135.571 24.1629ZM152.836 15.11C152.696 14.7974 151.995 13.1808 151.273 11.5211C149.064 6.44501 148.655 5.53971 148.579 5.53971C148.536 5.53971 148.417 5.76603 148.31 6.05702C148.202 6.33723 147.749 7.39341 147.307 8.3957C146.865 9.40877 146.273 10.7667 145.993 11.4133C145.712 12.0708 145.195 13.2347 144.861 13.9999C144.516 14.7759 144.225 15.4656 144.193 15.5411C144.15 15.6381 145.076 15.6704 148.611 15.6704H153.095L152.836 15.11Z" fill="white" fill-opacity="0.1"/>
<path d="M166.124 14.431L166.146 4.56975H162.32H158.494L158.516 2.54361L158.548 0.528252L168.334 0.49592L178.109 0.474365V2.52206V4.56975H174.337H170.565V14.431V24.2922H168.334H166.092L166.124 14.431Z" fill="white" fill-opacity="0.1"/>
</g>
<g clip-path="url(#clip1_2216_2)">
<path d="M100.609 44.1765C96.8911 43.6484 94.3261 41.9133 92.9897 39.0357L92.7634 38.5292L94.2938 37.7209C96.029 36.8048 96.4062 36.6324 96.4493 36.697C96.4708 36.7186 96.6109 36.9557 96.7618 37.2251C97.9258 39.262 100.2 40.3505 103.228 40.3505C105.276 40.3505 106.709 39.9195 107.668 39.0465C108.897 37.9256 109.059 36.1797 108.046 35.0266C107.216 34.0781 105.89 33.6039 102.937 33.1836C100.566 32.8388 99.7579 32.6663 98.691 32.3107C95.4901 31.2114 94.0028 29.4223 93.8627 26.4694C93.7118 23.6457 94.865 21.7166 97.4947 20.3694C99.2945 19.4533 100.631 19.1731 103.261 19.1839C105.114 19.1839 105.416 19.2162 106.494 19.4749C108.164 19.8952 109.619 20.6281 110.611 21.5441C111.354 22.2231 112.26 23.4086 112.26 23.6996C112.26 23.775 111.57 24.1953 110.729 24.6157C109.878 25.0468 109.123 25.4455 109.059 25.4994C108.962 25.5748 108.746 25.424 108.283 24.9605C107.507 24.163 106.569 23.6349 105.319 23.2793C103.552 22.762 100.965 22.956 99.704 23.6888C98.2706 24.5402 97.7426 26.2538 98.5724 27.407C99.2298 28.3015 100.48 28.7649 103.508 29.196C108.272 29.8858 110.481 30.7803 111.839 32.5909C112.755 33.7979 113.068 34.8757 113.057 36.794C113.057 38.3244 112.895 39.0249 112.303 40.1242C111.775 41.0834 111.354 41.5684 110.481 42.2366C109.296 43.1311 108.1 43.6484 106.278 44.0364C104.985 44.3166 102.043 44.392 100.609 44.1765Z" fill="white" fill-opacity="0.1"/>
<path d="M57.5107 44.0688C53.1136 43.3683 49.8588 40.8141 48.3931 36.9127C47.7788 35.2746 47.5525 33.9597 47.5525 31.9444C47.5525 30.5325 47.5956 29.9613 47.7788 29.1315C48.6733 25.1008 50.9042 22.2124 54.3207 20.6282C56.0342 19.8307 57.7155 19.4966 59.9895 19.5073C62.2743 19.5073 63.4598 19.7552 65.3351 20.6282C66.3158 21.0808 67.1995 21.652 68.1911 22.4819L68.87 23.0423L67.372 24.4649L65.8847 25.8875L65.2812 25.3917C64.5591 24.799 63.2119 24.1524 62.1881 23.8937C61.1966 23.6458 58.9226 23.6458 57.9203 23.8937C55.3876 24.5188 53.577 26.0492 52.5316 28.4417C51.6802 30.3924 51.7018 33.6256 52.5855 35.6302C53.5231 37.7426 55.3014 39.2298 57.6185 39.8226C58.8795 40.1567 61.078 40.1567 62.2635 39.8334C63.3844 39.5316 64.5483 38.9604 65.4213 38.2922L66.1434 37.7318L67.6522 39.2298L69.161 40.7279L68.6437 41.2021C67.0594 42.6462 64.5375 43.7886 62.2096 44.112C61.0888 44.2736 58.6424 44.2413 57.5107 44.0688Z" fill="white" fill-opacity="0.1"/>
<path d="M73.9138 43.713L71.7368 43.6914L71.7584 31.8041L71.7907 19.9275H74.0001C75.8861 19.9275 76.2094 19.949 76.2202 20.0891C76.231 20.1753 76.2417 22.417 76.2525 25.079C76.2525 27.7302 76.2956 29.8965 76.3495 29.8857C76.4142 29.8857 78.3325 27.7626 81.3286 24.3677C82.4064 23.1499 83.9798 21.4039 84.745 20.5957L85.4348 19.8628L88.1183 19.8736C89.6487 19.8843 90.8127 19.9275 90.8127 19.9813C90.8127 20.0352 88.8835 22.1584 86.5341 24.691C80.7467 30.9095 80.3587 31.3299 80.391 31.4807C80.4018 31.5562 81.652 32.9034 83.1608 34.4876C89.7457 41.3743 91.7826 43.5298 91.7826 43.6052C91.7826 43.6591 90.5325 43.6914 89.0021 43.6914H86.2215L82.0184 39.2512C79.712 36.8047 77.5027 34.4553 77.1255 34.0242C76.7375 33.6039 76.3926 33.259 76.3495 33.2482C76.2956 33.2374 76.2633 35.5869 76.2633 38.4537C76.2633 41.3312 76.231 43.6914 76.1879 43.713C76.134 43.7346 75.1209 43.7346 73.9138 43.713Z" fill="white" fill-opacity="0.1"/>
<path d="M125.43 43.7237L116.571 43.6914L116.592 31.804L116.624 19.9274L125.494 19.8951L134.353 19.8735V22.029V24.1845H127.671H120.989V26.9866V29.7887H127.456H133.922V31.8364V33.8841H127.456H120.989V36.6323V39.3805H127.671H134.353V41.5898C134.353 42.8077 134.342 43.7884 134.332 43.7776C134.31 43.7561 130.312 43.7345 125.43 43.7237Z" fill="white" fill-opacity="0.1"/>
<path d="M0.283203 31.7825V19.8521L6.78193 19.9059C12.8819 19.949 13.3238 19.9706 14.1859 20.1754C16.6432 20.7789 18.1628 21.8351 19.0034 23.5487C19.9518 25.4778 19.9518 27.935 19.0034 29.4223C18.6693 29.9612 17.8179 30.7479 17.2359 31.082C16.7078 31.373 16.6647 31.4808 17.0419 31.5778C17.182 31.6101 17.6024 31.8472 17.958 32.0951C20.1242 33.6039 20.9757 36.4922 20.0596 39.2189C19.7363 40.2104 19.4776 40.6523 18.8849 41.2989C17.958 42.312 16.7509 42.9478 14.9404 43.4005C14.0674 43.6053 13.6902 43.6268 7.15913 43.6591L0.283203 43.7023V31.7825ZM12.9573 39.4991C14.3476 39.2297 15.3714 38.6046 15.8133 37.7532C16.0396 37.2898 16.0935 36.3521 15.8995 35.8564C15.5439 34.908 14.4985 34.0566 13.1729 33.6362C12.44 33.4099 12.246 33.3991 8.52785 33.3991H4.64802L4.61569 36.3629C4.60491 37.9903 4.61569 39.3806 4.64802 39.456C4.68035 39.5638 5.54253 39.5961 8.56018 39.5961C10.6941 39.5961 12.6663 39.553 12.9573 39.4991ZM13.5393 29.2607C15.3176 28.614 15.8672 26.8465 14.7679 25.3485C14.3368 24.745 13.798 24.3785 13.0004 24.1414C12.5155 24.0013 11.761 23.969 8.5063 23.969H4.59413V26.7064C4.59413 28.42 4.63724 29.4654 4.7019 29.487C4.75579 29.5085 6.68493 29.4978 8.9805 29.4546C11.9982 29.4115 13.2699 29.3576 13.5393 29.2607Z" fill="white" fill-opacity="0.1"/>
<path d="M21.2991 43.6485C21.2991 43.6054 21.5362 43.0881 22.9157 40.0273C23.433 38.8742 24.5969 36.2768 25.5022 34.2615C26.3967 32.2461 27.5391 29.7027 28.0457 28.6034C28.5414 27.5041 29.6192 25.1115 30.4382 23.2686L31.9363 19.9276L34.3073 19.8953C36.1287 19.8737 36.7106 19.9061 36.7969 20.0031C36.8615 20.0785 37.5513 21.5766 38.3272 23.3225C39.114 25.0684 40.1702 27.4502 40.6875 28.6034C41.2048 29.7565 42.1209 31.7935 42.7244 33.1298C43.3171 34.4662 44.632 37.3869 45.6343 39.6286L47.4664 43.6916L45.0307 43.6701L42.6058 43.6377L41.6143 41.4284L40.6336 39.219L34.372 39.1867L28.1211 39.1651L27.1081 41.4284L26.095 43.6808L23.7024 43.6916C22.3768 43.6916 21.2991 43.6701 21.2991 43.6485ZM38.7583 34.9728C38.7583 34.8973 37.2279 31.33 36.0748 28.7111C35.9023 28.3232 35.4605 27.3209 35.0833 26.4802C34.5013 25.1331 34.2319 24.6804 34.2319 25.0469C34.2319 25.1007 33.8008 26.1354 33.2727 27.3316C31.8177 30.6511 30.0071 34.7788 29.9533 34.9404C29.9101 35.0374 30.8262 35.0698 34.3289 35.0698C36.7861 35.0698 38.7583 35.0267 38.7583 34.9728Z" fill="white" fill-opacity="0.1"/>
<path d="M135.571 43.5621C135.603 43.4866 136.207 42.1395 136.918 40.566C137.619 38.9925 138.912 36.115 139.796 34.1535C140.669 32.2028 141.746 29.7995 142.188 28.8187C142.641 27.838 143.234 26.5124 143.514 25.855C143.805 25.2083 144.516 23.6025 145.109 22.2984L146.187 19.9274L148.428 19.8951C150.724 19.8628 151.166 19.8951 151.166 20.0999C151.166 20.1538 151.909 21.8673 152.825 23.8935C153.731 25.9196 155.218 29.2283 156.123 31.2436C158.721 37.0526 159.055 37.7962 160.111 40.1349C160.66 41.3527 161.253 42.646 161.415 43.0232L161.717 43.6914L159.281 43.6699L156.845 43.6375L155.854 41.4282L154.873 39.2188L148.622 39.1865L142.371 39.1649L141.347 41.4282L140.334 43.6914H137.92C136.034 43.6914 135.528 43.6591 135.571 43.5621ZM152.836 34.5091C152.696 34.1966 151.995 32.58 151.273 30.9203C149.064 25.8442 148.655 24.9389 148.579 24.9389C148.536 24.9389 148.417 25.1652 148.31 25.4562C148.202 25.7364 147.749 26.7926 147.307 27.7949C146.865 28.8079 146.273 30.1659 145.993 30.8125C145.712 31.4699 145.195 32.6339 144.861 33.3991C144.516 34.175 144.225 34.8648 144.193 34.9402C144.15 35.0372 145.076 35.0696 148.611 35.0696H153.095L152.836 34.5091Z" fill="white" fill-opacity="0.1"/>
<path d="M166.124 33.8302L166.146 23.9689H162.32H158.494L158.516 21.9428L158.548 19.9274L168.334 19.8951L178.109 19.8735V21.9212V23.9689H174.337H170.565V33.8302V43.6914H168.334H166.092L166.124 33.8302Z" fill="white" fill-opacity="0.1"/>
</g>
<defs>
<clipPath id="clip0_2216_2">
<rect width="177.826" height="9.26849" fill="white" transform="translate(0.390869)"/>
</clipPath>
<clipPath id="clip1_2216_2">
<rect width="177.826" height="9.26849" fill="white" transform="translate(0.390869 35.134)"/>
</clipPath>
</defs>
</svg>
