<svg width="199" height="46" viewBox="0 0 199 46" fill="none" xmlns="http://www.w3.org/2000/svg">
<g clip-path="url(#clip0_2101_102)">
<mask id="mask0_2101_102" style="mask-type:luminance" maskUnits="userSpaceOnUse" x="0" y="0" width="199" height="46">
<path d="M199 0H0V46H199V0Z" fill="white"/>
</mask>
<g mask="url(#mask0_2101_102)">
<path d="M30.0895 34.2231L20.0248 44.2664L10.5881 34.8364C4.003 28.2523 -1.79995 23.6232 4.78671 17.0459L20.0417 1.58228L36.0475 17.1878C42.2902 23.4277 36.3368 27.9878 30.0895 34.2231Z" fill="#3AAA35"/>
<path d="M37.4068 17.0667L20.6051 0.272879C20.4306 0.098626 20.194 0.000732422 19.9473 0.000732422C19.7006 0.000732422 19.4639 0.098626 19.2895 0.272879L2.56221 16.9663C1.74976 17.7645 1.10472 18.7165 0.664798 19.7665C0.224871 20.8166 -0.00112848 21.9437 4.23691e-06 23.082C0.0173067 25.2742 0.899987 27.3711 2.45628 28.9171L19.2718 45.727C19.4463 45.9013 19.6829 45.9992 19.9296 45.9992C20.1764 45.9992 20.413 45.9013 20.5875 45.727L37.4022 28.947C38.184 28.1672 38.8043 27.2411 39.2277 26.2218C39.651 25.2025 39.8692 24.1098 39.8696 23.0063C39.87 21.9027 39.6527 20.8099 39.2302 19.7902C38.8076 18.7706 38.188 17.8441 37.4068 17.0636M19.4453 41.7411L4.5518 26.8555C3.52654 25.8314 2.95056 24.4425 2.95056 22.9942C2.95056 21.5459 3.52654 20.157 4.5518 19.1329L19.466 4.25111C19.529 4.18822 19.6037 4.13833 19.6859 4.10429C19.7682 4.07026 19.8563 4.05274 19.9454 4.05274C20.0344 4.05274 20.1226 4.07026 20.2048 4.10429C20.2871 4.13833 20.3618 4.18822 20.4247 4.25111L23.2648 7.08778C23.4059 7.22881 23.4852 7.42006 23.4852 7.61946C23.4852 7.81887 23.4059 8.01011 23.2648 8.15115L8.82725 22.5576C8.76963 22.6151 8.72391 22.6834 8.69272 22.7586C8.66153 22.8338 8.64548 22.9144 8.64548 22.9957C8.64548 23.0771 8.66153 23.1577 8.69272 23.2329C8.72391 23.308 8.76963 23.3764 8.82725 23.4339L23.2671 37.8687C23.4037 38.0053 23.4805 38.1904 23.4805 38.3835C23.4805 38.5766 23.4037 38.7617 23.2671 38.8983L20.4178 41.7442C20.2894 41.8723 20.1154 41.9443 19.9339 41.9443C19.7524 41.9443 19.5783 41.8723 19.4499 41.7442M35.3389 26.8517L28.1843 33.9924C28.0389 34.1375 27.8418 34.2191 27.6362 34.2191C27.4307 34.2191 27.2335 34.1375 27.0881 33.9924L24.3325 31.2401C24.1872 31.0949 24.1056 30.898 24.1056 30.6927C24.1056 30.4874 24.1872 30.2905 24.3325 30.1453L31.0489 23.4423C31.1065 23.3848 31.1522 23.3165 31.1834 23.2413C31.2146 23.1661 31.2307 23.0855 31.2307 23.0042C31.2307 22.9228 31.2146 22.8422 31.1834 22.767C31.1522 22.6918 31.1065 22.6235 31.0489 22.566L28.0783 19.5959C28.0207 19.5384 27.9524 19.4927 27.8771 19.4616C27.8018 19.4304 27.7211 19.4144 27.6397 19.4144C27.5582 19.4144 27.4775 19.4304 27.4022 19.4616C27.327 19.4927 27.2586 19.5384 27.201 19.5959L20.4524 26.3311C20.3156 26.4676 20.1302 26.5442 19.9369 26.5442C19.7436 26.5442 19.5582 26.4676 19.4215 26.3311L16.6359 23.5466C16.5639 23.4747 16.5067 23.3893 16.4677 23.2953C16.4287 23.2013 16.4086 23.1005 16.4086 22.9988C16.4086 22.8971 16.4287 22.7963 16.4677 22.7023C16.5067 22.6083 16.5639 22.5229 16.6359 22.451L23.7952 15.3103C24.3008 14.8052 24.901 14.4046 25.5617 14.1312C26.2223 13.8579 26.9303 13.7172 27.6454 13.7172C28.3605 13.7172 29.0686 13.8579 29.7292 14.1312C30.3898 14.4046 30.9901 14.8052 31.4956 15.3103L35.3443 19.1574C36.3654 20.1774 36.939 21.5607 36.939 23.003C36.939 24.4454 36.3654 25.8287 35.3443 26.8486" fill="#EBF6EA"/>
<path d="M46.5549 28.2133V17.6111C46.5496 17.5543 46.5569 17.497 46.5762 17.4433C46.5956 17.3896 46.6266 17.3408 46.667 17.3004C46.7073 17.26 46.7561 17.229 46.8098 17.2095C46.8636 17.1901 46.9209 17.1827 46.9778 17.1879H54.0673C54.1242 17.1827 54.1815 17.1901 54.2353 17.2095C54.289 17.229 54.3378 17.26 54.3782 17.3004C54.4185 17.3408 54.4495 17.3896 54.4689 17.4433C54.4882 17.497 54.4955 17.5543 54.4902 17.6111V19.1958C54.4955 19.2526 54.4882 19.3099 54.4689 19.3636C54.4495 19.4173 54.4185 19.4661 54.3782 19.5065C54.3378 19.5469 54.289 19.5779 54.2353 19.5974C54.1815 19.6168 54.1242 19.6242 54.0673 19.619H49.147V22.067H53.7318C53.7887 22.0618 53.8461 22.0691 53.8998 22.0886C53.9536 22.108 54.0024 22.139 54.0427 22.1794C54.0831 22.2198 54.1141 22.2686 54.1334 22.3223C54.1528 22.376 54.1601 22.4333 54.1548 22.4902V24.0894C54.16 24.1462 54.1526 24.2034 54.1332 24.257C54.1138 24.3106 54.0828 24.3593 54.0424 24.3996C54.002 24.4399 53.9533 24.4709 53.8996 24.4903C53.846 24.5097 53.7887 24.517 53.7318 24.5119H49.147V28.211C49.1522 28.2678 49.1449 28.325 49.1254 28.3786C49.106 28.4322 49.075 28.4809 49.0347 28.5212C48.9943 28.5615 48.9456 28.5925 48.8919 28.6119C48.8382 28.6313 48.781 28.6386 48.7241 28.6335H46.9778C46.921 28.6386 46.8637 28.6313 46.8101 28.6119C46.7564 28.5925 46.7076 28.5615 46.6673 28.5212C46.6269 28.4809 46.5959 28.4322 46.5765 28.3786C46.5571 28.325 46.5497 28.2678 46.5549 28.211" fill="#EBF6EA"/>
<path d="M64.1312 22.757C64.1842 22.731 64.2355 22.7015 64.2847 22.6688C64.36 22.6179 64.4301 22.5599 64.4943 22.4956C64.5132 22.4766 64.5312 22.4566 64.548 22.4358C64.7385 22.2225 64.8437 21.9465 64.8435 21.6607C64.8448 21.48 64.8046 21.3014 64.7261 21.1386C64.6905 21.0599 64.6448 20.9862 64.5902 20.9193C64.5472 20.8658 64.5013 20.8146 64.4528 20.766C64.4324 20.7517 64.4131 20.7358 64.3952 20.7184C64.3078 20.6508 64.2118 20.5951 64.1097 20.5528C63.9323 20.481 63.7712 20.3743 63.6358 20.2392C63.5004 20.1041 63.3935 19.9433 63.3214 19.7662C63.2786 19.6652 63.2228 19.5701 63.1556 19.4833C63.1395 19.4634 63.121 19.445 63.1057 19.4235C63.0583 19.3737 63.007 19.3278 62.9522 19.2863C62.8846 19.2322 62.8109 19.1862 62.7326 19.1491C62.5707 19.0715 62.3934 19.0314 62.2138 19.0318C61.9262 19.0319 61.6487 19.1375 61.4339 19.3285C61.4139 19.3461 61.3963 19.3645 61.374 19.3821C61.3115 19.4469 61.2548 19.5169 61.2044 19.5914C61.1936 19.6068 61.1836 19.6226 61.1744 19.639C61.9797 19.6612 62.7432 20.0018 63.2972 20.5858C63.8513 21.1698 64.1507 21.9496 64.1297 22.7539M64.4912 23.322C64.4264 23.2596 64.3563 23.2029 64.2816 23.1526C64.2329 23.1188 64.1815 23.0888 64.1281 23.0629C64.1492 23.8672 63.8498 24.647 63.2957 25.231C62.7416 25.8151 61.9782 26.1556 61.1729 26.1779C61.1806 26.194 61.1929 26.2093 61.2029 26.2254C61.2528 26.3003 61.3096 26.3703 61.3725 26.4347C61.3947 26.4531 61.4124 26.4707 61.4324 26.4884C61.608 26.6411 61.8242 26.7395 62.0548 26.7716C62.2854 26.8037 62.5204 26.7682 62.7311 26.6693C62.8094 26.6314 62.8831 26.5846 62.9506 26.5298C63.005 26.4875 63.0563 26.4414 63.1042 26.3918C63.1195 26.3718 63.1379 26.3519 63.1541 26.3343C63.2209 26.2464 63.2766 26.1506 63.3199 26.0491C63.3917 25.8717 63.4985 25.7107 63.6339 25.5754C63.7694 25.4401 63.9306 25.3335 64.1082 25.2617C64.2103 25.2194 64.3063 25.1637 64.3937 25.0961C64.4121 25.08 64.4321 25.0624 64.4513 25.0463C64.5017 24.9995 64.5477 24.9482 64.5887 24.8929C64.6438 24.8264 64.6895 24.7526 64.7245 24.6737C64.8258 24.4638 64.863 24.2288 64.8314 23.998C64.7999 23.7672 64.7011 23.5508 64.5472 23.3757C64.5296 23.3558 64.5119 23.3381 64.4935 23.3159M60.5466 19.376C60.5289 19.3584 60.5082 19.34 60.4867 19.3223C60.2734 19.1315 59.9971 19.0258 59.7107 19.0256C59.5298 19.0254 59.3513 19.0655 59.1879 19.1429C59.1099 19.1805 59.0363 19.2265 58.9684 19.2802C58.9144 19.3226 58.8631 19.3685 58.8149 19.4174C58.8011 19.4396 58.7811 19.4573 58.7673 19.4772C58.6993 19.5635 58.6435 19.6587 58.6015 19.7601C58.5291 19.937 58.4221 20.0977 58.2867 20.2327C58.1513 20.3678 57.9904 20.4745 57.8132 20.5467C57.7116 20.5887 57.6163 20.6444 57.5299 20.7123C57.51 20.7299 57.4877 20.746 57.4701 20.7598C57.421 20.8079 57.3751 20.8591 57.3327 20.9132C57.165 21.1238 57.0747 21.3855 57.0771 21.6545C57.0786 21.9404 57.1841 22.2159 57.3741 22.4296C57.3918 22.4511 57.4102 22.4718 57.4279 22.4894C57.492 22.5537 57.5622 22.6117 57.6374 22.6627C57.6866 22.6954 57.7379 22.7248 57.7909 22.7509C57.7781 21.9484 58.0809 21.1729 58.6341 20.5908C59.1873 20.0087 59.9469 19.6664 60.75 19.6374L60.7177 19.5876C60.6661 19.5129 60.6081 19.4429 60.5443 19.3783M57.7909 23.0583C57.7375 23.0842 57.6862 23.1142 57.6374 23.148C57.5628 23.1984 57.4927 23.2551 57.4279 23.3174C57.4102 23.3397 57.3918 23.3573 57.3741 23.3772C57.1838 23.5923 57.0783 23.8691 57.0771 24.1562C57.0769 24.3355 57.1171 24.5126 57.1945 24.6744C57.2321 24.7525 57.2784 24.8261 57.3327 24.8937C57.373 24.9494 57.4191 25.0008 57.4701 25.047C57.4885 25.0631 57.51 25.0808 57.5299 25.0969C57.6163 25.1648 57.7116 25.2205 57.8132 25.2625C57.9905 25.3346 58.1516 25.4414 58.287 25.5766C58.4224 25.7118 58.5293 25.8727 58.6015 26.0498C58.644 26.1518 58.6997 26.2477 58.7673 26.335C58.7811 26.3527 58.8011 26.3726 58.8149 26.3925C58.8635 26.4413 58.9148 26.4873 58.9684 26.5305C59.1778 26.7003 59.441 26.79 59.7107 26.7835C59.9969 26.7837 60.2731 26.6787 60.4867 26.4884C60.5082 26.47 60.5289 26.4523 60.5466 26.4347C60.6108 26.3705 60.6689 26.3004 60.72 26.2254L60.7523 26.1756C59.9494 26.1466 59.1899 25.8044 58.6367 25.2225C58.0835 24.6406 57.7807 23.8653 57.7932 23.0629" fill="#EBF6EA"/>
<path d="M60.9786 17.0459C60.2047 17.0207 59.4339 17.1559 58.7149 17.4428C57.9958 17.7298 57.344 18.1624 56.8006 18.7134C56.2572 19.2644 55.8339 19.9218 55.5574 20.6442C55.2809 21.3666 55.1572 22.1384 55.1941 22.9109C55.1788 23.677 55.3166 24.4384 55.5995 25.1506C55.8824 25.8628 56.3047 26.5114 56.8417 27.0586C57.3787 27.6058 58.0196 28.0405 58.7268 28.3372C59.4341 28.6339 60.1935 28.7868 60.9606 28.7868C61.7277 28.7868 62.4871 28.6339 63.1944 28.3372C63.9016 28.0405 64.5425 27.6058 65.0795 27.0586C65.6165 26.5114 66.0388 25.8628 66.3217 25.1506C66.6046 24.4384 66.7424 23.677 66.7271 22.9109C66.7679 22.1405 66.648 21.37 66.3752 20.6482C66.1024 19.9265 65.6825 19.2691 65.1422 18.7178C64.6018 18.1665 63.9528 17.7332 63.2361 17.4455C62.5194 17.1577 61.7507 17.0216 60.9786 17.0459ZM64.1311 22.7576C64.0769 22.7857 64.0209 22.8113 63.963 22.8343C63.8792 22.8641 63.7939 22.8897 63.7074 22.9109C63.7941 22.9312 63.8795 22.9568 63.963 22.9876C64.0208 23.0091 64.077 23.0347 64.1311 23.0643C64.1845 23.0903 64.2358 23.1203 64.2846 23.154C64.3589 23.2045 64.4287 23.2612 64.4934 23.3234C64.5118 23.3457 64.5295 23.3633 64.5472 23.3832C64.701 23.5583 64.7999 23.7747 64.8316 24.0055C64.8633 24.2362 64.8263 24.4712 64.7252 24.6812C64.6898 24.7599 64.6441 24.8336 64.5894 24.9005C64.5482 24.9543 64.5022 25.0043 64.452 25.05C64.432 25.0661 64.4121 25.0837 64.3936 25.0998C64.3062 25.1673 64.2102 25.223 64.1081 25.2654C63.9306 25.3372 63.7694 25.4439 63.634 25.5792C63.4985 25.7144 63.3917 25.8755 63.3198 26.0527C63.2768 26.1544 63.2211 26.2503 63.154 26.338C63.1386 26.3556 63.1202 26.3755 63.1041 26.3955C63.0563 26.4449 63.005 26.4907 62.9506 26.5327C62.8831 26.5876 62.8094 26.6344 62.731 26.6722C62.5203 26.7712 62.2853 26.8068 62.0547 26.7747C61.8241 26.7425 61.6078 26.6441 61.4323 26.4913C61.4123 26.4729 61.3939 26.4552 61.3716 26.4376C61.3086 26.3733 61.2518 26.3033 61.202 26.2283C61.192 26.2122 61.1805 26.1969 61.1721 26.1808C61.1171 26.0949 61.0716 26.0034 61.0362 25.9079C61.0034 25.8259 60.9777 25.7412 60.9595 25.6548C60.9398 25.7414 60.9125 25.826 60.8781 25.9079C60.8436 26.002 60.8001 26.0926 60.7484 26.1785L60.7169 26.2283C60.6654 26.3031 60.6073 26.3731 60.5434 26.4376C60.525 26.4552 60.505 26.4729 60.4836 26.4913C60.2704 26.6825 59.9941 26.7885 59.7075 26.7887C59.4377 26.7949 59.1744 26.7053 58.9645 26.5358C58.9131 26.4936 58.8632 26.446 58.8148 26.3985C58.801 26.3786 58.781 26.3586 58.7665 26.341C58.6988 26.2537 58.6431 26.1578 58.6007 26.0558C58.5286 25.8788 58.4218 25.7179 58.2865 25.5827C58.1513 25.4475 57.9903 25.3406 57.8131 25.2685C57.7115 25.2266 57.6162 25.1708 57.5299 25.1029C57.5099 25.0868 57.4877 25.0691 57.47 25.053C57.4192 25.0081 57.3731 24.958 57.3326 24.9035C57.2784 24.8359 57.232 24.7623 57.1944 24.6842C57.0929 24.4743 57.0558 24.2391 57.0877 24.0081C57.1197 23.7772 57.2193 23.5608 57.3741 23.3863C57.3917 23.3671 57.4101 23.3487 57.4278 23.3265C57.4923 23.264 57.5621 23.2073 57.6366 23.157C57.6854 23.1233 57.7367 23.0933 57.7901 23.0673C57.8442 23.0377 57.9003 23.0121 57.9582 22.9907C58.041 22.9602 58.1256 22.9346 58.2115 22.914C58.1255 22.8918 58.0419 22.8665 57.9582 22.8373C57.9006 22.8136 57.8438 22.7875 57.7901 22.7607C57.7372 22.7347 57.6859 22.7055 57.6366 22.6733C57.5616 22.6223 57.4917 22.5643 57.4278 22.5C57.4088 22.4811 57.3908 22.4612 57.3741 22.4402C57.1841 22.2265 57.0785 21.9509 57.077 21.6651C57.0766 21.4845 57.1168 21.3061 57.1944 21.143C57.2323 21.0651 57.2787 20.9916 57.3326 20.9238C57.3749 20.8696 57.4208 20.8184 57.47 20.7704C57.4877 20.7566 57.5099 20.7405 57.5299 20.7229C57.6162 20.6549 57.7115 20.5992 57.8131 20.5573C57.9901 20.4848 58.151 20.3779 58.2862 20.2427C58.4214 20.1075 58.5283 19.9468 58.6007 19.7699C58.6427 19.6685 58.6985 19.5733 58.7665 19.487C58.781 19.4671 58.801 19.4487 58.8148 19.4272C58.8619 19.3782 58.9118 19.3321 58.9645 19.2892C59.0324 19.2355 59.106 19.1895 59.184 19.152C59.3473 19.0745 59.5259 19.0344 59.7067 19.0347C59.9929 19.0349 60.269 19.1406 60.482 19.3314C60.5043 19.3498 60.5242 19.3674 60.5419 19.3851C60.6054 19.4499 60.6634 19.5199 60.7154 19.5943L60.7468 19.6442C60.7982 19.7297 60.8417 19.8198 60.8766 19.9133C60.9104 19.9953 60.9376 20.0799 60.9579 20.1663C60.9768 20.0801 61.0025 19.9955 61.0347 19.9133C61.0705 19.8186 61.116 19.7279 61.1705 19.6426C61.179 19.6265 61.1905 19.6104 61.2005 19.5951C61.2507 19.5205 61.3075 19.4505 61.3701 19.3858C61.3924 19.3674 61.41 19.3498 61.4307 19.3322C61.6455 19.141 61.923 19.0354 62.2106 19.0354C62.3902 19.0351 62.5676 19.0752 62.7295 19.1527C62.8078 19.1898 62.8815 19.2358 62.949 19.29C63.004 19.3316 63.0554 19.3777 63.1026 19.428C63.1179 19.4495 63.1363 19.4678 63.1525 19.4878C63.2199 19.5744 63.2757 19.6695 63.3182 19.7707C63.3904 19.9478 63.4974 20.1087 63.6327 20.2439C63.7681 20.3792 63.9292 20.486 64.1066 20.558C64.2086 20.6004 64.3047 20.6561 64.3921 20.7236C64.4101 20.7412 64.4296 20.7571 64.4504 20.7712C64.499 20.8198 64.5448 20.871 64.5878 20.9245C64.6423 20.9915 64.6879 21.0652 64.7237 21.1438C64.802 21.3067 64.8422 21.4852 64.8411 21.6659C64.8412 21.9517 64.736 22.2276 64.5456 22.441C64.5289 22.4619 64.5109 22.4819 64.4919 22.5008C64.4278 22.5648 64.3579 22.6228 64.2831 22.6741C64.2337 22.7062 64.1824 22.7354 64.1296 22.7615" fill="#EBF6EA"/>
<path d="M67.9798 24.5679V17.6104C67.9746 17.5536 67.982 17.4964 68.0014 17.4428C68.0208 17.3892 68.0518 17.3405 68.0921 17.3002C68.1325 17.2599 68.1812 17.2289 68.2349 17.2095C68.2886 17.1901 68.3459 17.1828 68.4027 17.188H70.1482C70.2051 17.1827 70.2625 17.1899 70.3162 17.2093C70.37 17.2286 70.4188 17.2596 70.4593 17.2999C70.4997 17.3402 70.5308 17.3889 70.5503 17.4426C70.5697 17.4963 70.5771 17.5536 70.5719 17.6104V24.2858C70.5593 24.5411 70.5987 24.7963 70.6878 25.0359C70.7769 25.2755 70.9139 25.4945 71.0903 25.6797C71.2668 25.8649 71.479 26.0123 71.7142 26.113C71.9495 26.2137 72.2027 26.2657 72.4586 26.2657C72.7145 26.2657 72.9678 26.2137 73.203 26.113C73.4382 26.0123 73.6505 25.8649 73.8269 25.6797C74.0034 25.4945 74.1403 25.2755 74.2294 25.0359C74.3186 24.7963 74.358 24.5411 74.3454 24.2858V17.6104C74.3402 17.5536 74.3475 17.4963 74.367 17.4426C74.3865 17.3889 74.4175 17.3402 74.458 17.2999C74.4984 17.2596 74.5473 17.2286 74.601 17.2093C74.6548 17.1899 74.7122 17.1827 74.7691 17.188H76.5345C76.5914 17.1828 76.6486 17.1901 76.7023 17.2095C76.756 17.2289 76.8047 17.2599 76.8451 17.3002C76.8854 17.3405 76.9164 17.3892 76.9358 17.4428C76.9553 17.4964 76.9626 17.5536 76.9575 17.6104V24.5679C76.9575 26.8043 75.3701 28.7769 72.4609 28.7769C69.5518 28.7769 67.9821 26.8043 67.9821 24.5679" fill="#EBF6EA"/>
<path d="M78.4543 28.2134V17.6104C78.449 17.5536 78.4564 17.4963 78.4759 17.4426C78.4954 17.3889 78.5264 17.3402 78.5669 17.2999C78.6073 17.2596 78.6562 17.2286 78.7099 17.2093C78.7637 17.1899 78.8211 17.1827 78.878 17.188H84.0093C84.5015 17.1923 84.9876 17.2974 85.4377 17.4967C85.8877 17.696 86.292 17.9853 86.6257 18.3467C86.9595 18.7082 87.2155 19.1341 87.3781 19.5981C87.5406 20.0622 87.6062 20.5547 87.5709 21.0451C87.6153 21.795 87.4275 22.5404 87.0331 23.1801C86.6387 23.8198 86.0568 24.3228 85.3664 24.6208L87.5003 28.126C87.6768 28.4074 87.5532 28.6366 87.2186 28.6366H85.1553C85.0518 28.6454 84.948 28.6233 84.857 28.5733C84.766 28.5232 84.6919 28.4473 84.6441 28.3552L82.5455 24.9052H81.0472V28.2134C81.0524 28.2702 81.045 28.3275 81.0255 28.3812C81.0061 28.4349 80.975 28.4836 80.9346 28.5239C80.8941 28.5642 80.8453 28.5952 80.7915 28.6145C80.7377 28.6339 80.6804 28.6411 80.6235 28.6358H78.878C78.8211 28.6411 78.7637 28.6339 78.7099 28.6145C78.6562 28.5952 78.6073 28.5642 78.5669 28.5239C78.5264 28.4836 78.4954 28.4349 78.4759 28.3812C78.4564 28.3275 78.449 28.2702 78.4543 28.2134ZM83.5687 22.4013C83.7525 22.4129 83.9367 22.3863 84.1096 22.3229C84.2826 22.2596 84.4404 22.161 84.5731 22.0335C84.7058 21.9059 84.8105 21.7521 84.8804 21.582C84.9504 21.4118 84.9841 21.229 84.9795 21.0451C84.9839 20.862 84.9498 20.6801 84.8795 20.511C84.8092 20.3419 84.7042 20.1894 84.5713 20.0633C84.4384 19.9371 84.2805 19.8402 84.1078 19.7788C83.9352 19.7173 83.7515 19.6927 83.5687 19.7065H81.0472V22.4021L83.5687 22.4013Z" fill="#EBF6EA"/>
<path d="M92.1557 28.2133V17.6111C92.1504 17.5543 92.1577 17.497 92.1771 17.4433C92.1965 17.3896 92.2274 17.3408 92.2678 17.3004C92.3082 17.26 92.3569 17.229 92.4107 17.2095C92.4644 17.1901 92.5218 17.1827 92.5787 17.1879H94.3249C94.3818 17.1827 94.4392 17.1901 94.4929 17.2095C94.5467 17.229 94.5955 17.26 94.6358 17.3004C94.6762 17.3408 94.7072 17.3896 94.7265 17.4433C94.7459 17.497 94.7532 17.5543 94.7479 17.6111V26.2744H99.5622C99.6192 26.2691 99.6766 26.2764 99.7304 26.2958C99.7842 26.3152 99.8331 26.3462 99.8736 26.3866C99.9141 26.427 99.9451 26.4758 99.9645 26.5296C99.9839 26.5833 99.9912 26.6407 99.9859 26.6976V28.2118C99.9911 28.2686 99.9837 28.3259 99.9642 28.3796C99.9448 28.4333 99.9137 28.482 99.8733 28.5223C99.8328 28.5626 99.784 28.5936 99.7302 28.6129C99.6765 28.6323 99.6191 28.6395 99.5622 28.6342H92.5771C92.5203 28.6394 92.463 28.632 92.4093 28.6126C92.3557 28.5933 92.3069 28.5623 92.2666 28.522C92.2262 28.4817 92.1952 28.433 92.1758 28.3794C92.1564 28.3258 92.149 28.2686 92.1542 28.2118" fill="#EBF6EA"/>
<path d="M101.149 28.2133V17.6111C101.143 17.5543 101.151 17.497 101.17 17.4433C101.189 17.3896 101.22 17.3408 101.261 17.3004C101.301 17.26 101.35 17.229 101.404 17.2095C101.457 17.1901 101.515 17.1827 101.572 17.1879H108.591C108.647 17.1827 108.705 17.1901 108.759 17.2095C108.812 17.229 108.861 17.26 108.901 17.3004C108.942 17.3408 108.973 17.3896 108.992 17.4433C109.012 17.497 109.019 17.5543 109.013 17.6111V19.1253C109.019 19.1821 109.012 19.2394 108.992 19.2931C108.973 19.3468 108.942 19.3956 108.901 19.436C108.861 19.4764 108.812 19.5074 108.759 19.5268C108.705 19.5463 108.647 19.5537 108.591 19.5485H103.741V21.7327H108.22C108.277 21.7275 108.334 21.7349 108.388 21.7543C108.441 21.7737 108.49 21.8046 108.53 21.8449C108.571 21.8852 108.602 21.9339 108.621 21.9875C108.641 22.0411 108.648 22.0984 108.643 22.1551V23.6701C108.648 23.7268 108.641 23.7841 108.621 23.8377C108.602 23.8913 108.571 23.9399 108.53 23.9803C108.49 24.0206 108.441 24.0515 108.388 24.0709C108.334 24.0903 108.277 24.0977 108.22 24.0925H103.741V26.2767H108.591C108.647 26.2715 108.705 26.2789 108.759 26.2984C108.812 26.3178 108.861 26.3488 108.901 26.3892C108.942 26.4296 108.973 26.4784 108.992 26.5321C109.012 26.5858 109.019 26.6431 109.013 26.6999V28.2141C109.019 28.2709 109.011 28.3281 108.992 28.3817C108.972 28.4353 108.941 28.484 108.901 28.5243C108.861 28.5646 108.812 28.5956 108.758 28.6149C108.705 28.6343 108.647 28.6417 108.591 28.6365H101.572C101.515 28.6417 101.458 28.6343 101.404 28.6149C101.35 28.5956 101.302 28.5646 101.261 28.5243C101.221 28.484 101.19 28.4353 101.17 28.3817C101.151 28.3281 101.144 28.2701 101.149 28.2133Z" fill="#EBF6EA"/>
<path d="M110.107 28.1428L114.393 17.5229C114.43 17.4228 114.498 17.3367 114.586 17.2767C114.674 17.2167 114.779 17.1856 114.886 17.1879H116.138C116.245 17.1856 116.35 17.2167 116.439 17.2767C116.527 17.3367 116.595 17.4228 116.632 17.5229L120.934 28.1428C121.058 28.4249 120.917 28.6357 120.599 28.6357H118.733C118.627 28.6412 118.523 28.6111 118.437 28.5504C118.35 28.4896 118.287 28.4017 118.257 28.3007L117.763 27.0503H113.283L112.789 28.3007C112.759 28.4018 112.696 28.4898 112.609 28.5506C112.523 28.6113 112.419 28.6413 112.313 28.6357H110.443C110.125 28.6357 109.982 28.4241 110.107 28.1428ZM116.844 24.6928L115.503 21.311L114.199 24.6928H116.844Z" fill="#EBF6EA"/>
<path d="M121.922 28.2133V17.6111C121.917 17.5543 121.924 17.497 121.943 17.4433C121.963 17.3896 121.994 17.3408 122.034 17.3004C122.074 17.26 122.123 17.229 122.177 17.2095C122.231 17.1901 122.288 17.1827 122.345 17.1879H129.434C129.49 17.1827 129.548 17.1901 129.602 17.2095C129.655 17.229 129.704 17.26 129.744 17.3004C129.785 17.3408 129.816 17.3896 129.835 17.4433C129.855 17.497 129.862 17.5543 129.857 17.6111V19.1958C129.862 19.2526 129.855 19.3099 129.835 19.3636C129.816 19.4173 129.785 19.4661 129.744 19.5065C129.704 19.5469 129.655 19.5779 129.602 19.5974C129.548 19.6168 129.49 19.6242 129.434 19.619H124.514V22.067H129.099C129.156 22.0618 129.213 22.0692 129.267 22.0886C129.321 22.108 129.37 22.139 129.41 22.1794C129.45 22.2198 129.481 22.2686 129.501 22.3223C129.52 22.376 129.528 22.4333 129.523 22.4902V24.0894C129.528 24.1463 129.52 24.2036 129.501 24.2572C129.482 24.3109 129.45 24.3596 129.41 24.3999C129.37 24.4403 129.321 24.4712 129.267 24.4905C129.213 24.5099 129.156 24.5172 129.099 24.5119H124.514V28.211C124.519 28.2679 124.512 28.3252 124.492 28.3788C124.473 28.4325 124.442 28.4812 124.401 28.5215C124.361 28.5619 124.312 28.5928 124.258 28.6121C124.205 28.6315 124.147 28.6388 124.09 28.6335H122.345C122.288 28.6386 122.231 28.6313 122.177 28.6119C122.123 28.5925 122.075 28.5615 122.034 28.5212C121.994 28.4809 121.963 28.4322 121.944 28.3786C121.924 28.325 121.917 28.2678 121.922 28.211" fill="#EBF6EA"/>
<path d="M140.561 28.7768C137.157 28.7768 134.83 26.3112 134.83 22.9118C134.83 19.5124 137.157 17.0468 140.561 17.0468C141.417 17.0216 142.268 17.1964 143.046 17.5572C143.823 17.9179 144.506 18.4549 145.039 19.1253C145.064 19.1522 145.082 19.1846 145.093 19.2198C145.103 19.2551 145.104 19.2922 145.097 19.3282C145.091 19.3642 145.075 19.3981 145.053 19.4271C145.031 19.4562 145.002 19.4796 144.969 19.4956L144.563 19.7769C144.536 19.8013 144.504 19.8191 144.469 19.8289C144.434 19.8387 144.397 19.8402 144.361 19.8334C144.325 19.8266 144.291 19.8115 144.262 19.7895C144.233 19.7675 144.21 19.739 144.194 19.7064C143.554 18.9691 142.702 18.4468 141.754 18.2105C140.806 17.9742 139.809 18.0354 138.897 18.3857C137.985 18.7361 137.204 19.3586 136.659 20.1685C136.114 20.9784 135.833 21.9363 135.853 22.9118C135.814 23.546 135.909 24.1812 136.13 24.777C136.351 25.3727 136.694 25.9158 137.137 26.3717C137.58 26.8275 138.113 27.186 138.703 27.4243C139.293 27.6626 139.926 27.7754 140.561 27.7556C141.678 27.7995 142.767 27.3998 143.59 26.6439C144.413 25.8881 144.902 24.8376 144.952 23.7222H140.79C140.755 23.7243 140.719 23.7189 140.686 23.7064C140.653 23.6938 140.623 23.6744 140.598 23.6494C140.573 23.6244 140.554 23.5944 140.541 23.5614C140.528 23.5283 140.523 23.493 140.525 23.4577V23.0345C140.523 22.9992 140.528 22.9639 140.541 22.9308C140.554 22.8978 140.573 22.8677 140.598 22.8427C140.623 22.8177 140.653 22.7983 140.686 22.7858C140.719 22.7732 140.755 22.7679 140.79 22.77H145.798C145.833 22.768 145.868 22.7734 145.901 22.786C145.934 22.7986 145.964 22.8181 145.989 22.843C146.014 22.868 146.034 22.898 146.046 22.931C146.059 22.964 146.064 22.9993 146.062 23.0345V23.1756C145.956 26.4339 143.875 28.7768 140.561 28.7768Z" fill="#EBF6EA"/>
<path d="M156.467 28.4248L155.267 25.5008H149.766L148.567 28.4248C148.544 28.4892 148.5 28.5444 148.443 28.5825C148.386 28.6205 148.319 28.6394 148.25 28.6364H147.721C147.528 28.6364 147.44 28.5306 147.509 28.3367L152.038 17.3994C152.062 17.335 152.105 17.2798 152.162 17.2418C152.219 17.2037 152.287 17.1848 152.355 17.1878H152.673C152.742 17.1848 152.809 17.2037 152.866 17.2418C152.923 17.2798 152.967 17.335 152.99 17.3994L157.519 28.3367C157.589 28.5306 157.501 28.6364 157.307 28.6364H156.778C156.71 28.6394 156.642 28.6205 156.585 28.5825C156.528 28.5444 156.484 28.4892 156.461 28.4248M154.88 24.5486L152.517 18.7717L150.154 24.5486H154.88Z" fill="#EBF6EA"/>
<path d="M170.328 17.4525V28.3721C170.33 28.4073 170.324 28.4425 170.312 28.4755C170.299 28.5084 170.28 28.5384 170.255 28.5633C170.23 28.5882 170.2 28.6076 170.167 28.6201C170.134 28.6326 170.099 28.6379 170.064 28.6358H169.57C169.535 28.6381 169.499 28.6328 169.466 28.6203C169.433 28.6079 169.403 28.5885 169.378 28.5636C169.353 28.5387 169.334 28.5087 169.321 28.4757C169.308 28.4426 169.303 28.4073 169.305 28.3721V19.0901L165.408 26.9982C165.382 27.0562 165.34 27.1055 165.287 27.1399C165.234 27.1744 165.171 27.1925 165.108 27.1922H164.808C164.744 27.1925 164.682 27.1744 164.629 27.1399C164.576 27.1055 164.533 27.0562 164.508 26.9982L160.611 19.0901V28.3721C160.613 28.4073 160.607 28.4426 160.595 28.4757C160.582 28.5087 160.563 28.5387 160.538 28.5636C160.513 28.5885 160.483 28.6079 160.45 28.6203C160.417 28.6328 160.381 28.6381 160.346 28.6358H159.852C159.817 28.6381 159.782 28.6328 159.749 28.6203C159.715 28.6079 159.685 28.5885 159.66 28.5636C159.635 28.5387 159.616 28.5087 159.603 28.4757C159.591 28.4426 159.585 28.4073 159.587 28.3721V17.4525C159.585 17.4172 159.591 17.3818 159.603 17.3488C159.616 17.3157 159.635 17.2857 159.66 17.2607C159.685 17.2357 159.715 17.2163 159.749 17.2038C159.782 17.1912 159.817 17.1858 159.852 17.188H160.487C160.551 17.1875 160.613 17.2056 160.666 17.2401C160.72 17.2746 160.762 17.3239 160.787 17.3819L164.949 25.642L169.129 17.3819C169.154 17.3248 169.196 17.2763 169.248 17.2422C169.301 17.208 169.362 17.1897 169.425 17.1895H170.06C170.095 17.1873 170.13 17.1927 170.163 17.2053C170.196 17.2178 170.226 17.2373 170.251 17.2623C170.276 17.2873 170.296 17.3173 170.308 17.3504C170.321 17.3834 170.326 17.4187 170.324 17.454" fill="#EBF6EA"/>
<path d="M173.73 28.6358H173.237C173.201 28.6379 173.166 28.6326 173.133 28.6201C173.1 28.6076 173.07 28.5882 173.045 28.5633C173.02 28.5384 173.001 28.5085 172.988 28.4755C172.975 28.4426 172.97 28.4073 172.972 28.3721V17.4525C172.97 17.4172 172.975 17.3818 172.988 17.3488C173 17.3157 173.02 17.2857 173.045 17.2607C173.07 17.2357 173.1 17.2163 173.133 17.2038C173.166 17.1912 173.201 17.1858 173.237 17.188H173.73C173.766 17.1858 173.801 17.1912 173.834 17.2038C173.867 17.2163 173.897 17.2357 173.922 17.2607C173.947 17.2857 173.967 17.3157 173.979 17.3488C173.992 17.3818 173.997 17.4172 173.995 17.4525V28.3721C173.997 28.4073 173.992 28.4426 173.979 28.4755C173.966 28.5085 173.947 28.5384 173.922 28.5633C173.897 28.5882 173.867 28.6076 173.834 28.6201C173.801 28.6326 173.766 28.6379 173.73 28.6358Z" fill="#EBF6EA"/>
<path d="M184.54 17.1895H185.035C185.071 17.1874 185.106 17.1928 185.139 17.2053C185.172 17.2179 185.202 17.2373 185.227 17.2623C185.252 17.2873 185.272 17.3173 185.284 17.3504C185.297 17.3834 185.302 17.4187 185.3 17.454V28.3721C185.302 28.4074 185.297 28.4427 185.284 28.4757C185.272 28.5087 185.252 28.5387 185.227 28.5636C185.202 28.5886 185.172 28.6079 185.139 28.6204C185.106 28.6328 185.071 28.6381 185.035 28.6359H184.506C184.44 28.6363 184.375 28.6204 184.317 28.5896C184.259 28.5589 184.209 28.5142 184.172 28.4595L177.683 18.9306V28.3721C177.685 28.4074 177.679 28.4426 177.666 28.4756C177.654 28.5085 177.634 28.5385 177.609 28.5634C177.584 28.5883 177.554 28.6076 177.521 28.6201C177.488 28.6326 177.453 28.638 177.418 28.6359H176.924C176.889 28.6381 176.854 28.6328 176.82 28.6204C176.787 28.6079 176.757 28.5886 176.732 28.5636C176.707 28.5387 176.688 28.5087 176.675 28.4757C176.663 28.4427 176.657 28.4074 176.659 28.3721V17.4525C176.657 17.4172 176.663 17.3819 176.675 17.3488C176.688 17.3158 176.707 17.2858 176.732 17.2608C176.757 17.2358 176.787 17.2163 176.82 17.2038C176.853 17.1913 176.889 17.1859 176.924 17.188H177.435C177.502 17.1875 177.567 17.2034 177.625 17.2341C177.684 17.2649 177.734 17.3096 177.771 17.3643L184.278 26.9101V17.4525C184.275 17.4172 184.281 17.3818 184.293 17.3487C184.306 17.3156 184.325 17.2855 184.35 17.2605C184.375 17.2355 184.405 17.216 184.439 17.2036C184.472 17.1911 184.507 17.1858 184.542 17.188" fill="#EBF6EA"/>
<path d="M193.498 28.7768C190.094 28.7768 187.767 26.3112 187.767 22.9118C187.767 19.5124 190.094 17.0468 193.498 17.0468C194.355 17.0216 195.206 17.1964 195.983 17.5572C196.761 17.9179 197.443 18.4549 197.977 19.1253C198.002 19.1522 198.02 19.1846 198.03 19.2198C198.04 19.2551 198.042 19.2922 198.035 19.3282C198.028 19.3642 198.013 19.3981 197.99 19.4271C197.968 19.4562 197.939 19.4796 197.906 19.4956L197.501 19.7769C197.474 19.8013 197.441 19.8191 197.406 19.8289C197.371 19.8387 197.334 19.8402 197.298 19.8334C197.263 19.8266 197.229 19.8115 197.2 19.7895C197.171 19.7675 197.147 19.739 197.131 19.7064C196.491 18.9688 195.639 18.4462 194.691 18.2097C193.743 17.9732 192.746 18.0344 191.834 18.3848C190.922 18.7352 190.14 19.3579 189.596 20.1679C189.051 20.978 188.769 21.9362 188.789 22.9118C188.751 23.546 188.845 24.1812 189.066 24.777C189.287 25.3727 189.63 25.9158 190.073 26.3717C190.516 26.8275 191.05 27.186 191.64 27.4243C192.229 27.6626 192.862 27.7754 193.498 27.7556C194.616 27.8001 195.705 27.4005 196.529 26.6442C197.352 25.888 197.842 24.8368 197.891 23.7207H193.729C193.694 23.7228 193.658 23.7174 193.625 23.7049C193.592 23.6923 193.562 23.6729 193.537 23.6479C193.512 23.6229 193.493 23.5929 193.48 23.5598C193.467 23.5268 193.462 23.4914 193.464 23.4562V23.033C193.462 22.9977 193.467 22.9623 193.48 22.9293C193.493 22.8962 193.512 22.8662 193.537 22.8412C193.562 22.8162 193.592 22.7968 193.625 22.7843C193.658 22.7717 193.694 22.7663 193.729 22.7685H198.735C198.77 22.7664 198.806 22.7719 198.839 22.7845C198.872 22.7971 198.902 22.8165 198.927 22.8415C198.952 22.8665 198.971 22.8965 198.983 22.9295C198.996 22.9625 199.001 22.9977 198.999 23.033V23.174C198.893 26.4324 196.812 28.7745 193.498 28.7745" fill="#EBF6EA"/>
<path d="M64.5464 23.3848C64.7001 23.5598 64.7989 23.7761 64.8305 24.0068C64.862 24.2375 64.8249 24.4723 64.7237 24.682C64.6885 24.7609 64.6428 24.8347 64.5878 24.9013C64.5469 24.9565 64.5009 25.0079 64.4504 25.0546C64.4305 25.07 64.4105 25.0884 64.3929 25.1045C64.3054 25.172 64.2094 25.2277 64.1073 25.2701C63.9298 25.3418 63.7685 25.4485 63.633 25.5837C63.4976 25.719 63.3908 25.8801 63.319 26.0574C63.276 26.1591 63.2203 26.2549 63.1532 26.3426C63.1371 26.361 63.1194 26.381 63.1033 26.4001C63.0568 26.4494 63.0068 26.4953 62.9536 26.5374C62.886 26.5921 62.8124 26.6389 62.7341 26.6769C62.5723 26.7544 62.3947 26.7932 62.2152 26.7904C61.9278 26.7909 61.6503 26.6858 61.4354 26.4952C61.4154 26.4776 61.397 26.4592 61.3755 26.4415C61.3124 26.3774 61.2556 26.3073 61.2058 26.2322C61.1959 26.2161 61.1836 26.2 61.1759 26.1847C61.1208 26.0989 61.0753 26.0074 61.04 25.9118C61.0074 25.8298 60.9817 25.7451 60.9633 25.6588C60.9433 25.7452 60.9161 25.8299 60.8819 25.9118C60.8472 26.0058 60.8038 26.0964 60.7522 26.1824L60.7207 26.2322C60.6693 26.3071 60.6113 26.3771 60.5473 26.4415C60.5288 26.4592 60.5089 26.4776 60.4874 26.4952C60.274 26.6858 59.9976 26.7909 59.7114 26.7904C59.5307 26.7932 59.3518 26.7544 59.1886 26.6769C59.1106 26.6385 59.037 26.5917 58.9691 26.5374C58.9177 26.4952 58.8678 26.4477 58.8156 26.4001C58.8018 26.3802 58.7818 26.3603 58.768 26.3426C58.7003 26.2553 58.6445 26.1594 58.6022 26.0574C58.5301 25.8803 58.4232 25.7193 58.2878 25.5841C58.1524 25.4489 57.9913 25.3421 57.8139 25.2701C57.7123 25.2281 57.617 25.1724 57.5306 25.1045C57.5107 25.0884 57.4884 25.07 57.4708 25.0546C57.4198 25.0084 57.3737 24.957 57.3334 24.9013C57.279 24.8338 57.2326 24.7602 57.1952 24.682C57.1176 24.5203 57.0775 24.3431 57.0778 24.1638C57.0787 23.8767 57.1843 23.5998 57.3748 23.3848C57.3925 23.3649 57.4101 23.3465 57.4285 23.325C57.4933 23.2625 57.5634 23.2058 57.6381 23.1556C57.6869 23.1218 57.7382 23.0918 57.7916 23.0659C57.8454 23.0363 57.9014 23.0107 57.959 22.9892C58.0418 22.9588 58.1264 22.9332 58.2123 22.9126C58.1263 22.8903 58.0426 22.8643 57.959 22.8359C57.9011 22.8119 57.8454 22.7863 57.7916 22.7592C57.6574 22.6928 57.5352 22.6045 57.4301 22.4978C57.4111 22.4788 57.3932 22.4589 57.3764 22.438C57.1862 22.2244 57.0806 21.9488 57.0793 21.6629C57.079 21.4823 57.1192 21.3039 57.1967 21.1408C57.2346 21.0629 57.2809 20.9893 57.3349 20.9215C57.3773 20.8675 57.4232 20.8163 57.4723 20.7682C57.49 20.7544 57.5122 20.7383 57.5322 20.7207C57.6185 20.6527 57.7138 20.5969 57.8154 20.5551C57.9926 20.4827 58.1536 20.3758 58.2889 20.2406C58.4243 20.1054 58.5313 19.9447 58.6037 19.7677C58.6457 19.6662 58.7015 19.571 58.7695 19.4848C58.7833 19.4649 58.8041 19.4465 58.8171 19.425C58.8654 19.3761 58.9167 19.3303 58.9706 19.2878C59.0385 19.2339 59.1121 19.1876 59.1902 19.1498C59.3535 19.0722 59.5321 19.0322 59.7129 19.0325C59.9993 19.0325 60.2757 19.1382 60.4889 19.3292C60.5112 19.3468 60.5311 19.3652 60.5488 19.3828C60.6123 19.4477 60.6704 19.5177 60.7223 19.5921L60.7537 19.642C60.805 19.7276 60.8484 19.8177 60.8835 19.9111C60.9172 19.9932 60.9444 20.0777 60.9648 20.1641C60.9837 20.0779 61.0094 19.9933 61.0416 19.9111C61.0771 19.8163 61.1227 19.7256 61.1774 19.6404C61.1851 19.6243 61.1974 19.6082 61.2074 19.5921C61.2576 19.5175 61.3144 19.4475 61.377 19.3828C61.3985 19.3652 61.4169 19.3468 61.4369 19.3292C61.6517 19.1382 61.9292 19.0326 62.2168 19.0325C62.3963 19.0322 62.5737 19.0723 62.7356 19.1498C62.8139 19.1872 62.8875 19.2335 62.9552 19.2878C63.0088 19.3293 63.0589 19.3752 63.1049 19.425C63.121 19.4472 63.1386 19.4649 63.1548 19.4848C63.2221 19.5715 63.2778 19.6666 63.3205 19.7677C63.3926 19.9449 63.4996 20.1058 63.635 20.241C63.7703 20.3763 63.9315 20.4831 64.1089 20.5551C64.211 20.5973 64.307 20.653 64.3944 20.7207C64.4121 20.7382 64.4314 20.7541 64.452 20.7682C64.5005 20.8168 64.5464 20.868 64.5894 20.9215C64.644 20.9884 64.6896 21.0621 64.7252 21.1408C64.8036 21.3037 64.8438 21.4822 64.8427 21.6629C64.8428 21.9488 64.7376 22.2247 64.5472 22.438C64.5295 22.4602 64.5111 22.4802 64.4934 22.4978C64.3883 22.6045 64.2662 22.6928 64.1319 22.7592C64.0782 22.7874 64.0224 22.8129 63.9646 22.8359C63.8809 22.8658 63.7972 22.8911 63.709 22.9126C63.7956 22.9329 63.881 22.9585 63.9646 22.9892C64.0221 23.0107 64.0781 23.0363 64.1319 23.0659C64.1853 23.0919 64.2366 23.1219 64.2854 23.1556C64.36 23.2059 64.4302 23.2626 64.495 23.325C64.5126 23.3465 64.531 23.3649 64.5487 23.3848" fill="#3AAA35"/>
</g>
</g>
<defs>
<clipPath id="clip0_2101_102">
<rect width="199" height="46" fill="white"/>
</clipPath>
</defs>
</svg>
