<svg width="195" height="73" viewBox="0 0 195 73" fill="none" xmlns="http://www.w3.org/2000/svg">
<g clip-path="url(#clip0_2302_2894)">
<path fill-rule="evenodd" clip-rule="evenodd" d="M83.2335 36.2562V41.187C83.2335 41.187 77.001 41.9693 76.6891 32.7599C76.458 25.9484 79.4509 30.2095 79.4509 30.2095L81.072 31.2655C81.072 31.2655 80.4717 35.365 83.2335 36.2562Z" fill="white"/>
<path fill-rule="evenodd" clip-rule="evenodd" d="M99.1375 37.7129V42.3853C99.1375 42.3853 107.493 41.43 106.403 31.0034C105.382 21.2393 102.081 29.7136 101.78 31.0633C101.289 33.2597 101.9 36.7543 99.1375 37.7129Z" fill="white"/>
<path fill-rule="evenodd" clip-rule="evenodd" d="M79.3231 24.3538L84.1266 25.8513C84.1266 25.8513 84.5471 30.7097 80.6443 31.9183C73.703 34.068 75.1804 31.2488 75.1804 31.2488C75.1804 31.2488 75.3999 29.4836 75.8408 28.7504C76.5313 27.6013 79.5033 29.8713 79.3231 24.3538Z" fill="white"/>
<path fill-rule="evenodd" clip-rule="evenodd" d="M148.807 21.8127H153.871V32.9525H148.944L148.807 21.8127Z" fill="white"/>
<path fill-rule="evenodd" clip-rule="evenodd" d="M155.926 35.0769V39.9892C155.926 39.9892 145.56 39.9991 143.979 39.9892C140.875 39.9696 137.732 38.7909 137.793 33.1003C137.854 27.4093 137.793 22.018 137.793 22.018H142.827C142.827 22.018 142.453 30.9634 142.827 33.1598C142.995 34.1492 143.273 35.1968 145.068 35.1968C147.307 35.1968 155.926 35.0769 155.926 35.0769Z" fill="white"/>
<path fill-rule="evenodd" clip-rule="evenodd" d="M101.325 22.7016H106.389V33.8445H101.462L101.325 22.7016Z" fill="white"/>
<path fill-rule="evenodd" clip-rule="evenodd" d="M108.819 21.6104H113.942V28.937H108.957L108.819 21.6104Z" fill="white"/>
<path fill-rule="evenodd" clip-rule="evenodd" d="M67.7905 21.623H72.854V39.947H67.9272L67.7905 21.623Z" fill="white"/>
<path fill-rule="evenodd" clip-rule="evenodd" d="M86.576 21.5633H91.6395V34.3077H86.7127L86.576 21.5633Z" fill="white"/>
<path fill-rule="evenodd" clip-rule="evenodd" d="M93.7937 37.593V42.5048C93.7937 42.5048 85.2075 43.0442 86.9489 30.7641C88.6922 18.4667 91.6323 29.8055 91.6323 29.8055C91.6323 29.8055 90.9718 38.7309 93.7937 37.593Z" fill="white"/>
<path fill-rule="evenodd" clip-rule="evenodd" d="M79.0707 21.5634H84.1343V26.101H79.2075L79.0707 21.5634Z" fill="white"/>
<path fill-rule="evenodd" clip-rule="evenodd" d="M158.545 18.9629H163.609V40.2063H158.682L158.545 18.9629Z" fill="white"/>
<path fill-rule="evenodd" clip-rule="evenodd" d="M172.599 21.6076V26.6594H156.24V21.7441L172.599 21.6076Z" fill="white"/>
<path fill-rule="evenodd" clip-rule="evenodd" d="M194.93 21.6076V26.6594H177.013V21.7441L194.93 21.6076Z" fill="white"/>
<path fill-rule="evenodd" clip-rule="evenodd" d="M194.93 28.3435V33.3953H182.077V28.4799L194.93 28.3435Z" fill="white"/>
<path fill-rule="evenodd" clip-rule="evenodd" d="M194.931 34.9413V39.8733H186.232V35.0745L194.931 34.9413Z" fill="white"/>
<path fill-rule="evenodd" clip-rule="evenodd" d="M128.888 35.0793C130.496 36.9311 131.919 38.7632 128.888 40.1311H116.12V35.2157L128.888 35.0793Z" fill="white"/>
<path fill-rule="evenodd" clip-rule="evenodd" d="M77.6602 28.3698V33.4216H66.105V28.5063L77.6602 28.3698Z" fill="white"/>
<path fill-rule="evenodd" clip-rule="evenodd" d="M113.923 21.4883V26.6599H94.8275V21.628L113.923 21.4883Z" fill="white"/>
<path fill-rule="evenodd" clip-rule="evenodd" d="M135.856 21.4782V26.53H123.521V21.6146L135.856 21.4782Z" fill="white"/>
<path fill-rule="evenodd" clip-rule="evenodd" d="M135.726 28.4729V33.5247H116.121V28.6094L135.726 28.4729Z" fill="white"/>
<path fill-rule="evenodd" clip-rule="evenodd" d="M93.7364 51.7079H95.7297C95.7297 51.7079 95.5827 52.718 96.8687 52.8159C97.6404 52.8746 98.1106 52.0859 97.8083 51.7079C97.2812 51.0498 93.6752 51.9636 93.708 48.8674C93.7176 47.9936 93.9399 46.5504 96.6408 46.5951C99.6253 46.6443 99.8295 49.1515 99.8295 49.1515H97.8083C97.8083 49.1515 98.1166 47.6791 96.2423 48.0435C95.9099 48.1083 95.817 48.6153 95.7866 48.9525C95.7345 49.5351 96.8499 49.7696 97.4666 49.8332C98.5387 49.9438 99.7442 50.1033 99.7727 52.3328C99.7827 53.1224 99.0814 54.54 96.783 54.52C93.3564 54.4909 93.7364 51.7079 93.7364 51.7079Z" fill="white"/>
<path fill-rule="evenodd" clip-rule="evenodd" d="M154.714 51.7363H156.707C156.707 51.7363 156.56 52.7464 157.846 52.8443C158.618 52.903 159.088 52.1143 158.786 51.7363C158.259 51.0782 154.653 51.992 154.685 48.8958C154.695 48.022 154.917 46.5788 157.618 46.6235C160.603 46.6727 160.807 49.1799 160.807 49.1799H158.786C158.786 49.1799 159.094 47.7075 157.22 48.0719C156.887 48.1367 156.794 48.6437 156.764 48.9809C156.712 49.5635 157.827 49.798 158.444 49.8616C159.516 49.9723 160.722 50.1317 160.75 52.3612C160.76 53.1508 160.059 54.5684 157.76 54.5484C154.334 54.5193 154.714 51.7363 154.714 51.7363Z" fill="white"/>
<path fill-rule="evenodd" clip-rule="evenodd" d="M136.328 46.727H138.826V54.202H136.236L136.328 46.727Z" fill="white"/>
<path fill-rule="evenodd" clip-rule="evenodd" d="M113.944 46.6347H116.025C116.025 46.6347 115.956 50.4797 116.164 51.4798C116.275 52.0136 116.395 52.5869 117.274 52.6333C118.152 52.6792 119.374 54.2479 118.245 54.4325C117.622 54.5344 114.464 55.1014 114.129 52.2641C113.853 49.9267 113.944 46.6347 113.944 46.6347Z" fill="white"/>
<path fill-rule="evenodd" clip-rule="evenodd" d="M146.727 46.3117C149.088 46.3117 151.005 48.1932 151.005 50.5107C151.005 52.8282 149.088 54.7097 146.727 54.7097C144.366 54.7097 142.449 52.8282 142.449 50.5107C142.449 48.1932 144.366 46.3117 146.727 46.3117ZM146.727 48.411C147.908 48.411 148.866 49.352 148.866 50.5107C148.866 51.6694 147.908 52.61 146.727 52.61C145.547 52.61 144.588 51.6694 144.588 50.5107C144.588 49.352 145.547 48.411 146.727 48.411Z" fill="white"/>
<path fill-rule="evenodd" clip-rule="evenodd" d="M125.101 46.5424C125.101 46.5424 128.643 46.2918 129.936 46.8221C130.998 47.2572 132.51 48.0899 132.456 50.5588C132.395 53.4424 130.004 54.2479 130.004 54.2479H125.101V46.5424ZM129.165 48.5514H127.062L127.086 52.2625L129.165 52.2529C129.165 52.2529 130.501 52.1554 130.535 50.502C130.565 49.0305 129.165 48.5514 129.165 48.5514Z" fill="white"/>
<path fill-rule="evenodd" clip-rule="evenodd" d="M120.536 46.6347H118.454C118.454 46.6347 118.524 50.4797 118.316 51.4798C118.205 52.0136 118.084 52.5869 117.206 52.6333C116.327 52.6792 115.105 54.2479 116.235 54.4325C116.857 54.5344 120.016 55.1014 120.351 52.2641C120.627 49.9267 120.536 46.6347 120.536 46.6347Z" fill="white"/>
<path fill-rule="evenodd" clip-rule="evenodd" d="M103.44 46.727V48.6648H105.798V54.1556H107.371V48.6648H109.915V46.5887L103.44 46.727Z" fill="white"/>
<path fill-rule="evenodd" clip-rule="evenodd" d="M182.166 28.6672L177.113 28.6072V34.1184C177.113 34.1184 177.578 41.4867 189.483 39.6295C201.388 37.7728 189.956 36.155 188.322 35.2567C186.424 34.2135 181.12 37.4731 182.166 28.6672Z" fill="white"/>
<path fill-rule="evenodd" clip-rule="evenodd" d="M184.318 25.9118C184.143 26.6038 185.768 27.572 187.5 29.0867C190.728 31.9092 183.057 30.7641 183.057 30.7641C183.057 30.7641 178.854 28.4874 179.094 25.672C179.335 22.8567 184.667 24.5325 184.318 25.9118Z" fill="white"/>
<path fill-rule="evenodd" clip-rule="evenodd" d="M176.364 35.1377V39.9896C176.364 39.9896 166.927 40.5426 165.5 27.7151C164.218 16.1947 170.172 24.5311 170.684 25.9258C171.411 27.9072 171.46 34.6303 176.364 35.1377Z" fill="white"/>
<path fill-rule="evenodd" clip-rule="evenodd" d="M123.778 26.6306C123.778 26.6306 121.148 27.8381 121.506 29.326C122.283 32.5609 116.125 28.6072 116.125 28.6072C116.125 28.6072 117.44 21.1194 124.794 21.6584C132.148 22.1975 129.816 24.3543 129.816 24.3543L123.778 26.6306Z" fill="white"/>
<path fill-rule="evenodd" clip-rule="evenodd" d="M125.817 35.363C125.817 35.363 129.708 35.4557 129.89 33.0268C130.07 30.6374 134.769 30.1915 135.571 31.8884C136.125 33.0588 136.03 41.4372 126.422 39.9756C126.224 39.9456 122.24 37.4595 122.24 37.4595L125.817 35.363Z" fill="white"/>
<path fill-rule="evenodd" clip-rule="evenodd" d="M8.50494 40.0905C8.49227 40.0879 8.47896 40.0892 8.4663 40.0866C8.45398 40.084 7.95718 39.8241 7.38177 39.681C7.27581 39.6548 6.30655 39.3 5.71357 39.7768C5.23602 40.1605 5.32505 40.8874 5.34982 41.0661C5.42016 41.5726 5.64323 42.0499 5.65783 42.0825C5.8629 42.5379 6.52635 43.8349 8.4119 45.2349C8.68571 45.4381 9.59149 46.1109 11.0358 46.8C11.4427 46.9942 12.3097 47.4087 13.6739 47.8529C13.8184 47.8998 14.3017 48.0544 14.9803 48.3388C15.6493 48.6198 16.6227 49.0743 17.6969 49.8085C18.3033 50.223 18.7937 50.6492 18.8844 50.7278C20.4125 52.0549 21.2471 53.4055 21.695 54.2518C22.6907 56.1339 23.025 57.9447 23.1202 59.1781C23.169 59.8117 23.1499 60.2401 23.142 60.3565C23.1398 60.3891 23.1412 60.3896 23.1269 60.4188C23.1231 60.4265 23.1014 60.4708 23.0467 60.4897C22.9901 60.5094 22.9443 60.4871 22.9364 60.4832C22.8843 60.4579 22.8679 60.4115 22.8651 60.4033C22.8518 60.3655 22.8568 60.3646 22.8576 60.3243C22.8592 60.2461 22.9593 56.6563 20.4741 53.3316C19.9734 52.6619 19.0093 51.4942 17.3267 50.4026C17.0318 50.211 15.9649 49.5129 14.293 48.8896C13.8046 48.7074 13.3719 48.5712 13.1245 48.4874C12.8374 48.3895 11.6653 47.9895 10.4964 47.3945C9.50667 46.8906 8.07873 46.0555 6.83023 44.789C5.38178 43.3193 5.00106 42.1023 4.88576 41.6203C4.83036 41.3883 4.81163 41.1756 4.80818 41.1365C4.69865 39.8903 5.39315 39.4607 5.5066 39.3893C5.90852 39.1372 6.54948 39.0379 7.45452 39.4044C7.48291 39.416 7.67949 39.5101 7.93056 39.6673C8.13361 39.7945 8.31697 39.9272 8.47074 40.0466C8.48357 40.0565 8.48374 40.0565 8.4846 40.0574C8.49658 40.0728 8.49292 40.075 8.50494 40.0905Z" fill="white"/>
<path fill-rule="evenodd" clip-rule="evenodd" d="M4.96741 40.7049C4.97999 40.7066 5.05243 40.7165 5.10455 40.7856C5.12062 40.8067 5.13298 40.8312 5.13974 40.8569C5.14672 40.8836 5.14495 40.9115 5.14495 40.939C5.14495 40.9403 5.11911 41.098 5.08737 41.4751C5.06256 41.7694 4.84392 44.2233 5.40989 46.9075C5.6803 48.1898 6.02364 49.0705 6.30352 49.6926C7.9647 53.3845 10.8909 54.2227 12.9983 54.3834C13.97 54.4573 14.7464 54.584 14.8974 54.6085C16.0789 54.8014 18.0708 55.2258 19.8716 56.2496C22.2626 57.6088 22.9334 59.2142 23.0421 59.5283C23.0478 59.545 23.0531 59.5618 23.0531 59.5618C23.055 59.5794 23.0602 59.597 23.0586 59.6151C23.0579 59.6232 23.0537 59.6696 23.0115 59.7053C22.9679 59.7418 22.9197 59.7375 22.9113 59.7366C22.8564 59.7319 22.8259 59.6958 22.8207 59.6898C22.7955 59.6602 22.8002 59.6576 22.7862 59.6211C22.6821 59.3509 22.4825 59.0484 22.4515 59.0012C22.0646 58.4143 21.2975 57.5293 19.8719 56.7419C18.2292 55.8341 16.4644 55.4655 15.4825 55.298C14.2134 55.0815 13.1126 55.0282 12.9249 55.014C8.36769 54.6656 6.47835 51.7155 5.64537 49.7798C5.5796 49.6268 5.39004 49.1594 5.22287 48.6095C4.5176 46.2897 4.51747 44.0003 4.55059 42.9723C4.58553 41.8871 4.69385 41.1684 4.72155 40.9601C4.72525 40.9326 4.73227 40.8819 4.73232 40.8814C4.74145 40.8557 4.7458 40.8277 4.75975 40.8041C4.76613 40.7934 4.80291 40.7311 4.88501 40.7096C4.89138 40.7083 4.9264 40.6989 4.96741 40.7049Z" fill="white"/>
<path fill-rule="evenodd" clip-rule="evenodd" d="M22.9993 59.3762C22.8153 58.7907 22.4292 57.6784 21.5912 56.6276C20.9635 55.8401 20.0577 55.0462 18.5893 54.3396C17.4271 53.7806 16.1887 53.4047 15.7006 53.2531C14.9048 53.0061 14.2314 52.8261 13.6435 52.6632C13.1695 52.5322 13.169 52.5344 12.8886 52.4562C12.2893 52.2891 12.1571 52.2564 11.8449 52.1555C11.7328 52.1189 11.3697 52.0034 10.867 51.7847C10.7486 51.7331 10.4177 51.5811 10.1301 51.4234C9.6713 51.1717 9.35911 50.9577 9.11605 50.779C8.57949 50.3842 8.25696 50.0586 8.1806 49.9825C7.68276 49.4876 7.39814 49.0817 7.3592 49.028C6.85327 48.3264 6.57485 47.7031 6.42995 47.337C6.35259 47.142 6.28462 46.9212 6.27334 46.8847C6.1004 46.3232 6.06862 45.9615 6.06879 45.961C6.06991 45.9576 6.07288 45.9542 6.07546 45.9597C6.0777 45.9645 6.1931 46.4856 6.59677 47.2296C6.74886 47.5102 7.1186 48.1941 7.85927 48.9554C7.97066 49.0696 8.27617 49.3948 8.78745 49.7858C8.96215 49.9194 9.35058 50.2253 10.0663 50.6106C10.9097 51.0638 11.7085 51.3229 11.8923 51.3839C12.1901 51.4827 12.2426 51.4926 13.0939 51.74C13.1691 51.7619 13.403 51.8302 14.0318 52.0236C14.0433 52.027 14.6805 52.2259 15.3375 52.4489C15.7452 52.5876 16.338 52.7921 17.0866 53.1019C17.9161 53.4447 18.6638 53.8116 19.355 54.2468C20.4663 54.947 21.5839 55.9252 22.3402 57.4761C22.6985 58.2107 22.8883 58.9006 22.9993 59.3762Z" fill="white"/>
<path fill-rule="evenodd" clip-rule="evenodd" d="M47.773 40.166C47.781 40.1557 47.7854 40.1432 47.7934 40.1329C47.7972 40.1282 47.9074 40.0457 47.9174 40.0384C48.2842 39.7647 48.5822 39.5967 48.7979 39.4911C48.8022 39.4889 49.0511 39.3798 49.3541 39.3089C50.5554 39.0275 51.3155 39.626 51.4588 40.6132C51.4808 40.7648 51.5251 41.2142 51.3602 41.8208C51.0491 42.9652 50.1565 44.3713 48.4996 45.725C47.5071 46.5361 46.5149 47.0795 46.1945 47.2531C45.8107 47.461 45.3576 47.6913 44.7137 47.9667C43.6866 48.4057 42.9197 48.6373 42.5617 48.7597C42.1565 48.8989 41.3577 49.1743 40.3799 49.661C39.8387 49.9308 38.8209 50.4777 37.7836 51.3317C37.1016 51.8932 35.8189 53.0652 34.8161 54.9743C33.4854 57.5073 33.4061 59.8834 33.4209 60.4234C33.4226 60.4835 33.3907 60.5192 33.3849 60.5256C33.3729 60.5394 33.3579 60.551 33.3416 60.5587C33.3336 60.5626 33.2878 60.5849 33.2313 60.5652C33.1765 60.5463 33.1548 60.502 33.151 60.4943C33.1348 60.4612 33.1378 60.4603 33.1354 60.4234C33.1122 60.0685 33.1355 59.6149 33.139 59.5449C33.2348 57.6787 33.7702 56.215 33.8989 55.864C34.6283 53.8767 35.6659 52.5836 36.2588 51.9203C37.5255 50.5043 38.8584 49.6722 39.5682 49.2654C40.0678 48.9792 40.9053 48.5337 42.1349 48.0878C42.5206 47.9478 43.0452 47.8008 43.8986 47.4636C44.0375 47.409 44.6622 47.165 45.4831 46.7582C46.2968 46.3552 47.8175 45.5231 49.0772 44.2773C49.9494 43.4146 50.5936 42.4536 50.8394 41.5557C50.8685 41.4488 51.0359 40.8903 50.8953 40.3782C50.7072 39.6925 50.0082 39.4051 48.9088 39.7535C48.8635 39.7677 48.464 39.8485 47.8274 40.1548C47.8125 40.1617 47.8126 40.1621 47.8117 40.1621C47.7926 40.166 47.7921 40.1621 47.773 40.166Z" fill="white"/>
<path fill-rule="evenodd" clip-rule="evenodd" d="M51.3106 40.7802C51.3232 40.7781 51.3957 40.7682 51.4648 40.8202C51.486 40.8361 51.5047 40.8567 51.5182 40.8795C51.5322 40.9031 51.5383 40.9306 51.5457 40.9568C51.5457 40.9572 51.576 41.1802 51.5786 41.1995C51.6531 41.7486 51.8216 43.2487 51.689 45.1123C51.5162 47.5392 50.9576 49.0741 50.6474 49.8199C50.5524 50.0485 50.4316 50.2959 50.4117 50.3371C49.4867 52.2321 47.5487 54.7878 43.3018 55.0933C43.0875 55.1083 41.8383 55.1706 40.4336 55.4387C39.5054 55.6161 36.3868 56.2416 34.4364 58.3118C33.8813 58.9013 33.6179 59.403 33.5186 59.6316C33.4954 59.6848 33.4835 59.7188 33.4835 59.7188C33.4748 59.7343 33.4689 59.7514 33.4573 59.7652C33.4521 59.7712 33.4216 59.8073 33.3667 59.812C33.3583 59.8129 33.31 59.8172 33.2665 59.7806C33.2568 59.7725 33.1972 59.7222 33.2281 59.6273C33.3653 59.2041 34.333 56.9955 37.9879 55.58C39.4447 55.0159 40.8592 54.7535 41.819 54.6173C42.5046 54.5197 43.1848 54.4661 43.3039 54.457C45.3993 54.2921 48.3474 53.4509 50.0036 49.7026C50.2783 49.0806 51.0273 47.3248 51.2107 44.4108C51.2259 44.1685 51.3251 42.7229 51.1535 41.1686C51.1498 41.1355 51.1348 41.0268 51.1331 41.0144C51.1313 41.0019 51.1213 40.9297 51.1734 40.861C51.2256 40.7918 51.298 40.782 51.3106 40.7802Z" fill="white"/>
<path fill-rule="evenodd" clip-rule="evenodd" d="M33.2787 59.4517C33.6641 57.8003 34.4569 56.0454 36.4671 54.6264C37.4272 53.9485 38.4497 53.4854 39.1655 53.1881C39.955 52.8599 40.6171 52.6352 40.7687 52.5832C41.0241 52.4951 41.7356 52.2546 42.4308 52.0423C43.064 51.849 43.0642 51.8499 43.7002 51.666C43.8863 51.6123 44.1797 51.5341 44.6503 51.3692C44.9756 51.2553 45.645 51.0023 46.3267 50.6229C46.6096 50.4653 47.0449 50.22 47.6337 49.7496C47.892 49.5429 48.1761 49.2925 48.529 48.9153C49.1947 48.2039 49.5542 47.5496 49.7329 47.2085C50.0924 46.5215 50.2023 46.0357 50.2026 46.0352C50.2046 46.0327 50.2086 46.0301 50.2092 46.0365C50.2093 46.0374 50.1621 46.5748 49.8685 47.3593C49.7372 47.7098 49.563 48.0466 49.5329 48.105C49.2341 48.6833 48.9247 49.1026 48.7558 49.3212C48.6606 49.4445 48.5261 49.5988 48.5055 49.6224C48.0581 50.1358 47.6723 50.4511 47.5906 50.519C47.0019 51.0091 46.502 51.2966 46.3759 51.37C45.7662 51.7249 45.214 51.9543 44.7513 52.1231C44.5087 52.2112 44.2174 52.2984 44.1707 52.3126C44.0105 52.3607 43.9553 52.3736 43.3894 52.5317C43.1233 52.606 42.9589 52.6485 42.4498 52.7903C42.2308 52.8513 41.3786 53.0768 40.4667 53.3629C39.9136 53.5365 38.4041 53.9962 37.1014 54.7183C35.7134 55.4873 34.868 56.3641 34.2829 57.2633C33.6796 58.1904 33.388 59.1037 33.2787 59.4517Z" fill="white"/>
<path fill-rule="evenodd" clip-rule="evenodd" d="M28.1379 47.3923C28.1379 47.3923 23.3873 62.9937 28.1379 62.9186C32.898 62.843 28.1379 47.3923 28.1379 47.3923Z" fill="white"/>
<path fill-rule="evenodd" clip-rule="evenodd" d="M28.1475 47.3895L28.1379 47.3924L28.1282 47.3895C28.1295 47.3852 28.1334 47.3823 28.1378 47.3823C28.1423 47.3823 28.1462 47.3852 28.1475 47.3895ZM28.1379 47.4273C28.1367 47.4312 28.1355 47.4354 28.1341 47.4401C28.1252 47.4696 28.1122 47.5133 28.0954 47.5705C28.0618 47.6847 28.0131 47.8522 27.9528 48.0654C27.8322 48.4918 27.6652 49.1008 27.4796 49.8314C27.1085 51.2927 26.6632 53.2402 26.3664 55.1852C26.0695 57.1305 25.9213 59.0724 26.1437 60.5229C26.2549 61.2481 26.4587 61.8495 26.7819 62.2669C27.1048 62.6839 27.5471 62.9179 28.1377 62.9086C28.7295 62.8992 29.1729 62.6511 29.4965 62.2237C29.8204 61.7959 30.0246 61.1881 30.136 60.4593C30.3589 59.0017 30.2104 57.0645 29.9129 55.1287C29.6155 53.1931 29.1693 51.2598 28.7974 49.8103C28.6115 49.0855 28.4442 48.4818 28.3234 48.0592C28.2629 47.848 28.2141 47.682 28.1805 47.5688C28.1636 47.5123 28.1505 47.4689 28.1417 47.4397C28.1403 47.4352 28.1391 47.4311 28.1379 47.4273ZM29.5126 62.2359C29.1854 62.668 28.7363 62.9192 28.138 62.9287C27.5409 62.9382 27.0926 62.7011 26.7659 62.2793C26.4397 61.8579 26.2351 61.2527 26.1237 60.5259C25.9008 59.0723 26.0494 57.1279 26.3464 55.1822C26.6434 53.2363 27.0888 51.2881 27.46 49.8265C27.6456 49.0957 27.8126 48.4864 27.9333 48.0599C27.9936 47.8466 28.0423 47.679 28.076 47.5648C28.0928 47.5076 28.1058 47.4638 28.1147 47.4343C28.1191 47.4195 28.1225 47.4083 28.1247 47.4008L28.1281 47.3897C28.1282 47.3895 28.1282 47.3895 28.1379 47.3924C28.1475 47.3895 28.1476 47.3895 28.1476 47.3896L28.151 47.4007C28.1532 47.4081 28.1566 47.4192 28.1611 47.4338C28.1699 47.4631 28.183 47.5065 28.1999 47.5631C28.2336 47.6763 28.2824 47.8423 28.3428 48.0537C28.4637 48.4764 28.6311 49.0803 28.8171 49.8053C29.189 51.2551 29.6353 53.1891 29.9329 55.1257C30.2305 57.0619 30.3794 59.0016 30.156 60.4623C30.0444 61.1926 29.8395 61.8043 29.5126 62.2359Z" fill="white"/>
<path fill-rule="evenodd" clip-rule="evenodd" d="M44.1486 19.247C44.9102 19.2569 45.9814 19.4308 46.9962 20.263C47.8499 20.9624 49.3393 22.6554 49.8881 27.2049C50.2632 30.3118 50.0005 33.1536 50.0005 33.1536C49.9919 33.182 49.9884 33.2129 49.9747 33.2391C49.9312 33.3203 49.8562 33.3435 49.8429 33.3474C49.752 33.3753 49.6805 33.3375 49.668 33.3306C49.587 33.2876 49.5637 33.2125 49.5594 33.1996C49.5431 33.1459 49.5469 33.1446 49.5521 33.0887C49.6753 31.7604 50.1702 23.8106 47.0237 20.7643C46.3255 20.0881 45.2543 19.4648 43.5943 19.5945C43.5904 19.595 43.5577 19.5971 43.5448 19.5962C43.5318 19.5954 43.4543 19.5885 43.413 19.5082C43.4069 19.497 43.3712 19.4278 43.4177 19.3501C43.4323 19.3247 43.4539 19.3058 43.5043 19.2676C44.137 18.7869 46.161 17.7326 48.1001 19.9593C48.664 20.6062 49.0671 21.4023 49.0981 21.462C49.7184 22.646 50.0677 23.8411 50.2012 24.2626L50.2163 24.3111C50.2146 24.3326 50.2206 24.3558 50.2107 24.3747L50.1616 24.4155C50.1405 24.4138 50.1168 24.4194 50.0983 24.4095C50.0793 24.4 50.0677 24.3794 50.0574 24.361C50.0561 24.3592 50.0298 24.2634 49.9148 23.9374C49.068 21.5363 48.2108 20.4786 47.7517 19.9979C46.9815 19.1924 46.186 18.8827 45.4257 18.9033C44.9059 18.9175 44.4609 19.085 44.1486 19.247Z" fill="white"/>
<path fill-rule="evenodd" clip-rule="evenodd" d="M46.9251 27.2191C46.9471 27.2127 47.0737 27.177 47.2107 27.2526C47.2525 27.2758 47.2912 27.3076 47.3214 27.3454C47.3812 27.4197 47.3765 27.4232 47.4006 27.5151C47.7039 28.6677 48.4094 31.0413 49.8777 33.1699C49.9953 33.3401 50.4674 34.0296 51.1337 34.7139C51.1643 34.7449 51.1992 34.7835 51.2819 34.8682C51.3022 34.8892 51.3009 34.8901 51.5339 35.1285C51.564 35.1594 51.6984 35.2973 51.9258 35.5048C52.205 35.7596 52.3777 35.8717 52.3777 35.8717C52.3777 35.8721 52.1528 35.7897 51.7777 35.5714C51.7101 35.5323 51.4477 35.3691 51.2431 35.2153C51.0721 35.0868 50.9477 34.9859 50.7121 34.762C50.1211 34.2001 49.0628 33.0643 48.0248 31.0494C47.2309 29.5093 46.764 27.9971 46.6662 27.6839C46.6451 27.6161 46.6533 27.5473 46.6546 27.5353C46.6602 27.4876 46.6762 27.4403 46.6994 27.3982C46.7756 27.2616 46.9027 27.2255 46.9251 27.2191Z" fill="white"/>
<path fill-rule="evenodd" clip-rule="evenodd" d="M47.9683 18.6404L47.6487 18.9622L44.6685 18.7461L43.6309 19.5774L45.1557 19.5872L47.1168 20.672L48.6541 23.0288L49.5857 26.4858L49.7752 30.4643L49.7386 33.0488L48.5464 30.8248L47.1827 27.6333L45.872 27.7248L43.242 27.9941L40.5933 27.2187L38.5707 25.7782L42.6911 17.1982L44.0647 16.7656L45.8608 16.8473L46.7843 17.4689L47.9683 18.6404Z" fill="white"/>
<path fill-rule="evenodd" clip-rule="evenodd" d="M44.0522 16.7263C44.0569 16.7248 44.0617 16.7242 44.0666 16.7244L45.8627 16.806C45.8703 16.8064 45.8777 16.8088 45.884 16.813L46.8074 17.4347C46.8096 17.4361 46.8116 17.4378 46.8134 17.4396L47.9975 18.6111C48.0137 18.6271 48.0138 18.6532 47.9977 18.6694L47.6781 18.9912C47.6696 18.9997 47.6578 19.0042 47.6458 19.0033L44.6818 18.7884L43.7475 19.5369L45.156 19.546C45.1629 19.546 45.1697 19.5478 45.1758 19.5512L47.1369 20.6359C47.1428 20.6392 47.1478 20.6438 47.1515 20.6495L48.6887 23.0063C48.6911 23.0099 48.6929 23.0139 48.694 23.0181L49.6257 26.4751C49.6264 26.4779 49.6269 26.4809 49.627 26.4838L49.8166 30.4624C49.8166 30.4632 49.8166 30.464 49.8166 30.4649L49.78 33.0494C49.7797 33.0682 49.7667 33.0844 49.7484 33.0889C49.7301 33.0933 49.7111 33.0848 49.7022 33.0682L48.5099 30.8442C48.5094 30.8431 48.5088 30.842 48.5084 30.8409L47.1562 27.6764L45.8756 27.7658L43.2462 28.0351C43.2409 28.0357 43.2355 28.0352 43.2304 28.0337L40.5817 27.2582C40.5773 27.2569 40.5731 27.2549 40.5693 27.2522L38.5467 25.8118C38.5304 25.8001 38.5248 25.7785 38.5335 25.7604L42.6538 17.1804C42.6587 17.1701 42.6677 17.1623 42.6787 17.1589L44.0522 16.7263ZM44.0701 16.8071L42.7206 17.2322L38.6231 25.7648L40.6117 27.1811L43.2459 27.9522L45.8678 27.6837C45.8682 27.6837 45.8687 27.6836 45.8691 27.6836L47.1798 27.5921C47.1974 27.5909 47.2138 27.6009 47.2208 27.6171L48.5837 30.8069L49.6996 32.8884L49.7339 30.465L49.5447 26.4922L48.6158 23.0458L47.0878 20.7031L45.1449 19.6284L43.6307 19.6186C43.6132 19.6185 43.5977 19.6074 43.5919 19.5909C43.5861 19.5744 43.5914 19.5561 43.6051 19.5452L44.6427 18.7139C44.6508 18.7074 44.6611 18.7042 44.6716 18.7049L47.6328 18.9197L47.9099 18.6406L46.7579 17.5009L45.8473 16.8879L44.0701 16.8071Z" fill="white"/>
<path fill-rule="evenodd" clip-rule="evenodd" d="M50.1093 23.792L49.5243 21.3237L48.0846 18.5415H46.2399L47.0947 19.3044L48.4895 20.6059L50.1093 23.792Z" fill="white"/>
<path fill-rule="evenodd" clip-rule="evenodd" d="M46.2107 18.5304C46.2153 18.5182 46.227 18.5103 46.24 18.5103H48.0846C48.0963 18.5103 48.1071 18.5168 48.1125 18.5272L49.5522 21.3093C49.5534 21.3116 49.5543 21.314 49.5549 21.3165L50.1398 23.7849C50.1435 23.8003 50.135 23.816 50.1201 23.8214C50.1052 23.8268 50.0886 23.8203 50.0814 23.8062L48.4641 20.625L47.0736 19.3275L46.2191 18.5648C46.2094 18.5562 46.206 18.5425 46.2107 18.5304ZM46.322 18.5728L47.1156 19.2811C47.1158 19.2813 47.116 19.2814 47.1161 19.2816L48.5109 20.5831C48.5136 20.5856 48.5158 20.5885 48.5175 20.5918L50.0183 23.5439L49.4947 21.3346L48.0655 18.5728H46.322Z" fill="white"/>
<path fill-rule="evenodd" clip-rule="evenodd" d="M47.0655 5.39901C46.9081 5.68113 46.7497 6.09403 46.5961 6.65873C45.3266 11.3257 43.3875 16.0606 41.7677 19.6256C40.9575 21.4089 40.2265 22.901 39.6979 23.9476C39.4336 24.4709 39.2199 24.8828 39.0721 25.1642C38.9982 25.3049 38.9408 25.4129 38.9018 25.4858C38.8823 25.5223 38.8675 25.55 38.8574 25.5687C38.8524 25.578 38.8486 25.585 38.846 25.5898L38.8423 25.5966L38.8421 25.5969C38.8421 25.597 38.8421 25.5971 38.643 25.4896C38.444 25.3821 38.444 25.3821 38.444 25.3821L38.4442 25.3818L38.4476 25.3755C38.45 25.3709 38.4537 25.3641 38.4586 25.355C38.4684 25.3368 38.4831 25.3095 38.5023 25.2735C38.5408 25.2014 38.5977 25.0944 38.6711 24.9547C38.8178 24.6753 39.0305 24.2654 39.2936 23.7444C39.8199 22.7024 40.5482 21.2159 41.3554 19.4393C42.9705 15.8845 44.8987 11.1744 46.1592 6.5405C46.3174 5.95888 46.4873 5.50675 46.67 5.17942C46.849 4.85865 47.0603 4.62165 47.3195 4.53218C47.5997 4.4355 47.865 4.53234 48.0872 4.71857C48.3046 4.90073 48.5073 5.18714 48.6982 5.54321C49.4603 6.96443 50.1954 9.81051 50.7713 13.2262C51.3489 16.6524 51.7712 20.6833 51.8951 24.4958C52.0189 28.3041 51.8458 31.9116 51.2241 34.483C51.1948 34.6042 51.0726 34.6788 50.951 34.6495C50.8295 34.6203 50.7547 34.4984 50.784 34.3771C51.3913 31.8655 51.5661 28.3063 51.4427 24.5104C51.3194 20.7187 50.8992 16.7079 50.3248 13.301C49.7487 9.8835 49.0223 7.10496 48.299 5.75615C48.1186 5.41972 47.9485 5.19204 47.796 5.06425C47.6484 4.94052 47.5468 4.93154 47.4675 4.95888C47.3674 4.99345 47.2266 5.11032 47.0655 5.39901ZM38.5353 25.6882C38.4253 25.6288 38.3845 25.4918 38.444 25.3821L38.643 25.4896L38.8421 25.5971C38.7826 25.7067 38.6452 25.7475 38.5353 25.6882Z" fill="white"/>
<path fill-rule="evenodd" clip-rule="evenodd" d="M46.7955 27.1826C46.8041 27.1787 46.87 27.1504 46.935 27.1461C46.9816 27.1435 47.0294 27.1504 47.0737 27.1654C47.1177 27.1805 47.1599 27.2041 47.1948 27.2346C47.1952 27.2346 47.2831 27.348 47.2831 27.348C47.2951 27.3944 47.3167 27.4395 47.3197 27.4872C47.3227 27.5336 47.3154 27.5813 47.3003 27.6255C47.293 27.647 47.2499 27.7733 47.1099 27.8377C47.0539 27.8631 44.9559 28.8177 42.1441 28.0568C41.5264 27.8897 40.6792 27.5899 39.6978 26.9858C39.677 26.973 39.4585 26.8368 39.1803 26.6379C39.1108 26.588 38.7629 26.3427 38.2799 25.9123C38.0352 25.694 37.7802 25.435 37.7381 25.3925C37.5964 25.2481 37.5995 25.2451 37.52 25.1695C37.5175 25.1673 37.5032 25.1536 37.5027 25.1304C37.5022 25.1081 37.5025 25.1068 37.5182 25.0904C37.5337 25.0741 37.5349 25.0737 37.5574 25.0733C37.5717 25.0728 37.5852 25.081 37.5974 25.0883C37.6027 25.0917 37.6 25.0947 37.655 25.1411C37.6556 25.1416 38.0576 25.4883 38.6223 25.8856C39.1532 26.2594 39.6339 26.5266 39.6381 26.5287C39.6894 26.5575 39.9392 26.6967 40.1556 26.8058C41.7211 27.5959 43.3294 27.8781 44.8516 27.7024C45.894 27.5821 46.5922 27.2806 46.7671 27.1964C46.7813 27.1899 46.7925 27.1839 46.7955 27.1826ZM46.7955 27.1826C46.7942 27.183 46.7938 27.183 46.7955 27.1826C46.7963 27.1817 46.7963 27.1817 46.7955 27.1826Z" fill="white"/>
<path fill-rule="evenodd" clip-rule="evenodd" d="M42.4447 17.1988C42.4404 17.1885 42.415 17.1275 42.4443 17.0549C42.4537 17.0326 42.4671 17.0119 42.4843 16.9948C42.5179 16.9604 42.5201 16.963 42.5649 16.9449C46.0128 15.5565 48.2543 17.7126 49.5 21.1898C50.0729 22.7884 50.2637 24.1987 50.2706 24.2477C50.2779 24.3001 50.2637 24.2997 50.218 24.3263C50.1788 24.3495 50.1495 24.2795 50.1465 24.2731C50.1439 24.2671 50.1461 24.2666 50.1332 24.1906C50.063 23.7816 48.8543 16.801 44.6108 16.8534C43.8105 16.8633 43.1106 17.1206 42.6915 17.2998C42.6209 17.3303 42.558 17.3045 42.5472 17.2998C42.4748 17.2706 42.4494 17.2096 42.4447 17.1988Z" fill="white"/>
<path fill-rule="evenodd" clip-rule="evenodd" d="M7.09425 33.1959C7.09425 33.1951 7.09425 33.1951 7.09425 33.1959C7.09425 33.1981 7.09425 33.1981 7.09425 33.1959ZM12.4956 19.3323C11.9731 19.0607 11.0888 18.7785 10.0938 19.2107C9.74882 19.3606 9.12297 19.7056 8.41486 20.649C7.52239 21.8381 6.93359 23.4139 6.63294 24.3023C6.62002 24.3405 6.58729 24.4462 6.58686 24.4462C6.5735 24.4626 6.56489 24.4853 6.54593 24.4948C6.54593 24.4952 6.48262 24.5008 6.48219 24.5008C6.46582 24.487 6.44342 24.4785 6.43351 24.46C6.42361 24.4411 6.42576 24.4179 6.42791 24.3964C6.42791 24.3955 6.46281 24.2864 6.47357 24.2512C6.9099 22.8232 7.5435 21.2259 8.50876 20.0854C8.90546 19.6162 9.2832 19.3464 9.35858 19.2923C11.1332 18.0224 12.7859 19.0672 13.1774 19.3821C13.2002 19.4006 13.2084 19.41 13.2106 19.4126C13.2691 19.4818 13.2459 19.5561 13.242 19.5681C13.2144 19.654 13.1391 19.6738 13.1266 19.6768C13.118 19.6794 13.1085 19.6807 13.0994 19.6815C13.0714 19.6837 12.9521 19.6686 12.732 19.6639C11.2357 19.6313 9.15614 20.1919 7.93718 23.7069C6.56532 27.6627 7.08262 33.0864 7.09425 33.1959C7.09425 33.2024 7.0964 33.2462 7.08477 33.2849C7.08047 33.2977 7.05721 33.3729 6.97623 33.4159C6.96374 33.4228 6.89224 33.4606 6.80136 33.4326C6.71306 33.4056 6.67601 33.3364 6.66955 33.3244C6.64242 33.2733 6.6463 33.2715 6.64156 33.214C6.61356 32.8905 6.33488 29.3995 6.94781 26.0078C7.71622 21.7539 9.56834 19.3739 12.4956 19.3323Z" fill="white"/>
<path fill-rule="evenodd" clip-rule="evenodd" d="M9.71907 27.3043C9.74147 27.3107 9.86854 27.3468 9.94478 27.4834C9.96803 27.5256 9.98397 27.5728 9.98957 27.6205C10.0012 27.7171 9.99431 27.7176 9.96502 27.8108C9.51792 29.2328 8.69308 31.4358 7.19717 33.4197C6.57089 34.2501 6.01913 34.7652 5.90671 34.8713C5.6935 35.0724 5.56988 35.175 5.35581 35.3344C5.3248 35.3568 5.05603 35.5479 4.83076 35.6772C4.78855 35.7017 4.50729 35.8628 4.28331 35.9509C4.27857 35.9526 4.26651 35.9569 4.26651 35.9569C4.26608 35.956 4.46119 35.8328 4.79156 35.5222C4.83205 35.4839 4.96127 35.3696 5.16587 35.1566C5.18999 35.1312 5.23306 35.0895 5.3416 34.9748C5.35366 34.962 5.40061 34.9151 5.48848 34.8215C5.57592 34.7287 6.12078 34.1891 6.7406 33.2925C7.2424 32.5665 8.31404 30.8962 9.12123 28.0488C9.19962 27.7726 9.25303 27.5629 9.25346 27.5621C9.27672 27.5182 9.2918 27.4693 9.32281 27.4306C9.35296 27.3928 9.39172 27.361 9.4335 27.3378C9.57047 27.2622 9.69711 27.2979 9.71907 27.3043Z" fill="white"/>
<path fill-rule="evenodd" clip-rule="evenodd" d="M8.67589 18.7256L9.94007 19.0474L11.9757 18.8313C11.9757 18.8313 13.0422 19.2755 13.0585 19.4383C13.0745 19.6011 11.9714 19.6682 11.6686 19.7622C11.0802 19.9444 10.1628 20.1833 9.48221 20.7572C8.80166 21.3307 8.34466 22.348 7.99017 23.2485C7.59347 24.255 7.28852 25.5911 7.10331 26.7952C6.91637 28.0123 6.87201 29.5756 6.86899 30.5495C6.86684 31.2502 6.99563 32.9996 6.99563 32.9996L8.32269 31.2244L9.55156 27.8082L11.2223 27.9895L13.6719 28.0793L16.5458 27.1243L18.3884 25.9081L13.9532 17.2834L12.5796 16.8508L11.2783 17.0674L9.90518 17.6439L8.67589 18.7256Z" fill="white"/>
<path fill-rule="evenodd" clip-rule="evenodd" d="M12.592 16.8115C12.5858 16.8095 12.5792 16.8091 12.5727 16.8101L11.2715 17.0267C11.2683 17.0272 11.2652 17.0281 11.2623 17.0293L9.8891 17.6058C9.88497 17.6076 9.88115 17.61 9.87779 17.6129L8.6485 18.6947C8.63701 18.7048 8.63207 18.7204 8.63566 18.7353C8.63925 18.7501 8.65078 18.7618 8.66563 18.7656L9.92981 19.0873C9.93458 19.0885 9.93952 19.0889 9.94441 19.0884L11.9694 18.8734C11.9701 18.8737 11.9708 18.874 11.9715 18.8743C11.9793 18.8776 11.9907 18.8824 12.0052 18.8886C12.0343 18.901 12.0759 18.9189 12.1258 18.9409C12.2258 18.985 12.3591 19.0454 12.4927 19.1108C12.6266 19.1763 12.7599 19.2463 12.8603 19.3096C12.9106 19.3414 12.9514 19.3706 12.9795 19.3961C12.9936 19.4088 13.0036 19.4197 13.01 19.4286C13.0131 19.433 13.015 19.4364 13.0162 19.439C13.0166 19.4399 13.0168 19.4406 13.017 19.4411C13.0158 19.4434 13.0111 19.4498 12.9944 19.4598C12.9699 19.4746 12.931 19.4897 12.8791 19.5048C12.776 19.5346 12.6324 19.5609 12.4766 19.5853C12.387 19.5993 12.295 19.6126 12.205 19.6255C12.1381 19.6351 12.0723 19.6445 12.0095 19.654C11.8644 19.676 11.7355 19.6982 11.6563 19.7228C11.6003 19.7402 11.5413 19.758 11.4796 19.7767C10.896 19.9532 10.0781 20.2006 9.45549 20.7257C8.76583 21.3069 8.30569 22.334 7.95165 23.2334C7.55339 24.2439 7.24785 25.5833 7.0624 26.789C6.87498 28.0092 6.83062 29.5751 6.82761 30.5494C6.82652 30.9013 6.85828 31.5151 6.89019 32.0398C6.90616 32.3024 6.9222 32.5431 6.93425 32.7181C6.94027 32.8056 6.9453 32.8767 6.94882 32.9259C6.95058 32.9505 6.95196 32.9697 6.9529 32.9827L6.95433 33.0022L6.95435 33.0025L6.95435 33.0025C6.95435 33.0025 6.95435 33.0026 6.99559 32.9995L6.95435 33.0025C6.95561 33.0197 6.96744 33.0343 6.98402 33.0391C7.00059 33.0439 7.01842 33.038 7.02874 33.0242L8.35581 31.2491C8.35825 31.2458 8.3602 31.2422 8.36158 31.2383L9.57944 27.8527L11.2178 28.0305C11.2183 28.0306 11.2188 28.0306 11.2193 28.0307C11.2198 28.0307 11.2203 28.0307 11.2208 28.0307L13.6703 28.1205C13.6753 28.1207 13.6802 28.12 13.6849 28.1184L16.5589 27.1634C16.5623 27.1623 16.5656 27.1607 16.5686 27.1587L18.4112 25.9425C18.4288 25.9309 18.4348 25.908 18.4252 25.8893L13.9899 17.2646C13.9849 17.2548 13.9761 17.2474 13.9656 17.2441L12.592 16.8115ZM7.02888 32.886C7.02562 32.8401 7.0215 32.7814 7.01675 32.7124C7.00472 32.5376 6.98869 32.2971 6.97274 32.0348C6.9408 31.5096 6.90923 30.8984 6.9103 30.5496C6.91332 29.5762 6.9577 28.0154 7.14415 26.8015C7.14415 26.8015 7.14415 26.8015 7.14415 26.8015C7.32912 25.5988 7.63349 24.2661 8.02862 23.2635C8.38355 22.362 8.83742 21.3545 9.50886 20.7887C10.1175 20.2753 10.9187 20.0328 11.5039 19.8556C11.5654 19.8369 11.6245 19.819 11.6808 19.8016L11.6808 19.8016C11.753 19.7792 11.8755 19.7577 12.0219 19.7356C12.0831 19.7263 12.1485 19.7169 12.2155 19.7073C12.3063 19.6943 12.4 19.6808 12.4895 19.6668C12.6453 19.6423 12.7935 19.6154 12.9021 19.584C12.9561 19.5684 13.0032 19.5508 13.0371 19.5304C13.0679 19.5119 13.1042 19.4808 13.0997 19.4343L13.0996 19.4342C13.0976 19.4139 13.0881 19.3958 13.0773 19.3807C13.0663 19.3652 13.0516 19.3499 13.035 19.3349C13.0017 19.3049 12.9565 19.2727 12.9045 19.2399C12.8003 19.1742 12.6639 19.1026 12.5291 19.0367C12.3942 18.9707 12.2598 18.9098 12.1593 18.8655C12.109 18.8433 12.0671 18.8253 12.0378 18.8128C12.0231 18.8065 12.0116 18.8016 12.0037 18.7983C11.9998 18.7967 11.9968 18.7954 11.9947 18.7945L11.9918 18.7933L11.9916 18.7932L11.9916 18.7932C11.9916 18.7932 11.9916 18.7932 11.9757 18.8313L11.9916 18.7932C11.9852 18.7906 11.9782 18.7895 11.9713 18.7903L9.94306 19.0056L8.76185 18.7049L9.92743 17.6792L11.2899 17.1072L12.5765 16.8931L13.9242 17.3176L18.3347 25.8941L16.5275 27.0869L13.6659 28.0378L11.2253 27.9484L9.55599 27.7672C9.53699 27.7652 9.51905 27.7764 9.5126 27.7943L8.28582 31.2047L7.02888 32.886Z" fill="white"/>
<path fill-rule="evenodd" clip-rule="evenodd" d="M9.53089 18.1423C9.53089 18.1423 8.8344 18.4602 8.06426 19.7765C7.33978 21.0151 6.5718 24.1155 6.47833 24.1443C6.36979 24.1778 7.61717 21.3686 8.22191 20.5331C8.68064 19.8994 10.4669 18.6385 10.4669 18.6385L9.53089 18.1423Z" fill="white"/>
<path fill-rule="evenodd" clip-rule="evenodd" d="M9.52663 18.133L9.53084 18.1422C9.52663 18.133 9.52662 18.133 9.52661 18.133L9.52657 18.133L9.52646 18.1331L9.52604 18.1333C9.52567 18.1334 9.52514 18.1337 9.52444 18.134C9.52304 18.1347 9.52099 18.1357 9.51829 18.137C9.51289 18.1398 9.50492 18.1439 9.49453 18.1496C9.47376 18.1609 9.44333 18.1786 9.40444 18.204C9.32668 18.2546 9.21513 18.3358 9.07954 18.4582C8.80834 18.7029 8.44104 19.1123 8.05547 19.7713L8.06421 19.7764L8.05547 19.7713C7.69256 20.3917 7.31914 21.4776 7.02496 22.4109C6.92496 22.7281 6.83406 23.028 6.75581 23.2861C6.72681 23.3818 6.69955 23.4717 6.67421 23.5546C6.65142 23.6086 6.63013 23.6597 6.61051 23.7077C6.55492 23.8436 6.51263 23.9541 6.48762 24.0297C6.47515 24.0674 6.46682 24.0968 6.46336 24.1165C6.46168 24.1261 6.4609 24.1346 6.46206 24.1409C6.46263 24.144 6.46398 24.1484 6.46779 24.1515C6.47223 24.1551 6.47743 24.155 6.48127 24.1538M10.4668 18.6384L10.4727 18.6466C10.4755 18.6446 10.4771 18.6412 10.4769 18.6377C10.4767 18.6342 10.4747 18.6311 10.4716 18.6294L9.53559 18.1333C9.53281 18.1318 9.52949 18.1317 9.52663 18.133M10.4476 18.6396C10.4455 18.6411 10.4433 18.6427 10.4408 18.6445C10.4275 18.6539 10.4081 18.6677 10.3832 18.6856C10.3335 18.7213 10.2619 18.7731 10.1745 18.8371C9.99986 18.9653 9.76216 19.1428 9.51011 19.3401C9.25807 19.5374 8.99159 19.7545 8.7594 19.962C8.52736 20.1694 8.32901 20.3676 8.21365 20.527L8.22186 20.5329L8.21365 20.527C7.91063 20.9457 7.44722 21.8577 7.07341 22.6602C6.9526 22.9195 6.84109 23.1675 6.7473 23.3839C6.75642 23.3538 6.76573 23.3231 6.77523 23.2918C6.85346 23.0337 6.94431 22.7341 7.04427 22.4169C7.33857 21.4832 7.71139 20.3996 8.07295 19.7815C8.45753 19.1242 8.82354 18.7164 9.09312 18.4731C9.22792 18.3515 9.33862 18.271 9.41551 18.2209C9.45396 18.1958 9.48395 18.1784 9.50428 18.1673C9.51445 18.1617 9.52219 18.1577 9.52737 18.1551C9.52859 18.1545 9.52967 18.1539 9.53061 18.1535L10.4476 18.6396Z" fill="white"/>
<path fill-rule="evenodd" clip-rule="evenodd" d="M9.57871 5.48421C9.73615 5.76634 9.8945 6.17923 10.0481 6.74394C11.3177 11.4109 13.2568 16.1458 14.8765 19.7108C15.6867 21.4941 16.4177 22.9862 16.9463 24.0328C17.2106 24.5561 17.4244 24.968 17.5721 25.2494C17.646 25.3901 17.7034 25.4981 17.7424 25.571C17.7619 25.6075 17.7768 25.6352 17.7868 25.6539C17.7918 25.6632 17.7956 25.6702 17.7982 25.675L17.8019 25.6818L17.8021 25.6822C17.8021 25.6822 17.8022 25.6823 18.0012 25.5748C18.2003 25.4674 18.2003 25.4673 18.2002 25.4673L18.2001 25.467L18.1967 25.4607C18.1942 25.4561 18.1905 25.4493 18.1856 25.4402C18.1758 25.422 18.1611 25.3947 18.1419 25.3587C18.1034 25.2866 18.0465 25.1796 17.9731 25.0399C17.8264 24.7605 17.6138 24.3506 17.3506 23.8296C16.8243 22.7876 16.096 21.3011 15.2888 19.5245C13.6738 15.9697 11.7456 11.2596 10.485 6.62571C10.3268 6.04409 10.1569 5.59196 9.97426 5.26463C9.79525 4.94385 9.58398 4.70685 9.3247 4.61739C9.0445 4.5207 8.77921 4.61754 8.557 4.80377C8.33963 4.98593 8.13693 5.27235 7.946 5.62842C7.1839 7.04963 6.44878 9.89571 5.87295 13.3114C5.29533 16.7376 4.87307 20.7685 4.74911 24.581C4.62529 28.3893 4.79846 31.9968 5.4201 34.5682C5.4494 34.6894 5.57167 34.764 5.69319 34.7347C5.81472 34.7055 5.88948 34.5836 5.86018 34.4624C5.25296 31.9507 5.07815 28.3915 5.20157 24.5956C5.32485 20.8039 5.74502 16.7931 6.31938 13.3862C6.89553 9.96871 7.62192 7.19016 8.34518 5.84136C8.52559 5.50493 8.69572 5.27725 8.84821 5.14945C8.99585 5.02573 9.09745 5.01674 9.1767 5.04408C9.27687 5.07865 9.41761 5.19553 9.57871 5.48421ZM18.109 25.7734C18.2189 25.714 18.2598 25.577 18.2003 25.4674L18.0012 25.5748L17.8022 25.6823C17.8617 25.7919 17.999 25.8327 18.109 25.7734Z" fill="white"/>
<path fill-rule="evenodd" clip-rule="evenodd" d="M19.1261 25.1756C19.1417 25.192 19.1421 25.1932 19.1415 25.2156C19.1412 25.2298 19.1325 25.2431 19.1244 25.2547C19.1209 25.2598 19.1183 25.2573 19.0683 25.3097C18.5561 25.848 18.177 26.1646 17.9824 26.3244C17.8061 26.4687 17.481 26.7308 16.9737 27.0543C16.84 27.1393 16.6485 27.2476 16.6198 27.2639C15.9091 27.666 14.0298 28.6369 11.5324 28.3989C10.2976 28.2812 9.52957 27.9212 9.52699 27.9195C9.48865 27.8907 9.44472 27.8675 9.41284 27.8314C9.38226 27.7966 9.35857 27.7545 9.34393 27.7107C9.32885 27.6665 9.32153 27.6188 9.32454 27.5724C9.32454 27.5719 9.36115 27.4332 9.36115 27.4332C9.39087 27.395 9.41327 27.3511 9.44945 27.3198C9.48434 27.2893 9.52656 27.2656 9.57049 27.2506C9.61486 27.2356 9.66266 27.2287 9.70918 27.2313C9.80997 27.2377 9.80782 27.2493 9.89914 27.2918C10.1373 27.4031 11.3274 27.91 13.0344 27.8293C13.7834 27.7936 15.145 27.6269 16.7589 26.7493C16.7802 26.7377 17.1706 26.5366 17.707 26.1848C17.7465 26.159 18.2465 25.8338 18.8113 25.3737C18.8561 25.3372 18.9948 25.2229 19.0184 25.2005C19.0464 25.1743 19.0462 25.1739 19.0469 25.1735C19.0837 25.1597 19.0834 25.1584 19.0868 25.1584C19.1094 25.1589 19.1105 25.1593 19.1261 25.1756Z" fill="white"/>
<path fill-rule="evenodd" clip-rule="evenodd" d="M14.2195 17.4467C14.2148 17.4574 14.1893 17.5184 14.117 17.5476C14.0946 17.5571 14.07 17.5622 14.0459 17.5622C13.9985 17.5622 13.9985 17.5588 13.955 17.5403C12.5435 16.9384 10.4644 16.5948 8.66872 18.9984C7.14739 21.0351 6.5952 24.0333 6.51853 24.514C6.51035 24.566 6.49743 24.5613 6.4466 24.5742C6.40181 24.5858 6.39319 24.5106 6.39276 24.5033C6.39276 24.5033 6.53705 23.3975 6.96692 22.0258C7.86627 19.1552 9.08049 18.0515 9.59047 17.6499C11.2768 16.3215 13.0604 16.7726 14.1178 17.2005C14.1893 17.2293 14.2152 17.2924 14.2199 17.3027C14.2492 17.3753 14.2238 17.4363 14.2195 17.4467Z" fill="white"/>
<path fill-rule="evenodd" clip-rule="evenodd" d="M24.2698 68.0949C24.2678 68.0941 24.237 68.0805 24.2154 68.059C24.2083 68.0523 24.1678 68.0124 24.1668 67.9462C24.1667 67.9359 24.1658 67.8777 24.2139 67.8287C24.2606 67.7813 24.3174 67.7805 24.3273 67.7801C24.3701 67.7797 24.37 67.7829 24.4094 67.7996C24.6046 67.8833 26.4508 68.6915 27.6987 69.8616C28.0236 70.1664 28.2049 70.3996 28.2829 70.502C28.3026 70.5279 28.3033 70.5295 28.2994 70.5614C28.2953 70.5948 28.2731 70.612 28.2692 70.6148C28.2437 70.6347 28.242 70.6355 28.2099 70.6315C28.1896 70.6287 28.1731 70.6132 28.1564 70.6016C28.1459 70.594 27.9202 70.2844 27.4046 69.8627C26.0963 68.7923 24.3002 68.106 24.2698 68.0949ZM24.2698 68.0949C24.27 68.0949 24.27 68.0949 24.2695 68.0949C24.2696 68.0949 24.2697 68.0949 24.2698 68.0949Z" fill="white"/>
<path fill-rule="evenodd" clip-rule="evenodd" d="M28.103 70.6147C28.0775 70.5952 28.0768 70.5936 28.0729 70.5613C28.0704 70.5414 28.0816 70.5215 28.0891 70.5023C28.0911 70.4972 28.1556 70.4171 28.1615 70.4095C28.8818 69.5116 30.0666 68.7688 30.9269 68.3057C31.5341 67.9793 31.9809 67.792 31.9815 67.7916C32.0026 67.7876 32.0235 67.78 32.045 67.78C32.0549 67.7804 32.1116 67.7812 32.1583 67.8286C32.2065 67.8777 32.2056 67.9358 32.2054 67.9462C32.2044 68.0124 32.1639 68.0522 32.1569 68.059C32.1272 68.0881 32.1253 68.0861 32.0866 68.1008C31.6988 68.2507 31.2656 68.4591 31.1954 68.493C30.1992 68.9724 28.9546 69.7045 28.2302 70.5836C28.2169 70.6 28.2175 70.6004 28.2159 70.6016C28.1666 70.6291 28.1673 70.6307 28.1624 70.6315C28.1302 70.6355 28.1286 70.6347 28.103 70.6147Z" fill="white"/>
<path fill-rule="evenodd" clip-rule="evenodd" d="M24.646 67.945L24.6462 67.9449L24.6477 67.9434C24.6491 67.942 24.6514 67.9398 24.6546 67.9369C24.6609 67.9309 24.6705 67.9219 24.6835 67.91C24.7095 67.8862 24.7487 67.8513 24.8002 67.8079C24.9032 67.7209 25.0554 67.5998 25.2501 67.4653C25.6401 67.1957 26.1974 66.8744 26.869 66.6633C28.2024 66.2441 29.9994 66.2537 31.8623 68.014C31.9279 68.076 32.0315 68.0732 32.0937 68.0078C32.1558 67.9423 32.153 67.839 32.0874 67.777C30.128 65.9256 28.2033 65.9016 26.7706 66.352C26.0591 66.5756 25.4722 66.9147 25.0638 67.197C24.8593 67.3383 24.6987 67.466 24.5888 67.5587C24.5338 67.6051 24.4914 67.6429 24.4625 67.6693C24.448 67.6825 24.4369 67.6929 24.4293 67.7001C24.4255 67.7038 24.4225 67.7066 24.4204 67.7086C24.4199 67.7091 24.4194 67.7095 24.419 67.7099C24.4186 67.7103 24.4183 67.7107 24.4179 67.711L24.4172 67.7117L24.417 67.7119C24.4169 67.712 24.4168 67.7121 24.5314 67.8286L24.4168 67.7121C24.3523 67.7752 24.3513 67.8786 24.4146 67.9429C24.4779 68.0072 24.5815 68.0082 24.646 67.9451C24.646 67.9451 24.646 67.9451 24.646 67.945Z" fill="white"/>
<path fill-rule="evenodd" clip-rule="evenodd" d="M7.33825 1.46946C8.25413 0.315668 9.04067 0 9.58366 0C9.85118 0 10.0944 0.168836 10.2925 0.353137C10.5043 0.550111 10.73 0.82769 10.9658 1.16323C11.4387 1.83624 11.9839 2.78845 12.573 3.919C13.7527 6.1827 15.1297 9.20326 16.4848 12.2351C16.8154 12.9749 17.1447 13.7153 17.4696 14.4458C18.4783 16.7138 19.4447 18.8868 20.2772 20.6502C20.8276 21.8162 21.316 22.7959 21.7166 23.5019C21.9173 23.8556 22.0918 24.1333 22.2376 24.3292C22.3106 24.4273 22.3721 24.499 22.422 24.5479C22.4704 24.5954 22.494 24.6074 22.4939 24.6077C22.4939 24.6077 22.4936 24.6076 22.493 24.6073C23.2511 24.9031 23.9044 24.8528 24.3679 24.7311C24.6007 24.67 24.7856 24.5908 24.9107 24.5278C24.9732 24.4965 25.0203 24.4693 25.0507 24.4509C25.0658 24.4417 25.0767 24.4347 25.0832 24.4305C25.0847 24.4295 25.0859 24.4286 25.087 24.4279C25.0881 24.4272 25.089 24.4266 25.0895 24.4262L25.0894 24.4263L25.0892 24.4264C25.0891 24.4265 25.089 24.4266 25.2701 24.6825L25.089 24.4266C25.0893 24.4264 25.0897 24.4261 25.09 24.4259C25.2316 24.327 25.4268 24.3609 25.5266 24.5018C25.6266 24.6432 25.5928 24.8386 25.4511 24.9383L25.2941 24.7163C25.4511 24.9383 25.451 24.9384 25.4509 24.9385L25.4506 24.9387L25.4499 24.9392L25.4482 24.9403C25.447 24.9412 25.4454 24.9423 25.4435 24.9436C25.4397 24.9462 25.4347 24.9495 25.4286 24.9536C25.4162 24.9617 25.3991 24.9726 25.3774 24.9858C25.334 25.0122 25.2721 25.0476 25.1934 25.0872C25.0361 25.1662 24.81 25.2627 24.5277 25.3368C23.9611 25.4856 23.1687 25.5435 22.2642 25.1906L22.2641 25.1906C22.1543 25.1477 22.0594 25.0707 21.9819 24.9947C21.9005 24.915 21.8174 24.8155 21.7334 24.7025C21.5652 24.4765 21.376 24.1734 21.1701 23.8104C20.7575 23.0832 20.261 22.0863 19.709 20.917C18.8733 19.1466 17.9026 16.9641 16.8931 14.6943C16.5687 13.965 16.2404 13.2267 15.9112 12.4902C14.5554 9.45674 13.1855 6.45256 12.0158 4.20786C11.4303 3.08419 10.9002 2.16129 10.4515 1.52272C10.2265 1.20248 10.0297 0.965156 9.8642 0.811179C9.78171 0.734442 9.71409 0.685142 9.66147 0.656275C9.63573 0.642152 9.61626 0.634409 9.60275 0.63034C9.58944 0.626332 9.58352 0.626359 9.58366 0.626359C9.30241 0.626359 8.67879 0.789762 7.83062 1.85826C6.98192 2.92742 5.9371 4.87 4.82255 8.33974L4.52352 8.24418L4.82255 8.33974C4.23587 10.1661 3.7371 13.0561 3.31476 16.4012C2.89322 19.7399 2.5503 23.5105 2.27034 27.0863C2.02534 30.2158 1.82876 33.1933 1.66989 35.5997C1.64724 35.9428 1.62535 36.2743 1.6042 36.5929C1.51951 37.869 1.44652 38.9408 1.38335 39.7276C1.35179 40.1208 1.32247 40.4455 1.29513 40.69C1.26951 40.9193 1.24232 41.1146 1.20701 41.2202C1.12879 41.4542 1.02294 42.0613 0.922977 42.9484C0.824453 43.8228 0.734605 44.9399 0.680669 46.1727C0.572623 48.6422 0.609631 51.5553 1.00198 53.9032L0.793784 53.9378L1.00198 53.9032C1.38006 56.1658 3.02095 57.9779 4.74249 59.3035C6.29116 60.4959 7.86134 61.262 8.52914 61.5878C8.60092 61.6228 8.66228 61.6528 8.71206 61.6776C8.93573 61.7891 9.29736 61.9082 9.75997 62.0401C10.0465 62.1217 10.3586 62.2048 10.6872 62.2922C10.8855 62.3449 11.0897 62.3992 11.2979 62.4558C12.3799 62.7499 13.5665 63.1029 14.3052 63.5675C15.1634 64.1071 16.1549 64.9763 17.234 65.9428C17.3532 66.0495 17.4736 66.1576 17.5951 66.2667C18.5828 67.1533 19.6488 68.1102 20.7821 69.0004C23.3393 71.0093 26.1617 72.6139 29.0663 72.32C29.2389 72.3025 29.3929 72.4279 29.4104 72.6C29.4279 72.772 29.3022 72.9257 29.1297 72.9431C25.9622 73.2636 22.967 71.5141 20.3935 69.4925C19.2429 68.5887 18.1611 67.6175 17.175 66.7323C17.0534 66.6231 16.9331 66.5151 16.8144 66.4088C15.7255 65.4335 14.7748 64.6032 13.9703 64.0974L13.9703 64.0974C13.3253 63.6917 12.2349 63.3597 11.1328 63.0601C10.9324 63.0057 10.7314 62.9522 10.5342 62.8997C10.2009 62.811 9.87827 62.7252 9.58744 62.6423C9.12772 62.5113 8.71353 62.3786 8.43118 62.2378C8.38327 62.2139 8.32338 62.1847 8.25267 62.1502C7.58667 61.8256 5.96133 61.0333 4.35873 59.7993C2.59239 58.4392 0.799605 56.5022 0.382525 54.0061C-0.0202907 51.5957 -0.0555586 48.6327 0.0532663 46.1454C0.107766 44.8997 0.198639 43.7683 0.298907 42.8785C0.397737 42.0014 0.508745 41.3288 0.61124 41.0221L0.611221 41.0222C0.611219 41.0222 0.612009 41.0197 0.613451 41.0141C0.61497 41.0081 0.616869 41 0.619096 40.9894C0.623589 40.968 0.628701 40.9398 0.634337 40.9041C0.64562 40.8326 0.657861 40.7382 0.671001 40.6206C0.697247 40.3858 0.725955 40.0688 0.757357 39.6776C0.820124 38.8958 0.892838 37.8283 0.977574 36.5516C0.998706 36.2332 1.02058 35.9019 1.04323 35.5588C1.20208 33.1527 1.39892 30.1711 1.64425 27.0376C1.92453 23.4577 2.26834 19.6759 2.69168 16.3229C3.11421 12.9763 3.61843 10.0353 4.22449 8.14863C5.34977 4.64551 6.4229 2.62259 7.33825 1.46946Z" fill="white"/>
<path fill-rule="evenodd" clip-rule="evenodd" d="M49.4017 1.54148C48.4859 0.38769 47.6993 0.0720215 47.1563 0.0720215C46.8888 0.0720215 46.6456 0.240857 46.4474 0.425159C46.2357 0.622133 46.01 0.899712 45.7742 1.23525C45.3013 1.90826 44.7561 2.86048 44.1669 3.99102C42.9873 6.25472 41.6103 9.27528 40.2552 12.3072C39.9246 13.0469 39.5953 13.7873 39.2704 14.5179C38.2617 16.7859 37.2952 18.9588 36.4628 20.7222C35.9124 21.8882 35.424 22.8679 35.0234 23.574C34.8227 23.9277 34.6481 24.2053 34.5024 24.4013C34.4294 24.4993 34.3679 24.5711 34.318 24.6199C34.2696 24.6674 34.246 24.6795 34.2461 24.6797C34.2461 24.6797 34.2464 24.6796 34.247 24.6794C33.4889 24.9751 32.8356 24.9248 32.3721 24.8031C32.1393 24.742 31.9544 24.6628 31.8292 24.5999C31.7668 24.5685 31.7197 24.5414 31.6893 24.5229C31.6742 24.5137 31.6633 24.5067 31.6568 24.5025C31.6554 24.5015 31.6541 24.5007 31.6531 24.5C31.6519 24.4992 31.651 24.4986 31.6505 24.4983L31.6506 24.4983L31.6508 24.4985C31.6505 24.4983 31.6502 24.4981 31.65 24.4979C31.5084 24.399 31.3132 24.4329 31.2134 24.5739C31.1134 24.7152 31.1472 24.9106 31.2888 25.0103L31.4563 24.7737C31.2888 25.0103 31.289 25.0104 31.2891 25.0105L31.2894 25.0107L31.2918 25.0124C31.293 25.0133 31.2946 25.0143 31.2965 25.0156C31.3003 25.0182 31.3053 25.0215 31.3114 25.0256C31.3238 25.0337 31.3409 25.0447 31.3626 25.0578C31.406 25.0842 31.4678 25.1196 31.5466 25.1592C31.7038 25.2383 31.93 25.3348 32.2123 25.4089C32.7789 25.5576 33.5713 25.6156 34.4758 25.2627L34.4759 25.2626C34.5857 25.2197 34.6806 25.1427 34.7581 25.0668C34.8395 24.987 34.9226 24.8875 35.0066 24.7746C35.1748 24.5485 35.364 24.2454 35.5699 23.8825C35.9825 23.1552 36.479 22.1583 37.031 20.989C37.8667 19.2186 38.8374 17.0361 39.8469 14.7663C40.1713 14.037 40.4996 13.2987 40.8288 12.5622C42.1846 9.52876 43.5544 6.52458 44.7242 4.27988C45.3097 3.15621 45.8398 2.23331 46.2885 1.59475C46.5135 1.2745 46.7103 1.03718 46.8758 0.8832C46.9583 0.806463 47.0259 0.757164 47.0785 0.728297C47.1043 0.714174 47.1237 0.70643 47.1372 0.702361C47.1506 0.698353 47.1565 0.698381 47.1563 0.698381C47.4376 0.698381 48.0612 0.861783 48.9094 1.93028C49.7581 2.99944 50.8029 4.94202 51.9174 8.41176C52.5041 10.2381 53.0029 13.1281 53.4252 16.4732C53.8468 19.8119 54.1897 23.5825 54.4696 27.1584C54.7147 30.2878 54.9112 33.2653 55.0701 35.6717C55.0928 36.0148 55.1146 36.3463 55.1358 36.665C55.2205 37.941 55.2935 39.0128 55.3566 39.7996C55.3882 40.1928 55.4175 40.5175 55.4449 40.762C55.4705 40.9913 55.4977 41.1866 55.533 41.2922C55.6112 41.5262 55.7171 42.1333 55.817 43.0204C55.9155 43.8948 56.0054 45.0119 56.0593 46.2447C56.1674 48.7142 56.1304 51.6274 55.738 53.9752C55.3599 56.2378 53.719 58.0499 51.9975 59.3755C50.4489 60.5679 48.8787 61.334 48.2109 61.6598C48.1391 61.6948 48.0777 61.7248 48.0279 61.7496C47.8043 61.8612 47.4426 61.9802 46.98 62.1121C46.6935 62.1937 46.3814 62.2768 46.0528 62.3642C45.8545 62.4169 45.6503 62.4713 45.4421 62.5278C44.36 62.8219 43.1734 63.1749 42.4347 63.6396C41.5746 64.1805 40.6085 65.0465 39.5682 66.0067C39.4218 66.1418 39.2737 66.279 39.124 66.4178C38.201 67.273 37.2142 68.1872 36.1643 69.0395C33.7141 71.0285 30.9973 72.6135 28.0943 72.3198C27.9217 72.3024 27.7677 72.4277 27.7502 72.5998C27.7327 72.7719 27.8584 72.9255 28.0309 72.943C31.2 73.2636 34.0904 71.5307 36.5607 69.5253C37.628 68.6589 38.6313 67.7293 39.5535 66.8747C39.7027 66.7365 39.8498 66.6002 39.9947 66.4664C41.0436 65.4983 41.9672 64.674 42.7697 64.1694L42.7697 64.1694C43.4147 63.7637 44.5051 63.4317 45.6072 63.1322C45.8077 63.0777 46.0088 63.0242 46.2061 62.9717C46.5393 62.883 46.8618 62.7972 47.1526 62.7143C47.6123 62.5833 48.0265 62.4507 48.3088 62.3098C48.3567 62.2859 48.4166 62.2567 48.4873 62.2223C49.1533 61.8976 50.7787 61.1053 52.3813 59.8713C54.1476 58.5112 55.9404 56.5742 56.3575 54.0782C56.7603 51.6677 56.7955 48.7047 56.6867 46.2174C56.6322 44.9718 56.5414 43.8403 56.4411 42.9505C56.3423 42.0734 56.2312 41.4008 56.1287 41.0941L56.1288 41.0942C56.1288 41.0942 56.128 41.0917 56.1265 41.0861C56.125 41.0802 56.1231 41.0721 56.1209 41.0614C56.1164 41.04 56.1113 41.0119 56.1057 40.9761C56.0944 40.9046 56.0821 40.8102 56.069 40.6927C56.0427 40.4578 56.014 40.1408 55.9826 39.7496C55.9199 38.9678 55.8472 37.9003 55.7624 36.6236C55.7413 36.3052 55.7194 35.9739 55.6968 35.6309C55.5379 33.2247 55.3411 30.2431 55.0957 27.1096C54.8155 23.5297 54.4716 19.7479 54.0483 16.3949C53.6258 13.0483 53.1216 10.1074 52.5155 8.22065C51.3902 4.71753 50.3171 2.69461 49.4017 1.54148ZM31.6508 24.4985C31.6508 24.4985 31.6509 24.4986 31.651 24.4986L31.4699 24.7545C31.651 24.4986 31.6509 24.4985 31.6508 24.4985Z" fill="white"/>
<path fill-rule="evenodd" clip-rule="evenodd" d="M21.6058 23.2797L21.6058 23.2797L21.6081 23.2784C21.6104 23.2772 21.6141 23.2752 21.6193 23.2724C21.6296 23.2669 21.6458 23.2583 21.6677 23.247C21.7115 23.2245 21.778 23.1912 21.8662 23.1496C22.0427 23.0664 22.3059 22.95 22.6477 22.8205C23.3314 22.5612 24.3282 22.2495 25.5724 22.0437C28.059 21.6324 31.535 21.6438 35.4824 23.3464C35.6416 23.4151 35.8264 23.3421 35.8952 23.1833C35.9641 23.0245 35.8908 22.8402 35.7317 22.7715C31.6552 21.0133 28.054 20.9983 25.4696 21.4258C24.1783 21.6394 23.141 21.9634 22.4246 22.235C22.0662 22.3708 21.7879 22.4937 21.5978 22.5833C21.5027 22.6282 21.4297 22.6647 21.3797 22.6904C21.3547 22.7033 21.3355 22.7134 21.3222 22.7206C21.3155 22.7241 21.3104 22.7269 21.3067 22.729C21.3048 22.73 21.3033 22.7308 21.3022 22.7314L21.3008 22.7322L21.3004 22.7324C21.3002 22.7325 21.3 22.7326 21.4529 23.0062L21.3 22.7326C21.1486 22.8168 21.0942 23.0076 21.1786 23.1586C21.263 23.3096 21.4541 23.3639 21.6056 23.2798L21.6056 23.2798C21.6057 23.2798 21.6057 23.2797 21.6058 23.2797Z" fill="white"/>
<path fill-rule="evenodd" clip-rule="evenodd" d="M46.5564 55.5148C46.552 55.4991 46.5521 55.4987 46.56 55.4844C46.5649 55.4757 46.5747 55.4701 46.5837 55.4653C46.5998 55.457 46.8478 55.4054 47.1615 55.2521C47.3929 55.1393 47.4744 55.0789 47.5492 55.0359C47.6786 54.9613 47.7696 54.9009 47.7728 54.8987C47.7787 54.8953 47.9776 54.8011 48.253 54.6487C48.3173 54.6131 48.573 54.4846 48.9487 54.2575C49.0051 54.2232 49.2858 54.0674 49.7065 53.7865C49.7253 53.7739 49.8628 53.688 50.0675 53.5491C50.105 53.5234 50.2218 53.4488 50.4181 53.3124C50.4531 53.2881 50.589 53.1996 50.8149 53.0385C50.8678 53.0008 50.9937 52.9165 51.2493 52.7255C51.3013 52.6869 51.6614 52.4312 52.1144 52.0474C52.219 51.9589 52.5186 51.7196 52.9224 51.332C52.9589 51.2968 53.069 51.1965 53.2288 51.0372C53.2959 50.9708 53.3481 50.9235 53.4901 50.778C53.5048 50.7633 53.5464 50.7268 53.6304 50.6465C53.6915 50.5879 53.7065 50.5805 53.8342 50.4585C53.8788 50.416 54.0276 50.2888 54.2243 50.0609C54.3205 49.9493 54.495 49.7513 54.6475 49.4453C54.6546 49.4314 54.6541 49.4309 54.6551 49.4301C54.6626 49.4231 54.6682 49.4131 54.6777 49.4097C54.6781 49.4097 54.7084 49.4114 54.7086 49.4114C54.7154 49.4192 54.7254 49.4249 54.7288 49.4344C54.7357 49.454 54.7321 49.4544 54.7232 49.4735C54.6626 49.6024 54.5182 49.8768 54.3853 50.1386C54.3578 50.1924 54.2721 50.3517 54.1215 50.6404C54.1164 50.6504 54.117 50.6508 53.9823 50.8892C53.9791 50.8948 53.8718 51.0637 53.8627 51.0776C53.8423 51.108 53.7262 51.263 53.7141 51.279C53.7066 51.2894 53.6503 51.368 53.4672 51.5903C53.4611 51.5977 53.3423 51.7479 53.0603 52.0522C52.8488 52.2801 52.6437 52.4867 52.5727 52.554C52.2588 52.8531 51.9738 53.0989 51.7442 53.2881C51.7076 53.3185 51.4347 53.5373 51.1836 53.7153C50.8708 53.9367 50.7369 54.0166 50.7199 54.027C50.5412 54.139 50.44 54.2002 50.2028 54.3305C50.192 54.3366 50.0671 54.4095 49.7236 54.5745C49.5224 54.6708 49.2897 54.7768 49.2006 54.8132C48.8663 54.9508 48.5386 55.0724 48.425 55.1097C48.1968 55.1844 48.0154 55.2391 47.9284 55.2651C47.9069 55.2717 47.9063 55.2686 47.6529 55.3164C47.5908 55.3281 47.469 55.3402 47.1806 55.3971C46.841 55.464 46.6143 55.5434 46.6057 55.5421C46.5778 55.5391 46.5776 55.5399 46.5755 55.5386C46.5614 55.5308 46.5609 55.5304 46.5564 55.5148Z" fill="white"/>
<path fill-rule="evenodd" clip-rule="evenodd" d="M46.558 58.7638C46.5518 58.7488 46.5518 58.7478 46.5579 58.7332C46.5617 58.7238 46.5708 58.7173 46.5792 58.7116C46.5953 58.7008 46.8558 58.611 47.1767 58.4097C47.415 58.2601 47.5025 58.183 47.5624 58.1397C47.7063 58.0367 47.7905 57.9671 47.7966 57.9629C47.802 57.9591 48.0086 57.8317 48.2809 57.6421C48.3534 57.5914 48.6176 57.4211 48.9853 57.1436C49.0493 57.0952 49.3426 56.8878 49.7447 56.5548C49.8062 56.5035 49.9137 56.4208 50.132 56.2355C50.1465 56.2232 50.281 56.1141 50.4662 55.9533C50.4946 55.9288 50.6122 55.8334 50.9741 55.5112C51.0085 55.4806 51.1178 55.3833 51.3987 55.1218C51.8302 54.7192 52.1063 54.4159 52.213 54.3044C52.601 53.8976 52.841 53.6008 52.9973 53.4137C53.0904 53.3022 53.0897 53.3017 53.3026 53.0369C53.4422 52.8634 53.4407 52.8582 53.4999 52.7886C53.5834 52.6899 53.5809 52.688 53.6525 52.6066C53.7478 52.498 53.7459 52.4966 53.8415 52.3842C53.8712 52.3498 54.0245 52.173 54.2267 51.8758C54.4726 51.5141 54.5774 51.2385 54.5821 51.2338C54.5893 51.2268 54.5942 51.2164 54.6035 51.2126C54.6039 51.2126 54.6347 51.2131 54.6349 51.2131C54.642 51.2206 54.6522 51.2258 54.6559 51.2352C54.6638 51.2545 54.6599 51.2554 54.6517 51.2752C54.598 51.4022 54.4838 51.6571 54.3353 52.0253C54.3181 52.0677 54.2355 52.2609 54.1056 52.5807C54.1025 52.5883 54.1033 52.5887 53.9847 52.8568C53.9767 52.8747 53.9736 52.8817 53.875 53.0769C53.8733 53.0807 53.7339 53.3252 53.6492 53.4593C53.4777 53.7306 53.3912 53.8543 53.3678 53.8877C53.0638 54.3223 52.8047 54.6473 52.6955 54.7832C52.6941 54.7851 52.5282 54.9863 52.3005 55.2403C51.9893 55.5869 51.7919 55.7807 51.7458 55.8258C51.4945 56.0723 51.3355 56.2134 51.2988 56.2463C51.0632 56.4556 50.949 56.5473 50.9177 56.5722C50.6265 56.8064 50.4966 56.8972 50.4208 56.9517C50.245 57.0778 50.1581 57.1375 49.9337 57.2805C49.691 57.4352 49.4153 57.6012 49.2929 57.669C48.9408 57.8632 48.669 57.9991 48.5544 58.056C48.4988 58.0838 48.2739 58.1849 48.2494 58.1957C48.2281 58.2051 48.007 58.3043 47.9821 58.3137C47.9786 58.3147 47.8818 58.3438 47.696 58.404C47.6696 58.4125 47.4588 58.4685 47.179 58.5635C46.8406 58.6777 46.6186 58.785 46.6103 58.785C46.5822 58.7854 46.5821 58.7859 46.5799 58.785C46.5649 58.7789 46.5643 58.7784 46.558 58.7638Z" fill="white"/>
<path fill-rule="evenodd" clip-rule="evenodd" d="M9.76528 58.6916C9.75903 58.7062 9.75843 58.7067 9.74344 58.7128C9.73409 58.7166 9.72295 58.7152 9.71301 58.7128C9.6966 58.7095 9.45299 58.5915 9.08381 58.4711C8.73246 58.3563 8.71051 58.3587 8.62728 58.3319C8.36307 58.2467 8.35628 58.2481 8.32775 58.2354C8.22882 58.1926 8.03568 58.108 7.7963 57.997C7.67389 57.9401 7.15667 57.6725 6.92897 57.5389C6.52921 57.3038 6.19416 57.0846 6.08381 57.0075C5.81656 56.8213 5.69302 56.7262 5.65987 56.7004C5.42066 56.516 5.31184 56.4234 5.28239 56.3984C5.00536 56.1623 4.83867 56.0076 4.63146 55.8063C4.62798 55.803 4.45462 55.6394 4.15151 55.3097C4.10897 55.2631 3.87127 55.0049 3.6338 54.7185C3.56224 54.632 3.42457 54.4533 3.40664 54.4302C3.25441 54.2322 3.01965 53.9162 2.86502 53.6824C2.69948 53.4318 2.6338 53.3222 2.61467 53.2902C2.54187 53.1679 2.48466 53.0687 2.46592 53.0363C2.45994 53.0259 2.45842 53.0264 2.36899 52.8467C2.34068 52.7898 2.34085 52.7898 2.27006 52.6294C2.18948 52.4465 2.19285 52.4451 2.08745 52.1916C2.02231 52.0345 2.02155 52.035 1.95739 51.8774C1.81097 51.5186 1.66759 51.1969 1.66753 51.1931C1.66748 51.1833 1.66357 51.1725 1.66737 51.163C1.66748 51.1626 1.68861 51.1409 1.68883 51.1409C1.69915 51.1409 1.71018 51.1367 1.71975 51.1405C1.73936 51.148 1.73675 51.1518 1.74534 51.171C1.83965 51.3831 1.95233 51.6098 2.22257 51.9828C2.371 52.1874 2.48265 52.3115 2.54344 52.3854C2.6119 52.4677 2.68074 52.5457 2.69291 52.5594C2.71415 52.5834 2.73148 52.6083 2.84585 52.7428C2.86551 52.7658 2.86253 52.7677 3.08126 53.0395C3.10223 53.0654 3.20002 53.1924 3.37567 53.4007C3.45201 53.4915 3.70171 53.8057 4.14026 54.2633C4.20127 54.3272 4.51813 54.6767 5.0115 55.13C5.04996 55.1653 5.1991 55.3083 5.4412 55.5204C5.48303 55.5571 5.60935 55.6728 5.83791 55.8647C5.84987 55.8745 5.98069 55.9898 6.17128 56.1468C6.23056 56.1957 6.33172 56.2846 6.55795 56.4652C6.60446 56.5029 6.88024 56.7385 7.31548 57.0545C7.37051 57.0945 7.60609 57.2788 8.01829 57.553C8.03905 57.5667 8.22447 57.6998 8.51454 57.8832C8.54144 57.9001 8.56898 57.9265 8.6859 58.013C8.74903 58.06 8.75925 58.0657 8.78587 58.0864C9.23784 58.4377 9.60348 58.5802 9.74387 58.6394C9.75876 58.6455 9.7593 58.646 9.76539 58.6611C9.77153 58.6756 9.77153 58.6766 9.76528 58.6916Z" fill="white"/>
<path fill-rule="evenodd" clip-rule="evenodd" d="M9.76646 55.4426C9.76205 55.4582 9.76155 55.4587 9.74743 55.4665C9.73856 55.4712 9.72734 55.4708 9.71719 55.47C9.70151 55.4691 9.46637 55.387 9.11462 55.3193C8.77687 55.2546 8.768 55.2624 8.66996 55.2442C8.44772 55.2021 8.4177 55.1999 8.39448 55.193C8.16058 55.1226 7.90156 55.0402 7.82093 55.0111C7.55661 54.9156 7.20218 54.778 7.02547 54.6994C6.69715 54.5531 6.35449 54.3859 6.18682 54.2948C5.85934 54.1172 5.72882 54.033 5.68686 54.0074C5.52393 53.9067 5.43655 53.8511 5.21788 53.6983C5.14238 53.6458 4.96606 53.5242 4.61436 53.2455C4.61224 53.2438 4.48731 53.1417 4.33475 53.0106C4.1254 52.8309 3.83982 52.5739 3.65982 52.3933C3.32982 52.0621 3.08877 51.7903 2.97623 51.6618C2.93477 51.6145 2.73339 51.3718 2.65126 51.2633C2.55277 51.1335 2.47605 51.0271 2.46573 51.0128C2.45635 51.0002 2.45306 50.9954 2.35798 50.8448C2.34766 50.8283 2.34688 50.8287 2.23104 50.6225C2.18484 50.5405 2.18713 50.5392 1.9867 50.1597C1.93073 50.0538 1.67222 49.5494 1.63433 49.4725C1.63115 49.4664 1.59566 49.3948 1.59555 49.3922C1.59505 49.3822 1.59075 49.3714 1.5941 49.3622C1.59421 49.3618 1.61452 49.3392 1.61469 49.3392C1.62484 49.3388 1.63556 49.3345 1.64516 49.3375C1.66469 49.3444 1.66279 49.3479 1.67199 49.3661C1.78041 49.5854 1.91477 49.7877 2.1676 50.0668C2.32199 50.2379 2.43889 50.3395 2.51037 50.4072C2.61465 50.5057 2.63725 50.5214 2.69255 50.5743C2.77647 50.6546 2.81815 50.6911 2.83283 50.7059C2.87077 50.7449 2.87021 50.7454 3.14323 51.0137C3.23569 51.1048 3.23625 51.104 3.45336 51.3102C3.81348 51.6523 4.07875 51.8658 4.23951 52.0017C4.65163 52.3486 4.95819 52.5683 5.14439 52.7063C5.18189 52.7341 5.31123 52.8296 5.61946 53.0454C5.7897 53.1643 5.79109 53.1621 5.96223 53.2798C6.02031 53.3197 6.02048 53.3193 6.3344 53.5298C6.50465 53.644 6.50604 53.6418 6.67717 53.7547C7.04338 53.9965 7.2784 54.1281 7.41762 54.2114C7.75888 54.4163 7.98598 54.5301 8.09289 54.5891C8.3513 54.7315 8.54587 54.8244 8.55011 54.8266C8.55323 54.8287 8.64435 54.8891 8.77369 54.9638C8.82821 54.995 8.95386 55.081 9.18643 55.1921C9.42112 55.3037 9.60174 55.354 9.73895 55.3931C9.75446 55.3979 9.75513 55.3983 9.76294 55.4122C9.77081 55.4265 9.77092 55.427 9.76646 55.4426Z" fill="white"/>
<path fill-rule="evenodd" clip-rule="evenodd" d="M22.236 31.4018C22.2156 31.3945 22.0789 31.3271 21.8651 31.7967C21.6535 32.261 21.5215 32.9033 21.459 33.2358C21.2466 34.3665 21.1462 35.9483 21.4548 37.4811C21.5236 37.8231 21.7246 38.8808 22.3597 39.8573C22.5562 40.1593 23.0444 40.9059 24.0592 41.4343C24.3637 41.5929 25.0563 41.9546 26.3034 42.0749C26.4096 42.0847 26.7879 42.1354 27.4042 42.1337C27.4842 42.1337 27.88 42.1453 28.4108 42.1049C28.4706 42.1002 28.8528 42.0847 29.3318 42.007C29.4306 41.9907 29.7983 41.9417 30.255 41.8102C30.4513 41.754 31.1848 41.5735 31.9372 41.0447C32.1154 40.9192 32.7151 40.5309 33.2765 39.6923C33.4146 39.4861 33.8191 38.9109 34.1406 37.8742C34.1939 37.7028 34.6965 36.286 34.5907 34.2295C34.5882 34.1814 34.5724 33.9073 34.5555 33.7144C34.478 32.8281 34.2952 32.0957 34.0758 31.666C33.8381 31.2004 33.6399 31.245 33.5851 31.2575C33.6161 31.2433 33.8582 31.1003 34.2921 31.6957C34.7749 32.359 35.1342 33.4321 35.2785 33.9945C35.5821 35.1776 35.759 36.6623 35.5684 38.1646C35.5676 38.1715 35.5366 38.4039 35.4765 38.6999C35.315 39.4951 35.0779 40.1064 34.8693 40.5459C34.868 40.5485 34.7805 40.7315 34.6483 40.9609C34.1811 41.7724 33.6525 42.3159 33.2676 42.657C33.2626 42.6613 33.126 42.7803 32.9352 42.9242C32.1809 43.4921 31.4436 43.8032 30.9763 43.9733C30.9728 43.9746 30.8301 44.0248 30.6389 44.082C30.2411 44.2014 29.9133 44.2688 29.7596 44.2993C29.6249 44.326 29.4121 44.3569 29.3818 44.3612C29.3172 44.3707 28.9623 44.4222 28.5698 44.4488C28.4503 44.457 28.2413 44.4622 28.2127 44.463C27.8368 44.4725 27.4602 44.4634 27.2707 44.4514C26.6761 44.4145 26.2377 44.3449 25.9905 44.3011C25.9895 44.3011 25.7824 44.2624 25.5217 44.1984C24.3107 43.9007 23.5303 43.4535 23.0838 43.1575C22.9798 43.0887 22.8416 42.9835 22.821 42.9676C22.0167 42.355 21.3896 41.5752 20.9556 40.6443C20.8254 40.3651 20.7233 40.0643 20.7058 40.0128C20.3835 39.0634 20.3093 38.1831 20.2885 37.6427C20.2801 37.4261 20.2863 37.1594 20.2873 37.1173C20.3441 34.6793 21.2183 32.7602 21.2202 32.7559C21.6234 31.8237 22.0334 31.2949 22.2286 31.3975C22.2323 31.3997 22.2322 31.3997 22.236 31.4018Z" fill="white"/>
<path fill-rule="evenodd" clip-rule="evenodd" d="M33.7998 31.2575C33.8148 31.2489 33.9568 31.135 34.2663 31.6377C34.2727 31.648 34.5804 32.1248 34.8687 33.0438C35.2317 34.2007 35.5226 35.8022 35.4311 37.4472C35.4119 37.7934 35.3623 38.1448 35.3538 38.205C35.212 39.2107 34.9483 39.9393 34.7387 40.4131C34.6477 40.6185 34.5321 40.8307 34.5127 40.8664C33.9074 41.9773 33.1583 42.6217 32.703 42.9632C32.6146 43.0294 32.4767 43.1201 32.4567 43.1334C31.4631 43.7881 30.4623 44.0652 29.8618 44.1992C29.7672 44.2203 29.5851 44.2512 29.561 44.2555C29.1242 44.3302 28.752 44.3633 28.5214 44.3801C28.5206 44.3801 28.1596 44.4033 27.7012 44.3985C27.4004 44.3951 27.2475 44.3844 27.2082 44.3814C26.6741 44.3431 26.2859 44.2761 26.1028 44.243C25.9837 44.2216 25.7998 44.1786 25.7735 44.1721C25.7544 44.1679 25.2386 44.0501 24.7932 43.8783C23.7713 43.4848 23.0812 42.9748 22.6436 42.5886C22.6403 42.5856 22.5092 42.4683 22.3485 42.3021C21.7091 41.6401 21.3241 40.9647 21.0932 40.4827C21.0206 40.3311 20.9405 40.1287 20.9282 40.0974C20.6254 39.3331 20.4867 38.626 20.4157 38.1311C20.4096 38.0881 20.3784 37.836 20.3592 37.5589C20.3215 37.0124 20.2616 35.6145 20.6988 33.8785C20.7286 33.7599 20.786 33.5687 20.7941 33.5421C21.2472 32.0368 21.8911 31.0934 22.2865 31.2489C22.2966 31.2527 22.2964 31.2527 22.3061 31.2575C22.2582 31.2467 22.0295 31.1836 21.7794 31.7717C21.7049 31.9465 21.4349 32.6309 21.3742 33.9829C21.3623 34.2484 21.2408 35.9805 21.837 37.805C21.903 38.0069 22.1346 38.8004 22.6714 39.6033C22.7937 39.7868 23.1922 40.4217 23.9483 40.9579C24.1182 41.0786 24.6491 41.4867 25.5892 41.7462C25.6749 41.7698 25.9928 41.8703 26.4845 41.9434C26.5881 41.9588 26.9053 42.0155 27.407 42.0405C27.4623 42.043 27.8474 42.0757 28.3939 42.0602C28.4726 42.0581 28.9115 42.0611 29.4492 41.9876C29.7075 41.9524 30.6328 41.8613 31.5607 41.3363C31.8757 41.1581 32.6375 40.7332 33.307 39.6781C33.4664 39.4268 33.945 38.6891 34.2564 37.3514C34.3017 37.1568 34.6839 35.694 34.5262 33.6834C34.5199 33.6027 34.4865 33.1774 34.4031 32.6794C34.3147 32.1523 34.1962 31.7421 34.0749 31.4993C33.9319 31.2132 33.8303 31.2467 33.7998 31.2575Z" fill="white"/>
</g>
<defs>
<clipPath id="clip0_2302_2894">
<rect width="195" height="73" fill="white"/>
</clipPath>
</defs>
</svg>
