<svg width="187" height="41" viewBox="0 0 187 41" fill="none" xmlns="http://www.w3.org/2000/svg">
<path d="M171.85 33.9086C169.65 32.6586 172.15 28.3086 175.45 27.6086L177.05 27.3086L174.65 26.1586C172.55 25.1586 172.15 25.1086 171.25 25.7586C170.7 26.1586 169.5 26.4586 168.6 26.4586C166.25 26.4586 165.2 24.7086 165.6 21.3086C165.9 18.9086 165.85 18.7586 165.15 19.7086C164.7 20.2586 163.7 21.9586 162.95 23.5086L161.5 26.3586L159.1 25.9086C157.8 25.6586 156.1 25.5586 155.35 25.7086C154.65 25.9086 153.6 25.7586 153 25.4086C152.15 24.8586 151.85 24.9086 151.05 25.6086C149.9 26.6586 146.55 26.7086 145.45 25.7086C144.65 25.0086 144.4 25.0086 142.75 26.0086C140.55 27.3086 138.85 27.0086 137.6 25.1586C136.9 24.0586 136.85 23.4586 137.25 21.4086C137.55 20.0586 137.65 18.9586 137.5 18.9586C137.35 18.9586 136.55 20.0086 135.7 21.3586C133.45 24.9086 130.75 27.3586 128.75 27.7586C126.2 28.2086 123.7 27.6086 121.95 26.1086L120.4 24.8086L119.4 25.9086C118.75 26.5586 117.8 26.9586 116.7 26.9586C114.3 26.9586 113.25 25.2586 113.6 22.1586C113.9 19.4586 113.45 19.7086 111.15 23.6086C109.8 25.9086 109.45 26.2086 108.15 26.0086C107.35 25.9586 106.55 25.7586 106.35 25.6086C105.85 25.3086 105.85 22.6586 106.4 20.3586C106.65 19.3086 106.7 18.4586 106.5 18.4586C106 18.4586 103.5 22.4586 102.85 24.3086C102.3 25.7586 102.05 25.9586 100.45 25.9586C97.6999 25.9586 97.3999 25.5586 97.8999 22.5586C98.3999 19.3086 97.7499 18.7086 96.6499 21.4086C95.1499 25.1086 92.4499 26.8086 88.4999 26.4586C85.3999 26.2086 83.5999 23.4086 84.1499 19.6586C84.5499 16.6586 83.3499 16.8586 82.8499 19.8586C82.0999 24.2586 79.5999 26.5586 75.3999 26.6086C69.7999 26.7086 67.1499 21.2586 70.7499 17.0086C72.1499 15.3586 75.6999 13.8086 77.4999 14.0586C78.5999 14.2086 78.5499 14.3086 76.7999 15.3086C74.6999 16.6086 73.9499 18.0586 73.9499 21.1586C73.9499 23.5086 74.7999 24.6586 76.1499 24.1586C78.1499 23.4086 78.5999 19.0086 76.8499 17.8086C75.7999 17.1086 75.7499 16.9586 76.4999 16.2086C77.3499 15.3086 77.8499 15.3086 82.0499 15.7586C84.3499 16.0086 85.2999 15.8586 87.0999 15.0086C90.1499 13.5086 93.0999 13.6086 94.3499 15.2086C94.8999 15.9086 95.5999 16.4586 95.9499 16.4586C96.2499 16.4586 96.9499 16.9586 97.4499 17.5586L98.3499 18.6586L98.6999 16.9586C99.3999 13.3586 99.2999 13.4586 102.25 13.4586C105.2 13.4586 105.4 13.7086 104.45 16.2586C103.65 18.3586 104.1 18.1586 105.9 15.6586C107.5 13.3586 107.55 13.3586 109.75 13.6086C111 13.7086 112.15 13.9586 112.3 14.1586C112.5 14.3086 112.35 15.2586 112.1 16.2086L111.55 18.0086L113.3 16.4086C114.9 15.0586 115.4 14.8586 117.3 15.1086C118.5 15.2086 119.6 15.4586 119.75 15.6086C119.9 15.7086 119.4 17.5086 118.7 19.6086C117.35 23.6586 117.15 24.9586 117.95 24.9586C118.7 24.9586 119.8 22.9086 120.2 20.7086C121 16.2086 123.25 13.9086 127.15 13.5586C129.6 13.3586 130 13.4586 131.2 14.7086C132.35 15.8086 132.5 16.3086 132.3 17.8086C131.9 20.1586 130.2 21.9086 127.6 22.6086C125.25 23.2086 124.95 23.9586 126.45 25.4586C128.3 27.3086 129.4 26.7086 133.5 21.6086C135.2 19.4586 136.8 17.6586 137.05 17.5586C138.15 17.1086 137.25 16.4586 135.5 16.4586C133.2 16.4586 132.4 15.6086 133.75 14.6086C134.45 14.0586 135.6 13.9586 138.25 14.1586C144.15 14.6086 144.05 14.5086 142.35 20.2586C141.8 22.3086 141.45 24.1586 141.65 24.3586C142.3 24.9586 143.8 22.6586 144.15 20.5086C144.3 19.4086 145.05 17.8086 145.8 16.9086C148.05 14.3086 152.1 13.1086 153.45 14.7086C153.8 15.1086 154.65 15.4586 155.35 15.4586C156.55 15.4586 156.6 15.5086 156.3 18.3586C156.1 19.9086 155.8 21.7086 155.65 22.3586C155.4 23.1586 155.55 23.4586 156.15 23.4586C157.2 23.4586 157.75 22.0586 158.45 17.4586C158.75 15.4086 159.25 13.6086 159.55 13.4086C160.15 13.0086 163.5 13.4086 164.05 13.9086C164.25 14.1086 164.1 15.3586 163.7 16.7086C163.25 18.0586 163.1 18.9586 163.35 18.7086C163.55 18.4086 164.6 17.1586 165.65 15.8586C167.6 13.3586 168.65 13.0086 171.15 13.9586L172.4 14.4086L171.4 17.3086C170.15 21.0086 169.5 23.8086 169.85 24.2086C170.35 24.6586 171.95 22.8086 171.95 21.7586C172 19.9086 173.8 16.6586 175.4 15.5086C177.55 13.9586 180.1 13.6086 181.65 14.6586C182.35 15.1086 183.25 15.4586 183.7 15.4586C185 15.4586 185 16.5086 183.8 21.3086L182.65 25.9086L184.8 26.2586C187.8 26.7086 187.5 27.4586 184.3 27.4586C181.8 27.4586 181.65 27.5586 180.7 29.2586C179.2 32.0086 176.25 34.4586 174.3 34.4586C173.45 34.4586 172.3 34.2086 171.85 33.9086V33.9086ZM176.2 30.9586C176.65 30.1586 176.8 29.4586 176.65 29.4586C176 29.4586 174.45 31.1086 174.45 31.8086C174.45 32.9586 175.4 32.5086 176.2 30.9586V30.9586ZM90.7999 23.8586C91.7499 22.6586 91.9999 19.9586 91.1999 19.6586C90.0499 19.2086 90.2999 17.9586 91.7499 17.4586C93.1499 16.9086 92.9499 15.9586 91.3999 15.9586C90.1999 15.9586 88.9999 18.5586 88.8499 21.3586C88.7499 24.1586 89.6499 25.3086 90.7999 23.8586V23.8586ZM151.2 20.8086C152.05 17.9086 152.15 15.9586 151.45 15.9586C150.2 15.9586 147.95 21.9586 148.6 23.7086C149.15 25.0586 150.3 23.7586 151.2 20.8086V20.8086ZM178.5 23.3586C179.45 21.6086 180.45 16.7586 180 16.3086C179.3 15.6086 178 17.4086 177.15 20.2586C176.35 23.0086 176.45 24.4586 177.4 24.4586C177.7 24.4586 178.2 23.9586 178.5 23.3586V23.3586ZM126.95 20.9586C128.1 20.3586 129.15 17.3586 128.7 15.9586C128.3 14.7586 127.7 15.0586 126.75 16.8586C125.95 18.4586 125.25 21.4586 125.7 21.4586C125.85 21.4586 126.45 21.2586 126.95 20.9586Z" fill="white"/>
<path d="M49.4 29.0587C48.7 28.7587 48.8 27.6087 50.6 18.3587L52.65 7.95868H54.95C56.25 7.95868 57.4 8.05868 57.55 8.20868C57.7 8.35868 57.4 10.3587 56.9 12.6087C55.75 17.7587 55.7 17.4587 57.2 17.4587C59.25 17.4587 62.4 15.9087 63.5 14.4087C64.95 12.3087 64.65 9.15868 62.85 7.80868C60.95 6.40868 56.75 6.10868 53.5 7.20868C49.35 8.55868 47 12.5587 49.45 14.0587C50.9 14.9587 50.7 15.4587 48.95 15.4587C47.1 15.4587 44.7 14.3087 44.25 13.2087C43.2 10.4087 45.4 7.75868 50.05 6.15868C53.7 4.90868 61.7 4.85868 65.3 6.10868C71.75 8.35868 71.95 13.8087 65.75 17.2087L62.9 18.8087L64.45 19.4587C66.25 20.2087 67.95 22.2087 67.95 23.5587C67.95 25.1087 65.1 27.4087 62.25 28.1587C59.4 28.9587 50.65 29.5587 49.4 29.0587V29.0587ZM58.95 26.7087C60.65 25.8587 61.45 24.5587 61.45 22.8087C61.45 21.2087 60.15 20.1087 57.55 19.5587C55.6 19.1087 55.4 19.1587 55.2 20.1587C55.05 20.7087 54.65 22.6087 54.25 24.3587L53.55 27.4587H55.5C56.6 27.4587 58.15 27.1087 58.95 26.7087V26.7087Z" fill="white"/>
<path d="M4.4499 40.5086C1.8999 39.8086 1.3999 36.3086 2.6999 28.2086C3.5499 22.9586 5.2499 16.4586 5.9499 15.7586C6.2999 15.4086 6.4499 15.4586 6.4499 15.8086C6.4499 16.1586 6.2999 16.5086 6.0999 16.6086C5.8499 16.7586 5.6999 19.8586 5.6999 23.5586C5.6999 31.4586 6.4999 33.8586 9.2999 34.6586C11.3499 35.2086 15.8999 34.1586 20.1999 32.1586C25.0499 29.9086 25.3499 29.8086 23.9499 30.9586C18.1499 35.7086 10.3999 40.1586 7.4499 40.5586C6.4999 40.7086 5.1499 40.6586 4.4499 40.5086Z" fill="#8157EC"/>
<path d="M13.95 27.8586C17.45 26.8586 23.45 24.3586 25.6 22.9586C26.85 22.1586 28.05 20.9086 28.45 20.0086C29.4 17.6086 28 15.0086 22.9 9.80862L18.6 5.45862L21.4 7.00862C28.65 11.1086 34.85 16.2586 35.95 19.2086C37.35 22.8586 32.75 25.4086 20.65 27.7086C18.5 28.1086 15.7 28.4586 14.45 28.4086L12.2 28.3586L13.95 27.8586Z" fill="#156CBA"/>
<path d="M0.2 21.8586C-1.49012e-08 21.4086 -0.05 17.3586 0.05 12.8586C0.3 1.20863 1.5 -1.09137 6.45 0.40863C7.5 0.70863 9.6 1.90863 11.05 3.05863C14.4 5.70863 20.35 11.6586 21.95 13.9586L23.15 15.7086L21.45 14.3586C18.15 11.7586 13.2 8.60863 11.05 7.80863C5.3 5.55863 3.2 7.70863 1.45 17.7086C0.9 20.8086 0.45 22.4086 0.2 21.8586Z" fill="#F7AC19"/>
<path d="M11.45 19.5587C11.45 17.9587 11.75 16.2587 12.1 15.8087C12.65 15.0087 12.9 15.0587 15.45 16.5587C16.95 17.4587 18.25 18.5587 18.35 19.0087C18.5 19.9087 14.2 22.4587 12.5 22.4587C11.55 22.4587 11.45 22.1587 11.45 19.5587V19.5587Z" fill="white"/>
</svg>
