<svg width="178" height="63" viewBox="0 0 178 63" fill="none" xmlns="http://www.w3.org/2000/svg">
<g clip-path="url(#clip0_2247_9)">
<path d="M178 0V57.6C178 60.1 176 62.2 173.4 62.2H4.6C2 62.2 0 60.1 0 57.6V14.8C0 12.3 2 10.3 4.6 10.3H167.6L177.1 0H178Z" fill="#832CFF"/>
<path d="M34.3 30.4C34.3 35.7 30.3 39.6 24.9 39.6H21.1V46.6H14.1V21.3H24.9C30.3 21.3 34.3 25.1 34.3 30.4ZM27.1 30.4C27.1 28.6 25.9 27.4 24.1 27.4H21.1V33.5H24.1C25.9 33.5 27.1 32.2 27.1 30.4Z" fill="white"/>
<path d="M37.1001 20H43.9001V46.6H37.1001V20Z" fill="white"/>
<path d="M68.9 27V46.6H63.7L63.1 45.2C61.5 46.5 59.5 47.2 57.2 47.2C51.3 47.2 47 42.9 47 36.8C47 30.7 51.3 26.4 57.2 26.4C59.5 26.4 61.6 27.2 63.2 28.5L63.9 27H68.9ZM62.5 36.8C62.5 34.3 60.7 32.4 58.2 32.4C55.6 32.4 53.8 34.3 53.8 36.8C53.8 39.4 55.7 41.3 58.2 41.3C60.7 41.3 62.5 39.4 62.5 36.8Z" fill="white"/>
<path d="M86.3 40.7V46.6H81.7C77.4 46.6 74.8 44 74.8 39.6V32.2H71.2V30.7L80 21.3H81.3V27.1H86.2V32.2H81.5V38.5C81.5 39.9 82.3 40.7 83.8 40.7H86.3Z" fill="white"/>
<path d="M89.5 27.1H96.2V46.6H89.5V27.1ZM89.5 18.9H96.2V24.6H89.5V18.9Z" fill="white"/>
<path d="M122.1 36.8C122.1 42.9 117.9 47.3 111.9 47.3C110.1 47.3 108.5 46.8 107.1 46V53.7H100.4V27.1H105L105.9 28.6C107.5 27.2 109.5 26.4 111.9 26.4C117.9 26.4 122.1 30.7 122.1 36.8ZM115.4 36.8C115.4 34.3 113.5 32.4 111 32.4C108.5 32.4 106.6 34.3 106.6 36.8C106.6 39.4 108.5 41.3 111 41.3C113.5 41.3 115.4 39.4 115.4 36.8Z" fill="white"/>
<path d="M125 38.2V27.1H131.7V37.9C131.7 40 132.8 41.2 134.6 41.2C136.4 41.2 137.5 40 137.5 37.9V27.1H144.3V38.2C144.3 43.7 140.4 47.3 134.6 47.3C128.8 47.2 125 43.7 125 38.2Z" fill="white"/>
<path d="M155.8 47.2C150.4 47.2 147.2 44.4 147.1 40.2H153.6C153.6 41.6 154.6 42.3 155.9 42.3C156.9 42.3 157.8 41.8 157.8 40.8C157.8 39.6 156.3 39.3 154.4 39C151.4 38.5 147.4 37.6 147.4 32.9C147.4 28.9 150.7 26.4 155.8 26.4C160.7 26.4 164 29.1 164 33H157.7C157.7 31.8 156.9 31.2 155.6 31.2C154.6 31.2 153.8 31.7 153.8 32.6C153.8 33.7 155.3 34 157.2 34.3C160.3 34.9 164.4 35.5 164.4 40.5C164.4 44.6 160.9 47.2 155.8 47.2Z" fill="white"/>
</g>
<defs>
<clipPath id="clip0_2247_9">
<rect width="178" height="63" fill="white"/>
</clipPath>
</defs>
</svg>
