<svg width="197" height="51" viewBox="0 0 197 51" fill="none" xmlns="http://www.w3.org/2000/svg">
<path d="M33.1583 24.8361L32.2868 24.0518L31.8075 21.9168L31.2847 19.7818L32.2433 18.7796L33.1583 17.7774L35.5547 17.4724L37.9076 17.211L38.5176 17.9953L39.0841 18.8232L39.3891 20.6096L39.6505 22.4397L39.3891 23.529L39.0841 24.6183L37.2105 25.0976C34.6397 25.7511 34.204 25.7076 33.1583 24.8361V24.8361Z" fill="black"/>
<path d="M25.7073 48.8007L23.3109 47.145L22.7444 45.7507L22.178 44.3128L24.5744 45.4893L27.0145 46.7093L30.2388 45.5328L33.5067 44.3564L33.681 45.315C33.8117 45.8378 33.986 47.1014 34.0296 48.1472L34.2039 49.9772H33.2889C32.8096 49.9772 31.4588 50.1079 30.2388 50.2386L28.0602 50.5L25.7073 48.8007V48.8007Z" fill="white"/>
<path d="M36.1648 43.3979L30.7619 41.2193L28.9754 41.8293L27.189 42.4393L25.8818 42.0035C25.1847 41.7421 24.1389 41.2193 23.6161 40.8271L22.6575 40.0864L25.2282 38.9535L27.8426 37.8642L32.7662 39.9557C35.4677 41.0885 38.1256 42.1778 38.6484 42.3086L39.607 42.6136L40.522 40.6528C41.0013 39.5635 41.4806 38.6485 41.5678 38.6485C41.6985 38.6485 42.7442 39.1714 43.9207 39.8249L46.0121 41.0014L45.4021 42.57L44.7485 44.095L43.8335 44.8357C43.3107 45.2715 42.5699 45.5765 42.2214 45.5765C41.8728 45.5765 39.1277 44.6179 36.1648 43.3979V43.3979Z" fill="white"/>
<path d="M112.939 43.8771V41.9164L113.113 42.9185C113.2 43.4414 113.2 44.3129 113.113 44.8793L112.939 45.8379V43.8771Z" fill="white"/>
<path d="M79.5627 39.5635L79.2141 37.2541L76.9048 37.4284L74.5519 37.6027L74.2469 30.3262L73.9419 23.0061L74.2033 22.6139L74.4648 22.1782L76.9484 21.9168C78.3427 21.7425 79.8241 21.5246 80.2163 21.3939L80.9134 21.176L80.6956 22.1782C80.5213 22.7446 80.2163 23.3111 79.9548 23.4853L79.4756 23.8339H77.6455H75.7719V25.3589V26.884H77.7327H79.6934V27.2761V27.7118L77.8634 27.8426L75.9898 27.9733L75.8591 29.629L75.7283 31.2412H76.8177H77.9505V31.6333V32.0691L76.9919 32.1998L75.9898 32.3305L75.8591 34.2041L75.7283 36.0341H78.3427H81.0006V36.6877V37.3413H80.6084H80.1727L80.042 39.6506L79.9113 41.9164L79.5627 39.5635V39.5635Z" fill="white"/>
<path d="M157.296 39.2149L157.252 38.2127H156.075C155.378 38.2127 154.115 38.082 153.2 37.9077L151.544 37.6463L150.673 35.9034L149.758 34.2041L150.28 33.6812L150.76 33.2019L152.154 34.7705L153.548 36.3827L155.335 36.1648L157.165 35.947L157.818 34.2041L158.516 32.4612L157.688 30.849L156.86 29.2369L154.333 29.4111L151.805 29.5854L150.716 25.9254L149.583 22.3089L152.895 20.7403L156.206 19.1717L157.906 20.6096L159.605 22.0475L158.777 22.9625L157.949 23.8339L156.642 22.6139L155.291 21.3503L153.853 21.6553C153.069 21.8296 152.285 22.091 152.154 22.2217L151.936 22.4832L152.241 25.3589L152.546 28.1911L154.333 27.8861C155.335 27.7118 156.642 27.5811 157.208 27.5811L158.298 27.5375L159.213 29.934L160.128 32.3305L159.082 34.7269C158.472 36.0341 157.862 37.8206 157.688 38.6484L157.339 40.1735L157.296 39.2149V39.2149Z" fill="white"/>
<path d="M165.443 37.3413L162.48 36.7313V29.8904V23.0496L164.311 21.6989L166.141 20.3481H168.537H170.977L172.023 23.7903L173.025 27.189L172.72 31.764L172.415 36.3391L170.367 37.167L168.363 37.9949L165.443 37.3413ZM169.06 35.2934C169.757 34.8577 170.323 34.3348 170.323 34.1169C170.323 33.5941 167.578 29.5419 167.23 29.4983C166.925 29.4983 164.441 34.6834 164.703 34.8577C164.833 34.9448 167.012 35.8163 167.622 35.9905C167.709 36.0341 168.363 35.6855 169.06 35.2934V35.2934ZM165.705 31.3283L166.925 28.7576L165.923 27.189C165.356 26.3175 164.703 25.5332 164.441 25.4461L164.005 25.2718V29.5419V33.8555H164.267C164.398 33.8555 165.051 32.7226 165.705 31.3283V31.3283ZM171.369 31.8076C171.5 30.8926 171.587 29.4547 171.587 28.6268L171.543 27.1018L170.977 25.5768L170.411 24.0518L170.018 24.1389L169.583 24.2261L169.801 23.0932L170.018 21.9603L168.319 22.2653C166.141 22.6575 164.223 23.3982 164.223 23.8775C164.223 24.4439 166.968 28.1911 167.361 28.1911C167.535 28.1911 167.709 28.409 167.709 28.6268C167.709 29.1933 170.454 33.3762 170.803 33.3762C170.977 33.4198 171.195 32.6791 171.369 31.8076V31.8076Z" fill="white"/>
<path d="M189.147 37.9078L188.144 37.7335L187.012 35.9906L185.879 34.2477L186.532 33.5941L187.186 32.897L188.144 34.422L189.103 35.947L190.889 36.252L192.676 36.557L193.46 35.5549C193.896 34.9884 194.375 34.1606 194.506 33.7684L194.767 33.0277L194.114 31.5462L193.504 30.0648L190.977 29.7598C189.539 29.5855 188.101 29.3676 187.752 29.2805L187.099 29.0626L187.229 25.6204L187.36 22.1782L190.367 21.4375L193.373 20.6968L194.637 22.1347L195.944 23.5725L195.465 24.3568L194.985 25.0976L193.809 24.0083L192.676 22.919L190.584 23.4418L188.537 23.9647L188.798 25.5333C188.929 26.4047 189.059 27.3633 189.059 27.6683V28.1912H191.587H194.114L195.29 30.5877C195.944 31.9384 196.467 33.1584 196.467 33.3763C196.467 33.5941 195.682 34.7706 194.724 35.9906L192.981 38.2128L191.543 38.1692C190.802 38.1256 189.713 37.9949 189.147 37.9078V37.9078Z" fill="white"/>
<path d="M62.4824 29.7162V21.6118L65.7068 21.7425L68.9747 21.8732L69.7154 24.4439L70.4997 27.0147L70.0204 29.324L69.5411 31.6333L67.1011 31.9383L64.661 32.2434L64.356 32.7226L64.0074 33.2019V35.5113V37.777H63.2667H62.4824V29.7162V29.7162ZM67.6675 30.5876L68.7132 30.3698L68.9747 28.8012L69.2797 27.2761L68.5389 25.3154L67.7982 23.3982H67.1011C66.7089 23.3982 65.9682 23.5289 65.4453 23.6596L64.4432 23.9211V27.5811V31.2412L65.5325 31.0233C66.1425 30.8926 67.1011 30.7183 67.6675 30.5876V30.5876Z" fill="white"/>
<path d="M87.972 30.8491V23.8775L86.0113 23.5725L84.0505 23.3111V22.7446V22.2218L87.0134 21.9603C88.6256 21.7861 90.6735 21.6553 91.5885 21.6553H93.2443L93.1135 22.6575L92.9828 23.6161L91.2835 23.7468L89.5842 23.8775L89.8892 30.544L90.1942 37.2106L89.4971 37.5156C89.1049 37.6463 88.582 37.777 88.3642 37.777H87.972V30.8491V30.8491Z" fill="white"/>
<path d="M95.5972 30.1083L95.2922 22.4832L95.5537 22.2218C95.6844 22.091 97.253 21.8732 99.083 21.7425L102.351 21.5246V22.4832V23.3982H99.998H97.6451L97.3837 24.4004C97.253 24.9232 97.1223 26.4047 97.1223 27.6683V29.934H98.6909H100.259L100.085 30.5005L99.8673 31.0233L98.5166 31.154L97.1223 31.2848V33.9427V36.557L97.7323 36.3391C98.0373 36.2084 99.2137 35.947 100.347 35.8163L102.351 35.5113V36.3827V37.2541L101 37.5156C100.259 37.6463 98.778 37.777 97.7758 37.777H95.9458L95.5972 30.1083V30.1083Z" fill="white"/>
<path d="M105.314 29.4983L105.445 21.176L108.8 21.3067L112.111 21.4375L112.983 24.2261L113.81 27.0147L113.418 29.019L113.026 31.0233L112.067 31.154L111.065 31.2848V31.8076C111.109 32.1126 111.85 33.2019 112.808 34.2477L114.508 36.2084L113.767 36.7313L113.026 37.2977L111.588 34.6834L110.107 32.1126H108.625H107.144V34.9448V37.777H106.185H105.183L105.314 29.4983V29.4983ZM112.59 28.5397L112.895 27.2761L111.85 24.9232L110.847 22.5268H109.017H107.144V26.4047V30.3262L108.8 30.4569L110.412 30.5876L111.37 30.1955L112.329 29.8033L112.59 28.5397V28.5397Z" fill="white"/>
<path d="M127.753 35.4677C126.272 34.2041 125.052 33.1148 125.052 32.9405C125.008 32.8098 126.403 31.6769 128.058 30.4133C129.758 29.1062 131.109 27.9733 131.109 27.799C131.109 27.6683 130.586 27.0583 130.019 26.4918L128.93 25.4897V24.4875C128.93 23.9646 129.061 22.9189 129.191 22.1782L129.453 20.8275L130.847 21.0453C131.588 21.176 132.634 21.3503 133.2 21.481L134.159 21.6553V24.1825V26.7097L133.636 27.2326L133.113 27.7554L134.507 29.1933L135.945 30.5876L136.729 29.629L137.514 28.6704L137.993 29.1497L138.472 29.629L137.732 30.7183L137.034 31.8076L138.037 32.5919L139.039 33.4198H139.867H140.694V34.2477V35.032L139.518 34.8141L138.298 34.5962L137.383 33.7684L136.424 32.9405L134.986 35.337L133.505 37.7334H131.98H130.455L127.753 35.4677V35.4677ZM133.679 34.3784C134.42 33.2019 135.03 32.0691 135.03 31.8076C135.03 31.2848 132.721 29.0626 132.154 29.0626C131.936 29.0626 130.76 30.0647 129.584 31.2848L127.405 33.4634L128.058 33.8555C128.407 34.0734 129.409 34.727 130.237 35.337C131.065 35.947 131.893 36.4263 132.024 36.4698C132.198 36.4698 132.939 35.5113 133.679 34.3784V34.3784ZM133.026 26.1868C133.156 25.7947 133.287 24.9668 133.287 24.3132V23.0932L132.198 22.6139C131.588 22.3089 130.891 22.091 130.673 22.091H130.237V23.4854V24.8797L131.196 25.8818C132.285 27.0583 132.677 27.1454 133.026 26.1868V26.1868Z" fill="white"/>
<path d="M22.0039 35.5112C21.8732 34.4655 21.6553 32.5048 21.5246 31.154L21.2632 28.6704L22.7011 28.0168C23.4854 27.6683 24.7925 26.8404 25.5768 26.1432L26.9711 24.9232L27.2761 22.6575L27.5376 20.3481H27.8861H28.2783V21.4374C28.2783 22.0039 28.5833 23.311 28.9754 24.2696L29.7162 26.0561L31.6769 27.0583L33.6377 28.0604L33.5505 31.5026C33.5069 33.3762 33.3327 35.3805 33.2455 35.8598L32.9841 36.7748L31.3283 36.3827L29.6726 35.947L29.4547 34.5962L29.2369 33.2019L30.7183 30.9362C31.5462 29.6726 32.1998 28.5397 32.1998 28.409C32.1998 28.2783 30.2826 28.1911 27.9297 28.1911H23.6161L23.3546 28.4526L23.0932 28.7576L24.5311 30.544L26.0125 32.3305L26.1868 34.0298L26.3611 35.6855L24.4439 36.5134C23.3982 36.9927 22.4832 37.3413 22.3961 37.3413C22.3089 37.3413 22.1346 36.5134 22.0039 35.5112V35.5112Z" fill="white"/>
<path d="M175.116 29.5419V21.7425L175.813 21.481C176.206 21.3503 176.728 21.2196 177.033 21.2196H177.6L179.735 25.7947L181.87 30.3697H182.218H182.567L182.349 28.3218C182.218 27.1454 182.001 24.9232 181.87 23.311L181.608 20.3481H182.741H183.831V24.1825C183.831 26.3175 183.961 30.1519 184.136 32.7226L184.397 37.4284L183.395 37.2541L182.436 37.1234L179.953 30.9362L177.513 24.7054H177.208H176.859V31.0233V37.3413H175.988H175.116V29.5419Z" fill="white"/>
<path d="M13.6815 31.3719C14.0301 30.7184 14.4658 29.6291 14.7273 28.9755L15.163 27.8426L16.6009 28.2783L18.0823 28.714L17.908 30.1955C17.6902 31.9384 17.7338 31.9384 15.1194 32.2869L13.0715 32.592L13.6815 31.3719V31.3719Z" fill="white"/>
<path d="M38.2127 32.2434L36.9927 32.0691V30.4133V28.8012L38.4306 28.104L39.8249 27.4504L41.2192 29.9776L42.6135 32.5484L41.0013 32.5048C40.1299 32.4612 38.8663 32.3305 38.2127 32.2434V32.2434Z" fill="white"/>
<path d="M7.58155 30.3262L4.5315 29.4547L2.26575 25.5332L0 21.6118L1.30716 15.6424C2.00432 12.3745 2.57076 9.54227 2.57076 9.36799C2.57076 9.1937 4.88008 7.66867 7.75584 5.96936L12.8973 2.91931L17.6467 3.52932L22.3961 4.1829L24.6183 6.5358L26.884 8.93226L25.0104 9.45513L23.1368 9.978L21.2632 11.8952L19.3896 13.8123H17.6031L15.8603 13.8559L11.9388 15.4681L8.01727 17.0803L7.75584 21.6118L7.45083 26.1433L9.36801 28.4961C10.4137 29.8033 11.2852 30.9362 11.2852 31.0233C11.2852 31.3283 10.9802 31.2848 7.58155 30.3262V30.3262Z" fill="white"/>
<path d="M46.4041 27.7119C47.232 25.7947 47.8856 23.9211 47.8856 23.5289C47.8856 23.1804 47.3627 21.2632 46.7527 19.3024L45.6634 15.6859L42.9619 14.7709L40.2605 13.8123L39.2583 14.0738L38.2561 14.3788L36.2083 12.6359L34.1604 10.893L31.4153 9.89085L28.6267 8.88869L30.8053 6.71009L32.9839 4.53148L37.7769 3.74718L42.5698 2.91931L47.3627 5.79507L52.1992 8.67083L52.6349 10.6751C52.8528 11.808 53.3757 14.3788 53.8114 16.4267L54.5521 20.1303L53.245 23.5289L51.9378 26.9711L49.2799 28.6269C47.842 29.5419 46.2734 30.5005 45.7941 30.7619L44.9227 31.2412L46.4041 27.7119V27.7119Z" fill="white"/>
<path d="M33.1583 24.7925L31.8511 23.6161L31.5897 21.6553L31.3718 19.6946L32.679 18.3438L33.9862 16.9931L35.9905 17.211L37.9948 17.4288L39.1712 18.736L40.3477 20.0432L39.6941 22.2653C39.3455 23.4854 39.0405 24.5311 38.9969 24.5311C38.9969 24.5747 37.9512 24.9232 36.7312 25.2718L34.4654 25.9254L33.1583 24.7925V24.7925ZM36.3826 23.6596L37.2541 23.8775L37.8641 23.1803L38.4305 22.4832L37.6462 21.9168L36.8619 21.3503L37.3412 20.4789L37.8205 19.6074L37.2976 19.0846L36.7748 18.5617L36.0776 19.5203L35.3805 20.4353L34.2912 19.7381L33.1583 18.9974L32.8969 19.7817L32.5918 20.566L33.4633 21.1325L34.3347 21.7425L33.8119 22.5703L33.289 23.4418L33.9426 23.8339L34.5526 24.2261L35.0319 23.8339L35.5112 23.4418L36.3826 23.6596V23.6596Z" fill="white"/>
<path d="M16.9497 24.3132L15.4683 23.0496L15.599 21.1325L15.7297 19.2589L16.7319 18.1696L17.7776 17.0803L19.9998 17.211L22.2219 17.3853L23.2241 18.9539L24.2263 20.566L23.5727 22.4396L22.9627 24.3132L21.7862 24.749C21.1762 25.0104 20.1741 25.2718 19.564 25.4025L18.4747 25.5768L16.9497 24.3132V24.3132Z" fill="white"/>
<path d="M26.056 16.9931C25.7074 16.601 24.8796 15.9474 24.226 15.5552L22.9624 14.7709L24.4874 13.6381L26.0125 12.4616L28.8011 12.7666L31.5897 13.028L32.3304 14.2916L33.0276 15.5552H32.4611C32.1561 15.5552 31.154 16.0345 30.2825 16.6445L28.6704 17.7338H27.6682H26.6225L26.056 16.9931V16.9931Z" fill="white"/>
<path d="M44.0513 1.22002L42.657 0.392149L43.7027 0.217861L44.7484 0L45.2277 1.04573C45.4892 1.5686 45.6635 2.04789 45.5763 2.00432C45.5327 2.00432 44.8356 1.65574 44.0513 1.22002V1.22002Z" fill="white"/>
</svg>
