<svg width="195" height="45" viewBox="0 0 195 45" fill="none" xmlns="http://www.w3.org/2000/svg">
<path d="M16.1528 43.9414C14.1281 43.4297 13.0824 42.5842 10.4348 39.3582C9.52263 38.2457 8.0542 36.5103 7.1865 35.4646C1.75779 29.057 -0.0443647 24.6517 0.890085 20.0907C1.26832 18.2885 2.55875 15.8412 3.84918 14.5062C4.96162 13.3715 6.89726 11.9031 7.34224 11.9031C7.80947 11.9031 7.49798 11.1689 6.71928 10.5014C5.87382 9.74498 4.20516 7.36436 4.20516 6.87488C4.20516 6.49665 6.40779 5.6957 8.1432 5.40646C9.38913 5.22847 11.0578 5.33972 13.1047 5.78469C13.5942 5.89594 13.7054 5.78469 14.0836 4.96149C14.5954 3.8268 16.0638 1.8689 17.2207 0.778709L18.0439 0L19.5568 1.62416C20.4245 2.55861 21.359 3.84904 21.715 4.58326C22.2712 5.78469 22.4047 5.89594 22.8942 5.78469C25.2525 5.29522 26.0757 5.20622 27.2994 5.31747C28.9236 5.49546 31.7937 6.49665 31.7937 6.89713C31.7937 7.38661 30.1028 9.76723 29.1683 10.6127C28.1449 11.5471 28.1226 11.4804 29.9025 12.6373C34.1076 15.3517 36.199 20.4912 35.0198 25.1412C34.5748 26.8543 33.4179 29.2794 32.2164 31.0816C30.6367 33.4177 23.9399 41.4718 22.7829 42.4285C21.0698 43.8524 18.3332 44.4754 16.1528 43.9414ZM21.804 33.1952C23.6729 30.9703 25.5195 28.7677 25.92 28.3227C27.1437 26.9433 27.5887 25.8309 27.5887 24.229C27.5887 21.9596 26.4317 20.0684 24.3848 18.9782C23.1611 18.3108 20.0908 18.244 18.9116 18.867C18.4889 19.0672 18.1107 19.2452 18.0662 19.2452C18.0439 19.2452 17.9994 17.0426 17.9994 14.3282V9.41125L16.5755 11.1689C15.7968 12.1256 13.8389 14.4617 12.237 16.3529C8.83291 20.3577 8.43243 21.0696 8.43243 22.983C8.43243 25.2302 9.41138 26.9656 11.2803 28.0558C12.6152 28.8567 15.3963 29.0792 16.7535 28.5007C17.2207 28.3005 17.6879 28.1448 17.7992 28.1448C17.9104 28.1448 17.9994 30.2584 17.9994 32.8393C17.9994 35.6871 18.0884 37.467 18.1997 37.378C18.3332 37.3113 19.9351 35.4424 21.804 33.1952Z" fill="white"/>
<path d="M87.6382 34.3521C83.7447 33.9294 80.5409 31.66 78.8722 28.1447C78.227 26.7652 78.1825 26.565 78.1825 24.0064C78.1825 21.3588 78.1825 21.3143 79.0057 19.6456C81.4308 14.7731 86.815 12.4815 92.444 13.9054C94.6466 14.4839 96.2485 15.4183 97.8282 17.1315C101.455 21.0473 101.388 27.0322 97.6502 31.1038C96.1818 32.7057 93.5564 34.0628 91.5318 34.2631C90.7976 34.3298 89.9521 34.4188 89.6406 34.4633C89.3292 34.4856 88.4392 34.4411 87.6382 34.3521ZM91.6875 29.1681C93.6899 28.2114 94.8246 26.3425 94.8246 24.0286C94.8246 22.1152 94.4019 21.0918 93.1115 19.8236C90.4638 17.265 85.7916 18.1104 84.1452 21.4478C83.6112 22.538 83.6112 25.0298 84.1452 26.4315C84.6124 27.6107 85.9918 28.9011 87.349 29.3906C88.4392 29.7911 90.6196 29.6798 91.6875 29.1681Z" fill="white"/>
<path d="M45.5657 33.8406C44.609 33.5514 43.5188 33.1287 43.1183 32.8839L42.3619 32.4612L42.2506 29.9471C42.1839 28.5677 42.2284 27.3885 42.3174 27.3217C42.4286 27.255 42.6734 27.3662 42.8736 27.5665C44.0973 28.6566 47.5904 29.7023 50.1045 29.7023C52.3071 29.7023 53.3751 29.2796 53.3751 28.3897C53.3751 27.4107 52.5741 26.899 49.6373 26.0535C46.1664 25.0746 44.8315 24.4516 43.6523 23.2947C42.5176 22.2045 42.1616 21.0698 42.2951 18.9784C42.3841 17.243 43.0961 15.9971 44.5868 14.9959C47.2789 13.1492 52.9746 13.0602 56.8459 14.7956L57.8248 15.2184V17.5322C57.8248 18.8004 57.7803 19.8906 57.7136 19.9574C57.6468 20.0241 57.1129 19.8461 56.5344 19.5569C53.9313 18.3109 49.6595 17.8215 48.4136 18.6447C47.6794 19.1119 47.6349 19.8016 48.3246 20.2243C48.5916 20.3801 49.971 20.8473 51.3727 21.2478C56.9794 22.8275 59.004 24.6296 59.0262 28.0337C59.0262 30.5923 57.8248 32.3054 55.155 33.5736C53.7755 34.2411 53.5753 34.2633 50.4827 34.3078C47.6571 34.3523 47.0564 34.3078 45.5657 33.8406Z" fill="white"/>
<path d="M127.642 33.9516C121.501 31.9715 118.52 25.1856 121.279 19.4676C122.124 17.6877 124.193 15.5963 125.951 14.7286C128.687 13.3714 132.358 13.149 135.496 14.1057C138.143 14.9289 140.768 17.354 141.948 20.0461C142.548 21.4255 142.771 24.8963 142.37 26.565C141.547 29.9913 138.455 33.1284 134.939 34.0628C133.271 34.5078 129.221 34.4411 127.642 33.9516ZM134.049 29.0791C135.206 28.4784 136.43 27.0767 136.764 25.942C137.431 23.7839 136.919 21.381 135.518 19.9793C134.294 18.7557 133.026 18.2884 131.157 18.3997C129.088 18.4887 127.686 19.2896 126.685 20.8915C126.129 21.826 125.995 22.271 125.929 23.7394C125.862 25.2523 125.929 25.6305 126.44 26.654C127.019 27.8777 128.242 28.9456 129.577 29.4351C130.579 29.8133 132.981 29.6353 134.049 29.0791Z" fill="white"/>
<path d="M61.7407 33.9962C61.6739 33.9072 61.6072 29.3684 61.6072 23.873V13.9055H64.3883H67.1694V21.6926V29.4797H72.2866H77.4038V31.6823C77.4038 33.5067 77.3371 33.9072 77.0479 34.0184C76.5806 34.1964 61.9187 34.1742 61.7407 33.9962Z" fill="white"/>
<path d="M108.063 33.9962C107.684 33.9072 107.662 33.351 107.662 26.1869V18.4665H104.481H101.321L101.254 16.1971L101.188 13.9055H110.332H119.476L119.41 16.1971L119.343 18.4665L116.339 18.511C114.693 18.5333 113.247 18.5778 113.158 18.5778C113.069 18.5778 113.024 22.0263 113.046 26.2536C113.113 32.9283 113.069 33.9517 112.779 34.0407C112.379 34.1519 108.597 34.1297 108.063 33.9962Z" fill="white"/>
<path d="M145.886 33.9962C145.507 33.9072 145.485 33.2397 145.485 23.8952V13.9055H150.892C154.585 13.9055 156.676 13.9945 157.522 14.217C159.858 14.751 161.482 16.0637 162.327 18.066C162.75 19.1117 162.639 21.9373 162.105 22.9385C160.792 25.4749 157.499 26.7653 152.805 26.5428C151.27 26.4761 151.025 26.5206 150.914 26.8543C150.847 27.0768 150.803 28.6787 150.825 30.4364C150.847 32.1718 150.847 33.707 150.847 33.8405C150.825 34.0852 146.642 34.2187 145.886 33.9962ZM156.32 21.7816C157.054 21.2254 157.277 20.4912 156.988 19.6235C156.654 18.6445 155.831 18.3553 153.161 18.3553H150.825V20.2019C150.825 21.2254 150.892 22.1376 151.003 22.2266C151.092 22.3378 152.182 22.3601 153.428 22.3156C155.297 22.2488 155.809 22.1598 156.32 21.7816Z" fill="white"/>
<path d="M164.619 33.9962C164.619 33.9517 164.619 29.4575 164.619 23.9843V14.0168L167.289 13.95L169.959 13.8833V23.8953V33.885L169.358 34.0185C168.78 34.152 164.619 34.1075 164.619 33.9962Z" fill="white"/>
<path d="M172.117 33.9962C171.895 33.9294 171.761 33.7737 171.806 33.6402C171.872 33.4845 172.718 31.5711 173.697 29.3684C174.676 27.1658 176.3 23.517 177.279 21.2476C180.305 14.3727 180.527 13.9055 180.75 13.861C180.861 13.8165 182.084 13.8165 183.442 13.861L185.889 13.9278L190.272 23.8952C192.675 29.3684 194.655 33.9072 194.655 33.9962C194.655 34.1964 189.493 34.1964 189.004 34.0184C188.804 33.9517 188.648 33.7959 188.648 33.707C188.648 33.618 188.292 32.6613 187.847 31.6156L187.046 29.7022L183.13 29.7467L179.214 29.8134L178.436 31.7046C177.991 32.7503 177.568 33.707 177.479 33.8404C177.323 34.0629 172.962 34.1964 172.117 33.9962ZM185.311 25.6306C185.311 25.3414 183.308 20.6914 183.175 20.6469C182.997 20.6024 181.083 25.0967 181.083 25.5416C181.083 25.6306 182.04 25.6974 183.197 25.6974C184.354 25.6974 185.311 25.6751 185.311 25.6306Z" fill="white"/>
</svg>
