<svg width="169" height="47" viewBox="0 0 169 47" fill="none" xmlns="http://www.w3.org/2000/svg">
<path d="M19.8618 46.4072H0.854492V0.522791H8.06157V39.2002H19.8618V46.4072ZM33.8838 46.93C30.7346 46.93 28.2016 46.0338 26.2846 44.2414C24.1001 42.144 23.0079 39.2811 23.0079 35.6526V0.522791H30.2149V35.6526C30.2149 37.2708 30.5199 38.3631 31.1298 38.9294C31.7397 39.4958 32.6577 39.7572 33.8838 39.7136C35.1037 39.7136 35.9999 39.4522 36.5725 38.9294C37.1451 38.4066 37.4718 37.3144 37.5527 35.6526V0.522791H44.7691V35.6526C44.7691 39.1939 43.6769 42.0568 41.4923 44.2414C39.4821 46.04 36.9459 46.9362 33.8838 46.93ZM59.9768 46.93C56.9147 46.93 54.3817 46.0338 52.3776 44.2414C50.1931 42.0568 49.1008 39.1939 49.1008 35.6526V11.2774C49.1008 7.73609 50.1931 4.87318 52.3776 2.68865C54.3879 0.896216 56.921 0 59.9768 0C63.0327 0 65.5657 0.896216 67.576 2.68865C69.7605 4.78605 70.8528 7.64896 70.8528 11.2774V15.3384H63.6457V11.2774C63.6457 9.65923 63.3407 8.56696 62.7308 8.0006C62.1209 7.43425 61.2029 7.17285 59.9768 7.21641C58.7507 7.21641 57.8545 7.47781 57.2882 8.0006C56.7218 8.5234 56.395 9.61566 56.3079 11.2774V35.662C56.3079 37.2366 56.6347 38.3288 57.2882 38.9388C57.9416 39.5487 58.8379 39.8101 59.9768 39.7229C61.2464 39.7229 62.1644 39.4615 62.7308 38.9388C63.2972 38.416 63.6021 37.3237 63.6457 35.662V29.7619H70.8528V35.662C70.8528 39.2904 69.7605 42.1533 67.576 44.2507C65.6528 46.0431 63.1198 46.9362 59.9768 46.93ZM98.2527 46.4072H90.5135L84.9402 31.7224L82.4476 37.4264V46.4072H75.2405V0.522791H82.4476V19.138L90.4482 0.522791H98.2527L89.0105 22.2841L98.2527 46.4072ZM115.888 30.2847V46.4072H108.615V30.2847L99.7558 0.522791H107.355L112.209 16.9721L117.195 0.522791H124.794L115.888 30.2847Z" fill="white"/>
<path d="M143.848 22.8069C143.848 22.8069 144.931 19.0353 145.808 15.2451C147.125 9.54102 147.815 2.39929 143.381 0.681539C136.015 -2.17515 134.279 5.54539 134.279 5.54539C134.279 5.54539 126.306 2.67936 126.129 11.7069C126.054 15.3198 128.892 17.2055 132.402 18.7366C137.677 21.0425 143.848 22.8069 143.848 22.8069Z" fill="#FD5827"/>
<path d="M157.16 4.59316C148.021 3.83698 145.547 22.4055 145.547 22.4055C145.547 22.4055 164.227 30.266 167.616 22.9936C171.005 15.7212 163.098 13.5367 163.098 13.5367C163.098 13.5367 166.309 5.34935 157.16 4.59316Z" fill="white"/>
<path d="M145.043 23.6658C145.043 23.6658 138.069 43.4852 145.341 46.3233C153.034 49.3293 155.069 41.3474 155.069 41.3474C155.069 41.3474 165.058 44.1667 163.732 34.9058C162.537 26.5972 145.043 23.6658 145.043 23.6658Z" fill="#FD5827"/>
<path d="M143.474 23.563C143.474 23.563 126.698 15.8892 122.535 23.9084C118.371 31.9277 126.876 33.5521 126.876 33.5521C126.876 33.5521 124.934 41.4687 132.785 42.4583C140.636 43.4478 143.474 23.563 143.474 23.563Z" fill="#FD5827"/>
</svg>
