<svg width="90" height="90" viewBox="0 0 90 90" fill="none" xmlns="http://www.w3.org/2000/svg">
<g clip-path="url(#clip0_2252_6386)">
<path d="M45.0416 89.6596C20.604 89.6596 0.72229 69.7779 0.72229 45.3403C0.72229 20.9027 20.603 1.02002 45.0416 1.02002C69.4802 1.02002 89.3619 20.9017 89.3619 45.3403C89.3619 69.7789 69.4802 89.6596 45.0416 89.6596ZM45.0416 2.54124C21.4428 2.54124 2.24351 21.7405 2.24351 45.3403C2.24351 68.9401 21.4428 88.1384 45.0416 88.1384C68.6405 88.1384 87.8407 68.9392 87.8407 45.3403C87.8407 21.7415 68.6405 2.54124 45.0416 2.54124Z" fill="white"/>
<path d="M65.1174 17.9428C65.1349 18.6865 65.1631 19.4301 65.1475 20.1718C72.5274 26.0751 77.2561 35.1549 77.2561 45.3404C77.2561 63.132 62.8332 77.555 45.0416 77.555C27.25 77.555 12.827 63.132 12.827 45.3404C12.827 27.5488 27.249 13.1248 45.0416 13.1248C49.6314 13.1248 54.0155 14.3927 54.0155 14.3927C55.4862 14.8159 56.725 15.2848 57.6802 15.6887C58.4899 15.4305 59.2995 15.1713 60.1082 14.913C58.5899 14.1519 56.6551 13.3277 54.3436 12.6657C54.3436 12.6657 49.813 11.3735 45.0406 11.3735C26.2821 11.3735 11.0747 26.5809 11.0747 45.3394C11.0747 64.0979 26.2821 79.3053 45.0406 79.3053C63.7991 79.3053 79.0065 64.0979 79.0065 45.3394C79.0065 34.0919 73.538 24.1238 65.1165 17.9419L65.1174 17.9428Z" fill="white"/>
<path d="M66.3804 11.7995C64.5214 10.6142 62.5633 9.58124 60.514 8.71432C55.6134 6.64169 50.4081 5.59033 45.0416 5.59033C39.6751 5.59033 34.4697 6.64169 29.5692 8.71432C24.8356 10.7161 20.5845 13.5828 16.9344 17.233C13.2842 20.8831 10.4175 25.1342 8.41574 29.8678C6.34311 34.7683 5.29175 39.9737 5.29175 45.3402C5.29175 50.7067 6.34311 55.912 8.41574 60.8126C8.78949 61.696 9.19528 62.56 9.62922 63.4084C9.78746 63.4084 9.9457 63.4084 10.1039 63.4094C9.63796 62.5085 9.20305 61.5882 8.80502 60.6475C6.75472 55.7994 5.71501 50.6484 5.71501 45.3392C5.71501 40.03 6.75472 34.8799 8.80502 30.0309C10.7854 25.3478 13.6211 21.1423 17.2334 17.53C20.8447 13.9177 25.0511 11.0821 29.7342 9.10167C34.5823 7.05137 39.7333 6.01165 45.0425 6.01165C50.3518 6.01165 55.5018 7.05137 60.3509 9.10167C62.3458 9.94528 64.2515 10.9481 66.064 12.0956C66.1698 11.9946 66.2766 11.8956 66.3824 11.7975L66.3804 11.7995Z" fill="white"/>
<path d="M81.6674 29.8678C79.6656 25.1342 76.7989 20.8831 73.1487 17.233C71.3955 15.4797 69.5034 13.909 67.4861 12.5266C67.4269 12.6567 67.3667 12.7858 67.3075 12.9159C69.2811 14.274 71.1334 15.8147 72.8507 17.532C76.463 21.1443 79.2986 25.3497 81.2791 30.0328C83.3294 34.8809 84.3691 40.0319 84.3691 45.3411C84.3691 50.6504 83.3294 55.8004 81.2791 60.6495C80.882 61.5882 80.449 62.5066 79.984 63.4065C80.1413 63.4084 80.2995 63.4094 80.4568 63.4114C80.8898 62.5629 81.2946 61.697 81.6683 60.8135C83.741 55.913 84.7923 50.7076 84.7923 45.3411C84.7923 39.9746 83.741 34.7693 81.6683 29.8687L81.6674 29.8678Z" fill="white"/>
<path d="M10.7039 69.5973C12.891 69.2867 13.1832 69.0061 13.5803 66.8325C13.8909 69.0197 14.1715 69.3119 16.3451 69.709C14.1579 70.0196 13.8657 70.3002 13.4687 72.4738C13.158 70.2866 12.8774 69.9944 10.7039 69.5973Z" fill="white"/>
<path d="M73.3934 69.5973C75.5806 69.2867 75.8728 69.0061 76.2699 66.8325C76.5805 69.0197 76.8611 69.3119 79.0347 69.709C76.8475 70.0196 76.5553 70.3002 76.1582 72.4738C75.8476 70.2866 75.567 69.9944 73.3934 69.5973Z" fill="white"/>
<path d="M2.87354 40.6581C5.08013 40.5532 5.39758 40.3008 5.99558 38.1738C6.10043 40.3804 6.35283 40.6979 8.47983 41.2959C6.27323 41.4007 5.95578 41.6531 5.35778 43.7801C5.25293 41.5735 5.00053 41.2561 2.87354 40.6581Z" fill="white"/>
<path d="M81.5286 41.457C83.6556 40.859 83.908 40.5416 84.0118 38.335C84.6098 40.462 84.9273 40.7144 87.1339 40.8182C85.0069 41.4162 84.7545 41.7337 84.6506 43.9403C84.0526 41.8133 83.7352 41.5609 81.5286 41.457Z" fill="white"/>
<path d="M44.96 2.95874C45.3144 5.13913 45.6007 5.42551 47.7821 5.77887C45.6017 6.13321 45.3153 6.41959 44.962 8.60095C44.6076 6.42056 44.3212 6.13418 42.1399 5.78082C44.3203 5.42648 44.6067 5.1401 44.96 2.95874Z" fill="white"/>
<path d="M74.337 20.7658C75.5826 20.3436 75.7223 20.1475 75.7156 18.833C76.1378 20.0785 76.3339 20.2183 77.6484 20.2115C76.4029 20.6338 76.2631 20.8299 76.2699 22.1444C75.8476 20.8988 75.6515 20.759 74.337 20.7658Z" fill="white"/>
<path d="M12.5232 20.7192C13.7687 20.2969 13.9085 20.1008 13.9017 18.7864C14.324 20.0319 14.5201 20.1717 15.8345 20.1649C14.589 20.5872 14.4492 20.7833 14.456 22.0977C14.0337 20.8522 13.8376 20.7124 12.5232 20.7192Z" fill="white"/>
<path d="M24.0416 80.6675L23.4492 80.3782L27.4414 76.5488L28.0246 76.8337L27.4591 82.3365L26.8668 82.0472L27.3907 77.4383L27.3543 77.4205L24.0416 80.6675ZM25.1505 78.9516L27.5382 80.1177L27.2934 80.619L24.9057 79.4528L25.1505 78.9516Z" fill="white"/>
<path d="M30.5053 83.4771L28.989 82.9586L30.6693 78.0452L32.2528 78.5867C32.7294 78.7497 33.1036 78.9875 33.3754 79.3002C33.6478 79.6113 33.8117 79.9809 33.8672 80.409C33.9232 80.8354 33.8642 81.303 33.6903 81.8116C33.5152 82.3234 33.2734 82.7329 32.9647 83.04C32.6566 83.3455 32.2942 83.5378 31.8777 83.6169C31.4618 83.6944 31.0043 83.6478 30.5053 83.4771ZM29.7645 82.6343L30.6474 82.9362C31.0536 83.0751 31.4171 83.1119 31.7378 83.0465C32.0585 82.9811 32.334 82.8261 32.5641 82.5815C32.7943 82.3368 32.9777 82.0146 33.1145 81.6147C33.2501 81.218 33.3021 80.8544 33.2705 80.5238C33.2394 80.1916 33.1214 79.9047 32.9164 79.6631C32.7119 79.4199 32.4178 79.2326 32.0339 79.1014L31.0838 78.7765L29.7645 82.6343Z" fill="white"/>
<path d="M37.006 85.2506L37.8174 80.1216L38.4385 80.2198L37.7142 84.7979L40.0984 85.1751L40.0113 85.7261L37.006 85.2506Z" fill="white"/>
<path d="M45.2746 80.8254L45.9031 80.8453L45.7945 84.2818C45.7833 84.6366 45.6897 84.9507 45.5136 85.2242C45.3393 85.4961 45.0983 85.7075 44.7908 85.8584C44.4834 86.0077 44.1261 86.0759 43.7189 86.063C43.3117 86.0501 42.9594 85.9595 42.662 85.7911C42.3647 85.6211 42.1367 85.3949 41.9782 85.1125C41.8215 84.8285 41.7487 84.5091 41.7599 84.1543L41.8685 80.7178L42.497 80.7376L42.39 84.1235C42.382 84.3769 42.4306 84.6042 42.5359 84.8054C42.6412 85.0049 42.7951 85.1645 42.9977 85.2842C43.202 85.4023 43.4486 85.4659 43.7375 85.475C44.0264 85.4842 44.2765 85.4363 44.4879 85.3313C44.6992 85.2247 44.8629 85.0751 44.979 84.8826C45.0967 84.6884 45.1596 84.4647 45.1676 84.2112L45.2746 80.8254Z" fill="white"/>
<path d="M51.3934 80.3394L51.9776 85.4992L51.3729 85.5677L48.1025 81.8348L48.0521 81.8405L48.5108 85.8917L47.886 85.9625L47.3018 80.8026L47.9064 80.7342L51.1881 84.476L51.2385 84.4703L50.7786 80.409L51.3934 80.3394Z" fill="white"/>
<path d="M54.4931 85.0212L53.8555 85.1887L54.3802 79.6818L55.008 79.5168L58.1716 84.0547L57.534 84.2223L54.9224 80.3887L54.8832 80.399L54.4931 85.0212ZM54.2131 82.9974L56.7831 82.3222L56.9249 82.8617L54.3548 83.5369L54.2131 82.9974Z" fill="white"/>
<path d="M58.1942 78.6066L58.8843 78.3116L62.2016 81.5811L62.2575 81.5572L62.1856 76.9L62.8757 76.605L64.9172 81.3797L64.3763 81.6109L62.8252 77.9833L62.7786 78.0032L62.8376 82.2688L62.3153 82.4921L59.2722 79.5025L59.2255 79.5224L60.7766 83.15L60.2357 83.3813L58.1942 78.6066Z" fill="white"/>
<mask id="mask0_2252_6386" style="mask-type:luminance" maskUnits="userSpaceOnUse" x="6" y="49" width="44" height="43">
<path d="M42.9899 85.6127C51.3324 77.2702 51.3324 63.7444 42.9899 55.402C34.6475 47.0596 21.1217 47.0596 12.7793 55.402C4.43683 63.7444 4.43683 77.2702 12.7793 85.6127C21.1217 93.9551 34.6475 93.9551 42.9899 85.6127Z" fill="white"/>
</mask>
<g mask="url(#mask0_2252_6386)">
<path d="M18.1266 64.755C18.5265 65.2103 18.9634 65.654 19.4022 66.1015C21.7399 62.629 24.5503 58.9458 27.9247 55.2355C29.1557 53.8822 30.3847 52.6105 31.6001 51.4154C31.3555 51.2058 31.1099 50.9951 30.8652 50.7854C28.8179 52.3183 26.7006 54.0006 24.5425 55.8432C21.8233 58.1644 19.3605 60.4651 17.1412 62.6882C17.5946 63.3231 17.9635 64.0182 18.1276 64.756L18.1266 64.755Z" fill="white"/>
<path d="M33.3776 50.6272C30.1148 53.4755 24.6105 58.8333 20.0312 66.752C20.4963 67.5431 21.2088 68.5557 22.2728 69.5401C22.9426 70.1594 23.6018 70.6293 24.1775 70.9826C24.5464 69.6284 25.1512 67.6567 26.1297 65.2715C26.2297 65.0288 26.3142 64.8269 26.3812 64.6706C28.3645 60.0069 30.3517 56.8761 30.973 55.9219C31.6991 54.8074 32.7136 53.3473 34.0436 51.7057L33.3776 50.6272Z" fill="white"/>
<path d="M25.7326 72.5251C26.3753 73.1057 26.9209 73.4794 27.082 73.592C27.6946 74.0202 28.5877 74.5696 29.7701 75.0628C29.7701 74.89 29.7682 74.7172 29.7682 74.5444C29.7682 74.5444 29.7682 74.2832 29.7721 74.0211C29.8857 65.088 32.4049 58.2818 32.4049 58.2818C32.8223 57.1547 33.4747 55.5519 34.4552 53.6861C34.1678 53.4696 33.8795 53.2521 33.5921 53.0356C32.0894 55.0296 30.4924 57.4333 28.9925 60.2602C26.8063 64.3812 25.4472 68.2304 24.5803 71.4029C24.9531 71.7883 25.3356 72.165 25.7336 72.5242L25.7326 72.5251Z" fill="white"/>
</g>
<path d="M26.2365 38.4612L18.0392 48.7972C17.9567 48.9011 17.8829 49.0098 17.812 49.1214C20.2001 49.9971 23.1513 48.3856 25.9734 46.1848L25.4531 45.6703C25.5414 45.5091 30.9332 39.1621 33.4339 36.2207C30.5507 35.6392 27.7975 36.4934 26.2365 38.4622V38.4612ZM30.7837 36.6798C30.1002 36.7857 29.2954 37.0283 28.5266 37.506C27.748 37.9826 27.0588 38.6884 26.4093 39.5485C23.7464 42.956 21.3874 45.5625 21.3874 45.5625C21.3874 45.5625 23.3474 42.6434 26.0122 39.234C26.6617 38.369 27.4577 37.5953 28.313 37.1351C29.1673 36.6643 30.0362 36.474 30.7565 36.4274C31.47 36.3867 32.0428 36.3954 32.4408 36.3867C32.8378 36.3847 33.0582 36.3837 33.0582 36.3837C33.0582 36.3837 32.1864 36.4973 30.7846 36.6798H30.7837Z" fill="white"/>
<path d="M48.4773 48.9321C46.1959 52.0474 41.2711 58.7623 41.1352 58.8866L40.5139 58.4992C39.0267 61.7543 38.1433 64.9986 39.549 67.1188C39.6412 67.0247 39.7295 66.9276 39.812 66.8227L47.9666 56.4528C49.5199 54.4782 49.7131 51.6008 48.4782 48.9312L48.4773 48.9321ZM48.4054 49.3369C48.4054 49.3369 48.4549 49.5515 48.5452 49.9379C48.6287 50.3271 48.7695 50.8824 48.8957 51.5853C49.017 52.2969 49.0335 53.1861 48.7734 54.1268C48.5248 55.0646 47.9569 56.0179 47.2657 56.8508C44.5669 60.2331 42.1817 62.8163 42.1817 62.8163C42.1817 62.8163 44.1709 59.9175 46.8677 56.5363C47.5541 55.7053 48.0802 54.8704 48.3637 54.0035C48.6491 53.1453 48.6996 52.3066 48.6443 51.6173C48.4967 50.2116 48.4054 49.3369 48.4054 49.3369Z" fill="white"/>
<path d="M42.4195 43.2639C42.5399 43.1231 42.604 42.9892 42.6399 42.8804C42.6865 42.7406 42.7049 42.5911 42.6933 42.4397C42.67 42.1368 42.5282 41.863 42.2953 41.6689C42.038 41.4543 41.7429 41.3641 41.441 41.3951C41.2876 41.4107 41.142 41.4573 41.0109 41.5301C40.8672 41.6097 40.7692 41.7087 40.7168 41.7679C40.7003 41.7863 40.6876 41.8019 40.6828 41.8087C40.6808 41.8106 40.6799 41.8126 40.6799 41.8126C36.4812 46.4578 33.4126 49.8924 32.6583 50.7603C32.0379 51.4738 31.4778 52.1369 31.4778 52.1369C31.105 52.5786 30.805 52.9407 30.6157 53.1688C31.203 53.4067 31.7904 53.6445 32.3777 53.8823C33.4019 52.6368 34.3028 51.6981 34.9037 51.0981C34.9037 51.0981 40.5129 45.5035 42.4205 43.2639H42.4195Z" fill="white"/>
<path d="M28.8547 47.3605C29.7527 48.4866 30.7206 49.5467 31.7554 50.5428L32.3136 49.802L37.4782 42.9483C36.9598 42.4212 36.4764 41.9241 36.1114 41.4921C35.5522 40.864 35.1823 40.4475 35.1823 40.4475C35.1823 40.4475 35.5852 40.832 36.1939 41.4115C36.5861 41.8047 37.0977 42.2522 37.6462 42.725L40.2819 39.2273C41.2798 37.9031 43.2331 37.6993 44.596 38.836L44.6456 38.8778C46.0085 40.0146 46.158 41.9727 45.0348 43.192L36.1531 52.829L35.4376 53.6056C36.5919 54.4327 37.8083 55.1957 39.0849 55.8918C40.2877 54.6628 41.474 53.46 42.637 52.2805C55.8329 38.8962 66.33 28.2399 64.4059 16.1148C64.7806 15.5983 69.0948 9.51538 69.0948 9.51538C69.0948 9.51538 63.8856 14.8499 63.4439 15.3129C51.1702 15.5964 42.571 27.8351 31.7729 43.2182C30.8206 44.5744 29.8488 45.9587 28.8547 47.3634V47.3605ZM36.4657 53.0882L45.3338 43.4657C45.9406 42.8075 46.2425 41.9445 46.1823 41.0368C46.1668 40.8067 46.1279 40.5815 46.0697 40.3631C46.8191 39.5806 47.5696 38.7778 48.3151 37.9594C47.6094 37.3585 46.3716 36.2829 45.2144 35.1548C44.3912 34.3131 43.5612 33.4987 42.9933 32.8385C42.4118 32.1939 42.0264 31.7658 42.0264 31.7658C42.0264 31.7658 42.4448 32.1609 43.0758 32.757C43.6913 33.3676 44.5834 34.1122 45.463 34.8801C46.724 35.9285 48.0549 36.9081 48.7869 37.4391C48.9558 37.2517 49.1238 37.0634 49.2927 36.876C49.5568 36.5799 49.8218 36.2809 50.0868 35.979C50.3392 35.6907 50.5887 35.4043 50.8353 35.1179C51.6585 35.3674 52.5196 35.4305 53.3613 35.3276C48.7034 41.096 42.9729 46.8751 36.7424 53.3192L36.4657 53.0891V53.0882ZM48.8491 33.788C46.3609 31.7124 46.025 27.9992 48.1006 25.511C50.1761 23.0229 53.8884 22.687 56.3775 24.7626C58.8656 26.8381 59.2015 30.5504 57.126 33.0385C55.0504 35.5266 51.3382 35.8625 48.85 33.788H48.8491ZM63.8137 15.6993C63.9477 15.5546 68.2162 10.5677 68.2162 10.5677C68.2162 10.5677 64.6263 15.5896 64.0428 16.4021H64.0341C65.7563 28.2389 55.3795 38.7788 42.3487 51.9951C41.2857 53.0736 40.2032 54.1706 39.1062 55.2909L37.3083 53.791C43.6602 47.3362 49.5849 41.2164 54.268 35.149C55.4164 34.8277 56.4824 34.1695 57.3027 33.187C58.3666 31.9114 58.8181 30.3252 58.6948 28.7874C61.1839 24.7189 62.9779 20.6299 63.839 16.4361L63.7982 16.4429C62.6847 20.5299 60.9023 24.348 58.5909 28.0593C58.4579 27.4021 58.2133 26.7663 57.8677 26.178C58.4113 25.4091 58.9355 24.6451 59.4355 23.8888C58.8579 23.4035 58.0948 22.7482 57.3609 22.0706C56.6843 21.3959 55.995 20.7542 55.5514 20.2028C55.0893 19.6727 54.7835 19.3223 54.7835 19.3223C54.7835 19.3223 55.1223 19.6407 55.6339 20.1222C56.1241 20.6221 56.8726 21.192 57.6007 21.789C58.3744 22.3734 59.1743 22.9355 59.7859 23.3559C61.3586 20.9357 62.6799 18.6029 63.6438 16.4643L63.8147 15.7003C49.6781 17.4749 40.3285 33.3288 29.3984 47.2256C30.3031 45.9451 31.1895 44.6831 32.0593 43.4434C42.9108 27.9846 51.5255 15.7148 63.8147 15.7003L63.8137 15.6993Z" fill="white"/>
<path d="M56.6318 32.1552C57.0512 31.6319 57.3453 31.0728 57.5201 30.5495C57.7608 29.8369 57.8103 29.2069 57.8181 28.772C57.82 28.639 57.8123 28.5264 57.8055 28.4303C57.6094 27.2207 56.9997 26.0732 55.9872 25.2296C53.7563 23.3686 50.4275 23.6705 48.5675 25.9004C47.5588 27.11 47.1909 28.6419 47.4161 30.0884C47.4443 30.1952 47.4753 30.334 47.5413 30.4971C47.6763 30.9087 47.9374 31.4873 48.3966 32.0824C48.6112 32.3523 48.8723 32.6241 49.1752 32.8784C49.3625 33.0172 49.5499 33.1551 49.7373 33.2939C49.9479 33.4289 50.1722 33.5541 50.4129 33.6628C51.0672 33.955 51.8322 34.1327 52.6283 34.122C52.9088 34.0938 53.1894 34.0667 53.469 34.0385C54.5164 33.8502 55.4474 33.358 56.126 32.7085C56.2949 32.5241 56.4638 32.3406 56.6328 32.1562L56.6318 32.1552ZM50.0139 32.3891C48.2937 30.9543 48.0627 28.3973 49.4975 26.677C50.9323 24.9568 53.4894 24.7258 55.2096 26.1606C56.9298 27.5954 57.1609 30.1524 55.726 31.8727C54.2912 33.5929 51.7342 33.824 50.0139 32.3891Z" fill="white"/>
<path d="M55.232 26.7673L49.0665 28.5138C48.9296 29.1574 48.9704 29.8273 49.181 30.4476L56.1134 28.3517C55.961 27.7711 55.6669 27.2226 55.231 26.7683L55.232 26.7673Z" fill="white"/>
<path d="M56.1765 28.6582L49.3024 30.7376C49.3771 30.9085 49.4693 31.0725 49.5703 31.2318L56.226 29.2455C56.2231 29.0485 56.2105 28.8524 56.1765 28.6592V28.6582Z" fill="white"/>
<path d="M29.2204 19.7322C29.3251 19.7015 29.1244 19.595 29.2204 19.7322Z" fill="white"/>
<path d="M29.5798 19.6284C29.7056 19.541 29.5462 19.5305 29.5798 19.6284Z" fill="white"/>
<path d="M31.2268 20.7891C31.2278 20.9417 31.128 20.8188 31.2268 20.7891Z" fill="white"/>
<path d="M32.0613 18.5244C32.2168 18.5302 32.0949 18.6214 32.0613 18.5244Z" fill="white"/>
<path d="M30.2701 21.9055C30.7749 21.8909 29.842 21.6482 30.2701 21.9055Z" fill="white"/>
<path d="M31.3856 22.2511C31.3138 22.0414 30.974 22.3511 31.3856 22.2511Z" fill="white"/>
<path d="M30.7167 20.7398C30.8491 20.6572 30.684 20.6428 30.7167 20.7398Z" fill="white"/>
<path d="M33.4563 18.8678C33.4281 18.6455 33.2194 19.0639 33.4563 18.8678Z" fill="white"/>
<path d="M32.4963 21.0552C32.5309 21.1589 32.3293 21.0552 32.4963 21.0552Z" fill="white"/>
<path d="M21.3894 28.8914C21.6447 28.8923 21.4273 28.8914 21.3894 28.8914Z" fill="white"/>
<path d="M29.5786 20.2423C29.7322 20.3527 29.5104 20.1924 29.5575 20.2269C29.5479 20.2202 29.545 20.2183 29.5786 20.2423Z" fill="white"/>
<path d="M29.5312 20.0533C29.5399 20.0447 29.4899 20.0936 29.5312 20.0533Z" fill="white"/>
<path d="M29.5314 20.0534C29.6518 19.9369 29.2625 20.3174 29.5314 20.0534Z" fill="white"/>
<path d="M33.035 22.7201C33.2689 22.4657 33.0068 22.7482 33.035 22.7201Z" fill="white"/>
<path d="M35.0319 18.304C35.1299 18.3293 34.8348 18.2487 35.0319 18.304Z" fill="white"/>
<path d="M23.43 27.6187C23.3873 27.6468 23.2426 27.8827 23.3504 27.9225C23.4591 27.9623 23.5533 27.84 23.5271 27.8332C23.6047 27.8507 23.6329 27.4876 23.4309 27.6187H23.43Z" fill="white"/>
<path d="M33.1339 22.1025C33.2378 22.1326 32.931 22.0462 33.1339 22.1025Z" fill="white"/>
<path d="M33.9669 20.4989C34.0698 20.528 33.765 20.4416 33.9669 20.4989Z" fill="white"/>
<path d="M23.6669 28.1594C23.5999 28.2419 23.5339 28.3235 23.4669 28.406C23.564 28.5361 23.6698 28.5798 23.7863 28.5371C23.8096 28.2711 23.3465 28.4817 23.9319 28.2866C23.8436 28.2439 23.7552 28.2021 23.6669 28.1594Z" fill="white"/>
<path d="M24.5328 28.501C24.5367 28.5146 24.5435 28.5214 24.559 28.501C24.5454 28.4214 24.5328 28.4476 24.5309 28.4777C24.4416 28.4029 24.3523 28.3282 24.2629 28.2524C24.294 28.434 24.3862 28.5146 24.5338 28.501H24.5328Z" fill="white"/>
<path d="M36.1938 18.5437C36.3513 18.5427 36.2284 18.6407 36.1938 18.5437Z" fill="white"/>
<path d="M24.0277 28.8951C23.9941 28.874 23.9787 28.8644 24.0277 28.8951Z" fill="white"/>
<path d="M24.1202 28.9535C24.0755 28.9254 24.0474 28.9079 24.027 28.8953C24.0755 28.9254 24.1571 28.9768 24.1202 28.9535Z" fill="white"/>
<path d="M31.4292 26.7966C31.555 26.7092 31.3956 26.6987 31.4292 26.7966Z" fill="white"/>
<path d="M23.5375 28.8834C23.5615 28.7912 23.4895 29.0764 23.5375 28.8834Z" fill="white"/>
<path d="M34.3659 20.7232C34.1261 20.8358 34.6367 21.0833 34.5921 20.8455C34.593 20.6484 34.5173 20.6067 34.3659 20.7232Z" fill="white"/>
<path d="M33.3621 22.7617C33.3572 22.6433 33.3019 22.5705 33.1941 22.5423C33.0777 22.5142 33.2029 22.8239 33.3621 22.7617Z" fill="white"/>
<path d="M34.0911 18.9476C34.261 18.9234 33.8057 18.9865 34.0911 18.9476Z" fill="white"/>
<path d="M34.0909 18.9476C34.0995 18.9466 34.0342 18.9553 34.0909 18.9476Z" fill="white"/>
<path d="M31.6343 22.171C31.5402 22.0472 31.5363 22.1998 31.6343 22.171Z" fill="white"/>
<path d="M30.0711 22.1347C30.3818 22.2308 29.7255 22.0269 30.0711 22.1347Z" fill="white"/>
<path d="M30.0709 22.1345C30.116 22.1489 29.9998 22.1124 30.0709 22.1345Z" fill="white"/>
<path d="M33.0227 18.5659C33.0563 18.6619 32.8912 18.6504 33.0227 18.5659Z" fill="white"/>
<path d="M43.7942 22.1549C43.8959 22.1261 43.8019 22.3133 43.7942 22.1549Z" fill="white"/>
<path d="M41.4624 26.1247C41.6915 25.9693 41.4925 26.3654 41.4624 26.1247Z" fill="white"/>
<path d="M44.1078 21.3143C44.2067 21.2864 44.2019 21.4381 44.1078 21.3143Z" fill="white"/>
<path d="M42.571 25.511C42.5924 25.6411 42.537 25.3004 42.571 25.511Z" fill="white"/>
<path d="M42.9079 20.4522C42.8846 20.4386 42.8952 20.4444 42.903 20.4493C42.5642 20.2551 43.0214 20.5182 42.9079 20.4522Z" fill="white"/>
<path d="M40.031 25.7644C40.0377 25.9209 39.933 25.7922 40.031 25.7644Z" fill="white"/>
<path d="M43.2048 21.9952C43.3296 21.8483 43.1462 22.0615 43.2048 21.9952Z" fill="white"/>
<path d="M40.2731 27.7234C40.3906 27.701 40.0615 27.7651 40.2731 27.7234Z" fill="white"/>
<path d="M39.9926 27.4555C40.1965 27.5118 39.8878 27.4263 39.9926 27.4555Z" fill="white"/>
<path d="M40.0645 27.735C40.1703 27.7641 39.8606 27.6787 40.0645 27.735Z" fill="white"/>
<path d="M42.5542 25.5488C42.6685 25.5152 42.4601 25.5757 42.5542 25.5488Z" fill="white"/>
<path d="M44.2939 24.464C44.2852 24.4467 44.2766 24.4304 44.2679 24.4141C44.2756 24.4294 44.2814 24.44 44.2939 24.464Z" fill="white"/>
<path d="M44.2942 24.4646C44.3422 24.5587 44.322 24.5193 44.2942 24.4646Z" fill="white"/>
<path d="M44.2686 24.4135C44.2437 24.3645 44.2312 24.3396 44.2686 24.4135Z" fill="white"/>
<path d="M42.0584 18.5912C42.1642 18.6203 41.8545 18.5349 42.0584 18.5912Z" fill="white"/>
<path d="M39.6198 23.1646C39.58 23.2705 39.5878 23.3772 39.6295 23.484C39.7053 23.3151 39.8683 22.9753 39.6198 23.1646Z" fill="white"/>
<path d="M39.6406 23.5254C39.6339 23.512 39.6349 23.4985 39.6291 23.4841C39.5917 23.5667 39.5744 23.6118 39.6406 23.5254Z" fill="white"/>
<path d="M38.142 26.1194C38.0767 26.0224 38.1833 26.1827 38.1555 26.1395C38.1555 26.1405 38.1555 26.1386 38.142 26.1194Z" fill="white"/>
<path d="M42.7942 16.3752C42.8431 16.1851 42.7721 16.4645 42.7942 16.3752Z" fill="white"/>
<path d="M41.7585 18.8251C41.6682 18.5931 41.5818 18.5679 41.4983 18.7494C41.8701 19.2639 41.7342 18.8145 41.7585 18.8251Z" fill="white"/>
<path d="M36.156 29.4525C36.2511 29.4247 36.1541 29.2979 36.156 29.4525Z" fill="white"/>
<path d="M37.9568 26.1735C38.1287 26.0631 37.9261 26.1937 37.9568 26.1735Z" fill="white"/>
<path d="M41.8073 20.0708C41.8409 20.1658 41.6749 20.1562 41.8073 20.0708Z" fill="white"/>
<path d="M39.4945 24.1655C39.379 24.1063 39.3314 24.3519 39.4538 24.3422C39.7236 24.3509 39.7372 24.2917 39.4945 24.1655Z" fill="white"/>
<path d="M41.1944 22.1105C41.2565 22.1483 40.8867 21.9163 41.1944 22.1105Z" fill="white"/>
<path d="M41.5216 20.9503C41.9002 20.8416 41.5575 20.7455 41.5216 20.9503Z" fill="white"/>
<path d="M39.8926 25.4508C39.9915 25.4229 39.9867 25.5746 39.8926 25.4508Z" fill="white"/>
<path d="M40.5918 24.5794C40.4977 24.4546 40.4939 24.6082 40.5918 24.5794Z" fill="white"/>
<path d="M40.6955 23.0755C40.7945 23.1007 40.4974 23.0191 40.6955 23.0755Z" fill="white"/>
<path d="M42.3837 19.932C42.6361 20.4426 42.7351 19.631 42.7225 19.5136C42.673 19.0369 42.3769 19.9368 42.3837 19.932Z" fill="white"/>
<path d="M39.4202 19.7235C39.4135 19.5642 39.3175 19.7523 39.4202 19.7235Z" fill="white"/>
<path d="M41.5896 18.0458C41.7915 17.8351 41.3731 18.272 41.5896 18.0458Z" fill="white"/>
<path d="M41.9731 23.3623C41.9405 23.2692 41.8147 23.3565 41.9731 23.3623Z" fill="white"/>
<path d="M38.6102 29.366C38.7686 29.366 38.6438 29.4629 38.6102 29.366Z" fill="white"/>
<path d="M41.043 24.884C41.141 24.9102 40.8459 24.8286 41.043 24.884Z" fill="white"/>
<path d="M40.6716 25.2137C40.735 25.1369 40.5382 25.3664 40.6716 25.2137Z" fill="white"/>
<path d="M40.4411 27.6924C40.5246 27.4555 40.3402 27.9739 40.4411 27.6924Z" fill="white"/>
<path d="M41.5217 26.7634C41.561 26.8719 41.3258 26.7999 41.5217 26.7634Z" fill="white"/>
<path d="M41.4352 26.811C41.2712 27.1275 41.1032 26.6392 41.4352 26.811Z" fill="white"/>
<path d="M42.138 25.3635C42.1458 25.3586 42.1458 25.3548 42.1138 25.3674C42.2089 25.7227 42.3322 25.3179 42.138 25.3635Z" fill="white"/>
<path d="M37.2207 26.9546C37.3407 26.92 37.1218 26.9824 37.2207 26.9546Z" fill="white"/>
<path d="M34.7538 29.7437C34.7538 29.8982 34.6587 29.7705 34.7538 29.7437Z" fill="white"/>
<path d="M34.464 30.3727C34.6669 29.8951 34.0223 30.6241 34.4475 30.3805C34.4446 30.3834 34.4455 30.3834 34.464 30.3727Z" fill="white"/>
<path d="M35.0241 29.5243C35.226 29.3175 34.9124 29.6369 35.0241 29.5243Z" fill="white"/>
<path d="M39.1391 21.1627C39.1602 21.0753 39.0901 21.3508 39.1391 21.1627Z" fill="white"/>
<path d="M39.1043 21.9569C39.1325 22.1035 39.0519 21.6744 39.1043 21.9531C39.1043 21.9492 39.1043 21.9511 39.1043 21.9569Z" fill="white"/>
<path d="M41.4856 19.1418C41.5177 19.0709 41.0653 18.8865 40.9624 19.1214C40.9003 19.2641 41.3856 19.3593 41.4856 19.1418Z" fill="white"/>
<path d="M37.6307 26.2848C37.6433 26.2829 37.6481 26.278 37.6316 26.2664C37.5268 26.2683 37.5753 26.2848 37.6132 26.2858C37.5326 26.3693 37.453 26.4527 37.3734 26.5362C37.553 26.5158 37.6375 26.4304 37.6316 26.2848H37.6307Z" fill="white"/>
<path d="M37.7588 25.1373C37.8106 25.1286 37.7933 25.1315 37.7588 25.1373Z" fill="white"/>
<path d="M37.7074 25.1449C37.7256 25.142 37.7468 25.1391 37.7573 25.1372C37.742 25.1401 37.7247 25.142 37.7074 25.1449Z" fill="white"/>
<path d="M37.6722 25.1508C37.6991 25.1469 37.6223 25.1585 37.6722 25.1508C37.6828 25.1489 37.6933 25.1469 37.7068 25.145C37.6943 25.1469 37.6885 25.1479 37.6722 25.1508Z" fill="white"/>
<path d="M37.6703 25.1509C37.6453 25.1547 37.6367 25.1566 37.6703 25.1509Z" fill="white"/>
<path d="M35.9337 28.3563C35.9095 28.5155 35.9658 28.1544 35.9367 28.3408C35.9367 28.3369 35.9367 28.3369 35.9337 28.3563Z" fill="white"/>
<path d="M37.2375 26.9168C37.2579 27.042 37.2036 26.7071 37.2375 26.9168Z" fill="white"/>
<path d="M35.2154 29.4748C35.427 29.3622 35.1833 29.235 35.2154 29.4748Z" fill="white"/>
<path d="M41.4594 18.367C41.5157 18.1719 41.2721 18.2486 41.1876 18.2729C41.2604 18.4127 41.3507 18.4447 41.4594 18.367Z" fill="white"/>
<path d="M22.1577 29.4079C22.1491 29.2495 22.0569 29.4367 22.1577 29.4079Z" fill="white"/>
<path d="M36.8803 26.405C36.8482 26.538 36.8628 26.6623 36.9211 26.7788C37.0754 26.9661 37.1453 26.4225 36.8803 26.405Z" fill="white"/>
<path d="M35.9869 28.5707C36.1443 28.6984 35.9101 28.5064 35.9869 28.5707Z" fill="white"/>
<path d="M21.7954 29.9305C21.7003 29.8057 21.6975 29.9593 21.7954 29.9305Z" fill="white"/>
<path d="M24.6678 27.0817C24.7095 27.0196 24.2921 26.6283 24.3202 27.1914C24.5085 27.2865 24.6241 27.2496 24.6678 27.0817Z" fill="white"/>
<path d="M24.71 28.3389C24.71 28.4915 24.6111 28.3677 24.71 28.3389Z" fill="white"/>
<path d="M37.2506 17.502C37.2506 17.6546 37.1517 17.5308 37.2506 17.502Z" fill="white"/>
<path d="M35.1027 21.7815C35.2006 21.7536 35.095 21.625 35.1027 21.7815Z" fill="white"/>
<path d="M36.0735 21.1852C36.1764 21.2143 35.8716 21.1289 36.0735 21.1852Z" fill="white"/>
<path d="M26.0151 27.4761C26.115 27.4463 26.0142 27.3234 26.0151 27.4761Z" fill="white"/>
<path d="M35.0201 23.1496C35.1872 23.1496 34.9846 23.0459 35.0201 23.1496Z" fill="white"/>
<path d="M36.7579 19.7622C37.0161 19.7495 36.8307 19.669 36.7064 19.6505C36.8249 19.6039 36.9385 19.5486 36.9676 19.5301C37.7733 17.9779 36.3045 19.6068 36.4065 19.7039C36.4356 19.7321 36.5278 19.7127 36.6288 19.6787C36.6404 19.6971 36.6715 19.7233 36.7375 19.7631C36.7511 19.7631 36.7579 19.7622 36.7589 19.7612L36.7579 19.7622Z" fill="white"/>
<path d="M32.4609 26.4314C32.5569 26.5687 32.3553 26.4621 32.4609 26.4314Z" fill="white"/>
<path d="M35.5736 21.0742C35.707 20.9897 35.6091 21.1731 35.5736 21.0742Z" fill="white"/>
<path d="M36.0459 20.2358C36.0536 20.3923 35.948 20.2637 36.0459 20.2358Z" fill="white"/>
<path d="M24.959 27.7556C24.8774 27.6915 24.7842 27.6673 24.6794 27.6818C24.6512 27.7692 24.661 27.8517 24.7085 27.9294C24.8541 27.9828 24.9376 27.9255 24.959 27.7556Z" fill="white"/>
<path d="M37.0826 17.6187C37.0826 17.7742 36.9876 17.6455 37.0826 17.6187Z" fill="white"/>
<path d="M37.8948 20.891C37.985 20.6551 37.9161 20.5687 37.687 20.6308C37.6957 20.7007 37.7123 21.5268 37.8948 20.891Z" fill="white"/>
<path d="M36.657 22.8289C36.7512 23.1667 36.5599 22.4765 36.657 22.8289Z" fill="white"/>
<path d="M33.432 28.7196C33.4425 28.7752 33.43 28.7109 33.432 28.7196Z" fill="white"/>
<path d="M33.432 28.7196C33.4922 29.0477 33.4058 28.5818 33.432 28.7196Z" fill="white"/>
<path d="M38.4297 20.5076C38.418 20.9668 38.5015 21.0998 38.6792 20.9076C38.9549 20.7727 38.6753 20.4232 38.4297 20.5076Z" fill="white"/>
<path d="M38.6519 20.9793C38.7442 21.1744 38.5995 20.8706 38.6519 20.9793Z" fill="white"/>
<path d="M34.5164 29.8077C34.5145 29.8126 34.5213 29.8145 34.5649 29.798C34.6222 29.6873 34.6844 29.3446 34.4756 29.2971C34.3329 29.265 34.197 29.7048 34.197 29.7378C34.2902 29.8388 34.398 29.8533 34.5164 29.8077Z" fill="white"/>
<path d="M33.7659 30.7574C33.8916 30.671 33.7323 30.6595 33.7659 30.7574Z" fill="white"/>
<path d="M33.6223 30.4795C33.7192 30.4507 33.6155 30.324 33.6223 30.4795Z" fill="white"/>
<path d="M37.687 20.3748C37.7859 20.346 37.687 20.2221 37.687 20.3748Z" fill="white"/>
<path d="M27.2588 26.7925C27.0618 26.8566 26.9492 26.71 27.0482 26.9954C27.1686 27.0022 27.2346 26.9497 27.2511 26.8449C27.2627 26.8866 27.2918 26.9206 27.2588 26.7934V26.7925Z" fill="white"/>
<path d="M36.4725 21.2717C36.5113 21.562 36.2123 21.4106 36.4725 21.2717Z" fill="white"/>
<path d="M34.2581 27.2886C34.3659 27.2207 34.2144 27.0682 34.129 27.1362C33.9834 27.2488 34.0708 27.4041 34.2581 27.2886Z" fill="white"/>
<path d="M26.7365 27.6981C26.8353 27.6702 26.8305 27.8219 26.7365 27.6981Z" fill="white"/>
<path d="M33.1029 28.6263C33.197 28.5875 32.9039 28.7088 33.1029 28.6263Z" fill="white"/>
<path d="M33.2922 28.5875C33.3223 28.7826 33.2427 28.2428 33.2922 28.5875Z" fill="white"/>
<path d="M36.5386 21.8652C36.505 21.7672 36.3821 21.8604 36.5386 21.8652Z" fill="white"/>
<path d="M37.2531 20.5209C37.3875 20.4336 37.2886 20.6217 37.2531 20.5209Z" fill="white"/>
<path d="M38.2374 19.1699C38.2762 18.9281 38.2092 19.3446 38.2374 19.1699Z" fill="white"/>
<path d="M43.9397 25.0334C43.9592 25.1567 44.2679 25.047 44.2358 24.8946C44.1718 24.8286 44.1077 24.7616 44.0436 24.6956C44.1145 25.0149 43.899 24.78 43.9407 25.0344L43.9397 25.0334Z" fill="white"/>
<path d="M44.0815 24.6666C44.1019 24.7918 44.0476 24.4569 44.0815 24.6666Z" fill="white"/>
<path d="M32.5273 27.4332C32.571 27.3371 32.57 27.2468 32.5224 27.1633C32.2157 27.2526 32.4001 27.506 32.5273 27.4332Z" fill="white"/>
<path d="M35.857 21.1553C35.954 21.1274 35.8503 20.9988 35.857 21.1553Z" fill="white"/>
<path d="M41.9525 22.2996C42.0773 22.4752 41.8968 22.216 41.9525 22.2996Z" fill="white"/>
<path d="M58.9307 54.3637C59.1482 54.2831 59.2113 54.1841 59.1219 54.0667C58.8268 54.2317 58.7628 54.3307 58.9307 54.3637Z" fill="white"/>
<path d="M63.3733 58.6046C63.3704 58.5221 63.2476 58.5806 63.3733 58.6046Z" fill="white"/>
<path d="M57.6535 53.1227C57.6487 53.0334 57.5268 53.1726 57.6535 53.1227Z" fill="white"/>
<path d="M57.639 52.8166C57.5939 52.7004 57.5555 52.8252 57.639 52.8166Z" fill="white"/>
<path d="M58.753 54.4657C58.7598 54.4579 58.9161 54.2763 58.8093 54.3249C58.6763 54.3831 58.6055 54.6365 58.753 54.4657Z" fill="white"/>
<path d="M64.7205 59.1719C64.8379 59.1437 64.4894 59.2292 64.7205 59.1719Z" fill="white"/>
<path d="M65.933 61.6425C66.0165 61.6339 65.9791 61.7587 65.933 61.6425Z" fill="white"/>
<path d="M64.4728 60.3069C64.4942 60.4263 64.4224 60.0506 64.4728 60.3069Z" fill="white"/>
<path d="M58.1909 55.684C58.253 55.6092 58.4511 55.4559 58.2229 55.3452C58.0443 55.2588 57.9696 55.9481 58.1909 55.684Z" fill="white"/>
<path d="M56.029 53.8024C56.163 53.948 55.8222 53.5782 56.029 53.8024Z" fill="white"/>
<path d="M57.955 55.4227C58.0851 55.4285 57.6851 55.4091 57.955 55.4227Z" fill="white"/>
<path d="M66.1639 59.8225C66.2814 59.8448 65.9232 59.7759 66.1639 59.8225Z" fill="white"/>
<path d="M66.1639 59.8222C66.1706 59.8232 66.1216 59.8136 66.1639 59.8222Z" fill="white"/>
<path d="M64.0174 58.2724C64.1038 58.2638 63.9752 58.1495 64.0174 58.2724Z" fill="white"/>
<path d="M65.9893 60.3224C66.0718 60.3138 66.0305 60.4434 65.9893 60.3224Z" fill="white"/>
<path d="M56.8571 53.0404C56.9561 52.9025 56.7852 52.8404 56.6736 52.9326C56.7144 53.0481 56.7755 53.0841 56.8571 53.0404Z" fill="white"/>
<path d="M64.6545 60.0727C64.8331 60.165 64.8875 59.9931 64.8875 59.863C64.6739 59.863 64.5962 59.9329 64.6545 60.0727Z" fill="white"/>
<path d="M60.8198 56.533C60.9475 56.5561 60.8159 56.4466 60.8198 56.533Z" fill="white"/>
<path d="M64.0652 58.4836C64.1909 58.5067 64.069 58.5672 64.0652 58.4836Z" fill="white"/>
<path d="M57.5473 54.6258C57.5783 54.4191 57.324 54.721 57.5473 54.6258Z" fill="white"/>
<path d="M57.7813 54.2355C57.7347 54.1598 57.6969 54.0792 57.6697 53.9948C57.5124 53.9142 57.5212 54.3209 57.7813 54.2355Z" fill="white"/>
<path d="M63.1051 58.5777C63.1886 58.57 63.1464 58.6987 63.1051 58.5777Z" fill="white"/>
<path d="M65.6541 60.8369C65.751 60.9204 65.585 60.9166 65.6541 60.8369Z" fill="white"/>
<path d="M59.1344 55.4514C59.2208 55.4427 59.0921 55.3285 59.1344 55.4514Z" fill="white"/>
<path d="M62.7196 58.3612C62.8473 58.3113 62.7234 58.4505 62.7196 58.3612Z" fill="white"/>
<path d="M64.133 59.6062C64.2194 59.5985 64.0908 59.4833 64.133 59.6062Z" fill="white"/>
<path d="M56.3521 52.7628C56.499 52.8396 56.2801 52.7234 56.3521 52.7628Z" fill="white"/>
<path d="M65.3475 60.5703C65.4311 60.5607 65.3811 60.4484 65.3475 60.5703Z" fill="white"/>
<path d="M65.654 60.8349C65.7423 60.8263 65.5609 60.8445 65.654 60.8349Z" fill="white"/>
<path d="M59.3433 54.7384C59.3297 54.5355 59.2841 54.6005 59.2054 54.9316C59.3812 54.95 59.4268 54.8859 59.3433 54.7384Z" fill="white"/>
<path d="M63.3103 58.4145C63.3784 58.45 63.1672 58.3387 63.3103 58.4145Z" fill="white"/>
<path d="M63.5918 58.6908C63.588 58.6063 63.4699 58.662 63.5918 58.6908Z" fill="white"/>
<path d="M59.3743 54.2821C59.2908 54.0141 58.9287 54.5024 58.9355 54.4947C59.1093 54.6645 59.4656 54.5752 59.3743 54.2821Z" fill="white"/>
<path d="M58.9869 54.1378C59.0676 54.1292 59.0215 54.014 58.9869 54.1378Z" fill="white"/>
<path d="M56.3736 53.1094C56.3416 53.3084 56.1814 53.1676 56.3736 53.1094Z" fill="white"/>
<path d="M59.4083 55.9431C59.4336 55.6936 59.3938 56.079 59.4083 55.9431Z" fill="white"/>
<path d="M65.9193 58.7591C65.9442 58.8378 65.9001 58.6976 65.9154 58.7456C65.9126 58.737 65.9116 58.7331 65.9193 58.7591Z" fill="white"/>
<path d="M62.7294 55.8752C62.576 56.0345 62.5158 56.3004 62.7236 56.449C62.9012 56.5771 62.842 55.8937 62.7294 55.8752Z" fill="white"/>
<path d="M65.9028 58.4481C65.9825 58.4404 65.9384 58.3233 65.9028 58.4481Z" fill="white"/>
<path d="M65.998 58.7346C66.0028 58.8191 65.9922 58.6348 65.998 58.7346Z" fill="white"/>
<path d="M58.8754 51.729C58.9963 51.7568 58.8802 51.8135 58.8754 51.729Z" fill="white"/>
<path d="M62.7128 55.2063C62.8478 55.1975 62.8886 55.1306 62.8342 55.0043C62.8323 54.9927 62.4342 54.9888 62.7128 55.2063Z" fill="white"/>
<path d="M57.2338 50.6342C57.3173 50.6256 57.2674 50.5113 57.2338 50.6342Z" fill="white"/>
<path d="M59.5801 52.7017C59.6645 52.2979 59.2937 52.993 59.5801 52.7017Z" fill="white"/>
<path d="M60.0675 51.8813C60.0684 52.2279 59.8869 51.8988 60.0675 51.8813Z" fill="white"/>
<path d="M63.4054 55.8209C63.4092 55.9082 63.2777 55.7969 63.4054 55.8209Z" fill="white"/>
<path d="M58.7389 52.1253C58.6986 52.0044 58.6554 52.133 58.7389 52.1253Z" fill="white"/>
<path d="M64.2345 54.8472C64.2048 54.9739 64.152 54.8548 64.2345 54.8472Z" fill="white"/>
<path d="M57.7715 49.5912C57.8822 49.8164 57.589 49.5718 57.7715 49.5912Z" fill="white"/>
<path d="M59.3287 50.7708C59.418 50.7631 59.297 50.9033 59.3287 50.7708Z" fill="white"/>
<path d="M62.2303 53.4356C62.2799 53.2327 62.2371 53.4055 62.2303 53.4356Z" fill="white"/>
<path d="M62.739 53.7986C62.8953 53.8665 62.7536 54.1199 62.739 53.7986Z" fill="white"/>
<path d="M62.4489 53.4647C62.5702 53.6754 62.6906 53.624 62.7323 53.6608C62.6624 53.488 62.5673 53.422 62.4489 53.4647Z" fill="white"/>
<path d="M64.1249 55.1261C64.1557 54.9936 64.0366 55.1347 64.1249 55.1261Z" fill="white"/>
<path d="M62.5846 53.9121C62.7286 53.988 62.5145 53.8747 62.5846 53.9121Z" fill="white"/>
<path d="M64.9884 55.4975C65.1903 55.7033 64.8194 55.3247 64.9884 55.4975Z" fill="white"/>
<path d="M58.1016 56.0097C58.1064 56.0999 58.0978 55.9012 58.1016 56.0097Z" fill="white"/>
<path d="M58.101 55.8574C58.1692 55.8929 57.9589 55.7816 58.101 55.8574Z" fill="white"/>
<path d="M56.6114 55.3751C56.7007 55.3665 56.5807 55.5086 56.6114 55.3751Z" fill="white"/>
<path d="M65.5388 63.0716C65.5291 63.0735 65.5203 63.0755 65.5495 63.0696C65.6378 63.0522 65.1563 63.1444 65.5388 63.0716Z" fill="white"/>
<path d="M56.862 55.4218C57.0882 55.4014 57.1823 55.7227 57.4852 55.5713C57.5726 55.2431 57.1435 55.0509 56.8348 54.9937C56.827 55.082 56.5911 55.448 56.862 55.4218Z" fill="white"/>
<path d="M64.9234 62.7026C64.9311 62.6026 64.8962 63.0899 64.9234 62.7026Z" fill="white"/>
<path d="M60.1908 59.2917C60.2743 59.2831 60.2244 59.1688 60.1908 59.2917Z" fill="white"/>
<path d="M68.4035 34.176C68.5254 34.2231 68.3536 34.2471 68.4035 34.176Z" fill="white"/>
<path d="M65.0994 63.3819C65.1734 63.2964 64.9487 63.378 65.0994 63.3819Z" fill="white"/>
<path d="M56.3989 55.2616C56.2484 55.1927 56.6358 55.3713 56.4173 55.2704C56.4037 55.2645 56.3989 55.2616 56.3989 55.2616Z" fill="white"/>
<path d="M56.8016 55.9664C56.8967 56.0979 56.7556 55.904 56.8016 55.9664Z" fill="white"/>
<path d="M65.1243 63.3547C65.1262 63.4228 65.1185 63.2683 65.1243 63.3547Z" fill="white"/>
<path d="M61.7926 59.0344C61.8752 59.0267 61.8272 58.9115 61.7926 59.0344Z" fill="white"/>
<path d="M67.3474 33.3471C67.3669 33.3189 67.3921 33.0995 67.3474 33.1617C67.1368 33.3519 67.1368 33.4141 67.3474 33.3471Z" fill="white"/>
<path d="M63.6284 60.0922C63.5187 60.0708 63.8419 60.1339 63.6419 60.0951C63.6468 60.0951 63.6478 60.0961 63.6284 60.0922Z" fill="white"/>
<path d="M65.2476 61.3067C65.233 61.4543 65.3156 61.5086 65.4961 61.4688C65.5175 61.3281 65.3884 61.1281 65.2476 61.3067Z" fill="white"/>
<path d="M59.749 57.5506C59.6432 57.5429 59.5694 57.5895 59.5267 57.6885C59.4946 57.9166 59.5684 57.87 59.749 57.5506Z" fill="white"/>
<path d="M59.9591 57.7701C59.9639 57.8565 59.8315 57.7461 59.9591 57.7701Z" fill="white"/>
<path d="M59.3394 57.9055C59.4238 57.8968 59.372 57.7826 59.3394 57.9055Z" fill="white"/>
<path d="M62.2864 60.5039C62.2816 60.5125 62.2758 60.5231 62.2662 60.5404C62.2432 60.5826 62.271 60.5308 62.2864 60.5039Z" fill="white"/>
<path d="M62.2867 60.5038C62.2992 60.4808 62.2954 60.4884 62.2867 60.5038Z" fill="white"/>
<path d="M57.6191 55.8315C57.856 55.7606 57.658 55.5859 57.6191 55.8315Z" fill="white"/>
<path d="M58.0758 56.0359C58.1497 55.9504 57.9261 56.0311 58.0758 56.0359Z" fill="white"/>
<path d="M66.2658 60.4912C66.405 60.5651 66.2025 60.4595 66.2658 60.4912Z" fill="white"/>
<path d="M61.6751 53.6947C61.5488 53.7811 61.9275 53.5228 61.6925 53.683C61.6731 53.6956 61.6721 53.6966 61.6751 53.6947Z" fill="white"/>
<path d="M67.7303 34.5728C67.7793 34.5018 67.6094 34.5258 67.7303 34.5728Z" fill="white"/>
<path d="M66.6009 34.7357C66.6095 34.5668 66.597 34.8221 66.6009 34.7357Z" fill="white"/>
<path d="M59.6976 57.144C59.9365 57.0838 60.6422 56.9702 60.6024 56.5615C60.4112 56.678 59.2957 57.244 59.6976 57.144Z" fill="white"/>
<path d="M57.9874 55.6384C58.0863 55.6451 57.8194 55.6259 57.9874 55.6384Z" fill="white"/>
<path d="M65.5559 58.6423C65.601 58.7047 65.4609 58.5108 65.5559 58.6423Z" fill="white"/>
<path d="M63.8282 57.0634C63.9884 56.8479 63.6448 57.3109 63.8282 57.0634Z" fill="white"/>
<path d="M55.7232 53.5871C55.7843 53.3522 55.5242 53.6473 55.7232 53.5871Z" fill="white"/>
<path d="M64.3612 58.502C64.4593 58.5496 64.634 58.671 64.6301 58.7234C64.6777 58.8282 64.7495 58.8603 64.8476 58.8205C65.1349 58.7904 64.9408 58.4525 64.9767 58.27C64.9883 58.2691 64.5282 58.4768 64.3612 58.502Z" fill="white"/>
<path d="M64.2981 58.4866C64.2933 58.5068 64.3212 58.5087 64.3605 58.502C64.325 58.4847 64.3001 58.477 64.2981 58.4866Z" fill="white"/>
<path d="M64.5836 58.0382C64.5059 58.0974 64.4787 58.1702 64.5001 58.2586C64.7301 58.2459 65 57.944 64.5836 58.0382Z" fill="white"/>
<path d="M63.7661 57.8137C63.8919 57.8377 63.769 57.8963 63.7661 57.8137Z" fill="white"/>
<path d="M63.2876 57.8586C63.3517 57.9246 62.9527 57.511 63.2876 57.8586Z" fill="white"/>
<path d="M58.1267 52.9351C58.2438 52.8343 58.0739 52.9793 58.1103 52.9486C58.1027 52.9553 58.1007 52.9562 58.1267 52.9351Z" fill="white"/>
<path d="M59.1742 53.9572C59.2568 53.8075 59.131 54.034 59.1742 53.9572Z" fill="white"/>
<path d="M57.9676 52.9376C57.9916 52.9779 57.9628 52.9289 57.9676 52.9376Z" fill="white"/>
<path d="M57.9677 52.9374C58.1259 53.2015 57.8978 52.82 57.9677 52.9374Z" fill="white"/>
<path d="M60.7539 50.6592C60.7704 50.6864 60.5966 50.4242 60.7539 50.6592Z" fill="white"/>
<path d="M67.0649 55.9762C67.1125 55.785 67.0776 55.9287 67.0649 55.9762Z" fill="white"/>
<path d="M64.5075 54.1202C64.5382 53.9878 64.4192 54.1289 64.5075 54.1202Z" fill="white"/>
<path d="M57.6237 48.2309C57.6621 48.1589 57.543 48.3759 57.6237 48.2309Z" fill="white"/>
<path d="M61.6072 51.5716C61.6217 51.6114 61.7809 51.7707 61.8334 51.693C61.8848 51.6144 61.8062 51.5163 61.7955 51.5357C61.8246 51.4775 61.5412 51.3862 61.6072 51.5716Z" fill="white"/>
<path d="M60.2827 50.4629C60.3259 50.3871 60.2001 50.6117 60.2827 50.4629Z" fill="white"/>
<path d="M59.1653 49.4959C59.2075 49.4201 59.0827 49.6438 59.1653 49.4959Z" fill="white"/>
<path d="M62.0828 51.4862C62.1352 51.5551 62.1876 51.6231 62.24 51.692C62.3623 51.6396 62.4167 51.5639 62.4051 51.4629C62.1983 51.394 62.2769 51.8017 62.2342 51.2998C62.1837 51.3619 62.1332 51.4241 62.0828 51.4862Z" fill="white"/>
<path d="M62.5187 50.8631C62.5303 50.8631 62.5371 50.8582 62.5235 50.8427C62.4575 50.8388 62.4759 50.8534 62.4992 50.8602C62.4225 50.9165 62.3459 50.9737 62.2692 51.031C62.4196 51.0407 62.5012 50.9835 62.5177 50.8631H62.5187Z" fill="white"/>
<path d="M58.0356 47.353C58.1192 47.3444 58.0644 47.2273 58.0356 47.353Z" fill="white"/>
<path d="M57.0764 46.5098C57.1714 46.6404 57.0312 46.4484 57.0764 46.5098Z" fill="white"/>
<path d="M62.7359 51.3386C62.7129 51.3617 62.7023 51.3722 62.7359 51.3386Z" fill="white"/>
<path d="M62.7996 51.2765C62.7688 51.3063 62.7496 51.3255 62.7362 51.3389C62.7698 51.3063 62.8245 51.2525 62.7996 51.2765Z" fill="white"/>
<path d="M63.6899 52.7109C63.6448 52.5947 63.6064 52.7195 63.6899 52.7109Z" fill="white"/>
<path d="M62.6331 51.7268C62.7771 51.8017 62.564 51.6903 62.6331 51.7268Z" fill="white"/>
<path d="M59.42 49.2214C59.4646 49.434 59.7578 49.0748 59.5607 49.0651C59.4044 49.0263 59.3569 49.0787 59.42 49.2214Z" fill="white"/>
<path d="M60.849 50.4076C60.7538 50.3891 60.6849 50.4192 60.6422 50.4988C60.5975 50.5862 60.8674 50.5454 60.849 50.4076Z" fill="white"/>
<path d="M66.0717 56.9255C66.1018 56.9478 66.3183 56.4663 66.2377 56.2974C65.9135 56.3343 65.7077 56.6536 66.0717 56.9255Z" fill="white"/>
<path d="M64.8578 55.9324C64.8232 56.0572 64.7772 55.9401 64.8578 55.9324Z" fill="white"/>
<path d="M65.6595 56.6975C65.6634 56.781 65.5434 56.7484 65.6595 56.6975Z" fill="white"/>
<path d="M57.956 49.102C57.9696 48.9623 57.9327 49.337 57.956 49.102Z" fill="white"/>
<path d="M57.956 49.1021C57.956 49.0944 57.9512 49.1491 57.956 49.1021Z" fill="white"/>
<path d="M62.7051 54.5626C62.7265 54.6888 62.9265 54.3015 62.876 54.7432C62.9692 54.7082 63.04 54.648 63.0896 54.5616C63.0808 54.2248 62.6459 54.2694 62.7051 54.5616V54.5626Z" fill="white"/>
<path d="M66.9329 58.6185C66.9436 58.6302 67.1649 58.8544 67.1863 58.8069C67.2863 58.5952 66.8581 58.536 66.9329 58.6185Z" fill="white"/>
<path d="M65.3377 56.7246C65.5105 56.7246 65.259 56.7256 65.3377 56.7246Z" fill="white"/>
<path d="M64.933 56.3944C64.8068 56.3624 64.7485 56.408 64.7563 56.5304C64.7893 56.5643 64.8262 56.5915 64.8679 56.6129C64.9204 56.6303 64.9786 56.3935 64.933 56.3944Z" fill="white"/>
<path d="M64.7762 56.1574C64.8444 56.192 64.6332 56.0825 64.7762 56.1574Z" fill="white"/>
<path d="M65.1829 56.7407C65.2559 56.6543 65.0331 56.7359 65.1829 56.7407Z" fill="white"/>
<path d="M66.2883 35.6448C66.1359 35.7206 66.033 35.4487 66.2883 35.6448Z" fill="white"/>
<path d="M67.7532 38.0933C67.8415 38.0972 67.8911 38.0457 67.9008 37.9389C67.7367 37.839 67.6474 38.0011 67.7532 38.0933Z" fill="white"/>
<path d="M65.5656 36.871C65.7346 36.7626 65.4437 36.7741 65.5656 36.871Z" fill="white"/>
<path d="M66.5166 36.7085C66.4629 36.7862 66.3986 36.5971 66.5166 36.7085Z" fill="white"/>
<path d="M67.7851 36.5254C67.7765 36.5215 67.7697 36.5196 67.7976 36.5302C67.8744 36.5619 67.7342 36.5033 67.7851 36.5254Z" fill="white"/>
<path d="M69.0258 36.3728C69.0863 36.5312 68.9951 36.2922 69.0258 36.3728Z" fill="white"/>
<path d="M65.8204 36.8167C65.8709 36.7749 65.9175 36.7303 65.9165 36.6536C65.8136 36.6749 65.7816 36.7293 65.8204 36.8167Z" fill="white"/>
<path d="M69.1821 36.239C69.4472 36.4613 69.0792 36.3885 69.1821 36.239Z" fill="white"/>
<path d="M66.4414 36.6737C66.4866 36.6084 66.3915 36.7457 66.4414 36.6737Z" fill="white"/>
<path d="M68.7891 36.0662C68.9561 36.1322 68.8852 35.7274 68.7522 35.8429C68.7027 35.9273 68.7153 36.0021 68.7891 36.0662Z" fill="white"/>
<path d="M65.9484 36.6472C66.0588 36.5137 65.8985 36.7086 65.9484 36.6472Z" fill="white"/>
<path d="M69.6542 36.1835C69.6062 36.2526 69.5361 36.1432 69.6542 36.1835Z" fill="white"/>
<path d="M65.2008 36.7031C65.3592 36.7156 65.1279 36.6964 65.2008 36.7031Z" fill="white"/>
<path d="M68.3347 36.0642C68.1474 35.9089 67.9445 36.07 67.8775 36.2875C67.7591 36.6729 68.4289 36.1428 68.3347 36.0642Z" fill="white"/>
<path d="M69.4734 35.9767C69.5723 35.8951 69.5396 36.0276 69.4734 35.9767Z" fill="white"/>
<path d="M68.5648 36.973C68.8735 36.9604 68.3638 36.9827 68.5648 36.973Z" fill="white"/>
<path d="M68.6403 35.6742C68.6815 35.5513 68.575 35.6233 68.6403 35.6742Z" fill="white"/>
<path d="M64.2794 36.4635C64.3255 36.3963 64.2065 36.3579 64.2794 36.4635Z" fill="white"/>
<path d="M53.6195 59.7253C53.6787 59.5991 53.338 59.6001 53.3749 59.8564C53.4933 59.8797 53.5749 59.836 53.6195 59.7253Z" fill="white"/>
<path d="M68.389 37.5303C68.3609 37.638 68.3978 37.7176 68.4997 37.7691C68.6822 37.7332 68.722 37.771 68.389 37.5303Z" fill="white"/>
<path d="M62.0682 66.6218C62.077 66.6354 62.0847 66.6442 62.0906 66.649C62.1935 66.7859 62.2556 66.7034 62.0682 66.6218Z" fill="white"/>
<path d="M68.2425 38.7437C68.2153 38.7321 68.0309 38.6408 68.2425 38.7437Z" fill="white"/>
<path d="M68.856 38.0941C68.957 38.033 69.2016 37.7194 69.2075 37.6631C68.922 37.7077 68.8483 37.8145 68.8269 38.1067C68.8541 38.1067 68.858 38.0999 68.856 38.0941Z" fill="white"/>
<path d="M55.7096 56.2682C55.6465 56.1304 55.5922 56.0935 55.5456 56.1595C55.5368 56.143 55.7252 56.3944 55.7096 56.2682Z" fill="white"/>
<path d="M67.0872 35.0088C67.0948 34.9886 67.0948 34.9876 67.0939 34.9915C67.1064 34.9569 67.0574 35.0894 67.0872 35.0088Z" fill="white"/>
<path d="M56.7668 56.6478C56.7707 56.5527 56.7601 56.8206 56.7668 56.6478Z" fill="white"/>
<path d="M61.5906 61.0232C61.5169 61.0358 61.711 61.129 61.7926 61.0883C61.7566 60.9951 61.6897 60.9737 61.5906 61.0232Z" fill="white"/>
<path d="M67.2891 35.0429C67.2988 35.0439 67.026 35.0129 67.2891 35.0429Z" fill="white"/>
<path d="M58.603 58.4503C58.6683 58.4829 58.4619 58.3764 58.603 58.4503Z" fill="white"/>
<path d="M66.0361 35.5197C65.9689 35.4688 65.9363 35.5936 66.0361 35.5197Z" fill="white"/>
<path d="M59.0346 59.0312C59.1666 59.0856 58.8511 58.9555 59.0346 59.0312Z" fill="white"/>
<path d="M67.9396 35.3984C68.0017 35.1082 67.4649 35.0247 67.33 35.2189C67.3931 35.2363 67.8794 35.3179 67.9396 35.3984Z" fill="white"/>
<path d="M56.7192 56.8695C56.7999 56.8619 56.7538 56.7457 56.7192 56.8695Z" fill="white"/>
<path d="M60.8218 55.215C60.7587 55.0762 60.7044 55.0402 60.6578 55.1062C60.649 55.0888 60.8364 55.3422 60.8218 55.215Z" fill="white"/>
<path d="M61.9741 55.4548C62.0323 55.714 61.6256 55.8325 61.3547 55.7995C61.3644 55.8004 61.0237 56.1363 61.0955 56.1693C61.2324 56.2324 61.2839 56.2247 61.4159 56.1674C60.9286 56.3771 61.4353 56.4848 61.8265 56.4945C62.0886 56.5013 62.2993 56.4644 62.1197 56.3829C62.1032 56.3625 62.0197 56.1732 61.9391 56.1033C61.9605 56.0897 61.9372 56.0858 61.9197 56.0897C61.9023 56.079 61.8857 56.0732 61.8702 56.079C62.2178 55.9392 62.7993 55.5131 61.9741 55.4529V55.4548ZM61.7683 56.1868C61.7634 56.1014 61.646 56.1586 61.7683 56.1868Z" fill="white"/>
<path d="M59.9898 54.2385C60.1675 54.221 59.7161 54.0774 59.9898 54.2385Z" fill="white"/>
<path d="M60.0504 51.6677C60.0542 51.7512 59.9332 51.7196 60.0504 51.6677Z" fill="white"/>
<path d="M63.1166 56.1548C63.3448 56.1383 63.0147 55.8209 62.939 56.0646C62.9341 56.1597 62.9934 56.1898 63.1166 56.1548Z" fill="white"/>
<path d="M59.7247 52.9037C59.8606 52.6745 59.5733 53.158 59.7247 52.9037Z" fill="white"/>
<path d="M59.7246 52.9035C59.7448 52.8699 59.6939 52.9563 59.7246 52.9035Z" fill="white"/>
<path d="M61.2561 54.4076C61.2148 54.2866 61.1726 54.4162 61.2561 54.4076Z" fill="white"/>
<path d="M64.5069 56.8449C64.6166 56.7333 64.7302 56.143 64.4127 56.2945C63.9866 56.4983 64.2584 57.0963 64.5069 56.8449Z" fill="white"/>
<path d="M57.4492 49.8776C57.5318 49.869 57.4915 49.9986 57.4492 49.8776Z" fill="white"/>
<path d="M68.7919 37.3622C68.7997 37.3185 68.7667 37.0952 68.7298 37.1156C68.5696 37.201 68.7686 37.4874 68.7919 37.3622Z" fill="white"/>
<path d="M69.0673 35.0026C69.1153 34.9335 68.9953 34.898 69.0673 35.0026Z" fill="white"/>
<path d="M68.5162 35.5789C68.3997 35.4168 68.2551 35.4003 68.0803 35.5284C68.2376 35.4643 68.4036 35.707 68.5162 35.5789Z" fill="white"/>
<path d="M59.911 60.1602C60.0502 60.2341 59.8467 60.1276 59.911 60.1602Z" fill="white"/>
<path d="M68.4607 36.9071C68.5087 36.839 68.3887 36.8006 68.4607 36.9071Z" fill="white"/>
<path d="M67.4556 37.5801C67.5055 37.5091 67.3347 37.5331 67.4556 37.5801Z" fill="white"/>
<path d="M68.1104 39.1137C68.1153 39.1942 68.1803 39.1923 68.3075 39.1088C68.3842 39.003 68.0939 39.1243 68.1104 39.1137Z" fill="white"/>
<path d="M65.0146 66.1616C65.1394 66.1856 65.0194 66.2442 65.0146 66.1616Z" fill="white"/>
<path d="M67.6028 38.2748C67.5814 38.3961 67.8503 38.4389 67.9212 38.4097C67.9057 38.3292 67.6261 38.1379 67.6028 38.2748Z" fill="white"/>
<path d="M65.1454 66.2575C65.1847 66.1845 65.0647 66.4044 65.1454 66.2575Z" fill="white"/>
<path d="M65.6873 66.795C65.8035 66.7441 65.6835 66.7115 65.6873 66.795Z" fill="white"/>
<path d="M62.477 66.2762C62.8042 66.2481 62.376 66.2859 62.477 66.2762Z" fill="white"/>
<path d="M68.8041 38.1133C68.7897 38.1287 68.7792 38.1393 68.7725 38.145C68.7945 38.1229 68.8473 38.0692 68.8041 38.1133Z" fill="white"/>
<path d="M68.7724 38.1458C68.7628 38.1554 68.7589 38.1602 68.7724 38.1458Z" fill="white"/>
<path d="M69.6133 41.8833C69.5851 41.9911 69.622 42.0707 69.7239 42.1221C69.9064 42.0862 69.9462 42.1241 69.6133 41.8833Z" fill="white"/>
<path d="M69.4666 43.0968C69.4394 43.0851 69.255 42.9939 69.4666 43.0968Z" fill="white"/>
<path d="M70.0801 42.4471C70.1811 42.386 70.4257 42.0724 70.4316 42.0161C70.1462 42.0608 70.0724 42.1676 70.051 42.4598C70.0782 42.4598 70.0821 42.453 70.0801 42.4471Z" fill="white"/>
<path d="M70.016 41.7142C70.0238 41.6705 69.9908 41.4472 69.9539 41.4676C69.7937 41.553 69.9927 41.8394 70.016 41.7142Z" fill="white"/>
<path d="M69.3345 43.4664C69.3394 43.547 69.4044 43.5451 69.5316 43.4616C69.6083 43.3558 69.318 43.4771 69.3345 43.4664Z" fill="white"/>
<path d="M70.0284 42.4654C70.014 42.4808 70.0034 42.4913 69.9967 42.4971C70.0188 42.475 70.0716 42.4212 70.0284 42.4654Z" fill="white"/>
<path d="M69.9966 42.4988C69.987 42.5084 69.9832 42.5132 69.9966 42.4988Z" fill="white"/>
<path d="M62.3518 41.9984C62.4794 42.0224 62.3479 41.912 62.3518 41.9984Z" fill="white"/>
<path d="M65.064 44.6083C65.2611 44.6296 64.9835 44.3967 65.064 44.6083Z" fill="white"/>
<path d="M61.744 41.5895C61.8601 41.5386 61.7401 41.5059 61.744 41.5895Z" fill="white"/>
<path d="M64.7868 43.6093C64.8933 43.617 64.6149 43.5959 64.7868 43.6093Z" fill="white"/>
<path d="M70.4548 51.8232C70.5199 51.8349 70.583 51.8407 70.6412 51.7912C70.5584 51.7265 70.4963 51.7371 70.4548 51.8232Z" fill="white"/>
<path d="M60.8296 42.3792C60.815 42.3947 60.8218 42.3879 60.8267 42.3821C60.6082 42.6141 60.9043 42.3015 60.8296 42.3792Z" fill="white"/>
<path d="M64.5059 45.677C64.6316 45.701 64.5097 45.7605 64.5059 45.677Z" fill="white"/>
<path d="M68.5423 51.0928C68.6344 51.2196 68.502 51.0343 68.5423 51.0928Z" fill="white"/>
<path d="M70.4558 51.9512C70.2733 51.9686 70.2539 52.0813 70.2122 52.2376C70.4228 52.2405 70.5034 52.1444 70.4558 51.9512Z" fill="white"/>
<path d="M62.1126 42.437C62.1539 42.4955 62.0195 42.3102 62.1126 42.437Z" fill="white"/>
<path d="M66.1086 45.8573C66.1134 45.7604 66.101 46.0311 66.1086 45.8573Z" fill="white"/>
<path d="M65.8426 46.0288C65.9251 45.879 65.7994 46.1056 65.8426 46.0288Z" fill="white"/>
<path d="M66.0782 46.0255C66.1214 45.9477 65.9957 46.1752 66.0782 46.0255Z" fill="white"/>
<path d="M70.9325 50.2329C70.8975 50.3164 70.947 50.3465 71.0829 50.3222C71.2334 50.3028 71.0024 50.2193 70.9325 50.2329Z" fill="white"/>
<path d="M68.6823 47.1142C68.7667 47.1056 68.7149 46.9913 68.6823 47.1142Z" fill="white"/>
<path d="M64.8146 43.6293C64.8185 43.709 64.8089 43.5323 64.8146 43.6293Z" fill="white"/>
<path d="M64.283 42.0405C64.2677 42.0444 64.2533 42.0482 64.2379 42.0511C64.2514 42.0482 64.261 42.0453 64.283 42.0405Z" fill="white"/>
<path d="M64.2836 42.0404C64.3671 42.0203 64.3325 42.0289 64.2836 42.0404Z" fill="white"/>
<path d="M64.2375 42.0513C64.1943 42.0618 64.1722 42.0666 64.2375 42.0513Z" fill="white"/>
<path d="M67.7546 49.8777C67.7201 50.0025 67.674 49.8854 67.7546 49.8777Z" fill="white"/>
<path d="M69.6802 51.5562C69.6811 51.583 69.6811 51.5754 69.6802 51.5562Z" fill="white"/>
<path d="M59.1886 42.7005C59.2318 42.6228 59.106 42.8503 59.1886 42.7005Z" fill="white"/>
<path d="M62.3605 45.5092C62.4372 45.5607 62.5236 45.5752 62.6158 45.5626C62.4954 45.4704 62.2566 45.2753 62.3605 45.5092Z" fill="white"/>
<path d="M62.6513 45.5615C62.6388 45.5644 62.6282 45.5615 62.6167 45.5625C62.6753 45.6076 62.7079 45.6306 62.6513 45.5615Z" fill="white"/>
<path d="M64.4279 47.2467C64.3386 47.2803 64.4864 47.2256 64.4461 47.24C64.4471 47.24 64.4451 47.24 64.4279 47.2467Z" fill="white"/>
<path d="M57.5671 41.6936C57.6333 41.7281 57.426 41.6187 57.5671 41.6936Z" fill="white"/>
<path d="M59.318 42.9841C59.1171 43.0113 59.0802 43.0754 59.2083 43.1763C59.6879 42.9783 59.3045 43.0006 59.318 42.9841Z" fill="white"/>
<path d="M66.7003 49.4586C66.6964 49.378 66.5774 49.4308 66.7003 49.4586Z" fill="white"/>
<path d="M64.4357 47.4033C64.4463 47.4311 64.381 47.2459 64.4357 47.4033Z" fill="white"/>
<path d="M60.317 43.1811C60.3996 43.1724 60.3593 43.302 60.317 43.1811Z" fill="white"/>
<path d="M63.1323 45.7995C63.0634 45.8801 63.2498 45.9645 63.2653 45.8655C63.3235 45.6529 63.2789 45.6306 63.1323 45.7995Z" fill="white"/>
<path d="M69.8336 51.3979C69.6259 51.5009 69.6298 51.5882 69.8462 51.663C69.8424 51.5746 69.8385 51.4863 69.8336 51.3979Z" fill="white"/>
<path d="M61.8216 44.0568C61.8644 44.0141 61.609 44.2645 61.8216 44.0568Z" fill="white"/>
<path d="M70.3394 51.6667C70.3268 51.8007 70.3598 51.4609 70.3413 51.6512C70.3413 51.6444 70.3413 51.6434 70.3394 51.6667Z" fill="white"/>
<path d="M60.9616 43.5761C60.947 43.2548 60.8053 43.5082 60.9616 43.5761Z" fill="white"/>
<path d="M70.1433 51.2786C70.1596 51.3006 70.1673 51.3112 70.1712 51.317C70.1644 51.3074 70.152 51.291 70.1433 51.2786Z" fill="white"/>
<path d="M64.2292 45.7271C64.3453 45.6762 64.2263 45.6426 64.2292 45.7271Z" fill="white"/>
<path d="M63.6704 45.0054C63.6752 45.0889 63.5533 45.0563 63.6704 45.0054Z" fill="white"/>
<path d="M62.4941 44.6372C62.5325 44.5643 62.4125 44.7822 62.4941 44.6372Z" fill="white"/>
<path d="M70.7192 51.7659C70.723 51.859 70.5598 51.7659 70.7192 51.7659Z" fill="white"/>
<path d="M60.317 42.6977C60.7703 42.5939 60.1451 42.3618 60.049 42.3483C59.6607 42.2968 60.3199 42.7036 60.317 42.6977Z" fill="white"/>
<path d="M69.8116 50.6968C69.8798 50.6449 69.6763 50.7995 69.8116 50.6968Z" fill="white"/>
<path d="M70.8888 51.8001C71.0049 51.7493 70.8849 51.7166 70.8888 51.8001Z" fill="white"/>
<path d="M59.5872 45.013C59.5901 45.1003 59.4596 44.988 59.5872 45.013Z" fill="white"/>
<path d="M58.6666 42.9696C58.8055 43.1851 58.5375 42.7686 58.6666 42.9696Z" fill="white"/>
<path d="M62.9657 43.6753C62.9311 43.8001 62.8851 43.683 62.9657 43.6753Z" fill="white"/>
<path d="M67.0979 47.4907C67.1814 47.4821 67.1277 47.365 67.0979 47.4907Z" fill="white"/>
<path d="M63.9968 44.705C64.0352 44.633 63.9162 44.85 63.9968 44.705Z" fill="white"/>
<path d="M64.1902 45.0633C64.2862 45.1977 64.1413 44.998 64.1902 45.0633Z" fill="white"/>
<path d="M66.1165 45.7178C66.3204 45.8517 65.9437 45.6061 66.1165 45.7178Z" fill="white"/>
<path d="M70.3423 49.7582C70.1277 49.5999 70.3685 50.1494 70.3646 49.7727C70.3423 49.7533 70.3394 49.7533 70.3423 49.7582Z" fill="white"/>
<path d="M65.5834 44.6811C65.6765 44.6706 65.5748 44.8443 65.5834 44.6811Z" fill="white"/>
<path d="M65.6048 44.7598C65.8252 44.951 65.4049 44.9908 65.6048 44.7598Z" fill="white"/>
<path d="M64.5874 43.9258C64.5845 43.919 64.5816 43.918 64.5855 43.9452C64.8864 43.9374 64.5884 43.7627 64.5874 43.9258Z" fill="white"/>
<path d="M64.9165 48.1376C64.9204 48.2211 64.9117 48.0359 64.9165 48.1376Z" fill="white"/>
<path d="M66.6649 50.6289C66.7878 50.6577 66.6688 50.7095 66.6649 50.6289Z" fill="white"/>
<path d="M67.1096 50.9796C66.7688 50.7272 67.2251 51.3786 67.1125 50.9941C67.1144 50.9971 67.1144 50.9961 67.1096 50.9796Z" fill="white"/>
<path d="M66.5416 50.3727C66.6096 50.4824 66.4154 50.1727 66.5416 50.3727Z" fill="white"/>
<path d="M60.677 45.5101C60.8172 45.5849 60.6117 45.4765 60.677 45.5101Z" fill="white"/>
<path d="M70.5242 54.1257C70.4954 54.2525 70.4407 54.1344 70.5242 54.1257Z" fill="white"/>
<path d="M61.3023 45.6896C61.4237 45.6955 61.0674 45.678 61.2985 45.6896C61.2956 45.6896 61.2965 45.6896 61.3023 45.6896Z" fill="white"/>
<path d="M56.976 42.215C56.9836 42.2102 56.9894 42.2063 56.9683 42.2198C56.8368 42.3033 57.1084 42.1315 56.976 42.215Z" fill="white"/>
<path d="M59.517 43.2608C59.4665 43.2219 59.2336 43.5462 59.4015 43.6724C59.5034 43.7491 59.6704 43.3812 59.517 43.2608Z" fill="white"/>
<path d="M68.0434 51.0319C67.9347 51.027 68.2861 51.0445 68.0619 51.0319C68.0609 51.0319 68.056 51.0319 68.0434 51.0319Z" fill="white"/>
<path d="M64.4622 47.6846C64.4622 47.6749 64.4603 47.6691 64.4477 47.6798C64.4292 47.7633 64.4516 47.7283 64.4593 47.6982C64.5108 47.7778 64.5613 47.8574 64.6127 47.937C64.6302 47.7905 64.5787 47.707 64.4622 47.6846Z" fill="white"/>
<path d="M63.574 47.364C63.5769 47.3217 63.5759 47.3361 63.574 47.364Z" fill="white"/>
<path d="M63.571 47.4055C63.572 47.3911 63.5739 47.3729 63.5739 47.3643C63.5739 47.3767 63.572 47.3911 63.571 47.4055Z" fill="white"/>
<path d="M63.5691 47.4348C63.571 47.4127 63.5662 47.4761 63.5691 47.4348C63.5691 47.4262 63.57 47.4166 63.571 47.406C63.571 47.4166 63.57 47.4214 63.5691 47.4348Z" fill="white"/>
<path d="M63.5681 47.437C63.5662 47.4649 63.5662 47.4572 63.5681 47.437Z" fill="white"/>
<path d="M65.7857 49.427C65.9067 49.4759 65.6331 49.3636 65.7732 49.4222C65.7704 49.4212 65.7704 49.4212 65.7857 49.427Z" fill="white"/>
<path d="M64.8888 48.1175C64.9905 48.1251 64.7169 48.105 64.8888 48.1175Z" fill="white"/>
<path d="M66.5387 50.2116C66.4892 50.0213 66.3417 50.1912 66.5387 50.2116Z" fill="white"/>
<path d="M58.8967 43.1337C58.7521 43.0521 58.7666 43.2599 58.7705 43.3317C58.8957 43.3006 58.9375 43.2346 58.8967 43.1337Z" fill="white"/>
<path d="M67.7008 51.0126C67.7853 51.0049 67.7459 51.1278 67.7008 51.0126Z" fill="white"/>
<path d="M51.5071 61.1979C51.4119 61.1794 51.343 61.2095 51.3003 61.2891C51.2556 61.3765 51.5255 61.3357 51.5071 61.1979Z" fill="white"/>
<path d="M64.0272 66.2783C64.1472 66.0863 63.9686 66.3743 64.0272 66.2783Z" fill="white"/>
<path d="M65.3056 67.4421C65.4487 67.517 65.2384 67.4066 65.3056 67.4421Z" fill="white"/>
<path d="M48.2577 63.9002C48.3911 63.7994 48.1914 63.9492 48.2577 63.9002Z" fill="white"/>
<path d="M48.7365 64.4792C48.9529 64.6384 48.7073 64.087 48.7141 64.4646C48.7374 64.484 48.7394 64.484 48.7365 64.4792Z" fill="white"/>
<path d="M57.6171 66.9993C57.762 67.0751 57.5479 66.9618 57.6171 66.9993Z" fill="white"/>
<path d="M59.1297 69.8924C59.2452 69.8642 58.9006 69.9487 59.1297 69.8924Z" fill="white"/>
<path d="M47.5151 63.8316C47.6142 63.6938 47.4433 63.6317 47.3317 63.7239C47.3724 63.8394 47.4336 63.8753 47.5151 63.8316Z" fill="white"/>
<path d="M54.0315 69.3949C54.0276 69.3124 53.9057 69.3709 54.0315 69.3949Z" fill="white"/>
<path d="M57.5666 66.7541C57.6521 66.7455 57.5253 66.6312 57.5666 66.7541Z" fill="white"/>
<path d="M54.426 68.6389C54.571 68.7138 54.3569 68.6024 54.426 68.6389Z" fill="white"/>
<path d="M51.3071 67.4953C51.4348 67.4454 51.3119 67.5846 51.3071 67.4953Z" fill="white"/>
<path d="M54.197 69.4681C54.3419 69.543 54.1269 69.4306 54.197 69.4681Z" fill="white"/>
<path d="M53.9174 69.2263C54.0624 69.3022 53.8473 69.1889 53.9174 69.2263Z" fill="white"/>
<path d="M48.5937 66.473C48.6187 66.5508 48.5745 66.4125 48.5889 66.4586C48.586 66.45 48.5851 66.4461 48.5937 66.473Z" fill="white"/>
<path d="M49.8449 67.5678C49.9275 67.419 49.8027 67.6436 49.8449 67.5678Z" fill="white"/>
<path d="M50.376 68.378C50.3702 68.4022 50.3809 68.4168 50.4071 68.342C50.2362 68.3721 50.1867 68.4294 50.1819 68.6022C50.2469 68.5275 50.311 68.4527 50.376 68.378Z" fill="white"/>
<path d="M50.6162 68.5613C50.621 68.6487 50.4886 68.5364 50.6162 68.5613Z" fill="white"/>
<path d="M59.0637 71.7484C59.0957 72.0959 58.6754 71.8309 59.118 72.2047C59.2268 72.1959 59.3044 72.2425 59.351 72.3415C59.486 72.2251 59.6209 72.1076 59.7558 71.9901C59.4112 71.6484 58.822 71.1795 58.5521 71.1504C58.5463 71.3844 58.8889 71.8309 59.0637 71.7484Z" fill="white"/>
<path d="M55.6611 71.9534C55.9436 71.9088 55.3854 71.9991 55.6436 71.9563C55.6436 71.9563 55.6484 71.9563 55.6611 71.9534Z" fill="white"/>
<path d="M48.2762 66.6227C48.5131 66.5529 48.3141 66.3771 48.2762 66.6227Z" fill="white"/>
<path d="M48.7053 66.6343C48.8282 66.6621 48.7092 66.7159 48.7053 66.6343Z" fill="white"/>
<path d="M62.7889 52.923C62.7928 53.0084 62.6613 52.8999 62.7889 52.923Z" fill="white"/>
<path d="M68.1647 34.6992C68.228 34.8615 68.134 34.6128 68.1647 34.6992Z" fill="white"/>
<path d="M58.0045 58.3207C58.054 58.4177 58.4404 58.4401 58.5355 58.4313C58.5326 58.3983 58.5161 57.9255 58.4123 58.0187C58.3928 58.0362 57.9841 58.2818 58.0045 58.3207Z" fill="white"/>
<path d="M56.7736 56.509C56.9785 56.643 56.6008 56.3974 56.7736 56.509Z" fill="white"/>
<path d="M60.0942 59.5166C60.0644 59.6424 60.0116 59.5252 60.0942 59.5166Z" fill="white"/>
<path d="M68.857 49.104C69.0569 49.0428 68.7939 49.3389 68.857 49.104Z" fill="white"/>
<path d="M70.9082 53.5131C70.9908 53.5045 70.9504 53.6341 70.9082 53.5131Z" fill="white"/>
<path d="M69.8103 52.9307C69.7482 52.886 69.5463 53.1093 69.6385 53.1879C69.7589 53.2908 69.9948 53.0627 69.8103 52.9307Z" fill="white"/>
<path d="M64.4147 48.3039C64.5147 48.3544 64.6156 48.367 64.7195 48.3427C64.8971 48.2553 64.4787 48.0971 64.4147 48.3039Z" fill="white"/>
<path d="M68.7988 51.5551C68.7192 51.6095 68.6308 51.6367 68.5328 51.6367C68.5104 52.1541 68.9725 51.3435 68.7988 51.5551Z" fill="white"/>
<path d="M67.8996 51.0992C67.9831 50.9456 67.8535 51.1798 67.8996 51.0992Z" fill="white"/>
<path d="M65.9667 49.4258C66.0983 49.325 65.9005 49.4748 65.9667 49.4258Z" fill="white"/>
<path d="M64.7525 54.5291C64.7717 54.3735 64.7391 54.6385 64.7525 54.5291Z" fill="white"/>
<path d="M64.2865 54.0045C64.2574 53.9947 64.0419 53.8579 64.1244 53.9588C64.1642 54.0054 64.3128 54.0443 64.2865 54.0045Z" fill="white"/>
<path d="M67.2529 55.9516C67.2961 55.8748 67.1713 56.1023 67.2529 55.9516Z" fill="white"/>
<path d="M63.1346 53.3103C63.1384 53.3938 63.0175 53.3621 63.1346 53.3103Z" fill="white"/>
<path d="M68.8432 57.2693C68.8259 57.2933 68.8202 57.3029 68.8432 57.2693Z" fill="white"/>
<path d="M68.8434 57.2692C68.8521 57.2566 68.8647 57.2382 68.8832 57.2119C68.8997 57.1886 68.9045 57.1809 68.9094 57.175C68.8958 57.1954 68.8638 57.2411 68.8434 57.2692Z" fill="white"/>
<path d="M66.5858 55.0645C66.5513 55.1883 66.5052 55.0721 66.5858 55.0645Z" fill="white"/>
<path d="M68.8922 57.4611C69.018 57.5129 68.7223 57.3901 68.8884 57.4592C68.8797 57.4553 68.8663 57.4505 68.8922 57.4611Z" fill="white"/>
<path d="M65.7786 55.7713C65.9708 55.7121 65.8087 55.5723 65.7786 55.7713Z" fill="white"/>
<path d="M66.0707 58.2808C66.063 58.3057 66.0572 58.323 66.0563 58.324C66.0668 58.3086 66.0707 58.2942 66.0707 58.2808Z" fill="white"/>
<path d="M66.8426 57.4188C66.9154 57.3266 66.6941 57.0829 66.5854 57.1596C66.131 57.4848 65.6748 56.8732 65.0263 56.9053C65.0263 56.9723 65.037 57.0383 65.0593 57.1033C65.1612 57.0858 65.2622 57.0664 65.3632 57.047C65.2923 57.3072 64.9312 57.7178 64.9622 57.9091C64.9933 58.0974 66.0612 58.0906 66.0689 58.2818C66.1175 58.1304 66.2825 57.6081 66.2912 57.5188C66.3262 57.1703 66.7388 57.5489 66.8417 57.4188H66.8426ZM66.0796 57.6994C66.1068 57.8964 65.866 57.6693 65.8476 57.6693C65.9019 57.6246 66.066 57.6004 66.0796 57.6994Z" fill="white"/>
<path d="M61.4168 50.4854C61.3761 50.4408 60.9848 50.697 61.4382 50.7825C61.5498 50.6504 61.543 50.5514 61.4168 50.4854Z" fill="white"/>
<path d="M67.8254 58.1865C67.9118 58.368 67.6708 58.2048 67.8254 58.1865Z" fill="white"/>
<path d="M64.5907 54.4355C64.5945 54.5191 64.4745 54.4864 64.5907 54.4355Z" fill="white"/>
<path d="M62.4236 50.6902C62.5445 50.719 62.4274 50.7747 62.4236 50.6902Z" fill="white"/>
<path d="M57.4084 46.3149C57.5304 46.3437 57.4123 46.3994 57.4084 46.3149Z" fill="white"/>
<path d="M60.4018 48.8365C60.3989 48.753 60.276 48.8125 60.4018 48.8365Z" fill="white"/>
<path d="M60.1118 47.9514C60.154 47.8756 60.0302 48.1002 60.1118 47.9514Z" fill="white"/>
<path d="M61.9861 49.4889C61.9813 49.4044 61.8641 49.461 61.9861 49.4889Z" fill="white"/>
<path d="M61.4728 49.1624C61.5045 49.029 61.3836 49.1711 61.4728 49.1624Z" fill="white"/>
<path d="M59.1113 47.1371C59.1501 46.9293 59.0511 47.0614 59.0122 47.1565C58.9977 47.0536 58.9753 46.9526 58.9666 46.9264C57.8861 45.9906 58.9016 47.4681 58.9986 47.406C59.0268 47.3875 59.0287 47.3118 59.021 47.2245C59.0375 47.2186 59.0647 47.1992 59.1093 47.1546C59.1113 47.1439 59.1122 47.1381 59.1122 47.1371H59.1113Z" fill="white"/>
<path d="M63.5953 51.8219C63.723 51.772 63.5992 51.9112 63.5953 51.8219Z" fill="white"/>
<path d="M59.9286 48.3276C60.014 48.318 59.8873 48.2057 59.9286 48.3276Z" fill="white"/>
<path d="M59.3521 47.7935C59.4778 47.8165 59.3559 47.877 59.3521 47.7935Z" fill="white"/>
<path d="M62.0071 50.3816C61.9411 50.435 61.9042 50.5039 61.8955 50.5893C61.9596 50.6282 62.0266 50.6359 62.0974 50.6136C62.1683 50.5078 62.1372 50.4311 62.0062 50.3816H62.0071Z" fill="white"/>
<path d="M57.4686 46.4712C57.5925 46.5 57.4725 46.5518 57.4686 46.4712Z" fill="white"/>
<path d="M56.1202 62.5201C56.1481 62.689 56.1087 62.4414 56.1202 62.5201Z" fill="white"/>
<path d="M53.9455 68.6495C53.9503 68.6543 53.9071 68.6091 53.9455 68.6495Z" fill="white"/>
<path d="M53.9456 68.6498C54.001 68.708 53.6165 68.3091 53.9456 68.6498Z" fill="white"/>
<path d="M61.4615 69.906C61.6139 69.8477 61.1984 70.0118 61.4615 69.906Z" fill="white"/>
<path d="M59.1074 65.6713C59.2666 65.6091 58.8365 65.78 59.1074 65.6713Z" fill="white"/>
<path d="M58.8589 69.9419C58.953 69.9179 58.9213 69.7854 58.8589 69.9419Z" fill="white"/>
<path d="M60.2636 70.3798C60.1859 70.3837 60.1121 70.3778 60.0413 70.3613C59.8821 70.4895 59.8345 70.6186 59.8995 70.7487C59.9927 70.7098 60.085 70.672 60.1782 70.6331C60.2626 70.5623 60.2917 70.4769 60.2636 70.3798Z" fill="white"/>
<path d="M58.3307 65.2029C58.4344 65.1415 58.3432 65.1329 58.3307 65.2029Z" fill="white"/>
<path d="M58.4462 67.5256C58.5123 67.5722 58.6744 67.0606 58.254 67.3635C58.3181 67.4169 58.3822 67.4713 58.4462 67.5256Z" fill="white"/>
<path d="M60.5121 71.1145C60.6247 71.0543 60.6665 70.9669 60.6373 70.8524C60.6373 70.8291 60.4791 70.9893 60.5121 71.1145Z" fill="white"/>
<path d="M63.9507 68.5079C64.1866 68.5894 63.6963 68.4215 63.9507 68.5079Z" fill="white"/>
<path d="M61.0751 65.7618C61.1768 65.7368 61.0482 65.6206 61.0751 65.7618Z" fill="white"/>
<path d="M52.0954 61.5727C52.2071 61.4407 52.2003 61.3417 52.0741 61.2757C52.0333 61.231 51.6421 61.4873 52.0954 61.5727Z" fill="white"/>
<path d="M63.2683 68.4741C63.2587 68.573 63.1205 68.5548 63.2683 68.4741Z" fill="white"/>
<path d="M60.9441 65.8426C61.0238 65.8349 60.9787 65.7178 60.9441 65.8426Z" fill="white"/>
<path d="M55.798 63.0608C55.9154 63.0317 55.565 63.1191 55.798 63.0608Z" fill="white"/>
<path d="M55.7978 63.061C55.8045 63.0591 55.7517 63.0725 55.7978 63.061Z" fill="white"/>
<path d="M52.6422 60.2418C52.646 60.3282 52.5145 60.2178 52.6422 60.2418Z" fill="white"/>
<path d="M63.7102 67.1741C63.6487 67.3286 63.6123 67.1981 63.7102 67.1741Z" fill="white"/>
<path d="M62.4278 66.1587C62.3702 66.3171 62.3308 66.1827 62.4278 66.1587Z" fill="white"/>
<path d="M52.1309 59.9527C52.1626 59.8193 52.0416 59.9613 52.1309 59.9527Z" fill="white"/>
<path d="M64.333 68.4878C64.4338 68.4619 64.3071 68.3467 64.333 68.4878Z" fill="white"/>
<path d="M55.8042 62.792C55.7696 62.9168 55.7236 62.7997 55.8042 62.792Z" fill="white"/>
<path d="M66.2437 40.997C66.4931 41.2018 66.4145 40.7077 66.2437 40.997Z" fill="white"/>
<path d="M65.0214 68.2944C65.068 68.2449 64.8098 68.5109 65.0214 68.2944Z" fill="white"/>
<path d="M63.3284 67.3332C63.4253 67.3083 63.3552 67.4715 63.3284 67.3332Z" fill="white"/>
<path d="M51.0589 59.6277C51.0541 59.5442 50.9332 59.6047 51.0589 59.6277Z" fill="white"/>
<path d="M58.8812 71.0261C58.9055 71.1543 58.8288 70.7611 58.8812 71.0261Z" fill="white"/>
<path d="M58.1405 66.2644C58.0298 67.308 58.4279 66.413 58.5094 66.5071C58.4298 66.4139 58.3046 66.6605 58.2958 66.5411C58.2793 66.3324 58.5647 66.5304 58.5036 66.0645C58.3949 66.1246 58.2861 66.1839 58.1784 66.2441C58.1842 66.2198 58.1784 66.2091 58.1424 66.2644H58.1405Z" fill="white"/>
<path d="M59.5863 65.265C59.5969 65.168 59.449 65.2535 59.5863 65.265Z" fill="white"/>
<path d="M58.1714 65.7504C58.254 65.6016 58.1282 65.8263 58.1714 65.7504Z" fill="white"/>
<path d="M59.3086 65.0004C59.395 64.9284 59.1358 65.1463 59.3086 65.0004Z" fill="white"/>
<path d="M54.7252 71.1776C54.831 71.1989 54.7592 70.9242 54.6301 70.9776C54.5641 71.0048 54.6641 71.165 54.7252 71.1776Z" fill="white"/>
<path d="M54.5798 70.9836C54.6586 70.9826 54.407 70.9836 54.5798 70.9836Z" fill="white"/>
<path d="M48.1531 65.3598C48.2763 65.186 47.9686 65.6258 48.1531 65.3598Z" fill="white"/>
<path d="M52.9836 69.4731C53.1613 69.6866 53.6826 70.0041 53.7292 70.0546C53.5516 69.8604 53.3273 69.4003 52.9836 69.4731Z" fill="white"/>
<path d="M45.56 70.437C45.529 70.6428 45.3717 70.4953 45.56 70.437Z" fill="white"/>
<path d="M50.2246 71.6494C50.4625 71.6756 50.2848 71.8824 50.2246 71.6494Z" fill="white"/>
<path d="M46.8551 70.27C46.8774 70.27 46.8998 70.2515 46.8337 70.2583C46.8968 70.3904 47.0162 70.6301 47.1444 70.3477C47.0376 70.3661 46.9415 70.337 46.8551 70.27Z" fill="white"/>
<path d="M45.7523 68.7003C45.7086 68.5411 45.6096 68.6197 45.5242 68.6091C45.5679 68.7683 45.6669 68.6896 45.7523 68.7003Z" fill="white"/>
<path d="M46.6414 70.4826C46.7424 70.3826 46.5667 70.2321 46.4919 70.3195C46.4968 70.466 46.5473 70.5204 46.6414 70.4826Z" fill="white"/>
<path d="M46.4134 70.2536C46.6891 70.4109 46.2551 70.1633 46.4134 70.2536Z" fill="white"/>
<path d="M45.2329 67.9808C45.2338 67.9915 45.2465 67.9983 45.2853 67.9837C45.2853 67.9672 45.2804 67.9595 45.2756 67.9536C45.2465 67.8138 45.0746 67.7032 44.9756 67.6702C44.9329 67.8799 45.0222 67.9798 45.2329 67.9808Z" fill="white"/>
<path d="M45.2888 67.7625C45.2504 67.8105 45.2235 67.845 45.2888 67.7625Z" fill="white"/>
<path d="M45.2902 67.7597C45.2969 67.7511 45.2988 67.7482 45.3074 67.7376C45.3804 67.6455 45.3324 67.706 45.2902 67.7597Z" fill="white"/>
<path d="M45.3085 67.7381C45.3344 67.7054 45.2739 67.7822 45.3085 67.7381Z" fill="white"/>
<path d="M50.8651 70.0281C50.9044 69.9541 50.7844 70.1749 50.8651 70.0281Z" fill="white"/>
<path d="M47.4259 66.7596C47.5094 66.7519 47.4672 66.8796 47.4259 66.7596Z" fill="white"/>
<path d="M48.5333 66.3095C48.6081 66.4334 48.444 66.1588 48.5256 66.2961C48.5256 66.2961 48.5285 66.2999 48.5333 66.3095Z" fill="white"/>
<path d="M48.8801 66.1364C48.8005 66.0976 48.7025 66.4073 48.6772 66.4548C48.8947 66.6082 49.1393 66.2616 48.8801 66.1364Z" fill="white"/>
<path d="M47.52 66.2121C47.7462 66.1917 47.8404 66.513 48.1433 66.3616C48.2297 66.0344 47.8016 65.8402 47.4929 65.7839C47.4851 65.8723 47.2492 66.2383 47.52 66.2121Z" fill="white"/>
<path d="M49.6925 69.8223C49.704 69.8271 49.6541 69.8069 49.6925 69.8223Z" fill="white"/>
<path d="M49.6926 69.8224C49.8247 69.8768 49.5092 69.7467 49.6926 69.8224Z" fill="white"/>
<path d="M52.9005 72.7323C52.8957 72.6488 52.7796 72.7045 52.9005 72.7323Z" fill="white"/>
<path d="M53.863 72.6576C53.9983 72.5549 53.7939 72.7114 53.863 72.6576Z" fill="white"/>
<path d="M47.1929 66.3625C47.1784 66.0412 47.0366 66.2946 47.1929 66.3625Z" fill="white"/>
<path d="M52.9233 71.3315C53.0059 71.1827 52.8811 71.4073 52.9233 71.3315Z" fill="white"/>
<path d="M53.818 69.4162C53.7719 69.3001 53.7345 69.4249 53.818 69.4162Z" fill="white"/>
<path d="M53.3778 69.1525C53.5055 69.1016 53.3816 69.2428 53.3778 69.1525Z" fill="white"/>
<path d="M54.8364 70.383C54.8326 70.3772 54.8239 70.3667 54.8076 70.3427C54.7798 70.3053 54.822 70.3628 54.8364 70.383Z" fill="white"/>
<path d="M56.2774 71.5774C56.4175 71.6514 56.2121 71.5448 56.2774 71.5774Z" fill="white"/>
<path d="M51.0611 71.9454C51.1081 71.8648 50.9776 72.099 51.0611 71.9454Z" fill="white"/>
<path d="M45.8523 67.5091C45.9426 67.5731 46.0144 67.5722 46.0658 67.5061C46.0484 67.4634 45.8562 67.3382 45.8377 67.3557C45.6387 67.5023 45.6436 67.5537 45.8513 67.51L45.8523 67.5091Z" fill="white"/>
<path d="M48.3986 69.2458C48.5243 69.2698 48.4024 69.3294 48.3986 69.2458Z" fill="white"/>
<path d="M52.9574 72.8503C52.9641 72.8973 52.9574 72.8445 52.9574 72.8503Z" fill="white"/>
<path d="M52.9574 72.8504C53.0118 73.2465 52.9487 72.7912 52.9574 72.8504Z" fill="white"/>
<path d="M50.6211 70.9645C50.6163 70.88 50.5002 70.9366 50.6211 70.9645Z" fill="white"/>
<path d="M47.0045 68.0702C47.0967 68.0974 47.2569 67.9663 47.1987 67.9673C47.0929 67.9401 47.0288 67.9741 47.0045 68.0702Z" fill="white"/>
<path d="M46.3503 67.078C46.4085 67.0227 46.3648 66.9731 46.2192 66.9314C46.0911 66.9353 46.3687 67.0838 46.3503 67.078Z" fill="white"/>
<path d="M47.7481 70.2747C47.9295 70.3371 47.6933 70.2555 47.7481 70.2747Z" fill="white"/>
<path d="M50.5239 72.2697C50.6286 72.2783 50.3502 72.2572 50.5239 72.2697Z" fill="white"/>
<path d="M45.5114 68.2365C45.6324 68.1885 45.5076 68.1529 45.5114 68.2365Z" fill="white"/>
<path d="M51.2035 73.1129C51.1987 73.0284 51.0826 73.0841 51.2035 73.1129Z" fill="white"/>
<path d="M50.3146 72.0183C50.3549 71.9434 50.233 72.1661 50.3146 72.0183Z" fill="white"/>
<path d="M52.3017 73.8659C52.3103 73.7037 52.2076 73.8755 52.3017 73.8659Z" fill="white"/>
<path d="M49.7295 72.0047C49.7917 71.7698 49.5296 72.0658 49.7295 72.0047Z" fill="white"/>
<path d="M52.2601 73.7123C52.1669 73.7469 52.3349 73.6845 52.2677 73.7094C52.2697 73.7094 52.2677 73.7094 52.2601 73.7123Z" fill="white"/>
<path d="M47.3511 70.3428C47.4576 70.3956 47.3588 70.3217 47.3511 70.3428Z" fill="white"/>
<path d="M47.3337 70.3583C47.3337 70.3583 47.3414 70.3554 47.3511 70.3437C47.4395 70.3175 47.5269 70.2903 47.6152 70.2641C47.5754 70.2263 47.5307 70.2185 47.4822 70.2399C47.4511 70.1418 47.655 70.269 47.5812 70.1535C47.3366 69.7739 47.322 70.2544 47.3414 70.3369C47.2152 70.2369 47.2512 70.4292 47.3346 70.3583H47.3337Z" fill="white"/>
<path d="M50.5168 72.1584C50.5994 72.1517 50.5514 72.0356 50.5168 72.1584Z" fill="white"/>
<path d="M50.572 72.2649C50.7438 72.2304 50.476 72.2851 50.572 72.2649Z" fill="white"/>
<path d="M47.4 69.6817C47.4029 69.7681 47.2723 69.6577 47.4 69.6817Z" fill="white"/>
<path d="M47.5599 69.6507C47.5356 69.7303 47.6006 69.9419 47.6705 70.0011C47.788 70.1002 47.8346 69.6051 47.5599 69.6507Z" fill="white"/>
<path d="M45.4989 67.9693C45.5824 67.9616 45.5402 68.0903 45.4989 67.9693Z" fill="white"/>
<path d="M50.7513 70.3069C50.7215 70.4326 50.6687 70.3155 50.7513 70.3069Z" fill="white"/>
<path d="M49.1937 69.2225C49.1888 69.1594 49.1976 68.9118 49.185 68.8603C49.1354 68.6623 48.6559 69.0982 48.6627 69.1118C48.7122 69.2089 49.0985 69.2312 49.1937 69.2225Z" fill="white"/>
<path d="M60.2248 46.4479C60.0549 46.3314 59.9724 46.3702 59.9782 46.5634C60.0355 46.5702 60.6946 46.7139 60.2248 46.4479Z" fill="white"/>
<path d="M61.5294 47.8002C61.8158 47.7895 61.2304 47.8109 61.5294 47.8002Z" fill="white"/>
<path d="M65.599 51.4863C65.6451 51.4892 65.5923 51.4863 65.599 51.4863Z" fill="white"/>
<path d="M65.599 51.4862C65.8718 51.5007 65.4844 51.4804 65.599 51.4862Z" fill="white"/>
<path d="M60.0219 45.9499C60.385 46.047 60.5063 46.0062 60.3869 45.8276C60.3325 45.583 60.0015 45.7383 60.0219 45.9499Z" fill="white"/>
<path d="M60.439 45.8622C60.6099 45.8267 60.344 45.8824 60.439 45.8622Z" fill="white"/>
<path d="M70.8219 54.0074C70.7646 53.9511 70.6569 54.1812 70.7763 54.1676C70.9782 54.1783 70.9937 54.1249 70.8219 54.0074Z" fill="white"/>
<path d="M66.6708 50.831C66.6708 50.831 66.6766 50.8281 66.6717 50.7902C66.595 50.7232 66.3339 50.6096 66.2572 50.7659C66.2048 50.8727 66.5281 51.0649 66.5543 51.0708C66.6523 51.0164 66.6844 50.9329 66.6708 50.83V50.831Z" fill="white"/>
<path d="M67.2827 51.6081C67.2376 51.4919 67.1982 51.6157 67.2827 51.6081Z" fill="white"/>
<path d="M67.0341 51.6684C67.0303 51.5858 66.9093 51.6434 67.0341 51.6684Z" fill="white"/>
<path d="M59.7747 46.5143C59.7708 46.4298 59.6527 46.4855 59.7747 46.5143Z" fill="white"/>
<path d="M61.679 48.37C61.6926 48.5389 61.5548 48.6 61.8004 48.5758C61.8285 48.4806 61.7994 48.4185 61.7188 48.3855C61.7548 48.3836 61.7868 48.3671 61.679 48.37Z" fill="white"/>
<path d="M60.2567 47.6506C60.4946 47.6749 60.3179 47.8836 60.2567 47.6506Z" fill="white"/>
<path d="M67.9526 54.5195C68.016 54.5512 67.8144 54.4456 67.9526 54.5195Z" fill="white"/>
<path d="M64.6185 50.5561C64.5845 50.4571 64.435 50.5484 64.4729 50.6299C64.535 50.7668 64.6748 50.727 64.6185 50.5561Z" fill="white"/>
<path d="M62.3003 48.9566C62.4164 48.9058 62.2964 48.8731 62.3003 48.9566Z" fill="white"/>
<path d="M65.4621 51.7288C65.4899 51.9007 65.4496 51.6472 65.4621 51.7288Z" fill="white"/>
<path d="M65.4679 51.5717C65.6291 51.5852 65.1844 51.5454 65.4679 51.5717Z" fill="white"/>
<path d="M60.7417 47.7109C60.7081 47.8338 60.6582 47.7186 60.7417 47.7109Z" fill="white"/>
<path d="M59.8082 46.8869C59.8955 46.8783 59.764 46.764 59.8082 46.8869Z" fill="white"/>
<path d="M68.918 54.5495C69.0006 54.3988 68.8748 54.6273 68.918 54.5495Z" fill="white"/>
<path d="M58.922 45.8479C59.055 45.9032 58.7365 45.7712 58.922 45.8479Z" fill="white"/>
<path d="M69.8471 46.8778C69.9422 47.0074 69.802 46.8163 69.8471 46.8778Z" fill="white"/>
<path d="M64.6681 42.4308C64.77 42.4396 64.7409 42.1726 64.6137 42.1697C64.5487 42.2075 64.4836 42.2464 64.4186 42.2842C64.6865 42.2891 64.4584 42.4153 64.6681 42.4308Z" fill="white"/>
<path d="M64.4024 42.2481C64.5041 42.2558 64.2315 42.2356 64.4024 42.2481Z" fill="white"/>
<path d="M56.1687 62.3823C56.1804 62.3124 56.126 62.659 56.1687 62.3823Z" fill="white"/>
<path d="M68.2011 55.2295C68.1714 55.3562 68.1176 55.2372 68.2011 55.2295Z" fill="white"/>
<path d="M64.404 51.9599C64.336 51.9065 64.2642 51.891 64.1885 51.9123C64.2011 52.1735 64.438 52.0744 64.404 51.9599Z" fill="white"/>
<path d="M69.2123 55.3928C68.9551 55.418 68.8803 55.7898 69.1424 55.8733C69.1638 55.7539 69.2502 55.485 69.2317 55.3879C69.2084 55.3879 69.2075 55.3908 69.2123 55.3918V55.3928Z" fill="white"/>
<path d="M69.6249 57.9583C69.6831 57.9894 69.7414 58.0156 69.8113 57.9865C69.753 57.8991 69.6909 57.8897 69.6249 57.9583Z" fill="white"/>
<path d="M69.586 58.0807C69.4074 58.0399 69.353 58.1409 69.2646 58.2758C69.4637 58.3447 69.5704 58.2797 69.586 58.0807Z" fill="white"/>
<path d="M69.8949 57.9875C69.869 58.0767 69.7442 57.9375 69.8949 57.9875Z" fill="white"/>
<path d="M70.0442 58.0744C70.1709 58.0629 70.0672 57.9938 70.0442 58.0744Z" fill="white"/>
<path d="M68.966 60.1661C68.8988 60.2765 68.8834 60.1479 68.966 60.1661Z" fill="white"/>
<path d="M69.5229 59.7058C69.6045 59.7241 69.5249 59.8335 69.5229 59.7058Z" fill="white"/>
<path d="M68.6648 58.807C68.6192 58.7449 68.358 58.8924 68.4201 58.9973C68.5017 59.1332 68.7978 58.9905 68.6648 58.807Z" fill="white"/>
<path d="M69.285 60.1477C69.2481 60.0768 69.0734 60.2613 69.1918 60.2856C69.3802 60.3593 69.4112 60.3137 69.285 60.1477Z" fill="white"/>
<path d="M67.3075 60.0627C67.4332 59.9456 67.2422 60.1232 67.3075 60.0627Z" fill="white"/>
<path d="M67.3212 60.9553C67.0688 60.8981 66.8805 61.2272 67.1037 61.3903C67.162 61.2844 67.328 61.0553 67.3416 60.9583C67.3193 60.9515 67.3183 60.9534 67.3212 60.9563V60.9553Z" fill="white"/>
<path d="M69.4045 57.0538C69.4628 57.0849 69.521 57.1111 69.5909 57.082C69.5327 56.9946 69.4706 56.9852 69.4045 57.0538Z" fill="white"/>
<path d="M69.3656 57.1759C69.187 57.1351 69.1327 57.2361 69.0443 57.371C69.2433 57.44 69.3501 57.3749 69.3656 57.1759Z" fill="white"/>
<path d="M69.6736 57.0827C69.6477 57.172 69.5229 57.0328 69.6736 57.0827Z" fill="white"/>
<path d="M69.8239 57.1696C69.9506 57.1581 69.8469 57.089 69.8239 57.1696Z" fill="white"/>
<path d="M68.7456 59.2613C68.6784 59.3717 68.6631 59.2431 68.7456 59.2613Z" fill="white"/>
<path d="M69.3026 58.801C69.3842 58.8193 69.3045 58.9287 69.3026 58.801Z" fill="white"/>
<path d="M68.4443 57.9022C68.3987 57.8401 68.1376 57.9876 68.1997 58.0925C68.2812 58.2284 68.5773 58.0857 68.4443 57.9022Z" fill="white"/>
<path d="M69.0647 59.2429C69.0278 59.172 68.8531 59.3565 68.9715 59.3808C69.1598 59.4545 69.1909 59.4089 69.0647 59.2429Z" fill="white"/>
<path d="M67.087 59.1579C67.2128 59.0408 67.0217 59.2184 67.087 59.1579Z" fill="white"/>
<path d="M67.1009 60.0506C66.8485 59.9933 66.6601 60.3224 66.8834 60.4855C66.9416 60.3797 67.1076 60.1506 67.1212 60.0535C67.0989 60.0467 67.0979 60.0486 67.1009 60.0515V60.0506Z" fill="white"/>
<path d="M72.1071 52.6492C72.1702 52.6288 72.2295 52.6045 72.2566 52.5336C72.1531 52.5155 72.1033 52.554 72.1071 52.6492Z" fill="white"/>
<path d="M72.1674 52.762C72.015 52.8629 72.0509 52.9716 72.0868 53.1289C72.2732 53.0318 72.3004 52.9095 72.1674 52.762Z" fill="white"/>
<path d="M72.3133 52.4736C72.3604 52.5543 72.1732 52.5485 72.3133 52.4736Z" fill="white"/>
<path d="M72.4788 52.4242C72.5576 52.3244 72.4366 52.3522 72.4788 52.4242Z" fill="white"/>
<path d="M73.2524 54.6472C73.287 54.772 73.1823 54.6943 73.2524 54.6472Z" fill="white"/>
<path d="M73.3032 53.9267C73.3973 54.0141 73.3723 53.8806 73.3032 53.9267Z" fill="white"/>
<path d="M72.0596 53.9297C71.9838 53.92 71.9101 54.2112 72.0285 54.2374C72.1829 54.2714 72.2838 53.9588 72.0596 53.9297Z" fill="white"/>
<path d="M73.4595 54.4035C73.3828 54.3812 73.3954 54.6345 73.4954 54.5656C73.6789 54.4792 73.6672 54.4258 73.4595 54.4035Z" fill="white"/>
<path d="M72.0344 55.7783C72.0363 55.6064 72.0324 55.8675 72.0344 55.7783Z" fill="white"/>
<path d="M72.6906 56.384C72.476 56.5276 72.5848 56.8907 72.8556 56.8412C72.8187 56.7257 72.7673 56.448 72.7061 56.3713C72.6857 56.383 72.6857 56.3849 72.6906 56.384Z" fill="white"/>
<path d="M60.0465 48.1181C60.0427 48.0355 59.9207 48.0941 60.0465 48.1181Z" fill="white"/>
<path d="M72.1693 51.1937C72.3104 51.1764 72.1818 51.1524 72.1693 51.1937Z" fill="white"/>
<path d="M71.96 51.8037C71.9639 51.8872 71.8391 51.8517 71.96 51.8037Z" fill="white"/>
<path d="M69.3297 49.6967C69.3326 49.7754 69.3249 49.5988 69.3297 49.6967Z" fill="white"/>
<path d="M69.3049 49.7229C69.3797 49.6365 69.1541 49.719 69.3049 49.7229Z" fill="white"/>
<path d="M62.1166 43.4896C62.2798 43.4233 62.0398 43.5184 62.1166 43.4896Z" fill="white"/>
</g>
<defs>
<clipPath id="clip0_2252_6386">
<rect width="90" height="90" fill="white"/>
</clipPath>
</defs>
</svg>
