<svg width="140" height="44" fill="none" xmlns="http://www.w3.org/2000/svg"><path d="M8.108 39.324c0 1.622-.405 2.703-1.351 3.514-.54.54-1.352.675-2.433.675-1.351 0-2.297-.54-3.108-1.486-.675-.946-.946-1.892-.946-2.973 0-1.351.27-2.432 1.081-3.378.406-.406.811-.811 1.217-1.081a3.74 3.74 0 0 1 1.756-.406c.676 0 1.217.135 1.892.27.54.136.946.406 1.216.811.136.135.136.27.136.406 0 .135 0 .27-.136.405-.135.135-.27.135-.405.135s-.27 0-.405-.135c-.406-.27-.676-.54-.946-.676-.406-.135-.676-.27-1.217-.27-.945 0-1.756.406-2.297 1.216a4.667 4.667 0 0 0-.676 2.433c0 1.351.406 2.297 1.082 3.108.405.405.946.675 1.621.675.406 0 .946-.135 1.352-.27.945-.405 1.486-1.351 1.486-2.567v-.406H5.405c-.27 0-.54-.135-.54-.54 0-.406.135-.54.54-.54h2.027c.406 0 .676.405.676.945v.135zM139.865 39.324c0 1.622-.406 2.703-1.351 3.514-.541.54-1.352.675-2.433.675-1.351 0-2.297-.54-3.108-1.486-.676-.946-.946-1.892-.946-2.973 0-1.351.27-2.432 1.081-3.378.406-.406.811-.811 1.216-1.081a3.742 3.742 0 0 1 1.757-.406c.676 0 1.216.135 1.892.27.541.136.946.406 1.216.811.135.135.135.27.135.406 0 .135 0 .27-.135.405s-.27.135-.405.135-.27 0-.406-.135c-.405-.27-.675-.54-.946-.676-.405-.135-.675-.27-1.216-.27-.946 0-1.757.406-2.297 1.216a4.67 4.67 0 0 0-.676 2.433c0 1.351.406 2.297 1.081 3.108a2.24 2.24 0 0 0 1.622.675c.405 0 .946-.135 1.351-.27.946-.405 1.487-1.351 1.487-2.567v-.406h-1.622c-.27 0-.54-.135-.54-.54 0-.406.135-.54.54-.54h2.027c.541 0 .811.27.811.81v.27h-.135zM63.919 42.838c0 .54-.135.81-.54.81-.27 0-.541-.135-.541-.54l-1.081-7.432-2.162 7.432c-.136.27-.27.406-.54.406-.271 0-.541-.136-.541-.406l-2.163-7.432-1.08 7.432c0 .406-.271.54-.676.54-.27 0-.54-.27-.54-.675v-.27L55.404 35c0-.27.136-.405.27-.54.136-.136.406-.27.541-.27.27 0 .406 0 .54.134.136.136.271.27.271.406l1.892 6.621 1.892-6.756c0-.136.135-.27.27-.406.135-.135.27-.135.54-.135s.406 0 .541.135.27.27.27.54l1.487 8.109zM85 42.973c0 .405-.135.676-.54.676-.406 0-.541-.136-.541-.54V35c0-.405.135-.54.54-.54.406 0 .541.135.541.54v7.973zM112.162 42.973c0 .405-.135.54-.54.54-.271 0-.406-.135-.676-.405l-4.865-6.892v6.622c0 .405-.135.54-.54.54-.406 0-.541-.135-.541-.54V34.73c0-.406.135-.54.405-.54.271 0 .406.134.676.405l4.73 6.891v-6.621c0-.135 0-.27.135-.406.135-.135.27-.135.405-.135.406 0 .541.135.541.54v8.109h.27zM34.865 43.108c0 .27-.135.406-.54.406-.136 0-.27 0-.406-.136-.135 0-.135 0-.135-.135l-.54-1.621h-4.19l-.81 1.621c-.136.27-.271.406-.541.406s-.54-.136-.54-.406v-.27l2.972-7.838c.135-.27.135-.405.27-.54.136-.136.27-.136.406-.136.135 0 .27 0 .54.136.136.135.27.27.27.54l2.974 7.838c.27 0 .27.135.27.135zm-2.027-2.567-1.757-5-1.892 5h3.649zM117.297 7.297a3.649 3.649 0 1 0 0-7.298 3.649 3.649 0 0 0 0 7.298zM140 3.649a3.634 3.634 0 0 1-3.649 3.648 3.633 3.633 0 0 1-3.648-3.648A3.633 3.633 0 0 1 136.351 0 3.634 3.634 0 0 1 140 3.649zM117.297 25.135a3.649 3.649 0 1 0 0-7.298 3.649 3.649 0 0 0 0 7.298zM140 21.486a3.634 3.634 0 0 1-3.649 3.65 3.633 3.633 0 0 1-3.648-3.65 3.633 3.633 0 0 1 3.648-3.648A3.634 3.634 0 0 1 140 21.486zM130.54 12.568a3.633 3.633 0 0 1-3.648 3.648 3.634 3.634 0 0 1-3.649-3.649 3.634 3.634 0 0 1 3.649-3.648 3.633 3.633 0 0 1 3.648 3.649zM107.568 24.324 97.432.405c-.135-.27-.27-.405-.54-.405h-4.324c-.27 0-.406.135-.541.405l-10.27 23.92v.134c0 .27.135.406.405.406h4.595c.27 0 .405-.135.54-.405l2.163-5.541h10.81l2.162 5.54c.136.27.271.406.541.406h4.595c.27 0 .405-.135.405-.405-.27 0-.27-.136-.405-.136zm-16.622-9.73L94.73 5l3.783 9.595h-7.567zM35.54 7.703c.27-.946.676-1.352.676-1.352s.54-.946 1.757-1.486c1.216-.54 2.297-.54 2.297-.54h9.054c.27 0 .54-.271.54-.541V.54c0-.27-.27-.541-.54-.541h-10c-5.54 0-10 4.865-10 10.81V14.325c0 5.946 4.46 10.811 10 10.811h10c.27 0 .54-.27.54-.54v-3.379c0-.27-.27-.54-.54-.54H40.27s-1.216 0-2.297-.54c-1.216-.541-1.757-1.487-1.757-1.487s-.405-.54-.675-1.352c-.27-.946-.27-2.162-.27-2.162v-.54h14.053c.27 0 .54-.27.54-.54v-3.38c0-.27-.27-.54-.54-.54H35.27v-.27s.135-1.216.27-2.162zM66.622 24.865h8.243c.27 0 .405-.27.405-.54v-3.38c0-.27-.135-.54-.405-.54h-7.433s-.945 0-1.892-.54c-.945-.54-1.486-1.487-1.486-1.487s-.54-.54-.54-1.486V.405c0-.27-.136-.405-.406-.405h-4.324c-.27 0-.54.27-.54.54V17.028c.134 4.324 3.783 7.838 8.378 7.838zM22.297 24.324l-5.81-9.73c2.973-.675 5-2.702 5-7.162.135-5.946-3.92-7.297-8.92-7.432H.542C.27 0 0 .27 0 .54v23.92c0 .27.27.54.54.54h4.325c.27 0 .54-.27.54-.54v-9.325h6.081l5.406 9.46c.135.27.405.405.676.405h4.594c.27 0 .406-.135.406-.405-.27-.136-.27-.27-.27-.27zm-9.594-13.648-1.352.135h-6.08V4.459h7.432c2.838 0 3.648 1.352 3.648 3.109-.135 1.756-.946 3.108-3.648 3.108z" fill="#fff"/></svg>