<svg width="182" height="44" viewBox="0 0 182 44" fill="none" xmlns="http://www.w3.org/2000/svg">
<g clip-path="url(#clip0_2209_12)">
<path d="M94.7934 1.15053C94.7329 0.605574 94.289 0.201904 93.7442 0.201904H81.0526C80.5078 0.201904 80.0639 0.625758 80.0034 1.15053L76.2908 42.668C76.2302 43.2735 76.7145 43.8184 77.34 43.8184H83.4134C83.9582 43.8184 84.4222 43.3946 84.4626 42.8294L84.846 37.2184C84.8661 36.956 85.0679 36.7542 85.3302 36.7542H89.4464C89.7087 36.7542 89.9105 36.956 89.9307 37.2184L90.314 42.8294C90.3544 43.3744 90.8185 43.8184 91.3633 43.8184H97.4568C98.0823 43.8184 98.5666 43.2936 98.5061 42.668L94.7934 1.15053ZM85.9759 29.7909C85.6934 29.7909 85.4715 29.5487 85.4916 29.2661L87.005 8.8808C87.0251 8.71934 87.1462 8.61842 87.2874 8.61842H87.4892C87.6506 8.61842 87.7717 8.73952 87.7717 8.8808L89.285 29.2661C89.3052 29.5487 89.0832 29.7909 88.8007 29.7909H85.9759Z" fill="white"/>
<path d="M178.086 1.15053C178.045 0.605574 177.581 0.201904 177.036 0.201904H164.345C163.8 0.201904 163.356 0.625758 163.296 1.15053L159.603 42.668C159.543 43.2735 160.027 43.8184 160.652 43.8184H166.726C167.271 43.8184 167.735 43.3946 167.775 42.8294L168.158 37.2184C168.179 36.956 168.38 36.7542 168.643 36.7542H172.759C173.021 36.7542 173.223 36.956 173.243 37.2184L173.626 42.8294C173.667 43.3744 174.131 43.8184 174.676 43.8184H180.749C181.375 43.8184 181.859 43.2936 181.798 42.668L178.086 1.15053ZM169.268 29.7909C168.986 29.7909 168.764 29.5487 168.784 29.2661L170.297 8.8808C170.317 8.71934 170.438 8.61842 170.58 8.61842H170.781C170.943 8.61842 171.064 8.73952 171.064 8.8808L172.577 29.2661C172.597 29.5487 172.375 29.7909 172.093 29.7909H169.268Z" fill="white"/>
<path d="M36.8641 25.8147V34.8368C36.8641 35.0992 37.086 35.3212 37.3483 35.3212H44.249C44.8342 35.3212 45.2982 35.7854 45.2982 36.3707V42.7487C45.2982 43.334 44.8342 43.7982 44.249 43.7982H29.6809C29.0958 43.7982 28.6317 43.334 28.6317 42.7487V1.25145C28.6317 0.666124 29.0958 0.201904 29.6809 0.201904H44.249C44.8342 0.201904 45.2982 0.666124 45.2982 1.25145V7.58906C45.2982 8.17438 44.8342 8.6386 44.249 8.6386H37.3483C37.086 8.6386 36.8641 8.86062 36.8641 9.12301V17.8221C36.8641 18.0845 37.086 18.3065 37.3483 18.3065H42.8568C43.4419 18.3065 43.906 18.7707 43.906 19.356V24.2808C43.906 24.8661 43.4419 25.3303 42.8568 25.3303H37.3483C37.086 25.3303 36.8641 25.5524 36.8641 25.8147Z" fill="white"/>
<path d="M122.578 0.201904H104.559C103.974 0.201904 103.51 0.666124 103.51 1.25145V7.58906C103.51 8.17438 103.974 8.6386 104.559 8.6386H108.978C109.24 8.6386 109.462 8.86062 109.462 9.12301V42.7689C109.462 43.3542 109.926 43.8184 110.512 43.8184H116.625C117.21 43.8184 117.675 43.3542 117.675 42.7689V9.10282C117.675 8.84044 117.896 8.61842 118.159 8.61842H122.578C123.163 8.61842 123.627 8.1542 123.627 7.56888V1.25145C123.627 0.666124 123.163 0.201904 122.578 0.201904Z" fill="white"/>
<path d="M68.8049 35.3212H62.5701C62.3078 35.3212 62.0859 35.0992 62.0859 34.8368V1.25145C62.0859 0.666124 61.6218 0.201904 61.0366 0.201904H54.9229C54.3377 0.201904 53.8737 0.666124 53.8737 1.25145V42.7689C53.8737 43.3542 54.3377 43.8184 54.9229 43.8184H68.8049C69.3901 43.8184 69.8541 43.3542 69.8541 42.7689V36.3909C69.8541 35.8056 69.3901 35.3212 68.8049 35.3212Z" fill="white"/>
<path d="M147.638 23.2111V22.9487C147.638 22.8276 147.719 22.7267 147.82 22.6863C150.019 21.8386 151.573 19.6992 151.573 17.2166V8.13401C151.593 3.7542 148.042 0.201904 143.663 0.201904H132.565C131.98 0.201904 131.516 0.666124 131.516 1.25145V42.7689C131.516 43.3542 131.98 43.8184 132.565 43.8184H138.679C139.264 43.8184 139.728 43.3542 139.728 42.7689V27.6514C139.728 27.3891 139.95 27.167 140.213 27.167H141.645C142.614 27.167 143.401 27.9542 143.401 28.923V42.7891C143.401 43.3744 143.865 43.8386 144.45 43.8386H150.564C151.149 43.8386 151.613 43.3744 151.613 42.7891V28.9836C151.613 26.4808 150.059 24.3615 147.86 23.5138C147.719 23.4331 147.638 23.3322 147.638 23.2111ZM143.381 18.367C143.381 19.3358 142.594 20.123 141.625 20.123H140.193C139.93 20.123 139.708 19.901 139.708 19.6386V9.10282C139.708 8.84044 139.93 8.61842 140.193 8.61842H141.625C142.594 8.61842 143.381 9.40557 143.381 10.3744V18.367Z" fill="white"/>
<path d="M20.2985 8.13401C20.2985 3.7542 16.7472 0.201904 12.3486 0.201904H1.25101C0.665862 0.201904 0.201782 0.666124 0.201782 1.25145V42.7689C0.201782 43.3542 0.665862 43.8184 1.25101 43.8184H14.7295C17.7965 43.8184 20.2783 41.3359 20.2783 38.268V27.712C20.2783 25.2092 18.7246 23.09 16.5253 22.2423C16.4042 22.2019 16.3437 22.101 16.3437 21.9799V21.7175C16.3437 21.5964 16.4244 21.4955 16.5253 21.4551C18.7246 20.6074 20.2783 18.468 20.2783 15.9854L20.2985 8.13401ZM12.0863 33.5854C12.0863 34.5542 11.2993 35.3414 10.3308 35.3414H8.89823C8.63593 35.3414 8.41398 35.1193 8.41398 34.857V25.8349C8.41398 25.5725 8.63593 25.3505 8.89823 25.3505H10.3308C11.2993 25.3505 12.0863 26.1377 12.0863 27.1065V33.5854ZM12.0863 16.5505C12.0863 17.5193 11.2993 18.3065 10.3308 18.3065H8.89823C8.63593 18.3065 8.41398 18.0845 8.41398 17.8221V9.10282C8.41398 8.84044 8.63593 8.61842 8.89823 8.61842H10.3308C11.2993 8.61842 12.0863 9.40557 12.0863 10.3744V16.5505Z" fill="white"/>
</g>
<defs>
<clipPath id="clip0_2209_12">
<rect width="182" height="44" fill="white"/>
</clipPath>
</defs>
</svg>
