<svg width="203" height="57" fill="none" xmlns="http://www.w3.org/2000/svg"><path d="M70.852 3.057h6.393l7.003 12.53h.303l7.003-12.53h6.392v24.6h-4.261V8.404h-.153L86.38 20.78H82.42L75.267 8.404h-.305v19.252H70.7v-24.6h.152z" fill="#fff"/><path d="M98.099 27.81h-4.567V8.556L86.38 20.933h-4.11L75.265 8.71v19.1H70.7V2.904h6.697v.152L84.4 15.433l7.002-12.53H98.1V27.81zm-4.11-.307h3.957V3.21h-6.24l-7.002 12.53h-.457v-.153L77.245 3.209h-6.24v24.295h3.957V8.251h.458l7.001 12.376h3.806l7.154-12.376h.457v19.253h.152zM106.625 27.81c-1.674 0-2.892-.459-3.806-1.223-.912-.917-1.217-2.139-1.217-3.667 0-1.833.609-3.056 1.674-3.973 1.066-.916 2.74-1.527 5.175-1.681l4.263-.305v-.611c0-.611 0-1.223-.152-1.681-.153-.458-.305-.764-.609-1.07-.305-.305-.762-.458-1.219-.61-.456-.154-1.217-.154-1.978-.154-.761 0-1.674 0-2.588.153-.913.153-1.978.306-2.892.459l-.304-3.362a36.29 36.29 0 0 1 6.697-.61c2.74 0 4.719.457 5.937 1.527 1.217.917 1.979 2.445 1.979 4.584v12.223h-3.806l-.457-2.292h-.304c-2.131 1.529-4.11 2.293-6.393 2.293zm1.979-3.21c.609 0 1.37-.152 2.13-.457.762-.306 1.371-.612 1.98-1.07v-3.667l-2.892.305c-1.371.153-2.283.306-2.74.764-.457.458-.762 1.07-.762 1.987 0 1.375.762 2.138 2.284 2.138z" fill="#fff"/><path d="M106.623 27.96c-1.674 0-3.044-.457-3.804-1.374-.914-.916-1.371-2.139-1.371-3.82 0-1.833.609-3.209 1.675-4.125 1.065-.917 2.892-1.528 5.175-1.681l4.11-.306v-.458c0-.611 0-1.222-.153-1.681 0-.305-.152-.61-.456-.916-.304-.306-.609-.459-1.218-.459-.913-.153-2.587-.153-4.566 0-.913.153-1.979.306-2.892.459h-.152l-.305-3.668h.153c2.208-.41 4.45-.615 6.697-.61 2.739 0 4.719.458 6.088 1.527 1.371 1.07 1.979 2.598 1.979 4.737v12.376h-4.262l-.456-2.292h-.153c-1.826 1.528-3.805 2.292-6.089 2.292zm1.98-15.278c.76 0 1.522 0 1.978.152.609.153.914.306 1.37.612.304.305.609.61.609 1.069.152.458.152 1.07.152 1.682v.763l-4.414.306c-2.283.152-3.958.764-5.023 1.68-1.065.917-1.522 2.14-1.522 3.973 0 1.528.457 2.75 1.218 3.514.76.764 1.978 1.223 3.652 1.223 2.132 0 4.111-.764 5.937-2.293h.457l.457 2.293h3.501V15.433c0-1.987-.609-3.515-1.827-4.432-1.218-.917-3.197-1.375-5.785-1.375-1.978 0-4.109.153-6.544.61l.304 3.057 2.74-.459c1.065-.152 1.979-.152 2.74-.152zm0 12.07c-1.675 0-2.436-.763-2.436-2.444 0-.917.304-1.682.913-1.986.609-.459 1.523-.61 2.892-.765l3.045-.305v3.82c-.609.458-1.218.764-1.979 1.07-1.066.457-1.827.61-2.435.61zm3.957-5.195-2.588.306c-1.217.153-2.13.306-2.739.764-.457.306-.762.917-.762 1.834 0 1.375.762 2.138 2.132 2.138.608 0 1.369-.152 1.978-.457.762-.306 1.37-.612 1.827-1.07v-3.514h.152zM121.54 9.628h3.805l.304 2.139h.153c1.675-.917 3.196-1.528 4.414-1.834a9.177 9.177 0 0 1 3.349-.61c1.522 0 2.739.458 3.653 1.22.914.918 1.37 2.14 1.37 3.668v13.446h-4.567V15.892c0-1.069-.152-1.68-.609-2.14-.303-.458-.912-.61-1.826-.61-.761 0-1.522.152-2.435.458-.914.306-1.827.611-2.893 1.07v12.987h-4.566V9.627h-.152z" fill="#fff"/><path d="M138.588 27.81h-4.871V15.89c0-.917-.152-1.68-.456-2.139-.305-.458-.914-.61-1.675-.61s-1.522.152-2.435.458c-.914.305-1.827.61-2.74 1.069v13.14h-4.871V9.474h3.957l.305 2.139c1.675-.764 3.196-1.375 4.262-1.833 1.217-.306 2.283-.61 3.348-.61 1.523 0 2.892.457 3.654 1.374.913.917 1.37 2.139 1.37 3.82v13.445h.152zm-4.567-.306h4.263v-13.14c0-1.529-.457-2.751-1.218-3.514-.762-.765-1.979-1.223-3.501-1.223a9.19 9.19 0 0 0-3.349.61c-1.218.307-2.587.917-4.262 1.834h-.457l-.304-2.139h-3.501v17.724h4.262V14.363h.152c1.066-.458 1.979-.763 2.892-1.07.914-.305 1.827-.458 2.436-.458.913 0 1.522.306 1.978.765.457.457.609 1.221.609 2.292v11.612zM150.766 27.963c-5.936 0-8.981-3.056-8.981-9.32 0-6.265 3.045-9.32 8.981-9.32.913 0 1.674 0 2.588.152.912.153 1.674.153 2.435.458V13.6c-.761-.152-1.523-.306-2.283-.306-.761-.152-1.523-.152-2.283-.152-1.675 0-2.892.458-3.654 1.375-.761.917-1.065 2.292-1.065 4.126 0 1.986.304 3.361 1.065 4.277.762.917 1.979 1.223 3.654 1.223.913 0 1.674 0 2.435-.153.761 0 1.37-.153 2.131-.305v3.667c-.609.152-1.37.305-2.283.458-.914.153-1.827.153-2.74.153z" fill="#fff"/><path d="M150.765 28.115c-6.089 0-9.134-3.208-9.134-9.473 0-6.265 3.045-9.474 9.134-9.474.761 0 1.674 0 2.587.153.914.153 1.675.153 2.436.459h.152v3.972h-.152c-.761-.152-1.522-.305-2.284-.305-.761-.153-1.521-.153-2.283-.153-1.674 0-2.892.458-3.501 1.222-.76.765-1.065 2.14-1.065 4.126 0 1.833.305 3.361 1.065 4.125.761.764 1.827 1.223 3.501 1.223.914 0 1.674 0 2.436-.153.761 0 1.37-.153 2.131-.306h.152v3.973h-.152c-.609.152-1.37.305-2.284.458-.913.153-1.826.153-2.739.153zm0-18.641c-5.937 0-8.829 3.056-8.829 9.168 0 6.111 2.892 9.168 8.829 9.168.913 0 1.826 0 2.739-.154.762-.152 1.523-.152 2.131-.305V23.99c-.76.153-1.369.305-1.978.305-.762 0-1.522.153-2.436.153-1.674 0-3.044-.458-3.805-1.375-.761-.917-1.065-2.293-1.065-4.279 0-1.986.456-3.361 1.217-4.278.761-.916 1.979-1.375 3.806-1.375.761 0 1.521 0 2.283.153.761 0 1.522.153 2.131.306v-3.515a9.167 9.167 0 0 0-2.284-.305c-1.065-.153-1.826-.306-2.739-.306zM163.399 27.81c-1.674 0-2.892-.459-3.804-1.223-.914-.917-1.219-2.139-1.219-3.667 0-1.833.61-3.056 1.675-3.973 1.065-.916 2.739-1.527 5.176-1.681l4.261-.305v-.611c0-.611 0-1.223-.152-1.681-.152-.458-.305-.764-.609-1.07-.305-.305-.761-.458-1.217-.61-.457-.154-1.218-.154-1.98-.154-.76 0-1.674 0-2.587.153-.913.153-1.979.306-2.892.459l-.304-3.362c2.208-.41 4.45-.615 6.697-.61 2.74 0 4.718.457 5.936 1.527 1.218.917 1.979 2.445 1.979 4.584v12.223h-3.805l-.457-2.292h-.304c-2.283 1.529-4.263 2.293-6.394 2.293zm1.828-3.21c.608 0 1.369-.152 2.13-.457.762-.306 1.37-.612 1.979-1.07v-3.667l-2.892.305c-1.37.153-2.283.306-2.74.764-.457.458-.761 1.07-.761 1.987 0 1.375.761 2.138 2.284 2.138z" fill="#fff"/><path d="M163.399 27.96c-1.675 0-3.045-.457-3.806-1.374-.914-.916-1.37-2.139-1.37-3.82 0-1.833.609-3.209 1.675-4.125 1.065-.917 2.892-1.528 5.175-1.681l4.109-.306v-.458c0-.61 0-1.222-.151-1.68-.153-.459-.305-.765-.609-.917-.305-.306-.609-.459-1.218-.459-1.065-.153-2.588-.153-4.567 0-.913.153-1.978.306-2.892.459h-.152l-.305-3.668h.153a36.28 36.28 0 0 1 6.698-.61c2.739 0 4.718.458 6.088 1.527 1.37 1.07 1.979 2.598 1.979 4.737v12.376h-4.11l-.457-2.292h-.152c-1.979 1.528-3.957 2.292-6.088 2.292zm1.978-15.278c.762 0 1.522 0 1.979.152.609.153.913.306 1.37.612.305.305.608.61.608 1.07.153.457.153 1.07.153 1.68v.764l-4.414.306c-2.283.152-3.958.764-5.023 1.68-1.066.917-1.523 2.14-1.523 3.973 0 1.528.457 2.75 1.218 3.514.762.764 1.979 1.223 3.654 1.223 2.131 0 4.109-.764 5.935-2.293h.457l.457 2.293h3.501V15.433c0-1.987-.609-3.515-1.827-4.432-1.217-.917-3.196-1.375-5.783-1.375-1.98 0-4.111.153-6.546.61l.305 3.057 2.739-.459c1.065-.152 1.827-.152 2.74-.152zm-.152 12.07c-1.674 0-2.435-.763-2.435-2.444 0-.917.304-1.682.912-1.986.609-.459 1.523-.61 2.893-.765l3.044-.305v3.82c-.608.458-1.217.764-1.979 1.07-1.065.457-1.674.61-2.435.61zm3.957-5.195-2.587.306c-1.218.153-2.131.306-2.74.764-.456.306-.761.917-.761 1.834 0 1.375.761 2.139 2.131 2.139.609 0 1.37-.153 1.979-.458.761-.306 1.37-.612 1.827-1.07v-3.514h.151zM178.318.765h4.566v26.891h-4.566V.765z" fill="#fff"/><path d="M183.036 27.809h-4.872V.61h4.872v27.198zm-4.567-.306h4.262V.916h-4.262v26.587zM191.256 27.81c-1.674 0-2.892-.459-3.805-1.223-.914-.917-1.218-2.139-1.218-3.667 0-1.833.609-3.056 1.674-3.973 1.066-.916 2.74-1.527 5.175-1.681l4.263-.305v-.611c0-.611 0-1.223-.153-1.681-.152-.458-.304-.764-.609-1.07-.304-.305-.761-.458-1.217-.61-.457-.154-1.218-.154-1.979-.154-.761 0-1.674 0-2.588.153-.913.153-1.978.306-2.892.459l-.305-3.362a36.314 36.314 0 0 1 6.698-.61c2.74 0 4.719.457 5.937 1.527 1.217.917 1.978 2.445 1.978 4.584v12.223h-3.805l-.456-2.292h-.305c-2.283 1.529-4.262 2.293-6.393 2.293zm1.826-3.21c.609 0 1.371-.152 2.132-.457.76-.306 1.369-.612 1.978-1.07v-3.667l-2.892.305c-1.37.153-2.283.306-2.74.764-.456.458-.761 1.07-.761 1.987 0 1.375.761 2.138 2.283 2.138z" fill="#fff"/><path d="M191.254 27.96c-1.674 0-3.043-.457-3.805-1.374-.913-.916-1.37-2.139-1.37-3.82 0-1.833.609-3.209 1.675-4.125 1.065-.917 2.892-1.528 5.175-1.681l4.11-.306v-.458c0-.611 0-1.222-.153-1.681-.152-.458-.303-.764-.608-.916-.304-.306-.609-.459-1.218-.459-1.066-.153-2.588-.153-4.566 0-.914.153-1.98.306-2.892.459h-.153l-.304-3.668h.152a36.29 36.29 0 0 1 6.697-.61c2.74 0 4.719.458 6.089 1.527 1.37 1.07 1.979 2.598 1.979 4.737v12.376h-4.11l-.457-2.292h-.152c-1.826 1.528-3.957 2.292-6.089 2.292zm1.98-15.278c.76 0 1.522 0 1.978.152.609.153.914.306 1.371.612.303.305.608.61.608 1.069.152.458.152 1.07.152 1.682v.763l-4.414.306c-2.283.152-3.958.764-5.023 1.68-1.066.917-1.522 2.14-1.522 3.973 0 1.528.456 2.75 1.218 3.514.761.764 1.978 1.223 3.652 1.223 2.132 0 4.111-.764 5.937-2.293h.457l.456 2.293h3.502V15.433c0-1.987-.609-3.515-1.828-4.432-1.217-.917-3.195-1.375-5.784-1.375-1.978 0-4.109.153-6.545.61l.305 3.057 2.74-.459c1.065-.152 1.978-.152 2.74-.152zm-.153 12.07c-1.674 0-2.435-.763-2.435-2.444 0-.917.305-1.682.913-1.986.609-.459 1.522-.61 2.892-.765l3.044-.305v3.82c-.609.458-1.217.764-1.978 1.07-.914.457-1.674.61-2.436.61zm3.958-5.195-2.588.306c-1.217.153-2.131.306-2.74.764-.457.306-.76.917-.76 1.834 0 1.375.76 2.138 2.13 2.138.61 0 1.37-.152 1.979-.457.761-.306 1.37-.612 1.826-1.07v-3.514h.153z" fill="#fff"/><path d="M47.258 39.269c-7.002-.459-11.112-4.737-11.264-11.766.152-7.028 4.262-11.306 11.264-11.765 4.566-.306 7.914-3.668 7.763-8.098C54.869 3.515 51.52 0 47.257 0c-4.261 0-8.066 3.21-7.763 7.64.305 5.5-2.13 8.709-7.001 10.39-4.87 1.833-9.437.764-13.395-2.445-1.979-1.528-2.74-3.82-2.74-6.264 0-1.528-.152-3.057-.609-4.431C14.532 1.528 10.574-.458 6.77.305 3.115 1.222.528 4.737.68 8.405c.305 3.973 3.501 7.18 7.61 7.334 4.72.305 8.525 2.14 10.656 6.57.913 1.681 1.218 3.514 1.218 5.195 0 1.68-.457 3.514-1.218 5.195-2.131 4.431-5.937 6.264-10.655 6.57-4.11.305-7.306 3.361-7.459 7.485-.304 3.667 2.435 7.182 5.937 7.946 3.805.916 7.763-1.07 9.132-4.89.457-1.375.457-2.903.61-4.431 0-2.444.76-4.737 2.74-6.264 3.956-3.209 8.523-4.279 13.394-2.445 4.719 1.834 7.154 5.042 7.002 10.39-.153 4.431 3.5 7.64 7.763 7.64 4.262 0 7.61-3.362 7.763-7.64 0-4.125-3.349-7.64-7.915-7.792z" fill="#FF1F00"/><path d="M27.927 39.268c-4.262 0-7.763 3.514-7.763 7.793 0 4.278 3.653 7.945 8.067 7.792 4.262 0 7.764-3.514 7.61-7.946-.151-4.278-3.652-7.792-7.914-7.64zM8.595 19.558c-4.414 0-7.915 3.515-7.915 7.946 0 4.432 3.501 7.945 7.915 7.945 4.263 0 7.764-3.513 7.764-7.792-.153-4.584-3.501-8.098-7.764-8.098zm46.577 7.64c-.152-4.278-3.805-7.64-8.067-7.64-4.262.154-7.61 3.668-7.61 7.946s3.348 7.793 7.61 7.945c4.262.154 7.763-3.361 8.067-7.64v-.61zM27.926 15.74c4.262 0 7.763-3.362 7.763-7.793 0-4.278-3.35-7.792-7.61-7.792-4.416 0-8.07 3.514-8.07 7.792 0 4.278 3.654 7.793 7.917 7.793zM83.028 49.353c-.608.764-1.523 1.375-2.588 1.834-1.064.458-2.283.61-3.652.61-1.37 0-2.74-.305-3.806-.916a6.464 6.464 0 0 1-2.588-2.75c-.609-1.222-.913-2.598-.913-4.279v-1.374c0-2.598.609-4.585 1.827-5.96 1.217-1.375 2.892-2.139 5.175-2.139 1.827 0 3.348.459 4.566 1.376 1.066.916 1.827 2.292 1.98 4.124h-2.893c-.305-1.985-1.523-3.055-3.5-3.055-1.37 0-2.284.458-3.046 1.375-.76.917-1.065 2.293-1.065 4.126V43.7c0 1.833.457 3.208 1.218 4.278.762 1.07 1.827 1.528 3.196 1.528 1.523 0 2.589-.305 3.197-1.07v-3.36h-3.5v-2.293h6.392v6.57zm10.806 2.14c-.152-.307-.304-.612-.304-1.223-.914.916-1.979 1.374-3.349 1.374-1.217 0-2.283-.305-3.044-1.069-.913-.61-1.218-1.528-1.218-2.598 0-1.375.457-2.444 1.522-3.056 1.066-.763 2.435-1.069 4.263-1.069h1.674v-.917c0-.61-.153-1.222-.61-1.527-.304-.459-.912-.611-1.673-.611-.61 0-1.219.152-1.523.458-.456.305-.608.763-.608 1.222h-2.892c0-.764.304-1.375.76-1.986.457-.611 1.066-1.07 1.827-1.376.76-.305 1.674-.458 2.588-.458 1.522 0 2.588.305 3.5 1.07.914.764 1.37 1.833 1.37 3.208v5.654c0 1.07.153 1.986.457 2.75v.153h-2.74zm-3.196-1.988c.609 0 1.066-.152 1.522-.458.456-.306.913-.611 1.065-1.07v-2.444h-1.521c-1.066 0-1.828.152-2.436.61-.457.307-.761.918-.761 1.53 0 .61.152.916.609 1.374.456.306.913.458 1.522.458zm11.416-10.695.152 1.375c.914-1.07 2.132-1.528 3.654-1.528 1.674 0 2.892.61 3.501 1.986.913-1.221 2.131-1.986 3.805-1.986 1.37 0 2.435.458 3.044 1.222s1.066 1.834 1.066 3.362v8.251h-2.892v-8.251c0-.764-.152-1.376-.457-1.833-.304-.306-.913-.611-1.674-.611-.609 0-1.218.152-1.522.458-.457.305-.761.763-.913 1.375v8.709h-2.892v-8.25c0-1.53-.762-2.293-2.284-2.293-1.065 0-1.979.459-2.436 1.376v9.167h-2.892V38.657h2.74v.153zm18.267-3.208c0-.459.153-.764.457-1.07.305-.306.608-.458 1.217-.458.457 0 .914.152 1.218.459.305.305.457.61.457 1.069 0 .458-.152.764-.457 1.07-.304.305-.609.457-1.218.457-.456 0-.912-.152-1.217-.457-.304-.306-.457-.612-.457-1.07zm3.045 15.89h-2.892V38.81h2.892v12.683zm5.937-12.682.152 1.528c.913-1.07 2.131-1.681 3.653-1.681 2.588 0 3.958 1.528 3.958 4.585v8.402h-2.892v-8.25c0-.764-.152-1.376-.457-1.834-.304-.459-.914-.61-1.674-.61-1.066 0-1.979.458-2.588 1.527v9.015h-2.892V38.81h2.74v.001zm10.348 6.265c0-1.986.457-3.513 1.37-4.736.913-1.222 2.131-1.834 3.653-1.834 1.37 0 2.588.458 3.349 1.528l.152-1.222h2.588v12.223c0 1.681-.457 2.903-1.522 3.974-1.066.916-2.435 1.374-4.11 1.374-.913 0-1.826-.153-2.74-.61-.913-.46-1.522-.918-1.979-1.53l1.37-1.68c.913 1.07 1.979 1.528 3.197 1.528a3.728 3.728 0 0 0 2.283-.764c.609-.459.761-1.221.761-2.292v-.916c-.761.916-1.826 1.375-3.197 1.375-1.521 0-2.74-.61-3.652-1.834-1.066-.917-1.523-2.444-1.523-4.584zm2.892.306c0 1.222.305 2.292.762 3.056.456.764 1.217 1.069 2.13 1.069 1.066 0 1.979-.458 2.588-1.528v-5.5c-.609-.917-1.37-1.376-2.588-1.376-.913 0-1.674.306-2.13 1.07-.457.611-.762 1.681-.762 3.209z" fill="#fff"/></svg>