<svg width="161" height="36" fill="none" xmlns="http://www.w3.org/2000/svg"><path d="M4.87 23.55c1.685-.027 3.37-.013 5.055-.009.331.003.683-.031.988.127.493.226.851.786.727 1.335-.62 2.819-1.254 5.635-1.883 8.452-.213.957-1.178 1.636-2.141 1.62-1.78-.004-3.562.003-5.343-.003-.647.001-1.346-.493-1.3-1.195v-.153c.031-.477.158-.94.26-1.405.528-2.34 1.053-4.678 1.575-7.017.15-.98 1.081-1.747 2.063-1.752zM147.16.602c.702-.118 1.416-.075 2.124-.08 3.61-.001 7.221.002 10.831-.003a.9.9 0 0 1 .827.538c.053.208.025.427-.006.636-1.545 6.905-3.124 13.803-4.691 20.702-.144.588-.706 1.086-1.327 1.049-.699 0-1.398.006-2.097-.002-.463 0-.822-.498-.737-.939.5-2.188.971-4.383 1.496-6.566.076-.36.137-.784-.097-1.1-.179-.258-.508-.344-.806-.34-1.517-.008-3.034.02-4.551-.01-.589-.009-.939-.722-.717-1.231a6.116 6.116 0 0 1 2.84-3.076c1.191-.621 2.559-.71 3.876-.722.525.013 1.016-.392 1.125-.902.296-1.37.659-2.727.892-4.11.113-.506-.38-.97-.868-.951-1.949-.01-3.899 0-5.848-.004a1.418 1.418 0 0 0-1.258.706c-.127.21-.161.456-.214.69-1.279 5.733-2.602 11.456-3.894 17.186-.061.459-.277.912-.679 1.166-.277.201-.628.223-.956.207-1.18-.004-2.358 0-3.536-.003-.431.024-.808-.382-.802-.802.012-.168.059-.33.095-.492 1.077-4.827 2.199-9.645 3.286-14.47.336-1.362.502-2.804 1.233-4.031.891-1.648 2.606-2.8 4.459-3.046zm-19.645 2.95a1.417 1.417 0 0 0-1.038.98c-.981 4.438-1.999 8.869-3.001 13.303-.156.655-.358 1.31-.358 1.988.032.406.441.689.826.702 1.875.01 3.751-.003 5.626.006.239-.001.487.024.719-.056.454-.142.83-.535.921-1.006.28-1.3.597-2.592.862-3.896.083-.444-.195-1.015-.692-1.031-1.615-.038-3.23-.001-4.844-.012-.476.012-.956-.415-.896-.91.116-.767.585-1.418 1.074-1.998 1.111-1.348 2.867-2.043 4.587-2.096.61-.013 1.265.065 1.826-.23a1.01 1.01 0 0 0 .522-.695c.281-1.189.556-2.381.824-3.574.064-.364.205-.788-.031-1.12-.242-.362-.719-.415-1.117-.402-1.936.04-3.877-.055-5.81.048zM125.597.656c.959-.136 1.93-.088 2.895-.122 3.367-.004 6.733.003 10.1-.004.419.013.818.383.815.813-.017.195-.081.382-.123.573-.399 1.656-.739 3.324-1.121 4.984-.201.851-.444 1.7-.833 2.485-.527 1.146-1.572 1.98-2.708 2.476.915.647 1.437 1.74 1.525 2.84.076.707-.082 1.409-.211 2.1-.273 1.363-.633 2.73-1.324 3.947-.952 1.67-2.852 2.685-4.751 2.743h-12.493a.857.857 0 0 1-.818-.707c-.025-.274.081-.533.136-.796 1.087-4.886 2.228-9.759 3.315-14.645.226-.883.346-1.794.655-2.656.419-1.103 1.118-2.112 2.058-2.835.829-.651 1.842-1.05 2.883-1.196zM104.043.598c.706-.108 1.421-.077 2.134-.084 3.584-.007 7.169-.001 10.753 0 .359-.003.736.192.887.529.086.185.047.396.021.591-1.493 6.697-3.016 13.387-4.533 20.078-.107.541-.203 1.173-.705 1.499-.342.288-.812.246-1.228.242-.6-.022-1.202.036-1.8-.028-.398-.089-.642-.544-.567-.93 1.275-5.753 2.623-11.49 3.899-17.243.077-.358.182-.722.153-1.092-.02-.204-.108-.421-.294-.524-.599-.356-1.508-.013-1.664.683-.71 3.045-1.374 6.1-2.08 9.145-.166.668-.889 1.055-1.543 1.029-.627-.04-1.256.018-1.881-.04-.457-.046-.813-.545-.687-.993a720.63 720.63 0 0 1 2.019-8.955c.08-.314-.012-.7-.301-.876-.54-.284-1.308-.104-1.614.44-.187.318-.252.686-.332 1.04-1.283 5.759-2.608 11.508-3.9 17.264-.125.603-.7 1.09-1.32 1.083-1.277-.015-2.555 0-3.831-.006-.455-.018-.836-.504-.722-.95 1.269-5.724 2.608-11.432 3.881-17.154.359-1.44 1.198-2.774 2.408-3.645.831-.611 1.83-.962 2.847-1.103zM82.433.561c.885-.076 1.776-.02 2.662-.037 3.343.002 6.685.001 10.027-.001a.892.892 0 0 1 .786.547c.083.41-.058.82-.146 1.215-1.48 6.635-3.003 13.26-4.501 19.891-.073.607-.55 1.19-1.177 1.253-.749.037-1.499.008-2.248.013-.51.037-.91-.528-.775-1.003.435-1.906.857-3.815 1.291-5.721.121-.494.293-.99.247-1.506-.038-.404-.43-.715-.827-.714-1.568-.017-3.136.022-4.704-.015-.543-.027-.902-.668-.71-1.16.65-1.67 2.094-3.016 3.815-3.522.957-.305 1.971-.316 2.966-.342.506-.011.969-.406 1.075-.897.299-1.375.66-2.737.897-4.124.1-.483-.35-.936-.82-.942-1.972-.016-3.945-.005-5.918-.006-.62-.021-1.226.423-1.373 1.027-1.33 5.95-2.7 11.89-4.04 17.837-.129.593-.682 1.106-1.306 1.09-1.253-.002-2.505.003-3.757 0-.521.055-.975-.512-.818-1.008 1.2-5.35 2.441-10.69 3.645-16.038.164-.773.341-1.55.69-2.263.462-.984 1.157-1.872 2.054-2.494.87-.617 1.912-.958 2.966-1.08zM64.606.568c.23-.052.47-.035.704-.048 1.13-.01 2.26.006 3.39-.004.492-.021.972.482.829.98-1.125 5.126-2.316 10.238-3.461 15.36-.095.354-.178.738-.033 1.09.09.272.35.482.643.468 1.564.019 3.13-.007 4.693.012.557-.013 1.067.574.883 1.122a6.116 6.116 0 0 1-2.145 2.762c-1.054.755-2.358 1.102-3.642 1.139a647.89 647.89 0 0 1-6.716.013c-.5.031-.957-.483-.838-.976 1.574-6.975 3.194-13.94 4.739-20.921.121-.466.505-.84.954-.997zM46.21.598c.584-.1 1.18-.07 1.77-.074 3.73.003 7.46 0 11.191 0 .373.01.767.283.81.671.038.305-.053.604-.12.897-1.468 6.56-2.966 13.113-4.453 19.669-.094.437-.157.92-.479 1.258a1.371 1.371 0 0 1-1.032.431c-.697-.008-1.396.014-2.093-.01-.486-.036-.814-.564-.686-1.023.516-2.232.997-4.472 1.528-6.7.14-.5-.146-1.179-.72-1.206-1.605-.046-3.211.018-4.816-.028-.535-.036-.884-.667-.7-1.154a5.979 5.979 0 0 1 2.073-2.666c.807-.59 1.77-.948 2.756-1.085.643-.09 1.293-.1 1.94-.118.514-.005.987-.406 1.092-.906.282-1.245.574-2.488.836-3.737.05-.295.127-.627-.035-.902-.191-.328-.596-.448-.956-.428-1.95.008-3.898-.01-5.847.01-.588.046-1.12.51-1.231 1.092-1.322 5.921-2.687 11.834-4.02 17.753-.125.604-.69 1.123-1.322 1.103-1.278-.003-2.556.004-3.834-.003-.458 0-.84-.49-.741-.935 1.2-5.397 2.466-10.779 3.668-16.175.167-.747.349-1.498.673-2.194.383-.795.895-1.538 1.571-2.111A6.12 6.12 0 0 1 46.211.599zM30.891.582c.18-.046.366-.062.552-.06 1.829.014 3.657-.009 5.485.011.68-.007 1.286.633 1.24 1.312-.022.21-.08.414-.124.62-.521 2.367-1.06 4.73-1.588 7.095-.307 1.387-1.108 2.643-2.179 3.568-1.563 1.307-3.436 2.196-5.375 2.79-1.57.488-3.183.818-4.794 1.135-.153.037-.318.08-.428.201-.073.142.043.306.19.33.445.115.907.134 1.359.205 1.44.23 2.859.661 4.137 1.372.717.407 1.413.876 1.956 1.503 1.027 1.164 1.597 2.768 1.37 4.32-.439 2.84-1.195 5.616-1.778 8.427-.145.697-.681 1.282-1.34 1.535-.414.174-.87.124-1.306.129-1.66-.002-3.322.005-4.984-.004-.735.023-1.39-.73-1.226-1.456.39-1.835.828-3.66 1.222-5.495.21-1.019.381-2.065.273-3.107-.165-.925-.436-1.91-1.157-2.563-.876-.733-1.885-1.33-2.995-1.626-1.02-.294-2.104-.373-3.078-.818-.405-.194-.814-.426-1.084-.797-.587-.791-.624-1.937-.122-2.78.255-.446.704-.734 1.156-.948.84-.387 1.767-.495 2.67-.646 1.777-.276 3.608-.51 5.236-1.327 1.095-.513 2.165-1.199 2.837-2.229.225-.348.397-.732.495-1.134.618-2.67 1.198-5.346 1.808-8.016.172-.761.825-1.36 1.572-1.547zM9.738.587c.322-.081.656-.062.985-.064 1.706.012 3.412-.012 5.12.012.72-.004 1.331.747 1.175 1.452-.623 2.82-1.263 5.637-1.888 8.457-.226.931-1.16 1.596-2.105 1.598-1.754.005-3.508-.002-5.263.004-.485.002-1.008-.196-1.267-.628-.205-.313-.198-.71-.119-1.062.591-2.63 1.178-5.262 1.766-7.893.057-.251.1-.509.215-.742.27-.553.793-.966 1.381-1.134zM122.781 27.039c1.846-.017 3.693-.002 5.539-.01-.075.434-.174.863-.257 1.294-1.348-.007-2.696.001-4.044-.005-.138.68-.273 1.359-.409 2.037h3.853c-.09.442-.175.886-.258 1.329-1.293-.002-2.586-.007-3.878.004-.137.71-.284 1.42-.423 2.13 1.38.001 2.761-.001 4.141.002-.089.43-.174.86-.257 1.29-1.87.015-3.74.007-5.609.005.528-2.694 1.085-5.38 1.602-8.076zm-31.393 8.076c.534-2.696 1.074-5.391 1.613-8.087.518.009 1.037 0 1.555.004.504 2.046 1.015 4.092 1.513 6.14 1.295-2.05 2.61-4.087 3.901-6.139.504-.001 1.008-.003 1.512 0-.549 2.692-1.079 5.389-1.619 8.084h-1.386c.375-1.878.753-3.755 1.124-5.634-1.11 1.878-2.203 3.766-3.325 5.637-.423-.003-.845-.003-1.268-.004-.37-1.876-.745-3.751-1.112-5.628-.378 1.875-.75 3.751-1.125 5.627-.461.005-.922 0-1.383 0zm-29.24.007c1.675-2.7 3.362-5.392 5.04-8.09.539 0 1.078.001 1.618-.004l1.886 8.09-1.554-.001c-.158-.734-.322-1.467-.477-2.2-.895-.01-1.79 0-2.685-.006.25-.43.513-.852.753-1.288.549-.02 1.098 0 1.648-.013-.226-.995-.423-1.998-.671-2.988-.414.594-.763 1.233-1.148 1.846-.937 1.547-1.876 3.094-2.808 4.644-.534.014-1.068-.001-1.602.01zm87.916-7.656c1.585-.712 3.416-.605 5.049-.12-.082.456-.173.91-.263 1.365-1.206-.428-2.547-.606-3.797-.268-.516.17-.976.63-.979 1.2-.052.286.117.621.422.668.859.122 1.741-.052 2.594.143.418.094.85.28 1.085.66.243.35.273.797.22 1.208-.072.693-.346 1.383-.85 1.873-.556.55-1.327.823-2.09.917-1.214.18-2.457.02-3.63-.316.08-.456.165-.91.262-1.362a7.42 7.42 0 0 0 2.781.425c.433-.021.893-.036 1.276-.269.435-.237.741-.707.74-1.209-.009-.265-.188-.537-.459-.588-.891-.198-1.817.054-2.704-.169-.505-.106-.986-.456-1.122-.971-.28-1.224.322-2.63 1.465-3.187zm-110.353-.397c1.194-.202 2.444-.13 3.586.287-.098.448-.186.9-.273 1.352-1.026-.42-2.18-.582-3.267-.32-.582.142-1.158.4-1.558.861-.666.754-.904 1.795-.892 2.78.012.581.249 1.21.778 1.506.732.426 1.625.36 2.428.226.164-.796.319-1.593.481-2.389.498-.001.997 0 1.495.002-.23 1.13-.442 2.264-.688 3.39-1.406.472-2.968.604-4.392.124-1.081-.323-1.757-1.472-1.69-2.572-.006-1.317.344-2.675 1.171-3.722.688-.861 1.749-1.352 2.821-1.525zM8.383 14.54c1.034-.188 2.129.192 2.88.914.609.568.958 1.38 1.011 2.205.055 1.016-.389 2.04-1.146 2.716-.488.443-1.12.708-1.77.804-1.286.17-2.643-.492-3.29-1.619-.445-.71-.532-1.59-.394-2.403.253-1.32 1.389-2.394 2.709-2.617z" fill="#fff"/></svg>