<svg width="102" height="88" viewBox="0 0 102 88" fill="none" xmlns="http://www.w3.org/2000/svg">
<path d="M20.5962 86.2626C20.4198 86.0746 20.382 85.7613 20.382 84.4954C20.382 83.6557 20.445 82.8535 20.508 82.7157C20.6214 82.5151 20.7852 82.4775 21.453 82.4775C22.3476 82.4775 22.524 82.6154 22.524 83.3298C22.524 83.6431 22.4862 83.6933 22.2846 83.6431C22.146 83.6055 22.0074 83.4426 21.9696 83.2797C21.9066 83.0415 21.8058 82.9789 21.4656 82.9789C20.9238 82.9789 20.886 83.0917 20.886 84.533C20.886 85.7487 20.9742 85.9869 21.453 85.9869C21.8184 85.9869 22.02 85.7487 22.02 85.3351C22.02 85.1095 21.957 84.9842 21.831 84.9842C21.7302 84.9842 21.642 84.8839 21.642 84.7711C21.642 84.5957 21.7428 84.5455 22.083 84.5455H22.5366L22.4988 85.3602C22.4736 85.9242 22.4106 86.1623 22.3098 86.1498C22.2216 86.1247 22.1586 86.1874 22.1838 86.2751C22.1964 86.3754 21.9822 86.4381 21.5034 86.4631C20.949 86.4882 20.76 86.4506 20.5962 86.2626Z" fill="white"/>
<path d="M79.6775 86.2125C79.5641 86.0621 79.476 85.7989 79.476 85.6485C79.476 85.4229 79.5516 85.3602 79.8162 85.3602C79.9926 85.3602 80.106 85.3978 80.0682 85.4354C79.917 85.5983 80.2446 85.9869 80.5218 85.9869C80.8998 85.9869 81.114 85.7613 81.114 85.3727C81.114 84.8965 80.988 84.7711 80.358 84.6082C79.6398 84.4202 79.476 84.2071 79.476 83.4677C79.476 82.653 79.6776 82.4775 80.61 82.4775C81.4164 82.4775 81.618 82.6405 81.618 83.2671C81.618 83.5178 81.5675 83.5679 81.3785 83.5178C81.2399 83.4802 81.114 83.3549 81.0762 83.217C81.0258 83.0415 80.8997 82.9789 80.5595 82.9789C80.1059 82.9789 80.106 82.9789 80.106 83.5303V84.0818L80.736 84.2322C81.0762 84.3074 81.4164 84.4578 81.492 84.5455C81.681 84.7837 81.6054 86.1874 81.4038 86.1498C81.3156 86.1247 81.2526 86.1874 81.2778 86.2751C81.2904 86.3754 81.0762 86.4381 80.5848 86.4631C79.9674 86.5007 79.8539 86.4631 79.6775 86.2125Z" fill="white"/>
<path d="M35.2878 84.4202C35.754 82.6279 35.817 82.4775 36.0816 82.4775C36.2454 82.4775 36.3966 82.5653 36.4344 82.7031C36.4722 82.8159 36.6738 83.593 36.888 84.4202C37.1022 85.2474 37.3164 86.0245 37.3416 86.1498C37.392 86.3127 37.329 86.3629 37.1022 86.3629C36.8628 86.3629 36.7746 86.2877 36.7242 85.9869C36.6486 85.6359 36.5982 85.6109 36.0942 85.6109C35.5776 85.6109 35.5272 85.6359 35.4642 85.9869C35.4012 86.2751 35.313 86.3629 35.0862 86.3629H34.7964L35.2878 84.4202ZM36.4722 84.8338C36.4218 84.6709 36.3588 84.3074 36.3084 84.0191C36.258 83.7183 36.1824 83.4802 36.132 83.4802C36.0816 83.4802 35.9682 83.7434 35.8926 84.0818C35.8044 84.4077 35.7162 84.7711 35.6784 84.8965C35.628 85.0719 35.691 85.1095 36.069 85.1095C36.4974 85.1095 36.5352 85.0845 36.4722 84.8338Z" fill="white"/>
<path d="M49.74 84.4076C49.74 82.678 49.7652 82.4649 49.9416 82.5025C50.0802 82.5276 50.307 82.9788 50.5968 83.831C50.8488 84.5329 51.0882 85.1094 51.126 85.1094C51.1638 85.1094 51.3906 84.5329 51.6426 83.8185C51.945 82.9788 52.1718 82.5276 52.3104 82.5025C52.4868 82.4649 52.512 82.6654 52.512 84.4076C52.512 86.275 52.4994 86.3628 52.26 86.3628C52.0332 86.3628 52.008 86.275 52.008 85.6358C52.008 85.2348 51.9702 84.8588 51.9198 84.8086C51.8694 84.7585 51.7056 85.0718 51.5544 85.5105C51.4032 85.9617 51.2142 86.3001 51.126 86.3001C51.0252 86.3001 50.8488 85.9742 50.6976 85.523C50.559 85.0844 50.4078 84.7334 50.3448 84.7334C50.2944 84.7334 50.244 85.0969 50.244 85.5481C50.244 86.275 50.2188 86.3628 49.992 86.3628C49.7526 86.3628 49.74 86.275 49.74 84.4076Z" fill="white"/>
<path d="M65.238 84.4202V82.4775H66.12C66.9138 82.4775 67.002 82.5026 67.002 82.7282C67.002 82.9413 66.9138 82.9789 66.435 82.9789H65.868V83.6055V84.2322H66.309C66.6114 84.2322 66.75 84.2949 66.75 84.4202C66.75 84.5455 66.624 84.6082 66.3216 84.6082C65.9058 84.6082 65.8932 84.6207 65.8428 85.1847C65.8176 85.4981 65.8302 85.7738 65.8554 85.8114C65.8806 85.8365 66.183 85.8615 66.5232 85.8615C67.0398 85.8615 67.128 85.8991 67.128 86.1122C67.128 86.3378 67.0398 86.3629 66.183 86.3629H65.238V84.4202Z" fill="white"/>
<path d="M75.6959 62.0481V57.8996L74.4107 57.9372L73.1129 57.9748V60.3311V62.6748H70.7819H68.4509V56.1575V49.6401H74.4107H80.3579V51.9964V54.3527L79.1609 55.2175C78.5057 55.7063 77.9639 56.1324 77.9639 56.17C77.9639 56.2201 78.5057 56.6588 79.1609 57.1476L80.3579 58.0375V60.3937L80.3453 62.7375L78.2159 64.3041C77.0441 65.1689 76.0235 65.8583 75.9479 65.8332C75.8723 65.8207 75.8345 65.8583 75.8723 65.9209C75.9227 65.9836 75.8975 66.0713 75.8219 66.1215C75.7337 66.1716 75.6959 64.8305 75.6959 62.0481ZM75.6959 53.7761V53.1369L74.4107 53.1745L73.1129 53.2121L73.0751 53.8137L73.0373 54.4028H74.3603H75.6959V53.7761Z" fill="white"/>
<path d="M2.55298 56.1575V49.6401H8.44978H14.334V51.3948V53.1495H10.743H7.15198V53.7761V54.4028L10.6548 54.4153C12.57 54.4279 14.1828 54.4279 14.2458 54.4153C14.2962 54.4153 14.334 55.1924 14.334 56.1575V57.9121H10.743H7.15198V58.6015V59.3033L10.743 59.2657L14.334 59.2281V60.9577V62.6748H8.44978H2.55298V56.1575Z" fill="white"/>
<path d="M15.72 56.1575V49.6401H18.051H20.382V54.4655V59.2908H21.642H22.902V58.0751V56.8468H25.233H27.564V59.7671V62.6748H21.642H15.72V56.1575Z" fill="white"/>
<path d="M28.887 56.1575V49.6401H34.809H40.731V51.3948V53.1495H37.1148H33.486V53.7761V54.4028H37.0644H40.6554L40.6932 56.1575L40.731 57.9121H37.1022H33.4734L33.5112 58.5764L33.549 59.2281L37.14 59.2908L40.731 59.3535V61.0204V62.6748H34.809H28.887V56.1575Z" fill="white"/>
<path d="M42.054 56.1575V49.6401H47.976H53.898V52.5855V55.5308H51.567H49.236V54.3401V53.1495H47.976H46.716L46.7412 56.1951L46.779 59.2281L48.0138 59.2657L49.236 59.3033V58.0751V56.8468H51.567H53.898V59.7671V62.6748H47.976H42.054V56.1575Z" fill="white"/>
<path d="M58.8245 62.5871C58.8371 62.5244 58.8371 60.3812 58.8245 57.8244L58.8119 53.1495H57.0479H55.2839V51.3948V49.6401H61.2059H67.1279V51.3948V53.1495H65.3009H63.4739V57.9121V62.6748H61.1429C59.8577 62.6748 58.8245 62.6372 58.8245 62.5871Z" fill="white"/>
<path d="M81.6179 56.1575V49.6401H83.9489H86.2799V56.1575V62.6748H83.9489H81.6179V56.1575Z" fill="white"/>
<path d="M87.666 56.1575V49.6401H93.588H99.51V52.5855V55.5308H97.179H94.848V54.3401V53.1495H93.588H92.328V56.2201V59.2908H93.588H94.848V58.0751V56.8468H97.179H99.51V59.7671V62.6748H93.588H87.666V56.1575Z" fill="white"/>
<path d="M81.6179 46.6321V44.8774H83.9489H86.2799V46.6321V48.3868H83.9489H81.6179V46.6321Z" fill="white"/>
<path d="M11.436 67.876V66.6853H15.972H20.508V67.4373C20.508 68.064 20.4702 68.1893 20.2938 68.1893C20.1678 68.1893 18.366 68.277 16.287 68.3773C14.208 68.4776 12.4062 68.5653 12.2928 68.5653C12.1794 68.5653 12.0408 68.6781 12.003 68.816C11.9652 68.9538 11.814 69.0666 11.6754 69.0666C11.4612 69.0666 11.436 68.9664 11.436 67.876Z" fill="#FBA905"/>
<path d="M21.6421 67.5626V66.6853H23.4061H25.1701V67.4373C25.1701 68.1016 25.1449 68.1893 24.9181 68.1893C24.7795 68.1893 24.6661 68.1392 24.6661 68.0765C24.6661 67.8885 22.3477 68.064 22.1965 68.2645C22.1209 68.3648 21.9571 68.44 21.8437 68.44C21.6799 68.44 21.6421 68.2896 21.6421 67.5626Z" fill="#FBA905"/>
<path d="M31.848 67.312V66.6853H36.384H40.92V67.1866C40.92 67.6002 40.8822 67.688 40.668 67.688C40.5168 67.688 40.416 67.6002 40.416 67.4874C40.416 67.2994 40.1892 67.2869 38.0598 67.3496C33.612 67.5 32.4654 67.5877 32.3898 67.7632C32.352 67.8634 32.2134 67.9386 32.0874 67.9386C31.8858 67.9386 31.848 67.8384 31.848 67.312Z" fill="#FBA905"/>
<path d="M50.6221 66.9986C50.6221 66.773 50.6851 66.6853 50.8741 66.6853C51.0631 66.6853 51.1261 66.773 51.1261 66.9986C51.1261 67.2242 51.0631 67.312 50.8741 67.312C50.6851 67.312 50.6221 67.2242 50.6221 66.9986Z" fill="#FBA905"/>
<path d="M42.0541 66.936C42.0541 66.7104 42.1423 66.6853 42.7471 66.6853C43.3519 66.6853 43.4401 66.7104 43.4401 66.936C43.4401 67.1616 43.3519 67.1866 42.7471 67.1866C42.1423 67.1866 42.0541 67.1616 42.0541 66.936Z" fill="#FBA905"/>
<path d="M52.134 66.7728C52.134 66.5472 55.3974 64.1534 55.5612 64.2536C55.6368 64.3038 55.662 64.2912 55.6116 64.2035C55.5738 64.1283 55.5864 64.0406 55.662 63.9904C55.7376 63.9403 55.788 64.379 55.788 65.2688V66.6224H54.4776C53.583 66.6224 53.1042 66.6726 53.0034 66.7854C52.7892 66.9859 52.134 66.9859 52.134 66.7728Z" fill="#FBA905"/>
<path d="M72.546 65.0309C72.546 64.2664 72.5964 63.928 72.6594 64.0533C72.735 64.1536 72.7476 64.2789 72.7098 64.3541C72.672 64.4168 72.6846 64.4293 72.7602 64.3917C72.8232 64.3541 73.1886 64.6173 73.554 64.9933L74.2344 65.6827H73.7178C73.302 65.6827 73.176 65.7328 73.113 65.9333C73.0752 66.0712 72.924 66.184 72.7854 66.184C72.5712 66.184 72.546 66.0837 72.546 65.0309Z" fill="#FBA905"/>
<path d="M24.666 19.8859C24.666 19.7229 25.548 17.7928 26.1528 16.6272C28.824 11.5136 32.8686 7.65332 38.6268 4.72052L40.4916 3.78052L42.1674 5.58532C43.8306 7.40265 43.8306 7.40265 43.4148 7.40265C43.1754 7.40265 42.9234 7.33998 42.8604 7.27732C42.7596 7.17705 40.542 8.63092 35.6154 11.9899C31.7094 14.6595 28.0302 17.1536 27.438 17.5421C26.8458 17.9307 26.2788 18.3443 26.178 18.4696C26.0772 18.5949 25.8882 18.808 25.7748 18.9584C25.6488 19.0963 25.485 19.372 25.3968 19.5725C25.2834 19.8232 25.1448 19.936 24.9558 19.936C24.792 19.936 24.666 19.9109 24.666 19.8859Z" fill="#FBA905"/>
<path d="M45.9978 3.73029L45.204 2.32655L45.7458 2.23882C46.0356 2.18869 47.6736 2.10095 49.3998 2.06335C52.4616 1.97562 52.512 1.97562 52.512 2.22629C52.512 2.46442 52.3986 2.47695 50.8488 2.56469C49.929 2.61482 49.1478 2.69002 49.11 2.75269C49.0722 2.80282 48.606 3.14122 48.0768 3.50469C47.1318 4.13135 47.094 4.16895 47.094 4.64522C47.094 4.95855 47.031 5.14655 46.9428 5.14655C46.8546 5.14655 46.4262 4.50735 45.9978 3.73029Z" fill="#FBA905"/>
<path d="M11.436 69.7559C11.436 68.4524 11.5746 68.1892 12.3054 68.1767C12.6204 68.1767 12.9732 68.1516 13.074 68.1391C13.1748 68.114 14.2332 68.0639 15.405 68.0138C16.5894 67.9636 18.2148 67.901 19.0338 67.8508L20.508 67.7756V68.5527V69.3172H17.736H14.964V69.7559C14.964 70.182 14.9388 70.2071 14.5608 70.182C14.334 70.157 13.6662 70.157 13.0992 70.1695C12.1542 70.1946 12.0408 70.2196 11.9778 70.4452C11.94 70.5831 11.8014 70.6959 11.6754 70.6959C11.4612 70.6959 11.436 70.5956 11.436 69.7559Z" fill="#FB9B0F"/>
<path d="M21.6421 69.0917C21.6421 68.5027 21.7051 68.0389 21.8059 67.9136C21.9193 67.7632 22.3099 67.7005 23.4817 67.6379C25.2709 67.5376 25.1701 67.4624 25.1701 68.9539C25.1701 69.8563 25.1449 69.944 24.9181 69.944C24.7795 69.944 24.6661 69.8939 24.6661 69.8187C24.6661 69.7435 24.1873 69.6933 23.4817 69.6933C22.5493 69.6933 22.2847 69.7309 22.2217 69.8813C22.1839 69.9816 22.0327 70.0693 21.8941 70.0693C21.6673 70.0693 21.6421 69.9941 21.6421 69.0917Z" fill="#FB9B0F"/>
<path d="M31.848 68.5278C31.848 67.9888 31.911 67.5251 32.0118 67.3998C32.1756 67.1742 32.5914 67.1491 37.7826 66.9862L40.7562 66.8984L40.8318 67.1992C40.8822 67.3622 40.92 67.876 40.92 68.3523C40.92 69.0918 40.8948 69.192 40.6806 69.192C40.542 69.192 40.416 69.1294 40.3908 69.0542C40.3404 68.8912 33.7128 69.1294 32.6922 69.3299C32.3646 69.3926 32.037 69.4427 31.974 69.4427C31.8984 69.4427 31.848 69.0291 31.848 68.5278Z" fill="#FB9B0F"/>
<path d="M50.6221 68.7658C50.6221 68.6655 50.5717 68.5527 50.4961 68.5026C50.4331 68.465 48.6691 68.5151 46.5649 68.6279C44.4607 68.7282 42.5959 68.8159 42.4069 68.8159H42.0541V67.8258V66.8482L42.8227 66.7604C44.1205 66.6351 51.0253 66.6727 50.9371 66.8106C50.8993 66.8858 50.9245 66.9359 50.9875 66.9359C51.0757 66.9359 51.1261 67.3119 51.1261 67.9386C51.1261 68.8535 51.1009 68.9412 50.8741 68.9412C50.7355 68.9412 50.6221 68.866 50.6221 68.7658Z" fill="#FB9B0F"/>
<path d="M52.1593 67.4747C52.1845 66.9358 52.2349 66.5097 52.2853 66.5222C52.3357 66.5347 52.5247 66.4721 52.7011 66.3843C52.8901 66.2841 53.5201 66.2089 54.2383 66.1963C54.9061 66.1838 55.4983 66.1462 55.5487 66.1211C55.6999 66.0209 55.7881 66.4345 55.7881 67.3494V68.2518L54.4273 68.2769C53.6839 68.2894 52.8649 68.3395 52.6003 68.3897L52.1215 68.4649L52.1593 67.4747Z" fill="#FB9B0F"/>
<path d="M57.7789 67.4373L57.7411 66.6853H59.5429H61.3321V67.4373C61.3321 68.1016 61.3069 68.1893 61.0801 68.1893C60.9415 68.1893 60.8281 68.1266 60.8281 68.0514C60.8281 67.9261 59.8075 67.9637 58.3459 68.1392L57.8293 68.2018L57.7789 67.4373Z" fill="#FB9B0F"/>
<path d="M62.3401 67.2994V66.6853H66.9391H71.5381V67.0613C71.5381 67.3997 71.5003 67.4373 71.1097 67.4373C70.7317 67.4373 65.6161 67.713 63.2599 67.8634L62.3401 67.9136V67.2994Z" fill="#FB9B0F"/>
<path d="M72.546 66.8733C72.546 65.5949 72.6972 65.3066 73.3524 65.3066C73.8312 65.3066 73.9446 65.3818 74.7888 66.2216C75.2928 66.7229 75.6582 67.1741 75.6204 67.2242C75.57 67.2744 75.0282 67.312 74.4108 67.312C73.4406 67.312 73.2894 67.337 73.1508 67.5626C73.0626 67.7005 72.8862 67.8133 72.7728 67.8133C72.5712 67.8133 72.546 67.688 72.546 66.8733Z" fill="#FB9B0F"/>
<path d="M78.0901 67.0112C78.0901 66.748 78.1531 66.6853 78.4177 66.6853C78.6823 66.6853 78.7327 66.7354 78.6949 66.9736C78.6697 67.149 78.5563 67.2618 78.3799 67.2869C78.1405 67.3245 78.0901 67.2744 78.0901 67.0112Z" fill="#FB9B0F"/>
<path d="M82.7521 66.9986C82.7521 66.773 82.8151 66.6853 83.0041 66.6853C83.1931 66.6853 83.2561 66.773 83.2561 66.9986C83.2561 67.2242 83.1931 67.312 83.0041 67.312C82.8151 67.312 82.7521 67.2242 82.7521 66.9986Z" fill="#FB9B0F"/>
<path d="M23.28 25.1123C23.847 22.0291 24.7164 19.372 25.4472 18.5072C25.8756 17.9808 26.052 17.8179 26.556 17.5045C26.871 17.304 30.525 14.8224 34.683 11.9899C38.841 9.15733 42.369 6.76347 42.5328 6.68827C42.7974 6.5504 42.8856 6.56293 43.251 6.87627C43.4778 7.06427 44.385 7.99173 45.267 8.93173L46.8546 10.6613H46.4388C46.1994 10.6613 45.9474 10.5987 45.8592 10.5109C45.7584 10.4107 45.708 10.3981 45.708 10.4984C45.708 10.5736 45.5064 10.7616 45.267 10.912C44.9646 11.1 44.826 11.2755 44.826 11.4885C44.826 11.7643 44.7882 11.7893 44.133 11.7893C43.755 11.7893 43.44 11.8269 43.44 11.8771C43.44 11.9272 43.6164 12.1528 43.8432 12.3784L44.2464 12.792H43.7802C43.4904 12.792 43.2888 12.7168 43.2132 12.5915C43.1124 12.4035 43.0242 12.4285 42.5202 12.7795C42.2052 12.9925 41.9028 13.168 41.8524 13.168C41.802 13.168 41.7012 13.2432 41.6256 13.3435C41.4618 13.544 35.187 17.8053 35.061 17.8053C35.0106 17.8053 34.8972 17.8805 34.8216 17.9808C34.6578 18.1813 30.777 20.8133 30.651 20.8133C30.588 20.8133 30.4872 20.8885 30.4116 20.9888C30.2604 21.1643 26.3796 23.8213 26.2536 23.8213C26.2158 23.8213 26.052 23.9467 25.8756 24.1096C25.7118 24.26 25.233 24.5859 24.8172 24.824C24.3384 25.0997 24.0234 25.3755 23.973 25.5509C23.9352 25.7013 23.847 25.8267 23.784 25.8267C23.7084 25.8267 23.658 25.9395 23.658 26.0773C23.658 26.2528 23.5698 26.328 23.3556 26.328H23.0658L23.28 25.1123Z" fill="#FB9B0F"/>
<path d="M45.708 11.4133C45.708 11.2127 45.7962 11.1626 46.149 11.1626C46.5018 11.1626 46.59 11.2127 46.59 11.4133C46.59 11.6138 46.5018 11.6639 46.149 11.6639C45.7962 11.6639 45.708 11.6138 45.708 11.4133Z" fill="#FB9B0F"/>
<path d="M47.85 6.96392C46.1742 4.04365 46.1868 4.14392 47.5098 3.25405C48.0642 2.87805 48.5808 2.51458 48.669 2.43938C48.9336 2.17618 53.0664 1.97565 54.717 2.13858C57.0732 2.36418 57.9804 2.55218 58.0308 2.80285C58.0686 2.97832 57.9678 3.01592 57.3504 3.01592C56.8968 3.01592 56.5818 3.07858 56.4936 3.19138C56.292 3.44205 50.7984 7.15192 50.6346 7.15192C50.559 7.15192 50.496 7.20205 50.496 7.26472C50.496 7.32738 50.2188 7.55298 49.866 7.77858C49.3116 8.12952 49.236 8.22978 49.236 8.60578C49.236 8.84392 49.1856 9.03192 49.1352 9.03192C49.0848 9.03192 48.5052 8.10445 47.85 6.96392Z" fill="#FB9B0F"/>
<path d="M11.4612 71.2601C11.4738 70.6083 11.562 70.0193 11.625 69.9566C11.7006 69.8814 12.4566 69.8062 13.326 69.7937C14.8758 69.7561 14.901 69.7561 14.9388 70.0443L14.9766 70.3201H17.7486H20.508V71.0721V71.8241H19.7898C19.3866 71.8241 17.5344 71.8867 15.657 71.9619C13.1748 72.0747 12.2046 72.1625 12.0534 72.2878C11.9526 72.3755 11.751 72.4507 11.6376 72.4507C11.436 72.4507 11.4108 72.3379 11.4612 71.2601Z" fill="#FB871D"/>
<path d="M21.642 70.7963C21.6546 70.1696 21.7176 69.6808 21.8058 69.5555C21.9318 69.3925 22.272 69.3299 23.3808 69.2797C25.1574 69.192 25.17 69.2045 25.17 70.6208V71.6485L24.0108 71.636C23.3682 71.636 22.5744 71.6861 22.2468 71.7363L21.642 71.8365V70.7963Z" fill="#FB871D"/>
<path d="M31.848 70.2321C31.848 69.4676 31.8984 69.054 32.0118 68.9663C32.0874 68.9036 32.5914 68.8409 33.108 68.8284C33.6246 68.8158 34.3554 68.7783 34.746 68.7532C35.124 68.7281 36.3714 68.6655 37.518 68.6279C38.6646 68.5777 39.8112 68.5276 40.0758 68.5025C40.5924 68.4524 40.92 68.678 40.92 69.079C40.92 69.3046 40.8066 69.3172 38.148 69.3172H35.376V69.8185V70.3199H38.148H40.92V70.6708V71.0092L39.0804 70.959C37.392 70.9214 33.4482 71.1095 32.3268 71.2849L31.848 71.3601V70.2321Z" fill="#FB871D"/>
<path d="M42.054 69.6432C42.054 68.9789 42.0918 68.44 42.1548 68.4274C42.2052 68.4274 42.6714 68.4024 43.188 68.3773C43.7046 68.3522 44.7 68.3021 45.393 68.2645C46.0734 68.2269 47.598 68.1517 48.7572 68.1141L50.874 68.0264L51 68.3648C51.063 68.5528 51.126 69.1544 51.126 69.7058C51.126 70.5205 51.0882 70.696 50.9244 70.696C50.8236 70.696 50.6472 70.6082 50.5464 70.508C50.433 70.4077 50.2188 70.345 50.0172 70.3826C49.1352 70.5205 47.346 70.5581 47.346 70.4453C47.346 70.3701 47.409 70.32 47.472 70.32C47.5476 70.32 47.598 70.0944 47.598 69.8186V69.3173H46.59H45.582V69.8186V70.32H46.086C46.5144 70.32 46.59 70.3576 46.59 70.5832C46.59 70.8464 46.5522 70.8464 45.8718 70.7586C45.078 70.6458 43.2762 70.6584 42.5328 70.7712L42.054 70.8464V69.6432Z" fill="#FB871D"/>
<path d="M52.134 69.2045C52.134 68.3522 52.1844 68.0389 52.3104 67.9888C52.3986 67.9512 53.205 67.9136 54.0996 67.901L55.725 67.876L55.7628 69.0416L55.8006 70.1946H54.3642C53.5704 70.1946 52.7388 70.2322 52.5246 70.2698L52.134 70.3576V69.2045Z" fill="#FB871D"/>
<path d="M57.804 68.9162C57.804 68.3146 57.8544 67.7882 57.93 67.7506C57.993 67.713 58.7364 67.6503 59.5806 67.6002C60.8028 67.5501 61.1304 67.5626 61.2186 67.7004C61.2816 67.8007 61.332 68.3522 61.332 68.9413V70.0066H59.568H57.804V68.9162Z" fill="#FB871D"/>
<path d="M62.34 68.7783C62.34 68.1141 62.3778 67.5501 62.4408 67.5125C62.4912 67.4874 63.4614 67.4247 64.608 67.3871C65.7546 67.337 66.8886 67.2743 67.128 67.2493C67.3674 67.2242 68.3628 67.1615 69.333 67.1114C70.3032 67.0738 71.1978 67.0111 71.3238 66.9861C71.5128 66.9485 71.538 67.0738 71.538 68.1767V69.405L69.7488 69.4802C68.64 69.5303 67.9344 69.5178 67.9092 69.4426C67.884 69.3674 67.443 69.3173 66.9264 69.3173C66.2208 69.3173 65.994 69.3549 65.994 69.4927C65.994 69.6181 65.6412 69.6807 64.5198 69.7309C63.7008 69.781 62.8818 69.8437 62.6928 69.8938L62.34 69.969V68.7783Z" fill="#FB871D"/>
<path d="M72.546 68.5151C72.546 67.0361 72.6216 66.9609 74.2218 66.9233L75.4566 66.8857L76.5906 68.0137L77.7372 69.1543L75.507 69.2295C74.1714 69.2671 73.2138 69.3548 73.1382 69.43C73.0626 69.5052 72.8988 69.5679 72.7728 69.5679C72.5712 69.5679 72.546 69.4425 72.546 68.5151Z" fill="#FB871D"/>
<path d="M82.752 68.064C82.752 67.3496 82.8024 66.936 82.8906 66.936C82.9536 66.936 82.9788 66.8858 82.941 66.8106C82.8906 66.7229 84.39 66.6853 87.3384 66.6853H91.824V67.5501V68.4024L90.6018 68.4901C89.9214 68.5277 88.0314 68.628 86.406 68.7032C84.1128 68.816 83.4198 68.8786 83.3442 69.0165C83.2938 69.1168 83.13 69.192 83.004 69.192C82.7772 69.192 82.752 69.1042 82.752 68.064Z" fill="#FB871D"/>
<path d="M78.09 68.0514C78.09 67.3872 78.153 66.9234 78.2412 66.8357C78.342 66.7354 78.9342 66.6853 80.0682 66.6853H81.744V67.8133V68.9413H81.2652C80.988 68.9413 80.169 68.9789 79.4382 69.029L78.09 69.1042V68.0514Z" fill="#FB871D"/>
<path d="M22.776 30.8525C22.776 28.1579 23.1036 25.4507 23.4438 25.4507C23.4942 25.4507 23.5068 25.4005 23.469 25.3253C23.4312 25.2627 23.4564 25.2 23.5194 25.2C23.595 25.2 23.658 25.1248 23.658 25.0371C23.658 24.9493 23.8596 24.7739 24.099 24.6611C24.3384 24.5483 24.54 24.3853 24.54 24.3227C24.54 24.2475 24.603 24.2224 24.666 24.26C24.7416 24.2976 24.8298 24.2475 24.8676 24.1472C24.9054 24.0344 24.9936 23.9843 25.0566 24.0219C25.1196 24.0595 25.2078 23.9968 25.2456 23.8965C25.2834 23.7837 25.3716 23.7211 25.4346 23.7587C25.485 23.7963 25.5984 23.7085 25.674 23.5707C25.7496 23.4328 25.863 23.3451 25.9386 23.3827C26.0016 23.4328 26.0898 23.3701 26.1276 23.2699C26.1654 23.1571 26.2536 23.1069 26.3166 23.1445C26.3796 23.1821 26.4678 23.1195 26.5056 23.0192C26.5434 22.9064 26.6316 22.8563 26.6946 22.8939C26.7576 22.9315 26.8458 22.8688 26.8836 22.7685C26.9214 22.6557 27.0096 22.5931 27.06 22.6307C27.1104 22.6557 27.2994 22.5555 27.4884 22.38C27.6648 22.2171 27.816 22.1168 27.816 22.1669C27.8286 22.2171 27.9294 22.1293 28.0554 21.9789C28.1814 21.8285 28.32 21.7408 28.3704 21.7784C28.4082 21.816 28.4712 21.7533 28.5216 21.6405C28.5594 21.5277 28.6476 21.4776 28.7106 21.5152C28.7736 21.5528 28.8618 21.4901 28.8996 21.3899C28.9374 21.2771 29.0256 21.2269 29.0886 21.2645C29.1516 21.3021 29.2398 21.2395 29.2776 21.1392C29.3154 21.0264 29.4036 20.9763 29.4666 21.0139C29.5296 21.0515 29.6178 20.9888 29.6556 20.8885C29.6934 20.7757 29.7816 20.7131 29.8446 20.7507C29.895 20.7883 30.0084 20.7005 30.084 20.5627C30.1596 20.4248 30.273 20.3371 30.3486 20.3747C30.4116 20.4248 30.4998 20.3621 30.5376 20.2619C30.5754 20.1491 30.6636 20.0989 30.7266 20.1365C30.7896 20.1741 30.8778 20.1115 30.9156 20.0112C30.9534 19.8984 31.0416 19.8483 31.1046 19.8859C31.1676 19.9235 31.2558 19.8608 31.2936 19.7605C31.3314 19.6477 31.4196 19.5851 31.47 19.6227C31.5204 19.6477 31.7094 19.5475 31.8984 19.372C32.0748 19.2091 32.226 19.1088 32.226 19.1589C32.2386 19.2091 32.3394 19.1213 32.4654 18.9709C32.5914 18.8205 32.73 18.7328 32.7804 18.7704C32.8182 18.808 32.8812 18.7453 32.9316 18.6325C32.9694 18.5197 33.0576 18.4696 33.1206 18.5072C33.1836 18.5448 33.2718 18.4821 33.3096 18.3819C33.3474 18.2691 33.4356 18.2189 33.4986 18.2565C33.5616 18.2941 33.6498 18.2315 33.6876 18.1312C33.7254 18.0184 33.8136 17.9683 33.8766 18.0059C33.9396 18.0435 34.0278 17.9808 34.0656 17.8805C34.1034 17.7677 34.1916 17.7051 34.2546 17.7427C34.305 17.7803 34.4184 17.6925 34.494 17.5547C34.5696 17.4168 34.683 17.3291 34.7586 17.3667C34.8216 17.4168 34.9098 17.3541 34.9476 17.2539C34.9854 17.1411 35.0736 17.0909 35.1366 17.1285C35.1996 17.1661 35.2878 17.1035 35.3256 17.0032C35.3634 16.8904 35.4516 16.8403 35.5146 16.8779C35.5776 16.9155 35.6658 16.8528 35.7036 16.7525C35.7414 16.6397 35.8296 16.5896 35.8926 16.6272C35.9556 16.6648 36.0438 16.6021 36.0816 16.5019C36.1194 16.3891 36.2076 16.3389 36.2706 16.3765C36.3336 16.4141 36.4218 16.3515 36.4596 16.2512C36.4974 16.1384 36.5856 16.0757 36.636 16.1133C36.699 16.1509 36.825 16.0632 36.9258 15.9253C37.014 15.7875 37.14 15.7123 37.1778 15.7499C37.2282 15.8 37.2912 15.7373 37.3416 15.6245C37.3794 15.5117 37.4676 15.4616 37.5306 15.4992C37.5936 15.5368 37.6818 15.4741 37.7196 15.3739C37.7574 15.2611 37.8456 15.2109 37.9086 15.2485C37.9716 15.2861 38.0598 15.2235 38.0976 15.1232C38.1354 15.0104 38.2236 14.9477 38.274 14.9853C38.337 15.0229 38.5638 14.86 38.7906 14.6469C39.0174 14.4213 39.156 14.3211 39.1056 14.4213C39.0552 14.5216 39.1182 14.484 39.2568 14.3336C39.3954 14.1832 39.534 14.0955 39.5844 14.1331C39.6222 14.1707 39.6852 14.108 39.7356 13.9952C39.7734 13.8824 39.8616 13.8323 39.9246 13.8699C39.9876 13.9075 40.0758 13.8448 40.1136 13.7445C40.1514 13.6317 40.2396 13.5816 40.3026 13.6192C40.3656 13.6568 40.4538 13.5941 40.4916 13.4939C40.5294 13.3811 40.6176 13.3309 40.6806 13.3685C40.7436 13.4061 40.8318 13.3435 40.8696 13.2432C40.9074 13.1304 40.9956 13.0677 41.0586 13.1053C41.109 13.1429 41.2224 13.0552 41.298 12.9173C41.3736 12.7795 41.487 12.6917 41.5626 12.7293C41.6256 12.7795 41.7138 12.7168 41.7516 12.6165C41.7894 12.5037 41.8776 12.4536 41.9406 12.4912C42.0036 12.5288 42.0918 12.4661 42.1296 12.3659C42.1674 12.2531 42.2556 12.1904 42.306 12.228C42.369 12.2656 42.4698 12.2029 42.5328 12.0901C42.5958 11.9773 42.684 11.8896 42.7218 11.9021C42.7722 11.9021 42.8982 11.8771 43.0116 11.8269C43.2132 11.7517 43.9188 12.4411 46.6152 15.3363L47.7492 16.552H47.3082C47.0562 16.552 46.8168 16.4893 46.7664 16.4141C46.716 16.3139 46.6656 16.3139 46.6026 16.4141C46.5522 16.4768 41.3862 20.0363 35.124 24.2976C28.8492 28.5589 23.595 32.1811 23.4312 32.3315C22.839 32.8829 22.776 32.7451 22.776 30.8525Z" fill="#FB871D"/>
<path d="M49.5384 14.8976C49.3998 14.7347 49.0722 14.3462 48.8076 14.0203L48.3414 13.4187H49.2234C50.0928 13.4187 50.118 13.4312 50.118 13.732C50.118 13.92 50.0424 14.0454 49.9416 14.0454C49.8156 14.0454 49.7904 14.1832 49.8408 14.6094C49.866 14.9227 49.8786 15.1734 49.8408 15.1734C49.8156 15.1734 49.677 15.048 49.5384 14.8976Z" fill="#FB871D"/>
<path d="M51.4283 13.2056C50.5337 11.7642 48.8453 8.61835 48.7949 8.26742C48.7319 7.87889 48.7697 7.80369 49.0469 7.67835C49.2233 7.60315 49.3619 7.47782 49.3619 7.40262C49.3619 7.32742 49.4249 7.30235 49.4879 7.33995C49.5635 7.37755 49.6517 7.32742 49.6895 7.22715C49.7273 7.11435 49.8155 7.05169 49.8785 7.08929C49.9289 7.12689 50.0423 7.03915 50.1179 6.90129C50.1935 6.76342 50.3069 6.67569 50.3825 6.71329C50.4455 6.76342 50.5337 6.70075 50.5715 6.60049C50.6093 6.48769 50.6975 6.43755 50.7605 6.47515C50.8235 6.51275 50.9117 6.45009 50.9495 6.34982C50.9873 6.23702 51.0755 6.18689 51.1385 6.22449C51.2015 6.26209 51.2897 6.19942 51.3275 6.09915C51.3653 5.98635 51.4535 5.93622 51.5165 5.97382C51.5795 6.01142 51.6677 5.94875 51.7055 5.84849C51.7433 5.73569 51.8315 5.68555 51.8945 5.72315C51.9575 5.76075 52.0457 5.69809 52.0835 5.59782C52.1213 5.48502 52.2095 5.42235 52.2599 5.45995C52.3229 5.49755 52.4489 5.40982 52.5497 5.27195C52.6379 5.13409 52.7639 5.05889 52.8017 5.09649C52.8521 5.14662 52.9151 5.08395 52.9655 4.97115C53.0033 4.85835 53.0915 4.80822 53.1545 4.84582C53.2175 4.88342 53.3057 4.82075 53.3435 4.72049C53.3813 4.60769 53.4695 4.55755 53.5325 4.59515C53.5955 4.63275 53.6837 4.57009 53.7215 4.46982C53.7593 4.35702 53.8475 4.29435 53.8979 4.33195C53.9609 4.36955 54.1877 4.20662 54.4145 3.99355C54.6413 3.76795 54.7799 3.66769 54.7295 3.76795C54.6791 3.86822 54.7547 3.81809 54.8933 3.65515C55.0445 3.49222 55.1579 3.40449 55.1579 3.44209C55.1579 3.47969 55.3847 3.36689 55.6619 3.19142C55.9517 3.00342 56.1533 2.77782 56.1155 2.70262C56.0777 2.58982 56.2037 2.56475 56.5565 2.60235C56.8715 2.63995 57.0479 2.61489 57.0479 2.52715C57.0479 2.41435 57.1109 2.41435 57.2999 2.51462C57.4385 2.58982 57.6023 2.62742 57.6653 2.58982C57.7157 2.55222 58.5347 2.71515 59.4545 2.94075C60.8405 3.29169 62.0375 3.70529 63.9527 4.48235C64.2173 4.59515 64.1165 4.89595 63.8141 4.89595C63.6503 4.89595 63.4109 4.98369 63.2849 5.09649C63.0833 5.24689 52.7261 12.3408 51.9827 12.8296C51.8567 12.9173 51.7559 13.0802 51.7559 13.193C51.7559 13.4813 51.6047 13.4813 51.4283 13.2056Z" fill="#FB871D"/>
<path d="M44.0699 11.6639C43.8305 11.6013 43.5911 11.5887 43.5407 11.6138C43.4777 11.6514 43.4399 11.6263 43.4399 11.5511C43.4399 11.4759 43.5785 11.3882 43.7549 11.3381C43.9187 11.3005 44.0951 11.1501 44.1329 11.0247C44.1833 10.8869 44.2715 10.8117 44.3345 10.8493C44.3975 10.8994 44.4857 10.8367 44.5235 10.7365C44.5613 10.6237 44.6495 10.5735 44.7125 10.6111C44.7755 10.6487 44.8637 10.5861 44.9015 10.4858C44.9393 10.373 45.0275 10.3103 45.0779 10.3479C45.1409 10.3855 45.2417 10.3229 45.3047 10.2101C45.5441 9.78394 46.0859 9.9218 46.7285 10.5735C47.0687 10.9119 47.3081 11.2503 47.2577 11.3255C47.2199 11.3882 47.2451 11.4133 47.3207 11.3631C47.3963 11.3255 47.4845 11.3381 47.5223 11.4007C47.5979 11.5261 46.8041 11.6389 45.7709 11.6514C45.4307 11.6639 45.0023 11.689 44.8259 11.7141C44.6495 11.7391 44.3093 11.7141 44.0699 11.6639Z" fill="#FB871D"/>
<path d="M11.436 73.1023C11.436 72.3127 11.4864 72.0746 11.6628 71.9242C11.8392 71.7738 12.6456 71.6986 15.783 71.5733C17.9376 71.4981 19.8654 71.4103 20.067 71.4103L20.445 71.3853L20.4828 72.1749L20.5206 72.9519H17.736H14.964V73.3279V73.7039H13.5906C12.5322 73.7039 12.1668 73.7415 12.0156 73.8919C11.9148 73.9922 11.7384 74.0799 11.6376 74.0799C11.4738 74.0799 11.436 73.9045 11.436 73.1023Z" fill="#FC732B"/>
<path d="M21.6421 72.5134C21.6421 71.6361 21.6799 71.4355 21.8689 71.3478C21.9823 71.2851 22.7635 71.235 23.5951 71.2475L25.1071 71.2601L25.1449 72.2753L25.1827 73.2905L23.8093 73.2278C22.6753 73.1777 22.4107 73.2027 22.2469 73.3782C22.1335 73.491 21.9445 73.5787 21.8437 73.5787C21.6799 73.5787 21.6421 73.4033 21.6421 72.5134Z" fill="#FC732B"/>
<path d="M27.186 72.764V72.2H28.95H30.714V72.6386C30.714 72.9896 30.6636 73.0773 30.4746 73.0773C30.336 73.0773 30.1974 73.0271 30.147 72.9645C30.0336 72.7765 27.9042 72.9519 27.7782 73.1525C27.7278 73.2527 27.564 73.328 27.438 73.328C27.2238 73.328 27.186 73.2402 27.186 72.764Z" fill="#FC732B"/>
<path d="M31.848 72.0245C31.848 71.1346 31.8858 70.9592 32.0748 70.884C32.5284 70.7085 40.3782 70.4453 40.7058 70.5957C40.8822 70.6834 40.92 70.8714 40.92 71.6109V72.5133L38.9292 72.5384C36.1698 72.5885 32.5662 72.8141 32.4276 72.952C32.352 73.0272 32.2008 73.0773 32.0748 73.0773C31.8732 73.0773 31.848 72.952 31.848 72.0245Z" fill="#FC732B"/>
<path d="M42.0541 71.4605C42.0541 70.9091 42.1045 70.4328 42.1675 70.3827C42.2935 70.32 44.5237 70.2699 46.5145 70.3075C47.0689 70.3075 47.5855 70.2573 47.6737 70.1821C47.7619 70.1195 48.4801 70.0317 49.2865 70.0067C51.1009 69.9565 51.1261 69.9691 51.1261 71.2725C51.1261 72.1123 51.1009 72.2 50.8867 72.2C50.7481 72.2 50.6095 72.1499 50.5591 72.0872C50.5213 72.012 50.0425 71.9869 49.4503 72.012C48.8833 72.0496 47.1949 72.1373 45.7081 72.2C44.2213 72.2752 42.7849 72.3629 42.5329 72.4005L42.0541 72.4757V71.4605Z" fill="#FC732B"/>
<path d="M52.1593 70.9217L52.1971 69.8814L53.7721 69.8188C55.6117 69.7436 55.7881 69.7686 55.7881 70.082C55.7881 70.295 55.8889 70.3201 56.7835 70.3201C57.7789 70.3201 57.7915 70.3201 57.8293 69.9817L57.8671 69.6308L59.3791 69.5556C60.2107 69.518 60.9919 69.5305 61.1179 69.5932C61.2943 69.6809 61.3321 69.8689 61.3321 70.6961C61.3321 71.611 61.3069 71.6988 61.0801 71.6988C60.9415 71.6988 60.8281 71.6361 60.8281 71.5609C60.8281 71.4732 60.6013 71.4606 60.1729 71.4982C59.8075 71.5484 58.1191 71.6361 56.4181 71.6988C54.7171 71.774 53.0539 71.8617 52.7263 71.8993L52.1215 71.9745L52.1593 70.9217Z" fill="#FC732B"/>
<path d="M62.3401 70.5832C62.3401 69.944 62.3905 69.5555 62.5039 69.4677C62.5795 69.4051 63.4111 69.3424 64.3309 69.3298L65.9941 69.3048V69.8061V70.32H66.9391H67.8841V69.8187C67.8841 69.3424 67.8715 69.3173 67.4809 69.3048C66.8257 69.2672 68.8291 69.0917 70.2151 69.0667L71.4751 69.0291L71.5129 69.9816L71.5507 70.9216L71.0719 70.9968C70.8073 71.0344 69.0055 71.1346 67.0651 71.2098C65.1247 71.285 63.3355 71.3978 63.0961 71.4605C62.3401 71.661 62.3401 71.661 62.3401 70.5832Z" fill="#FC732B"/>
<path d="M72.546 70.2073C72.546 69.5054 72.5964 69.1795 72.7224 69.0793C72.8358 68.979 73.491 68.9038 74.3352 68.8662C75.1164 68.8411 76.074 68.791 76.4772 68.7534C77.0946 68.6907 77.2332 68.7283 77.5608 69.0041C78.027 69.3926 78.09 69.3926 78.09 69.0041C78.09 68.8286 78.1278 68.6907 78.1908 68.6782C78.2412 68.6782 78.9342 68.6531 79.728 68.6155C80.5218 68.5905 81.303 68.5278 81.4668 68.5027C81.7314 68.4401 81.744 68.4651 81.744 69.4803V70.5206L77.4348 70.7337C74.7636 70.859 73.1004 70.9843 73.0752 71.0721C73.05 71.1347 72.924 71.1974 72.7854 71.1974C72.5712 71.1974 72.546 71.0971 72.546 70.2073Z" fill="#FC732B"/>
<path d="M85.5241 69.944V69.3173H84.1381C82.9033 69.3173 82.7521 69.2922 82.7521 69.1042C82.7647 68.4901 82.8277 68.4776 87.1621 68.2645C89.4175 68.1517 91.3831 68.064 91.5469 68.064C91.7989 68.064 91.8241 68.1266 91.8241 68.6906V69.3173H90.4381H89.0521V69.7434V70.1696L87.6031 70.2573C86.8093 70.3074 86.1163 70.3952 86.0785 70.4578C86.0407 70.5205 85.9021 70.5706 85.7635 70.5706C85.5619 70.5706 85.5241 70.4829 85.5241 69.944Z" fill="#FC732B"/>
<path d="M22.8012 38.0843C22.8768 37.7459 22.8894 36.5176 22.839 34.8883L22.7508 32.2312L23.0532 31.9555C23.217 31.8051 28.4712 28.1829 34.746 23.9216C41.0082 19.6603 46.1742 16.1259 46.212 16.0632C46.2498 16.0131 46.4388 15.9253 46.6278 15.8752C46.9554 15.8 47.1066 15.9128 48.543 17.3917L50.1054 18.996L48.2532 19.3469C46.4388 19.6979 46.1238 19.7981 46.4262 19.8984C46.5018 19.9235 46.8294 20.2619 47.157 20.6253L47.7366 21.3021L47.3838 21.3899C47.1948 21.44 41.739 25.0872 35.2878 29.4864C26.7702 35.2893 23.532 37.5704 23.532 37.7333C23.532 37.8587 23.4816 38.0091 23.406 38.0467C23.343 38.0843 23.28 38.2347 23.28 38.3725C23.28 38.5355 23.1918 38.6107 22.9776 38.6107C22.6878 38.6107 22.6752 38.5856 22.8012 38.0843Z" fill="#FC732B"/>
<path d="M51.126 16.9782C49.803 15.2862 49.11 14.2459 49.11 13.9576C49.11 13.8699 49.2612 13.7571 49.4628 13.707L49.803 13.6192L49.488 13.5315C49.299 13.4814 49.6518 13.4438 50.3448 13.4312C51.441 13.4187 51.5166 13.4062 51.441 13.1806C51.2772 12.6542 51.2646 12.4035 51.4158 12.4411C51.504 12.4536 52.2726 11.9899 53.142 11.4008C54.0114 10.7992 56.5062 9.0947 58.686 7.61577C60.8658 6.1243 62.7558 4.83337 62.8692 4.74564C62.9826 4.67044 63.0456 4.5451 63.0078 4.48244C62.9574 4.40724 63.0456 4.38217 63.1968 4.41977C63.3606 4.4699 63.474 4.4323 63.474 4.3571C63.474 4.26937 63.537 4.29444 63.6 4.3947C63.663 4.49497 63.726 4.5451 63.726 4.48244C63.726 4.21924 67.506 6.52537 68.0604 7.1395C68.2998 7.4027 68.2998 7.4027 67.9848 7.4027C67.7832 7.4027 65.2632 9.04457 60.5634 12.2406C56.6574 14.9102 53.268 17.2163 53.0538 17.3918C52.701 17.6424 52.638 17.7803 52.638 18.1939C52.638 18.4571 52.6002 18.6827 52.5498 18.6702C52.4868 18.6702 51.8568 17.9056 51.126 16.9782Z" fill="#FC732B"/>
<path d="M11.436 74.4812C11.436 73.4284 11.562 73.3281 12.9228 73.3156C13.5276 73.303 14.2206 73.2905 14.46 73.278C14.8632 73.2654 14.901 73.2905 14.9388 73.679L14.9766 74.0801H17.7486H20.508V74.3809V74.6942L18.1644 74.7068C16.8666 74.7068 15.7578 74.7444 15.6948 74.782C15.6318 74.8196 14.8002 74.9073 13.8552 74.97C12.9102 75.0201 11.9778 75.1078 11.7888 75.158L11.436 75.2332V74.4812Z" fill="#FC6535"/>
<path d="M21.6421 74.0048C21.6421 72.9019 21.6547 72.9019 23.3431 72.8267C24.1495 72.7891 24.8929 72.8142 24.9937 72.8643C25.1071 72.927 25.1701 73.1651 25.1701 73.516C25.1701 73.9296 25.2205 74.08 25.3591 74.08C25.4599 74.08 25.5481 74.1552 25.5481 74.2555C25.5481 74.3808 25.1827 74.4435 24.0109 74.5062C23.1541 74.5438 22.2721 74.619 22.0579 74.6566L21.6421 74.7318V74.0048Z" fill="#FC6535"/>
<path d="M26.808 74.2806C26.808 74.1678 26.8962 74.08 26.997 74.08C27.1356 74.08 27.186 73.9296 27.186 73.5536C27.1986 72.6888 27.312 72.6136 28.9248 72.5134C30.6384 72.4006 30.714 72.4382 30.714 73.4534V74.1678L29.3028 74.2555C28.5216 74.3057 27.6396 74.3683 27.3498 74.4059C26.9088 74.4686 26.808 74.4435 26.808 74.2806Z" fill="#FC6535"/>
<path d="M31.848 73.5287C31.848 73.0023 31.911 72.689 32.0244 72.5887C32.1126 72.5135 32.6922 72.4133 33.3096 72.3757C35.4768 72.2378 38.6016 72.125 39.723 72.125L40.857 72.1375L40.8948 72.5511L40.9326 72.9522H38.1606H35.376V73.5037C35.376 73.8295 35.439 74.0802 35.5398 74.1178C35.6154 74.1554 35.502 74.193 35.2878 74.193C35.061 74.2055 34.872 74.1429 34.872 74.0677C34.872 73.9047 32.604 74.0426 32.4276 74.2181C32.352 74.2807 32.2008 74.3309 32.0748 74.3309C31.8858 74.3309 31.848 74.2181 31.848 73.5287Z" fill="#FC6535"/>
<path d="M42.0541 72.8894C42.0541 72.4507 42.0919 72.0622 42.1549 72.0371C42.2053 71.9995 42.9487 71.9494 43.8181 71.8992C44.6875 71.8616 45.8467 71.799 46.4011 71.7614C49.6771 71.5734 50.7607 71.5608 50.9371 71.6987C51.0505 71.799 51.1261 72.0747 51.1261 72.4006V72.952H48.3541H45.5821V73.328C45.5821 73.6163 45.5317 73.704 45.3301 73.704C45.1915 73.704 45.0781 73.6539 45.0781 73.5912C45.0781 73.5286 44.8639 73.5035 44.6119 73.5286C44.3473 73.5536 43.6669 73.5912 43.0999 73.6288L42.0541 73.679V72.8894Z" fill="#FC6535"/>
<path d="M52.134 72.3881C52.134 71.7364 52.1718 71.5735 52.3608 71.5233C52.4742 71.4983 53.4318 71.4356 54.465 71.3855C56.3802 71.3103 57.2874 71.2727 59.7444 71.1223C61.332 71.0345 61.332 71.0345 61.332 72.1124V72.8268H60.3366C59.4168 72.8268 55.8006 72.9772 53.1798 73.1276L52.134 73.1903V72.3881Z" fill="#FC6535"/>
<path d="M62.3401 72.0372C62.3401 71.0095 62.3779 70.9844 63.9655 70.9593C64.6207 70.9468 65.1877 70.9092 65.2255 70.8967C65.2759 70.8716 66.3847 70.8215 67.6951 70.7713C69.0181 70.7212 70.4167 70.6585 70.8199 70.6084L71.5381 70.5332V71.4356V72.3255H70.7569C69.4339 72.338 63.0583 72.6889 62.6929 72.7767L62.3401 72.8519V72.0372Z" fill="#FC6535"/>
<path d="M72.546 71.6738C72.546 71.2351 72.5964 70.809 72.6594 70.7212C72.7224 70.6084 73.1256 70.5332 73.8186 70.5082C74.3982 70.4706 75.4188 70.4204 76.074 70.3954C76.7292 70.3578 78.09 70.2951 79.098 70.245C80.106 70.2074 81.114 70.1572 81.3408 70.1447L81.744 70.1196V70.9594V71.7991L80.0178 71.8743C74.751 72.125 73.2264 72.2252 73.1256 72.338C73.05 72.4007 72.8988 72.4508 72.7728 72.4508C72.5838 72.4508 72.546 72.338 72.546 71.6738Z" fill="#FC6535"/>
<path d="M85.524 71.0219C85.524 70.5331 85.587 70.1696 85.6878 70.0944C85.7634 70.0192 86.4942 69.9315 87.288 69.8814C88.0818 69.8312 88.8 69.7811 88.863 69.7686C88.9386 69.7686 89.0016 70.1195 89.0268 70.5832L89.0646 71.4104L88.2078 71.4856C87.7416 71.5358 87.0486 71.5734 86.6958 71.5734C86.3304 71.5734 86.028 71.636 86.028 71.6987C86.028 71.7739 85.9146 71.824 85.776 71.824C85.5492 71.824 85.524 71.7363 85.524 71.0219Z" fill="#FC6535"/>
<path d="M21.0246 41.7943C21.642 41.105 22.1838 40.1023 22.5744 38.9242C22.7634 38.3727 22.965 37.8212 23.028 37.7084C23.1036 37.5831 23.154 37.4076 23.154 37.3074C23.154 37.2071 28.5342 33.4471 35.124 28.9602C44.889 22.305 47.1318 20.826 47.3082 20.9263C47.4342 20.989 48.1146 21.6282 48.8202 22.3426L50.0928 23.6335L37.6692 32.0935C30.84 36.7434 25.1196 40.6538 24.9558 40.7791C24.792 40.9044 24.666 41.1426 24.666 41.318C24.666 41.4935 24.5904 41.6188 24.477 41.6188C24.3132 41.6188 24.0864 41.0047 23.658 39.4004C23.532 38.9116 23.28 38.6484 23.28 38.9994C23.28 39.2751 22.335 40.6914 21.7176 41.3431C20.9616 42.1452 20.3442 42.5338 21.0246 41.7943Z" fill="#FC6535"/>
<path d="M51.5922 21.5529C51.189 20.9889 50.874 20.5251 50.8992 20.5001C50.9244 20.4875 51.3906 20.287 51.945 20.0614C52.4994 19.8358 52.9908 19.6102 53.0412 19.5726C53.0916 19.5225 52.9782 19.2969 52.7766 19.0587C52.5876 18.8206 52.2978 18.3945 52.1466 18.1187L51.882 17.6174L52.2852 17.3041C52.512 17.1286 55.0698 15.3614 57.993 13.3686C67.4052 6.93901 67.4556 6.91394 67.7832 6.98914C67.9344 7.03928 68.6652 7.65341 69.3834 8.36781L70.6938 9.67128L70.2906 9.88434C70.0638 9.99714 65.9814 12.767 61.1934 16.0382C53.7846 21.1017 52.512 22.0166 52.512 22.2673C52.512 22.4302 52.4616 22.5681 52.4112 22.5681C52.3608 22.5681 51.9828 22.1043 51.5922 21.5529Z" fill="#FC6535"/>
<path d="M11.436 75.6966C11.436 75.258 11.4864 74.8318 11.5368 74.7566C11.5872 74.6814 12.192 74.6188 12.948 74.5937C13.6788 74.5812 14.586 74.5185 14.964 74.4558C15.342 74.3932 16.7406 74.3305 18.051 74.3054L20.445 74.2678L20.4828 75.095L20.5206 75.9222L18.0258 76.01C14.9892 76.1228 12.255 76.2982 11.7888 76.411L11.436 76.4862V75.6966Z" fill="#FD593D"/>
<path d="M21.6421 75.1954C21.6421 74.5562 21.6925 74.3682 21.8689 74.2554C21.9823 74.1927 22.6753 74.1175 23.4061 74.105C25.9135 74.0423 27.7531 73.9671 29.0131 73.8543C30.7519 73.7165 30.7141 73.7039 30.7141 74.6439V75.4335L28.6729 75.5087C25.4221 75.6466 22.4863 75.822 22.0453 75.9098L21.6421 75.9975V75.1954Z" fill="#FD593D"/>
<path d="M31.848 74.7817C31.848 74.2929 31.911 73.9295 32.0118 73.8543C32.1 73.7791 32.856 73.6788 33.7002 73.6287C35.187 73.5409 35.2248 73.5535 35.313 73.8167C35.3886 74.0799 35.4516 74.0799 38.1606 74.0799H40.92V74.4935V74.9196L39.4458 75.0073C38.6268 75.0449 36.7116 75.1452 35.187 75.2079C33.6372 75.2831 32.4024 75.3959 32.3772 75.4585C32.352 75.5337 32.226 75.5839 32.0874 75.5839C31.8732 75.5839 31.848 75.4836 31.848 74.7817Z" fill="#FD593D"/>
<path d="M42.0792 74.1802L42.117 73.2652L43.755 73.1775C44.9772 73.1023 45.4056 73.1274 45.4812 73.2402C45.5316 73.3279 45.582 73.7039 45.582 74.0799V74.7818L44.1078 74.8068C43.2888 74.8319 42.6084 74.8946 42.5832 74.9572C42.558 75.0324 42.432 75.0826 42.2934 75.0826C42.0666 75.0826 42.0414 75.0074 42.0792 74.1802Z" fill="#FD593D"/>
<path d="M52.134 73.7164C52.134 72.9017 52.1592 72.8265 52.4238 72.7764C52.638 72.7262 56.8842 72.5382 60.891 72.4004C61.269 72.3878 61.269 72.3878 61.3068 73.1649C61.3446 74.0798 61.4202 74.0422 59.631 74.13C59.0136 74.155 58.3458 74.2177 58.1568 74.2678C57.8292 74.3556 57.8166 74.343 57.7788 73.6913L57.741 73.0145L56.7708 72.9769L55.788 72.9393V73.5785C55.788 73.9169 55.7754 74.2052 55.7628 74.2177C55.7376 74.2302 55.0698 74.2804 54.276 74.3305C53.4822 74.3932 52.6758 74.4809 52.4868 74.5185L52.134 74.6062V73.7164Z" fill="#FD593D"/>
<path d="M62.3401 73.2902C62.3401 72.8139 62.4031 72.4254 62.4787 72.3753C62.6425 72.275 62.9575 72.2499 67.3171 72.0619C69.1945 71.9867 70.8955 71.9115 71.0971 71.899L71.4751 71.8865V72.7011V73.5158L70.0261 73.591C69.2323 73.6411 68.4259 73.7163 68.2369 73.7665C67.8967 73.8542 67.8841 73.8417 67.8841 73.403V72.9518H66.9391H65.9941V73.3779V73.8041L64.5199 73.8667C63.7009 73.9043 62.8819 73.9795 62.6929 74.0297L62.3401 74.1049V73.2902Z" fill="#FD593D"/>
<path d="M72.546 72.8516C72.546 72.4004 72.609 72.0495 72.7098 71.9743C72.8484 71.8489 74.8644 71.7236 79.665 71.498C80.5722 71.4604 81.4038 71.3977 81.5298 71.3727C81.7188 71.31 81.744 71.4103 81.744 72.1873V73.0772H81.0888C80.7234 73.0772 79.539 73.1399 78.468 73.2025C77.1954 73.2777 76.5024 73.2777 76.4772 73.2025C76.4268 73.0521 76.074 73.0396 76.074 73.1775C76.074 73.2401 75.4566 73.3279 74.7006 73.378C73.932 73.4156 73.1382 73.4908 72.9366 73.5284L72.546 73.6161V72.8516Z" fill="#FD593D"/>
<path d="M85.524 72.2375C85.524 71.8365 85.5744 71.4479 85.6248 71.3727C85.6752 71.285 86.3934 71.1973 87.3888 71.1346L89.052 71.0469V71.8615V72.6762L87.7668 72.7514C87.0486 72.8015 86.2548 72.8642 86.0028 72.9018L85.524 72.977V72.2375Z" fill="#FD593D"/>
<path d="M25.3464 44.426C24.8802 43.323 24.2628 41.5182 24.2376 41.1548C24.1998 40.879 24.2754 40.691 24.4644 40.5156C24.8424 40.1646 49.5762 23.3198 49.7022 23.3198C49.7652 23.3198 50.433 23.934 51.189 24.6985C52.071 25.5758 52.5246 26.1148 52.449 26.19C52.3734 26.2526 49.2864 28.3708 45.582 30.9025C41.0964 33.9606 38.8284 35.5774 38.8032 35.7404C38.778 35.8782 38.6646 35.9785 38.5134 35.9785C38.2362 35.9785 38.2236 35.6902 38.3874 34.0985C38.4882 33.2212 38.3874 32.6446 38.2362 33.171C38.1228 33.5846 37.6692 35.5148 37.5936 35.9785C37.518 36.3921 37.203 36.6177 31.6842 40.3777C27.4632 43.2478 25.8504 44.4134 25.8252 44.614C25.7622 45.015 25.5606 44.9273 25.3464 44.426Z" fill="#FD593D"/>
<path d="M53.205 23.7836C52.6506 23.0191 52.134 22.242 52.0584 22.0666C51.9198 21.7407 51.9954 21.6906 60.1224 16.1508C64.6332 13.0676 68.7408 10.2602 69.2448 9.90922L70.1646 9.27002L70.6182 9.74629C71.16 10.3103 72.42 12.1903 72.42 12.441C72.42 12.5287 70.7568 13.7319 68.7282 15.1106C65.994 16.9906 65.0364 17.6924 65.0112 17.9055L64.9734 18.1812L64.5954 17.918C64.3812 17.7676 64.0158 17.6047 63.7764 17.5546C62.5164 17.2663 61.1682 18.482 61.3698 19.7354C61.4202 20.1239 61.395 20.149 58.0938 22.3799C56.2542 23.6207 54.654 24.7612 54.528 24.9242C54.402 25.0746 54.2886 25.1999 54.2634 25.1999C54.2382 25.1999 53.7594 24.5607 53.205 23.7836Z" fill="#FD593D"/>
<path d="M11.436 76.4111C11.436 76.2356 11.499 76.0602 11.5872 76.01C11.751 75.9098 16.161 75.6591 19.815 75.5463L20.445 75.5212L20.4828 76.1103L20.5206 76.6994L15.9846 76.7119H11.436V76.4111Z" fill="#FD4B47"/>
<path d="M21.6421 76.1606C21.6421 75.8473 21.6925 75.5716 21.7681 75.5214C21.9193 75.4212 22.7383 75.371 25.5481 75.2708C26.8333 75.2206 28.0051 75.1705 28.1689 75.1454C28.3201 75.1204 28.9501 75.0828 29.5549 75.0702L30.6511 75.0452L30.6889 75.8724L30.7267 76.6996L26.1781 76.7121H21.6421V76.1606Z" fill="#FD4B47"/>
<path d="M31.848 76.0101C31.848 75.609 31.8984 75.208 31.9488 75.1202C31.9992 75.0325 32.6166 74.9448 33.612 74.8946C34.4814 74.857 35.5902 74.8069 36.069 74.7693C36.5604 74.7442 37.8456 74.6816 38.9418 74.6314L40.92 74.5437V75.4837V76.4362L40.1388 76.5114C39.6978 76.549 37.6566 76.6242 35.6028 76.6618L31.848 76.7496V76.0101Z" fill="#FD4B47"/>
<path d="M42.0541 75.6968C42.0541 75.183 42.1045 74.7067 42.1549 74.6315C42.2053 74.5438 42.8731 74.456 43.7425 74.4059C44.5741 74.3558 45.2797 74.2931 45.3301 74.268C45.4939 74.1678 45.5821 74.5688 45.5821 75.4086C45.5821 75.8472 45.5695 76.2107 45.5569 76.2232C45.5317 76.2232 44.9017 76.2734 44.1331 76.336C43.3771 76.3862 42.5959 76.4739 42.4069 76.524L42.0541 76.6118V75.6968Z" fill="#FD4B47"/>
<path d="M52.134 75.1954C52.134 74.6815 52.1844 74.2053 52.2348 74.1301C52.2852 74.0423 52.764 73.9797 53.394 73.9671C53.9862 73.9546 54.7674 73.917 55.1328 73.8794L55.788 73.8042V74.7567C55.788 75.2831 55.7754 75.7093 55.7628 75.7218C55.7376 75.7218 55.0698 75.7719 54.276 75.8346C53.4822 75.8973 52.6758 75.985 52.4868 76.0351L52.134 76.1103V75.1954Z" fill="#FD4B47"/>
<path d="M57.8041 74.9449C57.8041 74.431 57.8545 73.9548 57.9049 73.8921C57.9553 73.8169 58.4467 73.7417 59.0011 73.7292C59.5555 73.7041 60.3115 73.6665 60.6769 73.6289L61.3321 73.5537V74.5062C61.3321 75.3209 61.3069 75.4588 61.1179 75.4713C60.1477 75.5214 58.4341 75.6969 58.1569 75.7721L57.8041 75.8598V74.9449Z" fill="#FD4B47"/>
<path d="M62.3401 74.6566C62.3401 73.5035 62.3527 73.491 64.0411 73.4659C64.6711 73.4534 65.3641 73.4158 65.5909 73.3907L65.9941 73.3406V74.3182V75.2958L64.5829 75.371C63.8017 75.4086 62.9701 75.4838 62.7559 75.5339L62.3401 75.6216V74.6566Z" fill="#FD4B47"/>
<path d="M67.884 74.4058C67.884 73.6288 67.9218 73.4408 68.1108 73.353C68.2242 73.2778 69.0432 73.2026 69.9378 73.1776L71.538 73.1274V74.0424C71.538 75.0952 71.6514 75.02 69.837 75.1453C69.2196 75.1829 68.514 75.2456 68.2998 75.2832L67.884 75.3584V74.4058Z" fill="#FD4B47"/>
<path d="M72.546 74.1552C72.546 73.6413 72.5964 73.1776 72.672 73.14C72.735 73.1024 73.3776 73.0397 74.0832 73.0147C79.2492 72.7765 81.2148 72.6763 81.4668 72.6261C81.7314 72.576 81.744 72.6011 81.744 73.5661V74.5563L80.4588 74.6315C79.7406 74.6816 78.909 74.7443 78.594 74.7819C78.027 74.8445 78.0144 74.8445 77.1576 73.9672C76.6914 73.4784 76.2504 73.0773 76.1874 73.0773C76.1244 73.0773 76.074 73.4659 76.074 73.9421V74.8069L74.9778 74.8821C74.3604 74.9323 73.5666 74.9949 73.2138 75.02L72.546 75.0827V74.1552Z" fill="#FD4B47"/>
<path d="M85.5493 73.4784L85.5871 72.5133L86.7211 72.4255C87.3511 72.3879 88.1071 72.3378 88.4221 72.3128L88.9891 72.2751L89.0269 73.2277L89.0647 74.1802L88.2709 74.2554C87.8299 74.293 87.0361 74.3432 86.4943 74.3808L85.5115 74.4434L85.5493 73.4784Z" fill="#FD4B47"/>
<path d="M25.6866 45.3285C25.5354 44.8898 25.422 44.401 25.4472 44.2506C25.4724 44.0375 26.6316 43.1853 29.895 40.9669C37.014 36.1039 37.4046 35.8407 37.5054 35.9034C37.5558 35.941 37.5306 36.4298 37.4424 37.0063C37.1526 38.8487 37.0518 40.4906 37.2282 40.4906C37.3038 40.4906 37.4172 40.4279 37.455 40.3527C37.5054 40.2775 37.6314 40.2525 37.7322 40.2901C37.833 40.3277 37.8708 40.3151 37.833 40.2525C37.7952 40.1898 37.833 40.0895 37.9086 40.0519C38.148 39.9015 37.8834 41.1549 37.6314 41.3679C37.1022 41.8066 36.825 41.9946 36.7368 41.9946C36.6864 41.9946 36.5226 42.0949 36.3966 42.2202C36.069 42.5085 35.9556 42.5837 34.872 43.3106C34.3554 43.649 33.9018 43.9623 33.864 43.9999C33.8262 44.0375 33.297 44.401 32.667 44.8146C31.4952 45.5917 31.3314 45.717 31.029 45.9802C30.903 46.093 30.1974 46.1306 28.4208 46.1306H25.9764L25.6866 45.3285Z" fill="#FD4B47"/>
<path d="M39.0804 39.5257C39.1308 38.9115 39.1938 38.1846 39.2316 37.8963C39.282 37.5955 39.2568 37.3574 39.2064 37.3574C39.1434 37.3574 38.8536 37.583 38.5638 37.8587L38.0472 38.3601L38.1228 37.3323C38.1606 36.7558 38.2488 36.0289 38.3244 35.703L38.463 35.1139L45.33 30.4265L52.197 25.739L53.8728 27.3809C54.78 28.2833 55.536 29.0854 55.536 29.1731C55.536 29.2609 55.3974 29.3361 55.221 29.3361C55.0446 29.3361 54.906 29.4113 54.906 29.499C54.906 29.5742 54.6918 29.7873 54.4272 29.9627C54.1752 30.1382 53.9358 30.3011 53.898 30.3387C53.8602 30.3889 53.6082 30.5518 53.331 30.7147C53.0538 30.8777 52.7514 31.0907 52.6632 31.1785C52.575 31.2662 52.4364 31.3414 52.3734 31.3414C52.3104 31.3414 52.1466 31.4417 52.0206 31.567C51.693 31.8553 51.5796 31.9305 50.496 32.6574C49.9794 32.9958 49.5258 33.3091 49.488 33.3467C49.4502 33.3843 48.921 33.7478 48.291 34.1614C47.6736 34.575 47.1318 34.9385 47.094 34.9886C47.0562 35.0262 46.8042 35.1891 46.527 35.3521C46.2498 35.515 45.9474 35.7281 45.8592 35.8158C45.771 35.9035 45.6324 35.9787 45.5568 35.9787C45.4812 35.9787 45.33 36.079 45.2166 36.2043C45.1032 36.3171 44.511 36.7558 43.881 37.1694C43.2636 37.5705 42.7218 37.9465 42.684 37.9841C42.6462 38.0217 42.3942 38.1971 42.117 38.3601C41.8398 38.523 41.5374 38.7361 41.4492 38.8238C41.361 38.9115 41.235 38.9867 41.172 38.9867C41.109 38.9867 40.8696 39.1622 40.6428 39.3627C40.416 39.5758 40.1514 39.7387 40.0632 39.7387C39.8112 39.7387 39.534 40.0646 39.534 40.3529C39.534 40.5409 39.4584 40.6161 39.2694 40.6161C39.0048 40.6161 38.9922 40.5785 39.0804 39.5257Z" fill="#FD4B47"/>
<path d="M55.3218 26.7165C54.2634 25.2501 53.709 24.3227 54.0114 24.5107C54.0744 24.5483 54.1626 24.5232 54.2004 24.4605C54.2508 24.3979 55.5108 23.4955 57.0228 22.4677C60.9414 19.7981 61.3446 19.5349 61.3068 19.6477C61.2816 19.6979 61.4076 20.0112 61.5588 20.3371C62.0628 21.3397 63.0456 21.7659 64.041 21.3773C65.3514 20.8885 65.805 19.184 64.8852 18.2064C64.2174 17.4795 64.0032 17.6925 68.6022 14.5592C70.3536 13.3685 71.8656 12.3157 71.979 12.2155C72.0798 12.1152 72.2184 12.0525 72.2814 12.0901C72.4326 12.1904 73.743 14.8725 74.0202 15.6621C74.1966 16.176 74.2092 16.3515 74.0958 16.3891C74.0076 16.4267 73.932 16.5144 73.932 16.6021C73.932 16.6773 73.7304 16.8528 73.4784 16.9907C73.239 17.116 72.9114 17.3291 72.7728 17.4544C72.6216 17.5797 72.4326 17.68 72.3318 17.68C72.2436 17.68 72.168 17.7301 72.168 17.7928C72.168 17.8555 71.5884 18.2816 70.8828 18.7579C70.1646 19.2216 69.5598 19.6477 69.522 19.6853C69.4842 19.7229 69.2322 19.8984 68.955 20.0613C68.6778 20.2243 68.3754 20.4373 68.2872 20.5251C68.199 20.6128 68.0604 20.688 67.9974 20.688C67.9344 20.688 67.7832 20.7883 67.6572 20.9136C67.5312 21.0264 67.317 21.2019 67.1784 21.2771C67.0524 21.3648 66.6618 21.6405 66.309 21.8787C65.9688 22.1168 65.6286 22.3173 65.5656 22.3173C65.5026 22.3173 65.364 22.4176 65.2506 22.5429C65.1372 22.6557 64.545 23.0944 63.915 23.508C63.2976 23.9216 62.7558 24.2851 62.718 24.3352C62.6802 24.3728 62.4282 24.5357 62.151 24.6987C61.8738 24.8616 61.5714 25.0747 61.4832 25.1624C61.395 25.2501 61.2564 25.3253 61.1808 25.3253C61.1052 25.3253 60.954 25.4256 60.8406 25.5509C60.7272 25.6637 60.135 26.1024 59.505 26.516C58.8876 26.9296 58.3206 27.3056 58.245 27.3557C57.2622 28.0952 56.8842 28.3333 56.6952 28.3333C56.5692 28.3333 56.0274 27.7067 55.3218 26.7165Z" fill="#FD4B47"/>
<path d="M57.8041 76.4111C57.8041 75.6341 57.8419 75.4461 58.0309 75.3583C58.1443 75.2957 58.9381 75.2079 59.7949 75.1578L61.3447 75.0701L61.3069 75.9098C61.2565 77.0629 61.0927 77.1631 59.2279 77.2759L57.8041 77.3637V76.4111Z" fill="#FD3A53"/>
<path d="M31.974 76.6117C31.974 76.549 32.4654 76.4863 33.0828 76.4738C33.6876 76.4612 35.061 76.3986 36.132 76.3234C37.203 76.2607 38.5134 76.173 39.03 76.1479C39.5466 76.1103 40.1892 76.0602 40.4538 76.0226C40.9074 75.9599 40.92 75.9725 40.92 76.3234V76.6994L36.447 76.7119C33.8892 76.7119 31.974 76.6743 31.974 76.6117Z" fill="#FD3A53"/>
<path d="M42.0541 76.4613C42.0541 76.0853 42.3817 75.985 43.8559 75.9098C44.5993 75.8597 45.2923 75.797 45.3931 75.7594C45.5443 75.6968 45.5821 75.7845 45.5821 76.1981V76.712H43.8181C42.1549 76.712 42.0541 76.6994 42.0541 76.4613Z" fill="#FD3A53"/>
<path d="M52.1593 76.1855C52.2097 75.5463 52.2979 75.5212 54.3769 75.4084L55.7881 75.3333V76.0226V76.7119H53.9485H52.1215L52.1593 76.1855Z" fill="#FD3A53"/>
<path d="M62.3401 75.9598C62.3401 75.0323 62.4031 74.9947 64.1041 74.9571C64.7593 74.9446 65.4397 74.9321 65.6161 74.9195C65.9185 74.8945 65.9311 74.9195 65.9689 75.8094L66.0067 76.7118H64.1671H62.3401V75.9598Z" fill="#FD3A53"/>
<path d="M67.884 75.8346C67.884 74.7818 67.9218 74.7567 69.396 74.7316C69.9126 74.7191 70.6056 74.6815 70.9458 74.6314L71.538 74.5562V75.6215V76.6868L69.711 76.6994L67.884 76.7244V75.8346Z" fill="#FD3A53"/>
<path d="M72.546 75.6592C72.546 75.1453 72.5964 74.6941 72.6594 74.6565C72.7224 74.6189 73.365 74.5437 74.0706 74.5061C74.7888 74.4685 75.5196 74.4309 75.696 74.4184C76.011 74.3933 76.011 74.4184 76.0488 75.4085L76.0866 76.4237L75.6078 76.5114C75.3432 76.549 74.5494 76.5866 73.8438 76.5866H72.546V75.6592Z" fill="#FD3A53"/>
<path d="M78.594 75.3959C78.0774 74.882 77.6868 74.4434 77.712 74.4434C77.9262 74.3807 78.4428 74.3431 79.665 74.2679C80.4336 74.2178 81.1896 74.1802 81.366 74.1676C81.681 74.1426 81.681 74.1551 81.7188 75.1578L81.7566 76.173L80.8998 76.2482C80.4336 76.2983 79.9296 76.3359 79.791 76.3359C79.6398 76.3359 79.1484 75.9474 78.594 75.3959Z" fill="#FD3A53"/>
<path d="M85.524 75.0323C85.524 74.5185 85.5744 74.0673 85.6248 74.0297C85.6752 74.0046 86.3934 73.9419 87.225 73.8918C88.0566 73.8417 88.7874 73.8041 88.863 73.7915C88.9386 73.779 89.0016 74.1801 89.0268 74.7817C89.0646 76.0099 89.1654 75.9598 87.0108 75.9598H85.524V75.0323Z" fill="#FD3A53"/>
<path d="M29.8698 46.0427C30.0588 46.0177 30.21 45.9299 30.21 45.8673C30.21 45.8046 30.2982 45.7545 30.399 45.7545C30.4998 45.7545 30.588 45.6793 30.588 45.579C30.588 45.4787 30.651 45.3534 30.7392 45.3033C30.8274 45.2531 30.84 45.2657 30.7896 45.3534C30.7266 45.4537 30.7644 45.4787 30.8904 45.4286C31.0038 45.391 31.0668 45.3033 31.0542 45.2531C31.0416 45.203 31.0794 45.1529 31.1298 45.1529C31.1928 45.1403 31.3188 45.0401 31.4322 44.9147C31.533 44.7894 31.5834 44.7643 31.533 44.8771C31.4826 44.9774 31.5708 44.9273 31.7346 44.7518C31.8984 44.5763 32.0118 44.4886 31.974 44.5638C31.9362 44.639 32.0496 44.5513 32.2134 44.3758C32.3772 44.2003 32.4654 44.1502 32.415 44.2505C32.3646 44.3507 32.4528 44.3006 32.604 44.1251C32.7552 43.9497 32.8434 43.8995 32.793 43.9998C32.7426 44.1001 32.8308 44.0499 32.982 43.8745C33.1332 43.699 33.2214 43.6363 33.171 43.7115C33.1206 43.8118 33.1584 43.8494 33.2844 43.7993C33.3978 43.7617 33.4608 43.6865 33.4482 43.6489C33.4356 43.5987 33.4734 43.5486 33.5238 43.5361C33.5742 43.5235 33.7254 43.4107 33.8388 43.2729C33.9522 43.1475 34.0278 43.1099 33.99 43.1851C33.9522 43.2603 34.0656 43.1726 34.2294 42.9971C34.3932 42.8217 34.4814 42.7715 34.431 42.8718C34.3806 42.9721 34.4688 42.9219 34.62 42.7465C34.7712 42.571 34.8594 42.5209 34.809 42.6211C34.7586 42.7214 34.8468 42.6713 34.998 42.4958C35.1492 42.3203 35.2374 42.2577 35.187 42.3329C35.1366 42.4331 35.1744 42.4707 35.3004 42.4206C35.4138 42.383 35.4768 42.2953 35.4642 42.2451C35.4516 42.195 35.4894 42.1449 35.5398 42.1449C35.6028 42.1323 35.7288 42.0321 35.8422 41.9067C35.9556 41.7689 35.9934 41.7563 35.943 41.8691C35.8926 41.9694 35.9556 41.9443 36.069 41.8065C36.1824 41.6686 36.3336 41.5683 36.3966 41.5934C36.4596 41.6059 36.51 41.5558 36.51 41.4806C36.51 41.4179 36.573 41.3929 36.636 41.4305C36.7116 41.4806 36.7494 41.4555 36.7368 41.3929C36.7116 41.3177 36.7368 41.2675 36.7998 41.255C36.8502 41.2425 37.0014 41.1297 37.14 40.9918C37.2912 40.8414 37.455 40.7662 37.518 40.8038C37.5684 40.8414 37.644 40.7913 37.6818 40.7161C37.707 40.6283 37.7826 40.5907 37.833 40.6409C37.896 40.691 37.8204 41.5433 37.6818 42.5209C37.5432 43.511 37.455 44.3382 37.4676 44.3633C37.4928 44.3883 37.6188 44.3257 37.7322 44.2254C38.1984 43.8369 38.211 43.8745 38.1228 44.9774C38.085 45.579 38.0346 46.0803 38.0346 46.1054C38.022 46.1179 36.1068 46.1179 33.7758 46.1179C31.4322 46.1054 29.6682 46.0678 29.8698 46.0427Z" fill="#FD3A53"/>
<path d="M39.8616 43.0349C39.8994 42.0072 39.9498 41.1048 39.9876 41.0296C40.0632 40.7789 39.8364 40.8416 39.4332 41.18C39.219 41.3554 39.0174 41.4933 38.967 41.4933C38.8788 41.4933 38.9292 40.9168 39.093 40.077C39.1812 39.6634 39.5844 39.1746 39.7608 39.2874C39.8364 39.325 40.0128 39.2122 40.164 39.0242C40.3152 38.8237 40.4034 38.761 40.353 38.8613C40.3026 38.9616 40.3656 38.9365 40.479 38.7986C40.5924 38.6608 40.7436 38.5605 40.8066 38.5856C40.8696 38.5981 40.92 38.548 40.92 38.4728C40.92 38.4101 40.983 38.385 41.046 38.4226C41.1216 38.4728 41.1594 38.4602 41.1468 38.3976C41.1216 38.3474 41.172 38.2722 41.235 38.2472C41.3106 38.2221 41.4366 38.1093 41.5248 37.9965C41.6634 37.8336 41.676 37.8336 41.613 37.984C41.5626 38.0842 41.6508 38.0341 41.802 37.8586C41.9532 37.6832 42.0414 37.6205 41.991 37.6957C41.9406 37.796 41.9784 37.8336 42.1044 37.7834C42.2178 37.7458 42.2808 37.6706 42.2682 37.633C42.2556 37.5829 42.2808 37.5453 42.3186 37.5453C42.369 37.5453 42.5076 37.4325 42.6336 37.2946C42.7722 37.1442 42.8478 37.0941 42.81 37.1693C42.7722 37.2445 42.8856 37.1568 43.0494 36.9813C43.2132 36.8058 43.3014 36.7557 43.251 36.856C43.2006 36.9562 43.2888 36.9061 43.44 36.7306C43.5912 36.5552 43.6794 36.505 43.629 36.6053C43.5786 36.7056 43.6668 36.6554 43.818 36.48C43.9692 36.3045 44.0574 36.2544 44.007 36.3546C43.9566 36.4549 44.0448 36.4048 44.196 36.2293C44.3472 36.0538 44.4354 35.9912 44.385 36.0664C44.3346 36.1666 44.3724 36.2042 44.4984 36.1541C44.6118 36.1165 44.6748 36.0413 44.6622 36.0037C44.6496 35.9536 44.7 35.9034 44.763 35.8784C44.8386 35.8533 44.9394 35.753 44.9898 35.6528C45.0528 35.5525 45.141 35.5024 45.2166 35.54C45.2796 35.5901 45.33 35.5525 45.33 35.4773C45.33 35.4021 45.393 35.377 45.456 35.4146C45.5316 35.4648 45.5694 35.4397 45.5568 35.377C45.5316 35.3018 45.582 35.2392 45.645 35.2141C45.7206 35.2016 45.8466 35.1013 45.9348 34.9885C46.0734 34.8256 46.086 34.8256 46.023 34.976C45.9726 35.0762 46.0608 35.0261 46.212 34.8506C46.3632 34.6752 46.4514 34.6125 46.401 34.6877C46.3506 34.788 46.3884 34.8256 46.5144 34.7754C46.6278 34.7378 46.6908 34.6626 46.6782 34.625C46.6656 34.5749 46.6908 34.5373 46.7412 34.5373C46.7916 34.5373 46.9176 34.4245 47.031 34.2866C47.1444 34.1488 47.1948 34.1237 47.157 34.224C47.1066 34.3242 47.1948 34.2741 47.3586 34.0986C47.5224 33.9232 47.6358 33.8354 47.598 33.9106C47.5602 33.9858 47.6736 33.8981 47.8374 33.7226C48.0012 33.5472 48.0894 33.497 48.039 33.5973C47.9886 33.6976 48.0768 33.6474 48.228 33.472C48.3792 33.2965 48.4674 33.2464 48.417 33.3466C48.3666 33.4469 48.4548 33.3968 48.606 33.2213C48.7572 33.0458 48.8454 32.9832 48.795 33.0584C48.7446 33.1586 48.7824 33.1962 48.9084 33.1461C49.0218 33.1085 49.0848 33.0333 49.0722 32.9957C49.0596 32.9456 49.0974 32.8954 49.1478 32.8829C49.1982 32.8704 49.3494 32.7576 49.4628 32.6197C49.5762 32.4944 49.6518 32.4568 49.614 32.532C49.5762 32.6072 49.6896 32.5194 49.8534 32.344C50.0172 32.1685 50.1054 32.1184 50.055 32.2186C50.0046 32.3189 50.0928 32.2688 50.244 32.0933C50.3952 31.9178 50.4834 31.8677 50.433 31.968C50.3826 32.0682 50.4708 32.0181 50.622 31.8426C50.7732 31.6672 50.8614 31.6045 50.811 31.6797C50.7606 31.78 50.7984 31.8176 50.9244 31.7674C51.0378 31.7298 51.1008 31.6546 51.0882 31.617C51.0756 31.5669 51.1008 31.5293 51.1512 31.5293C51.2016 31.5293 51.3276 31.4165 51.441 31.2786C51.5544 31.1408 51.6174 31.1157 51.567 31.216C51.5166 31.3162 51.5796 31.2912 51.693 31.1533C51.8064 31.0154 51.9576 30.9152 52.0206 30.9277C52.0836 30.9528 52.134 30.9026 52.134 30.8274C52.134 30.7648 52.197 30.7397 52.26 30.7773C52.3356 30.8274 52.3734 30.8149 52.3608 30.7522C52.3356 30.7021 52.3734 30.6394 52.4238 30.6269C52.4868 30.6144 52.6128 30.5016 52.7262 30.3762C52.827 30.2384 52.8774 30.2258 52.827 30.3386C52.7766 30.4389 52.8648 30.3888 53.016 30.2133C53.1672 30.0378 53.2554 29.9752 53.205 30.0504C53.1546 30.1506 53.1924 30.1882 53.3184 30.1381C53.4318 30.1005 53.4948 30.0253 53.4822 29.9877C53.4696 29.9376 53.52 29.8749 53.583 29.8498C53.6586 29.8122 53.7972 29.6994 53.898 29.5866C53.9988 29.4738 54.0618 29.4488 54.024 29.524C53.9862 29.5992 54.0492 29.5616 54.1626 29.4362C54.276 29.3234 54.4146 29.2608 54.465 29.3109C54.528 29.361 54.528 29.336 54.4902 29.2608C54.3642 29.0477 54.7044 28.8096 54.969 28.9224C55.158 28.985 55.1832 28.96 55.1076 28.7594C55.0572 28.6341 55.5108 29.0101 56.1156 29.6117L57.2118 30.6896L56.4306 31.404C55.4982 32.2688 54.3138 33.9984 53.8476 35.1765L53.5074 36.0413L48.6312 39.3626C40.5672 44.8648 40.5546 44.8773 40.1514 44.8773H39.786L39.8616 43.0349Z" fill="#FD3A53"/>
<path d="M57.0732 29.1228C56.3676 28.1452 56.3172 28.0199 56.5188 27.9447C56.6574 27.8946 56.8842 27.694 57.0354 27.4935C57.1866 27.3055 57.2874 27.2303 57.237 27.3306C57.1866 27.4308 57.2748 27.3807 57.426 27.2052C57.5772 27.0298 57.6654 26.9671 57.615 27.0423C57.5646 27.1426 57.6024 27.1802 57.7284 27.13C57.8418 27.0924 57.9048 27.0172 57.8922 26.9796C57.8796 26.9295 57.9048 26.8919 57.9426 26.8919C57.993 26.8919 58.1316 26.7791 58.2576 26.6412C58.3962 26.4908 58.4718 26.4407 58.434 26.5159C58.3962 26.5911 58.5096 26.5034 58.6734 26.3279C58.8372 26.1524 58.9254 26.1023 58.875 26.2026C58.8246 26.3028 58.9128 26.2527 59.064 26.0772C59.2152 25.9018 59.3034 25.8516 59.253 25.9519C59.2026 26.0522 59.2908 26.002 59.442 25.8266C59.5932 25.6511 59.6814 25.601 59.631 25.7012C59.5806 25.8015 59.6688 25.7514 59.82 25.5759C59.9712 25.4004 60.0594 25.3378 60.009 25.413C59.9586 25.5132 59.9964 25.5508 60.1224 25.5007C60.2358 25.4631 60.2988 25.3879 60.2862 25.3503C60.2736 25.3002 60.3114 25.2626 60.3618 25.2626C60.4248 25.2626 60.5256 25.1623 60.5886 25.037C60.6642 24.9242 60.765 24.849 60.8406 24.8866C60.9036 24.9367 60.954 24.8991 60.954 24.8239C60.954 24.7487 61.017 24.7236 61.08 24.7612C61.1556 24.8114 61.1934 24.7988 61.1808 24.7362C61.1556 24.686 61.1934 24.6234 61.2438 24.6108C61.3068 24.5983 61.4328 24.4855 61.5462 24.3602C61.647 24.2223 61.6974 24.2098 61.647 24.3226C61.5966 24.4228 61.6848 24.3727 61.836 24.1972C61.9872 24.0218 62.0754 23.9591 62.025 24.0343C61.9746 24.1346 62.0124 24.1722 62.1384 24.122C62.2518 24.0844 62.3148 24.0092 62.3022 23.9716C62.2896 23.9215 62.3274 23.8714 62.3778 23.8588C62.4408 23.8463 62.5668 23.7335 62.6802 23.6082C62.781 23.4828 62.8314 23.4578 62.781 23.5706C62.7306 23.6708 62.8188 23.6207 62.9826 23.4452C63.1464 23.2698 63.2598 23.182 63.222 23.2572C63.1842 23.3324 63.2976 23.2447 63.4614 23.0692C63.6252 22.8938 63.7134 22.8436 63.663 22.9439C63.6126 23.0442 63.7008 22.994 63.852 22.8186C64.0032 22.6431 64.0914 22.593 64.041 22.6932C63.9906 22.7935 64.0788 22.7434 64.23 22.5679C64.3812 22.3924 64.4694 22.3298 64.419 22.405C64.3686 22.5052 64.4064 22.5428 64.5324 22.4927C64.6458 22.4551 64.7088 22.3674 64.6962 22.3172C64.6836 22.2671 64.7214 22.217 64.7718 22.217C64.8348 22.2044 64.9608 22.1042 65.0616 21.9788C65.1498 21.8535 65.238 21.8034 65.238 21.866C65.238 21.9162 65.3388 21.866 65.4648 21.7282C65.5782 21.6028 65.6538 21.5527 65.616 21.6279C65.5782 21.7031 65.6916 21.6154 65.8554 21.4399C66.0192 21.2644 66.1074 21.2143 66.057 21.3146C66.0066 21.4148 66.0948 21.3647 66.246 21.1892C66.3972 21.0138 66.4854 20.9511 66.435 21.0263C66.3846 21.1266 66.4224 21.1642 66.5484 21.114C66.6618 21.0764 66.7248 20.9887 66.7122 20.9386C66.6996 20.8884 66.7248 20.8508 66.7752 20.8508C66.8256 20.8634 66.9516 20.7631 67.065 20.6252C67.1784 20.4874 67.2414 20.4623 67.191 20.5626C67.1406 20.6628 67.2036 20.6378 67.317 20.4999C67.4304 20.362 67.5816 20.2618 67.6446 20.2743C67.7076 20.2994 67.758 20.2492 67.758 20.174C67.758 20.1114 67.821 20.0863 67.884 20.1239C67.9596 20.174 67.9974 20.1615 67.9848 20.0988C67.9596 20.0487 67.9848 19.9986 68.0352 19.9986C68.0856 19.9986 68.2116 19.8858 68.325 19.7479C68.4384 19.61 68.5014 19.585 68.451 19.6852C68.4006 19.7855 68.4888 19.7354 68.64 19.5599C68.7912 19.3844 68.8794 19.3218 68.829 19.397C68.7786 19.4972 68.8164 19.5348 68.9424 19.4847C69.0558 19.4471 69.1188 19.3719 69.1062 19.3343C69.0936 19.2842 69.1314 19.234 69.1818 19.2215C69.2322 19.209 69.3834 19.0962 69.4968 18.9583C69.6102 18.833 69.6858 18.7954 69.648 18.8706C69.6102 18.9458 69.7236 18.858 69.8874 18.6826C70.0512 18.5071 70.1394 18.457 70.089 18.5572C70.0386 18.6575 70.1268 18.6074 70.278 18.4319C70.4292 18.2564 70.5174 18.2063 70.467 18.3066C70.4166 18.4068 70.5048 18.3567 70.656 18.1812C70.8072 18.0058 70.8954 17.9431 70.845 18.0308C70.7064 18.3066 70.9206 18.1938 71.3238 17.7802C71.538 17.5546 71.664 17.4543 71.6136 17.5546C71.5632 17.6548 71.6136 17.6298 71.727 17.4919C71.8404 17.354 71.9916 17.2538 72.0546 17.2663C72.1176 17.2914 72.168 17.2412 72.168 17.166C72.168 17.1034 72.231 17.0783 72.294 17.1159C72.3696 17.166 72.4074 17.1535 72.3948 17.0908C72.3696 17.0407 72.4074 16.978 72.4578 16.9655C72.5208 16.953 72.6468 16.8402 72.7602 16.7148C72.861 16.577 72.9114 16.5644 72.861 16.6772C72.8106 16.7775 72.8988 16.7274 73.05 16.5519C73.2012 16.3764 73.2894 16.3138 73.239 16.389C73.1886 16.4892 73.2264 16.5268 73.3524 16.4767C73.4658 16.4391 73.5414 16.3639 73.5288 16.3263C73.5036 16.1007 73.5666 15.8876 73.6422 15.9628C73.68 16.013 73.7934 15.9879 73.8816 15.9127C73.9698 15.85 74.058 15.8375 74.0958 15.8876C74.247 16.1508 74.94 18.5071 75.2046 19.6351C75.5448 21.1516 75.696 20.901 73.428 22.4551C72.5586 23.0442 69.8622 24.8866 67.443 26.541L63.033 29.549L61.521 29.6242C60.198 29.6994 59.3412 29.8247 58.1694 30.138C57.8796 30.2258 57.7788 30.1255 57.0732 29.1228Z" fill="#FD3A53"/>
<path d="M57.8292 77.9528L57.867 76.9376L59.253 76.875C60.135 76.8374 60.7398 76.7496 60.9162 76.6368C61.08 76.5366 61.2186 76.5115 61.269 76.5867C61.3698 76.7496 58.3836 78.968 58.056 78.968C57.804 78.968 57.7914 78.9054 57.8292 77.9528Z" fill="#FE2A5E"/>
<path d="M80.1187 76.9251L79.1989 75.9976L79.9927 75.9225C80.4211 75.8723 80.9881 75.8347 81.2527 75.8347H81.7441V76.8374V77.8401H81.3913C81.1267 77.8401 80.8243 77.627 80.1187 76.9251Z" fill="#FE2A5E"/>
<path d="M64.671 76.5866C65.301 76.549 65.8554 76.5615 65.931 76.6116C65.994 76.6618 65.4774 76.6994 64.797 76.6868L63.537 76.6743L64.671 76.5866Z" fill="#FE2A5E"/>
<path d="M67.9344 76.6117C67.9722 76.549 68.5266 76.4863 69.1566 76.4738C69.7992 76.4613 70.3536 76.4237 70.3914 76.3986C70.4418 76.3735 70.7064 76.3234 71.0088 76.2733C71.475 76.2106 71.538 76.2231 71.538 76.4487C71.538 76.6743 71.4372 76.6869 69.6984 76.6994C68.6148 76.7119 67.8966 76.6743 67.9344 76.6117Z" fill="#FE2A5E"/>
<path d="M72.5712 76.4614C72.609 76.2233 72.7224 76.2107 74.121 76.1606C74.9526 76.1355 75.7212 76.0979 75.822 76.0729C75.948 76.0353 76.0236 76.1355 76.0488 76.3737L76.0866 76.7121H74.31C72.5964 76.7121 72.5334 76.6995 72.5712 76.4614Z" fill="#FE2A5E"/>
<path d="M85.524 76.1229V75.5213H87.288L89.052 75.5088V76.1104V76.712H87.288H85.524V76.1229Z" fill="#FE2A5E"/>
<path d="M36.6486 46.0805C36.7746 45.9677 38.022 45.905 38.022 46.0053C38.022 46.0805 37.707 46.1306 37.3038 46.1306C36.9132 46.1306 36.6234 46.1056 36.6486 46.0805Z" fill="#FE2A5E"/>
<path d="M39.7608 45.1781C39.7986 44.5013 39.849 44.2632 39.9372 44.3509C40.038 44.4512 40.1514 44.4512 40.3152 44.3634C40.4538 44.2882 43.377 42.308 46.8168 39.9642C50.2692 37.608 53.1546 35.6904 53.2428 35.6904C53.3184 35.6904 53.394 35.6152 53.394 35.54C53.394 35.4522 53.52 35.2893 53.6712 35.1514C53.9358 34.9133 53.9358 34.9133 53.835 35.164C53.1798 36.8058 52.764 38.9365 52.764 40.616C52.764 41.6813 52.764 41.6938 52.386 41.9069C52.1844 42.0322 52.008 42.1826 52.008 42.2578C52.008 42.3205 51.9198 42.3706 51.819 42.3706C51.7182 42.3706 51.63 42.4333 51.63 42.496C51.63 42.5712 51.5418 42.6213 51.441 42.6213C51.3402 42.6213 51.252 42.6714 51.252 42.7341C51.252 42.7968 51.126 42.872 50.9748 42.9221C50.811 42.9597 50.496 43.1602 50.2692 43.3733C50.0424 43.5738 49.803 43.7493 49.7274 43.7493C49.6644 43.7493 49.614 43.812 49.614 43.8746C49.614 43.9498 49.5384 44 49.4376 44C49.3368 44 49.236 44.0376 49.2108 44.1002C49.1982 44.1504 48.9714 44.2882 48.7194 44.4136C48.4674 44.5514 48.0768 44.8146 47.8626 45.0152C47.6358 45.2157 47.409 45.3786 47.3334 45.3786C47.2704 45.3786 47.22 45.4288 47.22 45.4789C47.22 45.5416 47.0184 45.6544 46.779 45.7546C46.5396 45.8549 46.338 45.9677 46.338 46.0304C46.338 46.0805 44.8512 46.1306 43.0368 46.1306H39.723L39.7608 45.1781Z" fill="#FE2A5E"/>
<path d="M67.2541 31.0531C66.2587 30.2509 64.0285 29.5992 62.1889 29.5741L61.1431 29.5616L61.8613 29.3987C62.5921 29.2232 62.7181 29.1355 73.0501 22.0792C73.9195 21.4901 74.7259 20.9011 74.8393 20.7883C75.2929 20.3371 75.4063 20.5 75.6079 21.8411C75.7213 22.5555 75.8473 23.6083 75.8851 24.1973C75.9229 24.7864 75.9859 25.4131 76.0111 25.6136C76.0489 25.8517 76.0111 25.952 75.8851 25.952C75.7843 25.952 75.6961 26.0021 75.6961 26.0648C75.6961 26.1275 75.5701 26.2027 75.4189 26.2528C75.2551 26.2904 74.9401 26.4909 74.7133 26.704C74.4865 26.9045 74.2471 27.08 74.1715 27.08C74.1085 27.08 74.0581 27.1427 74.0581 27.2053C74.0581 27.2805 73.9699 27.3307 73.8691 27.3307C73.7683 27.3307 73.6801 27.3808 73.6801 27.4435C73.6801 27.5061 73.5541 27.5813 73.4029 27.6315C73.2391 27.6691 72.9241 27.8696 72.6973 28.0827C72.4705 28.2832 72.2311 28.4587 72.1555 28.4587C72.0925 28.4587 72.0421 28.5213 72.0421 28.584C72.0421 28.6592 71.9539 28.7093 71.8531 28.7093C71.7523 28.7093 71.6641 28.772 71.6641 28.8347C71.6641 28.9099 71.5759 28.96 71.4751 28.96C71.3743 28.96 71.2861 29.0101 71.2861 29.0728C71.2861 29.1355 71.1601 29.2107 71.0089 29.2608C70.8451 29.2984 70.5301 29.4989 70.3033 29.712C70.0765 29.9125 69.8371 30.088 69.7615 30.088C69.6985 30.088 69.6481 30.1507 69.6481 30.2133C69.6481 30.2885 69.5725 30.3387 69.4717 30.3387C69.3709 30.3387 69.2701 30.3763 69.2449 30.4389C69.2071 30.5392 68.2999 31.028 67.8463 31.2035C67.6321 31.2912 67.4809 31.2536 67.2541 31.0531Z" fill="#FE2A5E"/>
<path d="M57.7788 78.9051C57.8292 78.5166 58.056 78.1406 58.056 78.4539C58.056 78.5291 58.2702 78.5166 58.623 78.4163C58.938 78.3161 59.19 78.2534 59.19 78.2785C59.19 78.3161 57.8292 79.3438 57.7662 79.3438C57.7536 79.3438 57.7536 79.1433 57.7788 78.9051Z" fill="#FE1A69"/>
<path d="M81.051 77.84C80.5344 77.3136 80.484 77.2259 80.7486 77.2885C80.9124 77.3387 81.2022 77.3637 81.4038 77.3637C81.7188 77.3637 81.744 77.4013 81.744 77.9152C81.744 78.216 81.7314 78.4667 81.7062 78.4667C81.6936 78.4667 81.3912 78.1909 81.051 77.84Z" fill="#FE1A69"/>
<path d="M44.259 46.0053C45.393 45.9051 45.96 45.7797 45.96 45.6168C45.96 45.5541 46.0356 45.504 46.1364 45.504C46.2246 45.504 46.3758 45.4163 46.464 45.316C46.5522 45.2157 46.6656 45.1531 46.716 45.1907C46.7664 45.2283 46.8546 45.1656 46.8924 45.0528C46.9302 44.9525 47.0184 44.9024 47.094 44.94C47.157 44.9776 47.22 44.9651 47.22 44.9024C47.22 44.7645 48.732 43.6992 48.732 43.8371C48.732 43.8872 48.795 43.8371 48.8706 43.7117C48.9462 43.5989 49.047 43.5237 49.11 43.5613C49.1604 43.5989 49.2486 43.5363 49.2864 43.4235C49.3242 43.3232 49.4124 43.2731 49.488 43.3107C49.551 43.3483 49.614 43.3357 49.614 43.2731C49.614 43.2104 49.866 42.9848 50.181 42.7592C50.496 42.5336 50.748 42.3957 50.748 42.4459C50.748 42.496 50.8362 42.4333 50.937 42.2955C51.0378 42.1701 51.126 42.1075 51.126 42.1701C51.126 42.2453 51.2142 42.1827 51.315 42.0448C51.4158 41.9195 51.504 41.8443 51.504 41.8944C51.504 41.9445 51.6552 41.8443 51.8316 41.6813C52.0206 41.5059 52.2474 41.368 52.3356 41.368C52.449 41.368 52.512 41.2176 52.5246 40.9669C52.5246 40.7413 52.575 40.4405 52.6254 40.3027C52.6884 40.1648 52.7514 40.7789 52.8018 41.8067C52.8522 42.7717 53.0034 44.1253 53.142 44.8147C53.2806 45.504 53.394 46.0805 53.394 46.1056C53.394 46.1181 51.1134 46.1181 48.3288 46.1056C45.4308 46.1056 43.6794 46.0555 44.259 46.0053Z" fill="#FE1A69"/>
<path d="M70.2276 35.377C70.1898 35.3143 70.0512 34.9634 69.9 34.5748C69.7614 34.1863 69.4086 33.522 69.144 33.1084C68.5896 32.2562 67.2036 30.8148 67.0524 30.9527C67.002 30.9903 67.002 30.9652 67.0524 30.8775C67.0902 30.8023 67.2414 30.7522 67.3674 30.7772C67.506 30.8023 67.8714 30.6519 68.1864 30.4514C68.5014 30.2634 68.766 30.138 68.766 30.1882C68.766 30.2383 68.829 30.1756 68.9046 30.0503C68.9802 29.9375 69.081 29.8623 69.144 29.8999C69.1944 29.9375 69.2826 29.8748 69.3204 29.762C69.3582 29.6618 69.4464 29.6116 69.522 29.6492C69.585 29.6868 69.648 29.6743 69.648 29.6116C69.648 29.4738 70.782 28.6591 70.782 28.797C70.782 28.8471 70.845 28.797 70.9206 28.6716C70.9962 28.5588 71.097 28.4836 71.16 28.5212C71.2104 28.5588 71.2986 28.4962 71.3364 28.3834C71.3742 28.2831 71.4624 28.2204 71.5254 28.258C71.5884 28.2956 71.6766 28.2455 71.7144 28.1327C71.7522 28.0324 71.8404 27.9823 71.916 28.0199C71.979 28.0575 72.042 28.045 72.042 27.9823C72.042 27.8444 73.176 27.0298 73.176 27.1676C73.176 27.2178 73.239 27.1676 73.3146 27.0423C73.3902 26.9295 73.491 26.8543 73.554 26.8919C73.6044 26.9295 73.6926 26.8668 73.7304 26.754C73.7682 26.6538 73.8564 26.6036 73.932 26.6412C73.995 26.6788 74.058 26.6663 74.058 26.6036C74.058 26.4407 75.1416 25.6887 75.2424 25.789C75.2802 25.8266 75.318 25.7764 75.318 25.6636C75.318 25.5383 75.381 25.4882 75.507 25.5258C75.633 25.5759 75.7086 25.5258 75.7212 25.3754C75.7212 25.2375 75.7464 25.0871 75.759 25.0119C75.7842 24.9492 75.8094 24.7487 75.822 24.5732C75.8472 24.3978 75.8976 24.6234 75.948 25.0746C76.074 26.1274 76.0992 30.1506 75.9984 31.3788C75.9228 32.2311 75.885 32.3439 75.6582 32.3439C75.381 32.3439 72.0168 34.5372 71.3868 35.1263C71.0214 35.4647 70.3788 35.6026 70.2276 35.377Z" fill="#FE1A69"/>
<path d="M51.504 46.0556C52.2348 45.9553 53.394 45.9553 53.394 46.0431C53.394 46.0932 52.9026 46.1183 52.2978 46.1183C51.6804 46.1057 51.3276 46.0807 51.504 46.0556Z" fill="#FF0579"/>
<path d="M70.4544 45.7297C70.7064 44.3009 70.8324 42.634 70.8324 40.5535C70.8324 37.9841 70.6812 36.8436 70.089 35.0889C69.8118 34.2492 69.7992 34.1865 70.026 34.4748C70.1646 34.6503 70.278 34.8383 70.278 34.9009C70.278 34.9636 70.3158 34.9761 70.3662 34.9385C70.404 34.8884 70.53 34.926 70.6434 35.0012C70.7568 35.0889 70.8072 35.114 70.7568 35.0513C70.656 34.926 71.0466 34.6252 73.302 33.1212C74.1714 32.5447 74.9778 31.9807 75.0912 31.8804C75.2676 31.7175 75.3432 31.7175 75.507 31.8428C75.6708 31.9681 75.696 31.9556 75.696 31.73C75.696 31.5921 75.759 31.4668 75.8346 31.4668C76.1118 31.4668 75.759 35.0388 75.129 38.7988C74.7762 40.8167 74.058 44.0753 73.6548 45.3537L73.4154 46.1308H71.8908H70.3788L70.4544 45.7297Z" fill="#FF0579"/>
<path d="M75.9858 29.9627C75.9858 29.6494 76.011 29.5241 76.0362 29.687C76.0614 29.8374 76.0614 30.0881 76.0362 30.251C76.011 30.4014 75.9858 30.2761 75.9858 29.9627Z" fill="#FF0579"/>
</svg>
