<svg width="178" height="48" fill="none" xmlns="http://www.w3.org/2000/svg"><path d="M.633 47.572c-.223-.19-.287-7.456-.191-23.738L.569.32 1.59.287C2.672.223 18.54.382 21.791.447c1.21.031 2.134.222 2.262.445.414.67.414 30.366 0 35.05-.223 2.613-.255 4.366-.064 4.62.16.192.287 1.88.287 3.729l-.032 3.345-3.186-.032a397.17 397.17 0 0 0-4.302-.063c-.605 0-4.397.063-8.444.127-4.015.064-7.488.032-7.679-.096zM9.428 35.21c0-8.858.446-8.54 3.536 2.55.383 1.401.86 2.74 1.02 2.963.223.255 1.37.382 3.728.382h3.441l-.159-2.39c-.223-2.9.414-3.345.733-.51.191 1.785.573 2.9.892 2.582.064-.096 0-1.434-.16-3.028-.19-1.56-.286-4.078-.254-5.576.096-3.41.032-3.919-.319-3.696-.16.096-.223.478-.127.829.223.796-.128 2.23-.542 2.23-.191 0-.319-.287-.319-.637 0-.383-.223-.638-.51-.638-.382 0-.446.224-.286.956.127.574.064.956-.096.956-.19 0-.446.478-.573 1.052-.192.956-.319.733-1.593-2.868l-1.37-3.887 1.05-1.052c1.785-1.784 2.518-4.27 2.55-8.54.032-4.205-.382-5.384-2.645-7.423C15.1 7.36 14.24 7.106 9.236 7.042c-2.453-.032-4.875.032-5.385.16l-.892.222.191 15.964c.128 8.794.223 16.442.223 17.015v1.02h6.055v-6.214z" fill="#fff"/><path d="M19.847 36.102c-.128-.096-.224-.638-.224-1.147 0-1.211.192-1.02.415.35.16 1.051.16 1.147-.191.797zM9.332 21.763c-.382-.35-.255-6.628.127-7.01.287-.287 1.052.095 3.027 1.402 1.466.988 2.677 1.944 2.677 2.135 0 .35-4.843 3.696-5.353 3.696-.16 0-.382-.096-.478-.223zM27.24 47.413c-.033-.063-.224-2.613-.447-5.671-.223-3.505-.287-7.234-.127-10.038.127-2.453.286-10.387.35-17.62.032-8.572.191-13.256.414-13.383.16-.127 4.716-.191 10.133-.127l9.782.095v46.426l-.988.19c-.924.192-19.022.288-19.118.128zm16.919-9.654V34.73h-6.723l.095-4.046.096-4.079 3.282-.095 3.25-.096v-6.022H37.786V13.096L41.068 13l3.25-.095.096-2.932.095-2.963H31.095v33.776h13.064v-3.028zM50.245 47.03c-.414-.509-.478-7.519-.287-30.716.096-8.762.287-15.486.446-15.613.16-.127 4.748-.16 10.165-.064l9.877.16.096 23.165.064 23.133-1.498.159c-.86.096-5.353.16-10.037.191-6.755 0-8.571-.096-8.826-.414zM67.1 37.759v-3.027H60.696l.096-4.046.095-4.079 3.187-.032 3.186-.063.096-1.69c.063-.955.031-2.325-.096-3.058l-.191-1.37H60.728V13.064H67.419V7.01H54.355v14.434c0 7.966-.095 15.55-.191 16.888l-.223 2.454H67.1v-3.028zM78.986 47.222l-5.831-.064.095-23.515.064-23.484L83.606.064 93.866 0v7.233c0 4.015.096 14.69.223 23.77l.191 16.506-4.747-.096c-2.613-.063-7.36-.127-10.547-.191zm10.93-6.373c.222-.127.413-1.434.477-3.09l.127-2.868-3.887-.096-3.92-.095V7.01l-2.293-.032c-1.275-.032-2.709-.095-3.187-.16l-.892-.095v34.381h6.628c3.632 0 6.755-.127 6.946-.255zM99.825 40.881c-.096-.16-.16-7.87-.191-17.174l-.032-16.92 4.525-.16c11.789-.445 15.231 2.263 15.231 12.013 0 4.302-1.339 7.552-3.824 9.368-1.434 1.02-3.059 1.498-6.118 1.785l-2.167.223v11.088h-3.632c-2.008 0-3.728-.095-3.792-.223zM110.66 20.68c1.625-1.084 2.963-2.167 2.963-2.39 0-.51-5.48-4.27-6.213-4.27-.415 0-.478.637-.478 4.302 0 3.122.095 4.301.382 4.301.223 0 1.721-.892 3.346-1.943zM122.544 31.13c0-5.512.096-13.223.223-17.174.191-7.042.223-7.169.86-7.105.383.032 1.721.095 2.964.127l2.326.032.063 13.797.096 13.765 3.824.16 3.823.159.032 2.931.032 2.9-.956.191c-.51.096-3.728.191-7.105.191h-6.182v-9.973zM154.726 40.403c-.159-.414-.573-1.752-.956-2.995l-.637-2.262-1.689-.223c-.892-.096-2.262-.192-2.995-.192-1.561 0-1.561 0-1.88 3.601l-.191 2.454H140.069l.223-1.339c.095-.764 1.306-8.38 2.613-16.983l2.421-15.581 4.143.095c2.294.032 4.174.128 4.206.16.159.159 7.105 32.787 7.105 33.36 0 .543-.287.606-2.867.606-2.677 0-2.9-.063-3.187-.7zM151.54 28.55c0-1.848-2.103-11.917-2.199-10.547-.032.191-.318 2.453-.669 5.066-.892 6.692-.988 6.246 1.115 6.246 1.657 0 1.753-.064 1.753-.765zM164.795 38.81a120.999 120.999 0 0 1-.255-5.831c-.032-1.912-.223-3.696-.382-3.951-.255-.35-.255-.414.063-.223.319.191.351-.191.255-1.753-.159-1.848-4.62-15.9-5.799-18.162-.255-.51-.446-1.179-.446-1.561 0-.606.191-.638 3.282-.638h3.25l1.689 4.366c.924 2.421 1.657 4.652 1.657 4.97 0 1.594.892-.732 1.115-2.804 0-.159.446-1.72.956-3.44l.924-3.092h2.899c1.912 0 3.091.16 3.474.415.541.414.541.51-.255 2.23-.446.988-1.179 3.123-1.657 4.716-.446 1.593-1.147 3.632-1.562 4.556-.382.893-1.178 3.027-1.72 4.748l-1.02 3.155.223 7.296.223 7.297H164.986l-.191-2.294z" fill="#fff"/></svg>