<svg width="182" height="40" viewBox="0 0 182 40" fill="none" xmlns="http://www.w3.org/2000/svg">
<g clip-path="url(#clip0_2275_30)">
<path d="M25.0432 0.836426H33.306L20.3476 38.8001H12.8492L0 0.836426H8.4812L16.744 29.6364L25.0432 0.836426Z" fill="white"/>
<path d="M59.2956 35.3456C56.9296 38.2547 53.326 39.7456 48.4848 39.7456C43.6436 39.7456 40.04 38.2911 37.674 35.3456C35.308 32.4365 34.1068 28.9093 34.1068 24.7638C34.1068 20.6184 35.308 17.2002 37.674 14.2547C40.04 11.2729 43.6436 9.81836 48.4848 9.81836C53.326 9.81836 56.9296 11.3093 59.2956 14.2547C61.6616 17.2002 62.8628 20.7274 62.8628 24.7638C62.8628 28.8002 61.6616 32.4002 59.2956 35.3456ZM53.3988 31.2729C54.5636 29.7456 55.1096 27.5638 55.1096 24.7638C55.1096 21.9638 54.5272 19.782 53.3988 18.2911C52.2704 16.8002 50.596 16.0002 48.4484 16.0002C46.3008 16.0002 44.6628 16.7638 43.498 18.2911C42.3332 19.8184 41.7508 21.9638 41.7508 24.7638C41.7508 27.5638 42.3332 29.7456 43.498 31.2729C44.6628 32.8002 46.3008 33.5638 48.4484 33.5638C50.596 33.5638 52.234 32.8002 53.3988 31.2729Z" fill="white"/>
<path d="M75.8576 38.8001H68.5048V0.836426H75.8576V38.8001Z" fill="white"/>
<path d="M81.3176 16.182V10.9456H85.2488V3.12744H92.5288V10.9456H97.0788V16.182H92.5288V31.0184C92.5288 32.182 92.6744 32.8729 92.9656 33.1638C93.2568 33.4547 94.1668 33.6002 95.6592 33.6002C97.1516 33.6002 96.1324 33.6002 96.3872 33.6002C96.642 33.6002 96.8968 33.6002 97.1152 33.5638V39.0547L93.6208 39.1638C90.1628 39.2729 87.7604 38.6911 86.5228 37.3456C85.6856 36.5093 85.2852 35.2002 85.2852 33.4547V16.182H81.354H81.3176Z" fill="white"/>
<path d="M132.896 39.6H102.866V0H131.95V8.36364H112.258V14.7636H130.312V23.0182H112.258V31.1273H132.86V39.6H132.896ZM104.504 37.9636H131.222V32.8H110.62V21.3818H128.674V16.4364H110.62V6.72727H130.312V1.63636H104.504V37.9636Z" fill="#1EB3E1"/>
<path d="M162.744 39.6H153.572V21.7091C153.572 20.3636 153.39 19.3454 153.062 18.6909C152.48 17.5272 151.388 16.9818 149.713 16.9818C148.039 16.9818 146.146 17.8545 145.382 19.6363C144.945 20.6545 144.726 21.9636 144.726 23.6V39.6H135.736V9.92724H144.508V12.3636C144.945 11.8545 145.418 11.4181 145.855 11.0909C147.493 9.85451 149.604 9.23633 152.079 9.23633C154.554 9.23633 157.721 10.0727 159.687 11.7091C161.725 13.3818 162.744 16.1454 162.744 19.8909V39.6ZM155.21 37.9636H161.07V19.8909C161.07 16.6545 160.233 14.3272 158.595 12.9818C156.92 11.6 154.7 10.8727 152.043 10.8727C149.386 10.8727 148.184 11.3818 146.801 12.4C146.073 12.9454 145.309 13.8181 144.508 15.0545C144.29 15.3818 143.853 15.5272 143.489 15.4181C143.088 15.3091 142.834 14.9454 142.834 14.5454V11.6H137.374V37.9636H143.052V23.6C143.052 21.7818 143.307 20.2181 143.816 18.9818C144.872 16.5454 146.838 15.3091 149.677 15.3091C152.516 15.3091 153.644 16.1818 154.518 17.9272C154.955 18.8363 155.21 20.0727 155.21 21.6727V37.9272V37.9636Z" fill="#1EB3E1"/>
<path d="M176.831 40.0001C173.555 40.0001 171.298 39.3092 169.988 37.9274C169.005 36.9456 168.532 35.4183 168.532 33.4547V16.9819H164.601V10.1092H168.532V2.32739H177.45V10.1456H182V17.0183H177.45V31.0183C177.45 32.291 177.632 32.5819 177.668 32.5819C177.668 32.5819 178.032 32.7638 179.78 32.7638C181.527 32.7638 180.216 32.7638 180.471 32.7638C180.726 32.7638 180.944 32.7638 181.163 32.7638L182.036 32.691V39.8547L177.778 40.0001C177.486 40.0001 177.195 40.0001 176.904 40.0001H176.831ZM166.239 15.3819H170.17V33.491C170.17 35.0183 170.498 36.1092 171.189 36.8001C172.281 37.9638 174.465 38.4728 177.705 38.3638L180.398 38.2547V34.4365C178.178 34.5092 177.05 34.291 176.54 33.7819C176.067 33.3092 175.848 32.4728 175.848 31.0547V15.3819H180.398V11.8183H175.848V3.96376H170.243V11.7819H166.312V15.3456L166.239 15.3819Z" fill="#1EB3E1"/>
</g>
<defs>
<clipPath id="clip0_2275_30">
<rect width="182" height="40" fill="white"/>
</clipPath>
</defs>
</svg>
