<svg width="170" height="38" fill="none" xmlns="http://www.w3.org/2000/svg"><path fill-rule="evenodd" clip-rule="evenodd" d="M62.718.08c-.017.05-.196.076-.477.07-.485-.011-.73.037-.672.13.02.033-.217.062-.526.065-.65.007-.724.017-.794.113-.032.044-.052.038-.053-.016-.001-.1-.521-.09-.614.012-.032.035-.011.037.05.004.058-.032.08-.03.05.003-.084.092-.24.11-.98.115-.554.003-.705.027-.794.125-.099.109-.108 1.621-.092 15.058l.018 14.937.6-.008c.86-.012 1.061-.033 1.016-.105-.021-.035.041-.027.14.018.136.062.202.061.281-.005.057-.047.38-.096.724-.11l.917-.039c.204-.01.283-.04.26-.102-.026-.069.134-.088.692-.083.712.006 1.075-.031 1.163-.12.024-.024.087-.008.14.036.073.06.128.05.23-.042.088-.08.188-.105.286-.074.116.037.16.014.19-.099.02-.08.067-.128.101-.107.035.022.043.074.017.116-.028.046-.015.056.034.026.1-.061.108-.253.01-.253-.046 0-.07-5.005-.07-14.872V0h-.91c-.617 0-.92.026-.937.08zm58.715-.004c-.015.045-.256.081-.587.089-.407.008-.557.035-.544.1.013.065-.154.087-.652.087-.489 0-.67.024-.671.089-.001.067-.013.068-.055.003-.06-.095-.538-.087-.627.01-.033.035-.012.037.049.004.058-.032.081-.03.051.003-.08.088-.22.104-.985.114-.539.007-.706.034-.775.122-.075.096-.072.103.02.043.06-.039.052-.018-.017.047-.122.112-.126.748-.11 15.013l.018 14.896.599-.008c.862-.012 1.062-.033 1.018-.105-.022-.035.041-.027.139.018.139.063.203.06.289-.01.073-.061.288-.087.636-.077.29.009.527-.011.527-.044s.173-.053.386-.045c.218.009.407-.018.434-.062.028-.045.014-.056-.034-.026-.045.028-.082.021-.082-.015 0-.037.319-.063.723-.06.707.006 1.071-.031 1.159-.12.024-.024.09-.005.146.041.082.068.121.06.197-.044.067-.092.145-.116.269-.085.136.034.185.012.22-.099.025-.078.075-.123.112-.1.036.022.045.075.019.117-.028.046-.014.056.034.026.112-.069.106-.328-.006-.285-.071.027-.085-2.964-.071-14.84L123.281 0h-.911c-.591 0-.92.027-.937.076zm-108.564.6c-.061.06-.247.1-.475.1-.269.001-.345.02-.27.07.058.037.073.069.032.07-.041 0-.112-.038-.159-.084-.066-.066-.104-.064-.173.01-.071.077-.068.085.018.039.074-.039.084-.033.035.02-.038.041-.259.09-.49.107-.231.018-.432.068-.447.111-.014.044-.115.08-.224.08-.11 0-.216.046-.239.105-.022.058-.114.106-.204.106-.09 0-.204.039-.252.087-.07.07-.1.068-.148-.01-.049-.08-.078-.07-.15.044-.058.093-.136.129-.23.104-.104-.027-.131-.009-.102.067.03.077-.025.107-.215.12-.14.01-.271.04-.292.067a.287.287 0 0 1-.143.072c-.058.013-.116.053-.13.089-.013.036-.052.048-.088.026-.035-.022-.064-.005-.064.039 0 .043-.03.06-.065.038-.036-.022-.111.007-.168.063-.056.057-.122.084-.147.06-.024-.024-.043-.007-.043.038s-.024.079-.053.074c-.145-.023-.23.019-.23.114 0 .127-.14.144-.142.018-.001-.049-.034-.033-.074.035-.04.068-.15.123-.245.123-.106 0-.173.04-.173.106 0 .058-.034.106-.076.106-.043 0-.165.062-.273.139-.107.076-.22.116-.251.088-.03-.028-.033-.011-.006.038.033.056-.013.112-.126.155a1.19 1.19 0 0 0-.367.28c-.104.117-.213.197-.242.179-.03-.018-.163.07-.297.196-.133.126-.366.334-.518.462-.151.128-.236.214-.188.19.057-.028.073-.005.046.066-.023.06-.064.095-.092.079-.027-.017-.127.062-.22.176-.166.2-.34.293-.237.126.032-.052.019-.062-.036-.028-.047.03-.07.07-.049.09.064.064-.097.301-.204.301-.062 0-.085.042-.06.109.023.06.014.104-.02.097-.124-.022-.237.007-.22.059.01.029-.006.06-.035.07-.138.046-.341.322-.306.415.023.058.01.085-.03.06-.039-.024-.126.054-.193.173-.068.119-.176.233-.24.254-.065.021-.153.124-.196.229-.123.297-.262.517-.33.518a.15.15 0 0 0-.097.042c-.02.023.005.018.053-.01.105-.06.12.07.016.135-.039.024-.05.078-.024.12.026.043.015.057-.025.032-.092-.057-.443.362-.443.53 0 .07-.045.128-.101.128-.063 0-.11.087-.123.229-.012.126-.055.223-.096.216-.04-.007-.08.068-.088.165-.018.225-.076.32-.162.267-.089-.055-.05.13.041.196.044.032.035.053-.021.053-.05.001-.074.032-.05.07.022.037-.023.132-.102.211-.08.079-.145.183-.146.231a.522.522 0 0 1-.106.225.583.583 0 0 0-.103.3c0 .09-.034.163-.075.163-.04 0-.055.031-.03.07.023.04.01.07-.032.07-.04 0-.075.11-.075.242s-.037.253-.083.268c-.046.016-.091.184-.1.376l-.023.437a.076.076 0 0 1-.093.07c-.063-.013-.094.134-.108.511-.011.29-.051.54-.088.552-.09.031-.093 4.784-.003 4.816.037.014.078.262.093.553.018.358.054.523.11.51.075-.015.129.438.089.742-.006.049.038.107.098.13.072.028.108.134.108.313 0 .148.037.293.082.32.049.03.062.02.034-.026-.026-.042-.015-.096.024-.12.044-.028.072.06.072.227 0 .15.04.315.088.367.072.077.068.085-.018.044-.07-.034-.066-.018.014.047a.56.56 0 0 1 .15.305c.016.114.066.199.11.19.043-.01.079.063.079.162s.028.163.063.142c.058-.037.179.404.134.492-.012.023.034.072.103.11.067.038.123.149.123.246s.03.158.068.135c.038-.023.09.046.115.154a.875.875 0 0 0 .247.373c.11.098.21.243.222.323.012.08.127.248.255.373.134.13.216.27.194.329-.022.057.022.133.102.176.077.041.118.11.091.154-.032.051-.008.063.068.034.072-.027.11-.012.1.041-.01.047.026.076.08.065.06-.013.081.019.055.087-.025.064-.006.101.044.091.047-.009.076.028.065.082-.03.136.332.499.452.453.059-.023.097.008.097.08 0 .07-.032.097-.081.067-.05-.03-.062-.02-.033.028.026.043.092.061.144.041.054-.02.121.002.15.05.036.057.024.067-.037.03-.057-.036-.08-.025-.062.03.016.046.056.074.089.062.033-.013.088.05.121.14.033.09.089.146.123.124.035-.021.08.025.1.103.021.079.065.138.097.132.135-.024.235.011.235.081 0 .041-.037.052-.081.024-.054-.033-.063-.019-.025.042.045.072.08.063.156-.041.092-.126.097-.121.064.06-.026.147.002.212.118.274.084.045.194.123.244.174.05.05.139.073.196.051.068-.025.104.006.104.092 0 .114.433.54.455.448.005-.02.096.052.203.16.14.139.245.184.373.161.127-.023.169-.006.144.06-.02.05.03.148.11.216.126.108.14.109.102.01-.029-.075-.007-.114.064-.114.072 0 .095.043.07.124-.049.152.204.345.283.216.03-.049.018-.06-.032-.03-.044.028-.08.018-.08-.023 0-.042.025-.075.057-.075.083 0 .404.351.324.355-.036.002.03.056.147.12.116.065.24.11.275.1.036-.01.084.013.109.053.029.047.116.034.249-.035.198-.102.2-.102.085.026-.147.163-.153.235-.013.182.058-.023.105-.004.105.041s.032.063.07.038c.04-.023.071-.01.071.032 0 .04.034.074.075.074.041 0 .055-.031.031-.07-.024-.039-.014-.07.023-.07.036 0 .083.063.103.14.02.078.09.141.154.141.07 0 .096-.032.066-.081-.032-.051-.02-.062.034-.03.046.03.128.017.18-.027.073-.06.11-.059.15.005.032.052.022.066-.026.037-.043-.027-.112.015-.153.093-.062.116-.057.134.031.1.06-.023.108-.003.108.044 0 .058.064.071.194.041.126-.03.16-.023.098.019-.114.076-.055.118.263.186.188.04.227.031.188-.044-.028-.053.018-.016.102.08.085.097.136.142.114.099-.021-.043.007-.138.063-.212.063-.084.102-.099.103-.04.002.05.034.072.072.048.038-.024.053.001.032.055-.022.058.008.097.075.097.072 0 .097-.038.07-.111-.033-.085-.024-.093.04-.03.045.045.06.116.034.159-.072.116-.234.091-.315-.047-.068-.116-.072-.116-.074-.002-.001.076.071.14.192.169a.902.902 0 0 1 .277.111c.046.036.243.072.439.08.197.006.37.049.389.096.018.047.123.072.248.056.121-.016.215.005.215.047 0 .044.113.064.28.047.184-.017.293.005.316.064.019.049.075.09.124.088.065 0 .06-.02-.013-.066-.057-.036-.085-.085-.061-.108.023-.024.1.015.169.084.196.197 4.793.183 4.869-.014.018-.048.108-.07.204-.052.225.043.544-.04.49-.127-.024-.037-.009-.068.032-.068s.075.025.075.056c0 .03.063.06.14.066.078.006.142-.015.142-.046 0-.032.134-.075.298-.097.164-.022.309-.074.323-.115.014-.041.056-.075.093-.075.039 0 .05.04.024.088-.024.049-.002.04.05-.02.05-.06.148-.097.216-.083.074.015.127-.02.133-.086.015-.207.026-.24.09-.299.035-.032.047-.027.027.012-.021.039.026.134.105.212.078.077.12.101.092.052-.034-.06.006-.088.13-.088.1 0 .18-.033.18-.074 0-.041.033-.055.071-.031.04.023.07.01.07-.032 0-.04.034-.074.076-.074.04 0 .054.04.03.088-.025.049 0 .033.055-.034.056-.068.119-.104.14-.083.052.052.343-.103.463-.247.05-.061.073-.072.048-.024-.024.049-.01.088.03.088a.077.077 0 0 0 .075-.078c0-.042.047-.06.104-.038.057.022.135-.014.174-.08.039-.067.071-.091.072-.054.002.036.052.004.113-.07.062-.076.091-.098.067-.05-.025.049-.01.088.032.088s.094-.045.116-.1c.022-.059.086-.084.15-.06.074.029.094.015.061-.038-.033-.054-.012-.068.059-.04.063.024.126-.005.151-.071.024-.062.072-.095.107-.073.035.021.085-.019.111-.089.049-.133.157-.23.256-.232.03-.001.033.038.004.087-.042.07-.031.07.055 0 .06-.048.131-.064.16-.035.029.029.042.02.029-.018-.013-.039-.008-.073.012-.077.146-.023.352-.196.353-.296.001-.104.01-.106.07-.015.045.07.068.077.069.018 0-.049.025-.082.054-.075.076.02.717-.39.72-.459.003-.071.224-.297.28-.286.149.032.208-.07.095-.163-.07-.057-.083-.08-.03-.053.053.027.123.006.158-.048.052-.082.062-.082.062.002 0 .065.047.046.137-.057.074-.086.162-.163.194-.17a.054.054 0 0 0 .039-.071c-.011-.032.008-.04.042-.02.082.05.381-.27.314-.336-.028-.029.009-.029.082 0 .092.035.117.025.082-.032-.028-.046-.015-.082.028-.082s.06-.032.036-.07c-.026-.041.005-.05.077-.023.079.03.104.019.074-.031-.027-.044.016-.098.099-.125.08-.025.13-.063.11-.085-.022-.02.04-.1.135-.175.096-.075.16-.16.143-.188-.017-.029.078-.143.212-.254.175-.147.218-.219.154-.26-.063-.04-.052-.056.039-.057.07 0 .108-.032.084-.07-.024-.041.004-.053.067-.029.07.027.109.003.109-.067 0-.06.055-.142.123-.182.068-.04.093-.073.057-.074-.036-.001-.005-.047.07-.102a.375.375 0 0 0 .14-.264c0-.117.036-.159.123-.144.082.014.121-.026.121-.126 0-.08.046-.163.101-.184.055-.022.088-.101.074-.176-.014-.076-.003-.123.026-.105.029.018.083.01.12-.016.104-.075.329-.506.265-.509-.032 0 .001-.046.072-.1a.399.399 0 0 0 .144-.205.621.621 0 0 1 .143-.248c.07-.077.108-.17.086-.206-.023-.037.02-.136.093-.22.075-.086.123-.217.11-.291-.016-.076.031-.176.105-.228.073-.05.124-.154.112-.23-.01-.075.037-.177.106-.226.078-.055.12-.163.11-.282-.009-.106.033-.235.092-.286.068-.059.073-.075.012-.043-.065.033-.086.017-.062-.048.02-.054.07-.09.11-.082.042.01.068-.07.06-.176-.01-.106.032-.234.092-.286.092-.08.093-.086.003-.047-.094.04-.094.035 0-.048.058-.051.114-.219.125-.372.01-.153.057-.302.105-.332.056-.035.088-.238.089-.567.001-.348.028-.509.083-.498.193.038.213-4.796.021-4.914-.067-.042-.097-.146-.082-.288.017-.157 0-.207-.06-.17-.064.04-.065.016-.002-.1.081-.153.038-.43-.079-.505-.034-.023-.067-.165-.072-.317a1.414 1.414 0 0 0-.136-.518c-.07-.132-.11-.269-.088-.304.022-.035-.019-.106-.09-.158-.086-.063-.13-.186-.132-.366-.001-.152-.035-.264-.077-.257-.072.013-.097-.072-.104-.354-.001-.082-.039-.116-.102-.092-.055.022-.119.008-.142-.03-.024-.039-.017-.065.015-.06.144.026.166-.014.063-.117-.062-.062-.093-.142-.07-.178.022-.037.015-.062-.018-.057-.176.03-.217-.024-.194-.26.02-.2-.003-.262-.106-.289-.072-.018-.124-.084-.115-.145.01-.061-.043-.17-.115-.243-.073-.072-.113-.163-.09-.2.023-.037.008-.068-.033-.068-.04 0-.067-.04-.057-.088.01-.048-.026-.079-.079-.067-.06.013-.081-.02-.056-.087a.14.14 0 0 0-.063-.165c-.057-.032-.118-.132-.136-.222-.017-.09-.133-.256-.258-.367-.124-.111-.199-.202-.165-.202s0-.05-.075-.11c-.075-.062-.09-.087-.031-.058.094.048.094.039 0-.083-.218-.285-.39-.451-.468-.453-.045 0-.1-.05-.123-.11-.029-.074-.014-.093.046-.057.057.035.054.012-.01-.067-.053-.066-.139-.12-.19-.12a.19.19 0 0 1-.143-.08c-.033-.054-.017-.064.049-.03.054.027.037 0-.038-.06a.486.486 0 0 0-.233-.111c-.053 0-.077-.032-.052-.072.024-.04.081-.05.127-.023.099.057-.127-.217-.37-.45-.1-.096-.218-.148-.282-.123-.086.032-.092.023-.026-.043.087-.087-.153-.347-.32-.347-.04 0-.096-.036-.124-.08-.034-.055-.017-.063.049-.026.068.04.077.034.029-.018a1.924 1.924 0 0 0-.318-.213c-.135-.077-.238-.175-.229-.218.01-.043-.05-.079-.135-.079-.084 0-.135-.018-.113-.04.045-.045-.274-.383-.363-.383-.032 0-.098-.047-.147-.106a.332.332 0 0 0-.224-.105c-.075 0-.117-.032-.092-.071.05-.08-.248-.215-.346-.157-.035.021-.04 0-.013-.045.033-.053-.027-.11-.165-.159-.12-.041-.199-.104-.177-.139.021-.035-.074-.064-.212-.064-.152 0-.252-.034-.253-.088-.003-.111-.331-.354-.412-.305-.033.02-.116-.024-.185-.1-.068-.076-.154-.12-.19-.097-.037.023-.145-.033-.242-.123-.145-.136-.166-.142-.124-.033.037.096.023.122-.05.095-.054-.02-.09-.071-.08-.115.009-.044-.007-.076-.036-.071-.198.031-.39-.034-.587-.2-.249-.209-.417-.264-.419-.137 0 .05-.026.042-.064-.018-.035-.055-.161-.1-.28-.1-.135 0-.219-.036-.219-.094 0-.052-.079-.098-.176-.102-.268-.014-.3-.022-.364-.091-.035-.038-.018-.04.04-.007.06.035.083.03.057-.01-.023-.038-.194-.076-.38-.085-.223-.01-.37-.057-.43-.136-.08-.105-.1-.107-.158-.015-.037.058-.067.07-.067.029-.001-.043-.15-.083-.337-.09-.441-.018-.566-.04-.632-.113-.03-.033-.007-.035.05-.003.088.047.09.04.016-.041-.078-.084-.102-.082-.158.007-.044.07-.067.076-.067.017-.002-.138-4.686-.116-4.825.023zm3.026 6.726c.025.04.256.062.533.05.27-.012.49.005.49.038s.032.04.071.015c.04-.024.064-.003.053.047-.013.06.079.094.284.103.176.007.34.058.388.12.048.06.19.106.331.104.304-.004.508.076.446.176-.029.046-.004.058.066.032.118-.046.295.105.215.184-.041.042.209.072.471.057.071-.005.077.006.018.033-.141.062-.102.162.053.132.077-.014.14.007.14.048s.061.059.136.04c.098-.026.125-.008.097.065-.025.066.017.118.117.143.118.031.133.056.062.101-.089.056.067.1.246.068.032-.005.04.02.016.057-.023.037.086.139.24.226.156.087.271.17.256.186-.046.045.494.582.586.582.047 0 .066.03.043.068-.023.038.042.09.144.115.137.035.16.063.09.107-.073.047-.066.06.03.061.067 0 .119.025.114.054-.025.157.024.23.154.23.08 0 .125.031.1.07a.085.085 0 0 1-.117.028c-.04-.025-.018.037.048.139.067.101.143.17.171.153.027-.017.108.067.179.188.09.154.1.203.03.167-.054-.028-.043-.006.024.05.067.054.099.125.07.156-.028.032.008.036.08.01.097-.035.12-.02.091.057-.022.058-.009.124.029.147a.08.08 0 0 1 .027.108c-.022.037.01.116.07.177.06.06.11.165.11.232s.08.23.176.361c.191.26.215.315.106.247-.039-.024-.07-.01-.07.031s.044.075.098.075c.128 0 .17.12.146.42-.012.16.021.277.097.34.087.071.089.084.01.05-.093-.04-.093-.035 0 .048.072.063.112.254.123.587.026.775.03.811.09.774.031-.018.04.026.022.1-.02.073 0 .198.041.277.056.104.056.157 0 .192-.042.026-.063.123-.045.213.017.092.008.152-.021.134-.056-.035-.06.004-.087.777-.011.333-.05.524-.122.587-.094.082-.094.088 0 .047.073-.032.069-.015-.015.053-.09.075-.113.182-.093.446.015.19.011.307-.009.26-.052-.128-.247.082-.197.212.021.054-.01.14-.07.189-.06.05-.09.118-.07.152.022.035.002.063-.043.063s-.065.044-.044.099c.02.054-.024.155-.099.223-.075.067-.133.158-.128.2.015.145-.094.392-.157.354-.034-.021-.062.027-.062.108 0 .082-.049.166-.108.189-.072.027-.092.09-.062.185.035.11.02.134-.063.102-.128-.05-.205.108-.14.284.042.109.033.112-.073.025-.107-.086-.116-.083-.072.03.03.082.022.11-.027.08-.041-.025-.093.003-.116.063-.027.07-.014.091.038.06.05-.031.061-.02.03.03-.027.046-.1.082-.163.082-.062 0-.092.022-.066.048.066.065-.24.38-.32.33-.037-.021-.083.027-.104.108-.021.08-.067.13-.102.108-.034-.021-.092.034-.128.124-.036.09-.068.133-.07.097-.003-.036-.07.003-.149.089-.079.085-.221.205-.316.268-.095.062-.153.145-.127.186.026.043.011.052-.036.023-.045-.027-.082-.014-.082.029 0 .043-.031.06-.07.035-.062-.038-.1.048-.081.187.003.025-.057.03-.133.009-.08-.02-.139 0-.139.047 0 .045.037.06.082.032.05-.03.062-.019.033.028-.027.043-.095.06-.152.039-.057-.022-.103-.003-.103.043 0 .052-.06.066-.159.038-.124-.035-.136-.028-.053.03.095.066.053.106-.088.084-.029-.004-.053.02-.053.056 0 .035-.055.056-.123.046a.225.225 0 0 0-.196.08.348.348 0 0 1-.227.11c-.085.006-.17.05-.188.099-.022.055.009.073.085.049.09-.029.097-.021.029.027-.051.037-.218.054-.37.039-.174-.017-.278.002-.278.05 0 .043-.03.06-.065.038-.036-.021-.075-.007-.088.033-.014.04-.152.076-.306.08-.155.005-.337.057-.405.116-.184.16-2.953.16-3.136 0-.068-.06-.226-.103-.352-.094-.146.01-.27-.03-.344-.112-.084-.092-.19-.12-.39-.1-.225.02-.271.004-.255-.091.013-.083-.032-.117-.157-.115-.105.001-.197-.049-.227-.123-.028-.07-.085-.126-.128-.126-.042 0-.053.04-.024.088.03.051-.002.043-.077-.017-.071-.058-.15-.098-.172-.088-.023.01-.042-.012-.042-.047a.195.195 0 0 0-.053-.118c-.029-.03-.053-.013-.053.034 0 .06-.036.052-.111-.024-.062-.061-.14-.093-.176-.072-.035.022-.044-.01-.02-.072.023-.062.015-.107-.019-.101-.148.027-.242-.012-.2-.08.026-.042-.02-.093-.101-.115-.081-.021-.148-.066-.148-.1 0-.035-.046-.063-.102-.063-.056 0-.146-.063-.2-.14-.054-.078-.114-.125-.134-.105-.02.019-.182-.124-.36-.318-.304-.33-.477-.46-.36-.272.03.05.02.062-.032.031a.204.204 0 0 1-.08-.156c0-.058-.033-.086-.073-.061-.04.024-.068.018-.062-.014.034-.196-.016-.316-.116-.277-.063.024-.091.012-.067-.028.024-.039.01-.07-.029-.07-.04 0-.055-.044-.034-.098a.13.13 0 0 0-.049-.152c-.053-.033-.068-.024-.039.023.026.042.015.096-.024.12-.04.026-.072-.023-.072-.11a.325.325 0 0 0-.104-.233.452.452 0 0 1-.133-.255c-.016-.097-.064-.168-.107-.158-.068.015-.112-.122-.088-.28.004-.027-.034-.034-.086-.014-.05.02-.096-.005-.1-.056-.023-.287-.05-.395-.094-.368-.059.036-.133-.145-.133-.325 0-.072-.076-.207-.168-.3-.124-.123-.151-.198-.103-.284.05-.09.04-.106-.044-.074-.06.023-.111.014-.115-.018a8.282 8.282 0 0 1-.018-.28.672.672 0 0 0-.109-.336c-.085-.103-.083-.112.018-.073.144.055.148 0 .01-.137-.076-.076-.112-.306-.13-.819-.014-.412-.06-.748-.106-.795-.097-.097-.108-.313-.017-.346.035-.013.087-.18.115-.369.04-.265.03-.332-.036-.291-.065.04-.07.02-.02-.078.038-.073.073-.289.08-.48.005-.193.042-.37.082-.394.04-.024.088-.132.107-.239.024-.132.01-.178-.045-.144-.059.037-.06.012 0-.097a.446.446 0 0 0 .059-.234c-.01-.049.029-.09.087-.091.066-.002.106-.072.106-.185 0-.099.055-.236.123-.304a.433.433 0 0 0 .124-.25c0-.071.047-.168.104-.215.058-.048.09-.112.072-.142-.019-.03.033-.139.115-.242.08-.104.128-.207.104-.231-.023-.024.022-.088.1-.142.077-.055.122-.13.099-.168-.055-.089.106-.285.19-.233.036.022.06.014.055-.018a.27.27 0 0 1 .007-.111.81.81 0 0 0 .026-.124c.005-.039.03-.062.058-.053.1.036.261-.26.173-.315-.053-.034-.036-.053.046-.053.07-.001.11-.03.088-.066-.055-.088.31-.369.403-.312.04.025.052.013.028-.028-.057-.09.12-.248.2-.177.031.029.036.017.011-.027-.055-.097.119-.258.2-.184.031.029.038-.001.015-.067-.03-.085 0-.125.112-.14a.332.332 0 0 0 .225-.182c.038-.088.109-.144.158-.126.048.018.08-.005.07-.052-.009-.047.047-.086.125-.086s.14-.047.14-.105c0-.058.06-.106.13-.107.071 0 .17-.057.221-.126.05-.069.135-.116.188-.105.053.011.088-.019.079-.068-.01-.048.045-.092.123-.096.274-.018.317-.034.3-.118-.01-.047.047-.085.127-.085s.125-.032.101-.071c-.058-.094.139-.165.452-.162.139.002.302-.04.361-.09.06-.052.234-.1.387-.109.154-.008.332-.058.394-.11.07-.06.344-.106.725-.121.337-.014.632-.044.656-.069.072-.072.573-.05.62.028zm22.863.314c-.019.02-.218.042-.443.051-.225.01-.422.05-.438.09-.016.044-.333.073-.795.073-.658 0-.788.019-.917.135-.123.112-.165.12-.236.043-.07-.076-.063-.085.037-.05.068.024.123.013.123-.025 0-.09-.116-.086-.294.009-.079.042-.402.086-.718.099-.809.03-.82.033-.82.146 0 .133-.134.13-.186-.005-.06-.154-.213-.13-.34.053-.062.087-.135.15-.163.141-.028-.01-.052 4.97-.052 11.066 0 10.517.007 11.083.124 11.063.068-.011.123.016.123.06 0 .13 1.185.06 1.27-.074.04-.064.068-.073.068-.022.002.11.57.092.613-.019.02-.055.187-.07.516-.046.267.019.542.01.613-.02a.973.973 0 0 1 .358-.039c.127.009.227-.01.221-.043-.031-.178.022-.253.08-.11.069.172.239.209.328.07.037-.057.255-.092.62-.097.977-.015 1.378-.058 1.437-.154.037-.06.122-.076.247-.045.141.036.185.023.17-.049-.012-.052.017-.088.064-.08.066.014.082-1.403.07-6.354-.007-3.504.009-6.357.037-6.34.075.047.155-.334.082-.387-.089-.064-.116-.241-.03-.187.04.024.073.01.073-.03a.073.073 0 0 0-.07-.075.07.07 0 0 1-.07-.068c0-.038.051-.048.115-.024.1.038.109.002.064-.302-.029-.19-.028-.323 0-.294.076.075.238-.165.24-.356.002-.09.035-.143.074-.119.064.04.097-.072.09-.299-.002-.048.027-.068.064-.045.07.043.302-.234.303-.36 0-.04.039-.071.086-.071.046 0 .133-.064.191-.141.059-.078.108-.115.11-.083 0 .032.085-.008.186-.087.102-.08.21-.13.239-.112.03.018.093-.014.14-.071a.328.328 0 0 1 .223-.105.708.708 0 0 0 .309-.114c.142-.094.194-.098.282-.025.087.072.141.071.286-.006.14-.075.206-.077.313-.01.075.046.16.084.19.083.03 0 .006-.032-.052-.07-.085-.054-.073-.068.06-.069.12 0 .155.029.126.105-.033.087.015.102.265.081.312-.026.78.143.923.333.071.093.116.115.247.115.039 0 .063.035.053.079-.01.043.026.095.08.115.066.024.08.005.042-.055-.036-.058-.028-.073.023-.043.043.027.058.1.034.164-.027.07-.015.097.028.07.04-.024.109.036.153.134s.113.158.151.135c.039-.025.075.005.08.066.019.242.035.285.102.274.04-.008.077.04.084.105.008.065.028.182.045.26.017.077.034.156.037.176.004.019.037-.013.075-.07.08-.125.088-.087.081.404-.003.236.022.3.116.302.111.003.111.01-.003.096-.15.114-.154.203-.019.49.09.19.107 1.172.123 6.883l.02 6.661h.654c.502-.001.671-.026.722-.106.044-.07.066-.076.067-.017 0 .048.048.088.105.088.057 0 .087-.042.067-.095-.026-.067.031-.096.196-.1.218-.006.224 0 .096.094-.102.075-.11.101-.032.101a.285.285 0 0 0 .175-.07c.038-.039.43-.083.87-.1.564-.02.816-.056.859-.123.044-.07.06-.072.06-.006.001.048.05.088.11.088.059 0 .123-.04.142-.088.024-.063.256-.089.814-.09.663-.001.795-.02.873-.125.078-.108.096-.11.131-.017.055.142.23.139.286-.005.03-.076.095-.1.202-.073.415.104.406.266.405-6.922 0-3.592.017-6.705.04-6.918.032-.3.023-.364-.04-.282-.066.086-.072.075-.035-.056.025-.09.01-.205-.032-.256-.046-.055-.079-.41-.08-.86-.003-.576-.03-.794-.11-.882-.063-.07-.105-.26-.107-.481-.002-.201-.019-.349-.039-.33-.091.092-.197-.142-.173-.385.018-.193-.015-.321-.119-.453-.08-.1-.126-.23-.103-.289.023-.061-.021-.148-.106-.208-.085-.06-.135-.158-.12-.238.019-.096-.003-.124-.077-.096-.057.022-.1.012-.093-.022.034-.182-.015-.451-.074-.415-.037.024-.088-.036-.112-.132-.026-.104-.08-.16-.136-.14-.05.02-.113.003-.138-.039-.026-.041-.01-.075.036-.075.062 0 .063-.025.005-.095-.043-.052-.063-.115-.044-.14.02-.026.017-.035-.005-.019-.056.04-.454-.358-.454-.453 0-.042-.028-.06-.062-.038-.035.021-.08-.028-.1-.109-.024-.087-.072-.127-.12-.098-.047.03-.095-.01-.118-.097-.021-.082-.065-.132-.097-.111-.033.02-.095-.03-.139-.112-.05-.094-.12-.133-.19-.106-.088.033-.093.022-.027-.058.067-.08.058-.098-.041-.09-.068.006-.125-.035-.126-.09-.001-.054-.097-.13-.213-.167a1.136 1.136 0 0 1-.326-.168c-.063-.054-.158-.09-.211-.079-.056.012-.087-.024-.074-.085.013-.058 0-.082-.029-.053-.029.029-.095.016-.148-.028-.053-.044-.116-.06-.14-.035-.025.024-.086-.011-.138-.079-.072-.094-.093-.099-.095-.02-.002.075-.026.068-.097-.028-.07-.095-.144-.117-.28-.084-.141.036-.176.024-.148-.05.042-.11-.493-.225-.69-.15-.061.024-.125-.003-.147-.061-.026-.067-.128-.099-.291-.09-.14.006-.252-.01-.252-.036 0-.08-2.845-.054-2.943.026-.048.04-.088.043-.09.01 0-.034-.03-.015-.066.042-.037.058-.184.108-.334.114-.284.011-.36.03-.678.159a1.15 1.15 0 0 1-.26.081c-.034 0-.09.05-.125.112s-.084.11-.11.106c-.17-.023-.255.005-.24.079a.08.08 0 0 1-.07.096.541.541 0 0 0-.124.03.395.395 0 0 1-.088.027c-.101.018-.405.258-.386.305.011.026-.036.055-.105.066-.12.017-.335.23-.386.382-.013.04-.087.083-.164.094-.077.012-.14.065-.14.12 0 .054-.047.099-.105.099-.059 0-.107.032-.108.07a.596.596 0 0 1-.093.212l-.092.14.04-.14c.04-.137.039-.138-.062-.008-.057.074-.087.162-.066.196.022.034-.003.053-.054.042-.052-.01-.095.029-.096.087-.003.154-.103.29-.179.244-.037-.023-.066-.623-.066-1.362 0-.933-.025-1.346-.084-1.405-.081-.082-1.12-.126-1.194-.052zm33.173.033c-.078.03-.18.04-.228.022-.049-.017-.106.014-.127.07-.025.066-.102.091-.213.07-.095-.018-.212-.002-.26.036a.313.313 0 0 1-.216.05c-.07-.012-.143.02-.162.069-.021.054-.106.075-.216.055-.126-.024-.204.003-.252.089-.056.101-.08.106-.13.027-.048-.075-.062-.068-.063.032 0 .07-.033.107-.073.083-.039-.024-.05-.079-.024-.12.029-.047.015-.057-.035-.027-.046.029-.067.077-.048.108.02.031-.099.056-.263.055-.417-.003-.607.037-.593.122.007.041-.082.066-.198.057a.853.853 0 0 0-.317.028 1.134 1.134 0 0 1-.28.06c-.094.008-.182.045-.195.082-.012.038-.117.055-.232.038-.13-.02-.21 0-.21.052 0 .045-.032.063-.07.04-.04-.025-.073.013-.076.083-.005.12-.008.12-.056-.004-.045-.113-.067-.118-.154-.036-.056.053-.235.103-.398.11a1.294 1.294 0 0 0-.458.101.91.91 0 0 1-.288.099c-.212.017-.317.17-.185.267.061.046.1.12.085.164-.015.044.027.134.092.2a.62.62 0 0 1 .137.337c.01.127.086.273.183.352.091.075.118.115.06.089-.063-.028-.054-.005.022.058.094.076.105.118.042.157-.065.04-.061.07.014.13.054.043.11.125.124.183l.042.176c.009.039.1.245.203.458.102.213.187.426.187.472 0 .047.056.117.124.157.068.04.096.072.063.074-.034.001-.007.085.06.187.082.126.09.17.025.136-.06-.032-.057-.016.01.044.104.091.157.219.162.389.002.046.036.078.076.07.04-.007.075.034.078.092.006.164.2.635.26.635.03 0 .037.047.014.105-.023.06.009.123.072.148.063.024.095.073.072.11-.022.036-.002.112.045.168.047.057.057.104.023.105-.033.002-.01.041.052.088.122.094.134.122.134.33 0 .102.032.127.118.094.09-.034.107-.017.071.075-.047.124.155.68.248.68.028 0 .033.047.01.105a.113.113 0 0 0 .07.146c.06.024.093.08.076.127-.019.047.031.154.11.239.079.084.14.178.135.209-.03.183.02.37.095.354.05-.01.08.024.07.073-.032.161.264.72.382.72.087 0 .103.047.07.213-.031.155-.007.249.09.346.073.073.13.175.129.227-.012.238.025.342.119.342.056 0 .124.037.152.081.03.051.02.063-.032.032-.044-.028-.08-.014-.08.03 0 .045.061.098.137.118.109.028.13.077.098.233-.03.155-.006.216.116.28.107.058.143.128.118.225-.048.182.163.603.323.646.068.018.124.072.124.118 0 .05-.051.067-.124.042-.11-.038-.112-.034-.011.045.061.049.097.13.08.181-.017.051.03.109.105.128.1.027.128.084.108.225a.415.415 0 0 0 .122.348c.082.088.132.188.11.223-.056.092.035.294.112.247.035-.023.06-.014.055.018-.03.177.022.3.147.34.078.024.141.077.141.118 0 .04-.055.053-.123.03-.11-.038-.112-.034-.011.045.061.049.1.123.085.166-.014.043.023.118.082.167.06.05.108.16.108.244 0 .085.065.224.145.31.08.085.125.186.101.224-.043.07.121.415.317.664.094.12.094.129.001.082-.064-.032-.058-.013.016.048.068.056.104.12.08.143-.022.023.024.125.104.226.08.102.127.23.106.286-.024.062.005.101.074.101.1 0 .151.13.12.307-.024.133.079.326.15.283.042-.026.058-.017.034.021-.023.038 0 .151.053.253.053.101.078.2.057.222-.021.021.011.058.072.082.062.023.095.087.074.142-.024.063.007.1.083.1.096 0 .105.02.041.098-.062.075-.056.106.026.138a.111.111 0 0 1 .067.142c-.022.057.047.18.16.284.108.101.158.184.11.184-.054 0-.079.084-.066.229.012.14-.022.265-.089.322-.092.08-.093.087-.003.048.058-.025.044.004-.03.064-.075.061-.115.131-.09.157.026.026-.008.092-.075.147-.068.055-.083.08-.035.056.057-.029.073-.006.045.065-.022.06-.074.09-.113.065-.041-.025-.058-.002-.04.053.018.054-.017.14-.079.191-.062.051-.073.074-.024.05.057-.03.072-.008.045.064-.023.06-.074.09-.114.065-.04-.025-.058-.002-.04.053.019.054-.017.14-.078.191-.062.051-.073.073-.024.049.13-.066.108-.012-.082.21-.094.108-.154.24-.133.293.02.052.009.095-.025.095s-.103.067-.154.148c-.07.113-.071.135-.004.094.049-.03-.004.068-.118.218-.114.15-.161.245-.106.211.056-.033.008.062-.105.212-.114.15-.162.245-.106.211.055-.033.008.062-.106.212-.114.15-.161.245-.106.211.056-.033.008.062-.105.212-.114.15-.161.245-.106.211.055-.033.008.062-.106.211-.114.15-.16.246-.106.212.056-.033.009.062-.105.211-.114.15-.161.246-.106.212.056-.034.008.062-.106.211-.113.15-.16.245-.105.212.055-.034.008.061-.106.211-.114.15-.161.245-.106.212.055-.034.008.061-.106.211-.113.15-.16.245-.105.211.055-.033.008.062-.106.212-.114.15-.161.245-.106.211.056-.033.008.062-.106.212-.113.15-.158.245-.1.211.078-.045.074-.025-.015.077a.522.522 0 0 0-.122.276c-.005.275-.029.379-.08.347-.029-.017-.035-.103-.013-.19.021-.088.015-.138-.013-.111-.044.04-.092.293-.125.671-.005.047-.032.071-.06.053-.03-.018-.035-.103-.014-.19.022-.088.016-.138-.013-.111-.044.04-.091.293-.125.671-.004.047-.031.07-.06.053-.029-.018-.038-.103-.022-.19l.031-.16-.07.16c-.039.087-.053.204-.031.26a.244.244 0 0 1-.016.192c-.03.049-.063.2-.073.338-.01.137 0 .208.02.158.03-.071.061-.073.14-.006.078.063.123.064.184.003.113-.113.195-.103.195.024 0 .058.04.106.088.106.064.001.066.015.006.054-.045.028.058.057.23.063.197.008.295-.014.267-.06-.03-.048-.001-.05.088-.003.192.1.454.06.56-.086.1-.136.326-.103.294.042-.01.047.062.096.158.107.317.038.418.065.474.126.03.034.01.035-.044.003-.067-.038-.083-.03-.049.025.069.11.173.101.299-.025.118-.118.269-.145.2-.035-.083.137.195.168.294.033.074-.102.095-.108.095-.024 0 .087.1.106.534.1.406-.004.551.02.604.101.051.08.078.085.105.019.02-.048.09-.09.155-.093.094-.004.09-.017-.023-.066-.13-.055-.13-.06-.011-.066.073-.002.145.057.166.137.045.171.143.184.174.023.022-.111.03-.111.141 0 .146.145.939.17 1.004.03.033-.071.049-.071.082 0 .023.048.1.087.17.087.071 0 .145-.039.165-.087.029-.071.037-.071.041 0 .016.25.335-.031.397-.35a.662.662 0 0 1 .117-.25c.108-.13.121-.594.02-.668-.063-.047.121-.087.274-.06.034.007.044-.075.025-.18-.055-.284.011-.414.13-.257.088.117.093.115.067-.027-.016-.088.015-.17.072-.192.06-.023.082-.085.054-.158-.035-.09-.022-.105.054-.06.083.051.082.038-.003-.076-.058-.075-.078-.114-.044-.087.1.085.31-.246.285-.45-.018-.14.011-.203.11-.235.076-.023.134-.065.13-.091-.028-.197.027-.444.12-.537.061-.061.087-.11.057-.11-.03 0 .008-.049.083-.107.127-.099.122-.1-.07-.032-.206.073-.207.073-.082-.065.073-.08.173-.122.236-.098.091.035.103.003.066-.18-.027-.136-.016-.224.028-.224.04 0 .05.04.02.088-.035.06-.013.056.067-.01.099-.08.105-.116.032-.206-.074-.091-.072-.1.009-.051.077.046.09.019.063-.128-.032-.168.01-.219.168-.196.027.003.035-.069.018-.16-.022-.124.008-.176.12-.206.099-.025.136-.076.108-.147-.022-.059.004-.152.058-.207.055-.054.08-.119.056-.143-.023-.024-.002-.043.048-.043.072 0 .07-.025-.006-.12-.054-.065-.063-.1-.022-.074.084.05.29-.276.28-.44-.004-.06.05-.148.119-.2.09-.066.115-.15.088-.305-.03-.172-.01-.22.106-.25.127-.034.192-.26.152-.53-.004-.027.047-.03.115-.006.067.024.099.018.07-.015-.03-.032-.003-.136.06-.231.081-.125.087-.16.017-.124-.061.032-.057.016.01-.044.12-.105.165-.237.155-.445-.005-.102.009-.114.051-.045.078.125.15.001.114-.192-.02-.096.025-.188.125-.257.085-.06.147-.124.137-.142-.051-.1-.007-.314.061-.299.045.01.096-.026.116-.08.024-.068.005-.08-.062-.04-.083.05-.083.041 0-.06.053-.065.07-.12.039-.12-.032 0 .004-.049.08-.11.075-.061.097-.091.048-.067-.048.025-.088.012-.088-.03 0-.04.05-.074.11-.074s.092-.028.071-.062c-.02-.035.02-.138.09-.23a.665.665 0 0 0 .118-.395c-.01-.201.03-.256.178-.243.02.002.044-.075.052-.172a.88.88 0 0 1 .272-.554.567.567 0 0 0 .135-.291.633.633 0 0 1 .11-.284.533.533 0 0 0 .106-.214.553.553 0 0 1 .115-.222.57.57 0 0 0 .107-.292c.005-.096.055-.208.11-.249.056-.04.097-.152.092-.248-.006-.11.024-.167.084-.155.051.011.073-.013.049-.053-.025-.04-.006-.072.041-.072.048 0 .065-.021.04-.047-.027-.026.003-.125.065-.22.082-.126.087-.16.018-.124-.061.032-.057.016.01-.044.104-.092.157-.219.162-.39.002-.046.037-.077.08-.07.041.008.078-.034.08-.092.007-.181.108-.423.177-.423.036 0 .065-.033.065-.074 0-.041-.031-.055-.07-.032-.152.094-.06-.08.108-.206.099-.074.165-.173.147-.22-.019-.047.017-.158.08-.247.061-.088.075-.137.03-.11-.05.031-.083.009-.083-.056 0-.064.04-.092.1-.069.068.026.094-.004.081-.09-.01-.071.04-.17.112-.222.086-.06.12-.15.1-.264-.017-.095-.002-.172.034-.172.037 0 .058-.04.049-.088-.01-.048.015-.082.055-.075.041.007.079-.052.085-.13a.353.353 0 0 1 .118-.225.255.255 0 0 0 .085-.222c-.013-.078.036-.182.108-.233.071-.05.13-.128.13-.172 0-.044-.05-.018-.112.057-.061.075-.039.01.05-.145.088-.155.179-.298.201-.317.023-.02.037-.115.03-.211-.014-.239.043-.368.146-.329.085.033.111-.055.11-.368-.002-.137.016-.152.1-.082.086.07.1.052.088-.115-.009-.133.017-.193.08-.18.051.01.075-.01.052-.047-.023-.036-.001-.082.048-.102.066-.027.062-.054-.018-.11-.068-.05-.075-.076-.02-.077.052 0 .068-.048.041-.118-.03-.079-.017-.1.038-.067.05.032.082.007.082-.063 0-.068.033-.093.082-.063.047.029.062.02.036-.023-.025-.04.018-.154.096-.253s.135-.206.127-.237c-.026-.093.087-.375.149-.375.031 0 .056-.085.056-.188 0-.104.044-.223.098-.265.094-.074.147-.202.153-.372.001-.047.029-.069.06-.049.033.02.062.01.065-.02.02-.2.068-.332.165-.439.128-.141.148-.249.034-.178-.056.035-.056.008 0-.095.042-.08.113-.156.158-.171.045-.015.087-.09.093-.168a.75.75 0 0 1 .124-.304c.063-.09.1-.204.08-.254-.019-.05 0-.112.042-.138.042-.026.058-.078.035-.114-.023-.037 0-.06.051-.048.065.013.09-.053.08-.218-.008-.131.003-.22.026-.198.048.048.241-.133.227-.213-.027-.16.016-.307.078-.268.065.04.102-.058.076-.202-.006-.033.025-.103.069-.155.043-.053.058-.129.033-.169-.025-.04.002-.073.06-.073.068 0 .097-.051.08-.14-.017-.086.032-.183.127-.249.131-.093.138-.119.048-.176-.076-.049-.08-.068-.013-.069.05 0 .072-.034.047-.074-.06-.096.102-.29.193-.235.043.027.052-.014.023-.106-.067-.21.016-.434.142-.385.073.028.09.006.06-.074-.026-.068 0-.13.07-.156.061-.023.094-.071.073-.106-.022-.035-.006-.063.035-.063s.063-.071.049-.159c-.027-.161.064-.334.176-.334.035 0 .062 6.057.062 14.097v14.097h.888c.71 0 .882-.02.853-.094-.023-.06.015-.09.112-.082.081.005.16.048.175.093.037.11.227.106.227-.005 0-.065.161-.085.6-.077.407.007.584-.013.552-.064-.026-.043-.013-.054.03-.028.042.026.09.007.107-.042.017-.05.022-.034.012.034-.024.16.507.157.692-.004.09-.077.276-.108.652-.106.438.002.527-.017.529-.111.002-.098.012-.097.074.01.097.167.316.155.441-.023.066-.093.12-.118.15-.07a.09.09 0 0 0 .124.03c.047-.029.056-.014.023.04a.13.13 0 0 1-.151.048c-.055-.021-.099-.008-.099.03 0 .104.16.082.346-.048a.837.837 0 0 1 .384-.123c.167-.006.22-.04.226-.149.004-.077.012-1.999.018-4.27.011-3.562.027-4.129.115-4.129.057 0 .087.027.067.059-.02.032-.003.058.038.058s.067.039.057.085c-.01.047.03.087.088.088.058.002.106.043.106.092 0 .048.026.086.057.084.032-.002.12.076.196.173a.757.757 0 0 0 .295.225c.086.027.199.109.25.181.05.073.12.115.153.095.034-.021.082-.004.109.039.025.042.09.06.143.039a.129.129 0 0 1 .152.055c.094.16.443.32.76.348.077.006.182.06.234.118.06.068.076.072.044.01-.033-.065.01-.056.137.026a.518.518 0 0 0 .39.081c.143-.029.216-.01.244.064.032.084.066.088.175.02.11-.07.158-.063.259.039.172.172 3.378.146 3.486-.029.042-.069.195-.11.438-.12.561-.021.61-.034.566-.146-.031-.081.006-.092.177-.055.123.027.234.017.259-.024.025-.04.092-.053.151-.031.066.025.098.005.085-.053-.012-.06.052-.096.178-.1.11-.003.228-.052.264-.109.043-.068.065-.073.065-.015.001.06.077.045.242-.048.131-.074.261-.113.288-.087.026.026.037 0 .024-.058-.013-.06.018-.097.072-.085a.251.251 0 0 0 .183-.053c.047-.04.115-.048.149-.02.033.03.021 0-.029-.065-.078-.103-.07-.113.06-.08.111.03.159.002.188-.11.022-.083.071-.15.109-.15.039 0 .051.049.028.11-.032.082.01.072.169-.041.117-.083.194-.18.172-.215-.022-.036.007-.047.063-.025s.123.005.149-.037c.026-.043.085-.054.131-.027.046.028.039-.004-.015-.07-.085-.106-.084-.116.014-.079.143.055.467-.178.469-.339.002-.068.033-.123.071-.123.038 0 .048.055.023.123-.039.108-.024.106.126-.017.094-.077.185-.15.204-.162.018-.012-.014-.055-.071-.094-.08-.055-.07-.061.046-.03.113.032.16.006.189-.108.022-.082.07-.13.107-.108.037.023.084-.025.106-.105.021-.082.067-.13.103-.108.036.022.155-.068.265-.2.11-.132.224-.226.252-.208.028.017.072-.033.097-.111.025-.079.08-.122.122-.096.05.031.062-.007.035-.11-.03-.117-.015-.148.059-.12.057.023.134-.027.181-.117a.637.637 0 0 1 .179-.214c.053-.03.075-.092.049-.135-.033-.052-.006-.061.079-.03.107.042.113.033.038-.058-.061-.073-.065-.107-.01-.107.043 0 .079-.032.079-.07 0-.082.281-.38.283-.3 0 .03.043-.026.093-.123.052-.097.131-.169.176-.16.045.01.082-.046.082-.125 0-.078.049-.161.108-.184.087-.034.091-.063.02-.156-.049-.064-.062-.094-.03-.067.099.083.251-.106.167-.208-.055-.069-.045-.08.042-.046.093.036.116-.002.117-.192.001-.179.018-.21.07-.131.037.058.072.074.077.035.005-.039.017-.102.026-.14.009-.04.021-.143.027-.23.006-.087.044-.158.085-.158.041 0 .052.036.024.08-.031.052-.019.063.035.03.066-.04.064-.079-.007-.165-.068-.085-.069-.1-.003-.06.054.032.088.013.088-.05 0-.056.048-.12.106-.143.066-.026.105-.133.105-.292 0-.14.04-.266.091-.286.05-.019.099-.137.108-.262.022-.302.082-.483.146-.443.029.017.06-.113.069-.29.009-.177.066-.371.127-.432.099-.1.097-.119-.018-.202-.115-.085-.115-.093-.008-.093.066 0 .12-.034.12-.075 0-.041-.032-.055-.071-.031-.039.024-.07.01-.07-.031s.031-.075.07-.075c.039 0 .071-.186.071-.415 0-.304.028-.427.105-.456.153-.059.14-.512-.017-.604-.069-.04-.084-.072-.036-.074.056 0 .089-.105.089-.277 0-.156-.039-.292-.089-.312-.052-.022-.038-.038.036-.042.158-.006.177-.532.022-.618-.074-.042-.107-.243-.125-.762-.018-.507-.048-.7-.111-.687-.075.016-.118-.23-.104-.599.001-.048-.03-.088-.069-.088-.039 0-.028-.055.023-.123.052-.068.068-.101.036-.074-.113.095-.221-.122-.21-.42.008-.19-.023-.32-.084-.354-.053-.03-.104-.157-.113-.283-.012-.158-.047-.218-.112-.193-.052.02-.077.008-.056-.026.02-.033-.023-.138-.097-.232a.931.931 0 0 1-.158-.414c-.014-.147-.057-.235-.111-.224-.059.011-.088-.076-.088-.262 0-.21-.036-.3-.144-.357-.14-.075-.316-.393-.287-.518.008-.034-.053-.109-.135-.166-.082-.058-.131-.15-.11-.205a.11.11 0 0 0-.065-.141c-.058-.023-.105-.083-.105-.134 0-.052-.062-.113-.137-.137-.091-.029-.123-.082-.094-.157.027-.07.015-.096-.032-.068-.068.043-.17-.099-.192-.27-.005-.038-.047-.062-.094-.053-.076.016-.115-.07-.094-.209.004-.027-.045-.03-.109-.005-.072.027-.099.016-.071-.029.048-.079-.329-.514-.446-.514-.039 0-.07-.048-.07-.106a.106.106 0 0 0-.106-.106c-.058 0-.105-.028-.105-.062 0-.14-.647-.713-.806-.713-.111 0-.178-.051-.206-.155-.022-.086-.061-.135-.086-.11-.025.025-.125-.048-.221-.162-.096-.115-.203-.19-.239-.168-.035.022-.064.002-.064-.043s-.047-.064-.106-.041c-.064.024-.105 0-.105-.063 0-.102-.053-.123-.298-.123-.067 0-.108-.022-.091-.05.046-.074-.346-.343-.537-.37a.799.799 0 0 1-.255-.078c-.048-.03-.088-.031-.088-.002 0 .029-.043-.006-.096-.078-.058-.08-.14-.113-.211-.086-.075.029-.116.008-.116-.06 0-.094-.065-.113-.476-.132a.336.336 0 0 1-.209-.112c-.065-.08-.086-.083-.088-.012-.002.068-.034.061-.119-.024-.077-.077-.198-.108-.351-.09-.147.017-.246-.006-.268-.064-.019-.05-.076-.09-.125-.086-.071.004-.072.013-.003.041.049.02.089.07.089.111 0 .042-.063.02-.139-.05-.076-.068-.187-.106-.247-.083-.059.023-.108.012-.108-.023 0-.054-2.653-.05-2.942.005-.049.01-.089.06-.089.115 0 .054-.032.078-.071.054-.04-.024-.051-.079-.025-.12.029-.047.015-.057-.035-.027-.045.029-.066.078-.046.11.02.033-.083.057-.228.056-.337-.004-.532.045-.563.139-.014.041-.087.058-.163.038-.075-.02-.138-.001-.138.041s-.044.06-.098.039a.13.13 0 0 0-.152.048c-.034.055-.024.068.028.036.045-.028.082-.013.082.032 0 .051-.063.066-.166.04-.091-.022-.19-.018-.218.01a.21.21 0 0 1-.098.057c-.274.03-.984.532-.94.666.029.085.015.088-.071.017-.127-.105-.206-.048-.147.106.028.073.014.093-.04.06-.046-.029-.083-.018-.083.023 0 .04-.047.075-.105.075-.058 0-.106.053-.106.117 0 .065-.02.097-.046.072-.025-.026-.09.009-.146.076-.061.075-.08.081-.048.016.035-.069-.006-.057-.118.036-.188.155-.252.238-.435.557-.068.119-.123.177-.123.129 0-.056-.047-.043-.13.036-.072.068-.118.146-.104.173.014.027-.04.084-.12.127-.102.055-.133.12-.103.215.024.077.01.137-.032.137-.041 0-.075.048-.075.106 0 .058-.03.106-.066.106-.038 0-.07-.694-.077-1.674a232.28 232.28 0 0 0-.017-1.764c-.007-.145-.307-.18-1.03-.124-.373.03-.757.053-.854.052a.495.495 0 0 0-.273.077c-.058.05-.301.072-.617.059-.286-.012-.52.005-.52.04 0 .033-.175.055-.389.05-.214-.006-.41.021-.434.061-.028.045-.007.051.054.015.06-.034.076-.031.04.007-.032.035-.38.068-.775.072-1.022.012-1.035.013-.988.134.022.058.008.105-.03.105-.039 0-.09-.048-.111-.106-.06-.154-.233-.13-.36.053-.061.087-.134.15-.163.14-.028-.01-.067.164-.086.388-.023.257-.07.413-.129.425-.055.012-.073-.014-.042-.063.036-.058-.008-.071-.15-.044-.139.027-.233.002-.299-.078-.052-.064-.076-.076-.051-.028.025.049.01.088-.03.088-.041 0-.075-.04-.076-.088 0-.059-.023-.053-.07.018-.057.088-.068.084-.069-.027 0-.112-.039-.126-.243-.093-.146.023-.253.008-.268-.038-.03-.09-.206-.139-.547-.15-.136-.006-.268-.04-.294-.075-.055-.077-.224-.121-.516-.136-.117-.005-.243-.05-.282-.098-.04-.048-.23-.095-.423-.105-.194-.01-.385-.06-.425-.11-.04-.051-.237-.099-.44-.106-.233-.009-.38-.049-.404-.11-.031-.081-.055-.081-.155 0-.073.058-.099.063-.068.011.053-.089-.414-.218-.496-.136-.023.024-.088-.012-.143-.08-.06-.072-.078-.08-.046-.016.046.09.037.092-.065.009-.066-.054-.12-.07-.12-.039 0 .032-.038.02-.084-.026-.126-.126-.55-.11-.55.02 0 .098-.086.139-.234.113-.032-.006-.037.024-.011.067.026.042-.01.14-.08.217a.633.633 0 0 0-.138.33c-.021.342-.03.366-.116.348-.046-.01-.09.054-.096.14a.583.583 0 0 1-.108.278c-.085.104-.084.113.007.067.078-.04.075-.029-.008.04-.068.056-.112.194-.109.34.005.194-.02.241-.114.225-.142-.024-.156.06-.033.193.049.052.055.077.015.054-.041-.023-.118.028-.17.113-.085.135-.083.143.009.067.085-.07.105-.067.105.018 0 .093-.065.131-.196.116-.023-.003-.032.087-.02.199.02.155-.01.215-.12.25-.084.026-.129.086-.107.143.021.053-.013.148-.075.21a.557.557 0 0 0-.132.287.61.61 0 0 1-.102.274c-.045.055-.059.137-.03.184.033.053.022.066-.03.034-.044-.028-.08-.017-.08.024s.04.075.087.076c.067.001.066.016-.005.06-.051.033-.087.104-.08.158.025.179-.002.274-.077.274-.041 0-.055-.031-.031-.07.024-.039.011-.07-.027-.07-.039 0-.072.055-.074.123-.008.278-.032.361-.104.348-.042-.007-.076.092-.077.221 0 .15-.05.271-.136.334-.075.055-.114.121-.088.148.026.026-.004.128-.069.225a.947.947 0 0 0-.128.394c-.007.12-.048.208-.092.199-.049-.01-.063.03-.037.1.03.078.018.1-.04.064-.06-.038-.073.006-.046.16.022.124.003.233-.044.263-.056.034-.063.019-.022-.049.05-.084.041-.084-.064 0-.067.055-.106.14-.087.19.019.05-.03.171-.108.271-.079.1-.129.221-.112.27.018.047-.019.147-.082.222-.063.075-.075.113-.027.084.06-.034.074-.015.046.058-.023.06-.07.092-.105.07-.035-.021-.063-.005-.063.036 0 .04.034.075.076.075.045 0 .038.04-.018.103-.236.26-.274.326-.231.395.025.041-.013.141-.085.223-.071.082-.086.123-.033.092.067-.04.087-.027.062.04-.02.054-.075.089-.123.078-.056-.014-.072.022-.043.097a.259.259 0 0 1-.045.227c-.073.092-.072.1.01.051.067-.04.083-.033.049.022a.206.206 0 0 1-.16.081c-.067 0-.093.04-.07.104.023.057-.003.147-.055.2-.118.118-.254.584-.19.654.025.029.009.031-.036.006-.106-.061-.194.173-.09.238.06.037.06.062-.002.1-.046.029-.064.1-.041.16.036.095.025.096-.08.01-.08-.064-.103-.068-.068-.01.03.05.02.09-.021.09a.075.075 0 0 0-.075.074c0 .04.038.05.084.022.047-.028.01.054-.083.183-.092.13-.175.302-.184.383l-.025.218c-.004.039-.068-.002-.142-.09a.427.427 0 0 1-.1-.34c.023-.133-.002-.19-.098-.215-.093-.024-.125-.092-.115-.243.008-.114-.027-.25-.078-.302a.493.493 0 0 1-.117-.227.648.648 0 0 0-.14-.264c-.066-.072-.107-.192-.093-.266.015-.075-.002-.118-.037-.097-.035.022-.083-.08-.107-.227-.065-.388-.095-.457-.176-.407-.04.025-.068.02-.062-.013.03-.182-.015-.308-.095-.26-.07.042-.07.031 0-.055.071-.09.063-.131-.048-.232-.075-.067-.124-.182-.11-.254.014-.077-.024-.147-.094-.17-.082-.025-.12-.117-.122-.302-.002-.177-.033-.259-.093-.246-.05.011-.072-.01-.05-.047.024-.036-.004-.112-.06-.168-.076-.076-.081-.123-.022-.182.06-.06.058-.08-.008-.08-.05 0-.071-.03-.05-.065.023-.035.005-.076-.039-.09-.044-.016-.08-.115-.08-.222 0-.14-.028-.185-.1-.157-.056.022-.082.008-.058-.031.024-.038.017-.07-.014-.07-.032 0-.058-.103-.057-.229 0-.126-.033-.223-.073-.216-.04.007-.078-.04-.083-.106-.017-.232-.057-.331-.176-.442a.314.314 0 0 1-.092-.266c.016-.085.006-.14-.023-.122-.03.018-.099.004-.155-.032-.056-.035-.068-.065-.027-.066.105-.001.04-.44-.079-.534-.052-.041-.108-.168-.124-.282-.017-.114-.069-.198-.115-.187-.047.01-.066-.011-.043-.049a.08.08 0 0 0-.026-.108c-.037-.023-.056-.103-.041-.178.015-.082-.021-.151-.093-.174-.08-.026-.117-.111-.114-.268a.627.627 0 0 0-.103-.358.606.606 0 0 1-.117-.306c-.006-.098-.048-.202-.095-.23-.046-.03-.089-.118-.095-.198-.006-.08-.046-.13-.088-.114-.048.018-.084-.088-.095-.272-.01-.167-.053-.334-.095-.373-.054-.05-.06-.039-.02.036.03.058.03.08-.003.05a.38.38 0 0 1-.082-.19c-.04-.271-.058-.32-.142-.389-.047-.039-.098-.166-.113-.282-.021-.158-.062-.208-.162-.196-.074.009-.099 0-.057-.02.105-.048.01-.565-.099-.542-.079.017-.09-.018-.108-.317-.013-.206-.45-.297-.786-.163zm62.307.064c-.068.064-.103.08-.079.037.057-.104-.515-.105-.647-.002-.052.041-.235.066-.406.055-.171-.01-.311.012-.311.05 0 .038-.06.053-.134.034-.091-.024-.146.007-.168.095-.031.116-.035.117-.042.006-.01-.15-.138-.163-.193-.02-.027.071-.101.09-.244.061-.113-.022-.245-.01-.293.03-.049.038-.16.058-.247.044-.098-.016-.159.01-.159.067 0 .062-.066.084-.2.064-.123-.018-.244.014-.312.083-.134.133-.219.147-.157.024.025-.049 0-.033-.055.034s-.12.103-.143.08c-.024-.024-.1-.019-.17.012a.417.417 0 0 1-.184.042c-.032-.007-.039.017-.016.054.022.037.013.085-.021.106-.034.02-.054.212-.045.425.011.23-.011.38-.053.371-.04-.008-.086.025-.103.074-.018.048.004.088.049.088.049 0 .037.044-.03.11-.117.118-.157.562-.045.492.076-.047-.007.286-.128.511-.053.098-.055.162-.008.191.044.027.028.087-.041.156-.089.09-.102.196-.064.524.039.329.027.42-.056.452-.057.021-.103.116-.103.21 0 .103.031.155.079.132.043-.022.023.006-.044.061-.1.083-.118.182-.092.532.02.272.003.45-.046.48-.05.03-.058.015-.021-.045.037-.059.03-.075-.02-.045-.042.027-.078.103-.08.17-.002.067-.024.24-.048.386-.075.453.006.624.286.605.132-.009.227-.04.209-.067-.017-.028.065-.071.182-.097.117-.026.198-.07.18-.1-.018-.03.013-.053.07-.053.056 0 .102.031.102.07 0 .038.056.009.124-.065a.454.454 0 0 1 .332-.127c.115.004.252-.036.305-.088a.441.441 0 0 1 .249-.105l.352-.02c.109-.007.222-.05.25-.096.029-.047.213-.092.408-.1.259-.011.354-.043.349-.116a.143.143 0 0 1 .09-.136c.066-.023.08-.004.042.056-.036.06-.028.074.026.04.044-.027.247-.05.451-.05.204-.002.44-.047.525-.102.113-.072.168-.077.205-.019.033.053.018.061-.042.024-.061-.038-.076-.03-.042.024.027.045.161.082.297.082.135 0 .23-.026.211-.058-.02-.032.06-.044.177-.026a.746.746 0 0 0 .389-.063c.137-.074.203-.075.31-.008a.698.698 0 0 0 .331.078c.187-.006.186-.009-.042-.075-.131-.037-.22-.085-.199-.106.052-.052.541.114.541.183 0 .031.273.058.606.06.453.004.638.034.731.118.069.063.154.106.187.096.134-.039.527.085.486.152-.025.04.002.072.058.072s.121.05.145.11c.023.06.071.091.107.07.037-.023.087.022.112.1.025.079.092.143.15.143.062 0 .084.033.054.082-.034.055-.013.068.063.039.077-.03.102-.013.077.051-.02.053-.002.117.04.142.042.027.057.08.033.118-.024.038.012.13.079.205.073.08.122.248.122.418 0 .156.029.284.065.284.036 0 .043-.04.016-.088-.04-.07-.03-.07.042-.003.074.069.075.105.002.192-.073.088-.071.116.009.146.072.028.097.181.096.59l-.002.552-.177-.108a3.194 3.194 0 0 1-.294-.209.292.292 0 0 0-.273-.049c-.116.037-.141.026-.099-.041.04-.065.021-.076-.07-.042-.09.035-.114.02-.087-.051.029-.077-.015-.094-.186-.074-.123.015-.185.01-.137-.012.066-.03.06-.067-.024-.15-.087-.088-.123-.093-.166-.023-.04.064-.069.067-.104.01a.1.1 0 0 0-.133-.031c-.045.026-.061.023-.034-.007.081-.09-.113-.233-.299-.222-.095.006-.215-.038-.266-.097-.052-.059-.075-.07-.052-.024.023.046.01.104-.03.128-.039.024-.072-.018-.072-.094 0-.116-.044-.135-.279-.123-.168.008-.293-.02-.313-.073-.02-.05-.097-.07-.19-.045-.093.024-.139.013-.113-.029.027-.044-.431-.075-1.258-.086-.808-.01-1.3.01-1.3.052 0 .075-.179.068-.257-.01-.093-.094-.308-.05-.451.094-.079.079-.173.125-.21.102-.036-.022-.13-.007-.209.035-.096.052-.142.053-.142.004 0-.04-.048-.073-.106-.073a.106.106 0 0 0-.106.106c0 .117-.005.12-.352.137-.161.008-.247.047-.248.113-.001.06-.056.093-.134.079-.072-.013-.158.02-.191.07-.044.07-.06.072-.06.006-.001-.049-.035-.088-.076-.088-.041 0-.055.031-.031.07.054.088-.243.208-.382.155-.06-.023-.08-.007-.052.04.045.072-.203.203-.324.172-.029-.008-.049.01-.044.039.022.142-.016.232-.082.191-.041-.025-.126-.003-.19.05-.098.079-.107.078-.056-.007.037-.061-.012-.047-.125.035-.102.075-.187.162-.188.193-.001.031-.035.037-.074.012-.04-.024-.064-.005-.053.042.011.048-.076.138-.192.2-.249.131-.324.22-.266.314.024.04-.008.05-.075.023-.108-.041-.152.025-.124.186.006.033-.03.046-.079.03-.05-.017-.129.02-.177.08-.114.15-.113.252.002.174.05-.034.039-.012-.025.047a.653.653 0 0 0-.15.211c-.019.057-.093.104-.164.104-.08 0-.206.128-.327.335-.108.184-.182.334-.164.334.019 0-.033.066-.113.147-.081.08-.13.189-.11.24a.104.104 0 0 1-.061.133c-.054.02-.119.15-.145.287-.026.138-.079.25-.117.25-.04 0-.051.078-.025.183.032.126.022.167-.033.133-.053-.032-.072.01-.057.125a.453.453 0 0 1-.082.304c-.085.104-.086.117-.004.068.086-.052.086-.041 0 .083-.158.225-.123 3.59.038 3.737.033.03.037.015.009-.033-.027-.048-.02-.088.016-.088.037 0 .063.209.057.464-.007.35.018.484.103.546.061.046.097.127.079.18-.019.055.042.161.134.236.146.12.149.132.027.096-.135-.04-.136-.038-.01.06.072.055.107.137.08.18-.027.045.016.143.096.218.081.074.13.18.109.233-.021.055-.003.12.039.146.042.026.058.077.035.114-.023.038 0 .06.051.048.051-.01.086.02.076.07-.01.048.016.087.057.087s.054.034.029.074c-.06.097.103.29.197.232.043-.027.052-.012.023.036-.028.046-.002.101.059.124.06.023.093.07.071.105-.021.034.035.135.124.225.09.09.17.193.18.23.017.065.045.075.264.093a.118.118 0 0 1 .106.115c0 .058.03.105.067.105.036 0 .108.084.159.187.05.102.115.182.142.177.029-.004.132.073.23.17.1.1.215.157.261.128.055-.034.066-.011.035.07-.026.067-.018.104.018.082.036-.022.087-.006.112.036.026.042.093.059.149.038a.108.108 0 0 1 .14.061c.045.119.277.279.511.353.114.036.152.028.12-.024-.03-.049-.007-.062.061-.036.061.024.11.083.11.133 0 .092.338.214.407.145.02-.02.082.018.137.085.055.067.08.083.056.034-.025-.048-.014-.088.024-.088s.08.035.094.076c.014.042.136.082.27.088.135.007.284.06.332.118.077.094.095.094.157 0 .043-.063.072-.072.072-.022.002.17 3.569.19 3.775.022.116-.094.124-.094.076 0s-.044.094.04 0c.051-.058.197-.11.324-.113.135-.005.278-.064.341-.141.087-.107.102-.11.073-.017-.033.105-.017.107.153.018a.868.868 0 0 1 .279-.099c.05 0 .108-.048.13-.106.023-.058.061-.093.086-.078.093.054.363-.097.363-.201 0-.062.062-.109.144-.109.201 0 .492-.205.566-.4.034-.09.118-.163.187-.163s.212-.102.317-.229l.192-.23.002.793c.002.746.01.793.143.793.082 0 .141.047.141.114 0 .098.073.107.546.07.301-.023.681-.044.845-.047.165-.003.323-.044.353-.09.032-.05.249-.083.547-.086.779-.005 1.173-.048 1.256-.137.047-.05.207-.07.412-.05.184.017.384.013.444-.01a.5.5 0 0 1 .154-.038c.024.002.071-.038.103-.09.045-.07.06-.072.061-.006.001.049.048.088.105.088.063 0 .088-.041.063-.105-.056-.145.043-.134.16.017.092.117.095.117.054 0-.024-.07-.009-.123.035-.123.043 0 .078.04.079.088.001.065.017.063.062-.008.036-.057.116-.077.2-.051.354.113.337.546.325-8.035-.006-4.402-.028-8.021-.049-8.042-.02-.021-.003-.094.04-.162a.287.287 0 0 0 .019-.257 1.077 1.077 0 0 1-.063-.18.235.235 0 0 0-.071-.105c-.037-.034-.044-.023-.016.024.026.046.02.1-.013.12-.034.022-.053-.134-.045-.344.011-.252-.019-.426-.086-.509-.057-.069-.08-.08-.052-.026.034.064.023.081-.028.05-.044-.028-.068-.147-.054-.266a.405.405 0 0 0-.113-.355c-.076-.076-.121-.183-.1-.239.022-.058-.004-.1-.063-.1-.141 0-.274-.259-.158-.307.061-.026.045-.071-.054-.152-.077-.063-.131-.148-.12-.189.012-.042-.029-.055-.096-.03-.085.034-.105.016-.074-.065.023-.06.012-.092-.024-.069-.037.023-.117-.055-.178-.172-.06-.118-.095-.214-.076-.214.019 0-.112-.159-.291-.353-.179-.194-.34-.339-.357-.322-.034.034-.136-.038-.416-.296-.096-.088-.203-.141-.24-.119-.036.023-.066-.005-.066-.06 0-.174-.193-.29-.232-.14-.028.108-.035.105-.041-.02-.008-.139-.199-.284-.431-.327a.348.348 0 0 1-.177-.106c-.039-.048-.149-.095-.247-.106a.447.447 0 0 1-.262-.125c-.078-.094-.095-.094-.158 0-.06.09-.071.086-.072-.026-.001-.095-.038-.121-.137-.096-.079.021-.153-.005-.175-.063-.041-.107-.187-.103-.269.009-.03.04-.052.017-.053-.053-.001-.09-.059-.123-.213-.123-.116 0-.211-.028-.211-.062 0-.073-.236-.1-.793-.092-.231.004-.406-.024-.406-.065 0-.04.04-.049.089-.02.048.027.063.023.034-.01-.094-.103-.365-.087-.448.026-.069.094-.086.089-.127-.04-.065-.206-3.738-.233-3.955-.03zm17.58-.077a.4.4 0 0 0-.001.104c.005.027-.072.02-.17-.017-.129-.05-.188-.044-.212.02-.021.052-.191.091-.43.098-.218.007-.416.042-.44.078-.035.055-.411.14-.762.173-.047.004-.071.032-.052.06.05.083-.123.12-.374.082-.138-.021-.229-.005-.229.04 0 .042-.063.064-.14.05-.077-.016-.164.01-.194.056s-.173.09-.318.097c-.423.02-.505.037-.609.119a.414.414 0 0 1-.268.055.62.62 0 0 0-.352.097c-.121.08-.162.087-.123.023.042-.07.023-.068-.071.008a.52.52 0 0 1-.331.083c-.125-.013-.202.012-.202.067 0 .048-.021.066-.047.04-.025-.025-.094-.006-.154.042-.09.073-.098.07-.047-.018.043-.076.02-.07-.081.017-.077.068-.159.105-.182.083-.065-.066-.335.106-.335.213 0 .054.04.111.088.127.049.016.088.122.088.235 0 .127.034.199.088.188.088-.018.099.008.113.247.005.067.079.2.165.295.109.12.136.199.087.258-.048.057-.036.118.038.192.06.06.108.172.108.25a.33.33 0 0 0 .131.234.262.262 0 0 1 .107.248c-.014.085.007.173.044.197.041.025.051-.01.024-.085-.035-.1-.025-.109.044-.045.05.046.093.178.098.294.005.116.03.198.057.182.026-.017.069.066.095.182.03.136.076.195.129.164.055-.033.053-.014-.006.06-.072.088-.063.136.049.265.075.086.12.199.1.25-.019.05.026.136.1.188.075.053.125.158.113.236a.247.247 0 0 0 .08.219.391.391 0 0 1 .124.222c.012.08.058.189.103.242a.823.823 0 0 1 .118.306c.021.115.07.22.11.233.04.013.072.099.072.19s.031.185.07.209c.042.026.05-.007.022-.082-.043-.11-.035-.112.061-.022.069.064.102.191.088.335-.012.127.005.215.038.195.033-.02.093.058.133.174.041.116.055.211.032.211-.024 0 .011.06.077.133a.541.541 0 0 1 .131.274c.006.078.047.128.091.111.078-.03.09.009.11.365.006.097.043.197.083.222.044.027.053.006.021-.054-.028-.055-.004-.041.054.03a.432.432 0 0 1 .074.305c-.019.102-.004.159.035.134.038-.023.091.03.119.118.027.087.11.202.184.254.096.068.125.152.102.3-.018.113-.006.19.026.17.06-.038.179.357.152.505-.008.046.022.106.068.134.056.035.065.021.026-.04-.037-.061-.029-.076.025-.042.045.027.081.113.081.19 0 .079.032.122.071.098.039-.024.072-.018.075.014.006.071.054.364.09.55.016.083.073.133.139.121.087-.015.106.029.085.195-.015.118-.001.199.031.179.053-.033.111.123.184.487.014.075.058.155.097.18.039.023.082.119.096.212.015.093.063.182.108.197.045.015.081.108.081.207 0 .1.049.216.109.26.06.044.114.148.121.232.006.084.034.138.061.121.043-.026.144.276.167.499.004.039.048.062.097.051.05-.01.07.013.046.053-.025.04-.016.072.02.072.036 0 .056.082.045.18-.011.107.022.198.08.22.056.021.1.132.1.25 0 .162.026.202.11.17.06-.024.091-.014.069.022a.077.077 0 0 0 .025.105c.036.023.057.096.045.164-.011.067.045.194.125.282.079.087.115.159.079.159-.036 0-.017.032.041.07.077.05.08.068.013.069-.051 0-.072.033-.048.072.025.04.067.058.096.04.027-.017.058.07.066.193.009.123.065.261.125.306a.35.35 0 0 1 .119.221c.005.077.046.126.09.11.043-.017.084.01.09.06l.036.303c.014.116.061.204.106.194.046-.01.078.006.074.035a.27.27 0 0 0 .008.106c.01.029.026.116.035.193.03.24.036.25.096.156.036-.058.061.004.067.17.006.145.047.297.092.339.062.056.069.049.027-.03-.038-.073-.033-.084.019-.035a.488.488 0 0 1 .099.242.708.708 0 0 0 .186.335c.089.09.143.195.119.233a.832.832 0 0 0-.072.221.761.761 0 0 1-.155.294c-.12.138-.12.142.004.096.095-.034.077.009-.065.16-.108.113-.203.257-.212.32a.558.558 0 0 1-.108.224.522.522 0 0 0-.105.211.538.538 0 0 1-.106.212c-.097.116-.143.266-.142.461 0 .067-.039.104-.089.085-.049-.019-.093.007-.097.057-.033.372-.092.52-.257.64-.138.1-.167.16-.113.225.055.066.027.12-.107.209-.139.09-.164.141-.106.211.057.07.035.12-.095.205-.096.062-.164.168-.153.237.01.07-.041.169-.115.22-.099.07-.114.119-.059.186.056.067.032.118-.096.203-.096.062-.163.167-.153.237.01.07-.037.166-.106.214-.068.048-.115.143-.105.211.01.068-.038.163-.106.212-.068.048-.116.143-.106.211.01.068-.037.163-.106.212-.068.048-.115.143-.105.211.01.068-.037.163-.106.212-.068.048-.116.143-.106.211.01.068-.037.163-.105.212-.069.048-.116.143-.106.21.01.069-.037.164-.106.212-.068.049-.116.144-.106.212.01.068-.032.163-.094.212-.099.078-.096.084.028.05l.141-.037-.141.075a.63.63 0 0 0-.222.25c-.045.095-.058.158-.03.14.029-.017.053.011.053.064 0 .053-.034.083-.077.068-.042-.016-.113.05-.158.147-.044.097-.057.162-.029.144.029-.017.052.011.052.064 0 .053-.034.083-.076.067-.12-.044-.252.295-.155.4.058.064.058.074-.004.04-.049-.028-.126.04-.189.166-.12.241-.016.353.33.353.095 0 .192.047.214.105.022.059.108.106.191.106.113 0 .139-.03.105-.119-.043-.113-.038-.113.086 0 .107.096.276.12.887.12.522 0 .802.03.91.097.112.07.415.099 1.065.1.676.002.925.027.969.096.05.077.074.075.13-.012.047-.07.07-.076.071-.017 0 .066.274.087 1.129.087.925 0 1.127-.017 1.127-.1 0-.054.024-.11.053-.122.061-.027.301-.658.332-.87.011-.077.053-.134.093-.126.039.009.094-.07.12-.175.026-.105.079-.21.117-.233.038-.024.075-.155.082-.291.009-.166.043-.238.102-.215.053.02.088-.026.088-.115 0-.225.005-.24.154-.449.085-.119.12-.247.093-.334-.036-.112-.02-.13.078-.093.094.036.112.02.077-.071-.025-.066-.011-.118.031-.118.043 0 .06-.065.039-.147-.029-.109-.012-.136.065-.106.058.022.086.01.063-.028-.023-.037.014-.153.082-.256.143-.219.176-.34.168-.605-.004-.124.044-.218.136-.268.112-.06.133-.118.096-.267-.043-.173-.037-.182.071-.093.104.086.113.083.075-.017-.026-.066-.01-.116.036-.116.045 0 .072-.056.061-.124-.012-.072.018-.115.073-.104.051.011.076-.007.056-.04-.02-.033.024-.16.1-.283.074-.124.102-.224.061-.224-.041 0-.024-.05.037-.112.061-.061.093-.141.07-.178-.022-.037-.002-.058.045-.047.09.02.226-.35.164-.45-.02-.033-.008-.06.027-.06.098 0 .224-.326.192-.495-.026-.133-.015-.14.091-.06.066.051.098.066.07.033-.027-.033.003-.158.068-.28.064-.12.109-.247.1-.28-.009-.033.016-.1.055-.147.04-.048.049-.11.021-.14-.029-.028-.009-.041.045-.028.106.025.243-.34.17-.458-.023-.038-.008-.048.034-.022.042.026.096.015.121-.024.024-.04.002-.072-.049-.073-.066 0-.063-.02.014-.07.058-.037.078-.068.044-.069-.033 0-.026-.044.017-.096.043-.052.058-.115.032-.14-.025-.026.008-.047.074-.047.067 0 .116-.04.11-.088-.016-.135.085-.408.139-.374.027.016.053-.035.059-.115a.56.56 0 0 1 .131-.277c.066-.073.099-.133.073-.133-.027 0 .006-.103.073-.229.067-.126.124-.324.128-.44.004-.14.047-.219.127-.234.105-.02.165-.232.129-.455-.006-.03.038-.074.097-.096.058-.023.106-.081.106-.13 0-.05.049-.13.108-.18.059-.048.092-.104.073-.123-.019-.019-.005-.091.033-.16.044-.083.042-.135-.005-.15-.042-.014-.025-.083.041-.165.1-.122.109-.123.074-.013-.024.075-.012.109.03.084.039-.024.056-.122.039-.217s-.004-.156.03-.135c.103.064.187-.11.203-.423.005-.096.049-.176.099-.176s.096-.067.102-.149a.546.546 0 0 1 .121-.27c.061-.067.089-.141.064-.166-.025-.026-.009-.09.035-.142.044-.053.056-.12.028-.149-.029-.029-.006-.041.051-.029.066.015.114-.04.13-.152a.69.69 0 0 1 .112-.282c.047-.058.095-.233.105-.388.011-.155.053-.314.094-.352.051-.048.06-.044.028.012-.025.046-.006.107.043.135.049.028.068.028.042-.001-.067-.075.083-.472.16-.424.035.022.067-.042.072-.141.013-.273.022-.305.091-.369.038-.034.04-.015.006.047-.032.059-.031.082.002.052a.43.43 0 0 0 .084-.208.61.61 0 0 1 .127-.268c.057-.064.104-.218.104-.343 0-.135.029-.21.071-.184.074.046.099-.004.172-.338.024-.108.067-.182.097-.163.03.018.059-.032.065-.111a.625.625 0 0 1 .138-.293c.115-.135.115-.14.003-.054-.075.058-.123.066-.123.02 0-.042.047-.102.104-.134.057-.032.114-.128.127-.213a.433.433 0 0 1 .084-.21c.033-.03.034-.007.003.051-.035.063-.032.082.006.047.035-.032.066-.16.068-.282.003-.131.039-.216.087-.206.046.01.104-.07.13-.176.026-.106.08-.215.119-.24.04-.027.083-.122.097-.212a.406.406 0 0 1 .118-.235c.052-.039.088-.174.08-.3-.008-.14.03-.264.098-.318.102-.079.102-.073.007.054-.098.13-.097.134.018.045.067-.054.123-.146.123-.206s.055-.173.123-.25c.09-.103.094-.126.018-.084-.086.047-.089.04-.018-.037a.432.432 0 0 0 .089-.257c0-.09.023-.159.052-.154.142.023.167-.019.079-.128-.053-.065-.06-.097-.016-.07.049.029.099-.022.126-.131.027-.108.076-.16.124-.13.053.034.066 0 .04-.102-.022-.084-.011-.17.025-.192a.078.078 0 0 0 .023-.108c-.023-.037-.004-.058.043-.048.046.01.096-.057.112-.151a.702.702 0 0 1 .115-.276.48.48 0 0 0 .096-.234l.017-.236c.005-.058.048-.098.096-.088.047.01.098-.06.112-.156a.496.496 0 0 1 .143-.27c.064-.052.074-.074.023-.047-.103.053-.008-.15.199-.424.098-.13.097-.133-.019-.043-.109.084-.12.082-.081-.019.025-.064.073-.116.108-.116.034 0 .063-.043.063-.097 0-.053.048-.137.106-.185.059-.05.103-.125.098-.168-.025-.21.014-.4.075-.362.038.024.091-.046.118-.154a.605.605 0 0 1 .161-.285c.097-.078.094-.083-.03-.047-.132.038-.133.035-.017-.06.067-.056.123-.137.123-.18 0-.041.046-.102.102-.133.057-.032.11-.174.12-.316.01-.143.05-.253.089-.246.038.007.07-.09.07-.216 0-.207.046-.262.201-.238.028.005.049-.015.044-.044-.03-.19.021-.438.087-.423.043.01.091-.062.108-.159.016-.096.06-.186.097-.2.038-.012.069-.212.069-.444v-.42l-.279.028c-.155.016-.272-.002-.264-.04.018-.086-.185-.14-.561-.15-.161-.003-.28-.027-.265-.052.055-.088-.369-.206-.627-.174-.151.018-.244.004-.221-.033.036-.059-.061-.095-.197-.074-.029.005-.053-.023-.053-.062 0-.038-.111-.07-.247-.07s-.247-.033-.247-.072c0-.04-.079-.058-.176-.04-.097.018-.176 0-.176-.04 0-.043-.114-.06-.276-.041-.212.025-.267.01-.239-.064.02-.053.004-.096-.036-.096-.039 0-.088.04-.107.089-.027.066-.037.067-.041.002-.003-.048-.054-.068-.112-.046-.058.023-.105.003-.105-.045 0-.056-.083-.076-.239-.058-.185.022-.23.005-.2-.072.025-.065.003-.088-.061-.064-.055.02-.091.08-.081.133.011.053-.044.023-.121-.067-.089-.104-.199-.156-.301-.14-.088.012-.192-.016-.231-.064-.103-.128-.922-.214-.845-.09.041.067.026.082-.048.053a.247.247 0 0 0-.206.03c-.078.056-.073.063.024.03.068-.02.123-.008.123.03 0 .037-.047.068-.105.068a.118.118 0 0 0-.115.105c-.017.204-.027.236-.09.294-.038.035-.041.016-.007-.047.035-.063.032-.082-.006-.047-.035.033-.068.12-.073.194l-.018.236a.422.422 0 0 1-.119.211.557.557 0 0 0-.116.327c-.004.143-.026.184-.065.123-.032-.05-.063-.068-.068-.04a3.037 3.037 0 0 1-.028.124c-.01.039-.021.165-.027.28-.005.14-.038.197-.1.174-.058-.022-.094.024-.099.125-.012.263-.083.5-.165.55-.042.027-.079.148-.082.27-.005.157-.03.203-.087.155-.057-.047-.085-.001-.097.158-.01.123-.053.256-.096.296-.056.05-.062.04-.023-.034.04-.075.034-.085-.021-.036-.042.04-.085.188-.095.33-.01.143-.035.258-.056.256-.142-.013-.153.028-.035.125.117.095.119.106.014.073-.099-.031-.124.003-.124.172 0 .123-.044.229-.105.252-.058.022-.09.066-.071.096.018.03-.03.135-.107.232a.69.69 0 0 0-.14.353c0 .097-.04.191-.089.21-.085.033-.125.205-.147.627-.008.154-.028.173-.11.105-.083-.068-.092-.051-.054.102.036.145.013.2-.112.266-.086.046-.103.068-.037.05.082-.024.107-.003.08.068-.021.055-.072.08-.112.056-.047-.029-.061.022-.038.139.019.101.008.168-.025.147-.033-.02-.06-.002-.06.042 0 .043-.028.062-.061.041-.034-.021-.06.017-.058.084.007.243-.107.529-.171.428-.042-.065-.061-.033-.062.104 0 .11-.051.249-.112.31-.09.09-.093.122-.017.17.051.032.059.06.016.06-.041 0-.079.04-.083.09-.02.228-.071.364-.146.389-.045.015-.066.054-.046.086.02.033-.014.11-.075.17-.061.062-.078.112-.036.112.041 0 .075.03.075.068 0 .038-.044.052-.098.03-.075-.028-.096.025-.087.214.008.182-.016.246-.089.233-.068-.01-.111.066-.13.23-.016.136-.063.279-.105.317-.052.05-.058.041-.019-.028.038-.066.03-.082-.025-.049-.044.028-.081.14-.081.25 0 .109-.048.238-.107.286-.086.073-.09.11-.017.199.07.086.07.099.001.057-.063-.038-.089.009-.089.165 0 .12-.043.234-.097.255-.054.02-.117.133-.14.25-.024.116-.075.191-.114.167-.042-.027-.074.05-.077.189-.003.128-.022.193-.041.145-.02-.049-.083-.088-.14-.088-.057 0-.085-.03-.063-.065.048-.078-.101-.428-.182-.428-.032 0-.039-.05-.016-.11.023-.058-.018-.175-.09-.258-.09-.103-.099-.134-.026-.098.082.041.081.033-.007-.04-.061-.052-.098-.133-.082-.182.017-.048-.003-.088-.044-.088-.041 0-.056-.047-.034-.105.022-.058-.002-.122-.055-.142-.052-.02-.101-.122-.106-.225-.006-.104-.055-.223-.109-.264a.219.219 0 0 1-.072-.198c.014-.068-.024-.143-.085-.166-.066-.025-.111-.126-.111-.247 0-.146-.035-.204-.123-.205-.106 0-.109-.01-.018-.072.093-.062.093-.08-.006-.157-.062-.048-.098-.128-.081-.18.018-.052-.037-.11-.123-.132-.133-.035-.148-.074-.11-.279.034-.183.018-.248-.07-.282-.091-.034-.096-.056-.023-.1.072-.045.066-.068-.025-.102-.065-.025-.1-.09-.079-.145.021-.055.006-.1-.033-.1s-.055-.064-.035-.141c.025-.096.003-.141-.07-.141-.067 0-.095-.046-.075-.124.018-.068-.034-.195-.116-.283-.082-.087-.128-.192-.102-.233.025-.04-.013-.141-.085-.223-.09-.103-.098-.132-.024-.096.082.041.081.033-.007-.04-.061-.052-.098-.133-.082-.182.017-.048-.004-.088-.044-.088-.041 0-.058-.043-.037-.096.02-.054-.01-.115-.068-.137-.059-.023-.09-.096-.071-.168.018-.07-.018-.191-.081-.268-.063-.078-.094-.102-.07-.053.025.048.008.088-.039.088-.055 0-.068-.072-.04-.214.031-.154.013-.226-.062-.255-.059-.022-.104-.129-.104-.244 0-.112-.034-.203-.075-.203-.041 0-.054-.034-.029-.074.025-.04.015-.112-.023-.159a1.024 1.024 0 0 1-.119-.319c-.034-.161-.08-.222-.149-.196-.076.03-.09-.003-.059-.128.024-.092.007-.188-.035-.214-.043-.027-.059-.078-.037-.114.023-.036-.006-.085-.064-.107-.059-.022-.09-.082-.071-.133.02-.051.003-.113-.036-.138-.04-.024-.054-.09-.033-.148.024-.063-.002-.103-.067-.103-.07 0-.094-.046-.071-.134.025-.098 0-.132-.094-.124-.108.01-.13-.045-.136-.334-.005-.206-.048-.377-.107-.423a.43.43 0 0 1-.119-.252c-.011-.096-.063-.2-.117-.23-.053-.03-.082-.11-.065-.177.018-.068-.017-.187-.077-.265-.102-.132-.106-.132-.062-.005.035.097.023.12-.042.079-.051-.032-.074-.132-.054-.238a.44.44 0 0 0-.095-.349c-.071-.09-.114-.208-.094-.26.052-.134-.248-.319-.518-.319-.127 0-.234.024-.239.053zM33.675 25.04c-.01 3.033-.019.552-.019-5.515s.009-8.55.019-5.516c.01 3.034.01 7.997 0 11.03zM89.447 9.516c0 .077-.03.14-.065.14-.05 0-.056-.118-.011-.264.023-.076.076.01.076.124zm11.598 4.339c-.123.092-.098.1.283.096.285-.003.373-.023.277-.062-.102-.04-.058-.055.162-.051.28.004.29.011.14.092-.138.075-.091.085.345.073.277-.008.488.013.467.046-.02.033.038.05.13.036.104-.015.16.01.149.065-.01.048.019.088.064.088.046 0 .142.054.215.12.125.112.129.111.08-.018-.039-.102-.006-.087.127.056.099.106.2.172.225.146.026-.025.046-.015.046.022s.061.072.136.077c.128.01.413.238.441.355.027.109.318.288.449.276.077-.007.129.027.12.076-.01.049.029.088.088.088.072 0 .105.072.105.224 0 .122.018.205.04.183.052-.052.424.297.401.377-.01.034.013.062.05.062.038 0 .049.053.024.118-.033.086-.016.107.062.077.081-.031.103.001.088.133-.011.1.024.19.081.213.055.02.1.084.1.14 0 .057.03.084.067.061.075-.046.25.234.186.297-.022.023-.005.083.039.135.05.062.053.095.005.095-.095 0-.069.167.048.308.055.065.093.304.095.588.002.3.045.55.114.672.101.176.101.212 0 .388-.067.117-.114.385-.121.675-.006.297-.047.517-.105.576-.055.054-.088.21-.077.363.017.262-.112.562-.204.47-.026-.025-.047.003-.047.064a.17.17 0 0 1-.1.148c-.057.022-.092.113-.081.213.014.123-.009.164-.077.137-.065-.024-.082 0-.052.077.024.063.008.114-.035.114-.043 0-.07.028-.06.062.023.08-.349.43-.401.377-.022-.022-.04.06-.04.184 0 .151-.033.223-.105.223-.058 0-.098.04-.088.088.009.05-.037.079-.108.067-.12-.02-.434.174-.461.285-.038.152-.326.392-.444.369-.073-.014-.133.006-.133.045s-.032.05-.07.027c-.039-.024-.071.01-.071.078 0 .067-.02.1-.046.075-.025-.024-.088.01-.141.077-.088.113-.091.112-.047-.019l.047-.14-.171.14c-.094.078-.191.17-.216.205-.053.072-.327.107-.906.117-.348.006-.371.015-.227.093.15.08.14.087-.14.091-.22.004-.264-.01-.162-.051.096-.039.005-.058-.282-.06-.256-.003-.385.019-.328.055.075.048.072.068-.018.102-.061.024-.112.01-.112-.03s-.033-.051-.073-.026c-.041.025-.154-.008-.252-.072a.626.626 0 0 0-.425-.084c-.2.027-.239.014-.205-.075.034-.087.023-.092-.06-.024-.08.067-.115.06-.168-.036-.044-.077-.112-.104-.189-.074-.085.032-.132.004-.158-.095-.02-.078-.093-.141-.16-.141a.317.317 0 0 1-.212-.105c-.048-.058-.115-.088-.15-.067-.035.022-.082-.01-.105-.07-.024-.06-.071-.092-.106-.071-.034.021-.063.002-.063-.043 0-.046-.045-.065-.1-.044-.11.042-.28-.114-.205-.189.042-.041-.077-.074-.203-.055-.028.004-.032-.04-.01-.098.03-.076.008-.094-.076-.061-.064.024-.111.017-.105-.017.028-.153-.013-.23-.104-.195a.13.13 0 0 1-.152-.049c-.034-.055-.024-.068.027-.036.052.032.066.011.039-.06-.023-.06-.07-.09-.105-.07-.035.022-.063-.002-.063-.053 0-.052-.08-.154-.18-.228-.098-.074-.162-.176-.143-.227.02-.052.002-.086-.04-.077-.042.01-.087-.045-.1-.122a.391.391 0 0 0-.131-.218c-.06-.044-.092-.096-.071-.117.048-.048-.248-.619-.321-.619-.031 0-.076-.052-.1-.115-.04-.101-.029-.104.08-.02.069.053.046.005-.051-.107-.097-.111-.132-.177-.077-.145.078.045.088.022.047-.112a1.694 1.694 0 0 1-.058-.251c-.003-.045-.04-.069-.083-.053-.124.048-.09-2.188.037-2.348.09-.116.088-.118-.029-.026-.11.086-.124.086-.105 0 .011-.055.08-.124.15-.153.101-.041.122-.107.096-.3-.018-.136 0-.268.04-.293.046-.028.054-.007.023.054-.029.054-.002.038.058-.036a.36.36 0 0 0 .069-.294c-.028-.113 0-.18.101-.234.1-.054.13-.12.1-.23-.031-.121-.015-.144.078-.108.106.04.15-.023.125-.18-.005-.03.035-.053.09-.053.053 0 .113-.063.134-.14.02-.078.006-.142-.032-.142-.037 0-.047-.034-.021-.075.026-.042.092-.058.149-.036.057.022.083.008.059-.03-.024-.04-.008-.07.035-.07.044 0 .061-.03.039-.066-.023-.036-.009-.085.03-.11.04-.024.073-.011.073.028 0 .04.11-.039.246-.174.136-.136.247-.278.247-.315 0-.037.042-.068.094-.068.051 0 .136-.08.188-.176.052-.097.123-.177.157-.177s.043.032.02.071c-.072.115.009.08.114-.049.055-.068.06-.098.013-.069-.045.027-.1.022-.12-.011-.02-.033.047-.056.15-.05a.478.478 0 0 0 .317-.12c.071-.071.165-.107.208-.08.045.027.06.017.034-.025-.075-.12.123-.229.363-.199.123.016.224-.003.224-.04 0-.039.032-.05.07-.027.04.024.07.01.07-.03 0-.042.104-.076.23-.077.161 0 .2-.019.13-.063-.074-.047-.056-.064.071-.069.317-.01.486-.038.486-.078 0-.022.072-.045.159-.051.154-.01.155-.008.021.09zM53.552 26.49c-.01 1.77-.02.302-.02-3.265s.01-5.015.02-3.22c.01 1.797.01 4.715 0 6.485zm81.906-6.248c.064.064.125.061.261-.012.149-.08.206-.08.355 0 .137.073.197.076.261.012.116-.116.2-.104.151.022-.033.086.024.1.313.083.277-.017.374.006.446.107.101.14.243.18.16.045-.028-.045.032-.022.134.053.102.075.187.16.188.189.001.028.048.052.103.052.055 0 .151.05.211.111.064.064.111.077.111.031 0-.044.033-.06.073-.035.039.025.063.097.052.161-.011.064.028.119.087.121.058.003.097.046.086.096-.011.05.009.072.045.05.035-.022.107.014.16.079.083.102.081.11-.01.057-.062-.036-.048.006.036.105.077.09.097.14.043.107-.067-.039-.086-.026-.061.041.019.054.073.09.12.08.046-.012.065.012.04.052-.025.04-.016.072.019.072.036 0 .052.126.036.281-.022.223-.007.273.074.242.056-.022.121-.008.144.029.023.037-.005.086-.063.108-.128.05-.143.473-.021.595.066.066.056.084-.044.084s-.12.04-.092.188c.04.209-.059.564-.205.734-.053.062-.073.136-.043.165.029.029.005.042-.053.03-.058-.014-.099.012-.091.056.024.129-.322.463-.42.406-.049-.028-.066-.026-.039.003.068.077-.101.24-.207.2-.049-.02-.089-.002-.089.038 0 .073-.268.195-.37.168-.029-.008-.045.024-.035.07a.081.081 0 0 1-.07.098c-.049.006-.112.02-.142.028a.775.775 0 0 1-.204.005c-.084-.007-.173.021-.198.062-.026.042-.078.075-.117.075-.038 0-.051-.031-.027-.07.024-.039-.006-.07-.066-.07-.061 0-.11.033-.11.074 0 .04-.035.053-.077.027-.043-.026-.156-.006-.251.045-.137.073-.203.075-.31.009a.537.537 0 0 0-.189-.084c-.03 0-.007.032.052.07.086.055.076.068-.049.069-.177 0-.277-.11-.146-.164.052-.02.036-.038-.039-.041a.644.644 0 0 0-.273.072c-.106.056-.132.056-.097 0 .033-.054-.027-.067-.192-.04-.176.028-.267.005-.339-.084-.087-.107-.084-.116.028-.073.081.03.11.02.081-.027-.025-.041-.09-.058-.144-.037-.054.02-.154-.02-.222-.091a.767.767 0 0 0-.321-.176c-.108-.026-.179-.075-.158-.11.021-.033-.03-.043-.114-.021-.084.022-.134.01-.113-.024.05-.082-.126-.248-.194-.183-.029.026-.031-.02-.005-.103a.256.256 0 0 0-.062-.26.377.377 0 0 1-.108-.222c0-.064-.028-.098-.063-.077-.034.021-.109-.103-.165-.275-.058-.173-.077-.297-.044-.277.033.02.06-.012.06-.07 0-.074-.039-.094-.123-.062-.106.04-.11.03-.032-.066.07-.088.072-.125.007-.166-.057-.035-.066-.022-.028.04.036.06.029.075-.019.046-.049-.03-.055-.12-.018-.253.033-.113.038-.228.013-.257-.026-.028-.009-.03.036-.004.113.064.163-.13.139-.54-.011-.186.006-.355.038-.374.032-.02.058.003.058.05 0 .215.135-.083.157-.345.004-.05.049-.075.1-.055.051.02.09.013.086-.015-.021-.14.017-.23.08-.19.039.023.101-.03.137-.12.036-.09.067-.14.069-.11.003.028.069-.004.148-.072.079-.067.166-.12.194-.118.028.002.11-.051.182-.118.072-.068.175-.105.229-.085.065.025.098-.014.098-.116 0-.135.027-.149.211-.108.149.033.212.02.212-.044 0-.07.018-.071.084-.005.105.104.339.111.339.01 0-.041-.037-.052-.081-.024-.051.03-.063.019-.032-.032.064-.103.133-.103.238.002zm-119.713 3.88c-.02.03-.174.055-.343.055-.17 0-.325-.025-.344-.056-.018-.03.136-.055.344-.055.207 0 .361.025.343.055zm-3.092 6.398c0 .05-.056.1-.124.11-.068.01-.105-.01-.083-.047a.077.077 0 0 1 .106-.025c.036.023.065.01.065-.028s-.032-.085-.072-.104c-.04-.02-.032-.028.018-.018.05.01.09.06.09.111zm5.744-.066c0 .041-.031.055-.07.03-.039-.023-.07-.011-.07.026 0 .038.039.085.087.105.056.022.046.037-.027.04-.12.006-.225-.159-.15-.234.07-.07.23-.047.23.033zm51.243 6.334c0 .035-.02.115-.042.176-.024.061-.015.111.02.111.034 0 .069-.079.077-.176.008-.097-.001-.176-.02-.176-.02 0-.035.029-.035.065zm1.903.745c-.071.087-.068.106.02.106a.172.172 0 0 0 .147-.106c.022-.058.014-.105-.02-.105-.032 0-.098.047-.147.105z" fill="#fff"/></svg>