<svg width="197" height="51" fill="none" xmlns="http://www.w3.org/2000/svg"><path d="m72.852 26.641 1.728-.756-.108-10.424-.162-10.37-1.458-.162c-.864-.108-1.512-.432-1.512-.702 0-.27 4.158-.486 9.992-.486h9.992v3.51c0 1.999-.216 3.511-.54 3.511-.27 0-.54-.486-.54-1.026 0-.594-.595-1.729-1.297-2.539-1.08-1.296-1.728-1.512-4.86-1.728l-3.566-.216v9.938l1.513-.378c1.998-.486 3.24-1.729 3.834-3.727.379-1.242.487-.054.54 4.537 0 5.887-.053 6.103-.756 4.159-.81-2.323-.702-2.16-2.268-3.025-2.593-1.35-2.863-.972-2.863 4.267v4.861l1.783.756c1.62.702 1.296.756-4.753.756-6.103 0-6.373-.054-4.7-.756zM98.777 26.641l1.729-.756-.108-10.37c-.163-9.938-.217-10.424-1.243-10.586-.594-.108-1.296-.432-1.62-.702-.324-.324 3.349-.432 9.452-.378l9.992.162.162 3.402c.162 3.727-.378 4.321-1.458 1.459-.865-2.377-2.917-3.511-6.536-3.511h-2.7v4.59c0 4.484.054 4.592 1.296 4.592 1.512 0 2.214-.756 3.241-3.565.756-2.052.81-1.836.81 4.375-.054 5.185-.162 6.157-.594 4.86-.756-2.16-2.539-4.05-3.781-4.05-.918 0-1.026.432-.864 4.753l.162 4.699h3.618c3.241 0 3.781-.162 5.294-1.62.918-.864 1.782-2.16 1.944-2.809.216-.702.54-1.242.864-1.242.27 0 .378.432.216.972a40.835 40.835 0 0 0-.594 3.78l-.378 2.81-10.316-.055c-9.506-.054-10.208-.108-8.588-.81zM126.863 26.641l1.728-.756-.108-10.37c-.162-9.938-.216-10.424-1.242-10.586-.594-.108-1.297-.432-1.621-.702-.27-.27 2.053-.486 5.834-.486 3.564 0 6.319.216 6.319.486s-.648.594-1.459.702l-1.512.162v20.524l3.403.162c4.321.216 5.725-.594 7.399-4.375 1.189-2.592 1.297-2.646 1.297-1.188.054.918-.108 2.917-.27 4.483l-.379 2.808-10.586-.054c-9.668-.054-10.424-.108-8.803-.81zM154.948 26.641l1.728-.756-.108-10.37c-.162-9.938-.216-10.424-1.242-10.586-.594-.108-1.296-.432-1.62-.702-.27-.27 2.106-.486 5.941-.486s6.211.216 5.941.486c-.324.27-1.026.594-1.62.702-1.026.162-1.08.648-1.242 10.586l-.108 10.37 1.728.756c1.674.702 1.404.756-4.699.756s-6.373-.054-4.699-.756zM171.259 26.965c0-.27.486-.54 1.026-.54.973 0 4.969-3.943 7.94-7.885l1.35-1.729-4.104-5.995c-2.269-3.295-4.483-5.995-4.915-5.995-.433 0-.757-.216-.757-.54 0-.324 2.269-.54 5.672-.54 3.402 0 5.671.216 5.671.54 0 .324-.324.54-.757.54-1.62 0-1.404 1.134.757 4.32l2.214 3.241 1.242-1.458c3.403-4.159 3.727-5.347 1.675-6.103-.756-.27-1.351-.648-1.351-.81 0-.162 1.945-.27 4.321-.27 2.539 0 4.321.216 4.321.54 0 .324-.486.54-1.08.54-.918 0-7.184 6.697-7.94 8.48-.324.864 6.968 11.612 8.858 13.016l1.512 1.134-6.103.054c-3.943 0-5.995-.216-5.779-.54.162-.27.702-.54 1.134-.54 1.296 0 .864-1.566-1.512-4.969l-2.214-3.348-1.891 2.16c-2.7 3.133-3.511 4.429-3.133 5.347.163.432.757.81 1.351.81s1.242.27 1.404.54c.216.324-1.35.54-4.267.54-2.754 0-4.645-.216-4.645-.54zM57.837 26.371c0-19.228.162-24.305.702-24.143.486.216.702 5.671.81 24.36.109 21.225 0 24.142-.702 24.142s-.81-2.97-.81-24.359zM75.93 48.57c-2.16-.865-4.158-3.62-4.428-6.05-.702-6.103 4.645-10.262 10.964-8.533 2.106.594 2.538.594 2.97-.054.325-.486.487.27.487 2.214v2.97l-1.08-1.728c-2.917-4.807-8.534-3.51-9.398 2.16-.378 2.323.216 5.726 1.188 7.238.594.972 3.349 1.837 4.483 1.513 1.458-.487 1.512-4.915.108-5.293-.54-.163.702-.27 2.754-.325 3.133-.054 3.619.054 2.863.648-.486.325-.918 1.62-1.026 2.81-.108 1.727-.378 2.16-1.513 2.484-1.89.54-7.075.486-8.371-.054zM94.024 48.786c0-.217.379-.649.81-.973.379-.324 2.107-3.618 3.781-7.345a381.268 381.268 0 0 1 3.187-6.914c.108-.053 1.458 2.863 3.025 6.482 1.62 3.673 3.402 7.183 3.996 7.885l1.027 1.189h-3.673c-3.133 0-3.565-.108-2.755-.703 1.405-1.026.324-3.402-1.674-3.672-2.593-.378-3.997.054-4.645 1.512-.486 1.134-.432 1.458.432 2.106.918.703.81.757-1.242.757-1.242 0-2.269-.162-2.269-.324zm7.724-7.238c-.486-1.188-1.026-2.16-1.242-2.16-.324 0-2.16 3.456-2.16 4.05 0 .162.971.27 2.106.27h2.106l-.81-2.16zM116.979 48.245c.918-.702 1.08-1.566 1.296-6.967.162-6.103.162-6.211-1.08-6.697-1.026-.432-.648-.54 1.945-.54l3.24-.054 1.891 4.59c1.026 2.539 1.998 4.592 2.16 4.592.162 0 1.08-2.053 2.106-4.591l1.837-4.591 3.294.054c1.837.054 2.755.216 2.107.324-1.188.216-1.242.432-1.242 6.967 0 6.481.054 6.751 1.242 7.237.864.325.108.487-2.863.487-3.024 0-3.78-.108-3.078-.54.81-.487.918-1.405.918-6.59l-.054-6.049-2.593 6.103c-1.458 3.349-2.808 6.157-3.078 6.212-.216.053-1.567-2.485-2.917-5.672-1.404-3.186-2.7-5.995-2.916-6.21-.27-.271-.325 2.213-.216 5.454.162 4.97.324 5.941 1.242 6.59.918.702.756.756-1.675.756-2.484-.054-2.592-.108-1.566-.864zM144.146 48.245c1.135-.756 1.189-1.242 1.189-7.02 0-5.942-.054-6.212-1.189-6.698-.918-.324-.108-.486 2.809-.432 2.214 0 3.619.108 3.133.27-1.243.324-1.675 2.862-1.459 8.533.162 3.89.378 4.807 1.243 5.455.972.703.648.757-2.917.757-3.781 0-3.943-.054-2.809-.864zM158.405 48.353c.756-.54.918-1.728 1.026-6.805.054-5.347-.054-6.211-.918-6.86-.864-.593-.648-.701 1.782-.701h2.755l3.294 4.32c1.837 2.377 3.457 4.321 3.619 4.321.108 0 .216-1.728.216-3.78 0-3.457-.108-3.89-1.188-4.321-.972-.378-.648-.486 1.458-.432 1.513 0 2.269.108 1.783.27-.865.216-.973 1.026-.973 7.183 0 3.835-.216 7.075-.432 7.238-.216.162-2.592-2.43-5.293-5.726l-4.807-6.049-.162 5.131c-.162 4.645-.054 5.131 1.027 6.05 1.134.918 1.08.918-1.459.918-2.268-.054-2.538-.108-1.728-.757zM183.628 47.867c-7.832-5.185-1.404-16.851 7.615-13.88 1.729.594 2.269.594 2.971 0 .702-.595.81-.324.81 2.106v2.809l-2.052-2.215c-2.593-2.7-5.077-2.97-7.184-.756-1.134 1.242-1.296 1.89-1.296 5.671 0 5.51 1.026 6.698 5.563 6.481 1.026-.054 1.188-.378 1.188-2.214 0-1.458-.324-2.269-.918-2.647-.756-.432 0-.54 2.809-.54 2.106.054 3.348.162 2.862.324-.648.163-.972.919-1.08 2.485-.216 2.809-1.566 3.619-6.157 3.619-2.539 0-3.727-.27-5.131-1.243z" fill="#fff"/><path d="M59.025 26.857c-.054-18.687-.27-24.143-.81-24.359-.486-.216-.486-.324.054-.324.378-.054.81.27.919.648.161.325.215 11.343.161 24.413L59.188 51l-.163-24.143zM12.321 48.764c-.624-.623-.182-4.236.884-7.484.364-1.066 2.183-4.808 4.054-8.316 2.963-5.51 3.43-6.55 3.534-7.823.104-1.533-.415-3.014-1.429-3.924-.806-.728-4.08-2.131-8.524-3.612-2.287-.78-4.184-1.404-4.236-1.43-.026-.026.65-1.17 1.533-2.599 2.001-3.17 3.794-6.964 4.912-10.369.468-1.43.883-2.65.935-2.703.052-.052.832.364 1.716.936 4.262 2.729 7.016 4.028 11.85 5.64 1.17.39 2.131.753 2.131.805 0 .078-.623 1.092-1.403 2.287-2.08 3.248-4.262 7.718-4.678 9.668-.156.753-.156.753.234.26.234-.286 1.56-2.443 2.989-4.808 1.403-2.365 2.988-4.73 3.534-5.276.832-.858 3.093-2.26 3.612-2.26.104 0 .13.44.078.96-.078.832-.182.988-.727 1.066-.364.052-1.014.26-1.482.494-.91.494-1.117 1.17-.805 2.677.337 1.585.26 2.858-.182 2.858-.312 0-.39.494-.39 2.833 0 1.534.078 3.353.156 4.028.156 1.118.234 1.196.91 1.196.415 0 .753.078.753.208 0 .104.364.337.78.52.597.285.78.52.78 1.117 0 .468-.105.702-.313.624-.597-.182-6.549-1.898-7.536-2.157-.546-.156-.988-.182-.988-.078s1.352.987 2.989 1.975c2.833 1.715 2.989 1.845 2.989 2.65 0 .468-.104.858-.26.858a.28.28 0 0 0-.26.26c0 .156.286.26.65.26.571 0 .65.104.65.91 0 .805-.079.91-.65.91h-.65v3.274c0 4.184.26 4.782 2.131 4.782h1.247v.91c0 .623-.13.987-.441 1.09-.416.157-2.365-.181-3.249-.545-.338-.156-.52 0-.806.675-.78 1.846-2.702 3.067-4.781 3.067-2.495-.026-4.496-1.56-5.51-4.288-.857-2.26-.728-4.314.494-8.68.572-2.027 1.04-3.768 1.013-3.872 0-.26-.805 1.715-2.754 6.835-1.95 5.171-2.6 7.666-2.833 10.993-.156 1.949-.286 2.469-.65 2.65-.623.364-1.637.312-2-.052z" fill="#fff"/><path d="M7.15 35.017c-.91-.572-1.898-2.365-1.898-3.43 0-.39.182-1.144.39-1.664.208-.52.338-.987.26-1.065-.26-.286-1.715 1.637-2.131 2.832-.26.702-.52 1.274-.598 1.274-.13 0-.805-1.768-2.573-6.757-.078-.234.156-.156.65.234 1.04.831 2.34 1.325 3.43 1.325h.91l-.883-.598c-2.755-1.845-2.755-5.275 0-7.12 1.04-.702 2.78-.806 3.898-.208.883.441 2.105 1.845 2.105 2.39 0 .338.078.338.65-.026l.65-.415v1.17c0 .987-.079 1.169-.52 1.169-.468 0-.52.182-.52 1.429 0 1.403 0 1.43.78 1.43.701 0 .779.077.779.779 0 .754.026.78 1.3.78 1.09 0 1.299.078 1.299.493 0 .52-.468.806-1.3.806-.415 0-.467.156-.337.91.13.78.078.91-.364.91-.416 0-.572-.26-.78-1.352l-.26-1.377-.052 1.87c0 1.014-.13 1.95-.286 2.028-.13.078-.26.39-.26.675 0 .26.13.494.26.494.546 0 .234.962-.39 1.248-1.039.467-3.248.338-4.21-.234zM32.124 30.26c-.078-.207-.104-.675-.052-1.065l.078-.675 1.248.78c.675.441 1.221.909 1.221 1.065 0 .416-2.339.312-2.495-.104zM34.437 26.545c-.182-.052-.338-.338-.338-.624 0-.39.182-.494.91-.494.806 0 .91.078.91.65 0 .493-.13.65-.572.623-.338 0-.754-.078-.91-.155zM25.523 44.814a.41.41 0 0 1 .416-.416c.442 0 .364.572-.104.728-.182.052-.312-.078-.312-.312zM26.9 44.217c-.545-.208-.39-.494.312-.546.364-.026.65.052.65.182 0 .286-.546.493-.962.364zM28.642 42.813c0-.208-.286-.234-.936-.13-.805.156-.91.13-.831-.286.051-.26.311-.493.597-.52.65-.103 1.871.806 1.455 1.066-.155.104-.285.052-.285-.13z" fill="#fff"/><path d="M31.267 41.774c-.39-.156-.546-.39-.442-.624.078-.234-.026-.39-.26-.39-.286 0-.364.13-.26.442.13.338 0 .286-.468-.156-.52-.494-.831-.598-1.585-.468-.65.104-.91.052-.91-.208 0-.701 1.794-.91 2.443-.26.572.572.754.468.312-.181-.338-.468-.416-1.456-.416-5.25 0-4.132-.052-4.678-.441-4.99-.26-.182-.364-.416-.26-.52.104-.13.312-.052.442.156.207.338.26.338.26-.026 0-.234-.182-.571-.39-.753-.468-.39-.52-1.56-.052-1.56.442.026 4.288 2.34 3.872 2.34-.182 0-.26.13-.182.26.104.155.39.26.676.207.727-.104 2.806 2.027 3.56 3.69.91 1.976.936 4.133.052 5.718-.832 1.455-2.365 2.547-3.898 2.703-.65.078-.962.078-.702 0 .624-.208.572-1.144-.052-1.144-.52 0-.91.65-.65 1.066.156.285.156.285-.65-.052zM8.63 35.329c0-.364 1.04-.52 1.716-.286.935.364.754.52-.546.52-.65 0-1.17-.105-1.17-.234zM11.048 34.887c-.182-.182-.338-.416-.338-.494 0-.104-.416-.572-.936-1.066-.805-.727-.883-.91-.52-1.04.26-.103.572-.051.754.13.208.209.39.183.728-.13.598-.545.364-1.142-.442-1.142-.442 0-.624-.157-.624-.52 0-.286.104-.52.234-.52.156 0 .156-.312.026-.754-.182-.623-.13-.805.208-.883.39-.104.39-.13 0-.156-.494-.026-.65-.936-.208-1.196.156-.078.26-.961.26-1.923 0-1.43-.104-1.845-.52-2.235-.675-.598-.65-.831.052-1.065.39-.104.65-.026.91.285.312.468.364.468.858 0 .363-.311 1.065-.52 2.027-.597 1.221-.078 1.637 0 2.365.52 2.027 1.377 2.65 3.612 1.533 5.535-.598 1.066-2.833 2.495-3.015 1.95-.052-.13-.364-.26-.727-.26-.52 0-.572.077-.39.597.415 1.092.208 3.119-.442 4.028-.78 1.092-1.377 1.404-1.793.936zm.182-4.938c0-.442-.572-.364-.728.104-.052.182.078.312.312.312a.41.41 0 0 0 .416-.416zm.234-1.767c.26-.312.207-.338-.208-.234-.312.078-.546.234-.546.364 0 .364.416.286.754-.13zM8.37 34.03c0-.13.183-.287.39-.39.235-.079.39 0 .39.233a.4.4 0 0 1-.39.39c-.207 0-.39-.104-.39-.234zM35.788 26.805c-.285-.078-.597-.26-.701-.442-.156-.208-.208-.208-.208.026 0 .364-1.56-.026-1.845-.468-.13-.208-.208-.182-.312.052-.104.26-.156.234-.156-.078-.026-.598-.546-.884-.832-.442-.208.312-.286.312-.493-.026-.182-.286-.26-.286-.26-.052 0 .182-.104.26-.26.182-.442-.26-.286-.598.338-.728.39-.078.311-.13-.312-.156-.65-.026-.832.052-.728.364.13.312.052.312-.468.078-.363-.156-.65-.39-.65-.494 0-.104-.077-.415-.181-.675-.156-.39-.13-.416.234-.13.727.598.857-.182.78-4.47-.053-2.989-.157-4.054-.39-4.054-.183 0-.468-.338-.624-.78-.364-.936-.78-1.014-1.014-.156-.078.364-.39.832-.65 1.092-.311.26-.052-.39.624-1.612.624-1.117 1.248-2 1.352-1.923.104.078.207.598.233 1.196.026.935.754 2.183 1.066 1.87.286-.285-.234-2.026-.572-2.026-.26 0-.338-.156-.26-.442.546-1.715.988-2.52 1.742-3.197.935-.831 1.169-.935 1.429-.52.234.39.65.053.494-.363-.338-.858 3.3-1.248 5.041-.52 2.105.858 3.249 2.573 3.249 4.86 0 .805.078 1.481.156 1.481.312 0 1.325-1.845 1.793-3.3l.52-1.508.312.78c.156.442.857 2.235 1.585 4.054.702 1.793 1.273 3.3 1.273 3.379 0 .078-.78-.234-1.715-.728-.961-.468-2.053-.858-2.469-.858h-.753l1.013 1.014c2.807 2.807 1.69 7.277-2.235 9.018-1.351.598-4.158.987-5.145.701zM27.082 26.363c0-.208.104-.442.234-.52.286-.182.858.468.624.702-.312.311-.858.181-.858-.182zM26.875 23.634c-.286-.156-.26-.234.078-.39.727-.26 1.48-.182 1.377.182-.156.39-.988.52-1.455.208zM28.2 8.873c-.676-.078-.78-.182-.546-.442.39-.416 1.508-.208 1.508.26 0 .208-.026.338-.052.312-.052 0-.468-.078-.91-.13zM27.992 7.755c-.078-.13.078-.26.39-.26s.468.13.39.26a.49.49 0 0 1-.39.26.49.49 0 0 1-.39-.26zM57.837 2.12h1.62v48.61h-1.62z" fill="#fff"/></svg>