<svg width="131" height="50" fill="none" xmlns="http://www.w3.org/2000/svg"><path d="m15.047 35.474 7.394-10.213-7.512-10.664h4.905l5.213 7.038.024.024 5.142-7.11h1.351l7.63-10.355A25.228 25.228 0 0 0 25.214 0C11.28 0 0 11.185 0 25c0 8.033 3.839 15.19 9.787 19.763l6.398-9.29h-1.138zm-1.587-1.659H8.412a.102.102 0 0 1-.094-.095V18.507c0-1.208-.45-1.588-2.939-1.611a.102.102 0 0 1-.095-.095v-1.754c0-.047.048-.094.095-.094h4.266c2.867 0 3.933 1.35 3.933 3.933V33.72c-.023.048-.047.095-.118.095z" fill="#008C47"/><path d="m41.043 5.545-6.588 9.005h1.28l-7.37 10.213 7.417 10.664h-5.047l-5.166-6.872-5 6.919h-1.422l-7.275 10.735A25.26 25.26 0 0 0 25.213 50c13.934 0 25.214-11.185 25.214-25 0-7.867-3.673-14.882-9.384-19.455zm6.493 28.27-11.375.095c0-1.327-.047-2.275 0-5.474 0-.474.593-1.422 1.185-2.014 2.322-2.275 6.043-4.337 6.043-5.853V18.72c-.024-.9-.214-1.682-1.327-1.682-1.967.024-1.517 1.28-1.517 2.725a.18.18 0 0 1-.047.095l-4.147 3.08c-.071.048-.166 0-.166-.094-.047-1.588-.26-3.413-.047-4.432.426-2.227 2.37-3.649 5.853-3.625 3.933.023 5.379 1.54 5.568 2.583.285 1.493.285 2.938.048 3.98-.285 1.304-1.849 2.75-4.36 4.811-1.446 1.185-2.489 2.275-2.512 2.773-.024.663 0 1.753.023 2.085 0 .047.048.095.119.095h6.659c.07 0 .118.047.118.118v2.465c0 .07-.047.118-.118.118z" fill="#D8D8D8"/><path d="M67.062 16.043V27.7c0 1.73-.616 3.152-1.872 4.266-1.256 1.114-2.844 1.682-4.81 1.682-1.47 0-2.963-.308-4.432-.948v-3.365c1.446.83 2.796 1.233 4.052 1.233.924 0 1.659-.261 2.251-.759.593-.497.877-1.137.877-1.92v-.45c-.924.617-1.872.948-2.843.948-1.612 0-2.915-.592-3.934-1.777-1.02-1.185-1.54-2.701-1.54-4.55 0-1.848.52-3.364 1.54-4.55 1.019-1.184 2.322-1.776 3.934-1.776.971 0 1.919.308 2.843.947v-.64h3.934zm-8.2 6.018c0 .877.214 1.564.664 2.11.45.544 1.02.829 1.73.829.663 0 1.303-.285 1.896-.853v-4.194c-.593-.57-1.233-.854-1.896-.854-.71 0-1.28.261-1.73.806-.45.569-.663 1.28-.663 2.156zm16.114 6.02v-.759c-1.019.687-2.109 1.043-3.222 1.043-1.138 0-2.062-.356-2.797-1.043-.734-.687-1.09-1.564-1.09-2.654 0-1.28.545-2.322 1.635-3.128 1.09-.805 2.489-1.208 4.219-1.208.19 0 .616.023 1.255.047v-.213c0-.427-.19-.782-.545-1.043-.355-.26-.829-.403-1.374-.403-1.35 0-2.725.403-4.147 1.233v-3.176c1.517-.687 3.057-1.043 4.62-1.043 1.565 0 2.797.427 3.745 1.304s1.398 2.014 1.398 3.388v7.655h-3.697zm-3.246-4.005c0 .379.118.687.38.948.26.237.591.355 1.018.355.616 0 1.256-.284 1.848-.877v-1.848c-.474-.024-.829-.047-1.066-.047-.663 0-1.185.142-1.588.402-.403.285-.592.64-.592 1.067zm8.46 4.005V16.043h3.933v.758c.924-.687 1.99-1.043 3.2-1.043 1.469 0 2.582.569 3.364 1.73 1.162-1.161 2.489-1.73 3.934-1.73 1.232 0 2.204.403 2.962 1.209.758.805 1.138 1.872 1.138 3.175v7.939h-3.91v-7.323c0-.45-.143-.83-.427-1.114-.284-.308-.64-.45-1.066-.45-.664 0-1.304.308-1.896.924v7.963h-3.934v-7.323c0-.474-.142-.853-.403-1.137-.284-.285-.616-.427-1.066-.427-.663 0-1.303.308-1.896.924v7.963H80.19zm20.023 0V16.043h3.934V28.08h-3.934zm5.474 0V16.043h3.934v.853c1.043-.759 2.156-1.138 3.294-1.138 1.279 0 2.298.403 3.128 1.232.805.83 1.208 1.896 1.208 3.2v7.89h-3.933V20.9c0-.497-.166-.9-.474-1.232-.308-.332-.711-.474-1.185-.474-.735 0-1.398.332-2.038.972v7.915h-3.934zm24.526-12.038V27.7c0 1.73-.616 3.152-1.872 4.266-1.256 1.114-2.843 1.682-4.81 1.682-1.469 0-2.962-.308-4.431-.948v-3.365c1.445.83 2.796 1.233 4.052 1.233.924 0 1.659-.261 2.251-.759.592-.497.877-1.137.877-1.92v-.45c-.924.617-1.872.948-2.844.948-1.611 0-2.915-.592-3.934-1.777-1.018-1.185-1.54-2.701-1.54-4.55 0-1.848.522-3.364 1.54-4.55 1.019-1.184 2.323-1.776 3.934-1.776.972 0 1.92.308 2.844.947v-.64h3.933zm-8.222 6.018c0 .877.213 1.564.663 2.11.45.544 1.019.829 1.73.829.664 0 1.303-.285 1.896-.853v-4.194c-.593-.57-1.232-.854-1.896-.854-.711 0-1.28.261-1.73.806-.45.569-.663 1.28-.663 2.156zM100.024 12.82c0-.64.189-1.161.592-1.564.403-.403.925-.592 1.564-.592.616 0 1.138.189 1.541.592.402.403.592.924.592 1.54s-.213 1.114-.616 1.517c-.403.403-.924.592-1.54.592-.64 0-1.162-.19-1.564-.592-.38-.38-.569-.877-.569-1.493z" fill="#fff"/></svg>