<svg width="204" height="40" viewBox="0 0 204 40" fill="none" xmlns="http://www.w3.org/2000/svg">
<path d="M54.195 28.6884C53.6072 28.4885 53.1899 28.0183 53.0605 27.4246C53.0135 27.213 53.0018 24.9794 53.0135 19.8069L53.0312 12.4889L53.1957 12.1538C53.3838 11.7777 53.666 11.5014 54.0539 11.3192C54.3243 11.1957 54.3419 11.1957 60.7606 11.1957H67.1969L67.6495 11.3486C68.3783 11.6013 68.8486 11.8952 69.4011 12.4536C69.9536 13.012 70.2358 13.4764 70.4709 14.2229C70.6061 14.6519 70.6061 14.7107 70.6061 17.0443C70.6061 19.3778 70.6061 19.4366 70.4709 19.8656C70.2358 20.6121 69.9536 21.0765 69.4011 21.6349C68.8486 22.1933 68.3783 22.4872 67.6495 22.7399L67.1969 22.8928L61.8656 22.9104L56.5285 22.928V25.1264C56.5285 27.2307 56.5226 27.3423 56.4051 27.6656C56.0759 28.5414 55.0884 28.9999 54.195 28.6884V28.6884ZM66.7208 19.3072C67.1028 19.125 67.1087 19.078 67.1087 17.0443C67.1087 15.4219 67.097 15.1927 67.0088 15.0399C66.7972 14.6813 67.0147 14.6931 61.5306 14.6931H56.5285V17.0443V19.3954H61.5306C65.8802 19.3954 66.5562 19.3837 66.7208 19.3072V19.3072Z" fill="white"/>
<path d="M76.4137 28.6884C75.8259 28.4885 75.4086 28.0183 75.2793 27.4246C75.2323 27.213 75.2205 24.9794 75.2323 19.8069L75.2499 12.4889L75.4145 12.1539C75.6966 11.5778 76.2198 11.2369 76.8898 11.184C77.6305 11.1252 78.3593 11.5954 78.6238 12.3008C78.7473 12.6417 78.7473 12.6417 78.7473 18.9546V25.2733H84.1843C89.592 25.2733 89.6155 25.2733 89.9564 25.3968C90.6089 25.6436 91.0908 26.3372 91.0908 27.0367C91.0908 27.7362 90.6089 28.4298 89.9564 28.6766L89.6155 28.8001H83.1674C77.1308 28.7942 76.7017 28.7883 76.4137 28.6884V28.6884Z" fill="white"/>
<path d="M96.2748 28.6884C95.6812 28.4826 95.2639 28.0065 95.1345 27.3717C94.9935 26.6958 94.8171 27.0308 99.4195 19.1368C101.741 15.1574 103.716 11.8188 103.804 11.713C104.257 11.1957 105.192 11.0312 105.856 11.3603C106.038 11.4485 106.267 11.6131 106.355 11.7189C106.579 11.9716 114.867 26.1785 114.984 26.5077C115.378 27.6245 114.408 28.8765 113.215 28.7824C112.804 28.753 112.416 28.5943 112.128 28.3416C111.992 28.224 110.834 26.2843 108.519 22.3108C106.643 19.0956 105.098 16.4623 105.08 16.4623C105.062 16.4623 103.516 19.0956 101.641 22.3167C99.0081 26.8368 98.1793 28.2123 98.003 28.3651C97.5268 28.7765 96.8744 28.8941 96.2748 28.6884V28.6884Z" fill="white"/>
<path d="M123.566 28.6943C123.184 28.565 122.925 28.3769 122.708 28.0771C122.379 27.6245 122.361 27.454 122.361 25.1264V22.9986L118.37 18.4373C115.284 14.9106 114.355 13.8114 114.267 13.594C114.103 13.1531 114.12 12.5653 114.326 12.1539C114.632 11.5249 115.167 11.2016 115.895 11.1958C116.26 11.1958 116.395 11.2252 116.677 11.3604C116.989 11.5132 117.271 11.8247 120.545 15.563C122.485 17.7849 124.101 19.6012 124.124 19.6012C124.148 19.6012 125.764 17.7849 127.704 15.563C130.919 11.8894 131.266 11.5132 131.56 11.3721C132.706 10.8078 134.017 11.5484 134.099 12.8063C134.158 13.5822 134.328 13.353 129.879 18.4315L125.888 22.9986V25.1617C125.888 27.2307 125.882 27.3424 125.764 27.6657C125.435 28.5356 124.448 28.9999 123.566 28.6943V28.6943Z" fill="white"/>
<path d="M139.536 28.6884C138.943 28.4827 138.525 28.0066 138.396 27.3717C138.261 26.7369 138.525 26.0375 139.043 25.6436C139.548 25.2557 139.248 25.2733 146.184 25.2733C153.079 25.2733 152.726 25.291 152.944 24.9265C153.091 24.6797 153.091 22.3461 152.95 22.1051C152.744 21.7583 153.091 21.776 146.901 21.7466L141.2 21.7172L140.747 21.5644C140.018 21.3116 139.548 21.0177 138.996 20.4593C138.602 20.0655 138.437 19.8422 138.243 19.4542C137.832 18.6254 137.802 18.4491 137.773 16.6857C137.744 14.5814 137.849 14.0289 138.461 13.0943C138.99 12.2832 139.783 11.6777 140.747 11.3486L141.2 11.1958L147.848 11.1781L154.501 11.1605L154.842 11.2898C155.066 11.3721 155.277 11.5132 155.454 11.6954C156.306 12.5418 156.077 13.9701 154.995 14.4991L154.66 14.6637L148.183 14.6931L141.699 14.7225L141.511 14.9165L141.317 15.1046V16.4565V17.8084L141.511 17.9965L141.699 18.1905L147.419 18.2199L153.132 18.2492L153.585 18.4021C154.313 18.6548 154.784 18.9487 155.336 19.5071C155.889 20.0655 156.171 20.5299 156.406 21.2764C156.535 21.6996 156.541 21.7936 156.541 23.51C156.541 25.2263 156.535 25.3204 156.406 25.7436C156.171 26.4901 155.889 26.9544 155.336 27.5128C154.784 28.0712 154.313 28.3651 153.585 28.6179L153.132 28.7707L146.49 28.7824C140.171 28.7942 139.83 28.7942 139.536 28.6884V28.6884Z" fill="white"/>
<path d="M164.705 28.7354C163.336 28.5062 162.066 27.4716 161.531 26.155C161.22 25.3791 161.214 25.3145 161.214 19.9832C161.214 14.6519 161.22 14.5873 161.531 13.8114C161.996 12.6711 162.971 11.7659 164.182 11.3544L164.652 11.1957H170.589H176.526L176.967 11.3309C177.731 11.5719 178.177 11.8423 178.759 12.4301C179.347 13.012 179.618 13.4587 179.859 14.2229L179.994 14.6637V19.9832V25.3027L179.859 25.7435C179.618 26.5077 179.347 26.9544 178.759 27.5363C178.189 28.1065 177.76 28.3768 176.996 28.6355L176.585 28.7707L170.795 28.7765C167.609 28.7824 164.87 28.7648 164.705 28.7354ZM176.144 25.1793C176.514 24.9559 176.496 25.2322 176.496 19.9832C176.496 15.6218 176.491 15.1986 176.396 15.0458C176.173 14.6696 176.485 14.6872 170.548 14.7048L165.152 14.7225L164.964 14.9165L164.77 15.1045V19.9773V24.8501L164.917 25.0088C164.999 25.097 165.117 25.191 165.181 25.2145C165.246 25.2439 167.703 25.2674 170.636 25.2674C175.48 25.2733 175.991 25.2616 176.144 25.1793Z" fill="white"/>
<path d="M186.148 28.7178C185.796 28.6002 185.449 28.3475 185.261 28.0712C184.908 27.5481 184.931 28.0712 184.931 19.9538V12.4889L185.078 12.195C185.261 11.8247 185.602 11.4838 185.954 11.3251C186.372 11.1311 187.065 11.1429 187.459 11.3545C187.653 11.4544 189.916 13.5058 193.954 17.2382L200.155 22.9692L200.185 17.7261L200.214 12.4889L200.361 12.195C200.543 11.8247 200.884 11.4838 201.237 11.3251C201.654 11.1311 202.348 11.1429 202.747 11.3545C202.912 11.4426 203.159 11.6366 203.288 11.7835C203.741 12.3008 203.711 11.7306 203.711 19.9832C203.711 28.2358 203.741 27.6656 203.288 28.1829C203.159 28.3298 202.912 28.5238 202.747 28.612C202.354 28.8177 201.654 28.8353 201.243 28.6472C201.06 28.565 199.085 26.7781 194.718 22.7458L188.458 16.9679L188.429 22.2521C188.394 28.1359 188.429 27.7185 187.982 28.2123C187.535 28.706 186.76 28.9176 186.148 28.7178V28.7178Z" fill="white"/>
<path d="M2.21126 39.8623C1.20026 39.5978 0.383232 38.7278 0.16575 37.6874C0.0717032 37.2466 0.0717032 2.71981 0.16575 2.27897C0.494912 0.715445 2.11721 -0.313187 3.63959 0.0865107C3.83944 0.133534 11.228 3.79547 21.4379 8.90336C38.7189 17.5439 38.9011 17.6379 39.2362 17.9788C40.3412 19.1015 40.3412 20.8649 39.2362 21.9876C38.9011 22.3285 38.7248 22.4167 26.8338 28.3651C13.8084 34.8778 14.3785 34.6133 13.585 34.5369C12.5329 34.4311 11.6806 33.8315 11.2221 32.8676L11.0046 32.415L10.987 26.0374C10.9752 21.294 10.987 19.5776 11.0399 19.3366C11.4396 17.4616 13.7084 16.5329 15.3307 17.5791C15.7069 17.8201 16.1654 18.3139 16.3535 18.6901C16.665 19.3014 16.6768 19.4718 16.6768 23.41C16.6768 25.4026 16.6885 27.0367 16.7062 27.0367C16.7649 27.0367 30.7837 20.0126 30.7837 19.9832C30.7837 19.9421 5.93785 7.52205 5.86143 7.52205C5.82029 7.52205 5.80266 12.5712 5.80266 22.5283C5.80266 36.0945 5.7909 37.5699 5.70861 37.8579C5.55578 38.3752 5.27952 38.8336 4.90921 39.1804C4.14509 39.8858 3.2105 40.1209 2.21126 39.8623V39.8623Z" fill="#FF002A"/>
</svg>
