<svg width="194" height="47" fill="none" xmlns="http://www.w3.org/2000/svg"><path d="M7.628 38.667c-3.87-3.896-3.93-3.965-3.93-4.303 0-.338.06-.407 3.896-4.268 3.827-3.853 3.896-3.914 4.231-3.914.336 0 .404.06 4.283 3.966 3.431 3.454 3.93 3.991 3.93 4.216 0 .225-.507.77-3.973 4.26-3.483 3.515-4.016 4.008-4.24 4.008-.223 0-.748-.493-4.197-3.965zm6.433-6.51-2.236-2.252-2.236 2.251-2.236 2.251L9.59 36.66l2.236 2.25 2.236-2.25 2.236-2.252-2.236-2.25zM38.288 38.624c-3.475-3.498-3.973-4.035-3.973-4.26 0-.225.49-.762 3.938-4.225 3.87-3.896 3.94-3.957 4.275-3.957.335 0 .404.06 4.24 3.922 3.826 3.853 3.886 3.922 3.886 4.26 0 .338-.06.407-3.938 4.312-3.44 3.454-3.965 3.956-4.188 3.956-.224 0-.757-.502-4.24-4.008zm6.476-6.468-2.236-2.25-2.236 2.25-2.236 2.251 2.236 2.252 2.236 2.25 2.236-2.25 2.235-2.252-2.236-2.25zM22.12 20.962c-4.627-4.659-4.92-4.97-4.92-5.256 0-.286.293-.597 4.928-5.264 4.627-4.658 4.936-4.952 5.22-4.952.284 0 .594.294 5.229 4.96 4.627 4.659 4.92 4.97 4.92 5.256 0 .286-.293.598-4.929 5.264-4.626 4.658-4.936 4.953-5.22 4.953-.284 0-.593-.295-5.229-4.961zm8.479-2.078 3.2-3.221-3.209-3.23-3.199-3.22-3.225 3.246-3.225 3.247 3.182 3.204c1.746 1.757 3.2 3.203 3.225 3.203.026 0 1.488-1.454 3.251-3.23z" fill="#040404"/><path d="M9.59 44.174c-1.23-1.256-3.897-3.957-5.926-6.018C.017 34.46-.026 34.407.129 34.234c.146-.164.258-.173 2.038-.173h1.884l-.052.182c-.051.164.525.78 3.879 4.156 3.036 3.056 3.964 3.948 4.05 3.87.095-.07.112.25.112 1.775 0 1.411.026 1.87.112 1.905.069.026.034.112-.112.268l-.223.225-2.228-2.268zM42.381 46.355c-.009-.043-1.591-1.67-3.509-3.61-8.935-9.074-8.221-8.312-8.04-8.51.145-.165.257-.174 1.986-.174 1.677 0 2.107.052 1.832.225-.06.035 1.462 1.628 3.887 4.07 3.07 3.09 4.007 3.99 4.093 3.913.095-.07.112.25.112 1.775 0 1.411.026 1.87.112 1.905.069.026.034.112-.103.268-.224.242-.318.277-.37.138zM40.033 36.918c-2.46-2.476-2.485-2.502-2.322-2.684.138-.156.258-.173 1.101-.173.912 0 .955.009 1.557.32.713.373 1.573 1.212 2.03 1.983.292.485.3.537.352 1.636.086 1.836.24 1.897-2.718-1.082zM9.297 36.884c-2.425-2.442-2.451-2.468-2.288-2.65.138-.156.258-.173 1.093-.173.894 0 .971.017 1.513.286.723.355 1.454 1.03 1.995 1.853l.439.649-.026 1.23c-.026 1.004-.051 1.22-.155 1.246-.077.009-1.187-1.039-2.571-2.441zM25.43 29.542a1440.39 1440.39 0 0 0-7.705-7.862c-5.418-5.506-5.831-5.94-5.702-6.078.12-.138.37-.156 2.88-.156 2.486 0 2.736.009 2.632.139-.094.112.55.788 4.85 5.117s4.972 4.978 5.083 4.883c.13-.104.138.156.138 2.78 0 2.813-.026 3.099-.258 3.099-.034 0-.894-.866-1.918-1.922zM23.865 19.17c-3.25-3.274-3.431-3.473-3.285-3.611.13-.13.327-.147 1.669-.13l1.53.026.731.355c1.084.528 2.245 1.757 2.916 3.074.163.337.18.502.18 1.956 0 1.498-.043 1.793-.258 1.793-.025 0-1.59-1.559-3.483-3.464z" fill="#00926A"/><path d="M20.683 44.78c6.811-6.944 6.863-6.996 7.009-6.866.112.104.129.64.103 4.45l-.017 4.338h-8.987l1.892-1.922zM11.894 46.208c-.086-.026-.112-.493-.112-1.913v-1.879l4-4.026c3.723-3.749 3.981-4.026 3.852-4.173-.129-.139-.034-.147 1.746-.173 1.849-.026 1.883-.026 2.098.173l.215.19-3.018 3.057a1834.81 1834.81 0 0 0-5.848 5.922c-1.591 1.619-2.873 2.848-2.933 2.822zM42.596 46.2c-.078-.044-.112-.59-.13-1.905l-.025-1.836 3.999-4.026c3.69-3.714 3.99-4.034 3.887-4.199-.103-.173-.086-.173 1.815-.173 1.78 0 1.935.009 2.072.164.147.156 0 .32-4.222 4.615-2.4 2.442-5.023 5.117-5.831 5.931-.955.978-1.497 1.472-1.565 1.429zM11.765 38.07l-.035-1.282.336-.536c.507-.814 1.298-1.585 1.97-1.905.55-.269.636-.286 1.513-.286.834 0 .954.017 1.092.173.164.182.138.208-2.279 2.64-1.35 1.36-2.477 2.468-2.502 2.468-.035 0-.078-.571-.095-1.272zM42.492 38.286c-.008-.58-.051-1.117-.094-1.195-.12-.225.456-1.134 1.16-1.861.87-.9 1.428-1.152 2.641-1.195.886-.035.937-.026 1.118.173l.19.208-2.443 2.459c-1.35 1.36-2.477 2.467-2.503 2.467-.026 0-.06-.476-.069-1.056zM9.03 34.433c-.224-.086-.55-.12-1.221-.095l-.93.026 2.47-2.485c2.15-2.164 2.485-2.476 2.596-2.363.095.095.12.363.104 1.229-.018 1.013-.043 1.143-.25 1.541-.3.58-1.496 1.784-2.038 2.06-.413.209-.456.209-.731.087zM39.698 34.442c-.19-.104-.456-.13-1.179-.104l-.937.026 2.468-2.485c1.677-1.688 2.503-2.459 2.563-2.398.052.052.077.554.052 1.316l-.026 1.23-.379.58c-.438.666-1.16 1.359-1.788 1.722-.508.286-.456.286-.774.113zM0 34.45c0-.043 2.666-2.796 5.925-6.103 3.974-4.035 5.952-5.992 6.012-5.931.051.052.103.9.12 2.13.026 1.93.017 2.035-.129 1.948-.129-.078-.688.45-4.102 3.887L3.87 34.364l-1.858-.026c-1.453-.017-1.883 0-1.943.087-.035.06-.069.078-.069.026zM30.71 34.45c-.008-.086.534-.657 7.027-7.255 4.661-4.744 4.756-4.84 4.928-4.684.111.104.137.173.068.217-.068.043-.086.588-.068 1.922.034 1.54.017 1.853-.078 1.81-.077-.027-1.625 1.471-4.059 3.921l-3.93 3.957-1.9-.009c-1.48-.017-1.901.01-1.936.096-.026.06-.052.078-.052.026zM27.348 28.607v-2.9l4.962-4.997c4.042-4.069 4.937-5.013 4.86-5.117-.06-.06-.078-.147-.044-.173.026-.034 1.265-.06 2.735-.06 3.62 0 3.5-.165 1.41 1.974a9034.86 9034.86 0 0 1-11.49 11.705l-2.433 2.468v-2.9zM27.34 22.59c0-.053 0-.754.008-1.577.009-.943-.026-1.558-.086-1.67-.129-.234.25-.944.998-1.888a6.276 6.276 0 0 1 2.219-1.8l.593-.295h1.48c1.306 0 1.496.017 1.616.156.129.147-.06.355-3.337 3.653-1.918 1.931-3.483 3.463-3.491 3.42zM23.676 15.793c-.103-.044-.877-.087-1.712-.096l-1.513-.008 3.465-3.498c2.142-2.156 3.5-3.463 3.552-3.411.043.043.07.84.06 1.835l-.017 1.758-.266.476c-.62 1.108-1.703 2.208-2.727 2.762-.55.294-.559.294-.842.182zM12.9 14.693c1.213-1.264 6.863-7.013 11.215-11.428C25.912 1.446 27.409-.026 27.452 0c.034.026.068 1.23.068 2.684 0 1.697.035 2.632.086 2.632.052 0 .086.165.086.364 0 .355 0 .355-.172.2-.18-.165-.223-.122-5.142 4.83l-4.963 4.996H11.92l.98-1.013z" fill="#2EB677"/><path d="M27.52 42.286c0-2.424.034-4.416.069-4.416.069 0 3.655 3.62 7.318 7.386l1.42 1.446H27.52v-4.416zM13.665 34.165c-1.049-.693-2.055-1.983-1.934-2.476.025-.096.051-.667.06-1.256l.008-1.073 2.443 2.459 2.442 2.459-.963.043c-.542.026-1.058.095-1.161.156a1.687 1.687 0 0 1-.224.104c-.017 0-.327-.191-.67-.416zM44.488 34.269c-.636-.39-1.462-1.204-1.823-1.81l-.284-.467.008-1.134c.01-.624.043-1.213.078-1.3.052-.146.439.209 2.554 2.338 1.367 1.377 2.451 2.511 2.4 2.511a.246.246 0 0 1-.155-.06c-.078-.078-1.79-.026-1.9.052-.233.181-.405.155-.878-.13zM46.423 30.295l-4.025-4.07v-1.878c0-1.507.026-1.888.112-1.888.103 0 1.849 1.75 9.795 9.827l2.038 2.078H50.44l-4.016-4.07zM15.755 30.312l-3.982-4.017.009-1.93c0-1.066.026-1.958.043-1.975.017-.026 2.176 2.139 4.79 4.797 6.493 6.614 6.872 7.004 6.811 7.073-.034.035-.877.06-1.874.06h-1.815l-3.982-4.008zM30.117 15.559c-1.084-.64-2.081-1.662-2.597-2.64l-.275-.52.008-1.74c.009-.953.043-1.784.078-1.853.043-.07 1.178 1.013 3.526 3.376l3.457 3.48-1.47-.025c-1.196-.026-1.523 0-1.755.104-.379.181-.353.19-.972-.182zM32.336 10.728c-2.7-2.719-4.902-4.987-4.902-5.048 0-.052-.034-.104-.086-.104-.103 0-.12-5.506-.008-5.576.06-.043 3.285 3.213 12.229 12.355l3.148 3.221-.697.018c-.387.017-1.617.034-2.743.043l-2.039.026-4.902-4.935z" fill="#71C15E"/><path d="M11.524 36.72c-.413-.728-1.462-1.776-2.099-2.087l-.507-.252.507-.26c.654-.328 1.798-1.48 2.159-2.173l.267-.51.275.554c.344.684 1.281 1.636 2.047 2.086l.55.312-.499.251c-.619.294-1.376 1.056-1.943 1.93-.233.356-.43.65-.439.659-.009.009-.155-.225-.318-.51zM42.175 36.684c-.456-.779-1.325-1.653-1.996-2.008l-.55-.286.482-.277c.903-.502 1.728-1.36 2.21-2.286l.189-.38.267.51c.343.658 1.487 1.81 2.14 2.156l.508.268-.507.243c-.628.303-1.574 1.273-2.038 2.06-.18.32-.344.58-.353.58-.008 0-.172-.26-.352-.58zM27.176 19.16c-.361-.71-.886-1.42-1.54-2.077-.507-.511-.808-.736-1.358-.996-.387-.182-.705-.355-.705-.38 0-.027.258-.165.576-.321 1.11-.537 2.374-1.818 2.915-2.97.13-.277.267-.51.293-.51.026-.01.129.155.215.354.284.632.757 1.308 1.333 1.879.559.571 1.668 1.36 2.03 1.446.292.078.249.138-.259.363-1.057.46-2.339 1.75-3.01 3.03l-.3.564-.19-.381zM78.017 22.32c-2.794-2.945-9.103-9.6-11.543-12.15-.643-.66-1.194-1.214-1.246-1.214-.04 0-.066 3.328-.04 7.395l.027 7.396H62.854l-.027-10.367L62.788 3l.918.964c.512.528 3.398 3.579 6.428 6.775 7.228 7.633 7.438 7.857 7.53 7.857.039 0 .065-3.301.039-7.33l-.027-7.328H80.037v10.234c0 5.626-.013 10.235-.026 10.235-.026 0-.918-.938-1.993-2.087zM120.637 23.945c-1.981-.436-3.621-1.4-5.182-3.064a10.203 10.203 0 0 1-2.505-4.662c-.407-1.598-.315-4.094.196-5.612 1.338-3.949 4.539-6.577 8.645-7.079 1.39-.171 2.873-.013 4.407.476 1.509.488 3.529 1.809 4.303 2.826l.341.449-.787.766-.774.766-.944-.912c-2.427-2.35-5.916-2.918-8.881-1.452-1.981.977-3.62 3.024-4.184 5.243-.263 1.03-.276 3.05-.014 4.067.814 3.13 3.542 5.705 6.52 6.167 3.397.515 6.886-2.02 7.503-5.467l.092-.502h-5.129v-2.113h7.779l-.092 1.215c-.105 1.598-.381 2.707-.997 4.001-1.22 2.562-3.424 4.28-6.297 4.9-1.049.224-2.951.224-4-.013zM166.875 23.905c0-.132-5.614-13.22-5.719-13.351-.026-.027-.079-.027-.105 0-.026.026-.577 3.01-1.207 6.616l-1.167 6.577h-1.233c-1.207 0-1.22 0-1.155-.291.04-.172.945-4.754 1.994-10.208 1.05-5.441 1.928-9.944 1.942-9.997.013-.053 1.534 3.38 3.371 7.62 1.836 4.252 3.384 7.712 3.45 7.686.091-.027 2.138-4.662 5.876-13.365.499-1.162.905-2.073.905-2.034 0 .04.892 4.649 1.968 10.222 1.089 5.586 1.968 10.195 1.968 10.26 0 .067-.538.093-1.207.08l-1.194-.04-1.089-6.206c-1.272-7.184-1.22-6.933-1.377-6.933a.118.118 0 0 0-.118.118c0 .185-5.64 13.127-5.785 13.286-.078.066-.118.066-.118-.04zM84.498 13.776v-9.97h10.494V6.05h-8.133v5.679h7.936v2.112h-7.936l.026 3.87.04 3.856H94.99V23.747H84.499v-9.97zM103.125 14.899V6.05H98.403V3.938h11.805V6.05h-4.722v17.696H103.125v-8.848zM134.606 23.68c0-.04 1.929-4.305 4.277-9.481 2.361-5.164 4.46-9.786 4.67-10.248l.38-.859 1.351 2.972c.748 1.624 2.781 6.114 4.539 9.957 1.744 3.856 3.266 7.158 3.358 7.369l.197.357h-2.598l-1.115-2.47-1.115-2.483H139.302l-1.114 2.483-1.129 2.47h-1.22c-.682 0-1.233-.027-1.233-.067zm12.829-7.29c-.118-.435-3.423-7.962-3.502-7.962-.079 0-3.358 7.448-3.516 7.963-.065.211.158.224 3.503.224 3.332 0 3.568-.013 3.515-.224zM182.748 13.842V3.938h10.494V6.05h-8.133v5.679h7.87v2.244h-7.87v7.66h8.133v2.113h-10.494v-9.905z" fill="#fff"/><path d="M145.009 42.92c-.999-1.09-1.849-2.046-1.882-2.13-.034-.084.216-.151.566-.151.516 0 .766.134 1.349.704l.717.705v-.62c0-.588.033-.621.5-.621.283 0 .55.1.6.218.033.117.049 1.04.033 2.046l-.05 1.828-1.833-1.979zM103.074 43.323l.067-1.342h1.132v2.683h-1.249l.05-1.341zM106.939 43.138c-.816-1.207-1-1.56-.816-1.677.583-.37.899-.134 2.099 1.526l1.216 1.677h-.716c-.733 0-.733 0-1.783-1.526zM114.104 42.568V40.47h1.149l.05 2.097.05 2.096h-1.249v-2.096zM120.418 44.295c.083-.218.533-1.207.999-2.23l.833-1.845.683-.05c.65-.051.684-.034.517.285-.1.184-.183.369-.183.419 0 .05.866.1 1.916.1 1.966 0 2.082-.05 1.749-.687-.167-.285-.117-.319.45-.319h.633l.65 1.476c.35.805.816 1.862 1.033 2.348l.4.872h-.6c-.583 0-.6-.033-1.2-1.341l-.6-1.342h-5.014l-.584 1.342c-.583 1.325-.583 1.341-1.199 1.341-.583 0-.617-.033-.483-.369zM133.097 42.4v-2.264h1.166v4.528h-1.166V42.4zM137.895 42.484l.05-2.18h1.149v4.36h-1.249l.05-2.18zM150.424 44.044c.083-.352.216-1.074.333-1.593.15-.772.25-.973.5-.973.75 0 .783.084.516 1.677l-.25 1.51h-1.232l.133-.621zM155.539 43.81l-.4-.907.45-.05c.233-.034.583.017.766.084l.35.134-.383.822-.384.839-.399-.923zM79.482 43.44c-.75-.755-1.366-1.476-1.366-1.577 0-.352.983-.452 1.333-.134.3.269.316.252.366-.201.033-.403.133-.47.6-.52l.533-.05v1.929c0 1.073-.017 1.945-.05 1.945-.017 0-.65-.62-1.416-1.392zM86.446 42.065v-2.6H87.613v5.2H86.445v-2.6zM93.277 41.578c0-2.65.033-3.103.266-3.187.15-.05 1.35-.1 2.666-.1h2.4v1.006h-4.166v4.193h4.332v1.174h-5.498v-3.086zM160.42 44.564c0-.201-1.017-6.038-1.1-6.324-.083-.268-.017-.301.466-.251l.55.05.617 3.02c.333 1.66.616 3.153.633 3.32 0 .218-.133.285-.583.285-.317 0-.583-.05-.583-.1zM165.584 41.629v-3.036l.517.1c.283.05.666.1.833.1.2 0 .317.118.317.336 0 .185-.117.336-.25.336-.217 0-.25.352-.25 2.096v2.097h4.332v1.006H165.584V41.63zM174.914 42.635v-2.013l.55.05.533.05.05 1.98.05 1.962H174.914v-2.029z" fill="#B7786A"/><path d="M155.588 43.39c-.15-.05-.767-1.258-1.45-2.868-1.166-2.768-1.549-3.372-1.549-2.466 0 .403-.35 2.583-.6 3.724-.083.385-.467.486-.883.218-.2-.135-.167-.487.15-2.248.216-1.157.433-2.197.516-2.315.084-.15.383-.167 1.166-.05l1.05.151.883 2.013c.483 1.107.866 2.113.883 2.23.017.57.383.017 1.2-1.845.866-1.995.916-2.063 1.449-2.113.417-.05.533 0 .483.168-.05.134-.616 1.409-1.233 2.868-1.182 2.734-1.216 2.75-2.065 2.533zM103.107 40.069v-2.617h1.166v1.677h.75c1.433 0 2.582-.788 2.582-1.76 0-.169.167-.252.5-.252.417 0 .5.067.5.419 0 .94-1.066 2.18-2.016 2.382-.267.05-.483.117-.483.15 0 .034.266.42.6.856.549.721.566.805.283.906-.617.252-.85.134-1.466-.772-.383-.553-.767-.922-.95-.922-.266 0-.3.15-.3 1.174 0 .822-.066 1.174-.2 1.174-.116 0-.383.05-.583.1l-.383.101V40.07zM146.058 41.36c-.266-.067-.3-.319-.3-2.247v-2.164H146.925v2.264c0 2.432.016 2.382-.867 2.147zM141.31 39.012c-1.15-1.224-2.133-2.23-2.199-2.23-.05 0-.067.905-.05 2.012l.066 2.013H137.928v-4.193h2.582l1.25 1.308c.683.704 1.649 1.71 2.149 2.23l.883.957-.7.067-.7.067-2.082-2.231zM114.103 38.878V36.78h1.166v4.193h-1.166v-2.096zM122.1 40.572c0-.034.416-.94.916-2.013l.9-1.945H125.099l-.234.553c-.116.285-.516 1.19-.866 2.013l-.633 1.459h-.633c-.35 0-.633-.034-.633-.067zM133.096 38.626v-2.012h1.166v4.025h-1.166v-2.013zM126.182 38.61c-.65-1.51-.75-1.896-.566-2.013.566-.353.766-.135 1.632 1.744.467 1.023.85 1.929.85 2.013 0 .067-.25.117-.55.117-.549 0-.566-.033-1.366-1.862zM180.163 40.907c-2.1-2.247-3.882-4.11-3.949-4.11-.083-.016-.133 1.007-.133 2.248 0 2.382 0 2.382-.783 2.164-.383-.1-.383-.117-.383-3.757V33.78l3.048 3.203c1.667 1.762 3.399 3.607 3.832 4.093.45.503.867.906.917.906.066 0 .1-1.778.066-3.942l-.05-3.942H183.895l.05 5.452c.033 3.002.05 5.451.05 5.451s-1.716-1.845-3.832-4.093zM62.788 39.38v-5.284h5.498v.99l-2.2.05-2.215.05-.05 1.56-.05 1.543h4.349v.99l-2.116.05-2.133.05-.05 2.064-.05 2.046h4.516v1.174H62.787V39.38zM71.785 39.18l.017-5.485.8.838c.433.453 2.199 2.298 3.898 4.11 3.016 3.204 3.099 3.304 2.666 3.422-.25.05-.5.167-.55.235-.05.083-1.283-1.141-2.732-2.684-1.466-1.56-2.716-2.835-2.8-2.835-.066 0-.133 1.778-.133 3.942v3.941h-1.166V39.18zM189.376 39.934l-.05-4.713-1.2.034-1.216.033V34.097H193.241V35.288l-1.116-.016c-.633-.017-1.233-.017-1.333-.017-.166.017-.216 1.073-.216 4.713v4.696H189.409l-.033-4.73zM79.782 37.938v-3.84H80.95V41.426l-.584.168-.583.185v-3.842zM86.413 37.586l-.05-2.398-1.2.05-1.216.067v-1.208h6.165V35.288l-1.2-.033-1.216-.034-.05 2.365-.05 2.382h-1.133l-.05-2.382zM166.251 39.314l-.583-.1-.05-2.55-.05-2.567H171.083V35.288l-2.116-.033-2.132-.034-.05 1.527-.05 1.543H171.016v1.174l-2.082-.017c-1.166-.017-2.366-.067-2.683-.134zM93.277 36.53v-2.433h5.498V35.104H94.444V38.29l2.132.017 2.116.016-2.499.302c-1.366.168-2.6.319-2.7.319-.166.017-.216-.57-.216-2.415z" fill="#B7786A"/><path d="M159.554 38.442a.62.62 0 0 1-.3-.487c0-.47-.284-.419-.4.05-.083.336-.183.386-.6.32-.4-.051-.483-.135-.416-.37.149-.453 1.732-4.126 1.749-4.008 0 .05.183 1.023.416 2.163.234 1.14.417 2.164.417 2.281 0 .269-.45.302-.866.05zM103.074 36.026l-.05-1.929h1.333c2.232.017 3.082.353 3.882 1.51.233.37.366.805.366 1.275 0 .704-.016.738-.483.738-.433 0-.483-.067-.566-.671-.15-1.124-.767-1.593-2.35-1.778l-.933-.117v2.901h-1.149l-.05-1.929zM153.023 37.804c-.05-.084-.4-.117-.75-.067l-.65.084.317-1.476c.166-.822.299-1.71.316-1.996 0-.285.067-.42.15-.335.15.167 1.683 3.673 1.683 3.84 0 .168-.967.118-1.066-.05zM145.758 35.775v-1.678H146.925v3.355H145.758v-1.677zM114.07 36.244l-.05-1.023-1.2.034-1.216.033V34.097h6.164V35.288l-1.032-.016c-.584-.017-1.15-.017-1.25-.017-.15.017-.217.335-.217 1.023v1.006h-1.149l-.05-1.04zM124.3 37.15c-.65-.067-.65-.05.266-2.046l.617-1.325.699 1.543c.733 1.593.717 1.795-.066 1.795-.234 0-.383-.101-.383-.252 0-.352-.317-.319-.467.05-.083.202-.267.269-.666.235zM137.895 35.506l-.05-1.727.466.453c.267.251 1.017 1.04 1.65 1.76l1.183 1.31-.767-.068c-.433-.034-.9-.168-1.033-.285-.183-.151-.316-.168-.383-.05-.067.083-.317.2-.566.251l-.45.084-.05-1.728zM133.096 35.607v-1.51h1.166v3.02h-1.166v-1.51z" fill="#B7786A"/></svg>