<svg width="194" height="32" viewBox="0 0 194 32" fill="none" xmlns="http://www.w3.org/2000/svg">
<path d="M98.1257 30.9974C96.3454 30.7227 94.6741 29.8438 93.7123 28.6832C93.3508 28.2438 93.0438 27.7837 93.0438 27.6875C93.0438 27.6395 96.3522 25.6549 96.5909 25.5588C96.6182 25.5519 96.741 25.6961 96.8638 25.8884C97.4641 26.836 98.5077 27.3305 99.8993 27.3305C101.168 27.3305 102.123 26.9116 102.662 26.1356C103.023 25.6069 103.139 25.0918 103.187 23.9038L103.228 22.8326L102.669 23.3614C102.266 23.7459 101.946 23.9725 101.55 24.1717C100.643 24.618 100.281 24.6867 98.9102 24.6798C97.5255 24.6729 97.0684 24.5768 96.0111 24.0755C95.1926 23.6841 94.8447 23.4438 94.1489 22.7708C93.1939 21.8438 92.5118 20.6558 92.1502 19.2618C92.007 18.7193 91.9865 18.4996 91.9933 17.4077C91.9933 16.2953 92.0138 16.103 92.1707 15.5056C92.8665 12.9167 94.7628 10.9871 97.239 10.3347C97.9211 10.1562 98.8897 10.0875 99.5992 10.1631C100.854 10.2935 101.802 10.7056 102.635 11.4884L103.139 11.9622V11.2343V10.5064H105.22H107.3V17.7785C107.3 25.8129 107.307 25.6755 106.864 26.8498C106.039 29.0678 104.149 30.503 101.448 30.9699C100.527 31.1347 99.0603 31.1416 98.1257 30.9974V30.9974ZM100.554 20.7107C101.502 20.5047 102.321 19.921 102.73 19.1519C103.03 18.582 103.139 18.1356 103.139 17.442C103.139 16.3845 102.853 15.6498 102.184 15.0111C101.455 14.3107 100.65 14.0429 99.4559 14.0978C98.0507 14.1665 97.0548 14.7777 96.5227 15.897C96.0248 16.9476 96.093 18.3416 96.6933 19.2893C97.4231 20.4566 99.0057 21.0403 100.554 20.7107V20.7107Z" fill="white"/>
<path d="M178.925 30.9974C178.099 30.867 176.906 30.4618 176.251 30.0841C175.971 29.9193 175.514 29.5966 175.241 29.37C174.709 28.9167 173.857 27.8661 173.891 27.7013C173.904 27.6464 174.709 27.1382 175.678 26.5751L177.451 25.5519L177.67 25.8747C178.4 26.9528 179.361 27.3785 180.937 27.3099C182.342 27.2481 183.161 26.8155 183.645 25.8609C183.898 25.3597 183.973 24.9408 183.973 23.9107V22.9219L183.468 23.3957C182.356 24.4395 180.787 24.9202 179.095 24.7279C178.147 24.618 177.52 24.4395 176.708 24.0343C174.286 22.8326 172.772 20.2987 172.772 17.4421C172.772 13.0747 176.319 9.71674 180.46 10.1631C181.694 10.3004 182.636 10.7193 183.502 11.5227L183.973 11.9622V11.2343V10.5064H186.053H188.134V17.7373C188.134 24.0824 188.12 25.0506 188.025 25.6206C187.752 27.2206 187.035 28.4704 185.849 29.4318C184.477 30.5442 182.636 31.1142 180.487 31.1004C179.982 31.0936 179.28 31.0524 178.925 30.9974V30.9974ZM181.401 20.7039C182.035 20.5665 182.745 20.1751 183.14 19.7425C183.72 19.1039 183.973 18.4034 183.973 17.4421C183.973 16.3846 183.673 15.6292 182.984 14.9768C182.295 14.3176 181.387 14.0292 180.235 14.0979C179.484 14.1391 178.959 14.3039 178.393 14.6747C176.626 15.8489 176.551 18.8292 178.263 20.0927C179.116 20.7245 180.262 20.9511 181.401 20.7039V20.7039Z" fill="white"/>
<path d="M73.0231 25.236C70.9562 24.8995 69.1963 23.897 68.0639 22.3862C67.5591 21.7201 67.0202 20.5665 66.802 19.6738C66.6382 19.0077 66.6178 18.788 66.6178 17.7854C66.611 16.9339 66.6451 16.5081 66.7406 16.0686C67.4636 12.697 69.9807 10.4927 73.4801 10.1631C75.1172 10.0051 76.7203 10.3828 78.0913 11.2343C78.7121 11.6257 79.7353 12.6214 80.1514 13.2463C80.7721 14.1734 81.2292 15.4231 81.3861 16.5974C81.4611 17.188 81.4338 18.836 81.3383 19.248L81.2974 19.4334H76.2223C72.7775 19.4334 71.1472 19.454 71.1472 19.5021C71.1472 19.5433 71.229 19.7287 71.3245 19.921C71.8225 20.9236 72.9821 21.4935 74.5238 21.4935C75.547 21.4935 76.3519 21.2257 77.0204 20.6695L77.3273 20.4086L79.0122 21.3768C79.9331 21.9124 80.6903 22.3862 80.6971 22.4274C80.6971 22.5579 79.7558 23.533 79.2783 23.8901C78.4802 24.4807 77.4774 24.9201 76.3655 25.1674C75.6766 25.3253 73.7939 25.3596 73.0231 25.236V25.236ZM77.1909 16.0892C76.9658 15.1347 76.0381 14.2489 75.0285 14.0154C74.5783 13.9124 73.6165 13.9261 73.1595 14.0429C72.1431 14.3107 71.345 15.0935 71.0449 16.1236L71.0039 16.2746H74.1145H77.2318L77.1909 16.0892V16.0892Z" fill="white"/>
<path d="M115.179 25.2978C113.487 25.0232 111.959 24.1717 110.922 22.915C107.976 19.3511 108.671 13.7133 112.362 11.2412C113.508 10.4721 114.592 10.1425 115.963 10.1493C117.614 10.1493 118.869 10.6094 119.838 11.5571L120.193 11.9073V11.2068V10.5064H122.341H124.49V17.7167V24.927H122.341H120.193V24.2747V23.6223L119.702 24.0412C119.115 24.5356 118.317 24.9408 117.566 25.1399C117.028 25.2772 115.629 25.3665 115.179 25.2978V25.2978ZM117.955 21.0815C119.019 20.7519 119.797 19.9141 120.09 18.7811C120.227 18.2523 120.22 17.2017 120.084 16.6592C119.783 15.485 118.938 14.6197 117.785 14.3107C117.328 14.1871 116.236 14.1871 115.786 14.3107C114.92 14.5442 114.122 15.1897 113.753 15.9519C113.242 17.0094 113.242 18.4996 113.753 19.5159C113.965 19.9416 114.524 20.5528 114.906 20.7794C115.766 21.2807 116.939 21.3974 117.955 21.0815V21.0815Z" fill="white"/>
<path d="M88.2415 24.9957C87.3343 24.9064 86.6863 24.7416 86.0724 24.4326C85.0833 23.9313 84.5103 23.1828 84.1624 21.9261C84.0191 21.418 84.0123 21.2326 83.985 18.012L83.9645 14.6266H82.8049H81.6521V12.5665V10.5064H82.8117H83.9714V9.133V7.76648L84.5375 7.5948C87.0205 6.83944 88.0915 6.52356 88.1392 6.52356C88.1733 6.52356 88.2006 7.42313 88.2006 8.51498V10.5064H89.6672H91.1338V12.5665V14.6266H89.6672H88.1938L88.2143 17.4283C88.2347 20.6763 88.2143 20.5596 88.8691 20.8618C89.2307 21.0266 89.333 21.0403 90.1925 21.0472H91.1338V22.9768V24.9133L90.8473 24.9476C90.2743 25.03 88.835 25.0506 88.2415 24.9957Z" fill="white"/>
<path d="M51.2969 17.7167V10.5064H53.4456H55.5943V11.1725V11.8386L55.99 11.454C56.2014 11.2412 56.5357 10.9733 56.7199 10.8635C57.2315 10.5476 58.1933 10.2523 58.9777 10.163C62.2247 9.81283 64.7213 11.9416 64.9942 15.3064C65.0215 15.6291 65.0351 17.9296 65.0215 20.4154L65.0078 24.927H62.8932H60.7854L60.7649 20.4497L60.7445 15.9656L60.5808 15.5536C60.4648 15.2721 60.2943 15.018 60.0282 14.7502C59.7008 14.4206 59.5644 14.3382 59.1483 14.2145C58.7458 14.0909 58.548 14.0703 58.0637 14.0978C57.3406 14.139 57.0678 14.2214 56.638 14.5098C56.2287 14.7982 55.9081 15.2652 55.7308 15.842C55.6012 16.2678 55.5943 16.4738 55.5943 20.6077V24.927H53.4456H51.2969V17.7167V17.7167Z" fill="white"/>
<path d="M126.946 17.7167V10.5064H129.095H131.244V11.1588V11.8043L131.557 11.4678C132.239 10.733 133.194 10.3004 134.415 10.1699C136.066 9.99139 137.424 10.4446 138.392 11.509L138.836 11.9897L139.354 11.4678C140.152 10.6643 140.984 10.3073 142.369 10.1631C145.473 9.83345 147.86 11.7287 148.331 14.8875C148.413 15.4231 148.433 16.4875 148.433 20.2437V24.927H146.285H144.143L144.122 20.2437L144.102 15.5536L143.938 15.1965C143.59 14.4137 142.881 14.0292 141.892 14.091C140.991 14.1459 140.364 14.606 140.029 15.4437C139.873 15.8283 139.873 15.8352 139.852 20.3811L139.832 24.927H137.69H135.541V20.4017C135.541 16.0137 135.534 15.8626 135.398 15.4163C135.132 14.5442 134.456 14.0772 133.454 14.0772C132.519 14.0772 131.782 14.5716 131.441 15.4163L131.278 15.8283L131.257 20.3811L131.237 24.927H129.095H126.946V17.7167V17.7167Z" fill="white"/>
<path d="M150.684 17.7167V10.5064H152.833H154.982V17.7167V24.927H152.833H150.684V17.7167Z" fill="white"/>
<path d="M157.438 17.7167V10.5064H159.586H161.735V11.1794V11.8524L162.165 11.4335C162.397 11.2069 162.724 10.9391 162.895 10.8429C164.286 10.067 166.026 9.90215 167.595 10.4034C169.354 10.9665 170.616 12.491 171.039 14.5648C171.162 15.1828 171.162 15.0249 171.155 20.4841L171.148 24.927H169.034H166.919V20.6352C166.919 16.1373 166.906 15.9039 166.612 15.3133C166.414 14.9219 165.923 14.4549 165.5 14.2627C165.234 14.1391 165.05 14.1116 164.395 14.1116C163.734 14.1116 163.549 14.1391 163.222 14.2695C162.772 14.4481 162.288 14.8876 162.083 15.3064C161.742 15.9725 161.735 16.0755 161.735 20.6489V24.927H159.586H157.438V17.7167V17.7167Z" fill="white"/>
<path d="M189.635 11.8798V10.8498H189.293C188.973 10.8498 188.952 10.836 188.952 10.6781V10.5064H189.873H190.794V10.6781C190.794 10.8429 190.774 10.8498 190.419 10.8498H190.044V11.8798V12.9098H189.839H189.635V11.8798Z" fill="white"/>
<path d="M191.067 11.7082V10.5064H191.367H191.66L191.954 11.3854C192.117 11.8661 192.261 12.2712 192.274 12.285C192.322 12.3468 192.39 12.2026 192.67 11.3854L192.963 10.5408L193.243 10.5202L193.523 10.4996V11.7013V12.9099H193.311H193.093L193.127 12.0172C193.147 11.5296 193.141 11.1382 193.113 11.1588C193.086 11.1794 192.929 11.5777 192.765 12.0515C192.506 12.7863 192.445 12.9099 192.322 12.9099C192.199 12.9099 192.131 12.7794 191.851 12.0172C191.674 11.5296 191.517 11.1245 191.497 11.1245C191.476 11.1245 191.476 11.5296 191.503 12.0172L191.551 12.9099H191.312H191.067V11.7082V11.7082Z" fill="white"/>
<path d="M152.137 9.09869C151.435 8.87895 150.807 8.32273 150.493 7.63603C150.343 7.30642 150.309 7.14848 150.309 6.62659C150.309 6.09097 150.336 5.95363 150.5 5.58968C150.746 5.06092 151.271 4.53217 151.81 4.27809C152.164 4.11328 152.301 4.08582 152.833 4.08582C153.331 4.08582 153.515 4.12015 153.788 4.24376C154.572 4.6077 155.036 5.10899 155.261 5.84376C155.691 7.23088 154.927 8.67981 153.556 9.09182C153.113 9.2223 152.533 9.22916 152.137 9.09869Z" fill="white"/>
<path d="M28.718 29.5279C28.718 29.37 29.1682 28.6146 30.4848 26.5614L32.2515 23.794L32.9541 23.5537C34.0523 23.1691 34.8368 22.7228 35.5667 22.0635C35.8395 21.8232 35.9419 21.7682 36.167 21.7682C36.317 21.7682 36.4262 21.7957 36.4125 21.8232C36.4057 21.8575 35.594 23.1348 34.6185 24.6592C32.7563 27.5708 32.3538 28.0927 31.5421 28.6764C30.819 29.1983 29.9118 29.5622 29.0113 29.6927C28.718 29.7339 28.718 29.7339 28.718 29.5279V29.5279Z" fill="#FC2705"/>
<path d="M41.8354 13.0609C41.7945 13.0335 41.1397 11.715 40.3893 10.1356C39.3866 8.03433 39.0182 7.1897 39.0182 7.00429C39.0182 6.81201 39.2024 6.44807 39.8368 5.35622C40.287 4.58025 40.6758 3.89356 40.6963 3.82489C40.7236 3.74249 40.6758 3.62575 40.5735 3.51588C40.4848 3.41287 40.0346 2.92532 39.5776 2.4309C39.1205 1.93648 38.7454 1.47639 38.7454 1.40772C38.7454 1.29785 38.8068 1.29098 39.448 1.32532C41.5421 1.44206 43.3839 2.69871 44.257 4.60086C44.6731 5.50043 44.7823 6.00171 44.7755 7.03862C44.7755 8.04807 44.6322 8.72103 44.2434 9.49013C44.0183 9.94334 42.0128 13.1159 41.9514 13.1159C41.9309 13.1159 41.8832 13.0884 41.8354 13.0609V13.0609Z" fill="#FC2705"/>
<path d="M27.4901 29.6859C26.6783 29.5623 25.9211 29.2807 25.9211 29.1091C25.9211 29.0335 26.692 27.77 27.6401 26.2936L29.3523 23.6086L29.8707 23.6636C30.8052 23.7734 31.9649 23.7322 32.6061 23.5606C33.7794 23.2516 34.9322 22.5855 35.7985 21.7202C36.2282 21.2945 36.3374 21.2189 36.5352 21.2189C36.6648 21.2189 36.7671 21.2327 36.7671 21.2464C36.7671 21.3769 36.3169 21.9743 36.2214 21.9743C36.1532 21.9743 35.9486 22.1116 35.7712 22.2696C35.0413 22.9288 34.2569 23.3752 33.1586 23.7597L32.456 24L30.6893 26.7674C29.7138 28.285 28.9225 29.5691 28.9225 29.631C28.9225 29.7134 28.8134 29.734 28.295 29.7271C27.9471 29.7202 27.5856 29.7065 27.4901 29.6859V29.6859Z" fill="#EB2108"/>
<path d="M35.9691 17.0026C34.5366 13.9949 34.4411 13.7271 34.6867 13.4593C34.8299 13.3013 38.5953 7.3202 38.6635 7.14853C38.684 7.09359 38.9568 6.61977 39.2638 6.09102L39.83 5.12964L39.0933 4.33308C37.2924 2.3966 36.9036 1.95024 36.9036 1.84724C36.9036 1.7099 37.6199 1.46956 38.3702 1.35969L38.9091 1.27728L39.4821 1.89531C39.7959 2.23179 40.287 2.76054 40.5735 3.07642L41.0919 3.64638L40.9009 4.0378C40.7918 4.25067 40.403 4.94424 40.0346 5.56913C39.6663 6.20089 39.332 6.79145 39.2911 6.88072C39.2297 7.01805 39.3934 7.4026 40.5872 9.92278C41.3443 11.509 41.9924 12.8275 42.0333 12.8481C42.122 12.903 42.3607 12.5185 39.8232 16.5013C38.0428 19.2893 37.613 19.9142 37.4971 19.9142C37.3675 19.9142 37.156 19.509 35.9691 17.0026Z" fill="#EB2108"/>
<path d="M25.6755 29.0884C25.4504 28.9717 25.1639 28.8 25.0343 28.7107C24.6864 28.4704 24.0793 27.8661 24.0793 27.7562C24.0793 27.7081 24.7888 26.5545 25.6619 25.1948L27.2376 22.7159L27.5855 22.7502C27.7834 22.7639 28.1722 22.8875 28.4928 23.0317C29.3727 23.43 30.2527 23.6292 31.1395 23.6292C31.5556 23.6292 31.9717 23.6086 32.0672 23.5742L32.2377 23.5193L29.2158 17.1674C27.4696 13.5073 26.194 10.7399 26.194 10.63C26.194 10.5133 26.2281 10.4377 26.2895 10.4377C26.3372 10.4377 26.8011 11.1038 27.3127 11.9141C27.8311 12.7244 28.2881 13.3905 28.3359 13.3905C28.3768 13.3905 28.5405 13.5141 28.6838 13.6652C28.827 13.8163 29.0044 13.9399 29.0726 13.9399C29.1408 13.9399 29.2158 13.988 29.2363 14.0429C29.2636 14.0978 29.3182 14.1459 29.3659 14.1459C29.4137 14.1459 29.4682 14.1665 29.4819 14.2008C29.4955 14.2283 29.7002 14.345 29.9457 14.4549C30.1913 14.5716 30.4028 14.6815 30.4232 14.709C30.4778 14.7777 31.2827 14.9013 31.6852 14.9013C32.5992 14.9013 33.6225 14.4274 34.4274 13.6377C34.7412 13.3287 34.9936 13.0472 34.9936 12.9991C34.9936 12.951 35.0277 12.9098 35.0618 12.9098C35.1027 12.9098 35.13 12.8618 35.13 12.8068C35.13 12.745 35.1982 12.7038 35.3073 12.7038C35.4301 12.7038 35.471 12.7313 35.4506 12.7931C35.4165 12.8755 34.9867 13.5553 34.8298 13.7682C34.7548 13.8644 37.5106 19.7081 37.6402 19.7081C37.6812 19.7081 37.7221 19.7287 37.7221 19.7493C37.7221 19.7768 37.4902 20.1613 37.2037 20.6077C36.8149 21.2189 36.6443 21.4249 36.5352 21.4317C36.4601 21.4317 36.4329 21.4523 36.4806 21.4729C36.5215 21.4867 36.5625 21.5347 36.5625 21.5691C36.5625 21.5965 36.5215 21.6103 36.4738 21.5897C36.4192 21.5691 36.1873 21.7476 35.9349 22.0017C35.3687 22.551 34.8094 22.9356 34.0113 23.3201C33.0222 23.7871 32.4151 23.9176 31.2077 23.9244C30.6483 23.9313 30.0412 23.9107 29.8639 23.8832L29.5433 23.8352L27.8925 26.4171C26.9853 27.8386 26.2076 29.0678 26.1667 29.1571L26.0848 29.3081L25.6755 29.0884V29.0884Z" fill="#D71C0C"/>
<path d="M35.4712 12.3948C35.4712 12.2644 35.5053 12.1545 35.5394 12.1545C35.5803 12.1545 35.6076 12.1064 35.6076 12.0515C35.6076 11.9897 35.669 11.9485 35.7782 11.9485C35.8737 11.9485 35.9487 11.9691 35.9487 11.9897C35.9487 12.0721 35.5735 12.6352 35.5258 12.6352C35.4917 12.6352 35.4712 12.5253 35.4712 12.3948Z" fill="#D71C0C"/>
<path d="M35.9487 11.6395C35.9487 11.4266 35.9692 11.3991 36.1193 11.3991C36.3239 11.3991 36.3239 11.4197 36.1738 11.6807C36.0169 11.9416 35.9487 11.9347 35.9487 11.6395Z" fill="#D71C0C"/>
<path d="M37.5174 9.03004C37.5174 8.89957 37.5447 8.7897 37.5788 8.7897C37.6129 8.7897 37.6539 8.72103 37.6812 8.63176C37.7016 8.54936 37.7767 8.41202 37.8585 8.32961C37.9336 8.24721 37.9949 8.15794 37.9949 8.13047C37.9949 8.103 38.1314 7.86266 38.2951 7.59485C38.4588 7.32704 38.6566 6.97682 38.7385 6.81888L38.8749 6.53734L37.1559 4.66953C36.2077 3.64635 35.4301 2.78112 35.4165 2.74678C35.3892 2.66438 36.1736 2.11502 36.6511 1.88154L37.04 1.68927L37.2719 1.92275C38.4656 3.18627 40.1096 5.01974 40.1096 5.09528C40.1096 5.15021 39.8845 5.57597 39.6116 6.04979C39.3388 6.51674 39.0591 7.01116 38.984 7.14163C38.527 7.97253 37.688 9.27039 37.6061 9.27039C37.5516 9.27039 37.5174 9.18112 37.5174 9.03004Z" fill="#D71C0C"/>
<path d="M25.1026 9.13302C25.1026 9.00942 24.2636 8.16478 23.827 7.85577C23.2063 7.40255 22.3195 7.01113 21.5623 6.85319C20.7301 6.68152 19.9866 6.71586 19.168 6.9768C18.8474 7.0798 18.4723 7.16907 18.3222 7.16907L18.0562 7.17594L16.7737 4.47036C16.0643 2.98023 15.4845 1.74418 15.4845 1.70985C15.4845 1.68238 15.6277 1.61371 15.8119 1.55191C17.9743 0.851477 20.5187 1.66178 21.9239 3.50212C22.0876 3.70813 22.9266 5.00598 23.7998 6.37937C24.6729 7.75277 25.4301 8.95448 25.4915 9.03689C25.5938 9.20169 25.5938 9.20169 25.3482 9.20169C25.2118 9.20169 25.1026 9.16736 25.1026 9.13302V9.13302Z" fill="#D71C0C"/>
<path d="M23.9567 27.7081C23.6497 27.3579 22.6743 25.8335 22.6947 25.7442C22.7016 25.7167 23.3496 24.6935 24.1341 23.4712L25.5529 21.2463L25.3005 20.7382C25.0413 20.2232 24.8026 19.5914 24.5979 18.8841C24.3387 17.9571 23.5133 16.9957 22.5106 16.4257L22.1422 16.2129L20.1435 12.0034C19.0385 9.68925 18.1108 7.7665 18.0767 7.73217C17.988 7.6429 17.2172 8.21972 16.7738 8.70728C16.46 9.04376 15.2526 10.788 13.1448 13.9536C12.8174 14.448 12.7765 14.4824 12.565 14.4686L12.3399 14.4549L10.9756 11.5914L9.61816 8.72788L11.1666 6.30384C12.0125 4.97165 12.8447 3.70813 13.0016 3.49526C13.5473 2.77423 14.3727 2.12874 15.2049 1.77852C15.4504 1.67552 15.6755 1.60685 15.7028 1.63431C15.7301 1.66178 16.3168 2.87037 17.0057 4.32616C17.8584 6.1047 18.295 6.96307 18.3632 6.94247C18.4109 6.92874 18.6974 6.84633 18.9976 6.75019C19.7957 6.50298 20.8939 6.46178 21.767 6.64719C22.8857 6.88067 24.059 7.52616 24.7821 8.30213C24.9594 8.4944 25.1368 8.65234 25.1777 8.65234C25.2187 8.65234 25.2255 8.68668 25.205 8.72101C25.1845 8.76221 25.2118 8.78968 25.2732 8.78968C25.3483 8.78968 25.3755 8.82401 25.3483 8.89268C25.3278 8.94762 25.3483 8.99569 25.396 8.99569C25.4915 9.00255 26.4397 10.4996 26.426 10.6232C26.4192 10.6712 26.467 10.7124 26.5284 10.7124C26.6239 10.7124 26.6239 10.7262 26.5352 10.7811C26.4533 10.836 26.4533 10.8498 26.5693 10.8498C26.6511 10.8498 26.6784 10.8704 26.6307 10.9047C26.5829 10.9322 27.6266 13.1983 29.5775 17.3047C31.2419 20.7931 32.5789 23.6772 32.5516 23.7047C32.5244 23.7322 32.2174 23.7871 31.8695 23.8283C30.7167 23.9725 29.3047 23.7253 28.1177 23.1759C27.8381 23.0455 27.572 22.9356 27.5243 22.9356C27.4424 22.9356 24.3455 27.7081 24.2773 27.9416C24.2568 28.0034 24.1477 27.921 23.9567 27.7081V27.7081Z" fill="#C9170E"/>
<path d="M31.4328 15.1279C31.3646 15.1141 31.3101 15.0523 31.3101 14.9974C31.3101 14.9287 31.3987 14.9012 31.617 14.9012C31.8353 14.9012 31.924 14.9287 31.924 14.9974C31.924 15.0729 31.6989 15.1897 31.5829 15.1691C31.5624 15.1622 31.4942 15.1485 31.4328 15.1279Z" fill="#C9170E"/>
<path d="M30.3757 14.9905C30.287 14.9768 30.2188 14.9287 30.2188 14.8944C30.2188 14.86 30.1711 14.8326 30.1165 14.8326C30.0619 14.8326 30.0142 14.8051 30.0142 14.7639C30.0142 14.6884 30.362 14.6746 30.6895 14.7364C30.8327 14.7708 30.9009 14.8188 30.9009 14.9081C30.9009 15.0386 30.7509 15.066 30.3757 14.9905V14.9905Z" fill="#C9170E"/>
<path d="M29.3456 14.5099C29.2637 14.4961 29.2092 14.4481 29.2296 14.4137C29.2569 14.3794 29.2092 14.3519 29.1341 14.3519C29.0523 14.3519 28.9977 14.3107 29.0113 14.2695C29.0182 14.2215 28.9568 14.1734 28.8749 14.1597C28.7931 14.1459 28.5884 13.988 28.4179 13.8026C28.0973 13.4592 28.0154 13.2738 28.2201 13.3494C28.2815 13.3768 28.3565 13.3562 28.3906 13.3082C28.4315 13.2464 28.5475 13.3219 28.8203 13.6034C29.025 13.8163 29.2364 14.0086 29.2978 14.0361C29.3524 14.0567 29.4002 14.1047 29.4002 14.1459C29.4002 14.1803 29.4479 14.2146 29.5025 14.2146C29.5639 14.2146 29.6048 14.2764 29.6048 14.3863C29.6048 14.4824 29.5843 14.5511 29.5571 14.5511C29.5229 14.5442 29.4343 14.5236 29.3456 14.5099V14.5099Z" fill="#C9170E"/>
<path d="M35.8804 11.5708C35.8804 11.4403 35.9145 11.3305 35.9486 11.3305C35.9895 11.3305 36.0168 11.2824 36.0168 11.2275C36.0168 11.1725 36.0509 11.1245 36.085 11.1245C36.1259 11.1245 36.1532 11.0764 36.1532 11.0215C36.1532 10.9459 36.2283 10.9185 36.3988 10.9185H36.6444L36.5216 11.1107C36.1328 11.715 36.0577 11.8112 35.9759 11.8112C35.9145 11.8112 35.8804 11.7288 35.8804 11.5708V11.5708Z" fill="#C9170E"/>
<path d="M36.4944 10.6094C36.4944 10.4789 36.5285 10.369 36.5626 10.369C36.6035 10.369 36.6308 10.321 36.6308 10.266C36.6308 10.2111 36.6649 10.163 36.699 10.163C36.74 10.163 36.7672 10.115 36.7672 10.06C36.7672 9.9845 36.8423 9.95703 37.0128 9.95703H37.2584L37.1356 10.1493C36.7468 10.7536 36.6717 10.8497 36.5899 10.8497C36.5285 10.8497 36.4944 10.7673 36.4944 10.6094V10.6094Z" fill="#C9170E"/>
<path d="M37.1084 9.64804C37.1084 9.51757 37.1425 9.40769 37.1766 9.40769C37.2175 9.40769 37.2448 9.35963 37.2448 9.30469C37.2448 9.24975 37.2789 9.20169 37.313 9.20169C37.354 9.20169 37.3813 9.15362 37.3813 9.09868C37.3813 9.04375 37.429 8.99568 37.4836 8.99568C37.545 8.99568 37.5859 8.93387 37.5859 8.824C37.5859 8.72787 37.62 8.65233 37.6541 8.65233C37.695 8.65233 37.7223 8.59053 37.7223 8.51499C37.7223 8.43945 37.7564 8.37765 37.7905 8.37765C37.8315 8.37765 37.8588 8.32272 37.8588 8.26091C37.8588 8.19911 37.8997 8.09611 37.9543 8.04117C38.0361 7.94503 37.8792 7.74589 36.5832 6.3519C35.7782 5.48666 34.9528 4.58023 34.7414 4.34675L34.3662 3.91413L34.605 3.59139C34.7414 3.40598 35.0142 3.09696 35.2121 2.89782L35.5804 2.53387L37.1834 4.27121C38.0702 5.22572 38.8888 6.12529 39.0116 6.26263L39.2299 6.50984L38.9297 7.05233C38.766 7.34761 38.5818 7.67036 38.5136 7.78023C38.4454 7.88323 38.4181 7.96563 38.4454 7.96563C38.4795 7.96563 38.4522 7.99997 38.384 8.04117C38.3226 8.08237 38.2817 8.13731 38.3021 8.17851C38.3294 8.21284 38.309 8.24031 38.268 8.24031C38.2271 8.24031 38.2135 8.27465 38.2339 8.30898C38.2544 8.35018 38.2271 8.39825 38.1725 8.41885C38.1111 8.43945 38.077 8.48752 38.0975 8.51499C38.118 8.54246 38.0839 8.59053 38.0225 8.61113C37.9679 8.63173 37.9406 8.6798 37.9611 8.721C37.9815 8.75533 37.9679 8.78967 37.927 8.78967C37.886 8.78967 37.8724 8.824 37.8929 8.85834C37.9133 8.89954 37.886 8.94761 37.8315 8.96821C37.7701 8.98881 37.736 9.03688 37.7564 9.07121C37.811 9.15362 37.313 9.88838 37.2039 9.88838C37.1425 9.88838 37.1084 9.80598 37.1084 9.64804V9.64804Z" fill="#C9170E"/>
<path d="M21.8284 24.4669C21.2827 23.6154 20.8325 22.8944 20.8189 22.8669C20.812 22.8395 21.5078 21.7133 22.3673 20.3605L23.943 17.909L23.7862 17.6893C23.4724 17.2429 22.9403 16.8103 22.3332 16.5013C21.767 16.2197 21.6511 16.1854 21.0371 16.1373C20.2527 16.0824 19.7684 16.1648 19.1613 16.4807C18.6019 16.7622 18.4859 16.8446 18.4859 16.9408C18.4859 16.9888 18.4314 17.03 18.3632 17.03C18.2336 17.03 17.8038 17.4352 17.8038 17.5588C17.8038 17.6 17.7561 17.6755 17.6878 17.7236C17.5992 17.7991 17.5719 17.7991 17.5514 17.7373C17.531 17.6893 17.4968 17.6481 17.4627 17.6481C17.4286 17.6481 16.9239 18.4034 16.3304 19.3305C15.7369 20.2575 15.239 21.0129 15.2117 21.0129C15.0548 21.0129 14.816 20.5596 13.711 18.2318C13.0288 16.7966 12.449 15.6017 12.4217 15.5742C12.374 15.5193 12.1011 15.9176 9.90465 19.2275C8.91555 20.7176 8.62905 21.1021 8.30163 21.3631C7.49671 22.0086 6.60993 22.3176 5.50486 22.3176C4.71358 22.3176 4.10648 22.1734 3.44481 21.8163L2.90592 21.521L2.58531 20.8755C2.40796 20.5184 2.29199 20.1957 2.31928 20.1545C2.34656 20.1202 4.03827 17.4764 6.07104 14.2833C8.10381 11.0901 9.77505 8.47381 9.78187 8.46694C9.78869 8.46008 10.2321 9.38711 10.7778 10.527C11.3167 11.6669 11.9374 12.9785 12.1625 13.4386L12.5582 14.2764L12.9265 13.7476C13.1243 13.4592 13.9429 12.2438 14.741 11.0558C15.8938 9.33905 16.3031 8.77596 16.7465 8.34334C17.3127 7.78025 18.0016 7.30643 18.1653 7.36823C18.2131 7.38883 19.1749 9.33905 20.3004 11.7013L22.34 16.0069L22.7152 16.2129C23.7179 16.7828 24.5433 17.7511 24.8025 18.6781C25.0276 19.4472 25.1982 19.8936 25.5324 20.5734L25.8735 21.2738L24.3523 23.6498C23.5201 24.9545 22.8312 26.0257 22.8243 26.0257C22.8175 26.0257 22.3673 25.3253 21.8284 24.4669Z" fill="#B51111"/>
<path d="M35.4031 12.333C35.4031 12.0927 35.4099 12.0858 35.6486 12.0858H35.8942L35.751 12.3124C35.5531 12.6283 35.4031 12.642 35.4031 12.333V12.333Z" fill="#B51111"/>
<path d="M36.5626 10.4103C36.5626 10.2729 36.5967 10.1631 36.6308 10.1631C36.6717 10.1631 36.699 10.1013 36.699 10.0257C36.699 9.95019 36.7468 9.88839 36.8013 9.88839C36.8627 9.88839 36.9037 9.81972 36.9037 9.70985C36.9037 9.57938 36.4876 9.08496 35.096 7.58109L33.2883 5.62401L33.5885 5.16393C33.7454 4.90985 34.025 4.47036 34.2092 4.18882L34.5298 3.68066L34.7754 3.94848C34.9118 4.09955 35.7577 5.02659 36.6649 6.00169C38.3839 7.86951 38.4316 7.94504 38.1656 8.24032C38.0769 8.33646 38.0769 8.37079 38.1452 8.39826C38.2202 8.42573 38.2202 8.43946 38.1452 8.43946C38.0974 8.44633 38.0769 8.48066 38.0974 8.515C38.1179 8.5562 38.0906 8.58367 38.0292 8.58367C37.9542 8.58367 37.9269 8.618 37.9473 8.67981C37.9678 8.73474 37.9405 8.79654 37.8859 8.81714C37.8245 8.83775 37.8041 8.88581 37.8245 8.92702C37.845 8.96135 37.8382 8.99569 37.7973 8.99569C37.7563 8.99569 37.7427 9.04375 37.7632 9.09869C37.7904 9.16049 37.7632 9.20169 37.6949 9.20169C37.6267 9.20169 37.6063 9.2429 37.6267 9.3047C37.654 9.3665 37.6267 9.4077 37.5585 9.4077C37.4903 9.4077 37.4698 9.4489 37.4903 9.51071C37.5176 9.57938 37.4903 9.61371 37.4153 9.61371C37.3539 9.61371 37.3266 9.64118 37.3471 9.68238C37.4016 9.77165 37.1697 10.1631 37.0606 10.1631C37.0128 10.1631 36.9923 10.2111 37.0128 10.2661C37.0401 10.3279 37.0128 10.3691 36.9446 10.3691C36.8764 10.3691 36.8559 10.4103 36.8764 10.4721C36.9037 10.527 36.89 10.5751 36.8491 10.5751C36.8082 10.5751 36.7331 10.5957 36.6717 10.6163C36.5831 10.6506 36.5626 10.6094 36.5626 10.4103V10.4103Z" fill="#B51111"/>
<path d="M8.76542 28.0377C8.51985 27.5158 7.81725 26.0463 7.21697 24.7759L6.1119 22.4549H5.42295C4.20874 22.4549 3.2401 22.0772 2.442 21.2875C2.18279 21.0403 1.97815 20.8068 1.97815 20.7656C1.97815 20.7313 2.08047 20.5321 2.21008 20.3261L2.442 19.9553L2.77625 20.6351L3.1105 21.315L3.64939 21.6103C4.82949 22.242 6.0778 22.2695 7.25108 21.6927C8.1856 21.2394 8.35614 21.0403 9.9728 18.6094C12.3603 15.018 12.4217 14.9287 12.4967 15.066C12.5376 15.1347 13.1447 16.412 13.861 17.909C14.5704 19.4128 15.198 20.6695 15.2526 20.7107C15.3071 20.7519 15.3481 20.8068 15.3481 20.8274C15.3481 20.848 14.4067 22.345 13.2539 24.151C11.6713 26.6231 11.0369 27.557 10.6822 27.9347C10.2252 28.4223 9.48849 28.9785 9.30431 28.9785C9.24974 28.9785 9.01781 28.5665 8.76542 28.0377V28.0377Z" fill="#9C0816"/>
<path d="M20.1231 21.7888C19.6524 21.0472 19.2022 20.333 19.1135 20.1888L18.9634 19.9347L20.1435 18.0875L21.3236 16.2403L21.0508 16.1854C20.2527 16.0343 18.9157 16.5356 18.1449 17.2841C17.9266 17.4901 17.7765 17.5794 17.6401 17.5794C17.4764 17.5794 17.4559 17.5656 17.5309 17.4764C17.5787 17.4214 17.5923 17.3734 17.5582 17.3734C17.5309 17.3734 17.6264 17.2498 17.7697 17.0987C17.9129 16.9476 18.0903 16.824 18.1653 16.824C18.2335 16.824 18.2745 16.7965 18.2472 16.7622C18.1926 16.6729 18.9498 16.2335 19.4614 16.0549C20.0071 15.8695 21.0712 15.8283 21.6715 15.9656C22.2036 16.0892 22.9198 16.4463 23.3496 16.8103C23.7111 17.1056 24.2159 17.7442 24.2159 17.9021C24.2159 17.9571 23.5201 19.0901 22.6674 20.4154C21.8216 21.7476 21.0917 22.9013 21.0439 22.9768C20.9757 23.1141 20.8939 23.0043 20.1231 21.7888Z" fill="#9C0816"/>
<path d="M32.9473 14.7021C32.9473 14.4961 32.9541 14.4892 33.2542 14.4892C33.5339 14.4892 33.5612 14.4755 33.5612 14.3175C33.5612 14.1596 33.5885 14.1459 33.8682 14.1459C34.0387 14.1459 34.1751 14.1733 34.1751 14.2077C34.1751 14.3244 33.493 14.7433 33.1042 14.86C32.9677 14.9081 32.9473 14.8875 32.9473 14.7021Z" fill="#9C0816"/>
<path d="M34.673 13.6858C34.5707 13.6515 34.5571 13.2944 34.6457 13.1227C34.7003 13.0197 34.5093 12.7794 33.5475 11.7356C32.9063 11.042 32.0945 10.1562 31.7398 9.77165L31.0918 9.06436L32.2719 7.21715C32.9267 6.19397 33.4793 5.38367 33.4997 5.41114C33.5202 5.43861 34.3729 6.36565 35.3961 7.47123C36.4125 8.56994 37.2447 9.49698 37.2447 9.51758C37.2447 9.53818 37.2106 9.62058 37.1696 9.69612C37.1151 9.79912 37.1151 9.84719 37.1696 9.88839C37.2993 9.96393 37.1833 10.1493 37.0332 10.115C36.965 10.0944 36.9036 10.115 36.9036 10.1562C36.9036 10.1974 36.9377 10.2317 36.9718 10.2317C37.1151 10.2317 37.0332 10.3691 36.89 10.3759C36.8013 10.3759 36.774 10.3965 36.8218 10.4171C36.9377 10.4652 36.9241 10.5751 36.7945 10.5751C36.7399 10.5751 36.7126 10.6026 36.7331 10.6438C36.7876 10.733 36.5557 11.1244 36.4466 11.1244C36.3988 11.1244 36.3784 11.1725 36.3988 11.2274C36.4261 11.2893 36.3988 11.3305 36.3306 11.3305C36.2624 11.3305 36.2419 11.3717 36.2624 11.4335C36.2897 11.5021 36.2624 11.5365 36.1874 11.5365C36.126 11.5365 36.0987 11.5708 36.1192 11.6051C36.1737 11.7013 35.8054 12.2918 35.6894 12.2918C35.6417 12.2918 35.6212 12.3262 35.6417 12.3674C35.6894 12.436 35.0755 13.4386 34.8708 13.6171C34.8094 13.6721 34.7139 13.6996 34.673 13.6858V13.6858Z" fill="#9C0816"/>
<path d="M5.87999 29.6653C3.42429 29.3219 1.43927 27.3992 1.01634 24.9545C0.968595 24.6867 0.948131 24.158 0.968595 23.6979C1.01634 22.5854 1.33695 21.6515 2.03273 20.6146C2.07366 20.5459 2.22373 20.6558 2.5989 21.0335C3.43793 21.8713 4.37246 22.2489 5.6276 22.2489H6.31656L7.83772 25.4627C8.67675 27.2275 9.41346 28.7107 9.47485 28.7588C9.61128 28.8687 9.57035 28.8962 8.96325 29.1846C8.09011 29.5966 6.82134 29.7957 5.87999 29.6653V29.6653Z" fill="#850318"/>
<path d="M18.3563 19.0078C17.9265 18.3279 17.5377 17.7305 17.49 17.6824C17.4149 17.6069 17.4763 17.5176 17.8379 17.1812C18.3427 16.7005 18.9293 16.3365 19.5296 16.1236C19.8638 16.0069 20.1026 15.9726 20.7028 15.9726C21.9307 15.9794 21.9443 15.8009 20.5255 18.0189C19.8502 19.0696 19.2635 20.0035 19.2158 20.0859C19.1408 20.2301 19.0794 20.1545 18.3563 19.0078Z" fill="#850318"/>
<path d="M30.4916 14.9494C30.2119 14.8601 29.8163 14.7022 29.6117 14.5923C29.1205 14.3245 28.2883 13.5417 28.3429 13.4043C28.4111 13.2258 31.2079 8.8584 31.2488 8.8584C31.2761 8.8584 32.1356 9.7717 33.1588 10.891C34.4344 12.2713 35.021 12.9648 35.0142 13.0541C35.0006 13.1228 35.0278 13.1846 35.0619 13.1846C35.1029 13.1846 35.1302 13.212 35.1302 13.2532C35.1302 13.2876 35.0824 13.3013 35.021 13.2738C34.8846 13.2258 34.7618 13.3975 34.8778 13.473C34.9323 13.5142 34.8164 13.6721 34.5026 13.9674C34.1547 14.3039 34.0115 14.4 33.9091 14.3726C33.8 14.3451 33.7727 14.3588 33.8 14.4344C33.8409 14.5442 33.4726 14.7434 33.302 14.709C33.2475 14.6953 33.1724 14.7365 33.1315 14.7914C32.8859 15.1142 31.3579 15.2035 30.4916 14.9494V14.9494Z" fill="#850318"/>
</svg>
