<svg width="205" height="28" viewBox="0 0 205 28" fill="none" xmlns="http://www.w3.org/2000/svg">
<path fill-rule="evenodd" clip-rule="evenodd" d="M190.035 0.0844378C181.026 1.02473 175.613 7.92193 177.16 16.4891C178.809 25.623 189.503 29.9074 199.758 25.5421C201.326 24.8749 204.42 23.2075 204.859 22.7935C204.943 22.714 204.732 22.2882 203.884 20.8268C203.289 19.8009 202.789 18.9262 202.773 18.8826C202.758 18.8396 202.2 19.1655 201.534 19.6077C192.925 25.3212 183.157 22.8099 182.207 14.6393C181.135 5.41414 191.826 1.27633 201.368 7.2235L201.719 7.4418L202.992 5.32037L204.266 3.19843L204.031 3.07801C199.695 0.858708 194.093 -0.339335 190.035 0.0844378ZM0 13.7072V27.0819H2.51856H5.0366L5.05863 17.6047L5.08067 8.12742L13.2851 17.6047L21.4894 27.0819H23.8158H26.1422V13.7072V0.331938H23.6237H21.1056L21.0836 9.45049L21.0616 18.5696L13.1733 9.45049L5.28563 0.331938H2.64307H0V13.7072ZM39.4796 3.81282C33.1855 4.41082 29.4873 8.31343 29.4873 14.3585C29.4873 21.021 33.6513 24.7734 41.0373 24.7668C47.9699 24.7606 52.037 21.4571 52.5504 15.4156C53.1843 7.96037 47.6394 3.03855 39.4796 3.81282ZM84.295 3.81282C78.0009 4.41082 74.3022 8.31343 74.3022 14.3585C74.3022 21.0041 78.457 24.7627 85.8092 24.7688C92.7459 24.775 96.8406 21.4729 97.3633 15.451C98.012 7.9742 92.4681 3.03701 84.295 3.81282ZM52.284 4.04341C52.2835 4.07979 54.2865 8.73156 56.7349 14.38L61.1868 24.65L63.4015 24.6479L65.6162 24.6453L70.021 14.4645C72.4432 8.86479 74.4508 4.21456 74.4816 4.13052C74.5349 3.98551 74.396 3.97833 72.0414 3.99986L69.5449 4.02291L66.495 11.123C64.8173 15.0277 63.4225 18.2226 63.3948 18.2232C63.3672 18.2232 61.9718 15.0282 60.2942 11.123L57.2437 4.02291L54.7641 3.99986C53.4 3.98756 52.284 4.00703 52.284 4.04341ZM100.747 14.3134V24.6505H102.788H104.829V18.2954C104.829 14.8007 104.856 11.968 104.89 12.0013C104.923 12.0346 106.516 14.8709 108.429 18.3036C110.342 21.7368 111.947 24.5562 111.994 24.5685C112.043 24.5813 113.664 21.7522 115.599 18.2826L119.117 11.9737L119.139 18.3118L119.161 24.6505H121.245H123.329V14.3134V3.9768L121.023 3.99986L118.718 4.02291L115.397 10.0767C113.57 13.4059 112.056 16.1499 112.032 16.1735C112.009 16.197 110.485 13.473 108.646 10.1197L105.303 4.02291L103.026 3.99986L100.747 3.9768V14.3134ZM134.851 4.26068C134.785 4.41646 132.786 8.94114 130.408 14.3149C128.031 19.6887 126.031 24.2129 125.965 24.3681L125.845 24.6505H128.183H130.521L131.542 22.24C132.103 20.9144 132.601 19.7809 132.647 19.7205C132.713 19.6349 133.689 19.6159 137.199 19.6339L141.666 19.6564L142.728 22.1314L143.789 24.6069L146.109 24.63C147.385 24.6428 148.429 24.6382 148.429 24.6202C148.429 24.6023 146.383 19.9603 143.884 14.3052L139.338 4.02291L137.154 3.99986L134.97 3.9768L134.851 4.26068ZM146.17 5.97729V7.97472H149.775H153.379V16.3123V24.6505H155.724H158.069V16.3123V7.97472H161.673H165.278V5.97729V3.97987H155.724H146.17V5.97729ZM168.752 14.3149V24.6505H171.097H173.442V14.3149V3.97987H171.097H168.752V14.3149ZM42.3107 7.83687C49.8377 9.28805 49.791 19.4514 42.2507 20.8765C38.7504 21.538 35.1481 19.3341 34.3067 16.0162C33.0979 11.2491 37.3689 6.88479 42.3107 7.83687ZM87.1256 7.83687C94.6526 9.28805 94.6059 19.4514 87.0662 20.8765C83.5658 21.538 79.9635 19.3341 79.1221 16.0162C77.9133 11.2491 82.1838 6.88479 87.1256 7.83687ZM138.526 12.2955C139.257 14.0034 139.874 15.4689 139.897 15.5524C139.935 15.6949 139.762 15.7046 137.139 15.7046C134.51 15.7046 134.344 15.6954 134.396 15.5524C134.611 14.9626 137.105 9.19377 137.145 9.19274C137.173 9.19172 137.794 10.5881 138.526 12.2955Z" fill="white"/>
</svg>
