<svg width="182" height="64" viewBox="0 0 182 64" fill="none" xmlns="http://www.w3.org/2000/svg">
<g clip-path="url(#clip0_1804_11)">
<path d="M26.6279 45.2147L32.1983 35.7837L37.7169 45.3145L48.9509 26.3294L43.4127 26.3293L48.9354 16.8403H65.3184L37.6732 64L26.6279 45.2147Z" fill="white"/>
<path d="M20.8928 35.4601L26.6283 45.2147L32.1987 35.7837L32.2008 35.78L26.7271 26.3307H37.8323L43.355 16.8417L20.9749 16.8415L16.6255 9.49239L47.7292 9.54285L53.2515 0.0546988L0 0L15.5833 26.3307H15.6076L20.8928 35.4601Z" fill="#D71A20"/>
<path d="M84.4727 20.2924H75.951V25.0059H82.9336V28.491H75.951V35.6612H72.1035V16.8074H84.4727V20.2924Z" fill="white"/>
<path d="M103.168 27.8625C103.168 32.9188 99.7482 36.004 95.1881 36.004C90.5996 36.004 87.208 32.9188 87.208 27.8625V16.8074H91.0556V28.1482C91.0556 30.9763 92.8511 32.4331 95.1881 32.4331C97.5536 32.4331 99.3207 30.9763 99.3207 28.1482V16.8074H103.168V27.8625Z" fill="white"/>
<path d="M124.258 20.5494L121.522 22.8063C120.268 21.0638 118.587 20.0352 116.278 20.0352C112.63 20.0352 110.236 22.6349 110.236 26.2341C110.236 29.8906 112.716 32.5475 116.506 32.5475C118.701 32.5475 120.439 31.6333 121.465 30.205V28.6623H116.278V25.32H125.313V30.8905C123.66 33.8615 120.354 36.004 116.335 36.004C110.692 36.004 106.274 31.7762 106.274 26.2341C106.274 20.6923 110.663 16.4645 116.335 16.4645C119.698 16.4645 122.463 17.9786 124.258 20.5494Z" fill="white"/>
<path d="M139.478 33.2045H131.783L130.728 35.6612H126.596L135.003 16.4645H136.286L144.665 35.6612H140.532L139.478 33.2045ZM135.63 23.6633L133.122 30.0335H138.138L135.63 23.6633Z" fill="white"/>
<path d="M159.228 20.0352L156.606 22.0635C155.694 20.6923 154.554 19.8926 153.015 19.8926C151.761 19.8926 150.678 20.4638 150.678 21.7208C150.678 22.8063 151.505 23.2633 152.873 23.8917L155.01 24.8345C157.974 26.1486 159.656 27.6624 159.656 30.3477C159.656 33.8615 156.806 36.004 153.072 36.004C149.823 36.004 147.201 34.3471 145.805 31.8333L148.455 29.8335C149.481 31.2618 150.821 32.5759 153.072 32.5759C154.725 32.5759 155.751 31.8047 155.751 30.4906C155.751 29.2623 154.839 28.8339 153.357 28.1482L151.334 27.234C148.655 26.0057 146.774 24.4632 146.774 21.8064C146.774 18.5498 149.481 16.4645 153.015 16.4645C156.008 16.4645 158.117 17.9786 159.228 20.0352Z" fill="white"/>
<path d="M182 26.2341C182 31.7762 177.496 36.004 171.967 36.004C166.438 36.004 161.992 31.7762 161.992 26.2341C161.992 20.6923 166.438 16.4645 171.967 16.4645C177.496 16.4645 182 20.6923 182 26.2341ZM165.954 26.2341C165.954 29.8906 168.49 32.433 171.996 32.433C175.444 32.433 178.038 29.8906 178.038 26.2341C178.038 22.6063 175.444 20.0352 171.996 20.0352C168.49 20.0352 165.954 22.6063 165.954 26.2341Z" fill="white"/>
</g>
<defs>
<clipPath id="clip0_1804_11">
<rect width="182" height="64" fill="white"/>
</clipPath>
</defs>
</svg>
