<svg width="85" height="70" fill="none" xmlns="http://www.w3.org/2000/svg"><path d="M16.557.68v31.054H9.391V.68h7.166zM7.225.627v31.107H.059V.627h7.166zm67.7-.015V19.38S63.038 6.019 61.407 4.513C58.214 1.567 54.221 0 49.381 0 43.19 0 39.32 2.466 37.226 4.56c-2.792 2.792-4.798 7.305-4.798 11.773 0 4.56 1.859 8.747 4.837 11.539 2.327 2.233 6.28 4.56 12.096 4.56 5.211 0 9.12-1.769 12.004-4.56a15.792 15.792 0 0 0 4.374-7.692l10.09 11.552h6.087V.612h-6.99zm-18.77 22.56c-1.49 1.49-3.724 2.653-6.888 2.653-2.419 0-4.652-.651-6.654-2.559-1.907-1.86-2.838-4.14-2.838-6.979 0-3.443 1.396-5.723 2.745-7.026 1.674-1.674 4.095-2.653 6.793-2.653 2.838 0 5.304 1.163 6.84 2.653 1.395 1.396 2.699 3.77 2.699 6.98.002 3.581-1.488 5.769-2.698 6.931z" fill="#F5F5F5"/><path d="M25.265 19.01a9.761 9.761 0 0 0 4.326-2.362c2.002-1.954 2.42-4.369 2.42-6.323 0-3.443-1.396-5.723-2.7-6.978-1.49-1.396-3.954-2.745-7.91-2.745H9.392v5.506h9.964c.93 0 2.791.018 3.954.902.606.465 1.443 1.52 1.443 3.289 0 1.535-.651 2.44-1.163 2.952-1.21 1.21-2.978 1.277-4.281 1.277H17.65v5.02l8.404 12.145h8.747l-9.537-12.682zm42.423 32.277v6.154h8.083c-.641 2.428-2.123 3.687-2.369 3.884-.74.642-2.468 1.77-5.726 1.77-2.518 0-4.69-.644-6.663-2.57-2.46-2.401-3.328-5.384-3.721-7.727.393-2.342 1.261-5.321 3.72-7.723 1.975-1.927 4.148-2.563 6.664-2.563 3.258 0 4.986 1.143 5.726 1.785.222.176 1.436 1.24 2.147 3.214l6.406-3.11c-.745-1.58-1.698-3.07-2.895-4.315-3.653-3.8-7.83-4.492-11.729-4.492-3.95 0-8.193.642-12.044 4.591a16.546 16.546 0 0 0-1.675 2.02c-.003-.006-.006-.009-.01-.014v.03l-.035.048a11.55 11.55 0 0 0-1.54-1.885c-3.306-3.208-7.601-4.788-12.734-4.788-6.565 0-10.66 2.618-12.883 4.837-.54.537-1.047 1.247-1.52 2.064l-.066-.116-.003-.002c.002-.001.002-.003.003-.005-.424-.53-.88-1-1.368-1.473-4.048-3.9-8.64-4.512-12.982-4.512H0v32.872h10.718c2.764 0 8.442-.346 12.982-4.937.358-.358.697-.735 1.019-1.128a17.18 17.18 0 0 0 1.689 1.967C28.63 67.382 32.727 70 39.29 70c5.133 0 9.428-1.579 12.735-4.788a11.574 11.574 0 0 0 1.541-1.887l.032.047.002.03c.003-.006.007-.009.01-.014a16.54 16.54 0 0 0 1.674 2.02c3.851 3.95 8.095 4.59 12.045 4.59 3.899 0 8.035-.691 11.688-4.492 3.653-3.8 5.025-9.873 5.025-13.87v-.35H67.688v.001zm-47.325 3.724c-.311.864-1.215 3.927-3.179 5.58-2.464 2.077-5.922 2.193-7.502 2.193H7.61v-20.08h2.07c2.321 0 5.53.37 7.997 2.838 1.284 1.284 2.455 3.629 2.954 7.083.045.34.098.676.157 1.012a26.537 26.537 0 0 1-.426 1.374zm27.708 3.04a9.237 9.237 0 0 1-1.572 2.124c-1.63 1.58-4.246 2.815-7.256 2.815-2.863 0-5.43-1.037-7.208-2.815a8.901 8.901 0 0 1-1.04-1.212l.015-.002s-1.529-2.192-2.516-6.163c.987-3.972 2.516-6.165 2.516-6.165l-.015-.003a8.907 8.907 0 0 1 1.04-1.213c1.776-1.776 4.343-2.814 7.208-2.814 3.01 0 5.627 1.234 7.256 2.814a9.27 9.27 0 0 1 1.572 2.125 14.592 14.592 0 0 1 1.723 4.19c.084.355.162.71.237 1.064-.075.355-.153.71-.237 1.064a14.595 14.595 0 0 1-1.723 4.191z" fill="#F5F5F5"/><path d="M65.748 20.28 56.822 9.978s4.27 5.67.367 11.93l3.46 6.553c.002 0 3.928-2.928 5.099-8.18z" fill="url(#a)"/><path d="M17.792 19.73s3.274.599 7.513-.601l9.498 12.725h-8.73L17.792 19.73z" fill="url(#b)"/><path d="M57.123 51.656c.045.358.099.742.167 1.144.393-2.342 1.261-5.322 3.721-7.723 1.974-1.927 4.147-2.563 6.664-2.563 3.258 0 4.986 1.143 5.725 1.784.222.177 1.437 1.24 2.148 3.214l6.406-3.109c-.745-1.58-1.699-3.07-2.896-4.315-3.653-3.8-7.829-4.492-11.728-4.492-3.95 0-8.194.641-12.045 4.59a16.546 16.546 0 0 0-1.674 2.02l-.01-.013-.002.03-.034.048c1.98 2.957 3.231 7.063 3.558 9.385z" fill="url(#c)"/><path d="M50.712 56.187c-.241-1.127-.443-2.257-.681-3.39-.075.354-.153.709-.237 1.063a14.689 14.689 0 0 1-1.723 4.191 9.236 9.236 0 0 1-1.572 2.125c-1.63 1.578-4.246 2.814-7.256 2.814-2.863 0-5.43-1.036-7.208-2.814a8.907 8.907 0 0 1-1.04-1.213l.015-.002s-1.529-2.192-2.516-6.165c-.318-1.306-.452-3.505-.938-5.233l-6.417 7.468c1.132 3.878 3 7.865 5.27 10.13 2.224 2.219 6.32 4.837 12.884 4.837 5.133 0 9.428-1.579 12.734-4.788a11.57 11.57 0 0 0 1.542-1.886c-1.187-1.702-2.209-4.102-2.857-7.137z" fill="url(#d)"/><path d="M67.688 51.287v6.154h8.083c-.64 2.429-2.123 3.687-2.369 3.884-.74.642-2.468 1.77-5.726 1.77-2.518 0-4.69-.644-6.663-2.57-2.88-2.812-3.579-6.423-3.888-8.869-.407-2.877-2.228-8.495-5.096-11.273-3.307-3.208-7.601-4.789-12.734-4.789-6.565 0-10.66 2.619-12.884 4.837-.555.554-1.03 1.297-1.532 2.03 0 0 .91 1.377 1.72 3.482.94 2.442 1.709 6.105 1.896 6.853.988-3.972 2.517-6.164 2.517-6.164l-.015-.002a8.907 8.907 0 0 1 1.04-1.213c1.776-1.776 4.343-2.814 7.207-2.814 3.01 0 5.627 1.234 7.257 2.814a9.27 9.27 0 0 1 1.572 2.125 14.592 14.592 0 0 1 1.723 4.19c.353 1.489.6 2.977.918 4.455.51 3.114 1.69 5.48 2.887 7.187l.002.029.01-.013c.58.823 1.16 1.493 1.674 2.02 3.85 3.949 8.095 4.59 12.045 4.59 3.899 0 8.035-.691 11.688-4.492 3.653-3.8 5.025-9.873 5.025-13.871v-.35H67.688z" fill="url(#e)"/><path d="M20.363 55.012c-.31.863-1.215 3.926-3.179 5.58-2.464 2.076-5.922 2.192-7.502 2.192h-.194a23.887 23.887 0 0 0-1.163 6.478h2.393c2.764 0 8.442-.347 12.982-4.938a15.31 15.31 0 0 0 1.019-1.128c-1.968-2.664-3.307-5.992-3.93-9.558-.165.57-.308 1.04-.426 1.374z" fill="url(#f)"/><path d="M67.687 51.287v6.154h8.084c-.641 2.428-2.123 3.687-2.37 3.884-.74.642-2.467 1.77-5.725 1.77-2.518 0-4.691-.644-6.664-2.57-2.46-2.401-3.327-5.384-3.72-7.727-.069.401-.122.784-.168 1.142-.328 2.322-1.577 6.427-3.556 9.385.012.016.021.032.033.047l.001.03.01-.014c.58.823 1.161 1.493 1.674 2.02 3.851 3.949 8.095 4.59 12.045 4.59 3.9 0 8.035-.691 11.688-4.492 3.653-3.8 5.025-9.873 5.025-13.87v-.35H67.687v.001z" fill="#F5F5F5"/><path d="M9.392 6.13h7.164v5.565H9.392V6.129z" fill="url(#g)"/><defs><linearGradient id="a" x1="57.369" y1="20.641" x2="65.879" y2="12.132" gradientUnits="userSpaceOnUse"><stop stop-opacity="0"/><stop offset="1" stop-opacity=".5"/></linearGradient><linearGradient id="b" x1="26.162" y1="25.766" x2="18.962" y2="15.513" gradientUnits="userSpaceOnUse"><stop stop-opacity="0"/><stop offset="1" stop-opacity=".5"/></linearGradient><linearGradient id="c" x1="67.784" y1="42.965" x2="47.381" y2="60.454" gradientUnits="userSpaceOnUse"><stop stop-opacity="0"/><stop offset="1" stop-opacity=".5"/></linearGradient><linearGradient id="d" x1="38.356" y1="57.824" x2="50.744" y2="45.435" gradientUnits="userSpaceOnUse"><stop stop-opacity="0"/><stop offset="1" stop-opacity=".5"/></linearGradient><linearGradient id="e" x1="39.448" y1="52.796" x2="12.463" y2="52.796" gradientUnits="userSpaceOnUse"><stop stop-opacity="0"/><stop offset="1" stop-opacity=".5"/></linearGradient><linearGradient id="f" x1="14.342" y1="65.188" x2="27.242" y2="55.202" gradientUnits="userSpaceOnUse"><stop stop-opacity="0"/><stop offset="1" stop-opacity=".5"/></linearGradient><linearGradient id="g" x1="12.974" y1="11.452" x2="12.974" y2="3.679" gradientUnits="userSpaceOnUse"><stop stop-opacity="0"/><stop offset="1" stop-opacity=".5"/></linearGradient></defs></svg>