<svg width="161" height="57" fill="none" xmlns="http://www.w3.org/2000/svg"><path d="M83.807 0H82.18v56.48h1.627V45.6h20.586v-6.587h-15.84V31.44H102.1V24.8H88.553v-7.333h15.84v-6.64H83.807V0zm-64.08 32.16-5.84-9.467L6.393 10.96l-.08-.107H.1V45.6h6.907V24.24l5.146 8.32L20.42 45.6h6.267V10.853h-6.934V32.16h-.026zM30.553 45.6h22.774v-6.587h-15.84V31.44h13.546V24.8H37.487v-7.333h15.84v-6.64H30.553V45.6zm25.574-28.053H64.1v28.08h6.933v-28.08h7.92v-6.694H56.127v6.694zm71.386 14.666-5.84-9.466-7.493-11.734-.08-.133h-6.213v34.747h6.88v-21.36l5.146 8.32 8.267 13.04h6.267v-34.72h-6.934v21.306zm9.76-21.306V17.6h7.974v28.08h6.933V17.6h7.92v-6.693h-22.827z" fill="#fff"/></svg>