<svg width="192" height="48" fill="none" xmlns="http://www.w3.org/2000/svg"><path fill-rule="evenodd" clip-rule="evenodd" d="M25.692.517a1.88 1.88 0 0 0-.525.294c-.157.124-.363.283-.46.353-.095.071-.292.22-.437.333-.268.21-.654.479-.909.634a2.596 2.596 0 0 0-.33.262 5.21 5.21 0 0 1-.505.394c-.176.12-.534.376-.794.569-.261.192-.616.448-.79.568-.173.12-.409.298-.524.394-.116.096-.35.273-.52.393-.171.12-.418.307-.55.415-.13.109-.277.197-.326.197-.048 0-.137.08-.197.175-.06.096-.153.175-.206.175-.216 0-1.39 1.17-1.39 1.385 0 .091-.072.26-.161.375-.09.114-.21.353-.267.53-.057.175-.161.367-.231.425a.384.384 0 0 0-.127.258c0 .084-.073.246-.162.36a2.08 2.08 0 0 0-.267.53c-.058.177-.162.369-.231.426a.385.385 0 0 0-.127.258c0 .084-.08.252-.175.375-.096.122-.175.262-.175.31 0 .073-.37.829-.693 1.415-.218.395-.97 1.979-.97 2.041.001.041-.077.174-.174.297-.096.122-.175.29-.175.373 0 .083-.073.246-.162.36-.09.115-.194.307-.231.428-.037.12-.141.312-.23.427-.09.114-.164.276-.164.36 0 .083-.073.245-.162.36a1.61 1.61 0 0 0-.231.427c-.038.12-.142.312-.23.427-.09.114-.164.277-.164.36 0 .083-.073.245-.163.36-.09.114-.193.307-.23.427-.038.12-.142.312-.23.427-.09.115-.164.277-.164.36 0 .083-.073.245-.163.36-.09.115-.193.307-.23.427-.038.12-.142.313-.231.427-.09.115-.163.277-.163.36 0 .083-.073.246-.162.36a1.418 1.418 0 0 0-.219.443.878.878 0 0 1-.172.35c-.063.063-.162.25-.22.416a1.673 1.673 0 0 1-.222.437 1.054 1.054 0 0 0-.174.372.87.87 0 0 1-.17.35c-.064.063-.163.25-.22.415a1.674 1.674 0 0 1-.223.437 1.052 1.052 0 0 0-.175.372.87.87 0 0 1-.17.35c-.063.063-.162.25-.22.416a1.672 1.672 0 0 1-.222.437 1.119 1.119 0 0 0-.18.392c-.033.14-.137.352-.23.47-.093.12-.17.284-.17.366 0 .083-.074.217-.165.299a.88.88 0 0 0-.217.414c-.03.146-.133.365-.23.488-.096.123-.175.293-.175.376 0 .084-.057.2-.126.258-.07.057-.173.25-.23.426-.057.176-.152.38-.212.452-.06.072-.157.279-.215.46-.058.18-.138.327-.179.327-.04 0-.12.148-.179.328-.058.18-.154.387-.214.46-.06.071-.156.275-.212.452-.057.176-.16.368-.23.426a.384.384 0 0 0-.127.257c0 .084-.073.246-.162.361-.089.115-.21.353-.267.53-.058.176-.161.368-.231.426a.384.384 0 0 0-.127.258c0 .083-.073.246-.162.36a2.09 2.09 0 0 0-.267.53c-.058.176-.162.369-.231.426a.384.384 0 0 0-.127.258c0 .083-.079.252-.175.374-.096.123-.175.252-.175.287 0 .122-.636 1.395-.712 1.424-.041.016-.075.075-.075.131 0 .057-.119.338-.262.627-.144.289-.262.575-.262.637 0 .061-.06.135-.132.162-.08.03-.13.16-.127.326l.003.275.13-.24c.072-.133.189-.242.26-.242.07 0 .128-.033.128-.074 0-.041.088-.172.196-.292.109-.12.473-.527.81-.906a99.364 99.364 0 0 1 1.87-2.058c.295-.311.884-.967 1.715-1.91.635-.72.96-1.082 1.18-1.32.121-.128.535-.582.92-1.007.384-.425.777-.857.874-.96.096-.103.41-.46.697-.793.287-.334.602-.688.7-.788.098-.1.433-.466.745-.814.313-.347.726-.795.919-.996.192-.2.45-.49.573-.642.248-.307 1.224-1.403 1.832-2.056.483-.519 1.483-1.611 1.662-1.815l.7-.798c.639-.73.568-.652 1.573-1.743 1.033-1.12 1.51-1.642 1.66-1.815l.47-.548c.19-.219.663-.746 1.053-1.17.39-.425.741-.829.78-.897.119-.212.735-.16.859.073.058.108.152.236.211.284.06.048.318.366.576.705.552.726 1.298 1.68 2.414 3.087a160.267 160.267 0 0 1 1.268 1.616c.517.651.791 1.001.923 1.177.083.11.229.297.326.416.343.423.563.7.827 1.045.494.645.571.74.771.969.11.125.35.43.534.678.184.25.626.817.981 1.263.356.446.922 1.163 1.26 1.593.74.947.597.942 1.514.052.417-.405 1.084-1.046 1.48-1.425.859-.82.872-.904.317-2.081-.114-.242-.207-.498-.207-.569 0-.071-.08-.248-.175-.392-.096-.144-.174-.33-.174-.41 0-.083-.099-.335-.22-.56-.12-.227-.218-.475-.218-.552-.001-.077-.08-.258-.175-.402-.096-.145-.174-.33-.174-.411 0-.081-.1-.333-.22-.56-.12-.226-.219-.474-.219-.551 0-.077-.079-.258-.174-.403-.096-.144-.174-.329-.174-.41-.001-.082-.1-.334-.22-.56-.12-.226-.218-.463-.218-.527s-.079-.245-.175-.403c-.096-.157-.175-.353-.175-.434 0-.082-.098-.334-.219-.56-.12-.226-.218-.48-.218-.562 0-.084-.059-.2-.13-.258-.07-.059-.153-.251-.182-.426a1.59 1.59 0 0 0-.21-.542 1.722 1.722 0 0 1-.22-.525c-.036-.166-.116-.361-.178-.434-.063-.072-.16-.308-.217-.524-.058-.217-.155-.453-.218-.525-.062-.072-.141-.269-.176-.437-.035-.169-.114-.366-.176-.437-.063-.073-.16-.305-.216-.517-.057-.211-.155-.437-.22-.5-.063-.065-.142-.273-.174-.464-.032-.19-.112-.39-.177-.445-.066-.054-.145-.223-.178-.376a2.153 2.153 0 0 0-.224-.551c-.091-.15-.166-.327-.166-.394 0-.066-.098-.318-.216-.558-.119-.24-.217-.491-.218-.558-.002-.067-.078-.244-.17-.394a2.085 2.085 0 0 1-.228-.597c-.034-.179-.113-.369-.177-.422-.064-.053-.143-.222-.175-.374a2.146 2.146 0 0 0-.224-.551c-.091-.15-.166-.332-.166-.403 0-.071-.098-.315-.218-.54-.12-.227-.22-.479-.22-.56 0-.082-.078-.267-.174-.411-.095-.145-.174-.322-.174-.394 0-.073-.1-.317-.22-.543-.12-.226-.218-.482-.219-.568 0-.086-.078-.275-.174-.42-.095-.144-.174-.321-.175-.394 0-.072-.098-.316-.218-.542-.12-.226-.22-.481-.22-.568 0-.087-.079-.275-.174-.42-.096-.143-.174-.323-.175-.398 0-.266-.202-.415-.46-.341zm47.227 15.801c-.287.044-.29.065-.066.351.097.122.176.271.176.33 0 .06.073.202.162.316.09.115.21.357.27.537.058.18.14.328.18.328.04 0 .122.148.18.328.06.18.18.422.27.536.09.115.162.277.162.361 0 .084.057.2.126.258.07.058.175.249.232.423.058.176.161.374.228.441a.86.86 0 0 1 .172.37.853.853 0 0 0 .214.397c.09.082.165.216.165.299 0 .082.073.243.162.358.09.114.21.356.27.536.058.18.14.328.18.328.04 0 .121.148.18.328.057.18.154.387.215.46.06.071.14.23.175.35.037.12.137.308.223.419.087.11.183.317.214.459.03.142.088.258.125.258.038 0 .153.187.254.416.102.228.22.474.264.546.044.072.126.23.182.35.167.363.359.736.449.875.046.071.143.268.216.437a4.9 4.9 0 0 0 .21.437c.043.072.326.623.628 1.225.302.6.636 1.2.743 1.332l.195.24.055-.256c.031-.14.11-.3.177-.355.067-.056.167-.245.223-.422.056-.176.15-.36.21-.408.059-.049.155-.232.213-.409.058-.176.163-.368.232-.426a.386.386 0 0 0 .127-.257c0-.084.073-.247.162-.361.09-.115.21-.354.267-.53.058-.177.16-.366.226-.422.066-.055.146-.213.176-.35.03-.138.109-.295.175-.35.066-.055.144-.21.174-.347a.889.889 0 0 1 .224-.401c.094-.084.17-.217.172-.293 0-.077.058-.238.128-.358s.207-.377.304-.569c.097-.192.212-.409.256-.48.043-.073.122-.23.175-.35.053-.12.135-.278.182-.35.047-.073.148-.27.223-.438.171-.385.376-.792.485-.962.046-.072.126-.23.18-.35.052-.12.132-.277.175-.35.044-.072.14-.268.212-.437.072-.168.17-.365.218-.437.047-.072.161-.294.253-.493.092-.2.21-.389.261-.421.052-.032.095-.127.095-.211 0-.084.098-.287.219-.45.12-.162.218-.361.218-.442 0-.08.076-.243.17-.362a1.45 1.45 0 0 0 .227-.445.729.729 0 0 1 .176-.328c.206-.171.342-.704.202-.793-.136-.087-1.802-.103-2.262-.023-.316.056-.408.206-1.47 2.38a4.702 4.702 0 0 1-.197.363c-.046.073-.122.22-.17.328-.216.49-.487 1.04-.614 1.246a23.41 23.41 0 0 0-.45.875c-.202.409-.394.763-.426.787-.032.024-.105.189-.163.365-.057.176-.159.366-.226.421-.066.056-.145.213-.175.351-.03.138-.11.295-.176.35-.065.055-.144.215-.175.355-.031.14-.096.28-.145.31-.048.03-.161.227-.252.438-.09.211-.221.384-.29.384-.168 0-.668-.579-.668-.773 0-.085-.098-.288-.219-.452-.12-.162-.219-.362-.219-.443a.379.379 0 0 0-.126-.252c-.07-.058-.174-.25-.232-.424-.058-.175-.16-.373-.227-.44a.854.854 0 0 1-.172-.37.849.849 0 0 0-.214-.397c-.091-.082-.165-.217-.165-.299 0-.082-.077-.247-.17-.365a1.429 1.429 0 0 1-.227-.446.74.74 0 0 0-.176-.328c-.065-.054-.165-.242-.223-.418a2.093 2.093 0 0 0-.267-.53c-.089-.115-.162-.278-.162-.36a.393.393 0 0 0-.13-.262c-.072-.06-.177-.262-.233-.448-.056-.187-.13-.34-.166-.34-.035 0-.13-.167-.212-.371-.081-.204-.199-.431-.26-.503a1.408 1.408 0 0 1-.196-.391c-.114-.354-1.443-.52-2.673-.334zm27.156.028c-.188.076-.197.124-.197 1.081 0 1.465-.238 1.365 3.243 1.365 2.129 0 2.798.026 2.852.11.039.06.091 2.824.115 6.143l.044 6.035 1.049.025c.577.014 1.138.004 1.246-.024l.197-.048v-6.016c0-4.562.025-6.04.105-6.12.077-.077.848-.105 2.925-.105 3.383 0 3.092.129 3.092-1.372 0-.882-.017-.993-.169-1.074-.215-.114-14.216-.115-14.502 0zm30.435-.021c-.087.058-.105 1.6-.087 7.414l.022 7.341.962.025c.529.014 1.051.004 1.159-.023l.197-.05v-6.394l.255-.255c.457-.457 3.341-.262 4.117.278.408.284.788.647.788.753 0 .046.075.153.167.236a.889.889 0 0 1 .224.379c.031.125.133.324.226.443.094.118.17.284.17.367 0 .084.057.2.127.258.07.058.173.25.231.426.057.177.177.415.267.53.089.114.162.257.162.316s.073.201.163.316c.089.114.193.307.229.427.036.12.115.278.176.35.06.072.157.279.215.46.058.18.14.327.182.327.043 0 .126.161.185.358.142.474.28.517 1.693.517 1.205 0 1.394-.054 1.162-.334-.175-.21-.681-1.22-.681-1.36 0-.063-.079-.187-.176-.274-.096-.087-.174-.226-.174-.308 0-.082-.074-.243-.163-.358a1.6 1.6 0 0 1-.231-.427 1.6 1.6 0 0 0-.231-.427c-.089-.115-.163-.277-.163-.36 0-.084-.073-.245-.162-.36a1.598 1.598 0 0 1-.231-.428 1.598 1.598 0 0 0-.231-.427c-.089-.115-.163-.276-.163-.36 0-.083-.077-.25-.172-.37-.485-.617-.399-1.234.186-1.327.198-.032.458-.135.578-.23.12-.095.269-.172.33-.172.25 0 1.238-1.096 1.535-1.703.567-1.16.345-3.362-.402-3.982-.072-.06-.13-.14-.13-.178 0-.094-.519-.608-.613-.608-.041 0-.185-.094-.321-.208a1.508 1.508 0 0 0-.554-.273 2.567 2.567 0 0 1-.568-.208c-.291-.158-10.027-.27-10.255-.117zm18.278.021-.198.08.029 5.927c.031 6.37.059 6.775.514 7.226.082.08.171.219.199.308.05.155.462.522 1.096.974l.307.219h15.922l.25-.197c.138-.108.297-.197.353-.197.113 0 .749-.555.749-.654 0-.035.098-.18.218-.324.121-.142.219-.322.219-.4 0-.076.069-.214.153-.308.143-.157.153-.59.153-6.435V16.3l-.378-.027c-.674-.048-.628-.507-.628 6.166v5.987l-.239.409c-.262.45-.673.89-.829.89-.054 0-.175.07-.268.153-.158.143-.648.154-7.66.154h-7.49l-.398-.24c-.522-.312-.781-.617-1.021-1.204l-.198-.48-.001-5.82c0-4.41-.025-5.846-.105-5.926-.122-.122-.464-.129-.749-.015zm23.621-.016c-.168.05-.072.155.765.838.526.429.956.813.956.852 0 .04.048.072.107.072.058 0 .186.08.284.177.098.097.454.396.79.666.337.269.68.553.761.632.203.195.361.329 1.028.87.315.257.651.532.747.613.096.08.43.358.743.616.314.258.636.534.718.612.081.079.445.377.808.663.696.546.841.853.527 1.117a12.52 12.52 0 0 0-.264.23 56.209 56.209 0 0 1-1.595 1.307c-.11.083-.267.214-.35.292-.275.26-1.762 1.476-1.805 1.476-.023 0-.136.088-.251.197a17.45 17.45 0 0 1-1.331 1.155 9.45 9.45 0 0 0-.517.418c-.064.06-.237.209-.386.33-.149.12-.405.335-.568.48-.163.144-.498.42-.742.612-.576.453-.539.52.304.55.664.024.714.012 1.042-.244.526-.41 1.101-.898 1.301-1.1.099-.101.363-.322.586-.491.539-.409.667-.515.902-.748.109-.108.242-.197.294-.197.052 0 .126-.055.165-.123.038-.068.563-.53 1.166-1.028 1.345-1.11 1.364-1.125 1.598-1.341 1.484-1.37 1.746-1.444 2.552-.72.35.315.458.405 1.707 1.424a56.916 56.916 0 0 1 1.456 1.215c.219.208.348.316.934.78.235.185.512.413.615.507.252.228.299.267 1.474 1.238l1.025.846.637-.005c.978-.01 1.034-.064.488-.477a13.515 13.515 0 0 1-.602-.48 20.32 20.32 0 0 0-.564-.48 124.745 124.745 0 0 0-1.702-1.409c-.883-.717-1.035-.846-1.339-1.134-.106-.1-.466-.393-.801-.65-.557-.43-.943-.76-1.507-1.29-.115-.108-.229-.196-.253-.196-.133 0-1.348-1.113-1.348-1.235 0-.197.201-.419.878-.968.762-.618.855-.697 1.076-.906.169-.16.871-.73 1.18-.958.065-.048.208-.176.317-.284.109-.108.241-.197.293-.197.053 0 .127-.056.165-.125.039-.068.562-.525 1.163-1.017a50.94 50.94 0 0 0 1.243-1.034c.082-.078.272-.24.423-.36.151-.12.365-.298.474-.394.11-.097.328-.273.484-.393.156-.12.381-.306.5-.411.118-.106.261-.209.317-.229.056-.02.069-.072.028-.114-.108-.115-1.626-.097-1.701.021-.034.055-.357.34-.718.634-.361.295-.736.614-.834.71-.098.097-.204.176-.237.176-.032 0-.151.088-.264.196-.269.258-.938.824-1.598 1.35-.289.232-.611.5-.715.596-.218.203-.291.265-1.116.944-.338.278-.705.573-.815.656-.11.082-.287.23-.393.33-.637.595-1.118.923-1.28.871-.236-.075-1.259-.893-1.996-1.598-.113-.109-.224-.197-.248-.197-.04 0-1.514-1.204-1.786-1.459a15.63 15.63 0 0 0-1.05-.89 9.962 9.962 0 0 1-.404-.319 46.227 46.227 0 0 0-.563-.48 20.394 20.394 0 0 1-.672-.59c-.112-.11-.225-.197-.249-.197-.024 0-.28-.197-.569-.438-.543-.452-1.178-.574-1.888-.363zm-79.029.543c-.13.2-.26.455-.289.569a.677.677 0 0 1-.17.304c-.065.054-.164.242-.22.419-.058.177-.153.38-.213.452-.06.072-.14.23-.175.35-.035.12-.115.278-.177.35-.06.072-.174.269-.25.437a4.268 4.268 0 0 1-.225.437 3.678 3.678 0 0 0-.219.438 4.601 4.601 0 0 1-.211.437c-.044.072-.125.23-.18.35-.166.355-.36.734-.448.874a3.13 3.13 0 0 0-.179.35 5.98 5.98 0 0 1-.215.438c-.066.12-.165.317-.22.437-.055.12-.134.277-.176.35-.042.072-.256.485-.475.918-.219.433-.431.846-.473.918-.041.072-.12.23-.176.35-.155.335-.355.73-.445.875a50.36 50.36 0 0 0-.654 1.268 38.409 38.409 0 0 1-.659 1.268c-.046.072-.123.23-.171.35-.048.12-.124.277-.168.35-.57.926-.538.96.954.96 1.257 0 1.347-.026 1.518-.421a4.73 4.73 0 0 1 .22-.452c.044-.072.124-.23.177-.35.053-.12.135-.277.182-.35.047-.072.147-.268.222-.437a9.29 9.29 0 0 1 .486-.962c.045-.072.126-.23.18-.35.052-.12.13-.277.17-.35.042-.072.255-.485.474-.918.219-.433.43-.846.47-.918.288-.528.369-.682.456-.875a4.19 4.19 0 0 1 .18-.35c.043-.072.139-.269.21-.437.073-.168.172-.365.22-.437.047-.072.148-.264.222-.425.55-1.202.726-1.185 1.34.13.093.2.208.388.256.417.049.03.114.17.145.31.03.14.11.3.176.356.067.055.169.245.226.421.058.177.13.341.162.365.031.024.303.536.603 1.137s.583 1.152.628 1.224c.045.073.143.27.218.438.172.385.377.792.486.962.045.072.126.23.179.35.053.12.13.277.172.35.042.072.238.455.437.852l.361.721h1.194c1.516-.002 1.671-.143 1.048-.951-.089-.115-.161-.28-.161-.367 0-.087-.036-.18-.079-.207-.044-.027-.326-.55-.626-1.164-.301-.613-.595-1.174-.653-1.246-.059-.072-.153-.276-.21-.452-.056-.177-.156-.365-.221-.42a.739.739 0 0 1-.176-.327 1.428 1.428 0 0 0-.227-.446c-.093-.118-.17-.284-.17-.367 0-.084-.056-.2-.126-.258-.07-.058-.174-.25-.231-.426a2.095 2.095 0 0 0-.267-.53c-.09-.115-.163-.276-.163-.358 0-.082-.075-.217-.166-.3a.908.908 0 0 1-.226-.386 1.056 1.056 0 0 0-.172-.365c-.062-.073-.16-.276-.216-.453-.057-.176-.156-.364-.221-.418a.74.74 0 0 1-.176-.328 1.427 1.427 0 0 0-.227-.446c-.093-.118-.17-.284-.17-.368 0-.084-.056-.2-.126-.257-.07-.058-.174-.25-.23-.426-.057-.177-.153-.38-.214-.453a2.41 2.41 0 0 1-.25-.437 3.965 3.965 0 0 0-.227-.438 2.233 2.233 0 0 1-.177-.349 2.43 2.43 0 0 0-.173-.35 4.226 4.226 0 0 1-.222-.437 11.523 11.523 0 0 0-.29-.594l-.154-.288-.237.362zm-26.766-.019c-.128.133-.232.304-.232.379 0 .075-.076.233-.17.351a1.43 1.43 0 0 0-.227.446c-.032.126-.11.274-.176.328-.065.054-.165.243-.221.42-.056.175-.15.38-.21.452-.085.104-1.155 2.198-1.69 3.305-.063.13-.152.295-.199.368a3.927 3.927 0 0 0-.216.437 4.639 4.639 0 0 1-.211.437c-.044.072-.226.427-.405.787-.179.361-.373.715-.432.787-.059.073-.154.28-.212.46-.058.18-.14.327-.182.327-.043 0-.119.154-.17.34-.05.187-.146.386-.213.441a.743.743 0 0 0-.18.331 1.399 1.399 0 0 1-.22.438 1.39 1.39 0 0 0-.222.472c-.032.146-.114.286-.18.311-.069.027-.124.117-.124.2 0 .085-.098.3-.218.476-.12.178-.22.375-.22.439 0 .063-.072.209-.161.323a2.13 2.13 0 0 0-.27.537c-.058.18-.143.328-.188.328-.044 0-.08.079-.08.175 0 .166.059.174 1.175.174 1.377 0 1.57-.052 1.707-.468.055-.168.155-.35.222-.405.066-.055.146-.213.176-.35.03-.138.11-.296.176-.351.066-.056.167-.245.223-.422.055-.176.15-.36.208-.408.059-.049.136-.203.17-.344.036-.14.14-.352.234-.47.093-.119.17-.264.17-.324 0-.058.073-.201.162-.315.089-.115.21-.357.269-.537.059-.18.142-.328.184-.328.043 0 .119-.153.169-.34.05-.187.146-.385.213-.44a.74.74 0 0 0 .18-.332c.032-.126.131-.323.221-.438a1.36 1.36 0 0 0 .219-.46c.03-.139.112-.299.18-.356.07-.058.126-.153.126-.212 0-.06.099-.254.22-.431.12-.177.218-.38.218-.45 0-.176.612-.837.716-.772.047.029.162.215.257.414.249.526.424.869.519 1.018.046.072.127.23.18.35.052.12.132.278.176.35.044.072.139.269.211.437.072.168.17.365.217.438.048.071.13.23.182.35.053.12.133.277.176.349.044.072.157.289.252.481.095.193.212.409.26.481.047.072.147.27.222.438.172.385.377.791.485.961.046.073.127.23.18.35.053.12.132.278.176.35.044.072.14.27.212.438.072.168.17.365.217.437.048.072.167.288.264.48.098.193.237.459.31.591l.133.24h1.197c1.484-.002 1.68-.14 1.115-.786a1.149 1.149 0 0 1-.181-.35 1.576 1.576 0 0 0-.23-.427c-.089-.115-.162-.276-.162-.359 0-.082-.08-.242-.177-.354a1.233 1.233 0 0 1-.232-.429 1.394 1.394 0 0 0-.216-.433c-.09-.114-.162-.257-.162-.316 0-.06-.077-.205-.17-.323a1.444 1.444 0 0 1-.23-.47 1.13 1.13 0 0 0-.171-.388 2.539 2.539 0 0 1-.254-.437 10.494 10.494 0 0 0-.493-.962 3.84 3.84 0 0 1-.216-.437 3.797 3.797 0 0 0-.218-.437 2.457 2.457 0 0 1-.172-.35 2.502 2.502 0 0 0-.173-.35 20.02 20.02 0 0 1-.484-.919 46.1 46.1 0 0 0-.474-.918 5.58 5.58 0 0 1-.176-.35 11.978 11.978 0 0 0-.444-.874 50.743 50.743 0 0 1-.654-1.286c-.316-.636-.612-1.18-.659-1.208-.047-.03-.085-.122-.085-.206 0-.084-.098-.286-.219-.449-.12-.163-.218-.365-.218-.449 0-.256-.136-.257-.38-.002zm54.273.073a5.848 5.848 0 0 0-.327.587c-.069.15-.161.331-.204.404a54.11 54.11 0 0 0-.869 1.733c-.063.129-.152.293-.198.366-.046.072-.127.229-.18.35-.222.5-.479 1.021-.605 1.224-.045.072-.258.492-.473.933-.216.44-.433.827-.483.857-.05.031-.091.128-.091.214 0 .088-.073.252-.162.367a2.14 2.14 0 0 0-.269.537c-.059.18-.142.328-.184.328-.043 0-.119.153-.169.34-.05.186-.148.386-.216.442-.069.058-.15.22-.181.36-.031.14-.091.276-.133.302-.041.026-.334.576-.651 1.222s-.61 1.196-.651 1.22c-.042.027-.102.153-.134.282-.032.13-.135.331-.229.45-.093.118-.169.284-.169.368a.38.38 0 0 1-.125.256c-.206.171-.422.9-.291.983.138.087 2.35.091 2.481.005.054-.036.128-.163.166-.283.037-.12.14-.313.23-.427.09-.115.163-.257.163-.317 0-.059.073-.201.161-.316.089-.114.186-.309.216-.433.031-.123.135-.316.232-.429.098-.112.178-.271.178-.354 0-.082.073-.243.163-.358.089-.115.193-.307.23-.427.038-.12.141-.313.231-.428.09-.114.163-.28.163-.366 0-.087.037-.18.081-.208.044-.027.341-.58.66-1.227.319-.648.614-1.199.656-1.224.042-.027.101-.162.132-.303.031-.14.111-.3.178-.356.066-.055.167-.24.223-.41.119-.362.582-1.075.698-1.075.043 0 .144.127.224.284.081.156.172.304.204.328.032.024.225.378.428.787.203.408.405.802.449.874.088.144.286.531.446.875.223.482.27.578.396.83.072.145.167.322.212.394.044.072.339.643.655 1.269.316.625.611 1.196.654 1.267.09.15.294.553.443.875.056.12.137.278.181.35.044.072.143.269.22.437.076.169.183.335.238.37.14.092 2.348.081 2.493-.011.105-.066-.559-1.577-1.118-2.545a4.379 4.379 0 0 1-.172-.35 3.246 3.246 0 0 0-.179-.35 5.256 5.256 0 0 1-.208-.393c-.351-.732-.428-.886-.504-1.006a3.247 3.247 0 0 1-.178-.35 4.367 4.367 0 0 0-.173-.35 34.176 34.176 0 0 1-.475-.937c-.22-.443-.437-.83-.483-.858-.046-.028-.084-.123-.084-.21 0-.086-.076-.254-.17-.373a1.448 1.448 0 0 1-.227-.445.722.722 0 0 0-.176-.328c-.065-.054-.165-.243-.222-.42a2.114 2.114 0 0 0-.267-.53c-.089-.114-.162-.276-.162-.36 0-.084-.058-.2-.127-.258-.07-.058-.174-.248-.232-.423-.058-.175-.158-.372-.223-.437a.869.869 0 0 1-.173-.352 1.111 1.111 0 0 0-.209-.41 1.272 1.272 0 0 1-.218-.393 1.165 1.165 0 0 0-.173-.35c-.061-.072-.157-.279-.215-.459-.058-.18-.139-.328-.179-.328-.041 0-.121-.142-.178-.314-.106-.32-.443-.903-.522-.903-.025 0-.134.141-.244.314zm19.777 2.127c.179.12.347.306.375.412.027.107.105.24.172.295.36.299-.005 1.294-.633 1.728l-.338.233-3.543.025c-2.986.02-3.571.004-3.717-.103-.281-.205-.315-2.37-.043-2.659l.189-.2 3.608.025 3.607.026.323.218zM37.471 29.11a.871.871 0 0 0-.32.279c-.077.113-.251.325-.388.473-.137.147-.406.462-.598.7-.538.664-.598.736-.81.968-.265.292-.247.444.108.906l.458.598c.086.111.243.308.349.437.106.128.391.49.635.802.243.313.511.653.595.756.164.202.303.381.978 1.256.241.312.493.627.559.7.066.072.307.378.535.68.228.303.704.913 1.058 1.356.354.443.704.885.776.98.624.825 1.148 1.424 1.213 1.384.111-.069-.012-.638-.208-.956-.092-.15-.169-.328-.17-.394-.002-.066-.1-.318-.218-.558-.119-.24-.216-.496-.217-.568 0-.073-.08-.25-.175-.394-.096-.144-.175-.322-.177-.393-.002-.073-.1-.328-.218-.57-.119-.24-.216-.485-.216-.543-.001-.06-.08-.237-.176-.394-.096-.157-.176-.346-.178-.418-.001-.072-.1-.328-.217-.568-.119-.24-.217-.496-.22-.569a.68.68 0 0 0-.133-.303c-.072-.095-.173-.33-.224-.525-.052-.194-.145-.411-.207-.484-.062-.072-.142-.268-.177-.437-.034-.168-.115-.365-.178-.437-.063-.072-.161-.317-.218-.544-.058-.227-.159-.458-.226-.514a.369.369 0 0 1-.121-.247c0-.08-.08-.3-.177-.491a4.283 4.283 0 0 1-.27-.697c-.052-.192-.143-.409-.202-.48-.06-.073-.156-.3-.214-.503-.112-.393-.127-.403-.411-.288zm5.363 12.64c.023.121.057.22.075.22.019 0 .034-.099.034-.22 0-.12-.034-.218-.075-.218-.042 0-.057.099-.034.219z" fill="#F6F6F6"/><path fill-rule="evenodd" clip-rule="evenodd" d="M44.43 20.407c0 .07-.075.168-.167.217-.092.05-.424.336-.738.637-6.176 5.927-6.176 5.927-6.447 5.927-.102 0-.17.06-.17.149 0 .082-.324.46-.722.838-.396.379-1.063 1.02-1.48 1.425-.418.405-.801.736-.853.736-.051 0-.094.056-.094.124 0 .067-.24.353-.533.634-.294.28-.815.78-1.159 1.11l-1.416 1.355c-.435.416-1.374 1.308-2.088 1.981-.713.674-1.577 1.493-1.92 1.821-.54.517-3.723 3.575-4.325 4.154-.394.38-.663.416-.977.131a10.083 10.083 0 0 0-.482-.384 34.759 34.759 0 0 1-1.045-.824 21.98 21.98 0 0 0-.416-.327c-.11-.083-.573-.452-1.029-.82a71.016 71.016 0 0 0-1.46-1.141 16.338 16.338 0 0 1-.89-.712c-.522-.479-1.063-.778-1.063-.588 0 .074.059.133.131.133.072 0 .131.062.131.137 0 .076.09.263.197.416.109.153.237.342.285.42.086.139.595.932.81 1.263.33.507.463.707.546.825.051.073.14.215.199.317.058.103.273.437.478.744.483.725.473.71.968 1.476.233.36.578.886.766 1.167.189.282.409.638.489.792.08.155.208.333.284.396.076.063.138.163.138.222s.078.177.173.263a.928.928 0 0 1 .228.328c.03.095.119.242.199.327.079.086.262.357.406.602.37.63.488.6 1.246-.324.348-.425.726-.872.839-.995a57.88 57.88 0 0 0 1.066-1.259c.473-.57.925-1.097 1.005-1.17.08-.072.533-.603 1.007-1.18.473-.578.942-1.13 1.041-1.23.1-.098.338-.37.53-.6.193-.232.462-.544.599-.695.136-.15.352-.41.48-.577.129-.167.293-.366.364-.443.073-.077.309-.348.525-.602a20.1 20.1 0 0 1 .533-.607c.076-.08.533-.62 1.015-1.202.481-.582.95-1.136 1.041-1.231.092-.095.311-.347.488-.56l.83-.999c.581-.697.899-.999 1.057-1.003.06-.002.109-.06.109-.13 0-.069.089-.223.197-.342.211-.233.274-.307.809-.968.192-.238.443-.533.557-.657.114-.123.306-.351.426-.507.12-.157.273-.285.34-.285.068 0 .19-.147.271-.328.126-.278 1.247-1.717 1.55-1.99.054-.047.487-.56.964-1.136.476-.578.947-1.13 1.046-1.228.166-.163.554-.615 1.099-1.282.12-.147.297-.358.393-.469.097-.11.274-.328.394-.482.12-.155.386-.455.59-.668.205-.212.372-.422.372-.468 0-.044.08-.13.175-.19.096-.06.175-.146.175-.191 0-.045.065-.153.145-.241.136-.15.133-.16-.044-.16-.107 0-.188.055-.188.128z" fill="#4BD3F3"/><path fill-rule="evenodd" clip-rule="evenodd" d="M25.744.049a.752.752 0 0 0-.341.207c-.085.094-.205.17-.268.17-.063 0-.157.078-.209.175-.051.096-.15.175-.22.175s-.177.078-.237.174c-.06.097-.154.176-.207.176-.055 0-.252.118-.439.263-.467.363-.634.49-1.04.786-.658.482-.768.569-.978.765-.115.108-.242.197-.282.197-.074 0-.649.422-.89.654-.076.073-.183.133-.24.133-.055 0-.15.079-.21.175-.06.096-.149.175-.197.176-.082 0-1.04.693-1.372.99-.08.073-.238.18-.35.239-.235.123-.331.201-.837.683-.204.195-.372.426-.372.515 0 .09-.098.295-.219.458-.12.163-.218.368-.218.454 0 .087-.079.237-.175.333-.096.096-.175.249-.175.338 0 .09-.076.26-.17.379a1.482 1.482 0 0 0-.231.461 1.04 1.04 0 0 1-.224.41c-.09.088-.162.235-.162.325 0 .09-.076.26-.17.378a1.48 1.48 0 0 0-.231.462c-.034.135-.135.32-.224.409-.09.089-.162.235-.162.325 0 .09-.076.26-.17.378a1.48 1.48 0 0 0-.231.462 1.04 1.04 0 0 1-.224.409.606.606 0 0 0-.162.367.562.562 0 0 1-.17.359.938.938 0 0 0-.23.429.976.976 0 0 1-.223.432.574.574 0 0 0-.165.357.558.558 0 0 1-.17.356.94.94 0 0 0-.228.429.975.975 0 0 1-.224.432.575.575 0 0 0-.165.358.558.558 0 0 1-.17.355.945.945 0 0 0-.23.43c-.033.15-.133.369-.223.483-.09.115-.164.276-.164.358 0 .082-.075.218-.166.3-.091.083-.191.282-.221.442-.03.16-.112.34-.183.398-.07.059-.17.26-.22.446-.05.187-.126.34-.169.34-.042 0-.125.148-.184.328-.058.18-.18.422-.269.537-.09.114-.162.276-.162.358 0 .082-.076.238-.17.345a1.194 1.194 0 0 0-.224.445c-.03.137-.11.296-.18.353-.068.056-.165.256-.216.443-.05.187-.126.34-.169.34-.042 0-.125.147-.184.328-.059.18-.18.422-.27.536-.088.115-.161.277-.161.36 0 .084-.076.248-.17.367a1.48 1.48 0 0 0-.231.462c-.034.135-.135.319-.224.408-.09.09-.162.236-.162.326 0 .089-.073.256-.162.371a1.437 1.437 0 0 0-.221.451c-.033.134-.137.321-.232.416a.63.63 0 0 0-.173.378.553.553 0 0 1-.164.354.876.876 0 0 0-.218.412c-.029.145-.112.323-.185.395a.908.908 0 0 0-.187.367c-.03.13-.124.313-.207.41a1.177 1.177 0 0 0-.212.425.944.944 0 0 1-.186.378.89.89 0 0 0-.183.361c-.03.13-.108.296-.174.371a1.643 1.643 0 0 0-.22.438 2.148 2.148 0 0 1-.264.509c-.089.114-.16.277-.16.361 0 .083-.058.2-.127.258-.07.057-.175.249-.232.426a2.107 2.107 0 0 1-.267.53c-.09.114-.162.265-.162.335s-.079.228-.175.35c-.096.122-.175.288-.175.368 0 .08-.098.28-.218.443-.12.163-.22.362-.22.443 0 .08-.078.246-.174.368-.096.122-.175.277-.175.345 0 .067-.098.255-.219.418-.12.163-.218.362-.218.443 0 .08-.079.246-.175.368-.097.123-.175.277-.175.345 0 .067-.098.256-.219.418-.12.163-.218.362-.218.443 0 .08-.08.246-.175.369-.097.122-.175.28-.175.349 0 .07-.073.221-.163.336-.09.115-.193.307-.229.428-.036.12-.14.341-.23.49-.091.15-.166.355-.166.455 0 .1-.039.205-.087.235-.167.103-.086.22.151.22.23 0 .986-.677.986-.883 0-.044.06-.08.131-.08.073 0 .131-.034.131-.076 0-.042.188-.276.416-.52.906-.966 1.133-1.218 1.596-1.767.265-.314.56-.655.656-.758.096-.103.431-.468.743-.81.313-.34.746-.81.963-1.04a58.71 58.71 0 0 0 1.819-2.044c.13-.161.393-.458.585-.66.193-.202.527-.565.744-.806.216-.241.554-.606.75-.811.196-.205.665-.726 1.043-1.16.376-.432.747-.853.824-.935.076-.081.315-.345.532-.587.216-.241.649-.713.961-1.05.313-.335.765-.835 1.006-1.111l.612-.702c.65-.746 1.077-1.212 2.449-2.676.192-.204.585-.65.874-.988.726-.85.72-.842 1.357-1.524.312-.334.824-.89 1.137-1.236.312-.345.736-.81.942-1.031.205-.222.518-.59.695-.819.354-.455.574-.521.735-.219.106.2.62.861 1.185 1.525.171.201.38.477.463.612.083.136.275.378.426.54.152.162.276.317.276.347 0 .03.08.133.177.23.097.099.293.337.434.529.498.676.572.77.767.978.108.116.197.241.197.279 0 .036.088.149.196.25.108.1.295.328.415.507.121.18.308.414.416.521.108.108.197.24.197.293 0 .052.079.138.175.189.096.051.175.137.175.19 0 .053.088.184.197.292.108.108.294.343.415.524.12.18.307.416.415.524.108.108.197.239.197.292 0 .053.079.139.175.19.096.051.175.137.175.19 0 .052.088.184.197.292.108.107.295.34.415.514.12.176.318.427.439.558.12.131.337.396.48.588.144.193.311.402.371.466.06.063.11.142.11.175s.152.226.34.431c.372.407.551.648.887 1.186l.221.356-.46.443c-.253.243-.652.619-.886.835-.683.632-2.923 2.755-3.846 3.643-.466.45-1.36 1.31-1.985 1.91-4.657 4.47-4.514 4.345-4.75 4.122-.355-.335-1.241-1.016-1.322-1.016-.048 0-.13-.079-.181-.175-.052-.096-.137-.175-.19-.175-.053 0-.186-.089-.295-.197-.388-.384-1.235-1.027-1.353-1.027-.048 0-.086-.032-.086-.072 0-.039-.297-.305-.66-.59-.362-.285-1.084-.857-1.605-1.27-.968-.768-1.19-.905-1.329-.819-.11.069-.1.476.012.476.051 0 .132.115.181.256.05.14.146.277.214.303a.206.206 0 0 1 .126.175c0 .07.093.239.207.375.113.136.234.336.268.444.033.108.097.197.141.197.045 0 .134.127.2.284.065.156.183.338.263.404.08.067.145.168.145.227s.079.178.175.266c.096.087.175.207.175.269 0 .06.098.228.218.37.12.143.22.288.22.322 0 .035.097.18.218.323.12.142.218.314.218.38 0 .067.079.164.175.216.096.051.175.137.175.19 0 .054.148.313.328.576.18.263.367.543.415.621.047.079.224.354.393.613.17.258.346.533.393.612.115.192.319.513.502.79.083.125.231.375.33.556.098.18.214.327.256.327.043 0 .118.118.169.263.05.144.129.262.175.262.046 0 .123.115.172.255.05.14.153.328.232.416.078.088.21.252.294.364.242.328.582.11 1.44-.923.409-.492.796-.95.861-1.019.065-.068.276-.312.468-.54.193-.23.448-.522.569-.65.12-.128.317-.365.437-.527.12-.162.317-.401.438-.532.12-.13.376-.427.568-.658.192-.23.422-.493.51-.583.26-.268 1.108-1.279 1.108-1.323 0-.022.176-.23.392-.461.579-.623.558-.6 1.505-1.743.481-.582.95-1.138 1.042-1.236a34.204 34.204 0 0 0 1.477-1.733c.145-.181.351-.417.46-.523.108-.106.196-.214.196-.242 0-.027.168-.226.372-.443.635-.672 1.156-1.286 1.237-1.46.164-.35.928-.076.928.332 0 .043.088.16.197.261.108.1.295.328.415.508.12.179.307.414.415.521.109.108.197.24.197.292 0 .053.079.138.175.19.096.051.175.137.175.19 0 .053.088.184.197.292.108.108.295.342.415.521s.308.408.416.508c.108.1.197.213.197.25 0 .037.088.162.196.278.108.115.266.304.351.42.085.114.502.642.926 1.17.424.53.807 1.029.851 1.109.074.134.597.774.912 1.114.072.078.206.258.299.4.202.312.296.433.553.713.108.118.197.237.197.265 0 .027.158.207.35.4.523.522.86.136.437-.502-.095-.144-.174-.346-.175-.448 0-.101-.073-.278-.162-.393a1.463 1.463 0 0 1-.222-.534c-.033-.179-.117-.381-.185-.45-.07-.07-.163-.29-.208-.49-.045-.201-.14-.431-.213-.512-.073-.08-.16-.296-.194-.479-.033-.183-.115-.386-.18-.45-.065-.066-.155-.283-.2-.483-.045-.2-.14-.431-.213-.512-.073-.08-.16-.293-.192-.472a1.287 1.287 0 0 0-.227-.516.764.764 0 0 1-.165-.428.862.862 0 0 0-.168-.451 1.465 1.465 0 0 1-.228-.534 1.28 1.28 0 0 0-.226-.512.762.762 0 0 1-.166-.428.855.855 0 0 0-.163-.446 1.496 1.496 0 0 1-.23-.51 1.727 1.727 0 0 0-.221-.526 1.636 1.636 0 0 1-.213-.554c-.031-.183-.109-.353-.173-.377-.064-.025-.14-.203-.172-.396a1.668 1.668 0 0 0-.22-.584c-.091-.13-.19-.381-.22-.56-.031-.18-.11-.356-.175-.394-.306-.173-.25-.833.1-1.209.183-.194.437-.49.565-.656.128-.166.345-.425.481-.576.137-.15.405-.462.598-.693.193-.23.427-.498.522-.597.094-.098.4-.455.68-.794.912-1.106 1.157-1.394 1.337-1.575.098-.098.57-.649 1.05-1.226.83-.998.975-1.168 1.345-1.575a73.231 73.231 0 0 0 1.585-1.989c.302-.395.046-.576-.312-.22-.108.109-.559.532-1.001.94-.442.41-1.26 1.187-1.816 1.728-.555.541-1.041.984-1.08.984-.037 0-.093.079-.123.175-.031.096-.093.175-.14.175-.045 0-.33.246-.634.546-.304.301-.785.762-1.07 1.024-.285.263-1.064 1-1.732 1.64-.667.64-1.247 1.163-1.29 1.163-.154 0-.426-.356-.426-.557 0-.114-.073-.3-.162-.416a1.463 1.463 0 0 1-.222-.533c-.033-.179-.117-.382-.185-.45-.07-.07-.163-.29-.208-.49-.045-.201-.14-.431-.21-.512-.07-.081-.154-.294-.186-.472-.032-.179-.115-.382-.184-.45-.068-.07-.162-.29-.207-.49-.045-.201-.14-.432-.21-.512-.07-.08-.154-.293-.186-.472-.032-.18-.115-.382-.184-.451-.068-.069-.162-.29-.207-.49-.045-.2-.14-.43-.21-.511-.07-.081-.154-.29-.184-.464a1.262 1.262 0 0 0-.23-.516.786.786 0 0 1-.173-.437.859.859 0 0 0-.162-.446 1.41 1.41 0 0 1-.217-.5 1.438 1.438 0 0 0-.233-.514.907.907 0 0 1-.176-.474.67.67 0 0 0-.162-.414c-.09-.09-.192-.314-.227-.498a1.493 1.493 0 0 0-.23-.549.88.88 0 0 1-.168-.463.678.678 0 0 0-.165-.417c-.091-.09-.193-.325-.226-.52-.033-.194-.112-.397-.176-.45-.065-.053-.164-.295-.223-.537-.057-.242-.155-.458-.217-.482-.061-.024-.138-.22-.17-.436-.033-.216-.113-.413-.178-.438-.065-.025-.144-.199-.176-.386a1.425 1.425 0 0 0-.214-.54c-.086-.11-.185-.37-.22-.577-.035-.208-.116-.398-.18-.422-.063-.025-.141-.198-.173-.385-.032-.188-.127-.43-.213-.54a1.452 1.452 0 0 1-.214-.524c-.033-.18-.115-.38-.182-.447-.066-.067-.148-.265-.18-.44a1.425 1.425 0 0 0-.213-.516 1.45 1.45 0 0 1-.212-.522c-.034-.178-.117-.381-.186-.45-.068-.07-.162-.29-.207-.49-.045-.2-.14-.43-.21-.512-.07-.08-.154-.293-.186-.471-.032-.18-.115-.382-.184-.451-.069-.069-.162-.29-.207-.49-.045-.2-.14-.431-.21-.512-.07-.08-.154-.29-.185-.466-.032-.175-.114-.366-.184-.424-.07-.058-.151-.249-.18-.424a1.608 1.608 0 0 0-.222-.556c-.091-.13-.166-.29-.166-.353 0-.14-.25-.508-.333-.491l-.249.048zm.464.513c.064.19.175.45.248.577.072.128.132.278.132.333 0 .056.092.306.204.555.203.452.357.818.798 1.897l.412 1.006c.098.24.273.638.388.883.115.245.21.49.21.544 0 .097.173.511.578 1.38.115.246.209.503.209.571 0 .069.053.202.118.297.066.095.17.33.232.523.062.192.186.487.275.654.089.168.162.365.162.438 0 .072.08.25.175.395.095.144.174.32.175.393 0 .072.098.328.217.569.118.24.216.496.218.568.002.072.081.25.177.394.095.144.175.321.177.393.002.072.1.329.218.569.118.24.216.496.217.568 0 .072.08.25.175.394.095.144.175.321.177.393.002.073.1.328.218.57.119.24.216.495.217.567 0 .072.08.25.175.394.096.144.175.321.177.393.002.072.1.328.219.569.118.24.215.496.216.569 0 .072.08.249.175.393.096.145.174.322.175.395 0 .073.073.27.163.437.09.168.19.404.225.524s.135.376.223.568c.088.192.24.547.338.787.343.845.608 1.493.84 2.056.128.312.313.765.41 1.006.099.24.25.594.34.787.087.192.186.448.218.568.033.12.109.297.169.393.06.096.16.333.22.525.197.611.465.762.806.453.334-.303 1.673-1.576 3.527-3.353 3.943-3.78 3.978-3.811 3.978-3.585 0 .11-.29.582-.359.582-.046 0-.109.069-.14.153a1.16 1.16 0 0 1-.238.331 25.087 25.087 0 0 0-1.287 1.484 8.119 8.119 0 0 1-.291.36c-.05.054-.267.308-.483.564a51.66 51.66 0 0 1-.75.864c-.194.219-.663.772-1.041 1.229-.379.457-.732.87-.786.918a33.53 33.53 0 0 0-.959 1.119l-.861 1.031.05.48c.026.263.13.61.23.771.1.161.182.348.184.414.001.066.1.318.217.558.119.24.216.496.217.569 0 .072.08.249.175.393.096.145.175.322.177.394.002.072.1.328.219.568.118.24.215.497.216.568 0 .073.08.25.175.394.096.144.175.322.178.394.001.072.1.328.218.569.118.24.215.485.215.544.001.059.08.236.176.393.096.158.175.338.175.402 0 .063.092.318.204.568.112.25.29.66.394.913l.762 1.858c.44 1.079.594 1.445.798 1.897.444.988.189 1.285-.42.489-.21-.276-.43-.561-.487-.635l-1.54-1.951a7.497 7.497 0 0 0-.332-.394 16.704 16.704 0 0 1-.612-.766 270.09 270.09 0 0 0-2.353-3.013L35.74 33.06c-.854-1.091-.815-1.1-2.067.425-.494.601-.944 1.133-1 1.18-.056.049-.51.58-1.009 1.181-.499.602-.954 1.133-1.012 1.181-.057.048-.495.56-.974 1.137-.934 1.127-1.247 1.492-1.868 2.182-.219.244-.788.914-1.265 1.491a31.744 31.744 0 0 1-.966 1.137c-.055.048-.509.575-1.01 1.17l-1.509 1.792c-1.145 1.36-1.363 1.522-1.525 1.126-.034-.084-.413-.684-.84-1.334-.73-1.105-.955-1.452-1.92-2.95-.21-.325-.612-.94-.897-1.364a147.612 147.612 0 0 1-1.247-1.895 166.604 166.604 0 0 0-1.601-2.472c-.464-.67-.014-.478 1.267.54 1.416 1.124 2.964 2.35 3.185 2.523.108.084.294.24.414.344.12.105.366.3.547.435.182.133.518.396.747.583.554.452.701.406 1.636-.509.41-.401 1.027-.998 1.371-1.327 1.172-1.119 3.823-3.658 4.186-4.008.2-.193 1.008-.96 1.798-1.706 3.317-3.133 3.491-3.31 3.43-3.479-.057-.153-.4-.638-.638-.902a6.984 6.984 0 0 1-.288-.353c-.086-.114-.52-.665-.962-1.226-.443-.56-1.179-1.498-1.636-2.084a814.355 814.355 0 0 0-1.574-2.013c-.409-.52-1.117-1.425-1.574-2.01a106.402 106.402 0 0 0-1.334-1.682c-.084-.11-.517-.658-.962-1.217-.444-.56-1.024-1.297-1.288-1.64-.699-.909-.663-.92-2.013.608-.682.77-2.188 2.44-2.417 2.68-.09.093-.439.478-.776.854l-.7.781c-.048.054-.4.451-.781.884-.382.431-.775.868-.875.969a119.99 119.99 0 0 0-2.21 2.44c-.34.385-.73.824-.87.977a259.983 259.983 0 0 1-1.91 2.09c-.096.1-.41.455-.698.788s-.669.763-.847.955l-.527.574c-.11.124-.521.577-.91 1.006-.39.43-.921 1.02-1.181 1.31-.59.66-1.887 2.096-2.178 2.41-.12.13-.474.522-.787.873C.98 40.539.45 41.082.35 40.92c-.082-.132-.021-.351.096-.351.043 0 .078-.048.078-.107 0-.094 1.2-2.622 1.402-2.954.102-.167.568-1.111.691-1.4.052-.12.132-.277.18-.349.046-.072.144-.269.216-.438.072-.168.172-.365.22-.437.05-.072.13-.229.178-.35.047-.12.125-.277.172-.35a3.87 3.87 0 0 0 .217-.437c.072-.168.169-.365.215-.437.045-.072.994-1.98 2.107-4.241 1.113-2.261 2.06-4.17 2.103-4.242.104-.175.572-1.125.69-1.4.05-.12.13-.278.178-.35.047-.072.145-.269.217-.437.072-.168.17-.365.215-.437.047-.072 1.35-2.69 2.895-5.816a716.023 716.023 0 0 1 2.891-5.816c.046-.072.126-.23.179-.35.11-.25.214-.459.34-.678.048-.084.126-.251.175-.371.047-.12.125-.278.172-.35.047-.072.145-.27.217-.438.072-.168.171-.365.218-.437.048-.072.223-.427.39-.788.348-.755.38-.79 1.67-1.743.53-.391 1.041-.772 1.137-.845.096-.074.568-.425 1.05-.781.48-.355.914-.679.961-.718.049-.04.285-.208.525-.375.241-.167.642-.461.891-.653.25-.193.597-.448.771-.569.174-.12.521-.38.77-.577.982-.775 1.261-.84 1.43-.336zm46.453 15.49c-.306.082-.296.594.018.947.086.096.183.303.216.459.033.156.11.313.172.35.061.036.158.21.216.387.057.176.161.368.231.426.07.058.127.174.127.258 0 .083.072.246.16.36.09.115.206.338.26.496.053.158.158.347.232.422a.48.48 0 0 1 .135.286c0 .084.098.285.219.448.12.163.218.363.218.444 0 .08.054.191.12.246.066.055.187.276.27.492.082.216.18.392.216.392.036 0 .112.153.168.34.056.186.16.388.232.448.072.06.13.177.13.26 0 .085.074.247.164.362.09.114.193.307.23.427.038.12.142.313.231.427.09.115.163.28.163.368 0 .088.076.23.168.317a.99.99 0 0 1 .232.418c.035.145.137.357.226.471.089.115.161.257.161.317 0 .059.074.201.163.316.09.114.194.307.23.427.038.12.142.312.232.427.09.115.162.282.162.372 0 .09.073.236.163.325.09.09.19.274.224.409.034.135.138.343.23.462.094.118.17.287.17.375 0 .088.074.23.163.316.09.086.19.272.225.413.161.672.83 1.007 1.02.51a1.52 1.52 0 0 1 .205-.373c.062-.072.14-.243.172-.38.033-.136.136-.33.23-.431.095-.101.172-.25.172-.33 0-.081.079-.247.175-.37.096-.122.175-.277.175-.344 0-.067.098-.256.218-.419.121-.163.22-.363.22-.443a.38.38 0 0 1 .126-.253c.07-.058.174-.25.231-.426.058-.177.178-.415.267-.53.09-.114.162-.275.162-.358 0-.082.074-.216.165-.298a.867.867 0 0 0 .216-.405.995.995 0 0 1 .228-.433.657.657 0 0 0 .178-.399c0-.121.058-.243.127-.27.07-.027.174-.193.232-.369.057-.176.177-.414.266-.529.09-.114.163-.277.163-.36 0-.084.057-.2.126-.258.07-.058.174-.25.231-.427.058-.176.178-.414.267-.529.09-.114.163-.276.163-.358 0-.082.074-.217.164-.299a.862.862 0 0 0 .217-.404.992.992 0 0 1 .228-.433.64.64 0 0 0 .178-.383c0-.112.076-.274.17-.358a.926.926 0 0 0 .228-.417c.031-.144.132-.337.223-.428a.636.636 0 0 0 .166-.388c0-.121.057-.242.127-.27.07-.026.174-.192.231-.368.058-.176.178-.415.267-.53.09-.114.162-.275.162-.358 0-.081.079-.22.175-.307.213-.193.224-.419.03-.58-.262-.217-2.984-.169-3.138.055a2.873 2.873 0 0 1-.248.307 1.01 1.01 0 0 0-.192.393 1 1 0 0 1-.225.419c-.09.085-.163.228-.163.316s-.076.257-.17.375a1.472 1.472 0 0 0-.23.462 1.02 1.02 0 0 1-.215.4 1.01 1.01 0 0 0-.213.424c-.034.15-.095.271-.137.271-.042 0-.124.157-.181.348-.058.192-.178.415-.267.495-.088.08-.161.214-.161.296 0 .082-.073.243-.163.358-.09.114-.193.307-.23.427a1.63 1.63 0 0 1-.231.427c-.09.115-.163.277-.163.36 0 .084-.073.245-.163.36-.09.115-.194.307-.23.428-.038.12-.142.312-.231.427-.09.115-.163.276-.163.358 0 .082-.074.217-.165.299a.903.903 0 0 0-.22.424l-.055.275-.258-.302c-.141-.165-.259-.364-.26-.442-.003-.078-.077-.235-.166-.35a2.125 2.125 0 0 1-.27-.536c-.058-.18-.141-.328-.184-.328-.042 0-.12-.16-.172-.355-.053-.195-.149-.375-.214-.4-.065-.024-.142-.174-.172-.332a.926.926 0 0 0-.227-.445c-.095-.087-.173-.225-.173-.307 0-.082-.073-.243-.163-.358a2.107 2.107 0 0 1-.267-.53c-.057-.176-.161-.368-.231-.425a.388.388 0 0 1-.127-.258c0-.084-.073-.247-.162-.361a1.622 1.622 0 0 1-.231-.427 1.617 1.617 0 0 0-.231-.427c-.09-.115-.163-.275-.163-.356 0-.08-.077-.23-.171-.33a1.175 1.175 0 0 1-.233-.432 1.843 1.843 0 0 0-.204-.467 6.432 6.432 0 0 1-.236-.394c-.136-.256-2.392-.435-3.11-.246zm27.349.005c-.145.022-.291.085-.327.141-.113.178-.08 2.634.038 2.751.077.078.888.105 3.103.105h2.998l.024 6.07c.028 7.248-.163 6.437 1.51 6.437 1.672 0 1.482.81 1.511-6.438l.023-6.069h2.998c2.215 0 3.026-.027 3.103-.105.179-.178.144-2.64-.039-2.792-.142-.117-14.209-.211-14.942-.1zm30.479-.002c-.465.171-.438-.314-.438 7.676v7.36l.253.242.253.242 1.144-.028c1.605-.041 1.446.344 1.499-3.64l.044-3.299 1.566-.024c1.551-.023 1.57-.021 1.885.197.175.121.351.22.391.22.112 0 .662.612.662.736 0 .062.074.18.165.261a.83.83 0 0 1 .212.386c.026.131.129.332.229.447.1.115.181.276.181.358 0 .083.079.25.175.372.096.123.175.278.175.345 0 .067.098.256.218.419.121.163.219.363.219.443 0 .082.054.192.12.247.066.055.187.276.269.492.083.216.18.392.217.392.036 0 .112.153.167.34.057.187.161.388.233.448a.4.4 0 0 1 .131.27c0 .552 2.821.936 3.266.444.207-.23.111-1.065-.123-1.065-.041 0-.118-.16-.171-.354-.052-.194-.148-.374-.213-.4-.065-.024-.142-.174-.172-.333a.92.92 0 0 0-.228-.444c-.095-.087-.173-.224-.173-.307 0-.082-.073-.243-.163-.358a1.42 1.42 0 0 1-.223-.483.95.95 0 0 0-.231-.43c-.093-.084-.17-.22-.17-.303 0-.082-.079-.25-.175-.372-.096-.122-.174-.28-.174-.35 0-.07-.099-.271-.219-.449-.12-.177-.219-.374-.219-.437 0-.064-.079-.216-.175-.338-.322-.41-.154-.763.366-.764.447-.001 2.17-1.42 2.17-1.787 0-.06.078-.198.171-.307.094-.108.198-.38.23-.604.033-.223.114-.513.179-.642.159-.313.152-1.1-.011-1.414a1.21 1.21 0 0 1-.133-.437.987.987 0 0 0-.128-.406 8.369 8.369 0 0 1-.264-.505c-.139-.295-.251-.437-.7-.889-.402-.405-.764-.674-1.005-.747a1.182 1.182 0 0 1-.363-.192c-.272-.239-10.32-.45-10.919-.229zm18.035.081-.199.163.024 6.31c.022 5.688.039 6.326.168 6.472.078.09.171.255.205.368.227.744 1.333 1.747 2.012 1.824.193.022.499.096.681.164.485.182 14.04.184 14.601.002.206-.067.545-.142.755-.168.209-.025.465-.122.568-.215.104-.093.257-.193.342-.223.084-.03.152-.114.152-.188 0-.073.06-.133.134-.133.073 0 .177-.099.232-.22.055-.12.135-.218.178-.218.042 0 .138-.147.213-.328.074-.18.2-.4.28-.49.131-.147.147-.762.17-6.571.03-7.292.096-6.692-.732-6.692-.895 0-.824-.523-.824 6.135 0 5.707-.003 5.792-.189 6.303-.488 1.337-.201 1.293-8.575 1.294-7.832.001-7.694.013-8.276-.697l-.321-.392-.044-6.186c-.032-4.518-.07-6.213-.144-6.287-.192-.192-1.186-.21-1.411-.027zm23.403.079c-.117.255.032.41 1.46 1.53.192.151.417.34.499.42.083.08.254.225.38.321.127.096.296.24.375.318.08.079.421.364.758.633s.692.568.79.665c.098.097.203.177.234.177s.236.167.456.372c.219.204.507.456.64.56.543.426 1.387 1.118 1.521 1.247.079.076.332.296.563.488 1.001.831.991.724.125 1.443-.361.3-.688.6-.726.666-.039.067-.113.122-.165.122-.052 0-.181.088-.287.196a5.363 5.363 0 0 1-.479.416c-.527.402-.726.567-.922.765-.108.108-.224.197-.259.197-.034 0-.235.167-.447.371-.212.205-.474.44-.584.522-.553.418-1.518 1.24-1.58 1.347-.039.067-.126.121-.193.121-.069 0-.167.079-.218.175-.052.097-.152.175-.224.175-.073 0-.151.051-.175.113-.024.062-.278.284-.566.494-.287.21-.522.415-.522.457 0 .042-.093.113-.206.156-.277.105-.39.61-.173.77.227.165 1.725.148 1.866-.022.06-.072.163-.131.229-.131s.299-.178.519-.394c.22-.216.425-.393.457-.393.031 0 .137-.079.235-.174.098-.096.434-.377.747-.626.312-.248.655-.534.761-.635.107-.1.295-.262.42-.358.124-.096.334-.274.466-.394s.373-.317.535-.437c.39-.29.63-.493 1.107-.94.218-.205.422-.372.453-.372.031 0 .136-.08.234-.177.098-.097.454-.395.79-.663.337-.267.652-.535.7-.596.145-.184.561-.221.68-.061.059.078.335.315.613.527.471.357.902.722 1.331 1.125.154.146.842.7 1.166.938.065.048.207.176.317.284.109.109.227.197.261.197.036 0 .13.072.209.16.19.209 1.64 1.415 1.701 1.415.026 0 .218.157.427.35 1.478 1.371 1.759 1.518 2.829 1.473.879-.037.979-.106.796-.544-.073-.175-.168-.318-.21-.318-.043 0-.26-.167-.481-.371-.597-.55-1.535-1.29-1.636-1.29-.048 0-.088-.057-.088-.125 0-.07-.079-.151-.176-.181a.534.534 0 0 1-.265-.225c-.049-.093-.13-.169-.178-.169-.048 0-.253-.16-.456-.357-.203-.196-.472-.411-.598-.478-.127-.066-.254-.18-.282-.255-.028-.074-.097-.134-.153-.134-.056 0-.193-.089-.305-.197-.334-.327-.491-.461-1.129-.975-.337-.27-.705-.57-.817-.666-.112-.096-.24-.174-.284-.174-.044 0-.08-.056-.08-.125 0-.07-.079-.15-.175-.181a.53.53 0 0 1-.265-.225c-.05-.093-.131-.169-.18-.169-.208 0-.685-.578-.634-.77.028-.105.08-.192.116-.192.036 0 .252-.177.477-.393.226-.217.436-.394.467-.394.031 0 .137-.078.234-.173.098-.096.434-.377.747-.626.313-.248.655-.534.762-.635.107-.101.295-.263.419-.359a8.92 8.92 0 0 0 .466-.393c.133-.12.373-.317.536-.437.39-.29.63-.493 1.107-.94.218-.205.432-.372.476-.372.045 0 .13-.079.19-.175.06-.097.141-.175.179-.175.098 0 1.375-1.075 1.375-1.157 0-.037.052-.067.115-.067.064 0 .199-.09.301-.197.101-.109.248-.25.326-.315.548-.452-.252-.745-1.591-.582-.441.053-1.485.753-1.713 1.148-.039.066-.113.12-.164.12-.051 0-.246.158-.433.35-.186.192-.364.35-.393.35-.03 0-.182.108-.338.24a41.64 41.64 0 0 1-.58.482c-.5.406-1.052.886-1.258 1.093-.107.108-.223.197-.257.197-.087 0-1.215.958-1.3 1.105a.256.256 0 0 1-.194.119c-.068 0-.165.076-.214.169a.535.535 0 0 1-.265.224c-.097.03-.176.112-.176.181 0 .07-.044.125-.097.125-.054 0-.233.118-.397.263-.164.144-.373.262-.463.262-.189 0-1.661-1.15-2.322-1.814-.107-.108-.222-.197-.254-.197-.033 0-.225-.16-.428-.357-.202-.196-.471-.412-.598-.478-.126-.066-.253-.181-.282-.255-.028-.074-.11-.134-.182-.134-.071 0-.173-.08-.224-.176-.052-.096-.128-.174-.171-.174-.042 0-.247-.158-.456-.35-.208-.193-.655-.57-.991-.841-.638-.512-.794-.646-1.13-.974-.111-.108-.237-.197-.281-.197-.043 0-.125-.076-.184-.17-.262-.42-2.309-.529-2.489-.133zm-105.428.213c-.152.143-.303.376-.334.519-.032.142-.113.305-.182.363-.068.057-.166.256-.216.443-.05.187-.126.34-.169.34-.043 0-.126.147-.184.327-.06.18-.18.422-.27.537-.089.115-.162.276-.162.358 0 .082-.076.219-.17.303a.917.917 0 0 0-.227.417 1.022 1.022 0 0 1-.224.428c-.09.091-.166.239-.166.329 0 .09-.073.257-.163.372-.09.114-.193.307-.23.427-.038.12-.142.312-.23.427-.09.114-.164.277-.164.361 0 .083-.057.2-.127.258-.07.058-.173.249-.231.426a2.107 2.107 0 0 1-.267.53c-.09.114-.162.256-.162.315 0 .06-.079.208-.175.33-.096.122-.175.28-.175.35 0 .07-.073.222-.163.336-.09.115-.193.307-.23.427-.038.121-.141.313-.231.427-.09.115-.163.276-.163.359 0 .082-.08.242-.177.354a1.235 1.235 0 0 0-.232.429c-.03.124-.128.318-.216.433-.09.115-.162.257-.162.316 0 .06-.077.205-.17.323a1.475 1.475 0 0 0-.23.462c-.035.136-.136.32-.225.408-.09.09-.162.234-.162.32 0 .088-.099.292-.219.455-.12.163-.219.35-.219.414 0 .065-.082.23-.183.366-.594.803-.21 1.144 1.29 1.144 1.346 0 1.676-.106 1.906-.612.163-.356.374-.775.486-.962.248-.414.7-1.342.7-1.437 0-.06.078-.181.175-.268.096-.088.174-.226.174-.309 0-.082.074-.243.163-.358.09-.114.194-.306.23-.427.038-.12.142-.312.232-.427.089-.115.162-.276.162-.359 0-.082.08-.241.178-.354.097-.112.202-.305.232-.429.03-.123.127-.318.216-.433.089-.114.161-.276.161-.357 0-.083.079-.22.174-.307.095-.086.199-.292.23-.458.03-.165.11-.322.175-.346.065-.026.159-.192.207-.37.048-.18.186-.418.306-.531l.219-.206.054.272c.03.15.129.34.22.422.09.082.165.217.165.299 0 .082.073.243.162.358.089.115.209.353.267.53.058.176.161.368.231.426.07.058.127.171.127.252 0 .081.098.281.219.444.12.163.218.361.218.44 0 .08.074.212.165.294.09.082.187.26.214.396a.849.849 0 0 0 .172.37c.067.068.17.266.228.441.057.175.162.366.231.424a.38.38 0 0 1 .127.252c0 .081.099.28.219.444.12.163.22.357.22.432.001.075.08.235.173.355.094.12.172.28.174.355 0 .074.1.27.22.432.12.163.219.358.219.433 0 .074.152.303.34.507l.339.372h1.229c1.632 0 2.129-.258 1.594-.826-.098-.105-.18-.271-.18-.369 0-.097-.078-.248-.174-.335-.096-.088-.175-.226-.175-.308 0-.082-.098-.294-.218-.471-.12-.178-.22-.374-.22-.438 0-.063-.073-.21-.162-.324a1.618 1.618 0 0 1-.23-.427 1.61 1.61 0 0 0-.232-.427c-.089-.115-.162-.283-.162-.372 0-.09-.073-.236-.163-.326a1.04 1.04 0 0 1-.224-.408 1.48 1.48 0 0 0-.231-.462c-.093-.119-.17-.264-.17-.323s-.072-.202-.162-.316a2.128 2.128 0 0 1-.269-.537c-.059-.18-.141-.328-.184-.328-.042 0-.119-.153-.169-.34-.05-.186-.146-.384-.213-.44a.742.742 0 0 1-.18-.331 1.43 1.43 0 0 0-.227-.446c-.094-.118-.17-.283-.17-.365 0-.082-.075-.217-.166-.3-.091-.083-.192-.288-.224-.456-.031-.167-.111-.325-.178-.35-.066-.026-.145-.16-.176-.298a1.348 1.348 0 0 0-.212-.452c-.086-.11-.187-.3-.223-.42a1.183 1.183 0 0 0-.176-.35c-.06-.072-.156-.275-.212-.451-.057-.176-.155-.34-.219-.365-.064-.024-.143-.187-.175-.362-.033-.175-.115-.338-.18-.364-.067-.025-.148-.171-.18-.323a1.171 1.171 0 0 0-.215-.452 1.198 1.198 0 0 1-.218-.465c-.033-.16-.112-.31-.176-.334-.063-.025-.142-.15-.174-.278-.13-.516-.317-.566-.714-.194zm8.977-.173c.09.048.404.57.698 1.159.294.59.57 1.13.614 1.203.044.072.13.24.194.372.062.131.56 1.115 1.106 2.186 2.292 4.495 2.046 4.184 2.54 3.2.2-.401.402-.788.45-.86.046-.072.124-.23.171-.35.048-.12.125-.278.17-.35.045-.072.143-.26.219-.416l.273-.568c.075-.156.172-.343.215-.415.044-.072.338-.643.653-1.268.316-.626.61-1.197.655-1.268a5.64 5.64 0 0 0 .194-.365c.598-1.223 1.065-2.104 1.175-2.214.179-.18 2.757-.196 2.904-.02.08.097-.71 1.852-1.21 2.686-.043.072-.13.238-.192.369-.063.13-.567 1.124-1.12 2.21a257.096 257.096 0 0 0-1.12 2.21c-.062.132-.148.299-.191.371-.043.072-.417.8-.832 1.618-.415.818-.79 1.546-.834 1.618a5.337 5.337 0 0 0-.216.437c-.16.36-.369.777-.481.962-.044.073-.32.613-.613 1.201-.72 1.443-.716 1.443-1.445-.02-.216-.433-.43-.846-.474-.919a4.67 4.67 0 0 1-.195-.369 283.543 283.543 0 0 0-2.174-4.266 2.909 2.909 0 0 1-.175-.35c-.05-.12-.558-1.123-1.129-2.23a471.58 471.58 0 0 1-1.795-3.519c-.417-.829-.794-1.53-.839-1.557-.093-.058-.11-.42-.023-.507.094-.092 2.648-.067 2.827.03zm17.835.103c-.059.11-.16.253-.224.318a.887.887 0 0 0-.175.351c-.032.13-.13.329-.219.443-.088.115-.161.28-.161.368 0 .088-.076.23-.168.317a.986.986 0 0 0-.231.419 1.003 1.003 0 0 1-.226.418c-.09.086-.163.229-.163.316 0 .088-.076.257-.17.375a1.478 1.478 0 0 0-.23.462c-.034.136-.135.32-.224.409-.09.09-.163.233-.163.32s-.098.291-.218.454c-.12.163-.219.363-.219.444a.38.38 0 0 1-.126.252c-.07.058-.174.25-.232.426-.057.177-.156.352-.219.39-.064.037-.14.201-.171.366-.031.163-.131.365-.223.448-.09.083-.166.218-.166.3 0 .082-.079.25-.175.373a1.402 1.402 0 0 0-.232.5c-.03.152-.107.297-.17.321-.063.024-.16.188-.218.364a2.082 2.082 0 0 1-.267.529c-.09.115-.162.277-.162.36 0 .085-.057.2-.127.259-.07.057-.173.25-.231.426-.057.176-.156.351-.22.389-.063.037-.14.202-.17.366-.031.163-.132.365-.223.448-.091.083-.166.218-.166.3 0 .082-.076.247-.17.365a1.463 1.463 0 0 0-.228.45c-.032.129-.092.256-.134.28-.34.211-.714 1.51-.507 1.759.344.415 3.14.066 3.21-.4.016-.106.083-.213.15-.238.065-.026.166-.19.224-.367.057-.176.177-.414.266-.529.09-.114.162-.277.162-.36 0-.084.058-.2.127-.258.07-.058.174-.25.231-.427.058-.176.156-.351.22-.388.063-.038.14-.202.17-.366.032-.164.13-.364.218-.444a.905.905 0 0 0 .22-.408c.03-.145.132-.337.223-.428a.636.636 0 0 0 .166-.388c0-.122.057-.243.127-.27.07-.027.173-.193.231-.369.057-.176.178-.415.267-.529.089-.115.162-.276.162-.358 0-.082.075-.218.166-.3.092-.083.192-.288.224-.455.031-.168.112-.327.18-.353.069-.026.15-.18.18-.342.03-.162.114-.344.186-.404a.983.983 0 0 0 .22-.33l.09-.223.09.263c.049.144.162.356.251.47.09.115.162.257.162.317 0 .058.079.207.175.33.096.122.175.28.175.35 0 .07.073.22.162.336.09.114.21.355.27.536.058.18.14.328.183.328.043 0 .126.162.185.359.06.197.158.378.22.402.061.023.137.175.167.335.03.16.13.36.22.442.092.083.167.218.167.3 0 .082.073.244.162.358.09.115.21.354.267.53.057.176.162.368.232.426.069.058.126.174.126.258 0 .084.073.246.162.36.09.115.21.353.267.53.058.175.157.34.22.364.064.024.143.188.176.362.033.175.113.338.178.364.065.024.141.136.169.247.128.51 2.911.76 3.24.29.186-.264.171-.534-.039-.723-.096-.087-.175-.226-.175-.308 0-.083-.073-.244-.162-.359a2.115 2.115 0 0 1-.267-.528c-.057-.176-.155-.34-.218-.364-.063-.024-.14-.17-.17-.321a1.419 1.419 0 0 0-.232-.5c-.096-.123-.175-.291-.175-.373 0-.083-.075-.218-.166-.3-.092-.083-.192-.288-.224-.456-.031-.168-.113-.327-.181-.353-.068-.025-.149-.179-.179-.34-.03-.16-.13-.359-.22-.442-.092-.082-.167-.215-.167-.294 0-.08-.098-.278-.219-.44-.12-.164-.218-.369-.218-.455 0-.087-.073-.231-.163-.32a1.04 1.04 0 0 1-.224-.41 1.479 1.479 0 0 0-.23-.46c-.094-.12-.17-.288-.17-.376 0-.088-.074-.23-.163-.316a1.004 1.004 0 0 1-.226-.419.985.985 0 0 0-.231-.419c-.092-.086-.168-.228-.168-.316s-.072-.253-.161-.368a1.378 1.378 0 0 1-.216-.433 1.25 1.25 0 0 0-.232-.429c-.098-.112-.178-.272-.178-.354 0-.083-.073-.244-.163-.359a1.627 1.627 0 0 1-.23-.427 1.617 1.617 0 0 0-.231-.427c-.09-.115-.163-.276-.163-.358 0-.082-.078-.22-.175-.308-.096-.087-.175-.208-.175-.269 0-.104-.44-.992-.778-1.567-.195-.334-.484-.388-.63-.117zm21.569-.044c.186.186.162 2.305-.029 2.496-.087.087-.78.12-3.013.14-1.895.017-2.94.059-3.013.12-.091.075-.113 1.293-.113 6.056 0 4.52-.026 5.988-.105 6.068-.146.145-2.356.145-2.502 0-.079-.08-.105-1.547-.105-6.068 0-4.763-.022-5.982-.112-6.056-.074-.061-1.119-.103-3.014-.12-2.231-.02-2.926-.053-3.013-.14-.158-.157-.215-2.336-.066-2.515.172-.207 14.877-.189 15.085.019zm5.828.282c-.152.235-.277.485-.277.555 0 .07-.077.196-.17.28a.93.93 0 0 0-.228.417 1.014 1.014 0 0 1-.223.428c-.092.091-.166.24-.166.33 0 .089-.074.256-.163.371-.09.114-.193.307-.231.427a1.6 1.6 0 0 1-.231.427c-.089.115-.162.276-.162.359 0 .082-.08.242-.178.354a1.245 1.245 0 0 0-.232.429 1.362 1.362 0 0 1-.216.433c-.088.115-.161.276-.161.358 0 .082-.077.219-.17.303a.917.917 0 0 0-.228.416 1.018 1.018 0 0 1-.224.429.616.616 0 0 0-.166.37.56.56 0 0 1-.17.36.925.925 0 0 0-.227.416 1.03 1.03 0 0 1-.224.428c-.091.091-.166.239-.166.327 0 .09-.079.254-.177.366a1.229 1.229 0 0 0-.232.429c-.03.124-.127.318-.216.433-.089.115-.162.257-.162.316 0 .06-.076.205-.169.323-.094.12-.198.33-.231.471a.998.998 0 0 1-.224.412c-.09.086-.163.228-.163.317 0 .087-.076.256-.169.375a1.462 1.462 0 0 0-.232.462c-.034.135-.13.314-.215.399a1.02 1.02 0 0 0-.213.424c-.033.15-.094.272-.136.272-.043 0-.124.156-.182.348-.057.192-.177.415-.266.495-.197.178-.207.452-.025.711.329.47 3.112.22 3.24-.29.028-.111.104-.223.169-.247.065-.026.144-.183.176-.35.031-.169.131-.373.221-.455.091-.082.189-.279.219-.437.03-.158.107-.308.172-.333.065-.025.161-.205.213-.4.053-.195.13-.354.173-.354.043 0 .126-.148.185-.328.058-.18.18-.422.269-.537.089-.114.162-.276.162-.358 0-.082.076-.219.17-.303a.948.948 0 0 0 .229-.429.978.978 0 0 1 .223-.432c.091-.086.165-.228.165-.316s.079-.26.175-.383c.097-.123.2-.342.229-.487.029-.145.106-.284.17-.309.064-.024.159-.204.212-.4.052-.194.13-.353.172-.353.043 0 .125-.142.182-.315.188-.57.609-1.118.609-.792 0 .065.075.185.166.268.092.082.193.288.224.456.031.167.113.326.181.352.068.026.149.18.179.34.03.16.13.36.221.442.091.082.166.218.166.3 0 .082.073.243.162.358.09.114.211.36.272.543.06.183.159.353.221.377.062.024.137.162.165.307.029.145.132.365.229.487.096.123.175.295.175.384 0 .087.074.23.165.316.091.085.193.287.227.446.034.16.116.311.183.336.066.026.145.178.175.339.03.16.13.36.221.442.092.083.167.215.167.295 0 .08.098.278.218.44.121.164.219.368.219.455 0 .087.075.233.166.324.091.091.191.245.222.342.132.415 2.875.712 3.18.344.192-.23.206-.549.035-.768a2.146 2.146 0 0 1-.274-.543c-.058-.18-.141-.328-.184-.328-.042 0-.126-.161-.185-.36-.059-.197-.158-.378-.219-.401-.062-.024-.137-.174-.167-.335-.031-.16-.13-.36-.222-.442-.091-.083-.166-.218-.166-.3 0-.083-.073-.244-.162-.359a2.157 2.157 0 0 1-.271-.543c-.06-.183-.164-.355-.231-.38-.068-.026-.123-.136-.123-.245a.805.805 0 0 0-.162-.406 2.081 2.081 0 0 1-.266-.529c-.058-.176-.157-.34-.221-.364-.064-.025-.143-.188-.176-.362-.032-.175-.115-.34-.183-.366-.069-.026-.149-.18-.179-.34-.03-.16-.129-.36-.221-.442-.091-.082-.166-.218-.166-.3 0-.082-.073-.243-.162-.358a2.08 2.08 0 0 1-.267-.53c-.058-.176-.162-.368-.232-.426a.386.386 0 0 1-.126-.257c0-.084-.073-.246-.162-.361a2.078 2.078 0 0 1-.267-.53c-.058-.175-.161-.341-.231-.368-.07-.027-.127-.14-.127-.253 0-.112-.099-.338-.219-.5-.12-.164-.219-.362-.219-.441 0-.08-.074-.212-.165-.294a.856.856 0 0 1-.214-.397.843.843 0 0 0-.172-.37c-.067-.067-.169-.265-.227-.44-.058-.176-.162-.366-.232-.424-.07-.058-.127-.163-.127-.235 0-.219-.544-.986-.7-.986-.079 0-.269.193-.422.428zm20.625-.16c1.005.457 1.751 1.132 2.055 1.86.071.17.165.331.208.358.163.1.298 1.206.24 1.964-.095 1.256-.899 2.591-1.863 3.095-.135.07-.364.192-.508.27-.145.079-.342.144-.438.145-.233.002-.358.093-.425.308-.05.16 2.7 5.839 3.007 6.209.054.065.086.229.071.364l-.029.246-1.268.022c-.885.015-1.333-.012-1.483-.088-.191-.098-1.354-2.197-1.879-3.389a4.61 4.61 0 0 0-.216-.437c-.046-.072-.27-.5-.498-.952-.889-1.756-1.385-2.016-3.855-2.02-1.581-.002-1.427-.376-1.427 3.454v3.181l-.194.136c-.29.203-2.218.197-2.445-.008-.204-.185-.254-14.681-.051-14.885.085-.085 1.25-.102 5.313-.08l5.205.029.48.219zm8.412-.123c.151.137.16.443.163 6.057.005 7.04-.035 6.799 1.2 7.305l.548.224h7.08c9.942 0 8.861.927 8.923-7.652l.043-6.035.542-.026c.793-.038.739-.53.708 6.479l-.027 6.141-.288.542c-.401.755-.957 1.342-1.56 1.648l-.512.259-7.346.027c-8.044.028-8.447.01-9.065-.413-.697-.475-1.141-1.023-1.454-1.788-.143-.35-.29-12.452-.155-12.803.066-.17 1.002-.143 1.2.035zm24.968.49c.425.35.885.741 1.021.87.137.13.471.403.744.607.272.204.534.415.582.47.048.053.777.666 1.618 1.362a78.274 78.274 0 0 1 1.793 1.512c1.126 1.058 1.598 1.197 2.099.617.048-.056.776-.665 1.618-1.355.842-.69 1.57-1.3 1.618-1.355.048-.056.381-.331.74-.613s.733-.585.831-.673c.32-.289.428-.38 1.475-1.236l1.035-.847.889.025c1.177.033 1.167.082-.247 1.253-.625.517-1.157.967-1.181 1-.024.033-1.185.997-2.58 2.144-1.395 1.146-2.576 2.13-2.623 2.187a6.13 6.13 0 0 1-.494.426c-.626.499-.613.55.345 1.337.459.378.969.811 1.132.964.162.152.519.446.793.65.273.207.537.419.585.473.048.053.777.666 1.62 1.361.843.696 1.669 1.388 1.837 1.538.166.151.5.422.741.604 1.233.93 1.261 1.175.134 1.175-.907 0-1.822-.502-2.714-1.49-.072-.08-.426-.377-.787-.661a17.472 17.472 0 0 1-.7-.567c-.024-.028-.749-.632-1.61-1.342a132.63 132.63 0 0 1-1.674-1.392c-.637-.603-1.228-1.018-1.449-1.02-.194 0-2.243 1.542-2.439 1.837-.024.035-.319.286-.656.555-.336.27-.691.563-.787.652-.096.089-.745.627-1.443 1.195-.697.569-1.307 1.078-1.355 1.131-.174.195-1.054.905-1.241 1.002-.2.104-1.486.139-1.726.047-.243-.094-.149-.333.254-.647.217-.169.522-.418.678-.554.157-.137.891-.745 1.632-1.352a55.82 55.82 0 0 0 1.488-1.245c.076-.079.395-.348.707-.6.313-.252.648-.526.744-.611.096-.084.765-.64 1.487-1.232 1.616-1.328 1.598-1.265.594-2.078a34.411 34.411 0 0 1-1.556-1.32 17.037 17.037 0 0 0-.7-.559 12.882 12.882 0 0 1-.734-.6c-.115-.11-.883-.753-1.707-1.43a128.879 128.879 0 0 1-1.671-1.39 23.175 23.175 0 0 0-.786-.644c-.336-.267-.627-.5-.646-.517-.184-.17.263-.299 1.042-.299h.856l.774.636zm-80.008 1.464c.527 1.034 1.377 2.707 1.89 3.718.511 1.01.965 1.895 1.007 1.967.042.072.155.289.252.481a422.837 422.837 0 0 0 2.112 4.154c.043.072.129.238.192.367.063.13.325.652.582 1.161.615 1.216.644 1.184-1.047 1.184-1.505 0-1.46.02-1.908-.888a14.49 14.49 0 0 0-.354-.687 5.617 5.617 0 0 1-.194-.366 275.806 275.806 0 0 0-1.732-3.394 7.614 7.614 0 0 1-.202-.394c-.344-.718-.427-.885-.5-1.006a17.154 17.154 0 0 1-.361-.7c-.156-.312-.4-.78-.544-1.04l-.26-.472-.205.254c-.113.139-.461.764-.775 1.39a53.177 53.177 0 0 1-.649 1.268c-.043.072-.14.259-.215.415l-.274.57a7.76 7.76 0 0 1-.213.414 251.48 251.48 0 0 0-1.731 3.393c-.063.13-.152.296-.2.368-.045.072-.143.26-.215.419-.184.4-.404.456-1.784.456-1.582 0-1.64-.107-.794-1.487.043-.072.131-.238.194-.368.209-.434 2.09-4.134 2.169-4.267a5.79 5.79 0 0 0 .192-.37c.063-.132.561-1.115 1.109-2.186.547-1.072 1.413-2.775 1.926-3.785 1.044-2.057 1.388-2.636 1.498-2.525.041.042.506.922 1.034 1.956zm-27.17-.735c.303.604.603 1.203.666 1.332.062.129.152.293.198.366.047.071.145.268.216.437.073.168.17.365.218.437.047.072.125.23.172.35.049.12.126.277.172.35.046.072.344.643.662 1.268.318.625.612 1.195.655 1.268.116.197.325.619.478.962.075.168.173.365.216.437.044.072.42.8.834 1.618.415.818.789 1.546.832 1.618.043.072.129.238.192.368.062.13.38.765.704 1.413.805 1.604.844 1.543-.974 1.543h-1.225l-.215-.285c-.119-.156-.377-.618-.576-1.027a16.43 16.43 0 0 0-.445-.875 2.77 2.77 0 0 1-.177-.35c-.05-.12-.458-.927-.907-1.792-.449-.866-1.16-2.257-1.582-3.091l-.767-1.517-.207.208c-.163.163-1.46 2.62-2.277 4.312a8.47 8.47 0 0 1-.202.393c-.041.072-.416.8-.832 1.618a76.433 76.433 0 0 1-.838 1.619c-.044.072-.119.24-.166.373-.127.357-.416.421-1.775.394-1.615-.032-1.627-.058-.76-1.555.041-.072.127-.235.19-.363a153.36 153.36 0 0 1 1.38-2.698c.112-.183.32-.6.482-.962.075-.168.172-.365.216-.437.081-.134 1.528-2.963 1.735-3.393.063-.13.152-.296.199-.368.046-.072.143-.269.216-.437.072-.168.167-.365.211-.438.044-.071.421-.81.838-1.64.417-.83.79-1.528.827-1.552.037-.023.095-.15.128-.283.065-.265.56-.828.667-.76.038.022.317.535.62 1.139zm53.912-.773c.143.228.665 1.222 1.16 2.208a140.79 140.79 0 0 0 1.165 2.292c.209.434 2.09 4.134 2.169 4.267.043.072.129.238.192.368.176.365 1.646 3.245 1.732 3.393.042.072.131.25.197.393.067.145.167.341.224.438.057.096.143.274.191.394.048.12.134.284.192.364.081.114.079.176-.011.284-.15.18-2.592.206-2.832.03-.183-.136-.264-.283-1.415-2.559-.511-1.01-.964-1.895-1.007-1.968a6.014 6.014 0 0 1-.192-.368c-1.075-2.244-1.993-3.922-2.125-3.884-.079.023-1.042 1.797-1.264 2.328-.051.12-.128.278-.173.35-.045.072-.52.997-1.055 2.055a142.547 142.547 0 0 1-1.051 2.056 6.323 6.323 0 0 0-.191.367c-.392.81-.8 1.528-.923 1.622-.223.17-2.676.153-2.82-.02-.097-.117.392-1.27.872-2.057.044-.072.132-.239.194-.37.187-.391 2.085-4.123 2.169-4.265.043-.072.13-.24.192-.372.063-.131.64-1.273 1.283-2.536 3.09-6.071 2.708-5.483 3.127-4.81zm-74.7 1.159a.162.162 0 0 0 .024.19c.058.058.109.053.151-.016a.162.162 0 0 0-.024-.19c-.058-.058-.108-.053-.15.016zm86.369 1.176c-.163.197-.09 2.388.084 2.5.294.19 6.731-.003 7.172-.213.885-.425.992-1.629.193-2.182l-.334-.232h-3.505c-2.954 0-3.521.02-3.61.127zm7.333.192c.096.104.224.204.284.224.067.023.123.262.147.627.075 1.185-.173 1.258-4.504 1.308-2.642.032-3.085.019-3.127-.09-.072-.187-.06-2.173.013-2.246.182-.182 7.009-.014 7.187.177zm-95.059.271c-.004.192-.17.319-.172.132 0-.109.038-.197.086-.197.048 0 .087.03.086.066z" fill="#5B5B5C"/><path fill-rule="evenodd" clip-rule="evenodd" d="M25.582.356c-.192.1-.554.345-.803.542-.25.197-.597.457-.771.577-.174.12-.521.376-.77.569-.25.192-.651.486-.892.653-.24.167-.476.336-.525.375-.047.04-.48.363-.962.718-.48.356-.953.707-1.049.78-.096.074-.608.455-1.137.846-1.29.953-1.322.988-1.67 1.743-.167.361-.342.716-.39.788a3.714 3.714 0 0 0-.218.437 3.81 3.81 0 0 1-.217.438c-.047.072-.125.23-.172.35-.049.12-.127.287-.175.371-.126.22-.23.427-.34.678-.053.12-.133.278-.179.35-.045.072-1.346 2.69-2.892 5.816-1.545 3.126-2.847 5.744-2.894 5.816-.046.072-.143.269-.215.437-.072.168-.17.365-.217.438-.047.071-.127.23-.179.35a25.032 25.032 0 0 1-.689 1.398c-.043.073-.99 1.982-2.103 4.243a363.932 363.932 0 0 1-2.107 4.241 4.08 4.08 0 0 0-.215.437c-.072.169-.17.365-.217.438-.047.072-.125.23-.172.35-.049.12-.128.277-.177.35a3.428 3.428 0 0 0-.22.437c-.073.168-.17.365-.218.437-.047.072-.127.23-.179.35-.123.288-.59 1.232-.691 1.4-.203.331-1.402 2.86-1.402 2.953 0 .06-.035.107-.078.107-.117 0-.178.219-.096.351.1.16.629-.382 3.323-3.404.313-.352.667-.745.787-.874.291-.315 1.588-1.75 2.178-2.41.26-.29.79-.88 1.18-1.31l.911-1.006.527-.574c.178-.192.56-.622.847-.955.288-.333.602-.689.698-.789.148-.156.874-.95 1.91-2.089.14-.153.53-.592.87-.977.727-.825 1.954-2.179 2.21-2.44.1-.1.493-.537.875-.97l.782-.883.7-.781c.336-.376.685-.76.775-.855.229-.238 1.735-1.908 2.417-2.68 1.35-1.526 1.314-1.516 2.013-.607.264.343.843 1.08 1.288 1.64.445.559.878 1.107.962 1.217a106.012 106.012 0 0 1 1.333 1.682c.458.585 1.166 1.49 1.575 2.01.409.52 1.117 1.426 1.574 2.013a462.94 462.94 0 0 0 1.636 2.084c.443.56.876 1.112.962 1.226.087.114.216.273.288.353.378.418.635.836.635 1.032 0 .156.021.185.075.1.152-.24.064-.441-.513-1.163a159.544 159.544 0 0 1-2.2-2.795c-.258-.341-.534-.687-.611-.77a5.3 5.3 0 0 1-.292-.35A54.059 54.059 0 0 0 28.818 24a16.552 16.552 0 0 1-.325-.416 67.69 67.69 0 0 0-.923-1.177 163.025 163.025 0 0 0-1.268-1.616 203.193 203.193 0 0 1-2.414-3.087c-.258-.34-.517-.657-.576-.705a1.139 1.139 0 0 1-.211-.284c-.124-.233-.74-.285-.86-.073-.038.068-.389.472-.78.897-.389.424-.862.951-1.051 1.17l-.471.548c-.15.173-.628.695-1.66 1.816-1.005 1.09-.934 1.012-1.574 1.742l-.7.798c-.178.204-1.179 1.296-1.661 1.815-.608.653-1.585 1.749-1.832 2.056-.123.153-.38.442-.573.642-.193.201-.606.65-.919.996-.312.348-.648.714-.745.814-.098.1-.413.454-.7.788-.287.333-.601.69-.697.793-.097.103-.49.535-.875.96-.385.425-.798.879-.918 1.008-.222.237-.546.6-1.18 1.32a89.279 89.279 0 0 1-1.717 1.909c-.412.435-1.107 1.2-1.87 2.058-.336.38-.7.787-.809.906-.108.12-.196.25-.196.292 0 .04-.058.074-.13.074-.07 0-.186.109-.258.241l-.13.24-.004-.274c-.002-.167.049-.295.128-.326.072-.027.131-.1.132-.162 0-.062.118-.348.262-.637.143-.289.261-.57.261-.627 0-.056.034-.115.076-.13.075-.03.712-1.303.712-1.425 0-.035.079-.164.175-.287.096-.122.175-.29.175-.374 0-.084.057-.2.126-.258.07-.057.174-.25.232-.426.058-.177.178-.415.267-.53.09-.114.162-.277.162-.36 0-.084.057-.2.127-.258.07-.058.173-.25.231-.426.058-.177.178-.415.267-.53.09-.114.162-.277.162-.36 0-.085.057-.2.127-.258.07-.058.173-.25.23-.426.056-.177.152-.38.212-.453.06-.072.156-.278.214-.459.058-.18.139-.328.18-.328.04 0 .12-.147.178-.328.058-.18.155-.387.215-.459.06-.072.155-.276.212-.452.056-.177.16-.369.23-.426a.384.384 0 0 0 .126-.258c0-.084.08-.253.176-.376.096-.123.2-.342.229-.488a.88.88 0 0 1 .217-.414c.091-.082.165-.216.165-.299 0-.082.077-.247.17-.365.093-.119.197-.33.23-.47.034-.142.114-.318.18-.393.065-.075.165-.272.222-.438.058-.165.157-.352.22-.416a.87.87 0 0 0 .17-.35c.031-.128.11-.295.175-.37.065-.076.165-.272.223-.438.057-.165.156-.352.219-.416a.87.87 0 0 0 .17-.35c.031-.128.11-.295.175-.37.065-.076.165-.273.223-.438.057-.165.156-.353.22-.416a.878.878 0 0 0 .171-.35c.032-.129.13-.328.219-.442.09-.115.162-.278.162-.36 0-.084.073-.246.163-.36.089-.115.193-.307.23-.428.037-.12.141-.312.231-.427.09-.115.163-.277.163-.36 0-.083.073-.245.163-.36.09-.115.193-.307.23-.427.038-.12.141-.313.231-.427.09-.115.163-.277.163-.36 0-.083.073-.246.163-.36.09-.115.193-.307.23-.427.038-.12.142-.313.231-.427.09-.115.163-.277.163-.36 0-.084.074-.246.163-.36.09-.115.193-.307.23-.427.038-.12.142-.313.232-.428.09-.114.162-.277.162-.36 0-.083.079-.25.175-.373.096-.123.175-.256.175-.297 0-.062.751-1.646.968-2.04.324-.588.694-1.343.694-1.415 0-.049.079-.189.175-.311.096-.123.175-.291.175-.375 0-.084.057-.2.127-.258.07-.057.173-.25.23-.426a2.08 2.08 0 0 1 .267-.53c.09-.114.163-.276.163-.36 0-.084.057-.2.127-.258.07-.058.173-.25.231-.426.057-.176.177-.415.267-.53.089-.114.162-.283.162-.374 0-.215 1.173-1.385 1.389-1.385.053 0 .146-.079.206-.175.06-.096.149-.174.197-.175.049 0 .196-.088.327-.197.13-.108.378-.295.548-.415.171-.12.405-.297.52-.393a9.33 9.33 0 0 1 .525-.394c.174-.12.529-.376.79-.568.26-.193.618-.448.794-.569.175-.12.403-.297.505-.394a2.59 2.59 0 0 1 .33-.262c.255-.155.64-.424.91-.634.144-.112.34-.262.436-.333.097-.07.302-.228.457-.35.472-.375.801-.427.91-.143.05.13.167.381.259.559.092.178.168.387.168.463 0 .077.098.325.218.55.12.227.22.471.22.543 0 .073.078.25.174.395.095.144.174.333.174.42 0 .085.1.341.22.567.12.226.218.47.218.543 0 .072.08.25.175.394.096.144.174.329.174.41 0 .082.1.334.22.56.12.226.218.47.218.541 0 .071.074.253.166.403.09.15.191.397.224.55.032.153.111.322.175.375.064.053.143.243.177.422.033.179.135.447.228.597.091.15.168.327.17.394.001.067.1.317.217.558.119.24.216.492.217.558 0 .067.075.244.166.394.09.15.192.398.224.55.033.154.112.323.177.377.066.054.146.255.178.445s.11.4.175.463c.064.064.162.29.218.501.057.212.154.444.216.517.063.071.142.268.177.437.034.168.114.365.176.437.063.072.16.308.217.525.058.216.155.453.218.524.062.073.142.268.177.434.036.167.135.403.22.525.086.122.18.366.21.542.03.175.113.367.184.426.07.058.129.174.129.258 0 .083.098.336.218.562.12.226.219.478.22.56 0 .081.078.277.174.434.096.158.175.34.175.403 0 .064.098.301.218.527.12.226.219.478.22.56 0 .081.078.266.174.41.095.145.174.326.174.403 0 .077.099.325.22.551.12.227.218.479.218.56.001.082.08.266.175.41.095.145.174.326.174.403 0 .077.1.325.22.551.12.226.218.478.219.56 0 .081.078.267.174.411.095.144.174.325.174.402 0 .077.1.325.22.551.12.227.218.467.218.534 0 .475.363.699.672.415.092-.084.125-.126.072-.092-.18.115-.508-.145-.63-.498a7.768 7.768 0 0 0-.292-.706c-.094-.195-.171-.392-.171-.437 0-.045-.076-.24-.169-.431a20.173 20.173 0 0 1-.4-.919c-.125-.313-.301-.745-.39-.962-.278-.68-.62-1.513-.804-1.968-.098-.24-.25-.595-.338-.787a5.223 5.223 0 0 1-.223-.568 3.446 3.446 0 0 0-.225-.524c-.09-.168-.163-.364-.163-.437 0-.073-.08-.25-.175-.395-.096-.144-.174-.322-.175-.393 0-.073-.098-.328-.216-.57-.119-.24-.217-.496-.219-.567-.002-.073-.082-.25-.177-.394-.096-.144-.174-.322-.175-.394 0-.072-.098-.328-.216-.568-.119-.24-.217-.496-.219-.569-.002-.072-.082-.249-.177-.393-.096-.145-.174-.321-.175-.394-.001-.072-.099-.328-.217-.568-.118-.24-.216-.497-.218-.569-.002-.072-.082-.249-.177-.393-.096-.144-.176-.322-.177-.394-.002-.072-.1-.328-.218-.568-.12-.24-.216-.497-.217-.569 0-.072-.08-.249-.175-.393-.096-.145-.174-.322-.175-.395 0-.073-.073-.27-.162-.438a4.895 4.895 0 0 1-.275-.654 2.513 2.513 0 0 0-.232-.523.675.675 0 0 1-.118-.297c0-.068-.094-.325-.209-.57-.405-.87-.579-1.284-.579-1.38 0-.055-.094-.3-.209-.545-.115-.245-.29-.643-.388-.883l-.412-1.006a55.412 55.412 0 0 0-.798-1.897c-.112-.25-.204-.499-.204-.555 0-.055-.06-.205-.132-.333a3.961 3.961 0 0 1-.248-.577c-.141-.423-.186-.438-.626-.206zm47.067 15.87c-.086.088-.07.449.023.507.045.028.422.728.839 1.557.416.83 1.225 2.413 1.795 3.52a98.418 98.418 0 0 1 1.13 2.23c.05.12.128.277.173.35.08.127 1.948 3.79 2.175 4.265.062.131.15.298.195.37.044.072.258.485.474.918.729 1.463.724 1.463 1.445.02.293-.588.57-1.128.613-1.2.112-.186.32-.604.48-.963.076-.168.174-.365.217-.437.044-.072.42-.8.834-1.618.415-.818.789-1.546.832-1.618a5.95 5.95 0 0 0 .192-.37c.062-.132.566-1.127 1.119-2.212.553-1.085 1.057-2.08 1.12-2.21a5.42 5.42 0 0 1 .192-.368c.5-.834 1.29-2.589 1.21-2.685-.147-.177-2.725-.16-2.904.019-.11.11-.577.99-1.175 2.214-.062.128-.15.292-.194.364-.045.072-.34.643-.655 1.269-.315.625-.61 1.196-.653 1.268-.043.072-.14.259-.215.415l-.273.569a5.937 5.937 0 0 1-.22.415c-.044.072-.12.23-.169.35a2.47 2.47 0 0 1-.172.35c-.047.072-.25.459-.45.86-.493.984-.247 1.295-2.54-3.2a242.063 242.063 0 0 1-1.105-2.186c-.063-.133-.15-.3-.194-.372-.044-.072-.32-.613-.614-1.203-.294-.59-.609-1.111-.698-1.159-.179-.096-2.733-.121-2.827-.029zm27.146.07c-.149.178-.092 2.357.066 2.514.087.087.782.12 3.013.14 1.895.017 2.939.059 3.013.12.091.075.113 1.293.113 6.056 0 4.52.025 5.988.105 6.068.146.145 2.356.145 2.502 0 .079-.08.105-1.547.105-6.068 0-4.763.022-5.982.112-6.056.074-.061 1.119-.103 3.014-.12 2.233-.02 2.926-.053 3.013-.14.191-.191.215-2.31.029-2.496-.208-.208-14.913-.226-15.085-.019zm30.54-.027c-.203.204-.153 14.7.051 14.885.227.205 2.155.211 2.445.008l.194-.136v-3.18c0-3.83-.154-3.457 1.427-3.455 2.47.004 2.966.264 3.855 2.02.228.452.452.88.498.952.045.072.142.269.216.437.525 1.192 1.688 3.291 1.879 3.389.15.076.598.103 1.483.088l1.268-.022.028-.246c.016-.135-.016-.299-.07-.364-.307-.37-3.057-6.048-3.007-6.209.067-.215.192-.306.425-.308.096-.001.293-.066.438-.145.144-.078.373-.2.508-.27.964-.504 1.768-1.839 1.863-3.095.058-.758-.077-1.864-.24-1.964-.044-.027-.137-.188-.208-.357-.304-.729-1.05-1.404-2.055-1.86l-.48-.219-5.205-.028c-4.063-.023-5.228-.006-5.313.08zm18.21.01c-.135.35.012 12.452.155 12.802.313.765.757 1.313 1.454 1.788.618.423 1.021.441 9.065.413l7.346-.027.512-.26c.603-.305 1.159-.892 1.56-1.647l.288-.542.027-6.142c.031-7.009.085-6.516-.708-6.478l-.542.026-.044 6.035c-.061 8.58 1.02 7.652-8.922 7.652h-7.08l-.548-.224c-1.235-.506-1.195-.265-1.2-7.305-.004-6.774.072-6.202-.822-6.202-.32 0-.514.04-.541.11zm23.572.022c-.061.074-.095.148-.076.166.019.017.31.25.646.517.337.267.691.557.786.644.096.087.848.712 1.671 1.39.824.677 1.592 1.32 1.707 1.43.115.109.446.379.734.6.289.222.604.473.7.56.51.458.859.754 1.556 1.319 1.004.813 1.022.75-.594 2.078-.722.593-1.391 1.148-1.487 1.232-.096.085-.431.36-.744.61-.312.253-.631.522-.708.6-.077.079-.746.64-1.487 1.246-.741.607-1.475 1.215-1.632 1.352-.157.136-.461.385-.678.554-.403.314-.497.553-.254.647.24.092 1.526.057 1.726-.047.187-.097 1.067-.808 1.241-1.002.048-.053.658-.562 1.355-1.131a72.765 72.765 0 0 0 1.443-1.195c.096-.089.451-.382.787-.652.337-.27.632-.52.656-.555.196-.295 2.245-1.837 2.439-1.836.221 0 .812.416 1.449 1.019.059.055.812.682 1.674 1.392.861.71 1.586 1.314 1.61 1.342.024.028.339.283.7.567.361.284.715.581.787.661.892.988 1.806 1.49 2.714 1.49 1.127 0 1.099-.245-.134-1.175a13.007 13.007 0 0 1-.741-.604c-.168-.15-.994-.842-1.837-1.538-.843-.695-1.572-1.308-1.62-1.361a7.548 7.548 0 0 0-.585-.472 11.713 11.713 0 0 1-.794-.651 33.277 33.277 0 0 0-1.131-.964c-.958-.786-.971-.838-.345-1.337a6.13 6.13 0 0 0 .494-.426c.047-.057 1.228-1.04 2.623-2.187 1.395-1.147 2.556-2.111 2.58-2.144.024-.033.556-.483 1.181-1 1.414-1.17 1.424-1.22.247-1.253l-.889-.025-1.035.847c-1.047.857-1.155.947-1.475 1.236-.098.088-.472.391-.831.673-.359.282-.692.557-.74.613-.048.055-.776.665-1.618 1.355-.842.69-1.57 1.3-1.618 1.355-.501.58-.973.441-2.099-.617a78.274 78.274 0 0 0-1.793-1.512c-.841-.696-1.57-1.31-1.618-1.363a7.256 7.256 0 0 0-.583-.47 11.106 11.106 0 0 1-.743-.605c-.136-.13-.596-.52-1.021-.87l-.774-.636h-.856c-.659 0-.881.03-.966.133zm-96.82.031c.13.037.243.159.294.32.047.143.135.319.196.39.062.073.18.3.261.504.081.204.177.372.212.372s.11.152.166.34c.056.186.16.387.232.447.072.06.131.177.131.261 0 .083.073.246.162.361.09.114.21.353.267.53.058.176.158.364.223.418a.74.74 0 0 1 .176.328c.031.127.134.327.227.446.093.118.17.283.17.365 0 .082.074.217.165.299.09.082.186.26.214.396a.855.855 0 0 0 .172.37c.067.068.17.266.227.441.058.175.162.366.232.424.07.057.126.171.126.252 0 .08.099.28.22.443.12.164.218.367.218.452 0 .194.5.773.668.773.069 0 .2-.173.29-.384.09-.21.204-.408.252-.438.049-.03.113-.17.144-.31.031-.14.11-.3.176-.355.066-.055.145-.212.175-.35.03-.137.11-.295.176-.35.067-.056.169-.246.226-.422.058-.176.13-.34.163-.365.032-.024.224-.378.427-.787.202-.409.405-.802.449-.875.127-.206.398-.756.614-1.246.048-.108.124-.255.17-.328.046-.072.135-.236.198-.364 1.06-2.173 1.153-2.323 1.469-2.379.46-.08 2.126-.064 2.262.023.14.089.003.622-.202.793a.728.728 0 0 0-.176.328 1.453 1.453 0 0 1-.227.445c-.094.119-.17.282-.17.362 0 .08-.099.28-.219.443-.12.162-.219.365-.219.449 0 .084-.042.179-.094.21-.052.033-.17.222-.261.422-.092.199-.206.42-.253.493a3.69 3.69 0 0 0-.219.437 4.509 4.509 0 0 1-.211.437c-.043.073-.123.23-.176.35-.053.12-.134.278-.18.35-.108.17-.313.577-.485.962a4.14 4.14 0 0 1-.222.437c-.047.073-.13.23-.182.35-.053.12-.132.278-.175.35-.044.072-.16.289-.257.481s-.234.449-.303.569a.947.947 0 0 0-.128.358c-.001.076-.078.209-.172.293a.888.888 0 0 0-.224.4c-.03.137-.108.293-.174.348-.066.055-.145.212-.175.35-.03.137-.11.295-.176.35-.067.056-.168.245-.226.422a2.107 2.107 0 0 1-.267.53c-.09.114-.162.277-.162.36 0 .084-.057.2-.127.258-.07.058-.174.25-.232.427-.058.176-.154.36-.214.408-.06.048-.153.232-.21.408-.055.177-.155.366-.222.422-.066.055-.146.215-.177.355l-.056.255-.194-.24c-.107-.13-.441-.73-.743-1.331a50.45 50.45 0 0 0-.628-1.225 4.895 4.895 0 0 1-.21-.437 4.017 4.017 0 0 0-.217-.438 9.417 9.417 0 0 1-.448-.874 4.284 4.284 0 0 0-.182-.35 7.608 7.608 0 0 1-.264-.546c-.102-.229-.216-.416-.254-.416-.037 0-.094-.116-.125-.258a1.375 1.375 0 0 0-.214-.46c-.086-.11-.186-.298-.223-.419a1.187 1.187 0 0 0-.175-.35c-.06-.072-.158-.278-.216-.459-.058-.18-.138-.328-.18-.328-.04 0-.12-.147-.18-.328a2.11 2.11 0 0 0-.269-.536c-.09-.115-.162-.276-.162-.358 0-.083-.075-.217-.165-.3a.853.853 0 0 1-.214-.396.861.861 0 0 0-.172-.37c-.067-.067-.17-.265-.228-.44-.058-.175-.162-.366-.232-.424a.386.386 0 0 1-.126-.258c0-.084-.073-.246-.162-.36a2.125 2.125 0 0 1-.27-.537c-.058-.18-.14-.328-.18-.328-.04 0-.122-.148-.181-.328a2.13 2.13 0 0 0-.27-.537c-.088-.114-.161-.257-.161-.316s-.08-.207-.176-.33c-.225-.286-.221-.307.066-.35.397-.06 2.149-.05 2.377.013zm18.054.285c-.135.21-.665 1.209-1.178 2.219l-1.926 3.785a263.561 263.561 0 0 0-1.11 2.186 5.797 5.797 0 0 1-.191.37c-.08.133-1.96 3.833-2.17 4.267-.062.13-.15.296-.194.368-.844 1.38-.787 1.487.795 1.487 1.38 0 1.6-.057 1.784-.456.072-.159.17-.347.216-.419a4.4 4.4 0 0 0 .199-.368 250.32 250.32 0 0 1 1.731-3.393c.042-.072.138-.259.213-.415l.274-.569c.075-.156.172-.343.215-.415.044-.072.336-.643.65-1.268.313-.626.661-1.251.774-1.39l.205-.254.26.472c.143.26.388.728.544 1.04.155.313.318.628.361.7.073.121.156.288.5 1.006.07.144.16.321.202.394.084.146 1.553 3.025 1.732 3.394.063.13.15.294.194.366.045.072.204.381.354.687.448.908.403.888 1.908.888 1.691 0 1.662.032 1.047-1.184-.257-.509-.519-1.032-.582-1.16a6.387 6.387 0 0 0-.192-.368 419.99 419.99 0 0 1-2.112-4.154c-.097-.192-.21-.409-.252-.48-.042-.073-.496-.958-1.008-1.968-3.28-6.47-2.918-5.872-3.243-5.368zm21.226-.27c.152.08.169.19.169 1.073 0 1.501.291 1.372-3.092 1.372-2.077 0-2.848.028-2.925.105-.08.08-.105 1.558-.105 6.12v6.016l-.197.048c-.108.028-.669.038-1.246.024l-1.05-.025-.043-6.035c-.024-3.319-.076-6.084-.115-6.143-.054-.084-.723-.11-2.852-.11-3.48 0-3.243.1-3.243-1.365 0-.957.009-1.005.197-1.081.286-.115 14.287-.114 14.502 0zm26.188.095c.144.078.4.172.568.208.169.036.418.159.554.273.136.114.28.208.321.208.094 0 .612.514.612.608 0 .038.059.118.131.178.747.62.969 2.822.402 3.982-.297.607-1.285 1.703-1.535 1.703-.061 0-.21.077-.33.172-.12.095-.38.198-.578.23-.585.093-.671.71-.186 1.327.095.12.172.287.172.37 0 .084.074.245.163.36a1.6 1.6 0 0 1 .231.427 1.6 1.6 0 0 0 .231.428c.089.114.162.276.162.36 0 .083.074.245.163.36a1.6 1.6 0 0 1 .231.427 1.6 1.6 0 0 0 .231.427c.089.115.162.276.162.358 0 .082.079.22.175.308.097.087.175.21.175.275 0 .138.507 1.148.682 1.36.232.279.043.332-1.162.332-1.413 0-1.551-.042-1.694-.516-.058-.197-.141-.358-.184-.358-.042 0-.124-.148-.182-.328-.058-.18-.155-.387-.216-.459a1.196 1.196 0 0 1-.175-.35 1.62 1.62 0 0 0-.229-.427c-.09-.115-.163-.257-.163-.316 0-.06-.073-.202-.162-.316a2.058 2.058 0 0 1-.267-.53c-.058-.177-.162-.368-.231-.426a.386.386 0 0 1-.127-.258c0-.083-.077-.249-.17-.367a1.428 1.428 0 0 1-.226-.443.899.899 0 0 0-.224-.379c-.092-.082-.168-.19-.168-.236 0-.106-.379-.47-.787-.753-.776-.54-3.66-.736-4.117-.278l-.255.255v6.395l-.197.05c-.108.026-.63.036-1.159.022l-.962-.025-.022-7.341c-.018-5.814 0-7.356.087-7.415.228-.152 9.964-.04 10.255.118zm8.772-.081c.08.08.105 1.515.105 5.925l.001 5.82.198.481c.24.587.499.892 1.021 1.205l.398.238h7.49c7.012 0 7.502-.01 7.66-.153.093-.084.214-.152.268-.152.156 0 .566-.441.829-.891l.239-.409v-5.987c0-6.673-.047-6.214.628-6.166l.378.027v6.266c0 5.846-.01 6.278-.153 6.435-.085.094-.153.232-.153.309 0 .077-.099.256-.219.4-.12.143-.218.288-.218.323 0 .099-.636.654-.749.654-.056 0-.215.09-.353.197l-.25.197h-15.922l-.307-.219c-.634-.452-1.047-.819-1.096-.974a.904.904 0 0 0-.199-.308c-.455-.451-.484-.856-.515-7.226l-.028-5.927.198-.08c.284-.114.627-.107.749.015zm24.76.332c.289.24.545.438.569.438.024 0 .136.088.249.196.114.108.415.374.672.59.256.217.509.434.563.481.054.049.236.192.404.32.289.218.756.614 1.05.89.272.254 1.746 1.458 1.786 1.458.023 0 .135.088.248.197.737.705 1.759 1.523 1.996 1.598.162.052.643-.276 1.279-.87.107-.1.284-.249.394-.331.11-.083.477-.378.815-.656.825-.679.898-.74 1.116-.944.103-.096.426-.364.715-.596.659-.526 1.329-1.092 1.598-1.35.113-.108.232-.196.264-.196.033 0 .139-.08.237-.176.098-.096.473-.415.834-.71.361-.294.684-.58.718-.634.075-.118 1.593-.136 1.701-.021.041.043.028.094-.028.114-.056.02-.199.123-.318.229-.118.105-.343.29-.499.41-.156.12-.374.297-.484.394-.11.096-.323.273-.474.394-.151.12-.341.282-.423.36a50.94 50.94 0 0 1-1.243 1.034c-.601.492-1.124.95-1.163 1.017-.039.069-.113.125-.165.125-.052 0-.184.088-.293.197a3.934 3.934 0 0 1-.317.284c-.309.228-1.011.798-1.18.958-.221.21-.314.288-1.076.906-.677.55-.878.771-.878.968 0 .122 1.215 1.235 1.348 1.235.024 0 .137.088.252.197.565.528.951.86 1.508 1.289.335.258.695.55.801.65.304.288.456.417 1.338 1.133a114.289 114.289 0 0 1 1.703 1.41c.232.192.486.408.564.48.079.073.35.288.602.48.545.413.49.467-.488.477l-.637.006-1.025-.847c-1.175-.97-1.222-1.01-1.474-1.238-.103-.094-.38-.322-.615-.508-.586-.463-.715-.571-.934-.78-.104-.099-.759-.645-1.456-1.214-1.249-1.019-1.357-1.109-1.707-1.423-.807-.725-1.068-.652-2.552.718-.234.217-.253.232-1.598 1.342-.603.498-1.128.96-1.166 1.028-.039.068-.113.123-.166.123-.051 0-.184.089-.293.197-.235.233-.363.34-.902.748-.223.17-.487.39-.586.49-.2.203-.776.69-1.301 1.101-.328.256-.378.268-1.043.244-.842-.03-.879-.097-.303-.55.244-.192.578-.468.742-.612.163-.145.419-.36.567-.48.149-.121.323-.27.387-.33.064-.061.296-.25.516-.418.368-.28.787-.643 1.332-1.155.115-.109.228-.197.251-.197.043 0 1.53-1.216 1.805-1.476.083-.078.24-.21.35-.292.231-.172 1.4-1.13 1.594-1.306.072-.065.191-.169.265-.231.314-.264.169-.571-.527-1.117a18.997 18.997 0 0 1-.809-.663 19.762 19.762 0 0 0-.717-.612c-.313-.258-.647-.535-.743-.616-.096-.08-.432-.356-.747-.613-.667-.541-.825-.675-1.028-.87a18.7 18.7 0 0 0-.761-.632c-.336-.27-.692-.57-.79-.666-.098-.097-.226-.177-.284-.177-.059 0-.107-.032-.107-.072 0-.04-.43-.423-.956-.852-1.076-.878-1.075-.888.012-.903.579-.01.591-.005 1.111.428zm-107.72-.062c-.15.154-.298.39-.33.522-.033.133-.09.26-.128.284-.038.023-.41.721-.827 1.551s-.794 1.569-.838 1.64c-.044.073-.139.27-.211.438-.073.168-.17.365-.216.437a4.173 4.173 0 0 0-.199.368c-.207.43-1.654 3.26-1.735 3.393a5.147 5.147 0 0 0-.216.437c-.162.362-.37.779-.482.962-.072.12-1.105 2.137-1.38 2.698-.063.128-.149.291-.19.363-.868 1.497-.855 1.523.76 1.555 1.36.027 1.648-.037 1.775-.394.047-.134.122-.301.166-.373.045-.073.422-.8.838-1.619.416-.817.79-1.546.832-1.617.041-.073.132-.25.202-.394.816-1.691 2.114-4.15 2.277-4.312l.207-.208.767 1.517c.422.834 1.133 2.225 1.582 3.09.449.866.857 1.673.907 1.793.05.12.13.278.177.35.046.072.247.466.445.875s.457.871.576 1.027l.214.285h1.226c1.818 0 1.78.061.974-1.543-.325-.648-.642-1.283-.704-1.413a6.235 6.235 0 0 0-.192-.368c-.043-.072-.417-.8-.832-1.618a78.99 78.99 0 0 0-.834-1.618 5.466 5.466 0 0 1-.216-.437 12.058 12.058 0 0 0-.478-.962 67.05 67.05 0 0 1-.655-1.268 39.866 39.866 0 0 0-.662-1.268 2.623 2.623 0 0 1-.172-.35 2.45 2.45 0 0 0-.172-.35 3.808 3.808 0 0 1-.218-.437 3.84 3.84 0 0 0-.216-.438 4.558 4.558 0 0 1-.198-.365c-1.262-2.595-1.268-2.604-1.625-2.233zm54.327-.069c-.079.12-.43.78-.78 1.465-1.603 3.142-2.983 5.86-3.087 6.078-.062.133-.149.3-.192.372-.084.142-1.982 3.874-2.169 4.265-.062.131-.15.298-.194.37-.48.788-.969 1.94-.872 2.057.144.173 2.597.19 2.82.02.123-.094.531-.811.923-1.622.062-.13.149-.295.191-.367.043-.073.516-.997 1.051-2.056.535-1.058 1.01-1.983 1.055-2.055.045-.072.122-.23.173-.35.222-.531 1.185-2.305 1.264-2.328.132-.038 1.05 1.64 2.125 3.884.063.13.149.296.192.368.043.073.496.958 1.007 1.968 1.151 2.276 1.232 2.423 1.415 2.558.24.177 2.682.152 2.832-.029.09-.108.092-.17.01-.284a2.124 2.124 0 0 1-.191-.364 3.419 3.419 0 0 0-.191-.394 5.824 5.824 0 0 1-.224-.438 5.928 5.928 0 0 0-.197-.393 250.478 250.478 0 0 1-1.732-3.393 6.137 6.137 0 0 0-.192-.367c-.079-.134-1.96-3.834-2.17-4.268a7.43 7.43 0 0 0-.188-.368 141.13 141.13 0 0 1-.976-1.924c-1.338-2.663-1.44-2.807-1.703-2.405zm-26.843.83c.075.169.175.366.222.438.047.072.125.23.173.35.048.12.127.278.177.35.048.072.15.269.227.437.076.168.188.365.25.437.06.072.157.276.214.453.056.176.16.368.23.426.07.057.126.173.126.257 0 .084.077.25.17.368.093.119.195.32.227.446a.74.74 0 0 0 .175.328c.066.054.165.242.222.418.057.177.154.38.216.453.063.072.14.236.172.365a.908.908 0 0 0 .225.385c.092.084.167.219.167.3 0 .083.073.244.162.36.09.114.21.352.267.529.058.176.162.368.232.426.07.058.126.174.126.258 0 .083.077.249.17.367.093.119.196.32.227.446a.738.738 0 0 0 .176.328c.065.054.165.242.221.42.057.175.15.379.21.45.058.073.352.634.653 1.247.3.614.582 1.137.626 1.164.043.027.079.12.079.207s.072.252.161.367c.623.808.468.949-1.049.95l-1.193.002-.36-.722c-.2-.397-.397-.78-.438-.853a4.375 4.375 0 0 1-.172-.35 3.295 3.295 0 0 0-.18-.35 9.29 9.29 0 0 1-.485-.961 4.84 4.84 0 0 0-.218-.438 40.188 40.188 0 0 1-.628-1.224c-.3-.601-.572-1.113-.603-1.137-.032-.024-.104-.188-.162-.365-.057-.176-.159-.366-.226-.421-.066-.055-.146-.215-.176-.356-.031-.14-.097-.28-.145-.31-.048-.03-.163-.217-.257-.416-.613-1.316-.79-1.333-1.34-.131a4.093 4.093 0 0 1-.222.425c-.047.072-.146.269-.218.437a4.667 4.667 0 0 1-.212.437 4.19 4.19 0 0 0-.179.35c-.087.193-.168.347-.456.875-.04.072-.251.485-.47.918-.22.433-.432.846-.473.918-.042.073-.119.23-.172.35-.053.12-.134.278-.18.35-.108.17-.313.577-.485.962a4.147 4.147 0 0 1-.222.437c-.047.073-.13.23-.182.35a3.61 3.61 0 0 1-.178.35 4.705 4.705 0 0 0-.219.452c-.171.395-.26.42-1.518.42-1.492 0-1.525-.033-.954-.96.044-.072.12-.229.168-.35.047-.12.125-.277.17-.349.047-.072.343-.643.66-1.268.315-.626.61-1.196.654-1.268.09-.146.29-.54.445-.875.055-.12.135-.278.176-.35.041-.072.254-.485.473-.918.22-.433.433-.847.475-.918.042-.073.121-.23.176-.35.055-.12.154-.317.22-.438a5.98 5.98 0 0 0 .215-.437 3.13 3.13 0 0 1 .178-.35c.09-.14.283-.519.448-.874.056-.12.137-.278.18-.35.045-.072.14-.269.212-.438.073-.168.171-.365.219-.437.048-.072.149-.269.225-.437.076-.168.189-.365.25-.437.062-.072.142-.23.177-.35.035-.12.114-.278.174-.35.06-.072.156-.275.213-.452.057-.177.156-.365.221-.419a.677.677 0 0 0 .17-.304c.029-.114.158-.37.289-.57l.237-.361.153.288c.085.158.216.425.291.594zm-27.067-.536c0 .084.098.286.218.45.121.162.22.364.22.448 0 .084.037.177.084.206.047.028.343.572.66 1.208.315.635.61 1.213.653 1.286.09.147.292.546.444.874.056.12.135.278.176.35.042.072.254.485.474.918.218.433.436.847.483.919.048.072.125.23.174.35.047.12.125.277.172.35.047.072.145.268.218.437.071.168.169.365.216.437.096.15.285.518.492.962.08.168.193.365.254.437.061.072.138.247.172.387.033.14.137.352.23.47.093.12.17.265.17.324 0 .06.072.202.161.316.09.115.186.31.217.433.03.124.134.317.232.43.097.111.177.271.177.353 0 .083.073.244.163.359.09.114.192.307.229.427.036.12.117.278.18.35.565.646.37.784-1.114.785l-1.197.002-.133-.24a23.712 23.712 0 0 1-.31-.591 6.891 6.891 0 0 0-.264-.481 3.795 3.795 0 0 1-.218-.438 4.664 4.664 0 0 0-.211-.437 3.75 3.75 0 0 1-.176-.35 3.25 3.25 0 0 0-.18-.35 9.392 9.392 0 0 1-.485-.961 4.128 4.128 0 0 0-.223-.438 6.285 6.285 0 0 1-.259-.48 9.323 9.323 0 0 0-.252-.482 3.83 3.83 0 0 1-.176-.35 2.924 2.924 0 0 0-.182-.35 3.9 3.9 0 0 1-.217-.437 4.723 4.723 0 0 0-.212-.437 3.672 3.672 0 0 1-.176-.35 3.203 3.203 0 0 0-.18-.35c-.094-.15-.27-.492-.518-1.018-.095-.199-.21-.385-.257-.414-.104-.065-.716.596-.716.773 0 .07-.099.271-.219.449-.12.177-.219.37-.219.43s-.056.155-.125.213c-.07.057-.15.217-.181.357a1.36 1.36 0 0 1-.22.46c-.089.114-.188.31-.22.437a.738.738 0 0 1-.18.331c-.067.056-.163.254-.214.441-.05.187-.126.34-.168.34-.043 0-.125.148-.184.328-.059.18-.18.422-.27.537-.089.114-.162.257-.162.316s-.076.204-.169.323c-.093.118-.198.33-.233.47-.035.141-.112.295-.171.344-.059.048-.153.232-.208.408-.056.177-.157.366-.223.422-.067.055-.146.213-.176.35-.03.138-.11.296-.176.35-.067.056-.167.239-.222.406-.138.416-.33.468-1.707.468-1.117 0-1.175-.008-1.175-.174 0-.096.036-.175.08-.175.045 0 .13-.148.188-.328.059-.18.18-.422.27-.537.089-.114.162-.26.162-.323 0-.064.098-.261.218-.439.12-.176.219-.39.219-.475 0-.084.055-.174.123-.2.067-.026.15-.166.18-.312.033-.145.132-.358.222-.472a1.4 1.4 0 0 0 .221-.438.743.743 0 0 1 .18-.33c.067-.056.163-.255.213-.442.05-.186.127-.34.17-.34.042 0 .124-.147.182-.328.058-.18.153-.386.212-.459.059-.072.253-.426.432-.787.179-.36.361-.715.405-.787.044-.072.139-.269.211-.437.072-.168.17-.365.216-.437.047-.073.136-.237.199-.367.535-1.108 1.605-3.202 1.69-3.306.06-.073.153-.277.21-.453.056-.176.156-.365.221-.42.065-.053.144-.2.176-.327a1.43 1.43 0 0 1 .227-.446c.093-.118.17-.276.17-.351 0-.17.437-.638.538-.575.04.025.074.114.074.198zm54.368.051c.103.162.233.436.291.609.057.172.137.314.177.314.041 0 .122.148.179.328.059.18.155.387.216.46.06.071.138.229.173.35.036.12.134.296.218.393.084.096.178.28.209.409.03.129.108.287.173.352.065.065.165.262.223.437.058.174.162.365.232.423a.387.387 0 0 1 .126.258c0 .084.073.246.163.36.089.115.209.354.267.53.057.177.157.366.222.42.065.053.144.201.176.328.032.126.134.326.227.445.094.119.17.287.17.373 0 .087.037.182.084.21.046.028.263.415.482.858.22.444.434.865.476.937a4.4 4.4 0 0 1 .172.35c.053.12.134.278.179.35.076.12.153.274.504 1.006.069.144.163.32.208.393.046.072.126.23.179.35.052.12.13.278.172.35.559.968 1.223 2.479 1.118 2.545-.145.092-2.353.103-2.493.012-.055-.036-.162-.202-.239-.37a5.324 5.324 0 0 0-.219-.438 4.545 4.545 0 0 1-.181-.35 12.3 12.3 0 0 0-.443-.875 55.449 55.449 0 0 1-.654-1.267 51.345 51.345 0 0 0-.656-1.269 7.037 7.037 0 0 1-.211-.393 24.335 24.335 0 0 1-.396-.83c-.16-.345-.358-.732-.446-.876a25.57 25.57 0 0 1-.45-.874c-.203-.41-.395-.763-.427-.788-.032-.023-.123-.171-.204-.328-.08-.156-.181-.283-.224-.283-.116 0-.579.713-.698 1.075-.056.17-.157.355-.223.41-.067.056-.147.216-.178.356-.031.14-.09.277-.132.303-.042.025-.337.576-.656 1.224s-.616 1.2-.661 1.227c-.044.028-.08.121-.08.208s-.073.252-.163.366c-.09.115-.194.308-.231.428-.037.12-.141.312-.23.427-.09.115-.163.276-.163.358 0 .083-.08.242-.178.354a1.262 1.262 0 0 0-.232.43c-.03.123-.127.318-.216.432-.089.115-.162.257-.162.317 0 .059-.073.201-.162.316a1.63 1.63 0 0 0-.231.427c-.037.12-.111.247-.165.283-.132.087-2.343.082-2.481-.005-.131-.084.085-.812.291-.983a.38.38 0 0 0 .125-.256c0-.084.076-.25.169-.368.094-.119.196-.32.228-.45.033-.129.093-.255.135-.281.041-.025.334-.575.651-1.221.316-.646.61-1.196.651-1.222.042-.026.101-.162.132-.302.031-.14.113-.302.181-.36.069-.056.167-.256.217-.442.05-.187.126-.34.169-.34.042 0 .125-.148.184-.328.059-.18.18-.422.269-.537.089-.115.162-.28.162-.366 0-.087.041-.184.091-.215.05-.03.267-.416.483-.857.215-.441.428-.861.473-.933.125-.203.383-.724.605-1.225.053-.12.134-.277.18-.35.046-.072.134-.236.197-.365.347-.715.801-1.62.869-1.733a5.25 5.25 0 0 0 .205-.404c.408-.885.554-.995.802-.607zm11.575 2.078c-.273.29-.238 2.454.043 2.66.146.106.731.122 3.717.102l3.543-.025.338-.233c.628-.434.993-1.43.633-1.728a.656.656 0 0 1-.173-.295c-.027-.106-.195-.291-.374-.412l-.323-.218-3.608-.026-3.607-.025-.189.2zm7.628.214c.799.553.692 1.757-.194 2.181-.44.211-6.877.404-7.171.215-.174-.113-.247-2.304-.084-2.501.089-.107.656-.127 3.61-.127h3.505l.334.232zm-95.347.49c0 .159.018.171.086.065.11-.17.11-.262 0-.262-.048 0-.087.088-.086.197zm-.498.373c-.154.176-.163.217-.051.217.123 0 .122.017-.007.16-.08.088-.145.196-.145.24 0 .046-.079.132-.175.192-.096.06-.175.146-.175.192 0 .117.395-.272.463-.456.031-.084.094-.153.14-.153.069 0 .36-.471.36-.582 0-.108-.25.008-.41.19zm-.54.487c-.114.092-.171.167-.127.167.117 0 .428-.24.376-.291-.023-.024-.136.032-.25.124zm-.517 1.1c-.06.024-.151.13-.201.234-.079.162-.074.17.026.057.065-.072.174-.18.242-.24.128-.115.116-.124-.067-.05zm-.944.313-.257.285.305-.262c.169-.145.322-.273.343-.285.02-.012-.002-.022-.049-.022s-.201.128-.343.284zm-.08.905c-.081.124-.125.248-.097.277.028.028.051.012.051-.035s.08-.172.178-.278c.098-.104.142-.19.098-.19-.044 0-.148.101-.23.226zm-2.366 1.457-.61.634.634-.61c.349-.335.634-.62.634-.634 0-.064-.092.021-.658.61zm.736.437c-.124.156-.433.53-.685.831-.251.3-.439.546-.416.546.046 0 1.21-1.37 1.318-1.552.118-.198.015-.114-.217.175zm-2.342 1.088-.753.76.787-.736c.433-.405.803-.747.823-.76.02-.013.005-.024-.033-.024-.04 0-.41.342-.824.76zm-.379 2.148c-.607.728-.663 1.329-.18 1.919.053.063.137.272.189.465.051.192.173.505.27.696.098.19.178.412.178.491 0 .08.055.192.121.247.067.056.168.287.225.514.058.227.156.472.22.544.062.072.142.269.177.437.035.169.114.365.176.437.063.073.156.29.208.484.051.194.152.43.224.525a.679.679 0 0 1 .134.303c.002.073.1.328.218.569.118.24.217.496.218.568.002.072.082.26.178.418.096.157.175.334.175.394 0 .058.098.303.217.544.118.24.216.496.218.569.001.071.081.249.177.393.095.144.174.321.175.394.001.072.098.328.217.568.118.24.216.492.217.558.002.066.079.244.17.394.197.318.32.887.209.956-.065.04-.589-.559-1.213-1.383a89.728 89.728 0 0 0-.776-.981 78.2 78.2 0 0 1-1.058-1.356c-.228-.302-.469-.608-.535-.68a18.939 18.939 0 0 1-.559-.7 69.104 69.104 0 0 0-.978-1.256 72.874 72.874 0 0 1-.595-.756 52.67 52.67 0 0 0-.635-.802c-.222-.27-.383-.477-.82-1.056-.35-.463-.452-.498-.689-.236-.16.177-.16.178.065.093.216-.082.263-.042.914.79l1.43 1.823a270.45 270.45 0 0 1 2.353 3.013c.26.339.535.684.612.766.077.082.226.26.332.394l1.54 1.951.487.635c.609.796.864.499.42-.489a54.288 54.288 0 0 1-.798-1.897l-.762-1.858a36.689 36.689 0 0 0-.394-.913c-.112-.25-.204-.505-.204-.568 0-.064-.079-.244-.175-.402-.096-.157-.175-.334-.176-.393 0-.06-.097-.304-.215-.544-.118-.241-.217-.497-.219-.57-.002-.071-.081-.249-.177-.393-.095-.144-.174-.321-.175-.394 0-.071-.098-.327-.216-.568-.118-.24-.217-.496-.219-.568-.002-.072-.082-.25-.177-.394-.096-.144-.174-.321-.175-.393 0-.073-.099-.328-.217-.569-.118-.24-.216-.492-.217-.558-.002-.067-.085-.253-.184-.414-.381-.616-.338-1.187.132-1.737.226-.266.393-.483.369-.483-.025 0-.217.207-.427.46zm-5.452 3.41-.257.285.284-.257c.157-.14.285-.269.285-.284 0-.067-.073-.008-.312.257zm1.169 1.575c-.353.417-.664.857-.449.634.229-.236.92-1.093.88-1.093-.023 0-.218.207-.431.46zm-3.219.372c-.358.36-.632.656-.608.656.024 0 .337-.295.695-.656.359-.36.632-.656.608-.656-.024 0-.336.295-.695.656zm2.27.765c-.162.205-.226.316-.141.248.159-.127.533-.62.472-.62-.02 0-.169.168-.33.372zm-3.628.522-.61.631.612-.566c.56-.516.725-.696.64-.696-.018 0-.307.284-.642.63zm3.189.003c-.186.16-.557.59-.508.59.022 0 .19-.157.372-.35.323-.341.39-.46.136-.24zm-5.026 1.75-.434.458.459-.434c.252-.239.459-.445.459-.459 0-.065-.081.008-.485.434zm3.398.174a2.19 2.19 0 0 0-.246.328c-.074.14-.054.12.3-.284.116-.132.191-.241.167-.241-.024 0-.123.089-.22.197zm-16.065.127a.236.236 0 0 0-.054.15c0 .055.03.048.072-.017.054-.085.147-.06.396.11.378.256.525.296.22.058-.307-.238-.572-.364-.634-.301zm.298.643c-.002.027.095.182.215.345.12.163.219.26.219.214-.001-.089-.43-.64-.434-.559zm.81 1.255c.202.31.379.55.394.536.037-.038-.574-.985-.676-1.048-.046-.029.081.202.283.512zm9.37-.1-.257.283.284-.257c.265-.239.325-.311.257-.311-.015 0-.143.128-.284.284zm4.116-.218a1.397 1.397 0 0 0-.216.24c-.095.128-.067.118.11-.038.213-.191.279-.271.215-.268-.012 0-.06.03-.11.066zm-.704.824c-.19.2-.282.329-.203.284.138-.08.65-.65.583-.65-.019 0-.19.164-.38.366zm-12.163.457c.126.186.23.379.23.428 0 .05.022.067.05.04.067-.068-.178-.53-.362-.683-.081-.068-.044.03.082.215zm11.332.51c-.162.205-.226.316-.141.248.159-.127.534-.62.472-.62-.02 0-.168.168-.33.372zm-4.94.7-.61.634.654-.612c.36-.337.671-.622.693-.634.021-.012.001-.022-.044-.022-.046 0-.357.285-.692.634zm4.1.262c-.449.508-1.027 1.23-.942 1.18.106-.063 1.205-1.377 1.152-1.377-.02 0-.113.09-.21.197zm15.8.722c0 .12-.015.219-.034.219-.018 0-.052-.099-.075-.22-.023-.12-.008-.218.033-.218.042 0 .076.099.076.219zm-17.705 1.508c-.189.242-.204.283-.057.155.175-.154.406-.483.339-.483-.014 0-.14.148-.282.328zm-.494.613c-.516.578-.633.721-.587.721.027 0 .233-.216.46-.48.418-.49.518-.679.127-.241zm-4.225 1.591c.053.075.141.215.195.311.053.096.098.128.1.07 0-.057-.087-.197-.195-.31-.108-.113-.153-.145-.1-.07zm.515.792c.075.145.155.263.18.263.024 0-.018-.119-.092-.263-.075-.144-.155-.262-.18-.262-.024 0 .018.118.092.262zm.504.787c.019.072.13.139.247.147.166.013.174.006.036-.032a.525.525 0 0 1-.247-.147c-.048-.065-.06-.055-.037.032z" fill="#848484"/></svg>