<svg width="160" height="36" fill="none" xmlns="http://www.w3.org/2000/svg"><path d="M36.671 12.838c-.025-.06-.04-.12-.065-.183-1.526-3.74-7.32-4.872-14.002-3.164l-1.095-.683c3.289-1.42 6.564-2.16 9.309-1.957 4.094.31 6.096 2.64 5.853 5.987zm-5.94 7.854c-4.283 5.454-12.024 9.23-17.291 8.839-5.259-.398-6.056-5.138-1.771-10.592.085-.112.177-.222.266-.334l.014 6.837c-.028 1.739 1.646 2.555 2.85 1.864l15.748-9.604c1.231-.798 1.101-2.583-.059-3.27l-6.385-3.675c1.726-.519 3.383-.763 4.854-.655 5.263.399 6.055 5.137 1.775 10.59zm-20.03 11.773c-4.834-.364-6.761-3.55-5.503-7.889-.008.723.106 1.417.374 2.06 1.89 4.645 10.37 5.274 18.94 1.419.175-.08.35-.166.523-.243-4.811 3.105-10.171 4.961-14.334 4.653zm5.569-24.28 10.572 6.663c.781.468.875 1.688.043 2.229l-10.68 6.512c-.815.47-1.959-.09-1.936-1.277l-.05-12.931c.045-1.08 1.113-1.731 2.05-1.196zm24.472 2.399c-2.216-5.445-11.418-6.644-21.376-3.12l-4.419-2.77C13.571 3.91 12 4.867 11.924 6.46l.003 4.496C3.345 16.097-1.632 23.5.487 28.711c2.455 6.019 13.454 6.845 24.567 1.838 11.116-5.004 18.139-13.943 15.688-19.965zM49.575 18.432l-.96 3.535a27.225 27.225 0 0 0-.342 1.45c-.09.445-.128.762-.128.96 0 .378.103.667.313.885.22.216.513.322.872.322.564 0 1.15-.318 1.757-.953.603-.637 1.182-1.546 1.747-2.739a34.067 34.067 0 0 0 1.652-4.53c.41-1.484.626-2.653.626-3.485 0-.604-.125-1.091-.368-1.454-.245-.366-.558-.554-.925-.554-.836 0-1.598.54-2.297 1.605-.7 1.077-1.348 2.724-1.947 4.958zm-6.033-8.212a86.784 86.784 0 0 0 4.263-.449 61.136 61.136 0 0 0 3.91-.623l-1.058 3.79c1.056-1.466 2.062-2.542 3.027-3.204.947-.685 1.93-1.01 2.965-1.01 1.408 0 2.5.445 3.26 1.33.77.895 1.147 2.165 1.147 3.808 0 1.387-.258 2.85-.784 4.379a17.158 17.158 0 0 1-2.202 4.274c-1.093 1.536-2.245 2.687-3.478 3.449-1.24.768-2.544 1.155-3.935 1.155a4.956 4.956 0 0 1-1.608-.25 4.646 4.646 0 0 1-1.351-.743l-1.083 4.11c-.074.245-.132.51-.16.767a4.647 4.647 0 0 0-.053.762c0 .493.142.851.434 1.051.294.198.887.32 1.779.377v.96h-10.09v-1.001a.845.845 0 0 0 .147-.017.685.685 0 0 1 .144-.022c.628 0 1.095-.161 1.408-.49.316-.329.636-1.183.975-2.576l4.016-16.36c.07-.26.124-.527.167-.78.04-.245.064-.447.064-.58 0-.451-.135-.752-.398-.918-.271-.184-.773-.268-1.506-.268v-.921z" fill="#fff"/><path d="M62.057 1.196a71.604 71.604 0 0 0 4.35-.486C67.795.51 69.116.282 70.355 0l-5.542 21.936c-.036.12-.077.265-.125.456-.073.283-.1.465-.1.562 0 .258.048.464.15.606.106.147.257.219.452.219.2 0 .425-.137.685-.42.256-.275.754-1.001 1.495-2.178l.884.671c-1.112 1.863-2.184 3.216-3.192 4.054-1.008.837-2.054 1.253-3.149 1.253-.964 0-1.719-.267-2.239-.811-.526-.545-.784-1.329-.784-2.341 0-.498.27-1.82.802-3.96l.053-.216 3.679-14.277c.033-.131.079-.327.138-.583.234-.94.337-1.545.337-1.806 0-.36-.12-.62-.371-.794-.245-.169-.626-.26-1.155-.26h-.317v-.915z" fill="#fff"/><path d="M79.407 12.556c0-.525-.11-.94-.34-1.254-.23-.31-.526-.464-.897-.464-.528 0-1.035.257-1.527.779-.492.527-1.056 1.398-1.701 2.618-.755 1.453-1.347 2.87-1.771 4.267-.437 1.409-.654 2.6-.654 3.588 0 .601.121 1.065.36 1.417.24.33.57.5.97.5.595 0 1.202-.354 1.831-1.077.628-.719 1.221-1.733 1.783-3.037a34.888 34.888 0 0 0 1.412-4.223c.354-1.36.534-2.397.534-3.114zm6.685-3.219-2.956 10.851v.039c-.45 1.671-.677 2.643-.677 2.922 0 .258.045.464.149.625.097.162.224.232.394.232.478 0 1.103-.575 1.853-1.73.226-.33.4-.591.52-.773l.859.677c-.965 1.694-1.926 2.946-2.907 3.744-.981.8-2.041 1.195-3.17 1.195-.94 0-1.66-.208-2.144-.621-.5-.428-.743-1.037-.743-1.849 0-.242.018-.553.07-.919.044-.37.121-.85.224-1.437-.893 1.633-1.866 2.848-2.917 3.632a5.636 5.636 0 0 1-3.507 1.194c-1.333 0-2.381-.414-3.152-1.246-.774-.84-1.16-1.981-1.16-3.434 0-1.67.365-3.43 1.115-5.29.74-1.838 1.734-3.482 2.988-4.894.989-1.135 2.011-2.007 3.076-2.618 1.072-.611 2.096-.913 3.082-.913.942 0 1.672.23 2.217.685.542.462.899 1.164 1.07 2.099l.544-2.17h5.172z" fill="#fff"/><path d="M84.37 10.838V9.836c1.44-.16 2.898-.36 4.384-.584 1.475-.225 2.278-.334 2.39-.334.593 0 1.37 2.61 2.311 7.84.382 2.082.695 3.76.94 5.015 1.122-2.274 1.888-3.933 2.303-4.971.413-1.032.616-1.8.616-2.29 0-.38-.346-.843-1.035-1.369-.687-.532-1.04-1.143-1.04-1.819 0-.783.24-1.413.725-1.892.476-.471 1.112-.708 1.907-.708.786 0 1.406.237 1.85.708.437.479.664 1.148.664 2 0 1.07-.514 2.795-1.533 5.167-1.021 2.368-2.417 5.033-4.183 8.015-2 3.4-3.825 5.867-5.462 7.43-1.638 1.56-3.215 2.337-4.732 2.337-1.008 0-1.796-.223-2.373-.672-.574-.452-.864-1.07-.864-1.856 0-.716.246-1.296.749-1.767.496-.467 1.126-.698 1.892-.698.6 0 1.243.24 1.93.713.685.48 1.152.707 1.378.707.413 0 .878-.346 1.405-1.037.54-.699.81-1.355.81-1.992 0-.463-.043-1.055-.124-1.765a58.5 58.5 0 0 0-.378-2.631 177.48 177.48 0 0 0-1.054-6.09c-.36-1.824-.681-3.264-.969-4.317-.253-.903-.508-1.49-.766-1.768-.258-.274-.676-.41-1.272-.41h-.046c-.173.024-.306.04-.424.04" fill="#fff"/><path d="M107.426 22.213c-1.114 1.57-2.208 2.775-3.274 3.607-1.056.84-2.021 1.258-2.897 1.258-.707 0-1.258-.234-1.666-.686-.407-.462-.614-1.08-.614-1.856 0-.273.029-.575.082-.915.05-.343.128-.723.234-1.124l3.179-12.429h-3.347L99.434 9c1.439-.314 2.711-1 3.822-2.062 1.104-1.066 2.108-2.537 2.989-4.422h1.142l-1.494 6.24h3.058l-.309 1.313h-3.152l-3.051 12.005c-.07.273-.124.511-.161.737-.026.219-.05.42-.05.59 0 .4.087.7.267.916.166.213.418.316.723.316.4 0 .87-.233 1.426-.72.554-.478 1.257-1.262 2.099-2.343l.683.644z" fill="#fff"/><path d="M110.548 18.122c2.46-.118 4.533-.792 6.196-2.007 1.676-1.234 2.502-2.62 2.502-4.191 0-.526-.133-.921-.4-1.187-.258-.255-.659-.386-1.197-.386-1.491 0-2.876.675-4.143 2.053-1.269 1.387-2.252 3.289-2.958 5.718zm-.291 1.316c-.115.446-.188.877-.24 1.287a7.29 7.29 0 0 0-.078 1.11c0 1.041.252 1.836.771 2.383.51.549 1.263.954 2.244.954.966 0 2.077-.459 3.299-1.122 1.238-.66 2.629-1.658 4.162-2.993l.809 1.226c-1.829 1.649-3.551 2.868-5.17 3.647-1.614.794-3.194 1.182-4.746 1.182-1.519 0-2.712-.46-3.548-1.366-.844-.917-1.263-2.2-1.263-3.875 0-1.6.328-3.227.984-4.876a14.886 14.886 0 0 1 2.686-4.394c1.099-1.224 2.308-2.153 3.61-2.803 1.321-.643 2.667-.975 4.054-.975 1.277 0 2.278.3 3.017.893.738.589 1.111 1.401 1.111 2.436 0 1.862-1.085 3.48-3.235 4.84-2.155 1.356-4.977 2.166-8.467 2.446z" fill="#fff"/><path d="m134.293 19.694-.047 2.352c-1.159 1.695-2.414 2.96-3.781 3.804a8.416 8.416 0 0 1-4.476 1.252c-1.77 0-3.216-.592-4.327-1.79-1.106-1.18-1.658-2.751-1.658-4.703 0-1.434.314-2.897.94-4.39a13.114 13.114 0 0 1 2.6-4.01c1.015-1.069 2.154-1.904 3.417-2.476 1.251-.583 2.53-.883 3.848-.883 1.382 0 2.48.322 3.298.953.817.632 1.227 1.471 1.227 2.53 0 .628-.209 1.172-.638 1.619-.423.452-.924.672-1.51.672-.479 0-.865-.15-1.162-.468-.295-.313-.443-.718-.443-1.225 0-.354.115-.758.358-1.229.234-.463.348-.753.348-.869 0-.218-.115-.392-.361-.528-.245-.135-.567-.203-.986-.203-.851 0-1.713.26-2.601.797-.881.545-1.652 1.279-2.314 2.21a14.044 14.044 0 0 0-1.867 3.604c-.431 1.267-.644 2.499-.644 3.719 0 1.377.346 2.479 1.045 3.283.707.805 1.655 1.35 2.855 1.35.947 0 1.877-.442 2.791-1.033.92-.6 2.443-1.796 4.089-4.338" fill="#fff"/><path d="m132.208 27.122 6.26-22.681c.037-.139.06-.279.076-.43.024-.14.03-.284.03-.4 0-.404-.103-.682-.298-.838-.198-.139-.766-.215-1.694-.215h-1.425l.221-1.035a21.237 21.237 0 0 0 3.223-.377c.99-.209 1.938-.477 2.816-.827h1.132l-4.333 15.666c2.219-2.261 4.263-4.012 6.122-5.273 1.855-1.24 3.337-1.868 4.442-1.868.583 0 1.005.138 1.285.416.273.286.42.72.42 1.303 0 .182-.03.398-.083.659-.049.27-.117.565-.197.882l-3.162 10.672a6.832 6.832 0 0 0-.148.683 4.13 4.13 0 0 0-.066.725c0 .137.066.256.179.367.114.104.252.29.401.29.309 0 .743-.34 1.284-.76.546-.42 1.118-.996 1.724-1.724l.644.554c-1.089 1.35-2.138 2.391-3.145 3.1-1.01.715-1.944 1.076-2.794 1.076-.556 0-.994-.137-1.315-.406-.326-.274-.481-.638-.481-1.114 0-.167.013-.347.05-.54a4.44 4.44 0 0 1 .172-.626l3.249-11.037c.059-.241.098-.426.119-.552.019-.12.025-.241.025-.342 0-.282-.076-.497-.24-.649-.155-.14-.381-.213-.68-.213-.462 0-1.145.288-2.044.872-.906.583-1.939 1.416-3.129 2.494-1.063.954-1.849 1.767-2.342 2.44a7.057 7.057 0 0 0-1.078 2.096l-2.155 7.612c-.246-.037-1.116-.065-1.37-.082-.252-.017.116-.017-.144-.017-.264 0-.528 0-.783.017-.248.017-.504.045-.768.082M95.026 33.361v.296c-.002.152.015.29.056.423.09.358.38.537.877.537.185 0 .352-.025.503-.078.338-.102.51-.358.52-.756a.733.733 0 0 0-.334-.635 4.881 4.881 0 0 0-.56-.305l-.655-.297a3.701 3.701 0 0 1-.647-.355c-.36-.252-.543-.611-.543-1.082.005-.516.209-.88.607-1.096.298-.163.704-.246 1.224-.25.632 0 1.09.119 1.369.359.222.192.334.57.334 1.134v.106h-.9v-.127l-.017-.274c-.055-.411-.322-.613-.8-.602-.605 0-.91.243-.918.727 0 .309.191.561.568.755.237.124.501.244.797.37.298.122.54.24.724.351.434.266.652.662.652 1.198-.01.964-.649 1.45-1.922 1.45-.546.008-.966-.085-1.26-.27-.344-.22-.53-.53-.56-.942l-.012-.425v-.212h.897zM98.483 31.548c.003-.435.045-.753.121-.955.123-.32.386-.55.795-.682.295-.1.613-.149.954-.149.335 0 .653.05.953.15.402.132.665.361.788.68.076.199.12.52.126.956v1.776a5.5 5.5 0 0 1-.054.829c-.1.7-.696 1.054-1.788 1.057-.791 0-1.322-.163-1.592-.492-.206-.246-.307-.713-.303-1.394v-1.776zm.9 1.77c.004.446.037.738.098.868a.677.677 0 0 0 .346.316c.171.076.346.114.526.114.163 0 .321-.03.47-.096.286-.114.442-.317.471-.607.015-.166.022-.362.025-.595v-1.774c.006-.385-.039-.656-.128-.811-.142-.25-.423-.378-.838-.375-.162 0-.313.024-.455.08a.684.684 0 0 0-.492.615c-.02.14-.025.304-.022.49v1.775zM103.034 29.838h.897v3.535l.009.467c.031.514.331.774.898.777.568 0 .879-.242.933-.728.021-.17.031-.341.034-.516v-3.535h.899v3.592c-.003.294-.013.52-.031.683a.979.979 0 0 1-.3.617c-.328.32-.83.477-1.507.48-.702-.003-1.209-.158-1.518-.471a1.009 1.009 0 0 1-.292-.626 7.324 7.324 0 0 1-.022-.683v-3.592zM109.048 29.838h.536c.208 0 .398.02.571.048.664.106.999.528 1.01 1.272 0 .39-.088.682-.263.89-.17.192-.502.322-.99.392v-.003c.305.03.524.076.658.139.192.095.313.25.361.46.031.139.049.304.058.49l.039.624c.014.237.04.423.074.559.02.097.063.239.133.425h-.936l-.091-.339a1.743 1.743 0 0 1-.049-.365l-.036-.475-.03-.497c-.042-.378-.226-.608-.549-.683a2.358 2.358 0 0 0-.47-.043h-.621v2.402h-.902v-5.296h1.497zm-.595.597v1.7h.642c.193 0 .354-.013.498-.034.275-.043.465-.153.571-.332.069-.118.102-.313.102-.588 0-.293-.1-.5-.301-.612-.147-.087-.416-.132-.819-.135h-.693zM114.548 31.235l-.005-.246c-.022-.423-.273-.634-.756-.63-.429 0-.708.113-.838.333a.672.672 0 0 0-.118.325l-.007.436v2.09c.003.379.04.623.109.73.149.229.405.343.77.343.476-.003.747-.228.807-.676l.037-.342v-.182h.899v.185l-.007.331c-.03.395-.163.698-.407.91-.148.13-.324.219-.524.27a2.915 2.915 0 0 1-.778.098 3.14 3.14 0 0 1-.69-.063c-.741-.139-1.112-.632-1.117-1.485v-2.11a3.92 3.92 0 0 1 .043-.64c.033-.242.114-.445.242-.603.286-.358.8-.541 1.541-.547 1.037.006 1.596.335 1.675.985.015.126.022.264.022.418v.206h-.899l.001-.136zM116.231 29.838h2.942v.597h-2.043v1.678h1.916v.597h-1.916v1.826h2.099v.598h-2.998v-5.296zM121.561 31.548c.001-.435.04-.753.119-.955.119-.32.385-.55.793-.682.295-.1.613-.149.954-.149.336 0 .655.05.956.15.4.132.664.361.789.68.076.199.118.52.124.956v1.776c0 .319-.018.598-.051.829-.106.7-.698 1.054-1.792 1.057-.793 0-1.324-.163-1.591-.492-.206-.246-.306-.713-.301-1.394v-1.776zm.897 1.77c.005.446.037.738.1.868a.667.667 0 0 0 .345.316c.17.076.345.114.524.114.166 0 .321-.03.473-.096.282-.114.438-.317.467-.607.016-.166.025-.362.027-.595v-1.774c.006-.385-.037-.656-.127-.811-.143-.25-.425-.378-.839-.375-.163 0-.312.024-.454.08a.682.682 0 0 0-.49.615c-.021.14-.028.304-.026.49v1.775zM128.982 29.838v.597h-1.967v1.674h1.892v.595h-1.892v2.43h-.9v-5.296h2.867zM131.973 33.361v.296c-.005.152.012.29.054.423.089.358.383.537.875.537.185 0 .353-.025.505-.078.336-.102.509-.358.521-.756a.73.73 0 0 0-.334-.635 4.862 4.862 0 0 0-.563-.305l-.654-.297a3.975 3.975 0 0 1-.65-.355c-.356-.252-.538-.611-.538-1.082.007-.516.207-.88.608-1.096.295-.163.704-.246 1.221-.25.632 0 1.088.119 1.372.359.222.192.331.57.331 1.134v.106h-.898v-.127l-.018-.274c-.056-.411-.322-.613-.8-.602-.608 0-.91.243-.919.727 0 .309.193.561.57.755.234.124.501.244.796.37.297.122.54.24.726.351.431.266.65.662.65 1.198-.01.964-.65 1.45-1.922 1.45-.547.008-.967-.085-1.259-.27a1.147 1.147 0 0 1-.56-.942l-.014-.425v-.212h.9zM135.462 29.838h.897v3.535l.008.467c.031.514.334.774.897.777.568 0 .88-.242.935-.728.018-.17.028-.341.031-.516v-3.535h.901v3.592c-.003.294-.014.52-.034.683a.963.963 0 0 1-.295.617c-.331.32-.835.477-1.509.48-.703-.003-1.211-.158-1.521-.471a1.021 1.021 0 0 1-.289-.626 7.798 7.798 0 0 1-.021-.683v-3.592zM142.633 31.235l-.004-.246c-.021-.423-.276-.634-.759-.63-.428 0-.706.113-.837.333a.693.693 0 0 0-.118.325l-.007.436v2.09c.005.379.04.623.113.73.145.229.403.343.766.343.478-.003.747-.228.81-.676l.036-.342v-.182h.899v.185l-.009.331c-.025.395-.164.698-.407.91-.149.13-.323.219-.523.27-.24.066-.498.098-.777.098a3.1 3.1 0 0 1-.69-.063c-.741-.139-1.112-.632-1.114-1.485v-2.11a3.625 3.625 0 0 1 .04-.64c.03-.242.109-.445.24-.603.288-.358.801-.541 1.543-.547 1.038.006 1.597.335 1.675.985.013.126.022.264.022.418v.206h-.899v-.136zM146.975 31.235l-.005-.246c-.022-.423-.271-.634-.757-.63-.43 0-.707.113-.838.333a.62.62 0 0 0-.115.325l-.011.436v2.09c.003.379.042.623.111.73.149.229.405.343.769.343.479-.003.747-.228.808-.676l.037-.342v-.182h.899v.185l-.007.331c-.03.395-.166.698-.407.91-.148.13-.324.219-.525.27a2.915 2.915 0 0 1-.778.098 3.113 3.113 0 0 1-.689-.063c-.741-.139-1.112-.632-1.117-1.485v-2.11a3.71 3.71 0 0 1 .043-.64c.032-.242.109-.445.239-.603.288-.358.804-.541 1.545-.547 1.037.006 1.595.335 1.674.985.015.126.022.264.022.418v.206h-.899l.001-.136zM148.657 29.838h2.94v.597h-2.041v1.678h1.915v.597h-1.915v1.826h2.099v.598h-2.998v-5.296zM152.976 33.361v.296c-.003.152.015.29.057.423.089.358.38.537.873.537.185 0 .355-.025.506-.078.335-.102.51-.358.523-.756a.742.742 0 0 0-.337-.635 4.927 4.927 0 0 0-.562-.305l-.653-.297a3.801 3.801 0 0 1-.649-.355c-.357-.252-.539-.611-.539-1.082.006-.516.206-.88.607-1.096.295-.163.702-.246 1.222-.25.632 0 1.089.119 1.372.359.22.192.331.57.331 1.134v.106h-.899v-.127l-.018-.274c-.055-.411-.324-.613-.801-.602-.603 0-.911.243-.917.727 0 .309.191.561.567.755.236.124.502.244.799.37.297.122.537.24.725.351.431.266.651.662.651 1.198-.01.964-.648 1.45-1.923 1.45-.549.008-.966-.085-1.258-.27a1.137 1.137 0 0 1-.559-.942l-.017-.425v-.212h.899zM157.145 33.361v.296c-.005.152.013.29.053.423.09.358.384.537.876.537.186 0 .353-.025.502-.078.338-.102.511-.358.525-.756a.74.74 0 0 0-.337-.635 4.842 4.842 0 0 0-.562-.305l-.652-.297a3.789 3.789 0 0 1-.648-.355c-.361-.252-.541-.611-.541-1.082.005-.516.208-.88.606-1.096.297-.163.703-.246 1.224-.25.634 0 1.087.119 1.369.359.222.192.335.57.335 1.134v.106h-.899v-.127l-.02-.274c-.054-.411-.322-.613-.801-.602-.602 0-.909.243-.915.727 0 .309.188.561.569.755.233.124.5.244.795.37.298.122.538.24.723.351.434.266.653.662.653 1.198-.011.964-.65 1.45-1.922 1.45-.545.008-.964-.085-1.258-.27a1.14 1.14 0 0 1-.561-.942l-.016-.425v-.212h.902z" fill="#fff"/></svg>