<svg width="150" height="35" fill="none" xmlns="http://www.w3.org/2000/svg"><path d="M0 33.737h150v1.032H0v-1.032zM46.303 24.922h.07l6.214-16.974h5.65v.562c-.492 0-.914.047-1.22.141a1.53 1.53 0 0 0-.75.469c-.187.211-.304.54-.375.938-.07.398-.093.89-.093 1.5v15.755c0 .633.047 1.149.117 1.548.07.398.21.726.399.937.187.235.422.376.75.446s.727.117 1.195.117v.563h-8.557v-.563c.563 0 1.032-.023 1.407-.094.375-.07.68-.21.89-.422.212-.21.376-.515.47-.938.093-.398.14-.937.14-1.617V11.816h-.07l-6.963 19.131h-.399l-6.94-18.709h-.07v15.075c0 .68.047 1.22.117 1.618.07.398.235.703.446.938.21.21.516.351.867.422.375.07.82.093 1.407.093v.563h-6.846v-.563c.54 0 .985-.046 1.337-.117a1.63 1.63 0 0 0 .843-.445c.212-.211.352-.516.422-.938.07-.399.118-.938.118-1.594V11.535c0-.61-.024-1.102-.094-1.5-.07-.4-.211-.704-.399-.938-.187-.235-.492-.376-.844-.47-.351-.093-.82-.14-1.383-.14v-.563h5.932l6.212 16.998zM69.936 29.072c0 .445.164.797.492 1.008.329.234.938.328 1.852.305v.562h-6.54v-.563c.421 0 .796-.046 1.125-.14a1.84 1.84 0 0 0 .82-.492c.235-.235.446-.563.633-.985.188-.422.375-.938.563-1.571l6.19-19.764h.562l6.658 19.764c.258.774.493 1.36.68 1.782.211.422.422.75.657.938.234.21.492.328.773.375.282.047.633.07 1.055.07v.563h-8.252v-.563c.75 0 1.29-.094 1.594-.305.305-.21.469-.539.469-1.008 0-.187-.023-.375-.07-.563-.047-.187-.141-.515-.282-.96l-1.336-3.94h-6.096L70.1 28.04c-.094.516-.164.844-.164 1.032zm4.431-14.935-2.485 8.206h5.275l-2.72-8.206h-.07zM99.453 28.93c.094.4.258.704.469.939.234.21.539.351.961.422.422.07.938.093 1.571.093v.563h-9.612v-.563c.633 0 1.172-.023 1.57-.093.422-.047.727-.188.962-.399.234-.21.375-.54.469-.938.093-.422.14-.96.14-1.64V9.236h-2.508c-.727 0-1.36.07-1.853.211-.515.14-.914.352-1.242.68-.328.305-.563.727-.703 1.22-.165.492-.235 1.101-.258 1.851h-.563V7.971h17.63v5.205h-.562c-.047-1.43-.375-2.462-.985-3.048-.61-.586-1.618-.89-3.071-.89h-2.556v18.075c0 .68.047 1.22.141 1.618zM122.992 8.534c-.587 0-1.079.023-1.477.094-.399.07-.704.21-.915.445-.211.235-.375.54-.469.938-.093.399-.117.914-.117 1.57v15.756c0 .703.047 1.242.164 1.64.117.4.282.704.493.939.234.21.515.351.914.398.375.047.844.094 1.407.094v.563h-9.285v-.563c.61 0 1.126-.047 1.501-.117.398-.07.68-.235.914-.47.211-.234.352-.538.446-.937.093-.399.117-.914.117-1.524V11.605c0-.656-.047-1.172-.117-1.57-.094-.4-.235-.704-.469-.938-.235-.235-.539-.376-.915-.446-.398-.07-.89-.094-1.477-.094v-.562h9.285v.539zM147.866 15.052c-.164-1.97-.797-3.564-1.875-4.713-1.079-1.172-2.485-1.758-4.173-1.758-2.228 0-3.869.984-4.924 2.93-1.055 1.946-1.594 4.854-1.594 8.675 0 1.782.164 3.306.469 4.595.328 1.29.774 2.321 1.383 3.165.61.82 1.337 1.43 2.204 1.805.867.376 1.829.563 2.884.563 1.406 0 2.602-.352 3.587-1.078.961-.727 1.875-1.852 2.696-3.4l.563.282c-1.665 3.587-4.291 5.392-7.831 5.392a9.504 9.504 0 0 1-3.657-.727 9.491 9.491 0 0 1-3.165-2.157c-.938-.961-1.688-2.133-2.251-3.564-.563-1.406-.844-3.047-.844-4.923 0-1.829.258-3.493.75-5.04.516-1.548 1.219-2.884 2.134-4.01.914-1.125 1.992-2.016 3.212-2.649 1.242-.633 2.602-.938 4.055-.938.704 0 1.337.07 1.9.211a7.81 7.81 0 0 1 1.43.493c.398.187.75.351 1.055.492.304.14.562.211.773.211a.597.597 0 0 0 .54-.328c.117-.211.211-.586.281-1.102h.609l.423 7.596h-.634v-.023zM7.338 28.65c0 .586.235 1.031.704 1.336.468.305 1.312.422 2.579.398v.75H1.43v-.75c.585 0 1.124-.07 1.57-.187a2.538 2.538 0 0 0 1.172-.656c.328-.305.633-.75.891-1.29s.54-1.243.797-2.087L14.536 0h.797l9.284 26.211c.375 1.008.68 1.806.961 2.368.282.563.586.985.915 1.243.328.258.703.422 1.102.492.398.07.89.094 1.477.094v.75H17.537v-.75c1.055 0 1.805-.14 2.227-.399.422-.258.633-.703.633-1.336a2.58 2.58 0 0 0-.094-.727c-.07-.258-.187-.68-.398-1.266l-1.876-5.228H9.52l-1.923 5.885c-.187.633-.258 1.078-.258 1.313zm6.19-19.788-3.47 10.855h7.385L13.62 8.862h-.093z" fill="#fff"/></svg>