<svg width="180" height="24" fill="none" xmlns="http://www.w3.org/2000/svg"><path d="M34.402 13.73h7.754l-3.92-5.697-3.834 5.698zM179.357.643h-26.069V5.762h10.561v17.373H169.439V5.762H180V.643h-.643z" fill="#fff"/><path d="m106.034.321-.193-.278h-.15l.021-.043H0v23.135h95.023l2.635-3.92h14.995l2.506 3.641.193.279h6.34l-.685-1.007L106.034.32zm-81.379 10.39v6.576l-.17.15c-2.1 1.778-5.206 2.699-9.233 2.699-7.005 0-11.182-3.192-11.182-8.526 0-2.72 1.135-4.97 3.299-6.469 1.97-1.392 4.691-2.12 7.904-2.12 3.877 0 6.64.77 8.676 2.42l.385.3-.3.385-1.37 1.714-.322.407-.386-.321c-1.35-1.136-3.02-1.907-6.726-1.907-4.948 0-7.454 1.864-7.454 5.527 0 3.748 2.442 5.57 7.454 5.57 2.635 0 4.627-.45 6.084-1.372v-2.42H13.58v-3.106H24.655v.492zm24.72 9.125h-3.02l-.15-.214-1.928-2.807H32.346L30.482 19.6l-.15.214H26.498l.514-.77L37.786 3.02l.15-.214H38.644l.15.214 10.99 16.023.535.771h-.943v.022zM75.53 3.534v16.302H71.974v-9.833l-6.876 6.598-.15.129H64.37l-.15-.129-7.262-6.64v9.853h-3.556V3.042H54.302l.15.128 10.218 9.361 9.81-9.36.15-.13h.9v.493zm24.463.515-1.457 2.227-.15.215H84.72v3.298h11.524l-.493.771-1.392 2.121-.15.214H84.72v3.728H91.767l-.492.77-1.457 2.229-.15.214H81.164V3.277h19.322l-.493.772zm.985 10.174 4.07-6.062 4.156 6.063h-8.226zM144.506 14.545c5.055-1.307 5.847-4.734 5.847-6.726 0-2.42-.942-4.242-2.827-5.441-1.799-1.157-4.434-1.714-8.033-1.714h-15.252v22.471h5.591v-8.033h8.119l7.09 7.818.193.215H152.26l-.985-1.072-6.769-7.518zm-5.356-4.306h-9.296V5.655h9.296c5.505 0 5.505 1.2 5.505 2.27 0 .986 0 2.314-5.505 2.314z" fill="#fff"/></svg>