<svg width="171" height="46" fill="none" xmlns="http://www.w3.org/2000/svg"><path d="M68.991 21.066c.51.454 1.049.907 1.587 1.36-.34.255-.708.482-1.048.737.68 1.105.708 2.522.141 3.684-.623 1.106-1.87 1.729-3.117 1.729-.538.028-1.105-.198-1.615.113-.227.085-.567.425-.199.596.397.17.85.028 1.276-.029 1.218-.227 2.607-.255 3.684.425 1.303.935 1.133 3.146-.199 3.968-2.239 1.445-5.3 1.19-7.481-.284.481-.566.963-1.133 1.445-1.672 1.219 1.077 3.06 1.389 4.506.595.34-.17.453-.595.283-.935a.782.782 0 0 0-.396-.34c-1.304-.397-2.636.199-3.94-.028-.708-.057-1.502-.482-1.558-1.275-.142-.85.595-1.446 1.247-1.814-1.616-.907-2.154-3.316-.992-4.79 1.275-1.672 3.712-1.842 5.526-1.048l.85-.992zm-3.712 2.437c-1.105.425-1.275 2.069-.482 2.834.51.51 1.304.567 1.955.369.992-.369 1.247-1.814.68-2.636-.453-.708-1.416-.85-2.153-.567zm102.787-1.473.879-.964c.51.454 1.048.907 1.587 1.36-.34.255-.709.482-1.049.737.595.992.709 2.239.284 3.316a3.316 3.316 0 0 1-2.579 2.012c-.595.113-1.19 0-1.786 0-.34.113-.85.198-.878.652.34.368.85.198 1.275.142 1.219-.256 2.579-.312 3.713.34 1.303.765 1.332 2.89.198 3.825-1.134.936-2.607 1.219-4.024 1.162a7.107 7.107 0 0 1-3.741-1.247c.482-.566.964-1.105 1.417-1.672a4.194 4.194 0 0 0 3.061 1.02c.623-.084 1.417-.141 1.785-.765.198-.481-.255-.963-.708-.991-1.389-.199-2.834.396-4.195-.085-.623-.142-1.048-.709-1.048-1.36-.029-.766.68-1.276 1.247-1.616-1.616-.879-2.154-3.316-.992-4.79 1.332-1.672 3.769-1.87 5.554-1.076zm-2.862 1.473c-1.219.482-1.247 2.466-.142 3.06.737.398 1.842.313 2.324-.453.397-.708.397-1.7-.198-2.295-.482-.51-1.332-.567-1.984-.312zm-76.545-.963c1.445-1.36 3.854-1.219 5.356 0 1.332-1.105 3.4-1.304 4.874-.369.85.567 1.247 1.616 1.247 2.608v6.206h-2.267v-5.64c0-.566-.085-1.218-.538-1.587-.85-.651-2.21-.368-2.75.539-.056 2.239 0 4.45-.028 6.688h-2.267c0-2.069.029-4.138 0-6.206.029-1.22-1.53-1.7-2.437-1.162-.34.226-.878.481-.878.963-.029 2.126 0 4.251 0 6.405h-2.268v-9.21h1.56l.396.765zm13.518.68c1.672-1.956 4.818-2.154 6.83-.595 1.303 1.02 1.785 2.862 1.303 4.42h-6.943c.085.908.595 1.786 1.445 2.07 1.191.425 2.664.311 3.713-.539.283.538.595 1.105.878 1.672-1.332.907-3.004.992-4.562.85-1.531-.141-3.033-1.218-3.543-2.749-.566-1.7-.368-3.769.879-5.13zm2.72.34c-.793.255-1.246 1.049-1.445 1.842h4.761c-.142-.595-.283-1.19-.793-1.559-.709-.51-1.701-.538-2.523-.283zm19.668-1.445a7.345 7.345 0 0 1 5.101-.142c.964.34 1.616 1.275 1.786 2.267.34 1.615.085 3.23.255 4.846.056.567.311 1.077.708 1.446-.397.595-1.133.708-1.785.566-.51-.141-.794-.595-1.049-.992-.623.709-1.615.992-2.522 1.049-.992.028-2.04-.17-2.777-.907-.765-.765-.879-2.012-.567-3.032.312-1.02 1.247-1.672 2.239-2.012a7.378 7.378 0 0 1 3.429-.227c-.085-.567-.312-1.162-.879-1.36-1.105-.425-2.38-.255-3.457.17-.17-.539-.34-1.106-.482-1.672zm1.871 4.902c-.794.482-.851 1.956.085 2.296.765.227 1.728.198 2.38-.368.595-.596.453-1.503.482-2.296-.992-.142-2.097-.17-2.947.368zm8.7-4.477c1.417-1.36 3.854-1.219 5.328 0 1.332-1.105 3.4-1.304 4.846-.369.85.567 1.275 1.616 1.247 2.608.028 2.068 0 4.137 0 6.234h-2.268v-5.64c0-.566-.085-1.218-.538-1.615-.85-.651-2.211-.368-2.777.539-.057 2.239 0 4.45-.029 6.688h-2.267c-.028-2.069.029-4.138-.028-6.206 0-1.22-1.559-1.7-2.466-1.162-.34.226-.878.481-.878.963v6.405h-2.267v-9.21h1.558c.227.255.397.51.539.765zm19.611.056c1.105-1.105 2.862-1.218 4.279-.765 1.275.425 2.125 1.7 2.182 3.06.057 2.041 0 4.082.028 6.122h-2.267v-5.441c0-.708-.17-1.53-.822-1.899-1.048-.538-2.323-.198-3.117.595-.028 2.24 0 4.478 0 6.717h-2.267v-9.21h1.644c.085.283.198.538.34.821zm-97.233-.822h3.542v9.21h-2.295v-7.452h-1.247c.028-.567 0-1.162 0-1.758zm23.918 0h3.543v9.21h-2.296v-7.452h-1.247v-1.758zm66.031 0h3.543v9.21h-2.267v-7.452h-1.247c-.029-.596-.029-1.162-.029-1.758zM114.59 19.48c1.36-1.049 3.174-1.389 4.874-1.275a5.794 5.794 0 0 1 3.174 1.218c-.34.595-.652 1.219-.992 1.814-1.133-.765-2.494-1.275-3.854-.935-1.474.255-2.636 1.53-2.947 2.976-.312 1.388-.255 2.947.51 4.194 1.105 1.814 3.769 2.295 5.498 1.105v-2.494h-1.842v-1.927h4.194v5.668c-1.417.992-3.174 1.36-4.846 1.36-1.644.029-3.401-.538-4.506-1.814-1.474-1.558-1.842-3.854-1.531-5.95a6.006 6.006 0 0 1 2.268-3.94zm-66.4-1.105c1.304-.028 2.579-.114 3.883-.114 1.133.029 2.323.227 3.23.936.879.708 1.219 1.955.907 3.032-.227.765-.879 1.247-1.53 1.615.878.312 1.728.879 2.097 1.757.538 1.247.453 2.834-.51 3.855-.992 1.077-2.466 1.502-3.854 1.502-1.417.028-2.863 0-4.28 0l.057-12.583zm2.352 1.814v3.004c.879.028 1.842.141 2.664-.256.935-.425 1.077-1.955.17-2.465-.85-.454-1.87-.284-2.834-.284zm0 4.789v4.137c.992.057 2.012.142 2.947-.198 1.56-.482 1.616-3.23.057-3.712-.935-.34-1.984-.255-3.004-.227zm7-6.575h3.514v1.984h-3.542c0-.652.028-1.332.028-1.984zm13.745-.028h9.408v2.012H77.89v10.599h-2.38v-10.6h-4.223v-2.011zm10.145 2.012v-1.984h3.514v1.984h-3.514zm66.06-1.984h3.542v1.984h-3.514c-.028-.652-.028-1.332-.028-1.984z" fill="#fff"/><circle cx="23" cy="23" r="21" fill="#fff"/><path d="M21.002.084C33.68-.988 44.821 8.369 45.914 21.029a23.001 23.001 0 0 1-8.215 19.67c-8.304 6.895-20.273 7.069-28.784.493-10.047-7.793-11.88-22.25-4.078-32.302C8.737 3.85 14.62.663 21.002.084zm.177.782C8.945 1.85-.187 12.569.79 24.795 1.763 37.02 12.49 46.145 24.724 45.16c12.264-.985 21.367-11.674 20.391-23.928-.561-6.953-4.373-13.21-10.254-16.977C30.813 1.677 26.026.49 21.179.865z" fill="#fff"/><path d="M19.816 2.244C30.31.637 40.366 7.123 43.23 17.368c1.578 5.653.73 12.024-2.543 16.932-2.982 1.349-6.343 1.578-9.559 1.435-5.378-.258-10.64-1.665-16.048-1.808-3.04-.086-6.168.316-9.003 1.55-6.87-9.356-4.852-22.529 4.502-29.388 2.689-2.009 5.875-3.3 9.237-3.845zm3.157.402c-.439 1.291-.848 2.582-1.287 3.903-1.373 0-2.747-.03-4.121.028 1.11.804 2.221 1.607 3.332 2.44-.41 1.291-.848 2.583-1.257 3.903l3.333-2.411 3.332 2.41c-.41-1.29-.848-2.611-1.257-3.902 1.11-.804 2.222-1.607 3.332-2.44-1.373-.028-2.747 0-4.121 0-.439-1.349-.877-2.64-1.286-3.931zm-9.559 5.08c-.146.66-.234 1.32-.38 1.98l-2.017.258 1.783.975c-.117.66-.234 1.35-.35 1.98.496-.459.993-.918 1.49-1.406.585.316 1.17.66 1.783.947-.292-.602-.584-1.234-.877-1.836.497-.46.994-.947 1.462-1.407l-2.017.259a24.825 24.825 0 0 1-.877-1.75zm18.24 1.836-2.017-.258c.497.487.965.947 1.462 1.406-.293.602-.585 1.234-.877 1.836l1.783-.946c.497.459.994.947 1.49 1.406-.145-.66-.233-1.35-.35-2.01.585-.315 1.17-.66 1.783-.975l-2.017-.258c-.146-.66-.234-1.35-.38-1.98-.292.574-.584 1.176-.877 1.779zM7.012 12.46l.088 1.206-1.14.459 1.17.287c.028.402.058.803.087 1.205.205-.344.41-.689.643-1.004l1.17.258-.76-.918.642-1.033-1.14.459a11.613 11.613 0 0 0-.76-.919zm31.132.919-1.111-.46.643 1.034c-.263.315-.526.602-.79.918l1.17-.258.643 1.004.088-1.205 1.169-.287-1.11-.46.087-1.205-.79.919zM10.11 15.474c-1.286.344-2.514 1.148-3.157 2.324-.059 4.133 0 8.266-.03 12.427a9.738 9.738 0 0 0 3.158 1.406c1.315.344 2.66.258 4.004.172 1.345-.086 2.719-.43 3.713-1.349 1.549-1.349 2.017-3.73 1.198-5.625-.438-1.061-1.403-1.808-2.426-2.267 1.023-.631 1.812-1.722 1.754-2.956.029-2.21-1.9-4.132-4.034-4.362-1.374-.143-2.806-.143-4.18.23zm5.788-.316c1.52.545 2.514 1.923 3.04 3.386h2.017v13.288h3.449V18.544h1.9c1.023-1.52 2.455-2.812 4.21-3.386-4.882.029-9.764 0-14.616 0zm15.054.46c-1.871.66-3.391 1.98-4.268 3.759-.965 1.922-1.11 4.132-.79 6.227.293 1.98 1.287 3.846 2.895 5.08 1.52 1.177 3.507 1.55 5.349 1.406 1.87-.143 3.83-.66 5.32-1.865v-7.95h-5.612v3.042h2.192v3.042c-1.14.775-2.66.775-3.946.316-1.403-.545-2.368-1.923-2.66-3.358-.293-1.463-.205-2.984.35-4.362.527-1.263 1.608-2.296 2.953-2.554 1.666-.43 3.39.287 4.648 1.349.496-.947.964-1.894 1.49-2.841-2.104-1.923-5.29-2.153-7.921-1.292z" fill="#EC1212"/><path d="M11.017 19.004c.877-1.062 2.894-.89 3.479.43.233.718-.088 1.722-.907 1.923-.935.258-1.9.115-2.864.143.058-.803-.205-1.75.292-2.496zm-.292 5.252c1.198.057 2.455-.173 3.595.287 1.666.66 1.55 3.5-.117 4.075-1.14.143-2.397.23-3.478-.316v-4.046zm6.606 10.647c6.11.602 12.19 2.238 18.357 1.52a16.177 16.177 0 0 0 4.297-1.032c-1.081 1.406-2.221 2.755-3.654 3.816-1.14.201-2.28.087-3.39-.028-3.304-.43-6.46-1.435-9.618-2.468-1.987-.603-3.946-1.35-5.992-1.808zm-4.005 1.291c2.631.057 5.145.947 7.659 1.75 4.15 1.32 8.243 2.928 12.628 3.272-1.871 1.033-3.83 1.866-5.934 2.325-.292.086-.526-.144-.79-.23-2.601-1.435-5.086-3.07-7.687-4.592-1.871-1.061-3.8-2.037-5.876-2.525zm-3.274 3.444c1.842.115 3.713.373 5.379 1.177 1.9.832 3.566 2.037 5.261 3.185a21.982 21.982 0 0 1-10.64-4.362z" fill="#EC1212"/></svg>