<svg width="194" height="44" fill="none" xmlns="http://www.w3.org/2000/svg"><path fill-rule="evenodd" clip-rule="evenodd" d="M176.865 33.902c-2.705.316-4.344 2.988-3.549 5.785 1.164 4.098 7.074 3.984 8.082-.156.768-3.155-1.508-5.982-4.533-5.629zm-8.329.02a4.508 4.508 0 0 0-1.562.459c-2.988 1.553-2.945 6.366.07 7.89 1.744.88 4.149.335 5.109-1.159l.047-.072-.33-.282c-.384-.328-.375-.324-.46-.199-.888 1.31-2.988 1.606-4.333.61-1.455-1.079-1.76-3.602-.618-5.117 1.122-1.49 3.426-1.651 4.755-.333l.256.253.112-.1c.37-.333.56-.516.56-.541.001-.053-.501-.53-.734-.697-.747-.537-1.918-.827-2.872-.712zm15.623.016c-.006.018-.165.873-.352 1.898-.302 1.66-.889 4.868-1.139 6.226-.051.274-.086.503-.078.51.007.008.225.014.483.014h.47l.028-.143c.05-.253.157-.832.573-3.11.55-3.01.495-2.745.542-2.623.024.063 1.272 3.012 2.248 5.311l.24.565h.174l.301-.714 1.124-2.66.954-2.26c.074-.178.137-.295.145-.272.008.022.058.286.11.585.052.3.156.887.231 1.306.3 1.689.365 2.052.521 2.94.089.509.169.96.178 1l.015.075h.488c.372 0 .488-.008.488-.034 0-.019-.074-.444-.165-.946l-.487-2.708-.355-1.987-.37-2.068c-.186-1.047-.153-.944-.301-.934l-.123.008-.088.204c-.049.113-.687 1.628-1.419 3.367-.732 1.74-1.337 3.158-1.345 3.153-.008-.005-.652-1.523-1.43-3.373l-1.416-3.364h-.116c-.069 0-.122.014-.129.034zm-6.193.932c1.297.273 2.218 1.238 2.497 2.617.114.562.06 1.518-.116 2.064-.973 3.027-5.184 2.956-6.065-.101-.765-2.654 1.204-5.102 3.684-4.58zm-15.119 6.562c-.459.163-.58.775-.215 1.095.435.383 1.106.09 1.106-.483a.655.655 0 0 0-.891-.612z" fill="#fff"/><path d="M97.708 21.704v-9.628h3.553c3.793 0 4.495.034 5.529.264 2.76.615 4.495 2.3 4.95 4.794.126.701.097 2.31-.058 3.046-.552 2.599-2.38 4.14-5.581 4.691-.374.063-1.093.103-2.271.132l-1.724.035-.018 3.15-.011 3.144h-4.369v-9.628zm7.444-.742c.552-.126 1.179-.437 1.46-.724.937-.966.834-2.817-.207-3.564-.632-.454-1.276-.575-3.046-.575h-1.282v5.018l1.339-.034c.903-.023 1.46-.057 1.736-.12zM114.838 21.704v-9.628h4.368l.012 7.604.017 7.6 3.322.017 3.317.011v4.024h-11.036v-9.628zM126.392 31.125c0-.127.103-.437.253-.765.488-1.08 2.339-5.133 3.54-7.765a2295.91 2295.91 0 0 0 1.639-3.593c.482-1.057 2.713-5.943 3.075-6.742l.247-.535.437.017.437.017 3.776 8.307c2.075 4.57 4.035 8.875 4.357 9.576.397.868.575 1.334.575 1.477v.213l-2.397-.012-2.391-.017-.638-1.552c-.356-.85-.661-1.586-.684-1.62-.035-.058-.724-.076-3.11-.076h-3.064l-.684 1.639-.684 1.638h-4.684v-.207zm10.846-6.875c-.046-.103-.448-1.092-.902-2.19-.454-1.098-.845-1.977-.868-1.954-.04.046-1.776 4.236-1.776 4.3 0 .017.816.028 1.81.028h1.811l-.075-.184zM148.924 27.872v-3.467l-.994-1.695c-.552-.931-1.834-3.116-2.857-4.858-3.3-5.615-3.162-5.374-3.162-5.58v-.196h2.61c2.018 0 2.621.017 2.667.074.029.035.926 1.696 1.995 3.69 1.069 1.995 1.954 3.64 1.977 3.662.017.023.937-1.644 2.041-3.696l2-3.73H160.248v.212c0 .167-.132.431-.598 1.219a2420.145 2420.145 0 0 1-5.806 9.835l-.465.776-.029 3.593-.029 3.592-2.195.017-2.202.012v-3.46zM162.185 31.292c-.023-.018-.04-4.352-.04-9.629v-9.587h12.128v4.023h-7.76v3.334h7.358v3.909h-7.358v3.966h8.048v4.024h-6.168c-3.397 0-6.191-.017-6.208-.04zM178.01 21.704v-9.628h3.926c4.029 0 4.811.034 5.817.235 3.362.673 4.978 2.73 4.84 6.168-.064 1.57-.495 2.621-1.478 3.598-.689.69-1.408 1.11-2.563 1.49l-.644.212 2.552 3.575c2.196 3.081 2.552 3.604 2.552 3.777v.2l-2.598-.01-2.604-.018-2.069-3.161a2017.68 2017.68 0 0 0-2.69-4.11l-.615-.949.005 4.11.006 4.11-2.219.017-2.218.012v-9.628zm7.811-1.058c1.012-.218 1.708-.667 1.995-1.288.397-.879.218-1.92-.437-2.534-.333-.31-.718-.506-1.293-.65-.334-.08-.673-.098-2.012-.103h-1.61l-.017 2.299c-.006 1.264 0 2.334.017 2.38.052.126 2.645.051 3.357-.104z" fill="#fff"/><path fill-rule="evenodd" clip-rule="evenodd" d="M44.295 12.531v.807H50.87V31.263h1.736V13.338h6.513v-1.613H44.295v.806zm18.856 8.965v9.77l.884-.016.883-.018.016-4.574.016-4.575h10.42l.015 4.575.016 4.574h1.737l.015-9.753.016-9.754H75.37v8.684H64.95v-8.684h-1.8v9.771zm19.786-.002v9.77h11.6V29.588h-9.801v-7.506h9.118V20.41H84.736v-7.071h9.49v-1.613H82.937v9.77zM27.033 22.147V10.422L24.1 8.794 10.422 22.473l2.931 3.583h9.12v7.816l4.56-3.908v-3.908h3.908v-3.909h-3.908zm-4.56-5.21v5.21h-5.211l5.21-5.21z" fill="#fff"/><path d="M12.376 31.918H9.771c3.539 6.002 7.685 8.358 18.239 11.074-14.31 1.644-18.577-1.85-24.753-9.771H1.303L5.21 24.1l7.165 7.817zM11.471 11.725V9.119C5.47 12.66 3.114 16.805.398 27.36c-1.645-14.31 1.85-18.578 9.77-24.753V.65l9.12 3.909-7.817 7.165zM31.267 11.471h2.605C30.333 5.47 26.187 3.114 15.633.398c14.31-1.645 18.578 1.85 24.753 9.77h1.954l-3.908 9.12-7.165-7.817zM31.918 30.615v2.606c6.002-3.539 8.358-7.685 11.074-18.239 1.644 14.31-1.85 18.577-9.771 24.753v1.954l-9.12-3.908 7.817-7.166z" fill="#DA001F"/></svg>