<svg width="182" height="51" viewBox="0 0 182 51" fill="none" xmlns="http://www.w3.org/2000/svg">
<path d="M18.0637 0C8.27181 0 0.332161 7.94268 0.332161 17.7346C0.332161 27.5265 8.27181 35.4692 18.0637 35.4692C27.8587 35.4692 35.7984 27.5265 35.7984 17.7346C35.8014 7.93965 27.8617 0 18.0637 0Z" fill="white"/>
<mask id="mask0_2278_335" style="mask-type:luminance" maskUnits="userSpaceOnUse" x="0" y="0" width="36" height="36">
<path d="M0.332161 17.7346C0.332161 27.5265 8.27181 35.4692 18.0637 35.4692C27.8587 35.4692 35.7984 27.5265 35.7984 17.7346C35.7984 7.94268 27.8587 0 18.0637 0C8.27181 0 0.332161 7.94268 0.332161 17.7346Z" fill="white"/>
</mask>
<g mask="url(#mask0_2278_335)">
<mask id="mask1_2278_335" style="mask-type:luminance" maskUnits="userSpaceOnUse" x="-61" y="-125" width="304" height="304">
<path d="M242.578 -124.633H-60.5779V178.522H242.578V-124.633Z" fill="white"/>
</mask>
<g mask="url(#mask1_2278_335)">
<path d="M35.8014 0H0.332153V35.4723H35.8014V0Z" fill="white"/>
</g>
</g>
<path d="M47.4244 0C37.6325 0 29.6928 7.94268 29.6928 17.7346C29.6928 27.5265 37.6325 35.4692 47.4244 35.4692C57.2194 35.4692 65.159 27.5265 65.159 17.7346C65.159 7.93965 57.2194 0 47.4244 0Z" fill="white"/>
<mask id="mask2_2278_335" style="mask-type:luminance" maskUnits="userSpaceOnUse" x="29" y="0" width="37" height="36">
<path d="M29.6898 17.7346C29.6898 27.5265 37.6294 35.4692 47.4214 35.4692C57.2163 35.4692 65.156 27.5265 65.156 17.7346C65.156 7.94268 57.2163 0 47.4214 0C37.6294 0 29.6898 7.94268 29.6898 17.7346Z" fill="white"/>
</mask>
<g mask="url(#mask2_2278_335)">
<mask id="mask3_2278_335" style="mask-type:luminance" maskUnits="userSpaceOnUse" x="-61" y="-125" width="304" height="304">
<path d="M242.578 -124.633H-60.5779V178.522H242.578V-124.633Z" fill="white"/>
</mask>
<g mask="url(#mask3_2278_335)">
<path d="M65.156 0H29.6898V35.4723H65.156V0Z" fill="white"/>
</g>
</g>
<mask id="mask4_2278_335" style="mask-type:luminance" maskUnits="userSpaceOnUse" x="59" y="0" width="36" height="36">
<path d="M59.0504 17.7346C59.0504 27.5265 66.99 35.4692 76.782 35.4692C86.5769 35.4692 94.5166 27.5265 94.5166 17.7346C94.5166 7.94268 86.5769 0 76.782 0C66.99 0 59.0504 7.94268 59.0504 17.7346Z" fill="white"/>
</mask>
<g mask="url(#mask4_2278_335)">
<mask id="mask5_2278_335" style="mask-type:luminance" maskUnits="userSpaceOnUse" x="-61" y="-125" width="304" height="304">
<path d="M242.578 -124.633H-60.5779V178.522H242.578V-124.633Z" fill="white"/>
</mask>
<g mask="url(#mask5_2278_335)">
<path d="M94.5166 0H59.0504V35.4723H94.5166V0Z" fill="white"/>
</g>
</g>
<path d="M105.215 0C95.423 0 87.4834 7.94268 87.4834 17.7346C87.4834 27.5265 95.423 35.4692 105.215 35.4692C115.01 35.4692 122.95 27.5265 122.95 17.7346C122.95 7.93965 115.013 0 105.215 0Z" fill="white"/>
<mask id="mask6_2278_335" style="mask-type:luminance" maskUnits="userSpaceOnUse" x="87" y="0" width="36" height="36">
<path d="M87.4834 17.7346C87.4834 27.5265 95.423 35.4692 105.215 35.4692C115.01 35.4692 122.95 27.5265 122.95 17.7346C122.95 7.94268 115.01 0 105.215 0C95.423 0 87.4834 7.94268 87.4834 17.7346Z" fill="white"/>
</mask>
<g mask="url(#mask6_2278_335)">
<mask id="mask7_2278_335" style="mask-type:luminance" maskUnits="userSpaceOnUse" x="-61" y="-125" width="304" height="304">
<path d="M242.578 -124.633H-60.5779V178.522H242.578V-124.633Z" fill="white"/>
</mask>
<g mask="url(#mask7_2278_335)">
<path d="M122.95 0H87.4834V35.4723H122.95V0Z" fill="white"/>
</g>
</g>
<path d="M134.573 0C124.781 0 116.841 7.94268 116.841 17.7346C116.841 27.5265 124.781 35.4692 134.573 35.4692C144.368 35.4692 152.307 27.5265 152.307 17.7346C152.31 7.93965 144.371 0 134.573 0Z" fill="white"/>
<mask id="mask8_2278_335" style="mask-type:luminance" maskUnits="userSpaceOnUse" x="116" y="0" width="37" height="36">
<path d="M116.841 17.7346C116.841 27.5265 124.781 35.4692 134.573 35.4692C144.368 35.4692 152.307 27.5265 152.307 17.7346C152.307 7.94268 144.368 0 134.573 0C124.781 0 116.841 7.94268 116.841 17.7346Z" fill="white"/>
</mask>
<g mask="url(#mask8_2278_335)">
<mask id="mask9_2278_335" style="mask-type:luminance" maskUnits="userSpaceOnUse" x="-61" y="-125" width="304" height="304">
<path d="M242.578 -124.633H-60.5779V178.522H242.578V-124.633Z" fill="white"/>
</mask>
<g mask="url(#mask9_2278_335)">
<path d="M152.307 0H116.841V35.4723H152.307V0Z" fill="white"/>
</g>
</g>
<mask id="mask10_2278_335" style="mask-type:luminance" maskUnits="userSpaceOnUse" x="146" y="0" width="36" height="36">
<path d="M146.202 17.7346C146.202 27.5265 154.141 35.4692 163.933 35.4692C173.728 35.4692 181.668 27.5265 181.668 17.7346C181.668 7.94268 173.728 0 163.933 0C154.138 0 146.202 7.94268 146.202 17.7346Z" fill="white"/>
</mask>
<g mask="url(#mask10_2278_335)">
<mask id="mask11_2278_335" style="mask-type:luminance" maskUnits="userSpaceOnUse" x="-61" y="-125" width="304" height="304">
<path d="M242.578 -124.633H-60.5779V178.522H242.578V-124.633Z" fill="white"/>
</mask>
<g mask="url(#mask11_2278_335)">
<path d="M181.668 0H146.202V35.4723H181.668V0Z" fill="white"/>
</g>
</g>
<mask id="mask12_2278_335" style="mask-type:luminance" maskUnits="userSpaceOnUse" x="147" y="1" width="34" height="34">
<path d="M147.663 18.0621C147.663 27.0477 154.948 34.3325 163.93 34.3325C172.919 34.3325 180.201 27.0446 180.201 18.0621C180.201 9.07962 172.916 1.79175 163.93 1.79175C154.948 1.79175 147.663 9.07962 147.663 18.0621Z" fill="white"/>
</mask>
<g mask="url(#mask12_2278_335)">
<mask id="mask13_2278_335" style="mask-type:luminance" maskUnits="userSpaceOnUse" x="-61" y="-125" width="304" height="304">
<path d="M242.578 -124.633H-60.5779V178.522H242.578V-124.633Z" fill="white"/>
</mask>
<g mask="url(#mask13_2278_335)">
<path d="M180.204 1.79175H147.663V34.3355H180.204V1.79175Z" fill="black"/>
</g>
</g>
<path d="M134.576 1.79175C125.587 1.79175 118.305 9.07962 118.305 18.0621C118.305 27.0477 125.59 34.3325 134.576 34.3325C143.561 34.3325 150.846 27.0446 150.846 18.0621C150.846 9.07962 143.561 1.79175 134.576 1.79175Z" fill="#002394"/>
<mask id="mask14_2278_335" style="mask-type:luminance" maskUnits="userSpaceOnUse" x="118" y="1" width="33" height="34">
<path d="M118.305 18.0621C118.305 27.0477 125.59 34.3325 134.576 34.3325C143.561 34.3325 150.846 27.0446 150.846 18.0621C150.846 9.07962 143.558 1.79175 134.576 1.79175C125.587 1.79175 118.305 9.07962 118.305 18.0621Z" fill="white"/>
</mask>
<g mask="url(#mask14_2278_335)">
<mask id="mask15_2278_335" style="mask-type:luminance" maskUnits="userSpaceOnUse" x="-61" y="-125" width="304" height="304">
<path d="M242.578 -124.633H-60.5779V178.522H242.578V-124.633Z" fill="white"/>
</mask>
<g mask="url(#mask15_2278_335)">
<path d="M150.846 1.79175H118.305V34.3355H150.846V1.79175Z" fill="#002394"/>
</g>
</g>
<mask id="mask16_2278_335" style="mask-type:luminance" maskUnits="userSpaceOnUse" x="88" y="1" width="34" height="34">
<path d="M88.9476 18.0621C88.9476 27.0477 96.2325 34.3325 105.215 34.3325C114.201 34.3325 121.485 27.0446 121.485 18.0621C121.485 9.07962 114.201 1.79175 105.215 1.79175C96.2325 1.79175 88.9476 9.07962 88.9476 18.0621Z" fill="white"/>
</mask>
<g mask="url(#mask16_2278_335)">
<mask id="mask17_2278_335" style="mask-type:luminance" maskUnits="userSpaceOnUse" x="-61" y="-125" width="304" height="304">
<path d="M242.578 -124.633H-60.5779V178.522H242.578V-124.633Z" fill="white"/>
</mask>
<g mask="url(#mask17_2278_335)">
<path d="M121.488 1.79175H88.9476V34.3355H121.488V1.79175Z" fill="#DD3831"/>
</g>
</g>
<path d="M112.291 11.2168V25.5682H108.313L102.859 19.0503V25.5682H98.1424V11.2168H102.123L107.574 17.7346V11.2168H112.291Z" fill="white"/>
<path d="M134.576 21.6452C135.179 21.6452 135.725 21.5028 136.21 21.2148C136.692 20.9207 137.077 20.5054 137.365 19.9688C137.653 19.4231 137.795 18.7895 137.795 18.065C137.795 17.3404 137.65 16.7099 137.365 16.1733C137.077 15.6306 136.692 15.2092 136.21 14.9152C135.725 14.6211 135.182 14.4726 134.576 14.4726C133.969 14.4726 133.424 14.6211 132.942 14.9152C132.457 15.2092 132.072 15.6306 131.787 16.1733C131.499 16.7129 131.356 17.3404 131.356 18.065C131.356 18.7895 131.499 19.4261 131.787 19.9688C132.072 20.5084 132.457 20.9207 132.942 21.2148C133.424 21.5028 133.969 21.6452 134.576 21.6452ZM134.576 25.5681C133.033 25.5681 131.644 25.2437 130.416 24.604C129.182 23.9644 128.215 23.0701 127.515 21.9272C126.818 20.7873 126.472 19.4989 126.472 18.0619C126.472 16.628 126.818 15.3396 127.515 14.1967C128.218 13.0568 129.186 12.1656 130.416 11.5229C131.647 10.8832 133.036 10.5588 134.576 10.5588C136.116 10.5588 137.504 10.8832 138.735 11.5229C139.966 12.1656 140.93 13.0599 141.627 14.1967C142.33 15.3396 142.682 16.628 142.682 18.0619C142.682 19.4989 142.33 20.7873 141.627 21.9272C140.93 23.0701 139.966 23.9613 138.735 24.604C137.504 25.2437 136.119 25.5681 134.576 25.5681Z" fill="white"/>
<path d="M176.099 10.8865L171.497 25.2379H166.316L163.991 17.565L161.553 25.2379H156.36L151.771 10.8865H156.758L159.253 19.0505L161.905 10.8865H166.349L168.853 19.1505L171.497 10.8865H176.099Z" fill="white"/>
<mask id="mask18_2278_335" style="mask-type:luminance" maskUnits="userSpaceOnUse" x="60" y="1" width="34" height="34">
<path d="M60.5116 17.7347C60.5116 26.7203 67.7964 34.0051 76.779 34.0051C85.7645 34.0051 93.0493 26.7172 93.0493 17.7347C93.0493 8.74918 85.7645 1.46436 76.779 1.46436C67.7964 1.46436 60.5116 8.74918 60.5116 17.7347Z" fill="white"/>
</mask>
<g mask="url(#mask18_2278_335)">
<mask id="mask19_2278_335" style="mask-type:luminance" maskUnits="userSpaceOnUse" x="-61" y="-125" width="304" height="304">
<path d="M242.578 -124.633H-60.5779V178.522H242.578V-124.633Z" fill="white"/>
</mask>
<g mask="url(#mask19_2278_335)">
<path d="M93.0523 1.46436H60.5146V34.0081H93.0523V1.46436Z" fill="#007A4D"/>
</g>
</g>
<mask id="mask20_2278_335" style="mask-type:luminance" maskUnits="userSpaceOnUse" x="31" y="1" width="33" height="34">
<path d="M31.1541 17.7347C31.1541 26.7203 38.4389 34.0051 47.4244 34.0051C56.41 34.0051 63.6948 26.7172 63.6948 17.7347C63.6948 8.74918 56.4069 1.46436 47.4244 1.46436C38.4359 1.46436 31.1541 8.74918 31.1541 17.7347Z" fill="white"/>
</mask>
<g mask="url(#mask20_2278_335)">
<mask id="mask21_2278_335" style="mask-type:luminance" maskUnits="userSpaceOnUse" x="-61" y="-125" width="304" height="304">
<path d="M242.578 -124.633H-60.5778V178.522H242.578V-124.633Z" fill="white"/>
</mask>
<g mask="url(#mask21_2278_335)">
<path d="M63.6978 1.46436H31.1541V34.0081H63.6978V1.46436Z" fill="#FFB512"/>
</g>
</g>
<path d="M18.0638 1.46436C9.07823 1.46436 1.79642 8.75221 1.79642 17.7347C1.79642 26.7203 9.08126 34.0051 18.0638 34.0051C27.0523 34.0051 34.3341 26.7172 34.3341 17.7347C34.3341 8.74918 27.0523 1.46436 18.0638 1.46436Z" fill="black"/>
<mask id="mask22_2278_335" style="mask-type:luminance" maskUnits="userSpaceOnUse" x="1" y="1" width="34" height="34">
<path d="M1.79642 17.7347C1.79642 26.7203 9.08126 34.0051 18.0638 34.0051C27.0523 34.0051 34.3341 26.7172 34.3341 17.7347C34.3341 8.74918 27.0493 1.46436 18.0638 1.46436C9.08126 1.46436 1.79642 8.74918 1.79642 17.7347Z" fill="white"/>
</mask>
<g mask="url(#mask22_2278_335)">
<mask id="mask23_2278_335" style="mask-type:luminance" maskUnits="userSpaceOnUse" x="-61" y="-125" width="304" height="304">
<path d="M242.578 -124.633H-60.5779V178.522H242.578V-124.633Z" fill="white"/>
</mask>
<g mask="url(#mask23_2278_335)">
<path d="M34.3341 1.46436H1.79642V34.0081H34.3341V1.46436Z" fill="black"/>
</g>
</g>
<path d="M25.1394 10.8862V25.2376H21.162L15.7083 18.7198V25.2376H10.9912V10.8862H14.9716L20.4254 17.4041V10.8862H25.1394Z" fill="white"/>
<path d="M47.4244 21.318C48.0277 21.318 48.5734 21.1755 49.0554 20.8875C49.5374 20.5934 49.9224 20.1781 50.2104 19.6415C50.4984 19.0989 50.6409 18.4622 50.6409 17.7377C50.6409 17.0131 50.4954 16.3826 50.2104 15.846C49.9224 15.3003 49.5374 14.882 49.0554 14.5879C48.5703 14.2938 48.0277 14.1453 47.4244 14.1453C46.8181 14.1453 46.2724 14.2938 45.7904 14.5879C45.3054 14.882 44.9203 15.3034 44.6354 15.846C44.3474 16.3856 44.2049 17.0131 44.2049 17.7377C44.2049 18.4622 44.3474 19.0989 44.6354 19.6415C44.9203 20.1811 45.3054 20.5934 45.7904 20.8875C46.2724 21.1755 46.8181 21.318 47.4244 21.318ZM47.4244 25.2378C45.8814 25.2378 44.4929 24.9134 43.2651 24.2737C42.0313 23.6341 41.0672 22.7398 40.3639 21.5999C39.6667 20.46 39.3211 19.1716 39.3211 17.7347C39.3211 16.3007 39.6667 15.0123 40.3639 13.8694C41.0672 12.7296 42.0343 11.8383 43.2651 11.1926C44.4959 10.5529 45.8844 10.2285 47.4244 10.2285C48.9675 10.2285 50.3529 10.5529 51.5837 11.1926C52.8145 11.8352 53.7786 12.7296 54.4758 13.8694C55.1791 15.0123 55.5308 16.3007 55.5308 17.7347C55.5308 19.1716 55.1791 20.46 54.4758 21.5999C53.7786 22.7428 52.8145 23.6341 51.5837 24.2737C50.3529 24.9164 48.9675 25.2378 47.4244 25.2378Z" fill="white"/>
<path d="M88.9477 10.5588L84.3458 24.9102H79.1648L76.8396 17.2343L74.4022 24.9102H69.2092L64.6194 10.5588H69.6063L72.1013 18.7198L74.7539 10.5588H79.1982L81.7022 18.8229L84.3458 10.5588H88.9477Z" fill="white"/>
<path d="M124.193 49.3508C123.674 49.7691 123.056 49.9328 122.383 49.9328C120.727 49.9328 119.5 48.7233 119.5 47.1317C119.5 45.531 120.727 44.3305 122.383 44.3305C123.156 44.3305 123.82 44.5397 124.374 45.0854L124.665 44.7762C124.102 44.1941 123.292 43.9031 122.374 43.9031C120.446 43.9031 119.036 45.2764 119.036 47.1317C119.036 48.987 120.446 50.3603 122.365 50.3603C123.238 50.3603 124.065 50.0874 124.638 49.5418V47.159H124.193V49.3508ZM113.143 43.9486V49.4781L108.813 43.9486H108.422V50.3148H108.886V44.7853L113.224 50.3148H113.606V43.9486H113.143ZM101.92 50.3148H102.384V43.9486H101.92V50.3148ZM95.8808 50.3148L95.8717 43.9486H95.4898L92.6431 48.8688L89.7965 43.9486H89.4054V50.3148H89.8602V44.8853L92.5249 49.469H92.7523L95.417 44.8671L95.4261 50.3148H95.8808ZM79.6014 48.1321L81.2657 44.4579L82.9391 48.1321H79.6014ZM83.9304 50.3148H84.4306L81.5022 43.9486H81.0383L78.1098 50.3148H78.61L79.4195 48.5232H83.1119L83.9304 50.3148ZM72.8713 49.3508C72.3529 49.7691 71.7345 49.9328 71.0615 49.9328C69.4062 49.9328 68.1785 48.7233 68.1785 47.1317C68.1785 45.531 69.4062 44.3305 71.0615 44.3305C71.8345 44.3305 72.4984 44.5397 73.0532 45.0854L73.3442 44.7762C72.7804 44.1941 71.9709 43.9031 71.0524 43.9031C69.1243 43.9031 67.7146 45.2764 67.7146 47.1317C67.7146 48.987 69.1243 50.3603 71.0433 50.3603C71.9164 50.3603 72.744 50.0874 73.317 49.5418V47.159H72.8713V49.3508Z" fill="white"/>
</svg>
