<svg width="170" height="78" fill="none" xmlns="http://www.w3.org/2000/svg"><path d="M0 43.892h2.91c1.579 0 2.743.167 3.408.416.665.333 1.247.748 1.662 1.413.416.665.582 1.414.582 2.328 0 .998-.249 1.829-.748 2.494-.499.665-1.247 1.164-2.161 1.413-.499.166-1.497.25-2.91.25v6.068H0V43.892zm2.743 5.653h.832c.665 0 1.163-.083 1.413-.166s.499-.25.665-.499c.166-.25.25-.499.25-.831 0-.582-.25-.998-.666-1.247-.25-.166-.831-.25-1.746-.25h-.748v2.993zM10.807 43.892h2.91c1.579 0 2.743.167 3.408.416.665.25 1.247.748 1.662 1.413.416.665.582 1.414.582 2.328 0 .914-.25 1.746-.665 2.41-.416.666-1.164 1.081-2.078 1.414l3.408 6.4h-2.992l-3.243-6.068h-.249v6.069h-2.743V43.892zm2.743 5.653h.831c.915 0 1.497-.083 1.83-.332.332-.25.498-.582.498-1.164 0-.333-.083-.582-.25-.831a1.293 1.293 0 0 0-.664-.5c-.25-.082-.748-.165-1.497-.165h-.748v2.992zM27.267 43.892h2.743l5.57 14.382h-2.827L31.59 55.28H25.77l-1.164 2.993H21.78l5.486-14.382zm1.413 3.824-1.912 4.988h3.824l-1.912-4.988zM49.96 46.22l-1.911 1.912c-1.247-1.33-2.66-1.912-4.24-1.912-1.413 0-2.577.499-3.574 1.413-.998.915-1.413 2.078-1.413 3.409 0 1.413.498 2.577 1.496 3.574.997.998 2.244 1.413 3.658 1.413.914 0 1.745-.166 2.41-.582.665-.415 1.164-.997 1.58-1.912h-4.157v-2.577h7.233v.582a6.828 6.828 0 0 1-.998 3.575c-.665 1.164-1.496 1.995-2.577 2.577a7.456 7.456 0 0 1-3.658.914c-1.496 0-2.826-.332-3.99-.997a7.245 7.245 0 0 1-2.743-2.744c-.665-1.163-.998-2.493-.998-3.907 0-1.911.665-3.574 1.912-4.987 1.497-1.663 3.408-2.494 5.82-2.494 1.246 0 2.41.25 3.49.665.915.415 1.747 1.164 2.66 2.078zM54.7 43.892h2.66l3.325 10.06 3.408-10.06h2.66l2.41 14.382h-2.66l-1.579-9.144-3.076 9.144h-2.41l-3.076-9.144-1.58 9.144h-2.66L54.7 43.892zM76.48 43.892h2.742l5.57 14.382h-2.826l-1.164-2.993H74.9l-1.164 2.993h-2.827l5.57-14.382zm1.33 3.824-1.913 4.988h3.907l-1.995-4.988zM84.46 43.892h7.98v2.66h-2.66v11.722h-2.743V46.553H84.46v-2.66zM94.602 43.892h2.743v14.382h-2.743V43.892zM113.472 46.386l-1.912 1.83c-1.33-1.414-2.743-2.08-4.406-2.08-1.413 0-2.577.5-3.491 1.414-.915.915-1.414 2.078-1.414 3.492 0 .997.25 1.828.665 2.577.416.748.998 1.33 1.746 1.745a5.16 5.16 0 0 0 2.577.665c.831 0 1.497-.166 2.162-.415a7.18 7.18 0 0 0 2.161-1.663l1.829 1.912c-1.081 1.08-2.078 1.746-2.993 2.162-.914.415-1.995.581-3.242.581-2.244 0-4.073-.748-5.487-2.161-1.413-1.413-2.16-3.242-2.16-5.487 0-1.413.332-2.743.997-3.823a7.284 7.284 0 0 1 2.826-2.66c1.247-.666 2.494-.998 3.907-.998 1.164 0 2.328.25 3.408.748 1.081.499 1.996 1.247 2.827 2.161zM122.699 44.142h2.827c1.579 0 2.66.166 3.325.415.665.25 1.247.749 1.579 1.414.416.665.582 1.413.582 2.327 0 .998-.249 1.83-.748 2.494-.499.665-1.247 1.08-2.078 1.33-.499.166-1.497.25-2.827.25v5.985h-2.66V44.142zm2.66 5.57h.832c.665 0 1.164-.084 1.413-.167.249-.083.499-.25.582-.499.166-.249.249-.498.249-.83 0-.583-.249-.915-.665-1.165-.332-.166-.914-.25-1.746-.25h-.748v2.91h.083zM132.841 44.142h2.66v11.555h3.907v2.577h-6.567V44.142zM146.474 44.142h2.744l5.403 14.132h-2.826l-1.081-2.91h-5.736l-1.164 2.91h-2.826l5.486-14.132zm1.33 3.74-1.912 4.822h3.741l-1.829-4.821zM152.626 44.142h2.909l2.661 5.07 2.66-5.07h2.826l-4.156 7.98v6.152h-2.744v-6.152l-4.156-7.98z" fill="#fff"/><path d="M146.391 30.425c-8.479.5-4.655 11.555 4.655 10.973 9.145-.665 4.323-11.555-4.655-10.973z" fill="#E18C44"/><path d="M142.817 23.609c-15.047 0-27.184 12.22-27.184 27.183 0 15.047 12.22 27.183 27.184 27.183 15.046 0 27.183-12.22 27.183-27.183 0-15.046-12.137-27.183-27.183-27.183zm0 51.54c-13.467 0-24.357-10.89-24.357-24.357 0-13.467 10.89-24.357 24.357-24.357 13.467 0 24.357 10.89 24.357 24.357 0 13.467-10.89 24.357-24.357 24.357zM141.985 4.572c-6.484 4.905-5.32 12.386-5.32 12.386S132.592 6.401 127.355 0c-.749 8.313 1.911 19.286 1.911 19.286s-3.325-6.817-11.388-7.232c6.733 3.824 9.31 10.807 9.892 12.635 3.907-2.41 8.396-3.823 13.301-3.99-.582-1.662-2.494-8.978.914-16.127z" fill="#E18C44"/></svg>