<svg width="171" height="42" fill="none" xmlns="http://www.w3.org/2000/svg"><path d="M13.605 1.247A21.194 21.194 0 0 1 18.337 0 25.066 25.066 0 0 0 21 9.038 25.904 25.904 0 0 0 23.72 0c1.615.227 3.202.652 4.732 1.247-.34 2.578-.992 5.1-1.927 7.508a16.77 16.77 0 0 0 6.8-4.675 20.283 20.283 0 0 1 3.485 3.485c-3.202 3.627-7.452 6.035-12.127 6.885a26.047 26.047 0 0 0 4.675 3.995c2.89-2.89 6.375-5.072 10.2-6.347.68 1.53 1.162 3.117 1.502 4.732a21.059 21.059 0 0 0-7.027 3.967c2.38.85 4.845 1.331 7.367 1.416a22.507 22.507 0 0 1-.878 4.93c-7.452-.481-14.45-3.91-19.522-9.548-5.072 5.667-12.07 9.095-19.522 9.548a22.505 22.505 0 0 1-.878-4.93 22.932 22.932 0 0 0 7.395-1.501 22.235 22.235 0 0 0-7.027-3.995c.34-1.615.85-3.174 1.502-4.675 3.825 1.275 7.31 3.456 10.2 6.346 1.728-1.133 3.287-2.493 4.703-4.023-4.675-.85-8.953-3.287-12.126-6.913A20.447 20.447 0 0 1 8.76 3.967c1.842 2.125 4.193 3.711 6.8 4.675a29.975 29.975 0 0 1-1.955-7.395zM11.65 25.443a27.875 27.875 0 0 0 4.307-2.408c1.7 2.238 3.4 4.533 5.043 6.772 1.7-2.239 3.4-4.505 5.043-6.772a30.444 30.444 0 0 0 4.307 2.408c-2.267 3.145-4.675 6.205-6.913 9.322v6.998c-1.615.199-3.23.199-4.817 0v-6.998l-6.97-9.322z" fill="#F96432"/><path d="M143.003 12.892c1.389-.879 3.06-1.219 4.647-.907a8.143 8.143 0 0 1 4.137 1.813l-1.672 2.494a6.238 6.238 0 0 0-4.335-1.445c-.708.085-1.473.623-1.36 1.416.113.794.595 1.077 1.133 1.275 1.757.68 3.712.85 5.242 2.04 1.615 1.445 1.898 3.91.68 5.724a4.871 4.871 0 0 1-3.343 1.983c-2.72.397-5.44-.453-7.48-2.323l1.87-2.324a6.94 6.94 0 0 0 3.938 1.814 2.856 2.856 0 0 0 2.267-.567c.255-.283.368-.708.311-1.105-.085-.397-.311-.737-.68-.907-1.841-.991-4.108-.963-5.808-2.323-.907-.765-1.388-1.955-1.303-3.145.028-1.36.68-2.692 1.756-3.513zm-75.026 0a8.486 8.486 0 0 1 6.063-.652c1.247.312 2.437.907 3.4 1.785l-2.04 2.522c-.935-.907-2.125-1.445-3.4-1.502a4.105 4.105 0 0 0-3.513 1.502c-1.672 2.096-1.474 5.156.453 6.998 1.728 1.36 4.108 1.445 5.893.17V22.1h-1.53v-2.578h4.59v5.695c-2.011 1.785-4.675 2.635-7.31 2.323-1.955-.198-3.74-1.19-4.986-2.748-1.417-1.899-1.927-4.335-1.445-6.687.481-2.238 1.87-4.137 3.825-5.213zm15.583.283a8.505 8.505 0 0 1 6.573-.935c1.219.312 2.38.907 3.315 1.757-.68.821-1.36 1.671-2.011 2.493-.964-.935-2.182-1.473-3.514-1.502a4.071 4.071 0 0 0-3.626 1.785c-1.474 2.154-1.134 5.1.793 6.829 1.728 1.218 4.023 1.218 5.78 0v-1.559h-1.502v-2.578h4.59v5.723a9.256 9.256 0 0 1-6.006 2.324 7.668 7.668 0 0 1-5.752-2.154c-1.502-1.558-2.267-3.711-2.153-5.893.085-2.55 1.388-4.902 3.513-6.29zm-33.632-.935h3.74c1.134 2.238 2.324 4.477 3.485 6.715l3.514-6.715h3.626c-1.841 3.428-3.768 6.8-5.61 10.257v4.816h-3.145v-4.788c-1.841-3.457-3.768-6.857-5.61-10.285zm46.609 0h4.93c2.72-.142 5.326 1.247 6.8 3.627 1.218 2.153 1.388 4.788.396 7.083-1.19 2.578-3.711 4.278-6.488 4.363h-5.667c.029-5.043.029-10.058.029-15.073zm3.201 2.918v9.124c1.445 0 3.004.17 4.279-.68 1.246-.907 1.955-2.352 1.955-3.91a4.753 4.753 0 0 0-2.012-3.882c-1.247-.765-2.777-.595-4.222-.652zm11.645-2.918h6.602c1.842-.057 3.57.907 4.533 2.522.992 2.011.652 4.448-.85 6.063-.51.482-1.105.822-1.728 1.077l3.57 5.383h-3.74c-1.02-1.615-2.068-3.202-3.117-4.817h-.85V19.55c1.077-.057 2.267.227 3.23-.425.595-.453.907-1.19.822-1.955-.085-.765-.538-1.417-1.218-1.728a14.936 14.936 0 0 0-4.052-.227v12.098h-3.173c-.029-5.043-.029-10.058-.029-15.073zm13.175 15.102 6.234-15.159h2.946l6.234 15.159h-3.4c-.454-1.162-.907-2.267-1.332-3.4h-4.873l1.133-2.89h2.607l-1.927-4.902-4.42 11.22h-3.202v-.028zm30.175-15.102h3.174v15.073h-3.174V12.24zm5.837 0h3.23v12.07h6.8v3.003h-10.03c0-5.043-.028-10.058 0-15.073z" fill="#fff"/></svg>