<svg width="128" height="84" viewBox="0 0 128 84" fill="none" xmlns="http://www.w3.org/2000/svg">
<path d="M54.8172 83.7925C47.8662 83.4204 42.708 82.4564 40.4417 81.0865C39.8159 80.7144 39.1141 79.9534 38.9788 79.5137C38.8435 79.0655 38.8519 78.7441 39.0041 77.9408C39.3931 75.9198 38.8266 75.0234 36.7548 74.3385C35.6809 73.9833 34.4632 73.1292 31.8248 70.863C29.5163 68.8927 28.5861 67.8864 27.3008 66.0006C26.2945 64.5208 25.1529 62.4237 24.4003 60.6563L24.172 60.132L15.183 60.0982C9.3567 60.0813 5.79665 60.0306 5.0525 59.9714C3.3528 59.8192 1.77995 59.6247 1.17956 59.4894C0.892048 59.4217 0.604538 59.371 0.553801 59.3879C0.384677 59.4217 0.240921 58.8044 0.147903 57.6882C0.0126035 56.0054 -0.0550466 43.2112 0.054884 39.6173C0.105621 37.9007 0.190184 36.2686 0.232465 35.9896C0.342395 35.3977 0.477695 35.1017 0.570713 35.2624C0.62145 35.3385 0.765206 35.3385 1.25567 35.2285C3.45428 34.7634 5.50913 34.6535 13.5594 34.6112L20.7557 34.5689L20.8149 34.0108C20.9502 32.6748 21.6689 28.8187 22.1002 27.1021C23.4025 21.9185 24.3834 18.8827 25.5334 16.4896C25.8548 15.8131 26.4467 14.5278 26.8357 13.6229C27.4953 12.1008 27.9012 11.2806 29.567 8.11795C29.8968 7.49219 30.1674 6.90026 30.1674 6.80724C30.1674 6.70577 29.9391 6.40134 29.6178 6.08846C29.2626 5.7333 29.0681 5.47962 29.0681 5.35278C29.0681 5.07372 29.8884 3.46704 30.4888 2.57914C31.216 1.49675 32.0447 0.49046 32.4252 0.228317C33.051 -0.202949 33.5753 -0.0338249 35.5625 1.25152C36.2051 1.66587 37.4905 2.48612 38.4291 3.07806C40.5009 4.38031 40.8391 4.73547 41.0759 5.7925C41.1943 6.33369 41.0844 6.70577 40.5178 7.58521C38.8181 10.2066 37.3298 13.2593 36.3489 16.1091C35.8838 17.4536 34.8691 21.0559 34.5646 22.4597C34.4632 22.9163 34.0996 24.9712 33.7613 27.0176C33.4146 29.064 33.051 31.1696 32.958 31.7023C32.8565 32.2942 32.7888 33.0299 32.7888 33.6219V34.5859H57.6923H82.5959V33.9347C82.5959 32.8016 82.4267 30.8905 82.1731 29.0471C82.0378 28.0746 81.9109 27.0091 81.8771 26.6793C81.8263 26.1043 80.7693 21.4534 80.3465 19.9144C79.5939 17.1999 77.5052 11.9317 76.4059 9.94449C75.907 9.05659 75.1459 7.89809 74.6893 7.35689C74.5117 7.14549 74.3172 6.85798 74.258 6.70577C73.979 6.05464 74.2496 5.20902 74.9515 4.56635C75.3658 4.17736 77.1585 2.90048 78.5792 1.97875C79.4586 1.41219 82.2069 0 82.4436 0C82.8495 0 83.247 0.35516 84.0926 1.47984C85.3272 3.12034 86.0798 4.50716 86.1306 5.23439C86.1644 5.7333 86.1644 5.74176 85.7754 6.15611C85.564 6.38443 85.3864 6.63812 85.3864 6.71422C85.3864 6.86643 86.0291 8.16869 87.3736 10.7394C87.8725 11.6949 88.4053 12.7858 88.5659 13.1663C88.7181 13.5468 89.1325 14.4432 89.4792 15.1535C90.1557 16.5319 91.1028 19.1787 91.9061 21.9861C92.1429 22.7979 92.5826 24.227 92.8786 25.1572C93.9018 28.3367 94.2739 29.8927 94.3923 31.5416C94.4176 31.9391 94.5445 32.7847 94.6629 33.4274L94.8827 34.5859H101.572C110.273 34.5859 113.25 34.7381 115.989 35.3131C116.201 35.3554 116.302 35.4399 116.378 35.6344C116.522 35.9811 116.674 37.3341 116.674 38.3066V39.0676H116.421H116.167V37.4018V35.7274H58.3688H0.570713V47.3801V59.0243H58.3688H116.167V57.0371V55.0499H116.438H116.7L116.649 56.7242C116.59 58.3647 116.454 59.3625 116.268 59.5486C116.192 59.6247 116.167 59.6162 116.167 59.5063C116.167 59.3287 116.159 59.3287 115.575 59.4894C115.076 59.6247 113.579 59.8107 111.812 59.9629C111.11 60.0306 107.237 60.0729 101.022 60.0982L91.3311 60.132L91.1366 60.614C90.8322 61.3836 89.6906 63.5653 89.1071 64.4954C87.6696 66.7955 85.6485 69.2817 83.9996 70.7615C83.6275 71.1082 82.765 71.7762 82.0885 72.2667C81.412 72.7487 80.2619 73.6028 79.5178 74.1693C77.3784 75.8183 77.2093 76.2496 77.7674 78.4482C77.9872 79.3107 77.9872 79.5982 77.7674 80.0549C76.964 81.7123 72.4992 82.9553 65.0492 83.5811C61.6414 83.8771 57.8023 83.9532 54.8172 83.7925ZM61.8359 82.6171C65.9963 82.4902 68.2034 82.2958 71.1715 81.8053C74.0213 81.3317 75.3658 80.8328 75.8309 80.0549C76.0761 79.649 76.0423 79.3614 75.5857 78.2114C74.4356 75.3025 74.0805 74.1101 73.9367 72.6557C73.8521 71.8101 73.8183 71.6748 73.6407 71.531C73.3279 71.2773 72.6936 71.3281 70.9432 71.7509C66.0978 72.9009 61.8274 73.3998 56.6945 73.3998C51.9337 73.3998 48.2806 72.9347 45.3717 71.9538C43.951 71.4803 43.3422 71.4211 42.8771 71.7086C42.5219 71.92 42.4374 72.106 42.0061 73.5267C41.3973 75.5308 41.0844 76.368 40.5601 77.3489C39.8836 78.6427 39.8921 79.0063 40.6447 79.6828C41.5072 80.4608 43.6466 81.1964 47.0375 81.8899C48.8725 82.2619 50.1325 82.4226 52.8723 82.6425C53.701 82.7101 59.2229 82.6932 61.8359 82.6171ZM40.2726 73.1631C40.4332 73.0531 40.8645 72.4443 41.3296 71.6748C41.8623 70.7953 42.1921 70.5247 42.7249 70.5247C43.2069 70.5247 45.2956 70.7361 47.4181 70.9898C51.6631 71.5056 55.6206 71.6917 59.1806 71.5564C64.2797 71.345 68.956 70.8799 72.4822 70.2288C73.0911 70.1104 73.6915 70.0173 73.8183 70.0173C74.1227 70.0173 74.2496 70.2118 74.6555 71.3196C75.0191 72.3259 75.332 72.977 75.5265 73.1377C75.5941 73.1969 75.7379 73.2307 75.8478 73.2138C76.0085 73.1969 76.0423 73.1292 76.0677 72.8248C76.093 72.5204 75.9916 72.2413 75.3996 71.0067C75.0191 70.2034 74.6386 69.4846 74.5456 69.4085C74.3426 69.2225 74.0382 69.2225 73.2095 69.3747C71.1208 69.7806 67.1464 70.2626 63.7808 70.5247C57.4979 71.0152 52.5002 70.9391 47.4265 70.271C46.7162 70.1696 45.5323 70.0596 44.8051 70.0173C44.0779 69.9751 43.1646 69.9159 42.7672 69.8905C42.116 69.8482 42.0146 69.8567 41.7101 70.0343C41.3803 70.2288 40.5855 71.252 40.0527 72.1737C39.8244 72.5711 39.7314 73.0447 39.8667 73.1715C39.9343 73.2476 40.1626 73.2476 40.2726 73.1631ZM63.1889 67.9456C69.3873 67.3536 73.979 65.544 77.2093 62.4152C77.945 61.7049 79.1288 60.3181 79.1288 60.1743C79.1288 60.149 78.9428 60.1236 78.7145 60.1236H78.3086L77.556 61.113C76.7949 62.1193 76.5412 62.356 74.9007 63.5991C73.0319 65.0197 70.3936 66.0852 67.2056 66.7194C64.0091 67.3536 61.8951 67.565 59.3836 67.5312C55.2992 67.4636 53.8363 67.3875 49.4898 67.0069C48.492 66.9224 47.7986 66.7448 45.6 65.9922C43.2322 65.1889 42.3274 64.7745 41.1605 63.9458C40.391 63.3961 38.1162 61.2398 37.5074 60.4788C37.2283 60.1236 37.203 60.1151 36.8055 60.1405L36.3912 60.1659L37.0592 60.9692C37.9387 62.0347 39.2071 63.2778 40.1542 64.0134C43.376 66.4996 46.8346 67.5989 52.4664 67.9033C57.4387 68.1739 60.6351 68.1908 63.1889 67.9456ZM63.4679 66.3051C64.0852 66.2543 64.6264 66.1951 64.6603 66.1782C64.6941 66.1529 65.489 65.9837 66.4192 65.7977C68.2795 65.4256 69.531 65.0451 70.6472 64.5208C72.1186 63.8274 74.0213 62.3899 75.3574 60.9523L76.0846 60.1659L75.5688 60.1405L75.0445 60.1151L73.8521 61.2905C72.2201 62.8972 71.2054 63.5484 69.0998 64.3094C67.1802 65.0113 65.6835 65.3072 62.8929 65.544C60.2038 65.7808 55.0709 65.7892 53.1683 65.5694C50.4792 65.265 47.7901 64.6646 46.1074 64.0134C44.4922 63.3792 41.9554 61.7303 40.6024 60.4449C40.2641 60.1236 40.2472 60.1151 39.7145 60.1405L39.1733 60.1659L39.6299 60.6563C40.5263 61.6119 42.7502 63.1678 44.3485 63.9712C45.397 64.487 46.4371 64.8591 48.4835 65.4595C51.6546 66.3727 52.4241 66.4404 58.8339 66.4065C60.762 66.3981 62.8506 66.3474 63.4679 66.3051ZM60.3138 64.9436C63.2988 64.783 63.8654 64.7153 65.4721 64.3179C66.3092 64.1065 67.3916 63.802 67.8821 63.6329C69.8777 62.9395 71.9918 61.7387 73.1165 60.6648L73.6746 60.132L57.8784 60.1236H42.0737L42.3359 60.4534C42.7418 60.9692 43.1139 61.2567 44.1117 61.8487C46.2765 63.134 48.4328 63.9965 50.5469 64.4278C51.2741 64.58 53.7518 64.9013 54.6904 64.969C55.5868 65.0366 58.8339 65.0197 60.3138 64.9436ZM33.3047 62.0347C33.7528 61.7387 33.9727 61.2736 33.9727 60.631V60.1236H31.9009C30.7594 60.1236 29.8292 60.149 29.8292 60.1743C29.8292 60.2843 30.5818 61.3751 30.8355 61.6288C31.5542 62.3391 32.5859 62.5082 33.3047 62.0347ZM84.025 62.0093C84.4055 61.7641 84.8198 61.2905 85.3018 60.5295L85.5471 60.1236H83.4415H81.3274V60.5887C81.3274 61.3582 81.7418 61.9586 82.469 62.2292C82.8834 62.3814 83.5852 62.2799 84.025 62.0093ZM23.9098 34.5182C23.9098 34.4844 23.8675 34.4083 23.8084 34.3491C23.6561 34.1969 23.5716 34.2222 23.5716 34.4167C23.5716 34.5267 23.6308 34.5859 23.7407 34.5859C23.8337 34.5859 23.9098 34.552 23.9098 34.5182ZM26.2522 34.3998C26.3621 34.2984 26.4467 34.1884 26.4467 34.1546C26.4467 34.1208 26.2437 34.0954 26.007 34.0954C25.4742 34.1039 25.0683 33.9432 24.6455 33.5711L24.3326 33.3005V33.6641C24.3326 33.884 24.4003 34.1461 24.5018 34.3153C24.6709 34.5859 24.6709 34.5859 25.3643 34.5859C25.9562 34.5859 26.0831 34.5605 26.2522 34.3998ZM29.4402 33.0891C29.5332 30.5269 30.1336 25.7407 30.5902 23.8888C31.4358 20.4217 32.6958 17.0646 34.4209 13.699C36.5349 9.58933 36.6364 9.35256 36.4081 8.9382C36.2897 8.70143 33.7951 6.8918 32.7973 6.29987C32.4421 6.09692 32.0193 5.81787 31.8587 5.67411C31.6134 5.47116 31.5796 5.39506 31.6557 5.27667C31.7064 5.19211 31.7825 5.116 31.8248 5.09909C31.8671 5.08218 32.4168 5.43734 33.0425 5.87706C34.3194 6.76496 35.2073 7.27233 35.5117 7.27233C35.7823 7.27233 36.0276 6.99328 36.7633 5.87706C37.093 5.36969 37.4228 4.91305 37.4905 4.87923C37.5666 4.83695 37.8541 4.94688 38.3023 5.20056C38.6744 5.41197 39.0041 5.56418 39.0211 5.54727C39.0972 5.47116 38.7758 5.01453 38.3023 4.50716C37.8795 4.05898 37.7526 3.97441 37.5243 3.97441C37.1692 3.97441 36.7717 4.37186 36.0276 5.46271C35.7401 5.88552 35.4525 6.26605 35.3933 6.32524C35.3088 6.39289 35.1735 6.34215 34.8183 6.11383C34.2518 5.75022 31.7149 4.48179 31.5542 4.48179C31.2921 4.48179 31.1822 5.13291 31.3597 5.64874C31.5035 6.07155 34.0488 8.12641 35.1397 8.70989C35.4864 8.88747 35.6639 9.03968 35.6639 9.14115C35.6639 9.22572 35.3511 9.89376 34.979 10.6294C34.5985 11.3651 34.1249 12.2784 33.922 12.6674C33.4907 13.513 32.4168 16.0076 31.9517 17.276C31.2583 19.1364 29.9645 23.6858 29.6685 25.2671C29.2541 27.4911 28.8905 31.1188 28.8567 33.4274L28.8398 34.5859H29.1104H29.381L29.4402 33.0891ZM31.3513 34.0362C31.3513 33.7318 31.4274 32.7593 31.512 31.863C31.605 30.9666 31.7064 29.9434 31.7318 29.5967C31.9601 26.8654 33.5668 19.8467 34.5646 17.2084C34.7507 16.701 35.0805 15.83 35.2834 15.2719C35.8838 13.6652 38.9788 8.00802 40.2557 6.18148L40.5094 5.80941L40.3233 5.6572C40.2134 5.56418 40.0781 5.5219 40.0189 5.56418C39.8498 5.6572 39.41 6.32524 38.6659 7.61058C38.3023 8.23634 37.8034 9.06505 37.5581 9.43712C36.3235 11.3482 35.2834 13.42 34.6999 15.1197C34.497 15.7116 34.1165 16.7517 33.8543 17.4282C33.237 19.0518 32.8565 20.3372 32.5859 21.7071C32.459 22.3159 32.2307 23.263 32.0701 23.8042C31.5965 25.394 30.9285 28.8187 30.8355 30.0618C30.7932 30.6706 30.7002 31.5247 30.641 31.9644C30.5395 32.6663 30.5395 34.1715 30.6325 34.4844C30.6579 34.5436 30.8101 34.5859 31.013 34.5859H31.3513V34.0362ZM84.879 34.4844C84.8621 33.309 84.6253 30.9412 84.2871 28.5904C83.8474 25.5462 83.4584 23.6774 82.7143 21.0982C82.5028 20.3541 82.1392 19.0434 81.9194 18.1808C81.4458 16.3797 81.4289 16.3205 80.7778 14.7984C79.6616 12.16 78.4016 9.87684 76.592 7.18777C75.6871 5.85169 75.425 5.54727 75.1882 5.598C74.8923 5.64874 74.9768 5.91089 75.5434 6.68886C76.6934 8.27862 77.6744 9.94449 78.8582 12.3122C80.0505 14.6969 80.5833 16.0499 81.116 18.054C81.2852 18.7051 81.7672 20.4302 82.1815 21.8846C82.7565 23.9057 82.9679 24.8189 83.1032 25.7745C83.2047 26.4595 83.3738 27.6433 83.4838 28.4128C83.7882 30.4254 83.8558 31.1526 83.915 32.7678C83.9742 34.6873 83.9404 34.5859 84.4562 34.5859C84.7353 34.5859 84.879 34.552 84.879 34.4844ZM86.8747 34.1039C86.8409 33.8333 86.7479 32.7001 86.6548 31.5839C86.5618 30.4677 86.4265 29.0809 86.3589 28.4974C86.1728 27.0176 85.6739 24.041 85.4625 23.2207C85.2088 22.2144 83.0187 15.6778 82.562 14.5447C82.0293 13.2424 81.1921 11.6611 80.4311 10.5195C80.0844 10.0037 79.8053 9.52168 79.8053 9.44558C79.8053 9.27645 81.1921 8.15178 82.3083 7.42454C83.2893 6.77342 83.729 6.32524 83.8643 5.83478C83.9827 5.40351 83.8728 4.79467 83.6783 4.75238C83.6022 4.73547 82.7904 5.14983 81.8771 5.6572C80.9638 6.17303 80.152 6.59584 80.0759 6.59584C79.9829 6.59584 79.763 6.35061 79.5093 5.96162C79.281 5.60646 78.799 5.0399 78.4439 4.69319C77.6321 3.89831 77.4968 3.8814 76.9133 4.48179C76.5243 4.88768 76.1691 5.37814 76.1691 5.51344C76.1691 5.54727 76.4059 5.42888 76.6934 5.24284C77.2093 4.9046 77.4883 4.83695 77.7674 4.9807C77.8435 5.02298 78.2494 5.56418 78.6637 6.17303C79.4671 7.35689 79.7377 7.64441 79.9829 7.5683C80.2366 7.48374 82.3422 6.12229 82.9172 5.66565C83.4499 5.24284 83.6106 5.20056 83.6106 5.48807C83.6106 5.66565 83.2639 5.99545 82.765 6.2745C82.5536 6.39289 82.0462 6.77342 81.6234 7.11167C81.209 7.44991 80.5579 7.92346 80.1858 8.16023C79.5432 8.57459 78.9597 9.12424 78.9597 9.31028C78.9597 9.43712 79.2557 10.0037 80.0167 11.289C81.023 13.0056 81.3443 13.606 81.9025 14.8829C83.0102 17.3944 84.3632 21.9354 85.1665 25.8337C85.6824 28.3452 86.1475 32.1336 86.1475 33.7994V34.5859H86.5364H86.9254L86.8747 34.1039ZM90.6293 34.5436C90.6293 34.5182 90.3756 34.3745 90.0627 34.2138C89.7414 34.0531 89.3185 33.791 89.1071 33.6219C88.8112 33.3851 88.7181 33.3513 88.7012 33.4527C88.6505 33.6895 88.7689 34.1377 88.9465 34.366C89.1071 34.5774 89.1579 34.5859 89.8766 34.5859C90.291 34.5859 90.6293 34.569 90.6293 34.5436ZM91.8047 34.4844C91.8047 34.4252 91.7708 34.2984 91.737 34.2138C91.6778 34.07 91.6609 34.0785 91.4833 34.3153L91.2973 34.5859H91.551C91.7116 34.5859 91.8131 34.5436 91.8047 34.4844ZM25.0007 31.8883C25.6011 31.6938 26.1169 31.8291 26.7596 32.3534C27.0133 32.5648 27.1316 32.6156 27.1655 32.5395C27.3008 32.1336 27.6306 28.3283 27.5206 28.3283C27.4953 28.3283 27.2754 28.4213 27.0217 28.5397C26.4974 28.7849 25.9647 28.8103 25.5842 28.6158C25.4319 28.5397 25.1106 28.286 24.8654 28.0492C24.561 27.7617 24.4087 27.6687 24.3834 27.7448C24.2565 28.1084 23.7407 31.9137 23.7407 32.4464V32.7255L24.2312 32.3534C24.4933 32.1505 24.84 31.9391 25.0007 31.8883ZM91.6017 31.9475C91.5002 30.7129 91.1113 28.3283 90.9252 27.7533C90.8999 27.6856 90.7223 27.8124 90.4348 28.1C90.1811 28.3706 89.8597 28.5989 89.6652 28.6665C89.2424 28.8018 88.6251 28.7426 88.177 28.5059C87.9825 28.4044 87.7964 28.3452 87.7711 28.3621C87.7034 28.4382 87.9064 30.8398 88.0586 31.6346C88.2361 32.624 88.2615 32.6494 88.6505 32.3111C89.4116 31.6431 90.0289 31.6431 91.0182 32.2942C91.2888 32.4803 91.551 32.6325 91.5933 32.6325C91.6271 32.6409 91.6355 32.3281 91.6017 31.9475ZM26.8526 28.0661C27.0471 27.9224 27.2077 27.7702 27.2077 27.7363C27.2077 27.6941 27.0471 27.618 26.8526 27.5672C26.1592 27.3896 25.7448 27.2036 25.4319 26.9161L25.1106 26.637L25.0599 26.933C24.8485 28.0239 25.9562 28.7257 26.8526 28.0661ZM89.6906 28.1084C90.0373 27.8209 90.0204 27.7363 89.623 27.7363C89.1663 27.7363 88.7351 27.5334 88.3461 27.1444C88.16 26.9584 87.9825 26.8062 87.9571 26.8062C87.8641 26.8062 87.9909 27.6264 88.1008 27.804C88.2615 28.0661 88.7773 28.3283 89.124 28.3283C89.3354 28.3283 89.513 28.2606 89.6906 28.1084ZM88.4306 25.4616C88.9126 25.2418 89.2424 25.2418 89.8428 25.4532C90.1134 25.5462 90.3417 25.6223 90.3502 25.6223C90.4178 25.6223 90.2656 24.8528 90.105 24.3961C89.902 23.8042 89.6145 23.3899 89.2424 23.1615C89.031 23.0262 88.8619 23.0009 88.4137 23.0178C87.7372 23.0516 87.4582 23.2207 87.1876 23.7619C86.9593 24.2016 86.9254 24.9965 87.1115 25.6815C87.2891 26.3411 87.306 26.358 87.7034 25.969C87.8894 25.783 88.2192 25.5546 88.4306 25.4616ZM28.1971 25.783C28.2479 25.58 28.2986 25.0811 28.2986 24.6837C28.3071 24.0579 28.2817 23.9141 28.121 23.6774C27.7997 23.2038 27.5206 23.0516 26.9118 23.0178C26.4213 22.984 26.3198 23.0093 26.0239 23.2038C25.8463 23.3222 25.6011 23.5843 25.4827 23.7788C25.2544 24.1678 25.0091 25.005 25.0091 25.3855V25.6138L25.4911 25.4447C26.3368 25.1572 26.7849 25.2502 27.4953 25.8675C27.7151 26.062 27.9434 26.2058 28.0026 26.1889C28.0534 26.1719 28.1379 25.9944 28.1971 25.783Z" fill="white"/>
<path d="M56.4576 82.2278C56.3054 82.1856 56.0433 81.0609 55.5021 78.2196C55.1723 76.4945 55.1808 76.4776 55.0285 79.3189C54.9863 80.2237 54.9186 81.2385 54.8932 81.5598L54.851 82.1602L54.2421 82.1264C53.9039 82.1095 53.6248 82.0841 53.6164 82.0756C53.5825 82.0503 54.2506 74.3213 54.2844 74.2875C54.3098 74.2621 54.6565 74.2706 55.0708 74.3128L55.815 74.372L56.0095 75.5136C56.4069 77.8391 56.669 79.1498 56.7282 79.0906C56.7874 79.0229 57.3286 76.6298 57.6161 75.1585L57.7599 74.4143H58.5463C59.1298 74.4143 59.3412 74.4397 59.3412 74.5242C59.3412 74.575 59.4004 76.317 59.468 78.3887C59.5611 81.323 59.5695 82.1602 59.485 82.2109C59.4258 82.2448 59.1467 82.2786 58.8592 82.2786H58.3265L58.3095 79.5557C58.2926 77.3571 58.2673 76.892 58.1912 77.1626C58.1404 77.3486 57.836 78.5663 57.5147 79.8686C56.8974 82.38 56.9058 82.3462 56.4576 82.2278Z" fill="white"/>
<path d="M60.8634 81.9489C60.8634 81.6022 60.5421 75.6828 60.4829 74.9556L60.4321 74.3552L61.0071 74.3045C61.32 74.2706 61.5822 74.2622 61.5906 74.2706C61.6329 74.3129 62.2418 82.025 62.2079 82.0588C62.191 82.0757 61.8781 82.1095 61.523 82.1349L60.8634 82.1941V81.9489Z" fill="white"/>
<path d="M51.5531 81.8813C51.274 81.8475 51.2402 81.8221 51.1895 81.5346C51.1641 81.3655 51.1387 80.968 51.1387 80.6552C51.1387 80.0294 51.1641 80.0548 50.42 79.9533C50.1916 79.9279 49.9126 79.8772 49.8196 79.8603C49.6589 79.818 49.6082 79.8941 49.3714 80.5537C49.2192 80.9596 49.0754 81.3317 49.0416 81.3909C48.9993 81.467 48.8217 81.4585 48.3313 81.3655C47.714 81.2556 47.6802 81.2386 47.7647 81.078C47.9169 80.7905 49.3968 76.9091 49.9549 75.3447C50.2424 74.5329 50.4876 73.8564 50.5045 73.831C50.5214 73.8141 50.8597 73.8479 51.2571 73.9071L51.9759 74.0086L52.0182 74.4399C52.0436 74.6851 52.1027 75.6068 52.1535 76.4863C52.238 78.0168 52.4325 80.4099 52.5425 81.4585L52.6017 81.9405L52.2296 81.9236C52.0266 81.9151 51.7222 81.8982 51.5531 81.8813ZM51.0542 78.2452C51.0542 77.8308 51.0288 77.1205 50.995 76.6554L50.9442 75.8098L50.4622 77.2896C50.2001 78.1014 49.9887 78.7779 49.9972 78.7948C50.0225 78.8202 50.7159 78.9555 50.9104 78.9724C51.0373 78.9808 51.0542 78.8963 51.0542 78.2452Z" fill="white"/>
<path d="M63.5356 81.8478C63.5187 81.7801 63.3411 80.1734 63.1466 78.2623C62.9521 76.3597 62.7746 74.6515 62.7492 74.4824L62.7069 74.178L63.1128 74.1188C63.3411 74.0934 63.6033 74.0511 63.6963 74.0342C63.84 74.0089 63.9753 74.2033 64.5335 75.2435C65.4298 76.9178 66.2247 78.3046 66.2839 78.3046C66.3177 78.3046 66.174 77.3406 65.971 76.1736C65.7681 74.9982 65.5989 73.975 65.5989 73.8905C65.5989 73.789 65.7258 73.7298 66.0894 73.6706C66.3515 73.6199 66.5883 73.603 66.6052 73.6199C66.6221 73.6283 66.9688 75.3534 67.3747 77.4336C67.8736 80.0212 68.0766 81.2389 68.0174 81.2727C67.9667 81.3066 67.7553 81.3573 67.5439 81.3911C67.3325 81.4165 67.1041 81.4672 67.028 81.4841C66.8674 81.5264 66.2923 80.647 65.007 78.4061C64.5757 77.645 64.2121 77.0362 64.2037 77.0531C64.1952 77.07 64.322 78.1524 64.4912 79.4716C64.7956 81.8308 64.804 81.8562 64.6265 81.8562C64.5334 81.8562 64.2544 81.8816 64.0176 81.9069C63.6794 81.9492 63.561 81.9323 63.5356 81.8478Z" fill="white"/>
<path d="M46.1496 80.9342C46.0059 80.8919 45.9298 80.7989 45.8875 80.6044C45.8536 80.4522 45.8114 80.3084 45.7945 80.2915C45.7775 80.2746 45.5746 80.3507 45.3463 80.4691C44.9996 80.6467 44.8558 80.672 44.5429 80.6297C43.266 80.4437 42.598 79.5558 42.8432 78.3804C42.9616 77.8223 43.9087 74.7019 44.137 74.1185C44.3823 73.4843 44.6782 73.1545 45.2025 72.9177C45.5746 72.7401 45.7437 72.7063 46.1073 72.7486C46.9614 72.8331 47.6294 73.3743 47.8493 74.1438C47.9339 74.4483 47.9339 74.6512 47.8493 75.1248C47.7986 75.4461 47.7309 75.7336 47.7056 75.759C47.6717 75.8013 46.6739 75.6152 46.564 75.5476C46.5301 75.5307 46.564 75.2939 46.6232 75.0317C46.8092 74.2538 46.5893 73.8225 46.0228 73.8225C45.4816 73.8225 45.3886 74.0085 44.6698 76.6046C43.9848 79.0484 43.9848 79.2852 44.5937 79.5389C44.915 79.6742 45.2279 79.6319 45.4224 79.412C45.5577 79.2683 45.9889 77.8815 45.9298 77.78C45.9128 77.7546 45.7437 77.7039 45.5577 77.6701C45.1856 77.6024 45.1771 77.6024 45.3124 77.0697C45.397 76.7399 45.4393 76.6892 45.5915 76.7314C45.693 76.7568 46.1327 76.8583 46.5724 76.9597C47.0121 77.0612 47.3842 77.1542 47.4011 77.1627C47.418 77.1712 46.8007 80.0547 46.6147 80.8242C46.564 81.0187 46.5048 81.0356 46.1496 80.9342Z" fill="white"/>
<path d="M70.0299 80.6047C69.6071 80.4017 69.2773 79.9958 69.0659 79.3954C68.8714 78.8119 68.0511 75.0236 68.0511 74.6684C68.0511 73.6875 68.7953 72.8757 69.81 72.7488C70.7402 72.6389 71.5097 73.1717 71.8395 74.161C71.941 74.457 72.0256 74.7276 72.0256 74.7614C72.0256 74.8206 70.9093 75.1927 70.8755 75.1504C70.8671 75.1419 70.7994 74.9221 70.7149 74.6684C70.5204 74.0596 70.3005 73.8228 69.9369 73.8228C69.5733 73.8228 69.235 74.1441 69.235 74.4739C69.235 74.6092 69.4211 75.4971 69.6578 76.4442C70.3851 79.4292 70.4696 79.6153 71.0616 79.5984C71.4675 79.5899 71.755 79.3785 71.8142 79.0487C71.8564 78.8204 71.5943 77.5097 71.4928 77.4082C71.4759 77.3913 71.2983 77.4336 71.0869 77.4928L70.6979 77.6112L70.5965 77.1883C70.5457 76.9516 70.5204 76.7402 70.5457 76.7148C70.5711 76.6894 71.0108 76.5457 71.5266 76.4019C72.1439 76.2243 72.4737 76.1651 72.4907 76.2243C72.5076 76.2751 72.7528 77.0784 73.0403 78.0086C73.3278 78.9388 73.573 79.7421 73.59 79.8013C73.6069 79.8521 73.4885 79.9451 73.3194 80.0043C73.0234 80.0973 73.0065 80.0888 72.7866 79.8267L72.5583 79.5476L72.3554 79.9197C71.9579 80.63 70.8079 80.9683 70.0299 80.6047Z" fill="white"/>
<path d="M8.89998 57.4429C6.80284 57.3499 5.02704 57.2146 4.16451 57.1047C3.6064 57.0286 3.02292 56.9609 2.87071 56.9609C2.61702 56.9525 2.5832 56.9187 2.46481 56.5297C2.23649 55.8024 2.16039 52.4115 2.20267 45.6212C2.23649 41.4353 2.27877 39.1183 2.34642 38.8139C2.48172 38.1459 2.60011 37.8668 2.7185 37.9598C2.77769 38.0021 3.03983 37.9937 3.40345 37.926C4.17296 37.7823 5.43294 37.6639 7.63155 37.5286C10.2445 37.3679 106.408 37.3679 109.064 37.5286C111.228 37.6554 113.089 37.8415 113.672 37.9937C114.061 38.0867 114.104 38.1205 114.205 38.4334C114.264 38.6194 114.34 39.0676 114.366 39.4228L114.416 40.0824H115.237C115.693 40.0824 116.268 40.1246 116.514 40.1669C117.554 40.3614 118.45 41.0633 118.907 42.0273C119.169 42.5685 119.169 42.5938 119.194 44.1667C119.228 45.9594 119.203 45.9087 119.888 45.562C120.649 45.173 120.767 44.7248 121.241 40.539C121.427 38.8731 121.824 35.5245 122.112 33.106L122.644 28.7088L122.247 28.4804C122.036 28.3536 121.68 28.0576 121.469 27.8209C120.454 26.6962 120.268 25.2502 120.945 23.8803C121.3 23.153 121.807 22.671 122.594 22.299C123.304 21.9607 124.352 21.8846 125.054 22.1129C126.323 22.5273 127.194 23.4997 127.464 24.7851C127.82 26.5017 126.813 28.2183 125.105 28.8018C124.75 28.9202 124.725 28.954 124.674 29.2838C124.648 29.4783 124.319 32.8185 123.947 36.6999C123.575 40.5813 123.228 44.0652 123.177 44.4288C122.906 46.4668 121.706 47.7775 119.803 48.1242L119.228 48.2257L119.194 49.8831C119.169 51.4813 119.16 51.5574 118.941 52.0056C118.645 52.6144 118.213 53.1049 117.714 53.4262C117.089 53.8237 116.522 53.9505 115.389 53.9505H114.391V54.8215C114.391 55.9969 114.146 57.2823 113.977 57.0117C113.926 56.9271 113.748 56.9271 113.114 57.0286C112.108 57.1893 110.696 57.3076 108.429 57.4176C106.874 57.4937 10.4644 57.519 8.89998 57.4429ZM113.884 47.4646V38.3066H58.3265H2.76923V47.4646V56.6142H58.3265H113.884V47.4646ZM118.357 47.5238C118.408 46.5175 118.45 44.9785 118.45 44.0991C118.45 42.5685 118.442 42.4755 118.239 42.0696C117.993 41.5622 117.909 41.4607 117.511 41.1563C117.165 40.8942 116.463 40.7081 116.125 40.7927C115.888 40.8519 115.896 40.8603 116.387 41.1056C117.072 41.4438 117.461 41.892 117.647 42.5516C117.765 42.9828 117.807 43.617 117.867 45.8749C117.926 48.5386 117.968 49.3165 118.086 49.9761C118.137 50.2636 118.146 50.2552 118.205 49.807C118.239 49.5533 118.306 48.5216 118.357 47.5238ZM119.879 47.5154C120.496 47.3801 121.139 47.008 121.57 46.5513C122.061 46.0355 122.289 45.6212 122.416 44.987C122.568 44.2597 124.014 31.3386 124.158 29.3853C124.183 29.0132 124.234 28.6157 124.251 28.4974C124.285 28.3621 124.268 28.3198 124.217 28.3705C124.116 28.4804 123.684 31.2372 122.89 36.9113C121.773 44.877 121.773 44.8939 121.537 45.3759C121.19 46.0863 120.513 46.5852 119.634 46.7712L119.211 46.8642V47.2363C119.211 47.6507 119.236 47.6676 119.879 47.5154ZM123.169 25.5715C123.583 25.4024 123.93 25.0641 124.124 24.6498C124.319 24.2354 124.327 23.9141 124.158 23.5928C123.972 23.2376 123.71 23.0854 123.262 23.0854C122.416 23.0854 121.579 23.8718 121.579 24.6667C121.579 25.1318 121.68 25.3263 122.027 25.5377C122.357 25.7406 122.746 25.7491 123.169 25.5715ZM125.426 24.1424C125.68 23.8972 125.697 23.635 125.477 23.5082C125.232 23.3814 125.147 23.3983 124.919 23.635C124.674 23.8718 124.657 24.0325 124.843 24.2185C125.029 24.4046 125.19 24.3876 125.426 24.1424Z" fill="white"/>
<path d="M31.4359 53.6883C30.6241 53.6545 29.8292 53.5869 29.677 53.5361C29.0512 53.3416 28.6622 53.0288 28.3155 52.4453C28.0027 51.921 27.9688 51.7942 27.842 50.7794C27.6982 49.6209 27.4615 48.936 27.1317 48.733C27.0386 48.6738 26.5566 48.547 26.0662 48.4455C24.9669 48.2256 24.9246 48.2426 24.9246 49.0205C24.9246 49.8323 24.9753 49.8915 25.7279 49.8915C26.9372 49.8915 27.0217 50.0437 26.878 51.9041C26.8188 52.6398 26.7427 53.2655 26.7004 53.3078C26.5313 53.4769 25.7026 53.5108 22.4808 53.4769L19.0645 53.4347L19.0306 51.9125C19.0137 50.9485 19.0306 50.3312 19.0898 50.2298C19.1744 50.0775 19.2674 50.0606 19.9862 50.0606C20.7642 50.0606 20.8064 50.0522 21.0347 49.8154L21.28 49.5786L21.2546 47.6422C21.2208 45.655 21.1531 45.1983 20.8825 45.1222C20.798 45.0968 20.3667 45.0546 19.9185 45.0207L19.0983 44.97L19.0053 44.5726C18.8953 44.1159 18.7854 41.4607 18.87 41.1478C18.9207 40.9364 18.9292 40.9279 19.1321 41.0632C19.3773 41.2239 20.1384 41.2324 21.3899 41.1055C21.9142 41.0463 22.43 41.0463 22.8275 41.0971C23.4194 41.1647 26.7765 41.3254 28.6453 41.3761C29.4402 41.393 29.584 41.4184 30.0237 41.6383C30.6325 41.9511 31.2921 42.6361 31.5881 43.2703C31.7657 43.6593 31.8164 43.9214 31.8418 44.5049C31.8925 45.6296 31.5712 46.3061 30.8101 46.6951C30.6241 46.7881 30.3197 46.9657 30.1505 47.0841L29.8292 47.2955L30.3704 47.8113C30.8778 48.3017 30.9116 48.3525 30.9623 48.8091C31.0638 49.7308 31.1906 49.8492 32.2815 50.0014L33.0003 50.1029L33.1017 50.864C33.1609 51.2868 33.2624 52.0563 33.3385 52.589C33.4823 53.6207 33.4484 53.7983 33.0933 53.7645C33.0003 53.756 32.2477 53.7222 31.4359 53.6883ZM26.9964 46.323C27.7659 46.1285 27.935 45.7395 27.453 45.2744L27.1993 45.0292H26.0831H24.9669L24.9415 45.5027C24.9077 46.12 25.0176 46.3991 25.322 46.4498C25.6349 46.5006 26.5736 46.4329 26.9964 46.323Z" fill="white"/>
<path d="M46.9191 53.4599C46.843 53.2823 46.843 53.0286 46.9022 52.5043C46.953 52.1153 47.0291 51.0499 47.0883 50.145C47.139 49.2402 47.1982 48.4792 47.2151 48.4623C47.2574 48.42 48.6527 48.4454 49.1685 48.5045C49.6082 48.5553 49.6167 48.5637 49.9126 49.088C50.327 49.8406 50.5891 50.0351 51.2825 50.1197C51.6039 50.1535 52.1704 50.1873 52.551 50.1873C53.1175 50.1873 53.2782 50.1535 53.4811 50.0098C54.0393 49.5954 53.7095 49.0035 52.7624 48.7498C52.5002 48.6737 51.6377 48.4115 50.8428 48.1494C48.1368 47.2784 47.3673 46.7287 47.1559 45.5026C46.8938 44.0143 47.9085 42.2131 49.4306 41.4605C50.0141 41.173 50.1325 41.1392 50.7075 41.1561C51.3248 41.1646 52.5002 41.4098 53.0414 41.6466C53.1767 41.7058 53.5657 41.9848 53.887 42.2723C54.2168 42.5514 54.5043 42.7882 54.5297 42.7882C54.6396 42.7882 54.6904 42.3738 54.6396 41.8833C54.5974 41.4774 54.6143 41.3591 54.7411 41.2153C54.8933 41.0462 54.9441 41.0377 55.8743 41.1138C56.407 41.1477 56.889 41.1984 56.9397 41.2153C57.0074 41.2407 57.0497 41.9172 57.0835 43.3547C57.1089 44.5048 57.1511 45.528 57.185 45.6294C57.2188 45.7394 57.1765 45.8747 57.075 46.0015C56.9144 46.2045 56.8721 46.2129 55.8658 46.196C55.1132 46.1791 54.8088 46.1453 54.7665 46.0692C54.386 45.3842 54.1069 45.0967 53.5572 44.8176C53.0245 44.547 52.9146 44.5217 52.2465 44.5217C51.7223 44.5301 51.4432 44.5724 51.2487 44.6739C50.7836 44.9276 50.6568 45.3927 50.9697 45.7309C51.384 46.1706 52.1451 46.399 54.1407 46.678C55.629 46.8894 56.2632 47.0754 56.8805 47.4898C57.4133 47.845 57.5486 48.124 57.6247 48.995C57.7262 50.2212 57.3203 51.3881 56.5169 52.1915C55.5867 53.1216 54.3606 53.5529 52.6609 53.5614C51.6631 53.5698 51.5785 53.5614 51.2233 53.3415C51.0119 53.2231 50.606 52.9018 50.3185 52.6396C49.9718 52.3267 49.7689 52.1999 49.752 52.276C49.7266 52.3352 49.6674 52.6143 49.6082 52.8933C49.4475 53.7389 49.5236 53.6967 48.1876 53.6967H47.0122L46.9191 53.4599Z" fill="white"/>
<path d="M91.1113 53.4345C90.883 53.3838 90.3841 53.1555 89.9359 52.8849C88.1855 51.8194 87.5766 51.312 87.2214 50.5932C87.0269 50.1958 86.3843 47.9126 86.2743 47.2277C86.2067 46.771 86.3335 46.1791 86.7056 45.1813C87.2975 43.5746 87.4498 43.3209 88.3377 42.4753C89.2763 41.562 89.5469 41.4436 91.1113 41.2069C92.5404 40.9954 93.4114 41.1899 94.2739 41.9087C94.5614 42.1455 94.646 42.1793 94.7475 42.0948C94.8405 42.0186 94.8574 41.9003 94.8151 41.6381C94.7305 41.0716 94.8912 40.9785 95.7791 41.0462C97.3181 41.1646 97.4027 41.1899 97.4957 41.4267C97.538 41.5451 97.5634 41.9172 97.538 42.2385C97.5211 42.5683 97.5549 43.4816 97.6226 44.268C97.6818 45.0629 97.7071 45.8831 97.6818 46.1115C97.631 46.4497 97.5887 46.5173 97.4027 46.5765C97.0306 46.678 94.6714 46.6104 94.5953 46.492C94.5614 46.4328 94.5022 46.2129 94.4769 45.9931C94.4092 45.5195 94.0625 45.0629 93.5636 44.7923C93.2761 44.6485 93.0647 44.6062 92.4897 44.6062C91.847 44.6062 91.7201 44.6316 91.3142 44.8599C90.4686 45.325 90.0204 46.2129 90.0204 47.4052C90.0289 48.4538 90.5616 49.3502 91.4326 49.7899C91.847 50.0013 92.8364 50.1281 93.293 50.0436C93.9779 49.9083 94.5699 49.1557 94.6206 48.3523C94.6375 48.1494 94.7052 47.9464 94.7728 47.8873C94.9335 47.7604 96.7939 47.7435 97.2336 47.8619C97.834 48.031 97.927 48.809 97.4873 50.1451C97.2674 50.83 97.149 51.0499 96.6416 51.6756C95.5593 53.0202 95.3309 53.1386 93.4367 53.3584C91.8893 53.536 91.7117 53.5445 91.1113 53.4345Z" fill="white"/>
<path d="M38.9618 53.3671C37.7018 53.181 37.1691 52.902 36.2558 51.9549C34.2686 49.8916 33.719 48.1073 34.3447 45.7142C34.8352 43.8369 35.7315 42.6277 37.1691 41.9089C37.8625 41.5622 40.1457 41.0633 40.7883 41.1225C41.82 41.224 43.1984 41.8666 43.9594 42.6192C44.9065 43.5579 45.5746 44.9616 45.8621 46.6275C46.1919 48.5132 45.5407 50.1622 43.7396 52.0733C43.2745 52.5722 43.08 52.7075 42.6149 52.8851C41.4733 53.3163 39.985 53.5108 38.9618 53.3671ZM40.5854 49.9677C41.1858 49.8408 41.5579 49.6379 41.9638 49.2151L42.302 48.8684V47.7099C42.302 46.5852 42.2936 46.5429 42.0483 46.0863C41.6847 45.4182 41.1942 45.1392 40.3148 45.0885C39.9512 45.0715 39.5537 45.0715 39.4354 45.1054C39.3254 45.1307 38.9618 45.3675 38.6405 45.6297C37.9386 46.1878 37.7779 46.5006 37.7779 47.3378C37.7779 48.6654 38.336 49.6548 39.224 49.9339C39.689 50.0776 40.0188 50.0861 40.5854 49.9677Z" fill="white"/>
<path d="M100.802 53.3586C100.506 53.2402 100.43 52.7751 100.455 51.2868L100.481 49.9338L101.622 49.8915C102.696 49.8493 102.764 49.8408 102.857 49.6548C102.908 49.5448 102.967 48.7077 103.001 47.5915C103.051 45.5028 103.009 45.2068 102.595 45.1053C102.316 45.0377 101.783 45.1222 101.707 45.2406C101.673 45.2914 101.622 45.7057 101.597 46.1454C101.563 46.5936 101.521 46.9826 101.487 47.008C101.462 47.0333 100.937 47.0672 100.32 47.0841C99.2208 47.1094 99.187 47.1094 98.9502 46.9065L98.705 46.6951L98.7134 44.5049C98.7219 42.9236 98.7557 42.2049 98.8403 41.9004C98.9502 41.5114 98.984 41.4776 99.2969 41.41C99.4829 41.3677 101.123 41.3254 102.933 41.3169C104.751 41.3 106.595 41.2493 107.034 41.1986C107.474 41.1478 108.514 41.0971 109.334 41.0802C110.577 41.0633 110.857 41.0802 110.958 41.1817C111.051 41.2831 111.085 41.8581 111.136 44.0652L111.195 46.8219L110.916 46.9234C110.577 47.0418 108.421 47.0503 108.345 46.9319C108.32 46.8896 108.269 46.5175 108.244 46.1201C108.176 45.1814 108.083 45.0715 107.373 45.0715C106.578 45.0715 106.569 45.0969 106.569 47.49C106.569 48.9444 106.595 49.4772 106.679 49.5702C106.755 49.6717 107.06 49.714 107.956 49.7647C108.895 49.807 109.157 49.8493 109.258 49.9592C109.351 50.0691 109.394 50.4666 109.436 51.5405C109.461 52.3354 109.453 53.0288 109.411 53.088C109.36 53.1725 108.489 53.2148 105.419 53.274C103.263 53.3163 101.386 53.3755 101.242 53.3924C101.107 53.4178 100.904 53.4009 100.802 53.3586Z" fill="white"/>
<path d="M5.36532 53.2994C5.29767 53.1726 5.61055 50.0776 5.71202 49.9254C5.74585 49.8747 6.0841 49.7901 6.47308 49.7394C7.36944 49.6125 7.64849 49.4688 7.7246 49.0967C7.79225 48.6908 7.59776 44.8771 7.49628 44.7756C7.44554 44.7333 7.08193 44.6826 6.67603 44.6657C5.69511 44.6318 5.52599 44.598 5.60209 44.412C5.63592 44.3359 5.6782 43.6763 5.69511 42.9575C5.73739 41.4608 5.77967 41.0971 5.92343 41.0971C5.98262 41.0971 7.85144 41.0887 10.0839 41.0802C13.7539 41.0549 14.1936 41.0718 14.6841 41.2071C16.0962 41.5961 17.1194 42.3994 17.7029 43.5833C18.0073 44.2006 18.0327 44.319 18.0327 44.9363C18.0243 45.4183 17.9651 45.7903 17.8298 46.1878C17.6606 46.6867 17.5592 46.8304 17.0264 47.3294C16.6882 47.6422 16.2231 48.0059 15.9948 48.1327C15.4028 48.454 14.4219 48.6316 12.9167 48.6824C12.1979 48.7077 11.5553 48.7669 11.5045 48.8176C11.3523 48.9276 11.3692 49.4265 11.5214 49.5787C11.7159 49.7817 12.1556 49.8916 13.0013 49.9592C13.7877 50.0184 13.7962 50.0184 13.8723 50.2721C13.9484 50.5427 13.9653 52.7836 13.8807 53.0373C13.8553 53.1219 13.7539 53.2064 13.6524 53.2233C13.2972 53.2994 5.4076 53.3671 5.36532 53.2994ZM13.8215 46.5683C14.2274 46.3569 14.3543 46.1878 14.3543 45.8833C14.3543 45.2491 13.7962 44.9616 12.3501 44.8601C11.6314 44.801 11.5722 44.8094 11.4876 44.9701C11.3692 45.1899 11.3692 46.0356 11.4876 46.4584L11.5806 46.7797L12.5615 46.7459C13.2803 46.7205 13.627 46.6782 13.8215 46.5683Z" fill="white"/>
<path d="M58.5549 53.2994C58.4872 53.1726 58.8001 50.0776 58.9016 49.9254C58.9354 49.8747 59.2737 49.7901 59.6627 49.7394C60.559 49.6125 60.8381 49.4688 60.9142 49.0967C60.9818 48.6908 60.7873 44.8771 60.6859 44.7756C60.6351 44.7333 60.2715 44.6826 59.8656 44.6657C58.8847 44.6318 58.7156 44.598 58.7917 44.412C58.8255 44.3359 58.8678 43.6763 58.8847 42.9575C58.927 41.4608 58.9692 41.0971 59.113 41.0971C59.1722 41.0971 61.041 41.0887 63.2735 41.0802C66.9434 41.0549 67.3832 41.0718 67.8736 41.2071C69.2858 41.5961 70.309 42.3994 70.8925 43.5833C71.1969 44.2006 71.2223 44.319 71.2223 44.9363C71.2138 45.4183 71.1546 45.7903 71.0193 46.1878C70.8502 46.6867 70.7487 46.8304 70.216 47.3294C69.8777 47.6422 69.4127 48.0059 69.1843 48.1327C68.5924 48.454 67.6115 48.6316 66.1063 48.6824C65.3875 48.7077 64.7448 48.7669 64.6941 48.8176C64.5419 48.9276 64.5588 49.4265 64.711 49.5787C64.9055 49.7817 65.3452 49.8916 66.1908 49.9592C66.9773 50.0184 66.9857 50.0184 67.0618 50.2721C67.1379 50.5427 67.1549 52.7836 67.0703 53.0373C67.0449 53.1219 66.9434 53.2064 66.842 53.2233C66.4868 53.2994 58.5972 53.3671 58.5549 53.2994ZM67.0111 46.5683C67.417 46.3569 67.5438 46.1878 67.5438 45.8833C67.5438 45.2491 66.9857 44.9616 65.5397 44.8601C64.8209 44.801 64.7617 44.8094 64.6772 44.9701C64.5588 45.1899 64.5588 46.0356 64.6772 46.4584L64.7702 46.7797L65.7511 46.7459C66.4699 46.7205 66.8166 46.6782 67.0111 46.5683Z" fill="white"/>
<path d="M84.2872 53.2742C84.1265 53.2319 82.1478 53.1558 79.89 53.105C76.7781 53.0289 75.3828 53.0289 74.1059 53.0966C73.1842 53.1558 72.4062 53.1727 72.3809 53.1473C72.3047 53.0712 72.0172 50.2891 72.068 50.0862C72.1356 49.8156 72.3555 49.7226 73.1757 49.6295C73.8861 49.5534 74.275 49.4181 74.4526 49.1983C74.5372 49.0968 74.5203 48.674 74.2666 45.6044C74.1989 44.7841 74.2328 44.818 73.0827 44.7419L72.3301 44.6911L72.2625 44.3952C72.1779 44.0062 72.2794 41.6807 72.3893 41.5454C72.4485 41.4608 72.8882 41.4355 74.0467 41.427C74.9093 41.427 76.3806 41.3932 77.3108 41.3425C78.241 41.3002 80.262 41.2664 81.7926 41.2664C84.0589 41.2748 84.6085 41.3002 84.7015 41.3932C84.803 41.4947 84.803 41.6892 84.7269 42.6785C84.6677 43.3297 84.6254 44.3867 84.6254 45.0378C84.6254 46.5853 84.71 46.5092 83.0864 46.5092H81.8603L81.8011 45.9342C81.7334 45.2323 81.5305 44.8011 81.243 44.7249C80.9554 44.6488 79.1035 44.6488 78.5539 44.7249C77.9789 44.8095 77.9027 44.9025 77.9197 45.4268C77.945 45.968 78.0465 46.0864 78.4862 46.0864C78.9429 46.0864 79.0613 46.0018 79.1204 45.6128L79.1712 45.2831L79.9153 45.2577C81.0146 45.2239 80.9554 45.1478 81.0062 46.8221C81.0315 47.6001 81.0315 48.3865 81.0062 48.5641L80.9724 48.8854L80.076 48.86L79.1796 48.8347L79.0782 48.4288C79.019 48.2089 78.926 47.9721 78.8752 47.9045C78.7484 47.7523 78.1649 47.7353 78.055 47.8876C78.0042 47.9383 77.9704 48.2681 77.9789 48.6063C78.0042 49.5027 78.1057 49.5788 79.2557 49.6211C80.0253 49.6549 80.9724 49.5788 81.7672 49.4181C82.0294 49.3674 82.1731 49.0122 82.1731 48.4288C82.1731 47.9383 82.3761 47.5409 82.6551 47.4732C82.782 47.4394 83.3063 47.4056 83.8221 47.4056L84.7523 47.3971L84.8115 48.6233C84.8368 49.2997 84.9299 50.5851 85.006 51.4899C85.1497 53.0712 85.1497 53.1389 84.9975 53.2488C84.8284 53.3672 84.7269 53.3756 84.2872 53.2742Z" fill="white"/>
<path d="M54.4366 31.998C54.4366 31.7613 54.5128 31.2877 54.6058 30.941C54.6988 30.5943 54.9863 29.5119 55.2315 28.5394C55.722 26.6622 55.8742 26.1886 55.9334 26.3577C56.0349 26.6453 54.7918 32.0657 54.5719 32.294C54.4451 32.4124 54.4366 32.387 54.4366 31.998Z" fill="white"/>
<path d="M59.1045 31.009C58.8255 30.6792 58.4703 29.081 58.6394 28.9118C58.8086 28.7427 58.9439 29.1063 59.0031 29.8843C59.0369 30.3156 59.113 30.7553 59.1722 30.8568C59.2821 31.0766 59.2398 31.1781 59.1045 31.009Z" fill="white"/>
<path d="M60.3646 30.4509C60.2885 30.4002 60.2208 30.1127 60.1785 29.673C60.1447 29.284 60.0263 28.7005 59.9079 28.3707C59.6881 27.7281 59.6965 27.5674 59.9333 27.5674C60.094 27.5674 60.187 27.8633 60.187 28.3623C60.187 28.506 60.28 29.0134 60.3984 29.4954C60.669 30.6032 60.669 30.637 60.3646 30.4509Z" fill="white"/>
<path d="M62.2587 30.1715C62.2418 30.1124 62.0896 29.6642 61.9289 29.1822C61.7006 28.4972 61.5569 28.2266 61.3116 27.9729C61.0157 27.6685 61.0072 27.6431 61.151 27.4994C61.2863 27.3641 61.3032 27.3641 61.4216 27.5248C61.7344 27.9307 62.5547 29.8756 62.5547 30.1969C62.5547 30.3153 62.301 30.2899 62.2587 30.1715Z" fill="white"/>
<path d="M64.9479 30.0026C64.7111 29.7489 63.8232 28.2775 63.0791 26.916C62.8592 26.5017 62.8254 26.3833 62.9268 26.3833C62.9945 26.3833 63.096 26.4679 63.1552 26.5609C63.2059 26.6624 63.4511 27.026 63.6964 27.3642C64.2798 28.176 65.3115 29.8419 65.3876 30.0871C65.4722 30.3662 65.2608 30.3239 64.9479 30.0026Z" fill="white"/>
<path d="M49.735 29.8418C49.7942 29.5205 50.0225 29.1907 51.2741 27.5925C52.162 26.4678 52.3734 26.2395 52.4664 26.324C52.5256 26.3917 50.8935 28.844 50.3185 29.5458C49.8196 30.1631 49.6505 30.2477 49.735 29.8418Z" fill="white"/>
<path d="M53.0584 29.9604C53.0415 29.9265 53.1768 29.5122 53.3713 29.0471C53.6419 28.3706 53.718 28.0915 53.718 27.6687C53.7265 27.1614 53.8449 26.9077 54.0309 27.0261C54.2254 27.1444 53.9802 28.2776 53.532 29.3769C53.3037 29.935 53.1515 30.121 53.0584 29.9604Z" fill="white"/>
<path d="M57.3795 29.8082C57.3542 29.7828 57.3542 29.2924 57.3795 28.7258C57.4134 27.8041 57.3964 27.635 57.2442 27.2967C57.1258 27.0177 57.1005 26.8824 57.1681 26.8147C57.4895 26.4934 57.6501 27.1107 57.6501 28.7089C57.6501 29.6053 57.6248 29.8505 57.5402 29.8505C57.4726 29.8505 57.4049 29.8336 57.3795 29.8082Z" fill="white"/>
<path d="M68.2626 25.8844C68.2119 25.8421 67.8652 25.6307 67.4846 25.4108C66.9603 25.1064 66.6644 24.9965 66.3008 24.9542C65.8864 24.9119 65.8103 24.8781 65.8103 24.7343C65.8103 24.3876 66.5544 24.6075 67.9413 25.3685C68.6093 25.7322 68.8207 25.9605 68.4909 25.9605C68.4064 25.9605 68.3049 25.9266 68.2626 25.8844Z" fill="white"/>
<path d="M47.5449 25.7916C47.4603 25.6648 47.5618 25.5633 48.0776 25.2335C48.8387 24.7515 49.27 24.3625 49.4475 24.0073C49.6251 23.6691 49.8365 23.5761 49.9295 23.8129C49.9972 23.9904 49.3292 24.6669 48.4751 25.2758C47.6041 25.8931 47.6041 25.8931 47.5449 25.7916Z" fill="white"/>
<path d="M69.9115 24.4045C66.5966 23.2207 65.4297 22.7556 65.4297 22.6034C65.4297 22.5188 65.4804 22.4934 65.5819 22.5357C65.658 22.5611 66.2415 22.7387 66.8672 22.9332C68.0173 23.2714 70.3258 24.0494 70.9939 24.3115C71.1884 24.3876 71.349 24.506 71.349 24.5737C71.349 24.7766 70.7656 24.709 69.9115 24.4045Z" fill="white"/>
<path d="M53.4136 24.1341C53.3206 24.0158 53.3544 23.6606 53.6757 21.7833C53.8871 20.5741 54.0478 19.4917 54.0393 19.3902C54.0393 19.2718 53.4558 18.6461 52.3735 17.589C50.6907 15.9401 50.5385 15.7287 50.8344 15.4835C50.9021 15.4243 51.9676 15.2298 53.2022 15.0522C54.4368 14.8746 55.4938 14.697 55.5361 14.6717C55.5868 14.6378 56.1026 13.6654 56.6861 12.5069L57.7431 10.3928L58.0137 10.4182C58.2759 10.4436 58.3097 10.4943 59.3075 12.5238C59.8741 13.6738 60.3815 14.6378 60.4322 14.6632C60.4745 14.697 61.5315 14.8662 62.7661 15.0522C64.0092 15.2298 65.0747 15.4243 65.1423 15.4835C65.4298 15.7202 65.2692 15.9401 63.6456 17.5468C62.7577 18.4347 62.0051 19.2126 61.9628 19.2803C61.929 19.3564 62.0558 20.3204 62.2672 21.5212C62.4702 22.6881 62.6393 23.7283 62.6393 23.8551C62.6393 24.1088 62.4955 24.2694 62.2757 24.2694C62.1911 24.2694 61.2186 23.7959 60.1109 23.2124C59.0031 22.6289 58.0476 22.1554 57.9884 22.1554C57.9292 22.1554 56.9821 22.6289 55.8743 23.2124C54.7666 23.7959 53.7856 24.2694 53.6926 24.2694C53.5996 24.2694 53.4728 24.2103 53.4136 24.1341Z" fill="white"/>
<path d="M46.7416 23.9393C46.7416 23.8294 46.9868 23.5926 47.1052 23.5926C47.2912 23.5926 48.2721 23.0937 48.7372 22.7555C49.2023 22.4257 49.4814 22.3834 49.4306 22.6455C49.4137 22.7216 49.1347 22.8992 48.7711 23.0514C48.4244 23.1952 47.8747 23.4742 47.5449 23.6687C46.9614 24.0154 46.7416 24.0831 46.7416 23.9393Z" fill="white"/>
<path d="M45.9129 22.7304C46.0482 22.5275 47.2151 21.8679 47.6126 21.7749C47.7902 21.7241 47.8409 21.7411 47.8409 21.851C47.8409 22.0117 47.6464 22.1131 46.9699 22.3415C46.6824 22.4345 46.3272 22.6036 46.175 22.7135C45.8368 22.9672 45.7522 22.9757 45.9129 22.7304Z" fill="white"/>
<path d="M68.1357 21.5465C67.4846 21.4112 67.0364 21.3943 66.2754 21.4958C66.1062 21.5127 66.0555 21.4789 66.0386 21.3351C66.0132 21.1491 66.0301 21.1406 66.7489 21.1406C67.1548 21.1406 67.8482 21.1998 68.2795 21.2844C68.9391 21.3943 69.0659 21.445 69.0659 21.5803C69.0659 21.7579 69.0744 21.7579 68.1357 21.5465Z" fill="white"/>
<path d="M46.5724 20.8617C46.5724 20.7856 46.9275 20.6503 47.604 20.4727C48.382 20.2782 48.7203 20.1429 48.9655 19.9484C49.2868 19.6863 49.5321 19.6693 49.5321 19.9061C49.5321 20.0837 48.6019 20.5065 47.6632 20.7602C46.7584 20.997 46.5724 21.0139 46.5724 20.8617Z" fill="white"/>
<path d="M68.3472 20.2864C68.2372 20.1173 68.4148 20.0835 69.5479 20.0835H70.6895L70.3597 20.2273C69.9877 20.3964 68.4402 20.4471 68.3472 20.2864Z" fill="white"/>
<path d="M43.2323 19.1109C43.1477 18.9672 43.7735 18.7558 44.5007 18.6796C45.7438 18.5528 48.4667 18.3499 48.9571 18.3499C49.4899 18.3499 49.6928 18.4852 49.2616 18.5528C45.5577 19.1109 43.3591 19.3139 43.2323 19.1109Z" fill="white"/>
<path d="M67.1211 18.7813C67.1211 18.6882 67.1465 18.6037 67.1887 18.6037C69.7171 18.536 70.0808 18.536 70.0808 18.6121C70.0808 18.7474 69.9116 18.7728 68.8969 18.8066C68.3642 18.8235 67.7469 18.8658 67.527 18.8996C67.1465 18.9588 67.1211 18.9504 67.1211 18.7813Z" fill="white"/>
<path d="M67.1547 17.4876C67.0194 17.2761 67.8904 16.9041 69.0405 16.7011C69.4464 16.625 69.8692 16.5489 69.9791 16.5235C70.106 16.4982 70.1651 16.5235 70.1651 16.6081C70.1651 16.7857 70.1144 16.8026 69.1927 16.9548C68.3724 17.0817 67.7044 17.31 67.5945 17.496C67.5184 17.6144 67.2308 17.6144 67.1547 17.4876Z" fill="white"/>
<path d="M45.5239 16.9293C45.3378 16.8955 45.1772 16.8193 45.1518 16.7602C45.1264 16.6671 45.3294 16.6587 46.2849 16.701C47.2828 16.7517 47.5111 16.7432 47.7986 16.6249C48.1115 16.4896 48.1369 16.4896 48.2383 16.6333C48.3144 16.7348 48.3229 16.8024 48.2637 16.8616C48.1622 16.9631 46.0482 17.0138 45.5239 16.9293Z" fill="white"/>
<path d="M68.9813 15.6102C68.9813 15.4411 69.235 15.3143 69.8608 15.162C70.1398 15.0944 70.5457 14.9422 70.7571 14.8238C71.0615 14.6378 71.1123 14.6293 71.0108 14.7646C70.8163 15.0183 70.588 15.162 70.013 15.4073C69.2773 15.7202 68.9813 15.7794 68.9813 15.6102Z" fill="white"/>
<path d="M48.4328 13.2256C47.6633 12.9635 46.4879 12.3462 46.4879 12.2024C46.4879 12.0249 46.6148 12.0671 47.5027 12.5322C48.1707 12.8789 48.4413 12.9804 48.8472 13.0058C49.2446 13.0311 49.3546 13.0734 49.3884 13.2003C49.473 13.5131 49.2954 13.5216 48.4328 13.2256Z" fill="white"/>
<path d="M68.0511 12.5575C67.9074 12.3799 67.992 12.3122 68.5585 12.1346C68.8122 12.0585 69.3957 11.8218 69.8439 11.6019C70.3005 11.3905 70.6979 11.2467 70.7318 11.2806C70.8671 11.4159 70.5965 11.6188 70.0975 11.7541C69.81 11.8302 69.2688 12.0754 68.8968 12.2953C68.5247 12.5067 68.2118 12.6843 68.1864 12.6843C68.1695 12.6843 68.1103 12.6251 68.0511 12.5575Z" fill="white"/>
<path d="M49.6167 12.0838C49.4053 11.8978 48.9487 11.568 48.602 11.3566C47.7648 10.8323 47.638 10.7308 47.7733 10.6378C47.9424 10.5363 47.9762 10.5448 48.4751 10.993C48.7457 11.2213 49.2362 11.5511 49.5829 11.7287C50.1833 12.0416 50.344 12.1938 50.2425 12.3544C50.1579 12.4982 49.9973 12.4305 49.6167 12.0838Z" fill="white"/>
<path d="M65.6327 12.0838C65.489 11.8555 67.9666 10.029 68.1611 10.2235C68.2795 10.3418 68.178 10.4518 67.603 10.7647C66.8166 11.2128 66.3684 11.5595 66.1739 11.8893C66.0048 12.1768 65.7511 12.2699 65.6327 12.0838Z" fill="white"/>
<path d="M63.7132 11.4411C63.6709 11.365 67.121 8.03326 67.7637 7.52588C68.2203 7.17072 68.3894 7.11153 68.3894 7.29757C68.3894 7.53434 67.7975 8.1601 66.7405 9.05646C66.1401 9.56383 65.2437 10.3249 64.7533 10.7392C63.8738 11.5003 63.7808 11.5595 63.7132 11.4411Z" fill="white"/>
<path d="M51.9336 10.7985C51.3416 10.3673 50.2592 9.17494 50.3354 9.0481C50.4284 8.89589 50.5045 8.95508 51.1387 9.68232C51.5615 10.1643 51.8913 10.4603 52.145 10.5871C52.6608 10.8239 52.7454 10.9 52.6862 11.0438C52.6185 11.2383 52.4579 11.1875 51.9336 10.7985Z" fill="white"/>
<path d="M49.7688 10.5025C49.642 10.418 49.4052 10.215 49.2361 10.0374C49.067 9.86832 48.7541 9.63155 48.5342 9.51316C48.2298 9.3525 48.1791 9.31021 48.3313 9.30176C48.5934 9.30176 48.9486 9.48779 49.642 10.0036C50.1663 10.3842 50.2847 10.5617 50.0733 10.6294C50.031 10.6378 49.8957 10.5871 49.7688 10.5025Z" fill="white"/>
<path d="M52.8723 9.20067C51.8068 7.74621 50.6991 6.11416 50.4539 5.63216C50.3355 5.42075 50.3101 5.277 50.3608 5.22626C50.4961 5.09096 51.1388 5.79282 51.6462 6.63844C51.8914 7.06125 52.3565 7.78003 52.6609 8.24512C53.6841 9.78415 54.0646 10.4945 53.8702 10.4776C53.8279 10.4776 53.3882 9.90254 52.8723 9.20067Z" fill="white"/>
<path d="M62.8338 10.3337C62.6816 10.2322 63.0283 9.55573 63.6372 8.75239C64.4405 7.71228 64.4912 7.65309 64.6012 7.76302C64.6688 7.83067 64.6265 7.9406 64.449 8.16046C63.5441 9.28513 63.3074 9.62338 63.2651 9.89398C63.1805 10.3337 63.0537 10.469 62.8338 10.3337Z" fill="white"/>
<path d="M54.4874 8.36336C54.1661 7.98284 53.8701 7.4501 53.5403 6.67213C53.219 5.91107 53.2021 5.83496 53.3712 5.83496C53.4389 5.83496 53.608 6.11402 53.7602 6.49454C54.1746 7.48392 54.3183 7.73761 54.6481 8.05049C54.8595 8.24498 54.9356 8.38028 54.8933 8.48175C54.8172 8.6847 54.7327 8.65933 54.4874 8.36336Z" fill="white"/>
<path d="M61.2017 8.02486C61.2017 7.96566 61.3539 7.6697 61.5399 7.36527C61.7175 7.06085 61.9881 6.51965 62.1318 6.17295C62.4532 5.42035 62.6054 5.2174 62.6899 5.45417C62.7238 5.53873 62.6984 5.68249 62.6392 5.78396C62.5716 5.87698 62.4194 6.13067 62.2841 6.34207C62.1488 6.55348 61.9374 7.03548 61.8105 7.3991C61.616 7.9403 61.5315 8.08405 61.3877 8.10096C61.2778 8.11788 61.2017 8.08405 61.2017 8.02486Z" fill="white"/>
<path d="M58.1152 7.67823C58.0814 7.55985 58.0645 7.42455 57.9038 5.05681C57.8277 3.97442 57.8193 3.40785 57.8784 3.28101L57.963 3.09497L58.1237 3.3402C58.2674 3.56006 58.2843 3.78838 58.3097 5.68257C58.3351 7.17932 58.3097 7.77971 58.2421 7.77971C58.1913 7.77971 58.1321 7.72897 58.1152 7.67823Z" fill="white"/>
<path d="M62.9775 7.65274C62.9775 7.47516 63.0959 7.25529 63.4426 6.79866C63.5948 6.59571 63.7724 6.29129 63.8232 6.11371C63.9838 5.62325 64.1107 5.5556 64.043 6.00378C63.9246 6.74792 62.9775 8.22776 62.9775 7.65274Z" fill="white"/>
</svg>
