<svg width="124" height="70" fill="none" xmlns="http://www.w3.org/2000/svg"><path fill-rule="evenodd" clip-rule="evenodd" d="M56.58.07c0 .041-.245.07-.595.07-.481 0-.594.02-.594.105 0 .08-.086.105-.35.105-.303 0-.35.019-.35.14 0 .123-.046.14-.384.14-.295 0-.385.024-.385.105 0 .078-.082.105-.317.105-.214 0-.33.033-.356.103-.022.057-.147.123-.278.148-.135.025-.238.087-.238.142 0 .061-.078.097-.212.097-.124 0-.229.044-.252.105-.022.058-.119.105-.214.105-.115 0-.186.047-.21.14-.021.077-.096.14-.169.14-.073 0-.132.047-.132.105 0 .073-.073.105-.245.105-.198 0-.244.027-.244.14 0 .078-.047.14-.105.14a.105.105 0 0 0-.105.105c0 .073-.074.105-.245.105-.198 0-.245.027-.245.14 0 .093-.046.14-.14.14-.077 0-.14.047-.14.105a.105.105 0 0 1-.104.105.105.105 0 0 0-.105.105.105.105 0 0 1-.105.105c-.058 0-.105.062-.105.14 0 .113-.047.14-.245.14-.134 0-.245.03-.245.067 0 .087-.336.423-.422.423-.037 0-.067.11-.067.245 0 .198-.027.245-.14.245-.078 0-.14.047-.14.105a.106.106 0 0 1-.105.105c-.058 0-.105.044-.105.098 0 .053-.047.115-.105.137a.172.172 0 0 0-.105.148c0 .06-.06.107-.14.107-.113 0-.14.047-.14.245 0 .171-.031.245-.104.245a.105.105 0 0 0-.105.105c0 .058-.062.105-.14.105-.113 0-.14.047-.14.245 0 .171-.032.245-.105.245-.058 0-.105.062-.105.14 0 .079-.046.14-.106.14-.063 0-.124.086-.148.206-.023.112-.085.222-.138.242-.054.021-.097.133-.097.25 0 .139-.035.212-.102.212-.06 0-.12.097-.147.24-.024.132-.089.257-.143.278-.064.025-.098.148-.098.357 0 .22-.033.332-.105.36-.073.028-.105.142-.105.383 0 .295-.019.342-.14.342-.126 0-.14.047-.14.49 0 .389-.021.49-.104.49-.085 0-.105.113-.105.595 0 .548-.011.595-.14.595-.138 0-.14.047-.14 2.625s.002 2.625.14 2.625c.129 0 .14.047.14.595 0 .482.02.595.105.595.083 0 .105.101.105.49 0 .443.013.49.14.49.12 0 .14.047.14.352 0 .249.03.364.104.393.072.027.105.139.105.35 0 .2.035.323.098.347.054.02.119.146.143.278.027.143.087.24.147.24.066 0 .102.072.102.203 0 .11.042.218.095.238.052.02.114.134.138.253.026.128.086.216.15.216.06 0 .106.061.106.14 0 .078.047.14.105.14.07 0 .105.07.105.217 0 .157.038.226.14.253.077.02.14.08.14.133 0 .053.047.097.105.097.073 0 .105.074.105.245 0 .199.026.245.14.245.077 0 .14.047.14.105 0 .058.047.105.104.105.059 0 .105.062.105.14 0 .078.047.14.105.14.058 0 .105.062.105.14 0 .077.063.203.14.28.077.077.14.172.14.21 0 .039.03.07.066.07.087 0 .423.336.423.423 0 .037.048.067.105.067.058 0 .105.044.105.097 0 .056.105.117.245.143.146.028.245.087.245.148 0 .056.047.102.105.102.057 0 .105.047.105.105 0 .058.062.105.14.105.093 0 .14.047.14.14 0 .08.046.14.106.14s.126.047.148.105c.022.058.126.105.234.105.136 0 .206.043.231.14.027.102.095.14.253.14.146 0 .216.034.216.105 0 .058.06.105.132.105.073 0 .148.063.168.14.025.093.096.14.21.14.096 0 .193.047.215.105.023.061.128.105.252.105.142 0 .212.035.212.105 0 .073.073.105.237.105.178 0 .245.035.273.14.03.114.096.14.35.14.215 0 .327.033.354.105.029.074.144.105.393.105.305 0 .351.018.351.14 0 .121.047.14.35.14.264 0 .35.026.35.105 0 .085.112.105.586.105.528 0 .59.014.623.14.057.22 6.196.22 6.254 0 .033-.125.095-.14.59-.14.427 0 .563-.024.594-.105.028-.074.142-.105.383-.105.295 0 .341-.02.341-.14 0-.121.047-.14.35-.14.264 0 .35-.026.35-.105 0-.08.085-.105.345-.105.284 0 .353-.025.39-.14.032-.104.105-.14.284-.14.166 0 .24-.032.24-.105 0-.07.07-.105.21-.105.14 0 .21-.035.21-.105 0-.07.07-.105.216-.105.157 0 .226-.038.253-.14.02-.077.095-.14.168-.14.073 0 .132-.047.132-.105 0-.07.07-.105.216-.105.158 0 .227-.038.253-.14.02-.077.08-.14.133-.14.053 0 .097-.047.097-.105 0-.07.07-.105.217-.105.157 0 .226-.038.253-.14.02-.077.08-.14.133-.14.053 0 .097-.047.097-.105 0-.058.062-.105.14-.105.077 0 .14-.047.14-.105 0-.058.047-.105.104-.105.058 0 .105-.062.105-.14 0-.093.047-.14.14-.14.078 0 .14-.047.14-.105 0-.058.047-.105.105-.105.058 0 .104-.062.104-.14 0-.078.047-.14.106-.14a.105.105 0 0 0 .104-.105c0-.058.05-.105.112-.105.061 0 .128-.063.148-.14.02-.077.08-.14.133-.14a.097.097 0 0 0 .097-.097c0-.053.063-.113.14-.133.102-.027.14-.096.14-.253 0-.146.034-.217.105-.217.057 0 .105-.04.105-.088 0-.048.063-.128.14-.176.079-.05.14-.163.14-.262 0-.108.039-.174.104-.174.058 0 .105-.062.105-.14 0-.077.046-.14.102-.14.06 0 .12-.098.147-.245.027-.14.088-.245.144-.245.073 0 .097-.113.097-.455 0-.399-.016-.455-.132-.455-.073 0-.148-.063-.168-.14-.025-.095-.096-.14-.218-.14-.115 0-.182-.039-.182-.105 0-.058-.059-.105-.131-.105-.073 0-.148-.062-.169-.14-.026-.102-.095-.14-.253-.14-.145 0-.216-.034-.216-.105a.105.105 0 0 0-.105-.105.105.105 0 0 1-.105-.105c0-.058-.062-.105-.14-.105-.093 0-.14-.047-.14-.14 0-.109-.046-.14-.21-.14-.14 0-.209-.035-.209-.105 0-.058-.062-.105-.14-.105-.093 0-.14-.047-.14-.14 0-.113-.046-.14-.245-.14-.17 0-.244-.032-.244-.105 0-.058-.044-.105-.097-.105-.053 0-.113-.063-.133-.14-.02-.077-.087-.14-.149-.14-.061 0-.11-.047-.11-.105 0-.07-.071-.105-.21-.105-.136 0-.21-.035-.21-.1 0-.056-.06-.12-.134-.143-.073-.023-.151-.089-.173-.145-.022-.058-.13-.102-.251-.102-.142 0-.212-.035-.212-.105 0-.058-.043-.105-.097-.105-.053 0-.113-.063-.133-.14-.027-.102-.096-.14-.253-.14-.146 0-.217-.034-.217-.105a.105.105 0 0 0-.104-.105.106.106 0 0 1-.105-.107c0-.059-.055-.128-.123-.152a.402.402 0 0 1-.178-.138c-.078-.13-.678-.126-.678.004 0 .053-.063.113-.14.133-.102.027-.14.096-.14.253 0 .146-.034.217-.105.217-.073 0-.105.074-.105.245 0 .178-.03.245-.111.245-.062 0-.128.063-.148.14-.02.077-.08.14-.134.14-.053 0-.097.047-.097.105a.105.105 0 0 1-.104.105c-.073 0-.105.074-.105.245 0 .198-.027.245-.14.245-.078 0-.14.047-.14.105 0 .065-.066.105-.174.105a.333.333 0 0 0-.262.14c-.048.077-.127.14-.175.14-.049 0-.088.047-.088.105 0 .058-.05.105-.112.105-.061 0-.128.063-.148.14-.026.1-.095.14-.238.14-.133 0-.202.036-.202.105 0 .073-.074.105-.245.105-.17 0-.244.032-.244.105 0 .078-.084.105-.333.106-.431.001-.647.062-.647.182 0 .181-2.84.139-2.887-.043-.03-.117-.096-.14-.393-.14-.27 0-.356-.025-.356-.105 0-.073-.074-.105-.245-.105-.17 0-.245-.032-.245-.105 0-.069-.069-.105-.202-.105-.142 0-.212-.04-.238-.14-.026-.102-.095-.14-.252-.14-.146 0-.217-.034-.217-.105 0-.058-.062-.105-.14-.105-.093 0-.14-.047-.14-.14 0-.078-.046-.14-.105-.14a.106.106 0 0 1-.105-.105c0-.058-.062-.105-.14-.105-.093 0-.14-.047-.14-.14 0-.078-.046-.14-.104-.14a.105.105 0 0 1-.105-.105c0-.058-.044-.105-.097-.105-.056 0-.117-.105-.143-.245-.028-.147-.087-.245-.148-.245a.104.104 0 0 1-.102-.105.105.105 0 0 0-.105-.105c-.073 0-.105-.074-.105-.245 0-.198-.026-.245-.14-.245-.113 0-.14-.047-.14-.245 0-.171-.03-.245-.104-.245-.083 0-.105-.098-.105-.462 0-.402-.018-.466-.14-.498-.134-.035-.14-.095-.14-1.455s.006-1.42.14-1.455c.117-.03.14-.096.14-.393 0-.27.025-.357.105-.357.08 0 .105-.086.105-.35 0-.303.018-.35.14-.35.113 0 .14-.047.14-.245 0-.171.031-.245.105-.245a.105.105 0 0 0 .104-.105c0-.058.046-.105.102-.105.061 0 .12-.098.148-.245.026-.14.087-.245.143-.245.053 0 .097-.047.097-.105 0-.058.047-.105.105-.105.058 0 .105-.062.105-.14 0-.093.046-.14.14-.14.077 0 .14-.047.14-.105 0-.058.047-.105.104-.105.059 0 .105-.062.105-.14 0-.113.047-.14.245-.14.162 0 .245-.033.245-.097 0-.053.063-.113.14-.133.077-.02.14-.087.14-.149 0-.077.064-.11.21-.11.14 0 .21-.036.21-.106 0-.073.073-.105.244-.105.171 0 .245-.032.245-.105 0-.08.086-.105.356-.105.297 0 .362-.023.393-.14.047-.181 2.678-.224 2.678-.043 0 .117.213.18.612.182.217 0 .297.03.297.106 0 .073.074.105.245.105.17 0 .245.032.245.105 0 .058.059.105.131.105.073 0 .148.062.168.14.025.095.096.14.219.14.114 0 .18.039.18.105 0 .058.063.105.14.105.094 0 .14.047.14.14 0 .078.047.14.106.14.057 0 .104.047.104.105 0 .058.063.105.14.105.08 0 .14.047.14.107s.047.126.105.148c.058.022.105.084.105.137 0 .054.063.098.14.098.109 0 .14.047.14.212 0 .124.043.23.105.253.057.022.104.084.104.137 0 .054.044.098.098.098.055 0 .116.105.143.245.027.147.087.245.147.245.07 0 .102.077.102.245v.245h.35c.251 0 .35-.027.35-.097 0-.053.063-.113.14-.133.076-.02.14-.087.14-.149 0-.06.046-.11.104-.11a.105.105 0 0 0 .105-.106c0-.058.062-.105.14-.105.093 0 .14-.046.14-.14 0-.078.046-.14.105-.14a.105.105 0 0 0 .105-.105c0-.07.07-.105.216-.105.157 0 .226-.038.253-.14.02-.077.08-.14.133-.14.053 0 .097-.047.097-.105 0-.058.03-.105.066-.105.097 0 .424-.317.424-.41 0-.044.048-.08.107-.08a.172.172 0 0 0 .147-.105c.022-.058.084-.105.138-.105.053 0 .097-.063.097-.14 0-.078.047-.14.105-.14a.105.105 0 0 0 .105-.105c0-.058.062-.105.14-.105.093 0 .14-.047.14-.14 0-.078.046-.14.105-.14a.105.105 0 0 0 .105-.105c0-.058.062-.105.14-.105.077 0 .14-.047.14-.105 0-.058.047-.105.104-.105.058 0 .105-.062.105-.14 0-.105.047-.14.184-.14.177 0 .515-.278.515-.424 0-.036.063-.066.14-.066.078 0 .14-.047.14-.105 0-.058.047-.105.105-.105.058 0 .105-.062.105-.14 0-.093.047-.14.14-.14.078 0 .14-.047.14-.105 0-.058.047-.105.105-.105a.105.105 0 0 0 .105-.105c0-.058.05-.105.111-.105s.128-.063.148-.14c.02-.077.08-.14.133-.14.135 0 .128-.412-.008-.465-.06-.023-.105-.128-.105-.249 0-.15-.04-.22-.14-.246-.099-.026-.14-.095-.14-.238 0-.133-.035-.202-.104-.202-.059 0-.105-.062-.105-.14 0-.093-.047-.14-.14-.14-.078 0-.14-.047-.14-.105a.105.105 0 0 0-.105-.105c-.07 0-.105-.07-.105-.217 0-.157-.038-.226-.14-.253-.077-.02-.14-.095-.14-.168 0-.073-.047-.132-.104-.132a.105.105 0 0 1-.106-.105c0-.058-.03-.105-.066-.105-.087 0-.423-.336-.423-.423 0-.037-.047-.067-.105-.067a.105.105 0 0 1-.105-.105c0-.058-.062-.105-.14-.105-.093 0-.14-.047-.14-.14 0-.077-.044-.14-.097-.14-.053 0-.115-.047-.138-.105-.023-.061-.128-.105-.252-.105-.165 0-.212-.03-.212-.14 0-.077-.044-.14-.097-.14-.054 0-.116-.047-.138-.105-.024-.061-.128-.105-.252-.105-.148 0-.212-.034-.212-.112 0-.061-.063-.127-.14-.148-.077-.02-.14-.08-.14-.133 0-.064-.083-.097-.245-.097-.165 0-.245-.032-.245-.1 0-.054-.096-.12-.214-.146-.118-.026-.232-.091-.252-.146-.026-.066-.15-.098-.38-.098-.258 0-.342-.026-.342-.105 0-.08-.086-.105-.35-.105-.303 0-.35-.019-.35-.14 0-.12-.047-.14-.342-.14-.24 0-.354-.031-.383-.105-.03-.082-.17-.105-.637-.105-.35 0-.596-.029-.596-.07 0-.046-1.166-.07-3.357-.07-2.191 0-3.357.024-3.357.07zM1.081.927c-.018.049-.025 6.325-.015 13.948l.018 13.86 15.631.036v-7.7h-6.504V.84H5.663C2.088.84 1.108.859 1.08.927zm17.08-.04c-.14.14-.048 19.146.093 19.183.126.033.14.095.14.623 0 .475.02.587.105.587.08 0 .104.089.104.38 0 .443.048.6.183.6.064 0 .097.082.097.245 0 .171.032.245.105.245.07 0 .105.07.105.217 0 .157.038.226.14.253.099.026.14.095.14.238 0 .133.036.202.105.202.073 0 .105.074.105.245 0 .166.032.245.1.245.055 0 .12.063.144.14.025.077.09.14.145.14.061 0 .1.07.1.183 0 .19.252.514.402.516.048 0 .088.064.088.141 0 .078.046.14.105.14.057 0 .104.047.104.105 0 .058.063.105.14.105.078 0 .14.047.14.105 0 .058.048.105.105.105.059 0 .105.062.105.14 0 .093.047.14.14.14.078 0 .14.047.14.105 0 .058.047.105.105.105.057 0 .105.05.105.112 0 .06.063.128.14.148.077.02.14.08.14.133 0 .06.076.097.201.097.143 0 .212.04.238.14.027.102.096.14.253.14.146 0 .217.034.217.105 0 .058.062.105.14.105.077 0 .14.047.14.105 0 .073.073.105.244.105.198 0 .245.027.245.14 0 .122.047.14.35.14.264 0 .35.026.35.105 0 .073.072.105.236.105.178 0 .246.035.273.14.032.12.096.14.456.14.307 0 .429.028.458.105.03.078.156.105.497.105.343 0 .457.024.457.097 0 .25 6.419.293 6.484.043.032-.123.096-.14.518-.14.381 0 .482-.022.482-.105 0-.083.097-.105.454-.105.408 0 .455-.014.455-.14 0-.113.046-.14.245-.14.17 0 .244-.032.244-.105 0-.08.085-.105.345-.105.284 0 .353-.025.39-.14.03-.098.105-.14.25-.14.135 0 .204-.035.204-.105 0-.073.074-.105.245-.105.162 0 .245-.033.245-.097 0-.053.063-.113.14-.133.077-.02.14-.087.14-.148 0-.078.064-.112.21-.112.14 0 .21-.035.21-.105 0-.058.061-.105.14-.105.092 0 .139-.047.139-.14 0-.078.047-.14.105-.14a.105.105 0 0 0 .105-.105c0-.058.062-.105.14-.105.093 0 .14-.047.14-.14 0-.078.046-.14.104-.14a.105.105 0 0 0 .105-.105c0-.058.063-.105.14-.105.078 0 .14-.047.14-.105 0-.058.047-.105.105-.105.058 0 .105-.062.105-.14 0-.093.047-.14.14-.14.077 0 .14-.044.14-.098 0-.053.047-.115.105-.137a.172.172 0 0 0 .105-.148c0-.059.045-.107.101-.107.061 0 .12-.099.148-.245.026-.14.087-.245.143-.245.064 0 .097-.083.097-.245 0-.171.032-.245.105-.245.058 0 .105-.044.105-.097 0-.053.063-.113.14-.133.114-.03.14-.096.14-.358 0-.24.026-.322.105-.322.072 0 .104-.073.104-.237 0-.178.035-.246.14-.273.117-.03.14-.096.14-.393 0-.27.026-.357.105-.357.085 0 .105-.112.105-.587 0-.528.014-.59.14-.623.139-.037.14-.096.14-9.738V.84H32.8v8.892c0 7.84-.013 8.897-.105 8.933-.073.028-.105.143-.105.383 0 .296-.019.342-.14.342-.113 0-.14.047-.14.245 0 .171-.031.245-.105.245a.105.105 0 0 0-.105.105c0 .059-.062.105-.14.105-.077 0-.14.047-.14.105 0 .07-.07.105-.216.105-.157 0-.226.038-.253.14-.048.185-2.398.223-2.398.038 0-.06-.097-.12-.24-.147-.132-.024-.257-.089-.277-.143-.02-.054-.132-.098-.25-.098-.19 0-.212-.023-.212-.212 0-.124-.043-.23-.105-.253-.06-.023-.105-.128-.105-.249 0-.15-.039-.22-.14-.246-.115-.03-.14-.095-.14-.378 0-.257-.026-.342-.104-.342-.093 0-.105-1.023-.105-8.785V.84h-4.534c-2.494 0-4.556.021-4.582.047zm56.215.04c-.018.049-.025 6.325-.015 13.948l.018 13.86 9.127.036v-2.448c0-2.128.013-2.443.103-2.41.057.023.123.148.148.279.025.135.086.238.141.238.065 0 .097.083.097.245 0 .171.032.245.105.245.07 0 .105.07.105.217 0 .157.038.226.14.253.113.03.14.095.14.345 0 .21.034.322.105.35.06.023.105.128.105.249 0 .15.04.22.14.246.1.026.14.095.14.24 0 .117.044.222.105.245.06.023.104.127.104.243 0 .155.032.202.14.202.121 0 .14.047.14.346 0 .226.035.367.1.403.053.031.109.15.122.266l.023.21h10.28l.023-.227c.018-.19-.002-.228-.123-.228-.118 0-.144-.044-.144-.245 0-.171-.032-.245-.105-.245s-.105-.074-.105-.245c0-.198-.026-.245-.14-.245-.113 0-.14-.047-.14-.245 0-.171-.031-.245-.105-.245-.07 0-.104-.07-.104-.212 0-.12-.044-.23-.101-.251-.055-.021-.12-.13-.145-.243-.025-.112-.09-.204-.145-.204-.067 0-.099-.08-.099-.245 0-.162-.033-.245-.096-.245-.054 0-.114-.063-.134-.14-.02-.077-.087-.14-.148-.14-.08 0-.112-.067-.112-.245 0-.17-.031-.245-.104-.245-.071 0-.105-.07-.105-.217 0-.157-.038-.226-.14-.252-.1-.027-.14-.096-.14-.24 0-.132-.036-.2-.105-.2-.073 0-.105-.075-.105-.246 0-.198-.027-.245-.14-.245-.113 0-.14-.047-.14-.245 0-.171-.031-.245-.104-.245-.07 0-.105-.07-.105-.212 0-.117-.044-.23-.098-.25-.054-.02-.114-.098-.134-.173-.02-.074-.085-.135-.147-.135-.077 0-.11-.065-.11-.21 0-.14-.036-.21-.106-.21-.073 0-.105-.074-.105-.245 0-.198-.026-.245-.14-.245-.113 0-.14-.047-.14-.245 0-.171-.031-.245-.105-.245-.073 0-.104-.074-.104-.245 0-.198-.027-.245-.14-.245-.114 0-.14-.046-.14-.245 0-.171-.032-.245-.105-.245-.07 0-.105-.07-.105-.212 0-.124-.043-.23-.105-.253-.057-.022-.105-.084-.105-.138 0-.053-.063-.097-.14-.097-.113 0-.14-.047-.14-.245 0-.171-.031-.245-.104-.245-.074 0-.105-.074-.105-.245 0-.198-.027-.245-.14-.245-.113 0-.14-.047-.14-.245 0-.171-.032-.245-.105-.245-.07 0-.105-.07-.105-.216 0-.158-.038-.227-.14-.254-.1-.026-.14-.095-.14-.24 0-.117-.044-.222-.105-.245-.06-.023-.104-.127-.104-.242 0-.156-.033-.203-.14-.203-.113 0-.14-.047-.14-.245 0-.171-.032-.245-.105-.245-.058 0-.105-.062-.105-.14 0-.078-.047-.14-.105-.14-.07 0-.105-.07-.105-.217 0-.157-.038-.226-.14-.253-.099-.025-.14-.095-.14-.238 0-.133-.035-.202-.105-.202-.072 0-.104-.073-.104-.237 0-.147.04-.253.105-.278.06-.024.105-.129.105-.253 0-.147.033-.212.11-.212.062 0 .129-.063.149-.14.02-.077.08-.14.133-.14.064 0 .097-.083.097-.245 0-.171.032-.245.105-.245.069 0 .105-.07.105-.202 0-.143.04-.212.14-.238.101-.027.14-.096.14-.254 0-.145.034-.216.104-.216.058 0 .105-.06.105-.132 0-.073.063-.148.14-.168.102-.027.14-.096.14-.253 0-.146.034-.217.105-.217.073 0 .105-.074.105-.245 0-.198.027-.245.14-.245.077 0 .14-.044.14-.098 0-.053.047-.115.105-.137.06-.023.104-.128.104-.245 0-.145.041-.214.14-.24.102-.027.14-.096.14-.253 0-.146.034-.217.105-.217.074 0 .105-.074.105-.245 0-.171.032-.245.105-.245.058 0 .105-.044.105-.097 0-.053.063-.113.14-.133.102-.027.14-.096.14-.253 0-.146.034-.217.105-.217.073 0 .105-.074.105-.245 0-.198.026-.245.14-.245.076 0 .14-.044.14-.098 0-.053.046-.115.104-.137.061-.024.105-.129.105-.253 0-.135.036-.212.097-.212.107 0 .183-.147.183-.356 0-.074.047-.134.105-.134.073 0 .105-.074.105-.245 0-.171.031-.245.105-.245a.103.103 0 0 0 .104-.1c0-.055.063-.12.14-.145.098-.031.14-.106.14-.25 0-.135.036-.205.105-.205.073 0 .105-.074.105-.245 0-.198.027-.245.14-.245.093 0 .14-.047.14-.14 0-.078.046-.14.105-.14.07 0 .104-.07.104-.21 0-.133.036-.21.098-.21.107 0 .182-.147.182-.356 0-.074.047-.134.105-.134.074 0 .105-.074.105-.245 0-.198.027-.245.14-.245.093 0 .14-.047.14-.14 0-.078.047-.14.105-.14.07 0 .105-.07.105-.21 0-.14.035-.21.104-.21.074 0 .106-.074.106-.245 0-.198.026-.245.14-.245.093 0 .14-.047.14-.14 0-.078.046-.14.104-.14.08 0 .105-.085.105-.35V.84h-10.28v.245c0 .198-.028.245-.14.245-.114 0-.14.047-.14.245 0 .171-.032.245-.106.245-.073 0-.104.074-.104.245 0 .198-.027.245-.14.245-.113 0-.14.047-.14.245 0 .171-.032.245-.105.245-.074 0-.105.074-.105.245 0 .163-.033.245-.097.245-.122 0-.183.153-.183.46 0 .167-.032.24-.105.24s-.105.074-.105.245c0 .169-.032.245-.103.245-.056 0-.128.1-.16.223-.174.673-.226.263-.226-1.792V.84h-4.548c-3.574 0-4.555.019-4.582.087zm22.348.263c0 .257.027.35.1.35.056 0 .12.063.145.14.024.077.09.14.145.14.064 0 .1.075.1.212 0 .117.043.23.097.25.053.02.115.13.138.242.024.12.086.206.148.206.06 0 .106.061.106.14 0 .078.047.14.105.14.07 0 .105.07.105.217 0 .157.038.226.14.253.098.025.14.095.14.23 0 .109.046.213.105.235a.172.172 0 0 1 .105.148c0 .06.06.107.14.107.113 0 .14.047.14.245 0 .171.031.245.104.245.07 0 .105.07.105.212 0 .124.044.229.105.253.058.022.105.084.105.137 0 .054.063.098.14.098.113 0 .14.047.14.245 0 .171.032.245.105.245.07 0 .105.07.105.217 0 .157.038.226.14.253.077.02.14.095.14.168 0 .073.047.132.104.132.07 0 .105.07.105.21 0 .163.031.21.14.21.113 0 .14.047.14.245 0 .171.032.245.105.245.058 0 .105.062.105.14 0 .078.046.14.105.14.057 0 .105.06.105.134 0 .209.075.356.182.356.062 0 .097.077.097.21 0 .14.035.21.105.21.058 0 .105.06.105.134 0 .209.076.356.182.356.054 0 .098.063.098.14 0 .078.047.14.105.14.069 0 .105.07.105.205 0 .144.042.219.139.25.098.031.141.106.141.25 0 .135.035.205.104.205.059 0 .105.062.105.14 0 .077.046.14.102.14.061 0 .12.098.148.245.026.14.087.245.143.245.06 0 .097.076.097.203 0 .115.045.22.105.242a.174.174 0 0 1 .105.148c0 .06.061.107.14.107.113 0 .139.046.139.245 0 .171.032.245.105.245.058 0 .105.06.105.134 0 .209.076.356.183.356.053 0 .097.047.097.105 0 .058.047.105.105.105.073 0 .105.074.105.245 0 .198.026.245.14.245.113 0 .139.047.139.245 0 .171.032.245.106.245.057 0 .104.047.104.105 0 .058.048.105.105.105.071 0 .105.07.105.217 0 .157.038.226.14.253.105.027.14.095.14.273 0 .164.032.237.105.237.058 0 .105.05.105.112 0 .06.063.127.14.148.099.026.14.095.14.24 0 .117.044.222.104.245.06.023.105.127.105.243 0 .155.033.202.14.202.139 0 .14.047.14 6.16v6.16h9.092v-6.152c0-6.093.001-6.152.14-6.188.093-.024.14-.096.14-.211 0-.096.047-.192.105-.214.061-.024.105-.129.105-.253 0-.142.034-.212.104-.212.059 0 .105-.062.105-.14 0-.093.047-.14.14-.14.113 0 .14-.047.14-.245 0-.171.032-.245.105-.245s.105-.074.105-.245c0-.198.027-.245.14-.245.077 0 .14-.044.14-.098 0-.053.047-.115.105-.137.061-.024.104-.129.104-.253 0-.165.031-.212.141-.212.113 0 .139-.047.139-.245 0-.17.032-.245.105-.245.058 0 .105-.031.105-.07 0-.038.063-.133.14-.21a.484.484 0 0 0 .14-.28c0-.078.046-.14.105-.14.073 0 .105-.074.105-.245 0-.171.031-.245.104-.245a.105.105 0 0 0 .106-.102c0-.057.063-.137.139-.178a.29.29 0 0 0 .14-.247c0-.107.04-.173.105-.173.073 0 .105-.073.105-.237 0-.178.035-.246.14-.273.077-.02.14-.087.14-.148 0-.062.047-.112.105-.112.068 0 .105-.068.105-.193 0-.117.054-.228.139-.28a.334.334 0 0 0 .14-.262c0-.109.04-.175.105-.175.059 0 .105-.062.105-.14 0-.078.047-.14.105-.14.073 0 .105-.074.105-.245 0-.198.027-.245.14-.245.109 0 .14-.047.14-.21 0-.14.035-.21.105-.21.073 0 .104-.074.104-.245 0-.198.027-.245.141-.245.093 0 .139-.046.139-.14 0-.078.047-.14.105-.14.074 0 .105-.074.105-.245 0-.198.027-.245.14-.245.109 0 .14-.047.14-.21 0-.14.035-.21.105-.21.058 0 .105-.062.105-.14 0-.078.046-.14.104-.14.074 0 .106-.074.106-.245 0-.198.026-.245.139-.245.114 0 .14-.047.14-.245 0-.171.032-.245.105-.245.058 0 .105-.044.105-.097 0-.053.063-.113.14-.133.102-.027.14-.096.14-.253 0-.146.034-.217.105-.217.073 0 .105-.074.105-.245 0-.198.026-.245.139-.245.079 0 .14-.047.14-.107s.048-.126.105-.148c.06-.022.105-.127.105-.242 0-.127.037-.203.098-.203.107 0 .182-.147.182-.356 0-.074.047-.134.105-.134.058 0 .105-.062.105-.14 0-.078.046-.14.105-.14.069 0 .105-.07.105-.202 0-.143.04-.212.14-.238.101-.027.139-.096.139-.253 0-.146.034-.217.105-.217.074 0 .105-.074.105-.245 0-.135.032-.245.07-.245.038 0 .07-.11.07-.245V.84h-5.105c-4.318 0-5.106.015-5.106.098 0 .053-.047.115-.105.137-.06.023-.105.128-.105.245 0 .145-.04.214-.14.24-.101.027-.14.096-.14.254 0 .145-.034.216-.104.216-.074 0-.105.074-.105.245 0 .198-.027.245-.14.245-.113 0-.14.047-.14.245 0 .171-.032.245-.105.245s-.105.073-.105.237c0 .178-.035.246-.14.273-.102.027-.14.096-.14.254 0 .145-.034.216-.105.216-.073 0-.104.074-.104.245 0 .163-.033.245-.097.245-.056 0-.117.105-.144.245-.027.147-.086.245-.147.245-.067 0-.102.073-.102.212 0 .124-.044.23-.105.253-.058.022-.105.126-.105.234 0 .136-.042.206-.14.231-.116.03-.14.096-.14.393 0 .27-.025.357-.105.357-.069 0-.104.069-.104.202 0 .143-.041.212-.14.238-.102.027-.14.096-.14.254 0 .2-.018.216-.245.216-.233 0-.245-.012-.245-.245 0-.171-.031-.245-.104-.245-.071 0-.106-.07-.106-.21 0-.131-.036-.21-.095-.21-.063 0-.109-.115-.133-.328-.021-.184-.086-.364-.149-.41-.062-.046-.112-.162-.112-.26 0-.097-.043-.193-.095-.213-.052-.02-.114-.134-.138-.253-.026-.128-.087-.216-.15-.216-.075 0-.107-.072-.107-.245 0-.171-.031-.245-.105-.245-.073 0-.104-.074-.104-.245 0-.198-.027-.245-.14-.245-.114 0-.14-.047-.14-.245 0-.171-.032-.245-.105-.245s-.105-.074-.105-.245c0-.171-.032-.245-.105-.245-.071 0-.105-.07-.105-.217 0-.157-.038-.226-.14-.253-.105-.027-.14-.095-.14-.273 0-.164-.032-.237-.104-.237-.071 0-.105-.07-.105-.216 0-.158-.038-.227-.14-.254-.1-.026-.14-.095-.14-.24 0-.117-.045-.222-.105-.245-.058-.022-.105-.084-.105-.137 0-.083-.798-.098-5.176-.098h-5.175v.35zM59.962 2.905c.024.061.128.105.252.105.142 0 .212.035.212.105 0 .058.062.105.14.105.113 0 .14.047.14.245 0 .171.032.245.105.245s.105.074.105.245c0 .171-.032.245-.105.245s-.105.074-.105.245c0 .198-.027.245-.14.245-.077 0-.14.045-.14.1 0 .054-.096.12-.214.146-.118.026-.232.091-.252.146-.053.137-.722.138-.722 0 0-.055-.105-.116-.245-.142-.147-.028-.245-.087-.245-.148a.103.103 0 0 0-.105-.102c-.07 0-.105-.07-.105-.216 0-.158-.038-.227-.14-.254-.105-.027-.14-.095-.14-.273 0-.19.028-.237.14-.237.114 0 .14-.047.14-.245 0-.171.032-.245.105-.245a.105.105 0 0 0 .105-.105c0-.073.074-.105.245-.105.17 0 .245-.032.245-.105 0-.079.084-.105.342-.105.24 0 .354.032.382.105zm-22.126.21c0 .073.074.105.245.105.198 0 .245.027.245.14 0 .093.047.14.14.14.078 0 .14.047.14.105 0 .058.047.105.105.105.073 0 .105.074.105.245 0 .171.031.245.104.245.059 0 .105.062.105.14 0 .078-.046.14-.105.14-.07 0-.104.07-.104.212 0 .124-.044.23-.105.253-.058.022-.105.084-.105.138 0 .053-.063.097-.14.097-.078 0-.14.047-.14.105 0 .07-.07.105-.217.105-.157 0-.226.038-.252.14-.02.077-.065.14-.099.14s-.124-.063-.201-.14c-.077-.077-.2-.14-.273-.14-.072 0-.15-.047-.172-.105a.172.172 0 0 0-.148-.105.106.106 0 0 1-.107-.105.105.105 0 0 0-.105-.105c-.058 0-.104-.062-.104-.14 0-.078-.047-.14-.106-.14-.079 0-.104-.086-.104-.35 0-.265.025-.35.104-.35.059 0 .106-.062.106-.14 0-.078.046-.14.104-.14.058 0 .105-.043.105-.097 0-.053.063-.113.14-.133.077-.02.14-.087.14-.149 0-.08.067-.111.245-.111.17 0 .245-.032.245-.105a.105.105 0 0 1 .21 0zm51.894 0c0 .058.062.105.14.105.093 0 .14.047.14.14 0 .078.047.14.105.14.065 0 .105.066.105.174 0 .099.06.213.14.262.093.058.14.163.14.316 0 .181-.029.228-.14.228-.108 0-.14.047-.14.202 0 .116-.045.22-.105.243a.173.173 0 0 0-.105.148c0 .076-.072.107-.245.107-.17 0-.244.032-.244.105 0 .079-.085.105-.343.105-.24 0-.354-.032-.382-.105a.172.172 0 0 0-.148-.105.106.106 0 0 1-.106-.105.103.103 0 0 0-.1-.105c-.056 0-.12-.063-.145-.14-.025-.077-.09-.14-.145-.14-.08 0-.1-.125-.1-.595 0-.548.01-.595.14-.595.093 0 .14-.047.14-.14 0-.078.046-.14.105-.14a.105.105 0 0 0 .105-.105c0-.085.112-.105.594-.105s.594.02.594.105zm14.198 0c0 .073.074.105.245.105.198 0 .244.027.244.14 0 .078.047.14.105.14.058 0 .105.047.105.105 0 .058.062.105.14.105.127 0 .14.047.14.49 0 .382-.023.49-.102.49-.061 0-.12.098-.147.245-.027.14-.088.245-.143.245-.054 0-.098.047-.098.105 0 .172-1.111.166-1.21-.007-.03-.054-.148-.098-.262-.098-.184 0-.206-.024-.206-.217 0-.157-.038-.226-.14-.253-.115-.03-.14-.095-.14-.374 0-.275.026-.345.14-.38.098-.032.14-.107.14-.25 0-.137.035-.206.105-.206.058 0 .105-.062.105-.14 0-.113.046-.14.244-.14.172 0 .245-.032.245-.105s.074-.105.245-.105c.171 0 .245.032.245.105zm13.498 0c0 .069.069.105.202.105.142 0 .212.04.238.14.02.077.087.14.148.14.077 0 .111.065.111.212 0 .124.044.23.105.253.073.028.105.143.105.383 0 .257-.026.342-.105.342-.058 0-.105.062-.105.14 0 .078-.046.14-.105.14a.106.106 0 0 0-.105.105.103.103 0 0 1-.101.105.206.206 0 0 0-.158.098c-.1.176-1.209.182-1.209.007 0-.058-.062-.105-.14-.105-.079 0-.14-.047-.14-.107a.172.172 0 0 0-.105-.148c-.082-.031-.105-.17-.105-.627 0-.476.02-.588.105-.588.058 0 .105-.043.105-.097 0-.053.063-.113.14-.133.077-.02.14-.087.14-.149 0-.077.064-.111.212-.111.124 0 .228-.044.252-.105.025-.065.131-.105.278-.105.164 0 .237.032.237.105zM5.686 3.36c.026.102.095.14.252.14.146 0 .216.034.216.105 0 .058.048.105.106.105.057 0 .104.046.104.103 0 .056.063.136.14.177.232.124.194 1.19-.042 1.19-.054 0-.098.047-.098.105a.105.105 0 0 1-.104.105c-.059 0-.106.062-.106.14 0 .13-.046.14-.629.14-.469 0-.63-.023-.63-.09 0-.05-.092-.169-.206-.263-.114-.095-.208-.21-.21-.255-.002-.045-.066-.103-.143-.127-.114-.036-.14-.106-.14-.381 0-.279.025-.344.14-.374.102-.027.14-.096.14-.253 0-.146.034-.217.105-.217a.105.105 0 0 0 .105-.105c0-.073.074-.105.245-.105.198 0 .244-.027.244-.14 0-.112.047-.14.237-.14.178 0 .246.035.273.14zm17.254 0c0 .093.046.14.14.14.077 0 .14.047.14.105 0 .058.047.105.104.105.059 0 .105.062.105.14 0 .078.047.14.105.14.079 0 .105.085.105.342 0 .24-.031.355-.105.383-.061.024-.105.129-.105.253 0 .142-.034.212-.105.212a.105.105 0 0 0-.105.105c0 .07-.07.105-.216.105-.157 0-.226.038-.253.14-.03.118-.095.14-.413.14-.33 0-.377-.017-.377-.14 0-.077-.039-.141-.087-.143-.048-.002-.165-.096-.259-.21-.094-.114-.212-.207-.262-.207-.068 0-.091-.16-.091-.63 0-.583.01-.63.14-.63.078 0 .14-.047.14-.105 0-.066.067-.105.181-.105.123 0 .194-.045.218-.14.032-.123.096-.14.518-.14.435 0 .482.014.482.14zm56.02 0c0 .113.047.14.245.14.17 0 .245.032.245.105 0 .058.047.105.104.105.058 0 .105.04.105.09 0 .049.063.143.14.209.22.188.184 1.171-.043 1.171-.053 0-.097.047-.097.105a.106.106 0 0 1-.105.105c-.058 0-.104.062-.104.14 0 .13-.047.14-.63.14-.387 0-.63-.028-.63-.072 0-.04-.094-.165-.21-.278-.115-.113-.21-.236-.21-.273 0-.037-.062-.088-.139-.112-.114-.036-.14-.106-.14-.381 0-.279.025-.344.14-.374.102-.027.14-.096.14-.253 0-.146.034-.217.105-.217a.105.105 0 0 0 .105-.105c0-.073.074-.105.245-.105.198 0 .244-.027.244-.14 0-.113.047-.14.245-.14s.245.027.245.14zm-14.897.245c0 .058.047.105.105.105.058 0 .105.045.105.1 0 .055.063.12.14.145.077.025.14.09.14.145 0 .055.047.1.105.1.083 0 .104.101.104.49s-.021.49-.104.49a.103.103 0 0 0-.105.1c0 .055-.063.12-.14.145-.077.024-.14.09-.14.145 0 .055-.047.1-.105.1a.105.105 0 0 0-.105.105c0 .083-.1.105-.49.105-.388 0-.489-.022-.489-.105a.103.103 0 0 0-.1-.105c-.055 0-.12-.063-.145-.14-.024-.077-.09-.14-.144-.14a.103.103 0 0 1-.1-.105.105.105 0 0 0-.105-.105c-.084 0-.105-.101-.105-.49s.021-.49.105-.49a.105.105 0 0 0 .105-.105c0-.058.05-.105.11-.105.062 0 .129-.063.15-.14.02-.077.079-.14.132-.14.053 0 .097-.047.097-.105 0-.083.101-.105.49-.105.388 0 .489.022.489.105zm-8.183.202c0 .107.148.183.356.183.074 0 .134.047.134.105 0 .058.047.105.105.105.07 0 .105.07.105.216 0 .158.038.227.14.254.104.027.14.095.14.265s-.036.238-.14.265c-.102.027-.14.096-.14.253 0 .146-.034.217-.105.217a.105.105 0 0 0-.105.105c0 .058-.062.105-.14.105-.093 0-.14.047-.14.14 0 .127-.046.14-.481.14-.423 0-.486-.017-.518-.14-.025-.095-.095-.14-.218-.14-.115 0-.182-.039-.182-.105 0-.058-.062-.105-.14-.105-.12 0-.14-.047-.14-.35 0-.284-.022-.352-.122-.358-.116-.008-.116-.01 0-.04.086-.023.123-.102.123-.264 0-.173.035-.24.14-.268.094-.025.14-.096.14-.218 0-.155.03-.182.205-.182.143 0 .218-.042.25-.14.054-.174.733-.214.733-.043zm11.75 2.184c0 .062.063.129.14.149.077.02.14.08.14.133 0 .054.047.097.105.097.085 0 .105.113.105.595s-.02.595-.105.595c-.059 0-.105.062-.105.14 0 .093-.047.14-.14.14-.078 0-.14.047-.14.105 0 .07-.07.105-.205.105-.144 0-.218.042-.25.14-.03.096-.105.14-.241.14-.138 0-.208-.042-.233-.14-.027-.102-.096-.14-.253-.14-.146 0-.217-.034-.217-.105 0-.058-.062-.105-.14-.105-.113 0-.14-.046-.14-.245 0-.171-.031-.245-.104-.245-.08 0-.105-.086-.105-.35 0-.265.025-.35.105-.35.058 0 .105-.062.105-.14 0-.077.043-.14.096-.14.054 0 .113-.063.134-.14.02-.077.086-.14.147-.14.062 0 .112-.047.112-.105 0-.085.113-.105.595-.105.497 0 .594.018.594.111zm-14.871.274c.023.062.128.105.252.105.19 0 .212.022.212.217 0 .157.038.226.14.253.123.032.14.095.14.518 0 .436-.014.482-.14.482-.077 0-.14.044-.14.097 0 .054-.047.116-.105.138a.173.173 0 0 0-.105.148c0 .06-.061.107-.14.107-.078 0-.14.047-.14.105 0 .083-.1.105-.49.105-.388 0-.489-.022-.489-.105a.105.105 0 0 0-.105-.105c-.058 0-.105-.062-.105-.14 0-.078-.046-.14-.105-.14a.105.105 0 0 1-.105-.105c0-.058-.062-.105-.14-.105-.126 0-.14-.046-.14-.49 0-.312.029-.49.078-.49.108 0 .41-.296.411-.403 0-.048.048-.087.106-.087a.105.105 0 0 0 .105-.105c0-.083.1-.105.482-.105.364 0 .492.026.523.105zm34.593.202c0 .107.147.183.356.183.074 0 .134.047.134.105 0 .058.047.105.105.105.065 0 .105.066.105.175 0 .098.06.212.14.261.107.067.14.164.14.413 0 .266-.026.331-.14.361-.077.02-.14.087-.14.149 0 .06-.047.111-.105.111a.105.105 0 0 0-.105.105c0 .058-.044.105-.097.105-.054 0-.116.047-.138.105-.031.082-.171.105-.637.105-.484 0-.597-.02-.597-.105a.105.105 0 0 0-.105-.105.105.105 0 0 1-.104-.105c0-.058-.063-.105-.14-.105-.13 0-.14-.047-.14-.63s.01-.63.14-.63c.077 0 .14-.047.14-.105 0-.058.047-.105.104-.105.058 0 .105-.044.105-.097 0-.056.105-.117.245-.143.147-.028.245-.087.245-.148 0-.07.077-.102.245-.102.162 0 .244.033.244.097zm-49.495.743c.026.102.095.14.252.14.146 0 .217.034.217.105 0 .058.062.105.14.105.093 0 .14.047.14.14 0 .078.046.14.105.14.07 0 .105.07.105.212 0 .124.043.23.104.253.058.022.105.084.105.138 0 .053-.047.097-.105.097-.073 0-.104.074-.104.245 0 .171-.032.245-.105.245a.105.105 0 0 0-.105.105c0 .058-.05.105-.112.105-.061 0-.127.063-.148.14-.027.105-.095.14-.273.14-.164 0-.237.032-.237.105 0 .058-.043.105-.097.105-.053 0-.115-.047-.138-.105-.023-.061-.128-.105-.252-.105-.137 0-.212-.035-.212-.1 0-.056-.063-.12-.14-.145-.077-.024-.14-.09-.14-.145 0-.055-.047-.1-.105-.1a.106.106 0 0 1-.104-.107.173.173 0 0 0-.106-.148c-.073-.028-.104-.143-.104-.382 0-.258.026-.343.104-.343a.107.107 0 0 0 .106-.107c0-.06.047-.126.104-.148.058-.022.105-.084.105-.137 0-.054.049-.098.107-.098a.172.172 0 0 0 .148-.105c.023-.06.128-.105.249-.105.15 0 .22-.04.245-.14.02-.077.077-.14.126-.14.048 0 .104.063.125.14zm68.469 0c.02.077.087.14.148.14s.111.047.111.105c0 .058.048.105.105.105.058 0 .105.05.105.112 0 .061.063.128.14.148.185.048.217 1 .033 1-.062 0-.124.087-.148.21-.033.165-.079.21-.215.21-.114 0-.185.048-.209.14-.032.122-.095.14-.51.14-.414 0-.478-.018-.51-.14-.02-.077-.086-.14-.148-.14-.061 0-.111-.047-.111-.105a.105.105 0 0 0-.105-.105.103.103 0 0 1-.105-.1c0-.056-.063-.12-.14-.145-.121-.038-.14-.106-.14-.495 0-.403.015-.45.14-.45.093 0 .14-.046.14-.14 0-.078.047-.14.105-.14a.105.105 0 0 0 .105-.105c0-.07.07-.105.216-.105.158 0 .226-.038.253-.14.03-.115.095-.14.37-.14.274 0 .34.025.37.14zm9.162 0c.026.102.095.14.253.14.194 0 .216.022.216.212 0 .124.044.229.105.253.078.03.105.153.105.48 0 .327-.027.45-.105.48a.173.173 0 0 0-.105.148.106.106 0 0 1-.105.107.106.106 0 0 0-.105.105c0 .058-.06.105-.134.105-.208 0-.355.075-.355.182 0 .16-.44.125-.543-.042a.334.334 0 0 0-.262-.14c-.108 0-.174-.04-.174-.105 0-.058-.063-.105-.14-.105-.093 0-.14-.047-.14-.14 0-.078-.047-.14-.105-.14-.082 0-.105-.097-.105-.455s.023-.455.105-.455c.058 0 .105-.062.105-.14 0-.079.047-.14.107-.14a.172.172 0 0 0 .147-.105c.023-.058.084-.105.138-.105.054 0 .098-.063.098-.14 0-.126.046-.14.481-.14.423 0 .486.017.518.14zM5.875 7.455c0 .058.062.105.14.105.077 0 .14.044.14.098 0 .053.047.115.105.137a.172.172 0 0 1 .104.148c0 .06.061.107.14.107.127 0 .14.047.14.484 0 .547-.041.706-.182.706-.054 0-.098.063-.098.14 0 .078-.046.14-.104.14a.106.106 0 0 0-.106.105c0 .086-.116.105-.629.105s-.63-.02-.63-.105a.105.105 0 0 0-.104-.105c-.058 0-.105-.03-.105-.067 0-.096-.317-.423-.41-.423-.15 0-.098-.655.06-.754a.333.333 0 0 0 .14-.262c0-.108.04-.174.105-.174.058 0 .105-.062.105-.14 0-.113.046-.14.245-.14.17 0 .244-.032.244-.105 0-.08.086-.105.35-.105s.35.026.35.105zm17.065 0c0 .058.062.105.14.105.076 0 .14.044.14.098 0 .053.047.115.104.137a.172.172 0 0 1 .105.148c0 .059.047.107.105.107.08 0 .105.09.105.385 0 .296-.024.385-.105.385-.07 0-.105.07-.105.21 0 .14-.035.21-.105.21-.058 0-.105.062-.105.14 0 .113-.046.14-.244.14-.171 0-.245.032-.245.105s-.073.105-.237.105c-.147 0-.253-.04-.278-.105-.024-.061-.128-.105-.252-.105-.117 0-.212-.035-.212-.078 0-.107-.296-.41-.402-.41-.064-.002-.088-.168-.088-.597 0-.498.018-.595.112-.595.061 0 .127-.063.147-.14.02-.077.08-.14.134-.14.053 0 .097-.047.097-.105 0-.085.112-.105.594-.105s.595.02.595.105zm56.02 0c0 .073.074.105.245.105.198 0 .245.027.245.14 0 .078.046.14.104.14.058 0 .105.043.105.097 0 .053.063.113.14.133.235.062.195 1.17-.042 1.17-.054 0-.098.063-.098.14 0 .078-.046.14-.105.14a.105.105 0 0 0-.104.105c0 .086-.117.105-.63.105s-.63-.02-.63-.105a.105.105 0 0 0-.104-.105c-.058 0-.105-.03-.105-.067 0-.096-.317-.423-.41-.423-.05 0-.08-.144-.08-.385 0-.286.026-.385.1-.385.054 0 .12-.094.145-.21.025-.116.09-.21.146-.21.054 0 .099-.063.099-.14 0-.113.046-.14.245-.14.17 0 .244-.032.244-.105s.074-.105.245-.105c.171 0 .245.032.245.105zM50.586 9.38c.026.102.095.14.252.14.186 0 .217.025.217.182 0 .122.045.193.14.218.105.027.14.095.14.273 0 .164.032.237.104.237.059 0 .105.062.105.14 0 .078-.046.14-.105.14-.073 0-.105.074-.105.245 0 .198-.026.245-.14.245-.077 0-.14.047-.14.105a.105.105 0 0 1-.104.105c-.059 0-.105.062-.105.14 0 .129-.047.14-.587.14-.527 0-.59-.014-.622-.14-.02-.077-.087-.14-.148-.14-.062 0-.112-.047-.112-.105a.105.105 0 0 0-.105-.105c-.07 0-.105-.07-.105-.217 0-.157-.037-.226-.14-.253-.105-.027-.14-.095-.14-.273 0-.19.028-.237.14-.237.114 0 .14-.047.14-.245 0-.171.032-.245.105-.245a.105.105 0 0 0 .105-.105c0-.073.074-.105.245-.105.198 0 .245-.027.245-.14 0-.12.047-.14.341-.14.283 0 .348.024.379.14zm34.878.735c0 .058.047.105.105.105.058 0 .105.047.105.105 0 .058.047.105.105.105.058 0 .105.05.105.112 0 .061.063.128.14.148.174.045.209.678.041.743-.054.02-.12.134-.145.252-.026.118-.092.215-.147.215-.054 0-.099.063-.099.14 0 .114-.047.14-.245.14-.17 0-.245.032-.245.105s-.073.105-.244.105c-.171 0-.245-.032-.245-.105s-.074-.105-.245-.105c-.198 0-.245-.027-.245-.14 0-.078-.046-.14-.105-.14a.105.105 0 0 1-.105-.105c0-.058-.062-.105-.14-.105-.126 0-.14-.047-.14-.482 0-.423.018-.486.14-.518.103-.027.14-.096.14-.254 0-.194.022-.216.212-.216.125 0 .23-.044.253-.105.03-.08.158-.105.522-.105.382 0 .482.022.482.105zm22.841 1.085c.166 0 .239.032.239.105 0 .07.07.105.21.105.187 0 .209.023.209.217 0 .157.038.226.14.253.118.03.14.095.14.405 0 .31-.022.374-.14.405-.094.025-.14.096-.14.218 0 .115-.038.182-.105.182-.058 0-.104.062-.104.14 0 .113-.047.14-.245.14-.171 0-.245.032-.245.105 0 .074-.074.105-.245.105-.171 0-.245-.031-.245-.105 0-.073-.073-.105-.244-.105-.199 0-.245-.027-.245-.14 0-.078-.047-.14-.105-.14a.105.105 0 0 1-.105-.105c0-.058-.062-.105-.14-.105-.129 0-.14-.047-.14-.595 0-.548.011-.595.14-.595.093 0 .14-.047.14-.14 0-.078.047-.14.105-.14a.105.105 0 0 0 .105-.105c0-.08.085-.105.349-.105.231 0 .352-.03.356-.087.004-.07.012-.07.041 0 .019.048.142.087.274.087zm5.015.115c.031.052.149.095.263.095.183 0 .206.024.206.212 0 .124.044.23.105.253.079.03.105.158.105.522 0 .383-.022.483-.105.483a.105.105 0 0 0-.105.105.105.105 0 0 1-.105.105c-.058 0-.105.062-.105.14 0 .113-.046.14-.245.14-.17 0-.244.032-.244.105 0 .074-.074.105-.245.105-.171 0-.245-.031-.245-.105 0-.073-.074-.105-.245-.105-.198 0-.244-.027-.244-.14 0-.093-.047-.14-.14-.14-.078 0-.14-.047-.14-.105a.105.105 0 0 0-.105-.105c-.083 0-.105-.101-.105-.49s.022-.49.105-.49c.073 0 .105-.074.105-.245 0-.198.026-.245.14-.245.077 0 .14-.046.14-.101 0-.187 1.1-.182 1.209.006zm-75.458-.01c.023.061.128.105.252.105.147 0 .212.034.212.111 0 .062.063.129.14.149.077.02.14.08.14.133 0 .054.047.097.105.097.073 0 .105.074.105.245 0 .171.031.245.104.245.058 0 .105.044.105.098 0 .053-.047.115-.105.137-.06.024-.104.129-.104.253 0 .142-.035.212-.105.212-.059 0-.105.062-.105.14 0 .093-.047.14-.14.14-.077 0-.14.044-.14.098 0 .069-.11.106-.367.124-.523.036-.822-.01-.822-.125 0-.053-.063-.097-.14-.097-.079 0-.14-.047-.14-.107a.173.173 0 0 0-.105-.148c-.057-.022-.104-.084-.104-.137 0-.054-.048-.098-.106-.098-.078 0-.104-.085-.104-.342 0-.24.031-.355.104-.383a.173.173 0 0 0 .106-.148c0-.059.043-.107.096-.107.053 0 .114-.063.134-.14.02-.077.086-.14.148-.14.06 0 .111-.047.111-.105 0-.07.07-.105.212-.105.124 0 .229-.044.252-.105.023-.058.081-.105.13-.105.05 0 .108.047.13.105zm-31.967.245c.02.077.087.14.148.14.062 0 .111.047.111.105 0 .058.048.105.106.105.057 0 .104.045.104.1 0 .055.063.12.14.145.098.031.14.106.14.25 0 .114.039.207.088.21.07.005.07.013 0 .041-.048.02-.088.12-.089.222-.001.294-.077.502-.182.502-.053 0-.097.047-.097.105 0 .07-.07.105-.216.105-.158 0-.226.038-.253.14-.032.123-.095.14-.518.14-.435 0-.481-.014-.481-.14 0-.078-.047-.14-.105-.14a.105.105 0 0 1-.105-.105.105.105 0 0 0-.105-.105c-.058 0-.105-.05-.105-.112 0-.06-.063-.127-.14-.148-.174-.045-.214-.72-.042-.72.107 0 .182-.147.182-.356 0-.074.047-.134.105-.134a.105.105 0 0 0 .105-.105c0-.07.07-.105.216-.105.158 0 .227-.038.253-.14.03-.115.095-.14.37-.14s.34.025.37.14zm17.045-.029c0 .062.063.129.14.149.076.02.14.08.14.133 0 .054.047.097.104.097.058 0 .105.048.105.107 0 .06.047.125.105.148.074.028.105.143.105.383 0 .257-.026.342-.105.342-.073 0-.105.074-.105.245 0 .171-.031.245-.105.245a.105.105 0 0 0-.105.105c0 .074-.074.105-.244.105-.199 0-.245.027-.245.14 0 .112-.047.14-.237.14-.178 0-.245-.035-.273-.14-.026-.102-.095-.14-.253-.14-.145 0-.216-.034-.216-.105a.103.103 0 0 0-.1-.105c-.055 0-.12-.063-.145-.14-.025-.077-.09-.14-.145-.14-.079 0-.1-.125-.1-.595 0-.548.011-.595.14-.595.078 0 .14-.046.14-.105 0-.058.047-.105.105-.105.058 0 .105-.062.105-.14 0-.13.046-.14.594-.14.497 0 .595.018.595.111zm56.25.029c.02.077.087.14.148.14s.112.047.112.105c0 .058.047.105.104.105.058 0 .105.046.105.103 0 .056.063.136.14.177.116.062.14.147.14.488 0 .351-.02.42-.14.457-.098.031-.14.106-.14.25 0 .182-.023.205-.216.205-.158 0-.226.038-.253.14-.032.123-.095.14-.518.14-.435 0-.481-.014-.481-.14 0-.077-.032-.14-.07-.14-.091 0-.313-.223-.37-.373-.025-.064-.094-.117-.153-.117-.082 0-.107-.082-.107-.35 0-.26.027-.35.102-.35.06 0 .12-.098.148-.245.026-.14.087-.245.143-.245a.097.097 0 0 0 .097-.097c0-.056.104-.117.245-.144.146-.027.244-.086.244-.147 0-.176.674-.14.72.038zm-29.324 1.68c0 .113.047.14.245.14.225 0 .245.017.245.21 0 .14.034.21.104.21.059 0 .105.062.105.14 0 .093.047.14.14.14.112 0 .14.047.14.237 0 .178-.035.246-.14.273-.102.027-.14.096-.14.253 0 .146-.034.217-.105.217a.105.105 0 0 0-.105.105c0 .058-.05.105-.111.105-.062 0-.128.063-.148.14-.033.126-.095.14-.623.14-.54 0-.586-.011-.586-.14 0-.078-.047-.14-.105-.14a.105.105 0 0 1-.105-.105c0-.058-.063-.105-.14-.105-.113 0-.14-.047-.14-.245 0-.171-.031-.245-.105-.245-.073 0-.105-.074-.105-.245 0-.171.032-.245.105-.245a.104.104 0 0 0 .105-.103c0-.056.063-.136.14-.177a.29.29 0 0 0 .14-.247c0-.146.033-.173.216-.173.158 0 .227-.038.253-.14.03-.116.096-.14.378-.14.295 0 .342.02.342.14zm33.176.245c.023.061.128.105.252.105.117 0 .212.036.212.08 0 .093.327.41.423.41.037 0 .066.22.066.49 0 .389-.021.49-.104.49-.058 0-.105.044-.105.097 0 .053-.063.113-.14.133-.077.02-.14.087-.14.148 0 .062-.047.112-.105.112a.105.105 0 0 0-.105.105c0 .084-.101.105-.49.105-.388 0-.489-.021-.489-.105 0-.073-.074-.105-.245-.105-.233 0-.245-.012-.245-.245 0-.171-.031-.245-.105-.245-.083 0-.104-.101-.104-.49s.021-.49.105-.49c.057 0 .104-.044.104-.097 0-.054.048-.116.105-.138a.172.172 0 0 0 .105-.148c0-.075.072-.107.245-.107.17 0 .245-.031.245-.105 0-.073.073-.105.237-.105.146 0 .253.04.278.105zm27.653 1.435c.05.08.164.14.262.14.109 0 .174.04.174.105 0 .058.063.105.14.105.114 0 .14.047.14.245 0 .171.032.245.105.245.079 0 .105.085.105.35 0 .264-.026.35-.105.35-.058 0-.105.062-.105.14 0 .079-.047.14-.107.14a.171.171 0 0 0-.147.105c-.022.058-.084.105-.138.105-.054 0-.097.063-.097.14 0 .127-.047.14-.49.14-.372 0-.49-.023-.49-.097 0-.108-.147-.183-.355-.183-.102 0-.134-.05-.134-.21 0-.14-.035-.21-.105-.21-.083 0-.105-.1-.105-.482 0-.365.026-.493.105-.523a.172.172 0 0 0 .105-.148c0-.059.047-.107.105-.107a.106.106 0 0 0 .105-.105c0-.058.062-.105.14-.105.093 0 .139-.047.139-.14 0-.12.047-.14.333-.14.257 0 .353.032.42.14zm-88.225.49c.027.1.096.14.246.14.121 0 .226.044.249.105a.173.173 0 0 0 .147.105c.06 0 .107.047.107.105 0 .058.048.105.105.105.059 0 .105.062.105.14 0 .078.047.14.105.14.079 0 .105.085.105.343 0 .24-.031.354-.105.382-.061.024-.105.129-.105.253 0 .142-.034.212-.105.212-.058 0-.105.062-.105.14 0 .122-.046.14-.352.14-.248 0-.363.03-.392.105-.022.058-.084.105-.137.105-.054 0-.098-.047-.098-.105 0-.074-.073-.105-.245-.105-.198 0-.244-.027-.244-.14 0-.077-.044-.14-.098-.14-.053 0-.115-.047-.137-.105a.172.172 0 0 0-.148-.105c-.087 0-.107-.107-.107-.595 0-.498.018-.595.112-.595.061 0 .127-.063.147-.14.02-.077.08-.14.134-.14.053 0 .097-.047.097-.105 0-.07.07-.105.216-.105.158 0 .227-.038.253-.14.02-.077.076-.14.125-.14s.105.063.125.14zm15.646 0c0 .077.044.14.098.14.053 0 .115.047.137.105a.172.172 0 0 0 .148.105c.058 0 .107.047.107.105 0 .058.047.105.105.105.073 0 .105.074.105.245 0 .171.031.245.104.245.059 0 .105.062.105.14 0 .078-.046.14-.105.14-.073 0-.104.074-.104.245 0 .171-.032.245-.105.245a.105.105 0 0 0-.105.105c0 .059-.063.105-.14.105-.093 0-.14.047-.14.14 0 .129-.047.14-.594.14-.548 0-.595-.011-.595-.14 0-.093-.046-.14-.14-.14-.078 0-.14-.046-.14-.105a.105.105 0 0 0-.105-.105c-.07 0-.104-.07-.104-.212 0-.124-.044-.23-.106-.253-.064-.025-.104-.131-.104-.277 0-.165.032-.238.104-.238.074 0 .106-.074.106-.245 0-.171.031-.245.104-.245a.105.105 0 0 0 .105-.105c0-.073.074-.105.245-.105.198 0 .245-.026.245-.14 0-.123.046-.14.385-.14.337 0 .384.017.384.14zm-32.241.245c0 .058.062.105.14.105.077 0 .14.047.14.105 0 .058.047.105.105.105.057 0 .104.05.104.112 0 .061.063.128.14.148.236.061.195 1.21-.042 1.21-.054 0-.098.063-.098.14 0 .11-.046.14-.212.14-.124 0-.229.044-.252.105-.03.08-.158.105-.522.105-.382 0-.482-.022-.482-.105a.105.105 0 0 0-.105-.105c-.059 0-.105-.062-.105-.14 0-.077-.045-.14-.1-.14-.054 0-.12-.096-.146-.215-.026-.118-.091-.232-.145-.252-.134-.052-.134-.513 0-.513.055 0 .12-.095.146-.21.025-.116.09-.21.145-.21.055 0 .1-.063.1-.14 0-.11.046-.14.212-.14.124 0 .228-.043.252-.105.028-.073.143-.105.383-.105.257 0 .342.026.342.105zm73.295 0c0 .058.062.105.14.105.077 0 .14.047.14.105 0 .058.047.105.104.105.058 0 .105.06.105.132 0 .073.063.148.14.168.12.032.14.096.14.461 0 .352-.023.437-.14.499-.092.049-.14.147-.14.283 0 .19-.02.207-.244.207-.172 0-.245.031-.245.105 0 .083-.101.105-.49.105-.388 0-.49-.022-.49-.105a.105.105 0 0 0-.104-.105c-.059 0-.105-.062-.105-.14 0-.078-.047-.14-.105-.14a.105.105 0 0 1-.105-.105c0-.058-.062-.105-.14-.105-.126 0-.14-.047-.14-.49s.014-.49.14-.49c.077 0 .14-.044.14-.098 0-.053.047-.115.105-.137a.172.172 0 0 0 .105-.148c0-.072.068-.107.212-.107.124 0 .229-.043.252-.105.028-.073.143-.105.382-.105.258 0 .343.026.343.105zm6.504 1.435c0 .078.047.14.105.14.058 0 .105.047.105.105 0 .059.062.105.14.105.128 0 .14.047.14.587 0 .528-.014.59-.14.623-.077.02-.14.087-.14.148 0 .062-.047.112-.105.112a.105.105 0 0 0-.105.105c0 .07-.07.105-.216.105-.158 0-.227.038-.253.14-.028.105-.096.14-.273.14-.19 0-.237-.028-.237-.14 0-.113-.047-.14-.245-.14-.17 0-.245-.032-.245-.105a.105.105 0 0 0-.105-.105c-.07 0-.105-.07-.105-.216 0-.158-.037-.227-.14-.254-.115-.03-.14-.095-.14-.373 0-.276.026-.345.14-.382.099-.031.14-.106.14-.25 0-.172.029-.205.175-.205.098 0 .212-.06.261-.14.076-.122.163-.14.665-.14.531 0 .578.011.578.14zm-34.829.245c0 .058.043.105.097.105.053 0 .113.063.133.14.02.077.087.14.148.14.077 0 .111.064.111.21 0 .14.035.21.105.21.059 0 .105.062.105.14 0 .078-.046.14-.105.14-.072 0-.105.073-.105.237 0 .178-.034.246-.14.273-.101.027-.14.096-.14.253 0 .201-.017.217-.244.217-.17 0-.245.032-.245.105 0 .08-.085.105-.35.105-.264 0-.35-.026-.35-.105 0-.073-.073-.105-.244-.105-.198 0-.245-.027-.245-.14 0-.078-.046-.14-.105-.14-.07 0-.105-.07-.105-.216 0-.158-.037-.227-.14-.254-.103-.027-.14-.095-.14-.265s.037-.238.14-.265c.093-.024.14-.096.14-.21 0-.097.048-.193.105-.215a.173.173 0 0 0 .105-.148c0-.06.06-.107.14-.107.078 0 .14-.046.14-.105 0-.085.113-.105.594-.105.482 0 .595.02.595.105zm59.797 1.883c0 .107.147.182.355.182.074 0 .134.047.134.105 0 .058.063.105.14.105.114 0 .14.047.14.245 0 .171.032.245.105.245.079 0 .105.086.105.35s-.026.35-.105.35c-.058 0-.105.062-.105.14 0 .08-.047.14-.107.14a.171.171 0 0 0-.147.105c-.022.058-.084.105-.138.105-.054 0-.097.063-.097.14 0 .127-.047.14-.482.14-.423 0-.486-.017-.518-.14-.026-.102-.095-.14-.253-.14-.194 0-.216-.021-.216-.212 0-.124-.044-.229-.105-.253-.078-.03-.105-.153-.105-.48 0-.327.027-.45.105-.48a.173.173 0 0 0 .105-.148c0-.059.047-.107.105-.107a.106.106 0 0 0 .105-.105c0-.058.062-.105.14-.105.093 0 .139-.047.139-.14 0-.121.047-.14.35-.14.252 0 .35.027.35.098zm-86.723.287c0 .058.048.105.107.105s.125.047.147.105c.023.058.084.105.138.105.053 0 .098.063.098.14 0 .078.046.14.104.14.084 0 .105.101.105.49s-.021.49-.105.49a.105.105 0 0 0-.105.105.103.103 0 0 1-.1.105c-.055 0-.12.063-.144.14-.025.077-.09.14-.145.14-.055 0-.1.047-.1.105 0 .083-.101.105-.49.105-.388 0-.49-.022-.49-.105a.103.103 0 0 0-.1-.105c-.055 0-.12-.063-.144-.14-.025-.077-.09-.14-.145-.14a.103.103 0 0 1-.1-.105.105.105 0 0 0-.105-.105c-.083 0-.105-.101-.105-.49s.022-.49.105-.49c.058 0 .105-.062.105-.14 0-.079.047-.14.107-.14a.172.172 0 0 0 .147-.105c.023-.058.085-.105.138-.105.054 0 .098-.047.098-.105 0-.083.1-.105.49-.105.388 0 .489.022.489.105zm13.244 0c.023.061.128.105.252.105.189 0 .212.023.212.212 0 .124.043.23.105.253.079.03.104.158.104.522 0 .383-.021.483-.104.483a.105.105 0 0 0-.105.105c0 .058-.05.105-.112.105-.061 0-.128.063-.148.14-.026.1-.095.14-.238.14-.133 0-.202.036-.202.105 0 .073-.073.105-.237.105-.147 0-.253-.04-.278-.105-.023-.061-.128-.105-.252-.105-.165 0-.212-.03-.212-.14 0-.093-.047-.14-.14-.14-.109 0-.14-.047-.14-.212 0-.124-.043-.229-.105-.253-.073-.028-.105-.143-.105-.382 0-.258.026-.343.105-.343.059 0 .105-.062.105-.14 0-.077.044-.14.098-.14.053 0 .115-.047.138-.105a.172.172 0 0 1 .147-.105.106.106 0 0 0 .107-.105c0-.083.1-.105.482-.105.364 0 .492.026.523.105zm-31.288.203c0 .107.147.182.355.182.098 0 .134.05.134.181 0 .123.046.194.14.219.123.032.14.095.14.51 0 .415-.017.478-.14.51-.102.027-.14.096-.14.254 0 .194-.021.216-.212.216-.124 0-.229.044-.252.105-.03.08-.158.105-.522.105-.382 0-.482-.022-.482-.105a.105.105 0 0 0-.105-.105.105.105 0 0 1-.105-.105c0-.058-.044-.105-.097-.105-.056 0-.117-.105-.143-.245-.028-.147-.087-.245-.148-.245-.154 0-.127-.395.038-.56a.486.486 0 0 0 .14-.28c0-.078.047-.14.105-.14a.105.105 0 0 0 .105-.105c0-.058.047-.105.105-.105.058 0 .105-.062.105-.14 0-.127.046-.14.49-.14.371 0 .489.023.489.098zm73.315.042c.02.077.087.14.148.14s.112.047.112.105c0 .058.047.105.104.105.058 0 .105.044.105.097 0 .053.063.113.14.133.19.05.216.96.028.96-.06 0-.127.063-.147.14-.02.077-.08.14-.134.14-.053 0-.096.047-.096.105a.107.107 0 0 1-.108.105.172.172 0 0 0-.147.105c-.03.08-.158.105-.522.105-.382 0-.482-.022-.482-.105a.105.105 0 0 0-.105-.105.105.105 0 0 1-.105-.105.105.105 0 0 0-.105-.105c-.058 0-.105-.05-.105-.112 0-.061-.063-.127-.14-.148-.123-.032-.14-.095-.14-.518 0-.435.014-.482.14-.482.078 0 .14-.047.14-.105 0-.058.047-.105.105-.105a.105.105 0 0 0 .105-.105c0-.058.047-.105.105-.105.058 0 .105-.062.105-.14 0-.127.046-.14.481-.14.423 0 .486.017.518.14zm-26.436.7c.02.077.086.14.148.14.06 0 .111.047.111.105 0 .058.047.105.105.105.057 0 .105.05.105.112 0 .06.063.127.14.148.123.032.14.095.14.518 0 .435-.014.482-.14.482-.109 0-.14.047-.14.21 0 .188-.023.21-.217.21-.157 0-.226.038-.252.14-.033.123-.096.14-.518.14-.435 0-.482-.014-.482-.14 0-.077-.031-.14-.07-.14-.088 0-.35-.258-.35-.345 0-.036-.063-.085-.14-.11-.188-.06-.215-.945-.028-.945.062 0 .128-.063.148-.14.02-.077.08-.14.134-.14.053 0 .096-.047.096-.105 0-.07.071-.105.217-.105.157 0 .226-.038.253-.14.03-.115.095-.14.37-.14.274 0 .34.025.37.14zm34.843 0c.025.077.09.14.145.14.055 0 .1.047.1.105 0 .058.047.105.105.105.058 0 .105.05.105.112 0 .06.063.127.14.148.121.032.14.095.14.49 0 .394-.019.458-.14.49-.077.02-.14.08-.14.133 0 .053-.047.097-.105.097a.105.105 0 0 0-.105.105.103.103 0 0 1-.1.105c-.055 0-.12.063-.145.14-.038.12-.105.14-.486.14-.383 0-.447-.019-.478-.14-.02-.077-.087-.14-.148-.14s-.112-.047-.112-.105a.105.105 0 0 0-.105-.105c-.057 0-.104-.05-.104-.112 0-.06-.063-.127-.14-.148-.189-.049-.216-.93-.029-.93.062 0 .128-.063.148-.14.02-.077.08-.14.134-.14a.097.097 0 0 0 .096-.097c0-.053.063-.113.14-.133.077-.02.14-.087.14-.148 0-.187.884-.16.944.028zm-20.431.245c.023.06.127.105.244.105.145 0 .214.04.24.14.02.077.087.14.148.14.062 0 .112.047.112.105 0 .058.047.105.105.105.083 0 .105.101.105.49s-.022.49-.105.49c-.073 0-.105.074-.105.245 0 .198-.027.245-.14.245-.078 0-.14.047-.14.105 0 .087-.124.105-.7.105-.575 0-.699-.018-.699-.105 0-.058-.062-.105-.14-.105-.113 0-.14-.047-.14-.245 0-.171-.031-.245-.104-.245-.084 0-.105-.101-.105-.49s.021-.49.105-.49c.057 0 .105-.044.105-.097 0-.053.063-.113.14-.133.076-.02.14-.087.14-.148 0-.078.064-.112.211-.112.124 0 .229-.044.253-.105.022-.058.126-.105.234-.105.11 0 .213.047.236.105zm-40.844 2.17c.023.061.128.105.252.105.148 0 .212.034.212.111 0 .062.063.129.14.149.1.026.14.095.14.238 0 .133.036.202.105.202.072 0 .105.073.105.237 0 .147-.04.254-.105.278-.061.024-.105.129-.105.253 0 .165-.03.212-.14.212-.093 0-.14.047-.14.14 0 .078-.046.14-.105.14a.105.105 0 0 0-.105.105c0 .083-.1.105-.482.105-.364 0-.492-.026-.522-.105-.024-.061-.128-.105-.252-.105-.166 0-.212-.03-.212-.14 0-.077-.043-.14-.095-.14-.062 0-.11-.122-.137-.35-.057-.483.016-1.05.137-1.05.052 0 .095-.063.095-.14 0-.113.046-.14.244-.14.171 0 .245-.032.245-.105 0-.079.085-.105.343-.105.24 0 .354.031.382.105zm8.437 0c0 .058.047.105.105.105.058 0 .105.048.105.107 0 .06.047.125.105.148.058.022.105.118.105.214 0 .115.047.186.14.21.103.028.14.096.14.266s-.037.238-.14.265c-.102.027-.14.096-.14.253 0 .146-.035.217-.105.217-.058 0-.105.062-.105.14 0 .113-.047.14-.245.14-.17 0-.245.032-.245.105 0 .08-.085.105-.35.105-.263 0-.349-.026-.349-.105 0-.073-.074-.105-.245-.105-.198 0-.244-.027-.244-.14 0-.093-.047-.14-.14-.14-.114 0-.14-.047-.14-.245 0-.171-.032-.245-.105-.245-.074 0-.105-.074-.105-.245 0-.171.031-.245.105-.245.07 0 .105-.07.105-.21 0-.145.034-.21.111-.21.061 0 .128-.063.148-.14.02-.077.08-.14.133-.14.054 0 .097-.047.097-.105 0-.085.117-.105.63-.105.512 0 .63.02.63.105zm21.331 0c0 .058.063.105.14.105.093 0 .14.047.14.14 0 .078.047.14.105.14.066 0 .105.067.105.182 0 .122.045.193.14.218.104.027.14.095.14.269 0 .17-.038.244-.14.276-.098.031-.14.106-.14.25 0 .136-.036.205-.105.205-.058 0-.105.062-.105.14 0 .113-.047.14-.245.14-.17 0-.245.032-.245.105 0 .08-.084.105-.342.105-.24 0-.354-.031-.382-.105-.024-.061-.128-.105-.252-.105-.163 0-.213-.031-.213-.134 0-.209-.075-.356-.182-.356-.075 0-.097-.133-.097-.595 0-.498.018-.595.111-.595.061 0 .128-.063.148-.14.026-.1.096-.14.238-.14.133 0 .202-.036.202-.105 0-.083.101-.105.49-.105.388 0 .49.022.49.105zm7.973.183c0 .107.296.41.402.41.048.001.088.05.088.107 0 .058.047.105.105.105.083 0 .104.101.104.49 0 .39-.021.49-.104.49-.059 0-.105.062-.105.14 0 .079-.047.14-.107.14a.172.172 0 0 0-.148.105c-.022.058-.084.105-.137.105-.054 0-.098.063-.098.14 0 .127-.046.14-.49.14-.442 0-.489-.013-.489-.14 0-.077-.044-.14-.097-.14-.054 0-.116-.047-.138-.105a.172.172 0 0 0-.147-.105c-.06 0-.107-.061-.107-.14 0-.078-.047-.14-.105-.14-.084 0-.105-.1-.105-.49 0-.389.021-.49.105-.49a.105.105 0 0 0 .105-.105c0-.058.048-.105.107-.105a.172.172 0 0 0 .147-.105c.022-.058.084-.105.138-.105.053 0 .097-.063.097-.14 0-.127.047-.14.49-.14.311 0 .489.028.489.078zM5.875 23.8c0 .093.046.14.14.14.077 0 .14.047.14.105 0 .058.047.105.105.105.057 0 .104.05.104.112 0 .06.063.128.14.148.236.061.195 1.21-.042 1.21a.099.099 0 0 0-.098.1c0 .054-.096.12-.214.146-.118.026-.232.092-.253.146-.056.148-1.001.14-1.001-.01a.173.173 0 0 0-.105-.147c-.058-.022-.105-.084-.105-.137 0-.054-.047-.098-.105-.098a.105.105 0 0 1-.105-.105c0-.059-.062-.105-.14-.105-.123 0-.14-.047-.14-.385 0-.29.025-.385.102-.385.06 0 .12-.099.148-.245.026-.14.087-.245.143-.245.053 0 .097-.047.097-.105 0-.07.07-.105.216-.105.158 0 .227-.038.253-.14.03-.116.095-.14.378-.14.295 0 .342.02.342.14zm4.126 0c0 .078.047.14.105.14.058 0 .105.047.105.105 0 .058.062.105.14.105.077 0 .14.046.14.101 0 .056.044.127.098.158.166.095.18 1.211.014 1.211-.053 0-.114.044-.135.098-.02.054-.134.12-.252.146-.118.026-.215.092-.215.147 0 .177-.952.138-1-.04-.02-.078-.086-.14-.147-.14s-.112-.048-.112-.106a.105.105 0 0 0-.105-.105c-.07 0-.105-.07-.105-.212 0-.124-.043-.23-.104-.253-.065-.025-.105-.131-.105-.277 0-.165.032-.238.105-.238s.104-.074.104-.245c0-.171.032-.245.105-.245a.105.105 0 0 0 .105-.105c0-.073.074-.105.245-.105.198 0 .245-.027.245-.14 0-.123.046-.14.385-.14.337 0 .384.017.384.14zm4.057 0c0 .113.046.14.244.14.171 0 .245.032.245.105 0 .058.047.105.105.105.078 0 .105.082.105.312 0 .241.032.33.14.388.077.041.14.118.14.17 0 .051-.063.11-.14.13-.102.027-.14.096-.14.254 0 .145-.034.216-.105.216a.105.105 0 0 0-.105.105c0 .058-.05.105-.111.105-.062 0-.128.063-.148.14-.033.126-.096.14-.623.14-.54 0-.587-.011-.587-.14 0-.078-.046-.14-.104-.14a.105.105 0 0 1-.105-.105c0-.058-.063-.105-.14-.105-.113 0-.14-.047-.14-.245 0-.171-.032-.245-.105-.245s-.105-.074-.105-.245c0-.17.032-.245.105-.245s.105-.074.105-.245c0-.198.027-.245.14-.245.077 0 .14-.047.14-.105 0-.07.07-.105.216-.105.158 0 .226-.038.253-.14.03-.116.095-.14.378-.14.295 0 .342.02.342.14zm16.575 0c0 .093.047.14.14.14.077 0 .14.047.14.105 0 .058.047.105.104.105.059 0 .105.062.105.14 0 .078.047.14.105.14.08 0 .105.085.105.35 0 .264-.025.35-.105.35-.073 0-.105.074-.105.245 0 .171-.031.245-.105.245-.057 0-.104.044-.104.097 0 .056-.105.117-.245.143-.147.028-.245.087-.245.148 0 .077-.095.102-.385.102-.235 0-.384-.03-.384-.078 0-.107-.296-.41-.402-.41-.048-.001-.088-.05-.088-.107a.103.103 0 0 0-.1-.105c-.115 0-.158-.318-.12-.892.016-.259.053-.368.122-.368.054 0 .098-.047.098-.105 0-.07.07-.105.217-.105.157 0 .226-.038.253-.14.032-.123.095-.14.517-.14.435 0 .482.014.482.14zm29.339 0c.031.098.106.14.25.14.135 0 .204.036.204.105 0 .058.062.105.14.105.113 0 .14.047.14.245 0 .171.032.245.105.245s.105.074.105.245c0 .171-.032.245-.105.245s-.105.074-.105.245c0 .198-.027.245-.14.245-.077 0-.14.045-.14.1 0 .054-.096.12-.214.146-.118.026-.232.092-.252.146-.053.137-.722.138-.722 0 0-.055-.105-.116-.245-.143-.147-.027-.245-.086-.245-.147a.104.104 0 0 0-.105-.102c-.07 0-.105-.07-.105-.216 0-.158-.038-.227-.14-.254-.104-.027-.14-.095-.14-.265s.036-.238.14-.265c.102-.027.14-.096.14-.253 0-.146.034-.217.105-.217a.105.105 0 0 0 .105-.105c0-.07.07-.105.216-.105.158 0 .227-.038.253-.14.03-.115.096-.14.374-.14.275 0 .344.026.38.14zm19.198 0c0 .093.046.14.14.14.077 0 .14.047.14.105 0 .058.047.105.104.105.058 0 .105.06.105.132 0 .073.063.148.14.168.121.032.14.096.14.47s-.019.438-.14.47c-.098.025-.14.095-.14.232 0 .163-.037.205-.214.244-.118.026-.232.092-.252.146-.057.148-1.002.14-1.002-.01a.173.173 0 0 0-.105-.147c-.058-.022-.105-.084-.105-.137 0-.054-.047-.098-.105-.098a.105.105 0 0 1-.105-.105c0-.059-.062-.105-.14-.105-.123 0-.14-.047-.14-.385 0-.29.025-.385.102-.385.06 0 .12-.099.148-.245.026-.14.087-.245.143-.245.053 0 .097-.047.097-.105 0-.07.07-.105.216-.105.158 0 .227-.038.253-.14.03-.116.096-.14.378-.14.295 0 .342.02.342.14zm10.35 0c0 .113.047.14.246.14.17 0 .244.032.244.105 0 .058.047.105.105.105.058 0 .105.062.105.14 0 .093.047.14.14.14.129 0 .14.047.14.595 0 .549-.011.595-.14.595-.078 0-.14.047-.14.105a.105.105 0 0 1-.105.105c-.058 0-.105.062-.105.14 0 .121-.047.14-.35.14-.313 0-.35.016-.359.158l-.01.157-.03-.157c-.024-.127-.076-.158-.27-.158-.16 0-.24-.033-.24-.1 0-.054-.094-.12-.21-.145-.174-.038-.21-.08-.21-.25 0-.159-.031-.205-.14-.205-.122 0-.14-.047-.14-.385s.018-.385.14-.385c.114 0 .14-.047.14-.245 0-.171.032-.245.105-.245a.105.105 0 0 0 .106-.105c0-.073.073-.105.244-.105.198 0 .245-.027.245-.14 0-.113.047-.14.245-.14s.245.027.245.14zm21.157 0c.031.098.106.14.249.14.136 0 .205.036.205.105 0 .058.063.105.14.105.114 0 .14.047.14.245 0 .171.032.245.105.245.081 0 .105.09.105.385 0 .296-.024.385-.105.385a.105.105 0 0 0-.105.105c0 .058-.062.105-.14.105-.077 0-.14.044-.14.098 0 .053-.047.115-.105.137a.173.173 0 0 0-.104.148c0 .086-.097.107-.49.107-.371 0-.49-.024-.49-.097 0-.056-.104-.117-.244-.144-.214-.04-.245-.071-.245-.252 0-.137-.035-.207-.105-.207-.083 0-.105-.1-.105-.483 0-.364.026-.492.105-.522a.172.172 0 0 0 .105-.148c0-.059.047-.107.105-.107a.106.106 0 0 0 .105-.105c0-.058.062-.105.14-.105.093 0 .139-.047.139-.14 0-.121.047-.14.345-.14.284 0 .353.025.39.14zM7.344 34.405c0 .083-.101.105-.49.105-.443 0-.49.013-.49.14 0 .125-.046.14-.447.14-.333 0-.457.027-.487.105-.024.062-.128.105-.252.105-.142 0-.212.035-.212.105 0 .058-.06.105-.135.105-.208 0-.355.075-.355.182 0 .065-.082.098-.245.098-.17 0-.244.032-.244.105 0 .058-.05.105-.112.105-.061 0-.128.063-.148.14-.02.077-.08.14-.133.14-.053 0-.097.047-.097.105 0 .07-.07.105-.217.105-.157 0-.226.038-.253.14-.02.077-.08.14-.133.14-.053 0-.097.047-.097.105 0 .058-.062.105-.14.105-.093 0-.14.047-.14.14 0 .078-.046.14-.104.14-.058 0-.105.044-.105.097 0 .053-.063.113-.14.133-.077.02-.14.087-.14.149 0 .061-.047.11-.105.11-.069 0-.105.07-.105.203 0 .143-.04.212-.14.238-.077.02-.14.087-.14.148 0 .062-.047.112-.104.112-.073 0-.105.073-.105.237 0 .178-.035.246-.14.273-.093.025-.14.096-.14.211 0 .096-.047.192-.105.214-.061.024-.105.129-.105.253 0 .142-.035.212-.105.212-.072 0-.105.073-.105.237 0 .178-.034.246-.14.273-.116.031-.14.096-.14.393 0 .27-.025.357-.104.357-.085 0-.105.113-.105.595 0 .35-.029.595-.07.595-.046 0-.07.887-.07 2.52s.024 2.52.07 2.52c.04 0 .07.2.07.457 0 .342.026.468.105.498.072.027.105.14.105.354 0 .255.026.321.14.35.105.028.14.096.14.274 0 .164.032.237.104.237.07 0 .105.07.105.212 0 .124.044.23.105.253.058.022.105.118.105.214 0 .115.047.187.14.21.105.028.14.096.14.274 0 .164.032.237.105.237.057 0 .105.05.105.112 0 .061.062.128.14.148.097.025.14.095.14.23 0 .109.046.213.104.235a.172.172 0 0 1 .105.148c0 .06.061.107.14.107.093 0 .14.047.14.14 0 .078.046.14.105.14.058 0 .105.047.105.105 0 .058.062.105.14.105.109 0 .14.047.14.212 0 .124.043.23.105.253.057.022.104.084.104.138 0 .053.063.097.14.097.08 0 .14.047.14.107s.047.126.105.148c.058.022.105.084.105.138 0 .053.044.097.097.097.053 0 .113.063.133.14.02.077.087.14.148.14s.112.047.112.105c0 .058.043.105.097.105.054 0 .116.047.138.105a.172.172 0 0 0 .147.105c.059 0 .107.048.107.107 0 .06.047.126.105.148.058.022.105.084.105.137 0 .065.082.098.245.098.198 0 .244.027.244.14 0 .078.047.14.105.14.058 0 .105.047.105.105 0 .059.062.105.14.105.093 0 .14.047.14.14 0 .078.047.14.105.14.058 0 .105.047.105.105 0 .059.062.105.14.105.079 0 .14.047.14.107s.047.126.105.148c.057.022.104.084.104.138 0 .053.063.097.14.097.078 0 .14.047.14.105 0 .07.07.105.21.105.163 0 .21.031.21.14 0 .093.046.14.14.14.077 0 .14.047.14.105 0 .058.047.105.104.105.059 0 .105.062.105.14 0 .094.047.14.14.14.078 0 .14.047.14.105 0 .058.047.105.105.105.07 0 .105.07.105.217 0 .157.038.226.14.253.077.02.14.08.14.133 0 .053.047.097.105.097.058 0 .104.062.104.14 0 .078.047.14.105.14.07 0 .105.07.105.217 0 .157.038.226.14.253.105.027.14.095.14.273 0 .18.03.237.122.237.111 0 .12.078.101.84-.017.675-.041.84-.122.84-.074 0-.101.09-.101.342 0 .283-.024.348-.14.379-.077.02-.14.086-.14.148 0 .06-.047.111-.105.111a.105.105 0 0 0-.105.105.105.105 0 0 1-.104.105.103.103 0 0 0-.105.1c0 .056-.063.12-.14.145-.077.024-.14.09-.14.145 0 .055-.047.1-.105.1a.105.105 0 0 0-.105.105c0 .073-.074.105-.245.105-.198 0-.244.027-.244.14 0 .127-.047.14-.49.14-.389 0-.49.022-.49.105 0 .085-.112.105-.587.105-.457 0-.596-.023-.627-.105-.031-.081-.166-.105-.594-.105-.494 0-.557-.015-.59-.14-.027-.102-.095-.14-.253-.14-.146 0-.216-.034-.216-.105 0-.073-.073-.105-.237-.105-.178 0-.246-.035-.273-.14-.026-.102-.095-.14-.253-.14-.146 0-.216-.034-.216-.105 0-.073-.074-.105-.245-.105-.173 0-.245-.031-.245-.107a.172.172 0 0 0-.105-.148c-.057-.022-.105-.084-.105-.137 0-.054-.062-.098-.14-.098-.077 0-.14-.047-.14-.105 0-.073-.073-.105-.244-.105-.198 0-.245-.026-.245-.14 0-.078-.046-.14-.105-.14a.105.105 0 0 1-.105-.105c0-.073-.074-.105-.244-.105H.35v3.85c0 3.804.002 3.85.14 3.85.077 0 .14.047.14.105 0 .058.047.105.104.105.058 0 .105.046.105.102 0 .06.098.12.245.148.14.026.245.087.245.143 0 .064.082.097.245.097.17 0 .244.032.244.105 0 .08.085.105.342.105.282 0 .348.024.378.14.032.122.095.14.498.14.363 0 .46.022.46.105 0 .085.114.105.595.105.35 0 .595.029.595.07 0 .1.192.086.233-.018.029-.07.037-.07.041 0 .004.068.383.088 1.643.088 1.245 0 1.646-.02 1.673-.088.029-.07.037-.07.041 0 .006.104.215.12.215.018 0-.041.245-.07.595-.07.482 0 .594-.02.594-.105 0-.083.101-.105.49-.105.443 0 .49-.013.49-.14 0-.121.046-.14.35-.14.263 0 .349-.026.349-.105 0-.073.074-.105.245-.105.17 0 .244-.032.244-.105 0-.058.06-.105.135-.105.208 0 .355-.075.355-.182 0-.054.047-.098.105-.098a.105.105 0 0 0 .105-.105c0-.07.07-.105.216-.105.158 0 .226-.038.253-.14.02-.077.096-.14.168-.14.073 0 .132-.047.132-.105 0-.058.047-.105.105-.105.058 0 .105-.062.105-.14 0-.113.047-.14.245-.14.162 0 .245-.033.245-.097 0-.054.047-.116.104-.138.058-.022.105-.085.105-.14 0-.054.063-.115.14-.135.095-.025.14-.096.14-.218 0-.115.039-.182.105-.182.058 0 .105-.062.105-.14 0-.093.046-.14.14-.14.078 0 .14-.046.14-.105 0-.058.047-.105.105-.105.072 0 .104-.073.104-.237 0-.178.035-.246.14-.273.077-.02.14-.087.14-.148 0-.062.047-.112.105-.112.073 0 .105-.074.105-.245 0-.171.031-.245.105-.245.08 0 .105-.085.105-.35 0-.303.018-.35.14-.35.113 0 .14-.046.14-.245 0-.171.031-.245.105-.245.082 0 .104-.097.104-.45 0-.389.02-.456.14-.495.13-.041.14-.106.14-.845 0-.664.018-.8.105-.8.09 0 .105-.222.105-1.575S16.91 58.1 16.82 58.1c-.086 0-.105-.125-.105-.706 0-.648-.012-.71-.14-.744-.121-.032-.14-.095-.14-.483 0-.35-.022-.447-.104-.447-.074 0-.105-.074-.105-.245 0-.198-.027-.245-.14-.245-.114 0-.14-.047-.14-.245 0-.171-.032-.245-.105-.245-.067 0-.105-.067-.105-.182 0-.191-.252-.514-.402-.517-.048 0-.088-.064-.088-.14 0-.079-.046-.14-.104-.14a.106.106 0 0 1-.105-.106c0-.058-.062-.105-.14-.105-.094 0-.14-.047-.14-.14 0-.078-.047-.14-.105-.14a.105.105 0 0 1-.105-.105c0-.058-.062-.105-.14-.105-.093 0-.14-.047-.14-.14 0-.078-.046-.14-.105-.14-.069 0-.104-.07-.104-.202 0-.143-.041-.212-.14-.238-.077-.02-.14-.087-.14-.148 0-.062-.048-.112-.105-.112a.105.105 0 0 1-.105-.105.103.103 0 0 0-.1-.105c-.055 0-.12-.063-.145-.14-.024-.077-.09-.14-.144-.14a.103.103 0 0 1-.1-.105.105.105 0 0 0-.106-.105.103.103 0 0 1-.104-.1c0-.055-.063-.12-.14-.145-.077-.024-.14-.09-.14-.145 0-.055-.047-.1-.105-.1-.058 0-.105-.044-.105-.097 0-.053-.063-.113-.14-.133-.077-.02-.14-.087-.14-.148 0-.062-.047-.112-.105-.112-.057 0-.105-.044-.105-.097 0-.053-.063-.113-.14-.133-.076-.02-.14-.087-.14-.148 0-.062-.047-.112-.104-.112a.105.105 0 0 1-.105-.105.103.103 0 0 0-.1-.105c-.055 0-.12-.063-.145-.14-.024-.077-.09-.14-.144-.14a.103.103 0 0 1-.1-.105.106.106 0 0 0-.106-.105.103.103 0 0 1-.104-.1c0-.056-.063-.12-.14-.145-.077-.024-.14-.09-.14-.145 0-.055-.047-.1-.105-.1-.058 0-.105-.043-.105-.097 0-.053-.063-.113-.14-.133-.077-.02-.14-.087-.14-.148 0-.062-.047-.112-.105-.112a.106.106 0 0 1-.105-.105.103.103 0 0 0-.1-.105c-.055 0-.12-.063-.144-.14-.025-.077-.09-.14-.145-.14a.103.103 0 0 1-.1-.105.105.105 0 0 0-.105-.105.103.103 0 0 1-.105-.1c0-.055-.063-.12-.14-.145-.077-.024-.14-.09-.14-.144 0-.056-.047-.101-.105-.101a.105.105 0 0 1-.105-.105c0-.058-.043-.105-.096-.105-.054 0-.113-.063-.134-.14-.02-.077-.086-.14-.148-.14-.06 0-.111-.047-.111-.105a.106.106 0 0 0-.105-.105c-.073 0-.105-.074-.105-.245 0-.198-.027-.245-.14-.245-.121 0-.14-.047-.14-.352 0-.249-.03-.364-.105-.393-.156-.06-.156-1.915 0-1.915.073 0 .105-.073.105-.237 0-.178.035-.246.14-.273.102-.027.14-.096.14-.253 0-.146.034-.217.105-.217.058 0 .105-.044.105-.097 0-.053.063-.113.14-.133.077-.02.14-.087.14-.148 0-.062.047-.112.105-.112a.105.105 0 0 0 .104-.105c0-.073.074-.105.245-.105.198 0 .245-.026.245-.14 0-.121.047-.14.35-.14.264 0 .35-.026.35-.105 0-.087.128-.105.734-.105s.734.018.734.105c0 .083.101.105.49.105.443 0 .49.013.49.14 0 .121.046.14.349.14.264 0 .35.026.35.105 0 .073.073.105.236.105.178 0 .246.035.273.14.027.102.096.14.253.14.146 0 .217.034.217.105 0 .08.084.105.341.105.283 0 .348.024.378.14.03.114.096.14.358.14h.321v-3.255c0-2.725-.015-3.255-.096-3.255-.054 0-.114-.063-.134-.14-.026-.102-.095-.14-.253-.14-.145 0-.216-.034-.216-.105 0-.072-.073-.105-.237-.105-.177 0-.245-.035-.273-.14-.026-.102-.095-.14-.253-.14-.145 0-.216-.034-.216-.105 0-.08-.085-.105-.35-.105-.264 0-.35-.026-.35-.105s-.084-.105-.34-.105c-.284 0-.349-.024-.38-.14-.032-.126-.095-.14-.637-.14-.487 0-.6-.02-.6-.105 0-.09-.245-.105-1.784-.105-1.539 0-1.783.015-1.783.105zm10.07 7.105h5.316v28.14h7.413V41.51h5.315v-6.72H17.415v6.72zm19.476-6.633c-.019.048-.025 7.884-.016 17.413l.018 17.325 7.239.036v-6.403c0-5.663.012-6.399.105-6.363.06.023.105.128.105.245 0 .112.043.221.096.241.054.021.117.19.143.383.03.236.078.346.148.346.07 0 .102.077.102.245 0 .171.032.245.105.245s.105.073.105.24c0 .308.06.46.182.46.065 0 .098.082.098.245 0 .171.032.245.105.245.078 0 .105.082.105.322 0 .262.025.328.14.358.105.027.14.095.14.273 0 .164.032.237.104.237.08 0 .105.086.105.35s.026.35.105.35c.058 0 .105.06.105.134 0 .209.075.356.182.356.07 0 .098.098.098.35 0 .265.025.35.105.35.073 0 .105.074.105.245 0 .198.026.245.14.245.12 0 .14.047.14.352 0 .249.03.364.104.393.061.023.105.128.105.249 0 .15.04.22.14.246.116.03.14.095.14.378 0 .257.026.342.105.342.073 0 .105.074.105.245 0 .163.032.245.097.245.122 0 .182.153.182.46 0 .167.033.24.105.24.074 0 .105.074.105.245 0 .171.032.245.105.245.068 0 .105.069.106.193.001.3.076.507.182.507.064 0 .097.083.097.245 0 .171.031.245.105.245.078 0 .105.082.105.322 0 .263.025.328.14.358.105.027.14.095.14.273 0 .164.032.237.104.237.059 0 .105.062.105.14 0 .138.047.14 3.847.14h3.846v-.49c0-.389-.021-.49-.105-.49-.07 0-.104-.07-.104-.216 0-.158-.039-.227-.14-.254-.116-.03-.14-.095-.14-.378 0-.257-.026-.342-.105-.342-.073 0-.105-.074-.105-.245 0-.198-.027-.245-.14-.245-.121 0-.14-.046-.14-.35 0-.264-.025-.35-.105-.35-.073 0-.105-.074-.105-.245 0-.198-.026-.245-.14-.245-.113 0-.14-.046-.14-.245 0-.171-.031-.245-.104-.245-.08 0-.105-.085-.105-.35 0-.264-.026-.35-.105-.35-.058 0-.105-.06-.105-.134 0-.209-.075-.356-.182-.356-.065 0-.098-.082-.098-.245 0-.171-.031-.245-.105-.245-.072 0-.105-.073-.105-.24 0-.308-.06-.46-.182-.46-.065 0-.097-.082-.097-.245 0-.171-.032-.245-.105-.245s-.105-.074-.105-.245c0-.198-.027-.245-.14-.245-.121 0-.14-.047-.14-.35 0-.264-.025-.35-.105-.35-.073 0-.105-.074-.105-.245 0-.171-.031-.245-.105-.245-.07 0-.104-.07-.104-.217 0-.157-.038-.226-.14-.253-.116-.03-.14-.095-.14-.378 0-.257-.026-.342-.105-.342-.07 0-.105-.07-.105-.217 0-.157-.038-.226-.14-.253-.105-.027-.14-.095-.14-.273 0-.164-.032-.237-.105-.237-.078 0-.105-.082-.105-.322 0-.262-.025-.328-.14-.358-.105-.027-.14-.095-.14-.273 0-.164-.032-.237-.104-.237-.074 0-.105-.074-.105-.245 0-.198-.027-.245-.14-.245-.121 0-.14-.046-.14-.35 0-.264-.026-.35-.105-.35-.073 0-.105-.074-.105-.245 0-.171-.031-.245-.105-.245-.073 0-.105-.074-.105-.245 0-.198-.026-.245-.14-.245-.12 0-.14-.047-.14-.343 0-.24-.03-.354-.104-.382-.062-.024-.105-.129-.105-.253 0-.165-.03-.212-.14-.212-.093 0-.14-.047-.14-.14 0-.121.047-.14.352-.14.248 0 .364-.03.392-.105.023-.06.127-.105.243-.105.155 0 .202-.032.202-.14 0-.113.047-.14.245-.14.17 0 .245-.032.245-.105 0-.058.062-.105.14-.105.093 0 .14-.047.14-.14 0-.11.046-.14.211-.14.124 0 .23-.043.253-.105.022-.058.084-.105.137-.105.054 0 .098-.063.098-.14 0-.093.047-.14.14-.14.077 0 .14-.046.14-.105 0-.058.047-.105.104-.105a.105.105 0 0 0 .105-.105c0-.058.048-.105.105-.105.059 0 .105-.062.105-.14 0-.093.047-.14.14-.14.077 0 .14-.044.14-.097 0-.054.047-.116.105-.138.061-.024.105-.129.105-.253 0-.165.03-.212.14-.212.093 0 .14-.047.14-.14 0-.078.046-.14.105-.14.073 0 .104-.074.104-.245 0-.162.033-.245.097-.245.106 0 .18-.207.182-.508 0-.123.038-.192.106-.192.08 0 .105-.086.105-.35s.026-.35.105-.35c.083 0 .105-.101.105-.49 0-.443.013-.49.14-.49.133 0 .14-.047.14-.98 0-.824.016-.98.104-.98.089 0 .105-.163.105-1.05 0-.886-.016-1.05-.105-1.05-.088 0-.105-.167-.105-1.085 0-1.038-.006-1.085-.14-1.085-.126 0-.14-.047-.14-.49 0-.389-.021-.49-.104-.49-.08 0-.105-.086-.105-.35s-.026-.35-.105-.35c-.07 0-.105-.07-.105-.216 0-.158-.038-.227-.14-.254-.105-.027-.14-.095-.14-.273 0-.164-.032-.237-.105-.237-.057 0-.105-.06-.105-.134 0-.209-.075-.356-.182-.356-.053 0-.097-.047-.097-.105a.106.106 0 0 0-.105-.105c-.059 0-.105-.062-.105-.14 0-.093-.047-.14-.14-.14-.078 0-.14-.046-.14-.105a.105.105 0 0 0-.105-.105c-.058 0-.105-.062-.105-.14 0-.078-.046-.14-.105-.14a.105.105 0 0 1-.104-.105c0-.058-.063-.105-.14-.105-.078 0-.14-.047-.14-.105 0-.058-.044-.105-.097-.105-.053 0-.113-.063-.133-.14-.02-.077-.087-.14-.148-.14-.062 0-.112-.047-.112-.105 0-.073-.074-.105-.244-.105-.199 0-.245-.027-.245-.14 0-.113-.047-.14-.245-.14-.171 0-.245-.032-.245-.105 0-.07-.069-.105-.202-.105-.142 0-.212-.04-.238-.14-.027-.102-.095-.14-.255-.14-.13 0-.235-.043-.259-.105-.028-.073-.143-.105-.382-.105-.244 0-.343-.028-.343-.096 0-.116-.301-.184-.813-.184-.287 0-.375-.025-.375-.105 0-.086-.124-.105-.692-.105-.55 0-.7-.021-.733-.105-.055-.144-10.518-.161-10.572-.018zm20.911 0c-.018.048-.025 7.884-.015 17.413l.018 17.325 15.351.036v-7.21h-8.183v-7.49h7.274v-6.93h-7.274v-6.51h8.183V34.79h-7.66c-6.064 0-7.668.018-7.694.087zm24.026.263c0 .265-.025.35-.105.35-.084 0-.104.113-.104.595 0 .548-.011.595-.14.595-.127 0-.14.047-.14.49 0 .389-.022.49-.105.49-.083 0-.105.101-.105.49 0 .443-.013.49-.14.49-.125 0-.14.047-.14.457 0 .342-.026.468-.105.498-.081.031-.105.17-.105.628 0 .54-.01.587-.14.587-.125 0-.14.047-.14.455 0 .358-.022.455-.104.455-.083 0-.105.101-.105.49 0 .366-.024.49-.095.49-.066 0-.108.142-.139.469-.028.311-.079.489-.15.529-.08.045-.106.19-.106.615 0 .449-.02.557-.105.557-.083 0-.104.101-.104.49 0 .444-.014.49-.14.49s-.14.047-.14.447c0 .334-.027.458-.105.489-.078.03-.105.154-.105.489 0 .396-.017.453-.146.487-.133.035-.144.08-.122.522.019.397.004.484-.082.478-.084-.006-.109.11-.125.57-.015.43-.045.578-.115.578-.132 0-.18.16-.18.6 0 .291-.024.38-.104.38-.084 0-.105.101-.105.49s-.022.49-.105.49c-.082 0-.105.097-.105.45 0 .39-.019.457-.14.495-.125.04-.14.106-.14.635 0 .478-.02.59-.105.59-.082 0-.105.096-.105.447 0 .388-.018.452-.14.483-.122.032-.14.096-.14.499 0 .363-.022.46-.104.46-.083 0-.105.102-.105.491 0 .37-.024.49-.097.49-.128 0-.18.22-.182.753 0 .341-.024.437-.106.437-.083 0-.105.101-.105.49s-.021.49-.105.49c-.082 0-.104.096-.104.447 0 .388-.019.452-.14.483-.122.032-.14.096-.14.499 0 .363-.023.461-.105.461-.083 0-.105.1-.105.482 0 .423-.017.486-.14.518-.125.033-.14.096-.14.604 0 .457-.02.566-.105.566-.083 0-.105.1-.105.482 0 .423-.017.486-.14.518-.122.032-.14.096-.14.498 0 .364-.022.462-.104.462-.082 0-.105.095-.105.43 0 .32-.03.451-.116.515-.086.062-.124.232-.149.655-.024.42-.058.57-.129.57-.071 0-.096.116-.096.455 0 .358-.022.455-.105.455-.083 0-.105.1-.105.482 0 .429-.016.486-.145.52-.11.029-.14.084-.122.235l.023.198 7.658.036v-.735c0-.69.009-.736.14-.736.129 0 .14-.047.14-.587 0-.458.023-.597.105-.628.083-.032.104-.183.104-.743 0-.577.019-.702.105-.702.085 0 .105-.112.105-.587 0-.528.014-.59.14-.623.114-.03.14-.096.14-.358v-.322h6.504v.245c0 .171.032.245.105.245.085 0 .105.113.105.595 0 .455.022.595.095.595.095 0 .183.46.184.963 0 .155.034.227.106.227.085 0 .105.113.105.595s.02.595.104.595c.086 0 .105.114.105.602 0 .542.014.605.14.638.116.03.14.095.14.378v.342h7.414v-.49c0-.389-.022-.49-.105-.49-.083 0-.105-.098-.105-.462 0-.402-.018-.466-.14-.498-.126-.032-.14-.095-.14-.623 0-.475-.02-.587-.105-.587-.082 0-.105-.097-.105-.457 0-.342-.026-.468-.105-.498-.079-.03-.105-.158-.105-.517 0-.538-.041-.698-.182-.698-.073 0-.097-.113-.097-.455 0-.358-.023-.455-.105-.455-.085 0-.105-.109-.105-.56 0-.483-.02-.57-.14-.646-.116-.072-.14-.163-.14-.526 0-.343-.023-.438-.105-.438-.084 0-.105-.11-.105-.566 0-.508-.014-.57-.14-.603-.122-.033-.14-.096-.14-.519 0-.382-.021-.482-.105-.482-.083 0-.104-.101-.104-.49s-.022-.49-.105-.49c-.085 0-.105-.11-.105-.567 0-.507-.015-.57-.14-.603-.123-.032-.14-.095-.14-.518 0-.382-.022-.482-.105-.482-.083 0-.105-.1-.105-.484 0-.546-.04-.706-.182-.706-.074 0-.098-.118-.098-.49 0-.389-.021-.49-.104-.49-.085 0-.105-.11-.105-.566 0-.508-.015-.571-.14-.604-.123-.032-.14-.095-.14-.518 0-.382-.022-.482-.105-.482-.083 0-.105-.098-.105-.462 0-.402-.018-.466-.14-.498-.126-.033-.14-.095-.14-.623 0-.475-.02-.587-.104-.587-.083 0-.105-.096-.105-.447 0-.334-.027-.458-.105-.488-.08-.03-.105-.16-.105-.527 0-.548-.041-.708-.183-.708-.073 0-.097-.113-.097-.455 0-.358-.022-.455-.105-.455-.084 0-.105-.109-.105-.558 0-.485-.018-.566-.14-.632-.117-.063-.14-.146-.14-.527 0-.356-.022-.453-.105-.453-.084 0-.104-.11-.104-.566 0-.508-.015-.571-.14-.603-.123-.033-.14-.096-.14-.519 0-.382-.022-.482-.105-.482-.083 0-.105-.101-.105-.49s-.022-.49-.105-.49c-.084 0-.105-.11-.105-.567 0-.507-.014-.57-.14-.603-.122-.032-.14-.095-.14-.518 0-.382-.021-.482-.104-.482-.085 0-.105-.11-.105-.566 0-.508-.015-.571-.14-.603-.123-.033-.14-.096-.14-.519 0-.382-.022-.482-.105-.482-.084 0-.105-.11-.105-.566 0-.508-.014-.57-.14-.604-.115-.03-.14-.095-.14-.378v-.342h-7.903v.35zM98.683 69.65l7.168-.036.018-7.682c.016-6.765.03-7.683.122-7.683.078 0 .105.082.105.317 0 .218.033.33.105.358.057.022.105.097.105.167 0 .202.076.348.182.348.07 0 .097.097.097.35 0 .265.026.35.105.35.074 0 .105.074.105.245 0 .198.027.245.14.245.113 0 .14.047.14.245 0 .171.032.245.105.245.079 0 .105.086.105.35 0 .303.018.35.14.35.113 0 .14.047.14.245 0 .171.031.245.105.245.079 0 .104.086.104.357 0 .297.024.362.14.393.105.027.14.095.14.273 0 .164.032.237.105.237.078 0 .105.082.105.317 0 .218.033.33.105.358.061.023.105.128.105.25 0 .15.039.219.14.245.113.03.14.095.14.346 0 .21.033.321.104.349.061.023.105.128.105.249 0 .15.04.22.14.246.105.027.14.095.14.273 0 .164.032.237.105.237.079 0 .105.086.105.35 0 .303.019.35.14.35.113 0 .14.047.14.245 0 .171.031.245.105.245.079 0 .104.086.104.35s.026.35.106.35c.07 0 .104.07.104.217 0 .157.038.226.14.253.116.03.14.095.14.378 0 .258.026.342.105.342.073 0 .105.074.105.245 0 .198.026.245.14.245.121 0 .14.047.14.35 0 .264.025.35.104.35.074 0 .105.074.105.245 0 .198.027.245.14.245.114 0 .14.047.14.245 0 .171.032.245.105.245.079 0 .105.086.105.352 0 .238.032.365.098.39.054.021.118.146.143.278.026.138.087.24.143.24.067 0 .105.105.119.333l.022.332 4.034.018c3.885.018 4.035.013 4.075-.112.054-.172-.021-.36-.144-.36-.07 0-.098-.098-.098-.35 0-.265-.025-.35-.104-.35-.074 0-.105-.075-.105-.246 0-.198-.027-.245-.14-.245-.121 0-.14-.047-.14-.35 0-.264-.026-.35-.105-.35-.073 0-.105-.074-.105-.245 0-.17-.032-.245-.105-.245-.075 0-.105-.077-.105-.274 0-.342-.056-.496-.182-.496-.062 0-.097-.077-.097-.212 0-.124-.044-.229-.105-.253-.072-.027-.105-.14-.105-.354 0-.255-.026-.32-.14-.35-.105-.028-.14-.096-.14-.274 0-.164-.032-.237-.105-.237-.078 0-.105-.082-.105-.321 0-.263-.026-.329-.14-.358-.105-.028-.139-.096-.139-.274 0-.164-.033-.237-.106-.237-.079 0-.104-.086-.104-.35s-.026-.35-.105-.35c-.071 0-.105-.07-.105-.216 0-.158-.038-.227-.14-.254-.116-.03-.14-.095-.14-.378 0-.257-.026-.342-.105-.342-.073 0-.105-.074-.105-.245 0-.198-.026-.245-.139-.245-.121 0-.141-.046-.141-.343 0-.24-.031-.354-.104-.382-.062-.024-.105-.129-.105-.253 0-.165-.031-.212-.14-.212-.123 0-.14-.047-.14-.385 0-.295-.025-.385-.105-.385-.071 0-.105-.07-.105-.217 0-.157-.038-.226-.14-.253-.115-.03-.14-.095-.14-.378 0-.257-.026-.342-.105-.342-.073 0-.104-.074-.104-.245 0-.171-.032-.245-.105-.245s-.105-.073-.105-.24c0-.308-.06-.46-.183-.46-.064 0-.097-.082-.097-.245 0-.17-.032-.245-.105-.245-.078 0-.105-.082-.105-.322 0-.262-.026-.328-.14-.358-.105-.027-.139-.095-.139-.273 0-.164-.033-.237-.106-.237-.079 0-.104-.086-.104-.35 0-.303-.019-.35-.14-.35-.122 0-.14-.047-.14-.352 0-.249-.031-.364-.105-.393-.06-.023-.105-.127-.105-.245 0-.117-.045-.222-.105-.244-.058-.023-.105-.124-.106-.226-.001-.293-.077-.5-.182-.5-.064 0-.097-.083-.097-.245 0-.171-.031-.245-.104-.245s-.105-.073-.105-.24c0-.308-.061-.46-.183-.46-.165 0-.127-.466.043-.51.102-.027.14-.096.14-.254 0-.145.034-.216.105-.216.072 0 .104-.073.104-.237 0-.178.035-.246.14-.273.101-.026.14-.096.14-.246 0-.121.044-.226.105-.25.072-.027.105-.14.105-.357 0-.235.027-.317.105-.317.073 0 .105-.074.105-.245 0-.198.026-.245.14-.245.113 0 .14-.047.14-.245 0-.171.031-.245.104-.245s.106-.073.106-.237c0-.178.034-.246.139-.273.102-.027.14-.096.14-.253 0-.146.034-.217.105-.217.07 0 .105-.07.105-.207 0-.116.049-.233.112-.269.068-.038.127-.192.149-.388.024-.212.071-.326.133-.326.063 0 .096-.084.096-.245 0-.171.031-.245.104-.245.07 0 .105-.07.105-.205 0-.144.042-.219.14-.25.097-.03.14-.106.14-.242 0-.111.046-.215.105-.238.062-.024.105-.129.105-.253 0-.134.036-.212.097-.212.122 0 .183-.152.183-.46 0-.167.032-.24.105-.24.072 0 .104-.073.104-.237 0-.178.035-.246.141-.273.101-.027.139-.096.139-.253 0-.146.034-.217.105-.217.074 0 .105-.074.105-.245 0-.163.033-.245.098-.245.106 0 .182-.147.182-.356 0-.074.047-.134.105-.134.073 0 .105-.074.105-.245 0-.171.031-.245.104-.245.08 0 .106-.085.106-.35 0-.303.018-.35.139-.35.114 0 .14-.047.14-.245 0-.17.032-.245.105-.245s.105-.074.105-.245c0-.198.027-.245.14-.245.113 0 .14-.047.14-.245 0-.171.031-.245.105-.245.073 0 .105-.074.105-.245 0-.168.032-.245.101-.245.061 0 .121-.098.148-.245.026-.14.088-.245.143-.245.07 0 .097-.098.097-.35 0-.264.026-.35.105-.35.073 0 .105-.074.105-.245 0-.198.027-.245.14-.245.113 0 .14-.047.14-.245 0-.171.031-.245.105-.245.07 0 .104-.07.104-.21v-.21h-7.902v.203c0 .11-.045.219-.099.24-.054.02-.119.132-.144.246-.025.115-.091.227-.146.248-.057.022-.101.13-.101.251 0 .142-.035.212-.105.212-.073 0-.105.073-.105.237 0 .178-.035.246-.14.273-.114.03-.14.096-.14.358 0 .24-.026.322-.105.322-.072 0-.104.073-.104.237 0 .178-.035.246-.14.273-.102.027-.14.096-.14.253 0 .146-.034.217-.105.217-.073 0-.105.074-.105.245 0 .168-.032.245-.102.245-.06 0-.12.097-.146.24-.025.132-.09.257-.144.278-.063.025-.098.147-.098.355 0 .235-.027.317-.104.317-.074 0-.105.074-.105.245 0 .199-.027.245-.14.245-.113 0-.14.047-.14.245 0 .171-.032.245-.105.245s-.105.073-.105.237c0 .178-.035.246-.14.273-.102.027-.14.096-.14.254 0 .145-.034.216-.105.216-.078 0-.104.085-.104.342 0 .283-.025.348-.14.378-.102.027-.14.096-.14.254 0 .145-.034.216-.105.216-.073 0-.105.074-.105.245 0 .171-.032.245-.105.245s-.105.074-.105.245c0 .198-.026.245-.14.245-.113 0-.14.047-.14.245 0 .171-.031.245-.104.245-.08 0-.105.086-.105.35 0 .303-.019.35-.14.35-.114 0-.14.047-.14.245 0 .171-.032.245-.105.245s-.105.073-.105.237c0 .178-.035.246-.14.273-.102.027-.14.096-.14.254 0 .145-.034.216-.105.216-.066 0-.105.067-.105.185 0 .102-.05.222-.111.267-.063.046-.129.226-.15.41-.023.213-.07.328-.132.328-.059 0-.096.078-.096.203 0 .115-.045.22-.105.242-.093.036-.105-.75-.105-6.817V34.79h-7.203V69.65zM46.019 40.635c0 .08.085.105.345.105.284 0 .353.025.39.14.03.096.105.14.242.14.11 0 .215.046.237.105.024.062.129.105.253.105.165 0 .212.03.212.14 0 .093.046.14.14.14.077 0 .14.047.14.105 0 .058.047.105.104.105.059 0 .105.062.105.14 0 .078.047.14.105.14.07 0 .105.07.105.217 0 .157.038.226.14.253.116.03.14.095.14.378 0 .257.026.342.105.342.09 0 .105.244.105 1.778 0 1.515-.016 1.783-.105 1.817-.074.029-.105.145-.105.393 0 .305-.019.352-.14.352-.113 0-.14.047-.14.245 0 .171-.031.245-.105.245a.105.105 0 0 0-.105.105.106.106 0 0 1-.105.105.103.103 0 0 0-.105.1c0 .056-.063.12-.14.145-.076.024-.14.09-.14.145 0 .055-.047.1-.104.1a.105.105 0 0 0-.105.105c0 .058-.062.105-.14.105-.093 0-.14.047-.14.14 0 .113-.047.14-.245.14-.17 0-.244.032-.244.105 0 .08-.086.105-.35.105-.303 0-.35.019-.35.14 0 .133-.046.14-.944.14h-.944v-9.17h.944c.793 0 .944.017.944.105zm39.655 4.692c0 .342.026.468.105.498.086.033.105.206.105.949 0 .85.009.912.14.946.13.034.14.095.14.973 0 .786.016.937.104.937s.105.136.105.802c0 .731.013.81.14.878.126.067.14.147.14.773 0 .573.019.697.105.697.087 0 .105.128.105.735 0 .688.009.735.14.735.13 0 .14.047.14.702 0 .56.02.71.105.743.081.031.104.17.104.627 0 .476.02.588.105.588.083 0 .105.097.105.455v.455h-3.846v-.692c0-.633.012-.695.14-.728.13-.034.14-.096.14-.848 0-.675.017-.812.105-.812.086 0 .104-.128.104-.727 0-.668.012-.73.14-.763.13-.034.14-.096.14-.849 0-.674.018-.81.105-.81s.105-.14.105-.833c0-.773.01-.834.14-.868.13-.034.14-.096.14-.849 0-.674.017-.81.105-.81.087 0 .104-.14.104-.833 0-.773.01-.834.14-.868.13-.034.14-.096.14-.849 0-.674.018-.81.105-.81.083 0 .105.097.105.456z" fill="#fff"/></svg>