<svg width="183" height="24" fill="none" xmlns="http://www.w3.org/2000/svg"><path d="M21.373 10.712v2.728c0 5.356-2.88 10.56-10.156 10.56C3.94 24 0 19.048 0 12.025S3.941 0 11.217 0c5.305 0 8.64 2.779 9.55 7.023h-5.053c-.506-1.718-2.021-2.728-4.497-2.728-4.143 0-6.215 3.284-6.215 7.68s2.072 7.73 6.265 7.73c3.588 0 5.205-2.122 5.306-5.052h-5.558v-3.941h10.358zM38.35 17.33h-8.792l-1.92 6.266h-4.75L30.265.404h7.478l7.427 23.192h-4.9l-1.92-6.265zm-7.58-4.193h6.316l-2.425-8.034h-1.465l-2.425 8.034zM47.596.404h7.427l3.79 9.348h.859l3.79-9.348h7.477v23.192h-4.497V6.316h-.859l-3.89 9.347h-4.85l-3.84-9.347h-.86v17.28h-4.496V.404h-.051zM87.865 19.301l-.707 4.295H75.436V.404H91.2L90.341 4.7H80.286v4.85h9.297l-.758 4.194h-8.539V19.2h7.58v.101z" fill="#F0F0F0"/><path d="M107.065 11.924c1.617.91 2.628 2.628 2.577 4.497 0 4.85-3.941 7.124-8.387 7.124H91.2L95.242.354h9.196c3.284 0 6.265 1.819 6.265 5.305a5.983 5.983 0 0 1-3.536 5.558l-.102.707zm-6.113 9.752c3.537 0 6.568-1.516 6.568-5.305 0-2.88-2.526-3.941-5.052-3.941h-7.125l-1.617 9.195h7.226v.05zM95.697 10.51h7.175c3.132 0 5.76-1.163 5.76-4.598 0-2.476-2.173-3.487-4.345-3.487h-7.125l-1.465 8.085zM121.668 21.676l-1.011 1.97h-8.993L115.706.455h17.078l-1.011 1.97h-14.248l-1.466 8.135h11.369l-1.011 1.97h-10.711l-1.617 9.146h7.579zM145.415 23.596h-2.223l-1.314-7.478h-10.459l-3.89 7.478h-2.325L137.331.404h3.941l4.143 23.192zm-12.985-9.449h9.094l-1.97-11.47h-1.213l-5.911 11.47zM163.453 2.375h-7.68l-3.739 21.22h-2.122l3.739-21.22h-7.68l.303-1.97h17.532l-.353 1.97z" fill="#2BDC24"/><path d="M178.712 23.596h-12.581L170.274.404h12.581l-4.143 23.192z" fill="url(#a)"/><path d="M172.093 23.596h-12.582L163.806.404h12.581l-4.294 23.192z" fill="url(#b)"/><defs><linearGradient id="a" x1="174.503" y1="23.789" x2="174.503" y2="2.227" gradientUnits="userSpaceOnUse"><stop offset=".2" stop-color="#2BDC24" stop-opacity="0"/><stop offset="1" stop-color="#2BDC24"/></linearGradient><linearGradient id="b" x1="167.956" y1=".325" x2="167.956" y2="24.824" gradientUnits="userSpaceOnUse"><stop offset=".2" stop-color="#2BDC24" stop-opacity="0"/><stop offset="1" stop-color="#2BDC24"/></linearGradient></defs></svg>