<svg width="160" height="74" fill="none" xmlns="http://www.w3.org/2000/svg"><path d="m10.638 22.984 17.512 8.159c-.411-.274-8.74-5.883-11.306-10.322-2.639-4.543-2.445-7.908-.218-11.16 2.227-3.253 7.747-5.303 16.14-4.762 8.393.54 17.626 3.083 24.55 9.313 0 0-5.908-10.5-20.942-13.437C21.339-2.162 9.766 3.77 3.092 9.846 1.326 11.46.414 12.993.116 14.462c.137 4.47 10.523 8.522 10.523 8.522z" fill="#2F98D5"/><path d="M16.626 63.601c-2.235-3.252-2.42-6.617.218-11.16 2.639-4.544 11.322-10.33 11.322-10.33l-17.528 8.166S.244 54.328.115 58.8c.298 1.47 1.21 3.002 2.977 4.617 6.675 6.076 18.239 12 33.274 9.062 15.042-2.93 20.95-13.428 20.95-13.428-6.925 6.23-16.157 8.78-24.55 9.313-8.393.54-13.912-1.502-16.14-4.762z" fill="#F9AE00"/><path d="m10.638 50.277 17.528-8.167s4.98-2.663 4.98-5.302c0-.056 0-.12-.008-.177 0-.057.008-.121.008-.178 0-2.639-4.98-5.302-4.98-5.302s-.008-.008-.016-.008l-17.512-8.159S.252 18.941.115 14.47c-.832 4.06 3.026 7.57 6.205 10.58 4.253 4.01 6.142 7.998 6.11 11.58.032 3.584-1.857 7.57-6.11 11.59C3.14 51.221-.716 54.731.115 58.8c.129-4.471 10.523-8.523 10.523-8.523z" fill="#E40E20"/><path d="M42.983 38.398c0 .42.21.734.63.936.42.21.944.315 1.59.323.637.008 1.266-.024 1.88-.08.613-.065 1.194-.13 1.735-.21.549-.081.855-.121.936-.121.056 1.17-.178 2-.694 2.485-.517.484-1.558.726-3.123.726-2.155 0-3.737-.435-4.753-1.315-1.01-.88-1.518-2.389-1.518-4.552 0-1.081.138-1.993.412-2.735.274-.75.678-1.316 1.21-1.711a5.054 5.054 0 0 1 1.776-.831c.654-.162 1.42-.243 2.292-.243 1.67 0 2.905.355 3.688 1.066.79.71 1.186 1.84 1.186 3.39 0 .596-.113 1.064-.347 1.427a1.687 1.687 0 0 1-.896.719c-.37.12-.815.21-1.331.266a9.803 9.803 0 0 1-1.534.048c-.508-.024-1.049 0-1.638.073-.58.065-1.09.178-1.5.34zm-.105-2.122c.226-.162.605-.267 1.122-.323.517-.057 1-.08 1.453-.089a2.723 2.723 0 0 0 1.202-.282c.347-.186.517-.468.508-.856 0-.347-.274-.637-.83-.871-.767-.323-1.518-.347-2.244-.081-1.009.363-1.413 1.194-1.21 2.502zM63.255 34.92v7.36c-.468.024-.88.024-1.21-.008a3.486 3.486 0 0 1-.96-.234 1.25 1.25 0 0 1-.67-.597c-.146-.275-.202-.622-.194-1.041v-5.416c-.202-.984-1.122-1.372-2.752-1.17-.847.105-1.34.186-1.477.242.04.226.065.5.065.807V40.4c.016.42-.057.766-.202 1.04a1.28 1.28 0 0 1-.67.598 3.361 3.361 0 0 1-.952.234 7.44 7.44 0 0 1-1.21.008v-9.846c0-.88 1.412-1.347 4.228-1.412 3.995-.105 5.996 1.194 6.004 3.898zM73.835 26.696c.202.146.452.242.759.283.306.04.58.064.831.064.25 0 .492.04.718.113.226.073.404.25.533.533.129.282.194.694.194 1.235V40.85c-.017.017-.081.09-.194.235a2.802 2.802 0 0 1-.315.346 3.035 3.035 0 0 1-.524.347c-.259.146-.541.25-.848.331-.306.081-.726.154-1.25.226-.525.065-1.122.105-1.776.105-2.074 0-3.567-.452-4.47-1.348-.905-.895-1.357-2.388-1.357-4.478 0-.807.105-1.534.323-2.171.218-.638.5-1.162.855-1.566a4.572 4.572 0 0 1 1.268-1.009c.484-.266.976-.46 1.476-.564a7.544 7.544 0 0 1 1.558-.162c1.041 0 1.775.162 2.227.484v-4.93h-.008zm0 10.104v-2.873a5.399 5.399 0 0 0-.573-.145 5.738 5.738 0 0 0-.775-.089 5.303 5.303 0 0 0-.88.008 2.541 2.541 0 0 0-.855.242 2.607 2.607 0 0 0-.766.533c-.218.226-.388.533-.525.928s-.202.864-.202 1.404c0 .509.081.96.242 1.332.162.38.364.67.598.871.234.202.524.355.871.452.347.097.654.162.928.186.275.024.573.016.896-.024.323-.032.549-.065.678-.089.13-.024.242-.056.355-.08h.024c-.008.015-.008-.872-.016-2.656zM79.734 36.68a2.544 2.544 0 0 1-.032-.324c-.008-.137.016-.395.065-.79A6.28 6.28 0 0 1 80 34.444c.105-.355.298-.75.565-1.187a4.39 4.39 0 0 1 1-1.113c.396-.307.936-.573 1.606-.775.67-.21 1.445-.315 2.308-.315.606 0 1.162.049 1.679.146.508.096.952.226 1.323.387.372.161.703.363.993.605.29.242.533.484.718.718.186.234.347.517.477.84.129.322.225.605.29.839.065.234.113.508.145.831.024.315.04.557.049.718.008.162.008.372 0 .614-.008.25-.008.387-.008.411 0 .218-.008.412-.025.59-.016.177-.056.451-.12.83-.065.38-.162.719-.283 1.01a4.51 4.51 0 0 1-.573.968 3.837 3.837 0 0 1-.928.88c-.355.234-.823.435-1.396.597a7.126 7.126 0 0 1-1.929.242c-.742 0-1.404-.049-1.985-.145-.581-.097-1.074-.218-1.477-.372a3.371 3.371 0 0 1-1.065-.637 4.054 4.054 0 0 1-.735-.831 3.839 3.839 0 0 1-.468-1.05 10.61 10.61 0 0 1-.274-1.202 15.505 15.505 0 0 1-.154-1.364zm3.01.185c.041.468.097.847.17 1.121.073.275.21.55.404.816.193.266.492.468.88.589.387.12.887.185 1.492.185.468 0 .88-.072 1.21-.226.34-.145.59-.314.751-.508.162-.186.29-.42.388-.686.096-.266.145-.468.161-.605.016-.138.024-.283.024-.444v-.533c0-.088-.008-.218-.024-.395a2.95 2.95 0 0 0-.073-.452 4.056 4.056 0 0 0-.145-.452 1.968 1.968 0 0 0-.226-.452 2.482 2.482 0 0 0-.347-.395 1.938 1.938 0 0 0-.476-.331 2.459 2.459 0 0 0-.638-.21 3.723 3.723 0 0 0-.815-.08c-.54 0-1 .072-1.371.225-.38.145-.654.323-.832.517-.177.193-.306.452-.403.766a3.205 3.205 0 0 0-.154.735c-.008.177 0 .395.008.67.017.064.017.12.017.145zM101.427 31.062c-.016.025-.008.17.008.428.024.258.016.5-.008.734a4.17 4.17 0 0 1-.161.759 1.148 1.148 0 0 1-.493.646c-.25.161-.573.242-.96.242-.565 0-1 .024-1.316.064-.306.04-.589.146-.83.307a1.153 1.153 0 0 0-.485.686c-.08.299-.121.702-.121 1.21v6.473c-.242-.178-.565-.315-.96-.412a17.895 17.895 0 0 0-1.01-.234 1.246 1.246 0 0 1-.733-.476c-.218-.266-.323-.646-.323-1.146v-5.415c0-.08 0-.194.008-.33a6.03 6.03 0 0 1 .072-.59c.04-.25.105-.5.202-.75.097-.25.234-.509.428-.775.185-.267.42-.509.686-.71.266-.202.613-.372 1.04-.509a4.628 4.628 0 0 1 1.43-.202h3.526zM106.931 46.75c-.242-.177-.565-.282-.961-.314a12.777 12.777 0 0 0-1.008-.048c-.275 0-.525-.146-.735-.436-.218-.29-.322-.767-.322-1.429V32.596c.016-.016.08-.09.193-.234.113-.146.218-.25.315-.331.097-.081.266-.194.525-.347.258-.146.54-.267.847-.347.307-.081.726-.154 1.251-.226a14.589 14.589 0 0 1 1.775-.105c2.074 0 3.567.452 4.471 1.348.904.895 1.356 2.388 1.356 4.479 0 1.008-.162 1.888-.484 2.63-.323.743-.759 1.308-1.308 1.711a5.84 5.84 0 0 1-1.735.872 6.719 6.719 0 0 1-1.953.274c-.928 0-1.67-.097-2.227-.282v4.713zm0-10.111v2.873c.218.064.452.12.694.161.25.04.565.073.936.105.379.024.726-.016 1.049-.121.323-.105.63-.266.928-.468.299-.202.533-.525.71-.968.178-.444.267-.977.267-1.598 0-.509-.081-.96-.251-1.332-.169-.38-.363-.67-.589-.871a2.111 2.111 0 0 0-.879-.452 5.203 5.203 0 0 0-.912-.186c-.242-.024-.549-.008-.912.032s-.589.065-.67.08a7.18 7.18 0 0 0-.363.082h-.024s0 .887.016 2.663zM120.513 31.45c.662-.267 1.767-.404 3.317-.404.758 0 1.404.13 1.936.388.541.258.929.548 1.171.88.242.33.427.71.557 1.129.129.428.201.742.209.952.016.21.016.388 0 .533v7.36c-2.025.266-3.034-.355-3.034-1.88V38.18c.016-2.01-.081-3.228-.282-3.672-.202-.436-.84-.67-1.897-.694-.662 0-1.323.121-1.985.363v6.23c.024.808-.226 1.34-.759 1.59-.532.25-1.291.347-2.276.29V26.512c.243.177.565.282.961.315.395.032.734.048 1.009.048.274 0 .524.145.734.436.218.29.323.766.323 1.428v2.712h.016zM131.085 29.908a1.628 1.628 0 0 1-.468-1.154c0-.444.161-.823.476-1.146a1.56 1.56 0 0 1 1.146-.476c.444 0 .823.162 1.146.476.314.315.476.694.476 1.146 0 .444-.162.823-.476 1.146a1.56 1.56 0 0 1-1.146.476c-.444 0-.831-.153-1.154-.468zm2.647 3.172c0-.662-.105-1.138-.323-1.428-.218-.291-.46-.436-.734-.436-.275 0-.614-.017-1.009-.049-.396-.032-.718-.137-.961-.315v11.42c.985.056 1.744-.04 2.276-.29.533-.25.783-.776.759-1.59V33.08h-.008zM146.959 34.92v7.36a8.48 8.48 0 0 1-1.211-.008 3.477 3.477 0 0 1-.96-.234 1.25 1.25 0 0 1-.67-.597c-.145-.275-.202-.622-.194-1.041v-5.416c-.201-.984-1.121-1.372-2.752-1.17-.847.105-1.339.186-1.476.242.04.226.064.5.064.807V40.4c.016.42-.056.766-.202 1.04a1.28 1.28 0 0 1-.669.598 3.369 3.369 0 0 1-.953.234c-.339.032-.742.04-1.21.008v-9.846c0-.88 1.412-1.347 4.229-1.412 3.986-.105 5.988 1.194 6.004 3.898zM150.639 33.895a.67.67 0 0 0-.025-.161 1.85 1.85 0 0 1-.008-.396 2.867 2.867 0 0 1 .267-1.154c.105-.226.234-.411.403-.565.17-.153.396-.282.686-.395.291-.105.63-.162 1.025-.162h.565a12.1 12.1 0 0 1 1.081 0l1.114.049c.371.024.734.08 1.081.17.347.096.686.21 1.001.346.315.137.605.331.872.573.266.25.492.533.686.856.193.323.347.718.452 1.194.104.468.161 1 .161 1.598v2.235c0 .557-.065 1.058-.186 1.51a4.172 4.172 0 0 1-.452 1.105 3.314 3.314 0 0 1-.677.75 3.418 3.418 0 0 1-.759.477 3.59 3.59 0 0 1-.815.242 6.515 6.515 0 0 1-.718.113c-.17.016-.372.024-.598.024h-2.792c-.04 0-.105 0-.185-.008a5.229 5.229 0 0 1-.452-.065 3.212 3.212 0 0 1-1.316-.484 2.621 2.621 0 0 1-.637-.549c-.178-.21-.323-.484-.444-.815a3.352 3.352 0 0 1-.186-1.13c0-.742.097-1.363.283-1.872.185-.508.476-.895.855-1.17a3.54 3.54 0 0 1 1.283-.573c.468-.105 1.041-.161 1.719-.161 1.17 0 1.969-.081 2.397-.234.428-.154.638-.396.638-.719 0-.46-.444-.766-1.324-.928a10.398 10.398 0 0 0-2.808-.105c-.985.073-1.719.21-2.187.404zm6.407 3.05a2.926 2.926 0 0 1-.234.243c-.105.096-.331.218-.678.37a2.698 2.698 0 0 1-1.089.235c-.662 0-1.194.08-1.606.242-.412.161-.613.387-.613.686 0 .347.145.613.443.79.299.178.888.267 1.776.267.363 0 .646 0 .839-.008.194-.008.38-.056.549-.153.169-.097.282-.186.355-.267.065-.08.121-.25.17-.516.048-.266.072-.517.08-.759 0-.242.008-.621.008-1.13z" fill="#fff"/></svg>