<svg width="181" height="52" fill="none" xmlns="http://www.w3.org/2000/svg"><path d="M12.913 12.534h9.99c-.26.797-.571 1.57-1.073 2.25-2.394 3.244-7.418 2.88-10.987 2.88-.915 0-2.081-.195-2.97.028-.545.137-.907.754-1.268 1.141-.893.96-1.854 1.863-2.781 2.79-.879.878-2.167 1.804-2.659 2.97-.244.58-.236 1.18-.22 1.8.042 1.605 1.663 2.744 2.699 3.78 2.534 2.534 5.024 5.114 7.56 7.65 3.418 3.418 6.75 6.931 10.169 10.35 1.521 1.52 2.897 3.446 5.31 2.923 1.096-.238 1.857-1.27 2.61-2.024l4.77-4.77c1.005-1.005 1.963-2.053 2.97-3.06.544-.544 1.291-1.095 1.62-1.8-2.516 0-5.054.094-7.56-.081-1.972-.139-4.091-.466-5.67-1.76-1.442-1.182-2.045-2.939-2.301-4.728-.238-1.657-.13-3.37-.13-5.04 0-2.676-.19-5.438.076-8.1.197-1.968.698-3.941 2.265-5.283 1.324-1.133 3.08-1.548 4.77-1.75 2.816-.338 5.714-.166 8.55-.166-.236-.505-.69-.87-1.08-1.26l-1.89-1.89c-2.056-2.056-4.064-4.154-6.12-6.21C28.235 1.846 27.187.597 25.153.85c-1.545.193-2.598 1.85-3.6 2.864-1.879 1.9-3.78 3.78-5.67 5.67-.99.99-2.224 1.957-2.97 3.15z" fill="#fff"/><path fill-rule="evenodd" clip-rule="evenodd" d="M109.12 24.323h-2.25c.216-.747.667-1.466 1.102-2.16.172-.273.342-.544.493-.81l3.24-5.67c.427-.75.855-1.5 1.285-2.25.04-.069.079-.147.12-.229.125-.249.266-.527.475-.668.167-.112.401-.104.61-.096.05.002.099.004.145.004.175 0 .363-.012.557-.023.453-.026.934-.054 1.329.051.306.081.463.372.608.64l.078.141 1.183 2.07c1.126 1.983 2.259 3.962 3.393 5.94.159.279.338.562.519.85.448.712.912 1.451 1.153 2.21H112c.238-.51.528-.999.816-1.486.115-.195.229-.389.341-.584.038-.068.077-.144.117-.224.127-.252.27-.535.484-.673.23-.15.609-.126.93-.106.102.007.198.013.282.013h3.06c-.352-.597-.695-1.2-1.037-1.803-.359-.63-.717-1.262-1.087-1.887-.039-.066-.085-.16-.138-.266-.177-.362-.425-.867-.715-.91-.272-.042-.483.384-.62.662-.03.06-.057.114-.079.154l-.054.095c-.515.901-1.031 1.803-1.562 2.695-.461.775-.909 1.56-1.356 2.343-.136.24-.273.478-.41.717-.048.085-.099.19-.154.304-.167.347-.37.77-.653.902-.213.1-.513.081-.781.065-.094-.006-.183-.01-.264-.01zm-37.349-3.06v3.06h-7.83c-.171 0-.346.002-.523.004-1.288.013-2.67.027-3.796-.642a3.427 3.427 0 0 1-1.499-1.792c-.183-.512-.238-1.002-.295-1.522-.01-.091-.02-.184-.032-.278-.267-2.257-.38-5.763 1.916-7.028 1.07-.59 2.326-.565 3.53-.54.236.004.47.008.7.008h7.83v2.97h-6.66c-.22 0-.458-.01-.706-.02-.829-.037-1.763-.078-2.444.252-.425.205-.62.587-.719 1.028-.207.933-.21 2.214-.019 3.15.081.397.232.77.566 1.021.573.43 1.504.386 2.288.349.208-.01.406-.02.584-.02h7.11zm1.44-5.76v-2.97h13.68v2.97h-5.13v8.82h-3.33v-8.82h-5.22zm32.669 2.88v5.94h-7.65c-.22 0-.442.004-.666.007-1.28.02-2.599.041-3.743-.593-.779-.432-1.28-1.107-1.58-1.934-.314-.859-.313-1.767-.31-2.668a74.801 74.801 0 0 0-.003-.722c-.016-1.918-.033-4.124 1.803-5.226 1.16-.696 2.482-.678 3.787-.66.208.004.416.007.623.007h7.739v2.97h-6.84c-.192 0-.405-.01-.629-.02-.796-.037-1.728-.08-2.34.29a1.426 1.426 0 0 0-.66.9c-.073.303-.068.623-.063.936l.003.233c0 .163-.008.341-.015.53-.04.976-.09 2.2.825 2.67.525.268 1.2.248 1.814.23.15-.005.296-.01.436-.01h4.409v-2.88h3.06zm18.27 5.94v-11.79h3.69c.124 0 .269-.01.423-.021.403-.03.865-.064 1.161.076.187.088.286.299.374.485l.043.09c.249.5.477 1.018.699 1.53.345.8.711 1.592 1.076 2.384.27.584.539 1.169.801 1.756.072.163.15.325.227.487.192.4.384.8.505 1.223h.18c.214-.742.584-1.479.94-2.19.102-.203.202-.402.297-.6.25-.518.484-1.044.718-1.57.249-.56.498-1.119.767-1.67.178-.365.346-.738.513-1.11l.108-.24.048-.112c.074-.18.155-.378.334-.463.296-.14.76-.106 1.163-.077.154.012.299.023.422.023h3.78v11.79h-3.42v-8.37c-.417.236-.641.796-.843 1.3-.072.18-.14.351-.214.5a95.053 95.053 0 0 0-2.13 4.5c-.111.252-.235.498-.359.745-.101.2-.202.4-.296.604a2.928 2.928 0 0 0-.065.158c-.07.175-.145.365-.291.47-.258.184-.775.144-1.19.113-.14-.011-.269-.02-.372-.02-.104 0-.228.008-.36.017-.394.028-.865.061-1.134-.11-.313-.2-.507-.708-.673-1.147-.068-.177-.13-.342-.195-.47a118.647 118.647 0 0 1-2.215-4.68c-.049-.11-.1-.237-.155-.372-.241-.594-.548-1.352-1.027-1.609v8.37h-3.33zm20.519 0v-11.79h3.33v11.79h-3.33zm5.58 0v-11.79h3.42c.105 0 .223-.007.347-.014.373-.023.798-.049 1.085.107.437.238.801.835 1.119 1.354.12.197.233.383.341.533 1.139 1.589 2.275 3.178 3.408 4.77.11.156.222.333.339.518.356.564.753 1.194 1.281 1.462v-8.73h3.329v11.79h-3.509c-.104 0-.221.008-.345.015-.371.024-.801.05-1.079-.107-.445-.253-.814-.87-1.137-1.41a9.196 9.196 0 0 0-.357-.568c-.488-.689-.972-1.38-1.456-2.071-.61-.871-1.22-1.742-1.836-2.609-.113-.159-.227-.34-.345-.53-.351-.563-.741-1.189-1.275-1.45v8.73h-3.33zm27.089-5.94h3.06v5.94h-7.83c-.205 0-.413.003-.622.007-1.231.019-2.524.039-3.608-.589-.702-.406-1.233-.996-1.523-1.758-.369-.967-.368-1.957-.367-2.971v-.179l-.001-.435c-.011-2.002-.024-4.249 1.981-5.333 1.082-.585 2.341-.562 3.55-.54.229.004.456.008.68.008h7.74v2.97h-6.84c-.192 0-.405-.01-.629-.02-.797-.036-1.728-.078-2.341.291a1.424 1.424 0 0 0-.658.9c-.078.32-.071.659-.065.99l.003.27c0 .159-.007.332-.014.514-.038.955-.085 2.129.824 2.594.526.269 1.202.248 1.814.23.15-.004.297-.009.436-.009h4.41v-2.88zm-148.002.63c.533-.88 1.514-1.173 2.477-1.311.718-.103 1.476-.08 2.221-.058.313.01.624.02.928.02h7.92l.174-.003c.352-.006.699-.012.996.21.565.424 1.072.97 1.57 1.507.227.245.453.488.68.715l2.25 2.25c1.307 1.307 2.616 2.686 2 4.68-.243.79-.823 1.357-1.396 1.92l-.244.24c-.353.353-.693.716-1.034 1.08-.341.363-.682.726-1.036 1.08l-2.16 2.16c-.062.063-.126.13-.19.2-.278.298-.582.625-.98.686-.739.115-1.545.08-2.33.046-.371-.016-.737-.032-1.09-.032h-6.84c-1.231 0-2.885-.037-3.732-1.084-.823-1.018-.796-2.576-.774-3.895.003-.207.007-.409.007-.601v-6.42c-.003-1.122-.006-2.416.583-3.39zm8.147 4.5v-1.26h1.26v1.26h-1.26zm0 5.76v-4.5h1.26v4.5h-1.26zM180.938 39.443H46.752c.365-.518.835-.965 1.302-1.408.23-.22.46-.437.675-.662.885-.927 1.786-1.838 2.687-2.749.576-.582 1.152-1.165 1.725-1.751.311-.32.617-.652.925-.987 1.207-1.311 2.44-2.65 4.116-3.315 1.413-.56 2.853-.559 4.342-.558H180.938v11.43zm-53.769-6.93c.755-2.133 4.127-3.194 5.621-1.17a4.654 4.654 0 0 0-.111.115c-.151.159-.32.338-.519.398-.236.07-.544-.067-.846-.202-.21-.094-.418-.186-.594-.206-1.091-.118-2.11.464-2.485 1.515-.536 1.498.509 3.168 2.125 3.216.351.01.651-.128.945-.265.25-.116.495-.23.765-.25.329-.024.848.436.652.78-.166.289-.625.484-.922.595-.927.344-2.063.338-2.97-.073-1.674-.758-2.248-2.798-1.661-4.453zm-69.077 4.59v-6.66h1.17v6.66h-1.17zm8.28 0v-6.66c.066 0 .135-.003.207-.006.264-.01.553-.021.775.098.328.178.597.57.838.92.082.122.162.238.239.338.744.967 1.495 1.93 2.26 2.88v-4.23h1.17v6.66c-.777-.003-1.11-.46-1.52-1.019-.057-.079-.116-.16-.178-.241-.235-.311-.468-.644-.705-.982-.586-.838-1.194-1.707-1.916-2.348v4.59h-1.17zm12.15-5.67v-.99h5.4v.99h-2.07v5.67h-1.26v-5.67h-2.07zm11.969 5.67v-6.66h4.95v1.17h-3.78v1.62h3.69v1.08h-3.69v1.62h3.78v1.17h-4.95zm11.79 0v-6.66h2.802c.626-.002 1.262-.003 1.787.398 1.431 1.09 1.075 3.55-.81 3.832.25.358.558.685.866 1.012.42.445.841.89 1.114 1.418-.1 0-.209.006-.323.012-.351.019-.743.04-1.026-.105-.42-.216-.706-.624-.991-1.032-.285-.409-.57-.817-.99-1.033-.27-.138-.635-.12-.965-.102-.103.005-.202.01-.295.01v2.25h-1.169zm11.863.01a4.548 4.548 0 0 0-.254-.01c.076-.426.269-.83.459-1.227.063-.131.126-.262.184-.393l.091-.206c.435-.983.869-1.966 1.315-2.944.07-.154.137-.337.206-.529.161-.446.34-.94.622-1.217.226-.222.783-.18 1.074-.13.43.073.665.718.839 1.197.044.121.084.231.122.319.249.572.503 1.14.758 1.71.255.569.509 1.138.758 1.71.065.15.137.3.21.452.196.407.395.822.472 1.258-.076 0-.162.005-.253.01-.331.02-.729.043-.949-.155-.137-.123-.208-.304-.278-.483-.093-.237-.186-.472-.429-.578-.192-.084-.443-.072-.67-.061-.074.003-.145.007-.211.007l-.652-.003a53.455 53.455 0 0 0-1.328.003c-.513.01-.633.27-.773.57-.085.183-.176.38-.364.545-.223.197-.618.174-.949.155zm24.855-5.68v-.99h5.49v.99h-2.16v5.67h-1.17v-5.67h-2.16zm12.06 5.67v-6.66h1.17v6.66h-1.17zm9.175-3.173c-.53-1.14-1.06-2.28-1.345-3.487.083 0 .18-.007.283-.014.323-.021.71-.047.932.106.273.189.419.687.537 1.09.038.13.073.251.109.348.173.468.353.935.532 1.401l.359.939c.033.087.064.175.095.264.137.393.277.79.573 1.086.16-.93.573-1.882.97-2.795.145-.335.288-.664.416-.985.039-.1.076-.221.116-.352.113-.374.248-.819.515-.996.229-.151.613-.126.936-.105.104.006.202.013.287.013-.294 1.074-.766 2.125-1.233 3.166-.24.536-.48 1.07-.693 1.604a6.886 6.886 0 0 0-.153.447c-.159.5-.357 1.12-.68 1.35-.226.162-.644.133-.988.108-.112-.008-.216-.015-.303-.015-.299-1.092-.782-2.133-1.265-3.173zm11.974 3.173v-6.66h4.86v1.17h-3.69v1.62h3.6v1.08h-3.6v1.62h3.69v1.17h-4.86z" fill="#fff"/><path d="M103.45 31.523v2.25c.747 0 1.929.223 2.609-.119.697-.35.759-1.536.088-1.943-.691-.419-1.917-.188-2.697-.188zm13.95.27c-.487.913-.986 1.971-1.26 2.97h2.61c-.17-.622-.468-1.208-.72-1.8-.175-.411-.311-.852-.63-1.17z" fill="#fff"/></svg>