<svg width="190" height="35" fill="none" xmlns="http://www.w3.org/2000/svg"><path fill-rule="evenodd" clip-rule="evenodd" d="M12.77.37c-3.401.851-6.523 5.222-6.55 9.17-.01 1.675-.292 2.011-2.504 2.99-5.022 2.221-4.956 4.674.212 7.782 4.085 2.458 4.21 2.421 3.814-1.104-.332-2.966-.327-2.98.552-1.347 1.421 2.641.849 9.28-.923 10.716-2.154 1.743-4.725 1.212-5.483-1.134-.544-1.683-.697-1.79-1.376-.972-2.132 2.569 3.762 7.748 9.005 7.913 3.452.11 5.556-1.208 6.996-4.38 1.05-2.313 1.081-2.332 1.074-.669-.005.942-.375 2.354-.824 3.138-1.313 2.298-1.073 2.462 2.996 2.049 4.875-.496 9.247-2.465 11.035-4.971 2.16-3.029 2.01-9.655-.286-12.657-1.453-1.899-3.536-7.657-2.974-8.219.111-.111.885 1.191 1.719 2.895 2.185 4.467 3.462 5.399 2.343 1.71-.463-1.525-.839-3.672-.835-4.77l.006-1.997 1.257 2.568 1.257 2.567.191-2.78c.292-4.247.177-4.352-4.742-4.352-3.964 0-4.513-.146-6.472-1.72C19.23.362 16.048-.451 12.769.37zm44.24.8c-2.196.535-5.746 1.144-7.887 1.354-3.319.324-3.838.52-3.52 1.329 1.137 2.888 1.502 8.662 1.15 18.208l-.384 10.412h3.18c3.495 0 3.612-.17 2.278-3.3-2.753-6.457-1.48-12.881 2.141-10.803l1.616.928v-6.744l-2.23.787c-2.739.967-2.905.813-2.905-2.681 0-4.907 1.873-6.298 6.388-4.743 2.842.98 2.942.907 3.83-2.754.815-3.361 1.168-3.169-3.657-1.993zm93.944.257c1.38 5.477 1.395 23.215.025 29.192-.276 1.203-.11 1.284 2.631 1.284 2.745 0 2.906-.08 2.616-1.284-2.24-9.27-.654-13.484 2.157-5.733l2.223 6.13 2.422-7.117c2.682-7.877 2.69-7.87 2.764 2.013l.034 4.564 2.785.177c2.667.17 2.771.12 2.427-1.14-2.097-7.702-2.608-21.24-1.001-26.566l.559-1.854h-5.492l-2.141 8.7c-1.177 4.786-2.313 8.895-2.523 9.132-.21.237-1.123-3.413-2.027-8.11l-1.645-8.543-2.318-.937c-1.275-.516-.532-1.08-.971-1.254-.626-.249-2.853.042-2.525 1.346zm-59.132.637c-1.242.24-1.273.445-1.426 9.479l-.157 9.234-2.67-5.42c-1.47-2.982-3.008-6.512-3.42-7.846-.719-2.325-.843-2.424-3.035-2.423l-2.286.002-.092 7.558c-.05 4.157-.464 9.44-.919 11.74-.917 4.638-1.034 4.433 3.089 5.43l1.506.364.49-6.415.49-6.414 2.99 4.529c1.643 2.49 3.41 5.635 3.928 6.988.833 2.182 1.144 2.462 2.736 2.462h1.796l-.49-5.563c-.269-3.06-.35-9.735-.182-14.834.235-7.081.143-9.253-.385-9.194-.382.043-1.264.188-1.963.323zm20.452.22c-1.099.277-5.271.676-9.272.886-7.984.418-7.596.18-6.92 4.273l.344 2.071 2.885-.761c4.516-1.191 4.918-.175 5.382 13.593l.322 9.557h5.104l-.396-2.107c-.768-4.097-1.423-11.939-1.433-17.167-.011-5.94-.171-5.722 4.643-6.322 2.928-.364 2.931-.367 2.99-2.504.065-2.333-.12-2.41-3.649-1.519zm-92.053.788c1.05.794 1.016.838-.67.855-.978.01-2.455.55-3.281 1.201-1.883 1.48-2.176.06-.363-1.753 1.354-1.353 2.792-1.454 4.314-.303zm49.98.322c-2.196.566-5.213 1.05-6.704 1.075-1.767.031-2.707.295-2.702.76.018 1.686.738 3.194 1.636 3.429 1.141.298.743 9.03-.79 17.298-1.103 5.956-1.14 5.69.91 6.539 1.474.61 1.847.598 2.264-.074.658-1.06 1.678-5.855 1.678-7.892 0-1.517 1.387-2.326 3.991-2.326.234 0 .599 1.758.81 3.906.594 6.027 1.054 7.245 2.672 7.08 3.863-.392 3.909-.444 3-3.423-2.221-7.286-3.658-23.539-2.08-23.539.895 0 1.038-.336.844-1.996-.263-2.254-.115-2.232-5.529-.837zm57.546-.235c-1.412.446-4.448.974-6.747 1.172-3.891.335-4.158.443-3.86 1.556.177.658.325 1.488.33 1.843.004.356.544.788 1.201.96 1.126.293 1.172.564.811 4.772-.417 4.86-1.76 14.7-2.3 16.853-.283 1.123-.005 1.505 1.673 2.305l2.012.96.872-2.94c.48-1.616.873-3.925.873-5.131 0-1.83.243-2.285 1.464-2.75 3.233-1.229 3.484-.957 3.821 4.151.417 6.346.592 6.692 3.175 6.302 2.898-.438 3.03-.678 2.091-3.796-2.263-7.52-3.542-23.189-1.893-23.189.94 0 1.106-.256.831-1.283-.189-.706-.348-1.605-.352-1.997-.01-.871-.692-.835-4.002.212zm55.549 0c-1.412.446-4.449.974-6.748 1.172-3.89.335-4.157.443-3.859 1.556.177.658.325 1.518.329 1.91.004.392.552.713 1.217.713 1.617 0 .702 12.96-1.552 21.988-.224.897.157 1.376 1.666 2.096 2.396 1.142 2.94.33 3.787-5.648.618-4.363.459-4.13 3.093-4.556l2.067-.336v2.9c0 1.594.274 4.176.609 5.737l.609 2.839 2.101-.318c2.972-.449 2.998-.529 1.799-5.533-.947-3.955-1.626-8.988-2.531-18.741-.222-2.394-.121-2.71.863-2.71 1.167 0 1.327-.575.755-2.71-.391-1.458-.658-1.481-4.205-.36zM12.859 4.862c.703 1.06.664 1.363-.324 2.567-1.311 1.6-3.056 1.005-3.375-1.148-.405-2.733 2.173-3.722 3.699-1.419zm127.209-.882c-7.71 2.243-7.602 11.606.17 14.8 4.342 1.784 5.835 3.128 5.835 5.252 0 4.54-3.761 7.06-6.828 4.577l-1.25-1.012 1.186-1.074c2.281-2.063.551-6.032-2.629-6.032-6.548 0-3.589 10.626 3.139 11.272 11.317 1.088 15.619-13.874 4.982-17.327-4.755-1.543-6.644-4.184-4.733-6.615 1.826-2.324 5.795-1.306 4.481 1.15-1.289 2.408 2.266 4.551 4.131 2.49 3.803-4.202-2.042-9.355-8.484-7.48zM21.302 5.615c.517.836-1.997 6.966-3.453 8.422-2.046 2.046-5 1.8-7.418-.62-3.124-3.124-2.514-4.727 1.459-3.835 2.234.502 2.457.419 5.314-1.973 3.147-2.635 3.573-2.843 4.098-1.994zm48.614 5.962c0 1.373.154 3.265.342 4.206.314 1.57.198 1.73-1.426 1.969l-1.769.26v-4.466c0-4.383.027-4.465 1.427-4.465 1.304 0 1.426.214 1.426 2.496zm56.519 1.728c.113 4.204.11 4.213-1.475 4.446l-1.588.233.048-4.451c.047-4.356.078-4.451 1.474-4.446 1.382.005 1.43.136 1.541 4.218zm55.561.057c.098 3.33-.05 4.277-.666 4.277a5.24 5.24 0 0 0-1.567.297c-.653.25-.905-4.374-.475-8.713.008-.078.592-.141 1.298-.14 1.206.002 1.291.263 1.41 4.28z" fill="#fff"/></svg>