<svg width="180" height="34" fill="none" xmlns="http://www.w3.org/2000/svg"><path d="M0 0v.163a41.437 41.437 0 0 0 1.18 9.82 40.72 40.72 0 0 0 2.094 6.292l.046.108c.022.05.042.1.064.147a41.516 41.516 0 0 0 3.164 5.915 41.231 41.231 0 0 0 2.655 3.658l.202.248c.139.163.277.33.416.495a42.29 42.29 0 0 0 2.6 2.78 39.625 39.625 0 0 0 1.356 1.264 40.783 40.783 0 0 0 2.57 2.111l.096.068.094-.07c.044-.032.088-.067.13-.1a40.509 40.509 0 0 0 4.826-4.322 41.311 41.311 0 0 0 1.615-1.795l.028-.033.336-.4.201-.247a42.06 42.06 0 0 0 2.71-3.744c.527-.82 1.036-1.518 1.512-2.393l.275-.503c.47-.857.915-1.668 1.323-2.61l.099-.227H11.095l.128.239c.544 1.015 1.142 1.875 1.773 2.788l.275.397h10.497c-.29.47-.599.78-.914 1.247a37.256 37.256 0 0 1-1.983 2.657c-.405.497-.829.99-1.26 1.469-.197.217-.415.45-.665.713-.078.081-.155.163-.236.244a37.151 37.151 0 0 1-2.267 2.148c-.78-.677-1.54-1.4-2.272-2.152-.08-.079-.156-.16-.234-.24a62.13 62.13 0 0 1-.613-.654 35.857 35.857 0 0 1-1.313-1.526 37.53 37.53 0 0 1-5.179-8.36A37.485 37.485 0 0 1 3.685 3.584h25.507a38.207 38.207 0 0 1-.404 3.07 37.927 37.927 0 0 1-.685 3.127H8.306l.061.209c.322 1.087.689 1.989 1.114 3.031l.075.183h21.157l.068-.202c.35-1.04.652-1.94.916-3.019a40.465 40.465 0 0 0 1.05-6.548 41.47 41.47 0 0 0 .13-3.273V0H0zM50.834 16.037c-.352.43-.867.775-1.545 1.036-.665.247-1.447.371-2.346.371h-2.268v5.433h-2.757V9.237h5.025c1.577 0 2.79.397 3.636 1.192.86.781 1.29 1.706 1.29 2.774a4.273 4.273 0 0 1-1.035 2.834zm-6.16-.703h2.269c.69 0 1.218-.176 1.583-.528.365-.365.548-.853.548-1.466 0-.612-.183-1.094-.548-1.446-.365-.365-.893-.547-1.583-.547h-2.268v3.987zM53.908 17.64V9.236h2.757v8.404c0 .938.234 1.648.703 2.13.483.482 1.167.723 2.053.723.887 0 1.571-.241 2.053-.723.483-.482.724-1.192.724-2.13V9.236h2.737v8.404c0 1.72-.54 3.048-1.623 3.986-1.082.925-2.398 1.388-3.95 1.388-1.55 0-2.847-.463-3.89-1.388-1.043-.925-1.564-2.254-1.564-3.986zM72.228 11.25c-.548 0-.997.143-1.35.43-.338.273-.508.657-.508 1.152 0 .495.124.886.372 1.173.26.273.6.488 1.016.645.418.143.874.273 1.37.39.494.118.99.261 1.485.43.495.17.952.378 1.369.626.417.247.75.612.997 1.094.26.47.39 1.042.39 1.72 0 1.12-.449 2.084-1.348 2.892-.887.808-2.073 1.212-3.559 1.212-1.473 0-2.665-.346-3.578-1.036-.912-.704-1.368-1.687-1.368-2.95h2.932c.105 1.198.79 1.797 2.053 1.797.626 0 1.121-.163 1.486-.489.365-.325.548-.755.548-1.29 0-.546-.241-.976-.724-1.29-.482-.312-1.068-.546-1.76-.703A25.465 25.465 0 0 1 70 16.487a3.887 3.887 0 0 1-1.76-1.153c-.482-.56-.723-1.297-.723-2.209 0-1.237.45-2.227 1.349-2.97.9-.743 2.053-1.114 3.46-1.114 1.421 0 2.562.326 3.422.977.86.639 1.33 1.616 1.408 2.931h-3.011c-.052-.52-.248-.931-.587-1.23-.339-.313-.782-.47-1.33-.47zM88.632 9.236h2.757v13.64h-2.757v-5.842h-5.865v5.843H80.01V9.237h2.757v5.686h5.865V9.236zM101.443 21.02c-1.342-1.316-2.013-2.983-2.013-5.002 0-2.02.671-3.687 2.013-5.003 1.356-1.316 3.011-1.974 4.967-1.974 1.485 0 2.802.378 3.949 1.133 1.16.756 1.988 1.818 2.483 3.186h-3.304c-.613-1.199-1.656-1.798-3.128-1.798-1.239 0-2.249.41-3.031 1.231-.769.808-1.154 1.89-1.154 3.244 0 1.342.385 2.423 1.154 3.244.782.808 1.734 1.212 2.855 1.212 1.134 0 2.02-.274 2.659-.821.651-.56 1.055-1.31 1.212-2.247h-4.536v-2.091h7.488v2.09c-.234 1.486-.964 2.789-2.19 3.91-1.225 1.106-2.769 1.66-4.633 1.66-1.851 0-3.448-.658-4.791-1.974zM124.174 22.877l-.88-2.56h-5.318l-.88 2.56h-2.913l4.829-13.68h3.265l4.81 13.68h-2.913zm-5.475-4.67h3.891l-1.955-5.687-1.936 5.686zM143.884 9.236v13.64h-2.738V14.26l-3.715 8.618h-1.974l-3.696-8.58v8.58h-2.757V9.237h3.07l4.38 10.103 4.379-10.104h3.051zM146.819 22.877V9.237h2.757v13.64h-2.757zM161.444 9.197h2.757v13.68h-2.757l-6.178-9.458v9.458h-2.757V9.197h2.757l6.178 9.459V9.197zM168.386 21.02c-1.342-1.316-2.014-2.983-2.014-5.002 0-2.02.672-3.687 2.014-5.003 1.356-1.316 3.011-1.974 4.966-1.974 1.486 0 2.803.378 3.95 1.133 1.16.756 1.988 1.818 2.483 3.186h-3.304c-.613-1.199-1.656-1.798-3.129-1.798-1.238 0-2.248.41-3.03 1.231-.769.808-1.154 1.89-1.154 3.244 0 1.342.385 2.423 1.154 3.244.782.808 1.733 1.212 2.854 1.212 1.134 0 2.021-.274 2.659-.821.652-.56 1.056-1.31 1.213-2.247h-4.536v-2.091H180v2.09c-.235 1.486-.965 2.789-2.19 3.91-1.225 1.106-2.77 1.66-4.634 1.66-1.851 0-3.447-.658-4.79-1.974z" fill="#fff"/></svg>