<?xml version="1.0" encoding="utf-8"?><!-- Uploaded to: SVG Repo, www.svgrepo.com, Generator: SVG Repo Mixer Tools -->
<svg width="800px" height="800px" viewBox="0 0 24 24" fill="none" xmlns="http://www.w3.org/2000/svg">
<path d="M20 1C20 0.447715 20.4477 0 21 0C21.5523 0 22 0.447715 22 1V2H23C23.5523 2 24 2.44772 24 3C24 3.55228 23.5523 4 23 4H22V5C22 5.55228 21.5523 6 21 6C20.4477 6 20 5.55228 20 5V4H19C18.4477 4 18 3.55228 18 3C18 2.44772 18.4477 2 19 2H20V1Z" fill="#fff"/>
<path d="M21.1936 8.07463C21.7016 7.85776 22.297 8.09138 22.4668 8.6169C23.145 10.7148 23.1792 12.9766 22.5523 15.1064C21.8308 17.5572 20.2788 19.6804 18.1626 21.1117C16.0464 22.5429 13.498 23.193 10.9548 22.9502C8.41165 22.7075 6.03225 21.5871 4.22503 19.7814C2.4178 17.9757 1.29545 15.5972 1.05062 13.0542C0.805783 10.5112 1.45373 7.96227 2.88325 5.84491C4.31277 3.72755 6.43471 2.17379 8.88488 1.4503C11.0142 0.821568 13.2759 0.853957 15.3744 1.53036C15.9001 1.69979 16.1342 2.29501 15.9178 2.80311C15.7013 3.31122 15.1136 3.54496 14.5846 3.38623C12.9184 2.88626 11.1353 2.8783 9.4532 3.37498C7.45004 3.96647 5.71522 5.23677 4.5465 6.96784C3.37778 8.69891 2.84804 10.7828 3.04821 12.8619C3.24838 14.9409 4.16596 16.8855 5.64348 18.3618C7.121 19.8381 9.06631 20.754 11.1455 20.9525C13.2247 21.1509 15.3082 20.6195 17.0383 19.4493C18.7684 18.2792 20.0373 16.5433 20.6271 14.5397C21.1224 12.8572 21.113 11.074 20.6116 9.40826C20.4525 8.87941 20.6857 8.29149 21.1936 8.07463Z" fill="#D92D27"/>
<path d="M15.7105 9.14472L15.2944 9.35279C14.6997 9.65014 14 9.21769 14 8.55279C14 8.214 14.1914 7.9043 14.4944 7.75279L15.7888 7.10557C15.9277 7.03615 16.0808 7 16.2361 7H17C17.5523 7 18 7.44772 18 8V16C18 16.5523 17.5523 17 17 17C16.4477 17 16 16.5523 16 16V9.32361C16 9.17493 15.8435 9.07823 15.7105 9.14472Z" fill="#FFF"/>
<path d="M8.49999 9H9.25967C9.66854 9 9.99999 9.33145 9.99999 9.74031C9.99999 9.90842 9.94277 10.0715 9.83776 10.2028L6.21912 14.7261C6.07727 14.9034 5.99999 15.1237 5.99999 15.3508V16C5.99999 16.5523 6.4477 17 6.99999 17H11C11.5523 17 12 16.5523 12 16C12 15.4477 11.5523 15 11 15H8.90891C8.74249 15 8.64887 14.8086 8.75104 14.6772L11.5787 11.0417C11.8517 10.6906 12 10.2585 12 9.81378V9C12 7.89543 11.1046 7 9.99999 7H7.99999C6.89542 7 5.99999 7.89543 5.99999 9C5.99999 9.55228 6.4477 10 6.99999 10H7.49999C7.77613 10 7.99999 9.77614 7.99999 9.5C7.99999 9.22386 8.22384 9 8.49999 9Z" fill="#FFF"/>
</svg>