<svg width="76" height="38" viewBox="0 0 76 38" fill="none" xmlns="http://www.w3.org/2000/svg">
<g clip-path="url(#clip0_0_4811)">
<g clip-path="url(#clip1_0_4811)">
<g clip-path="url(#clip2_0_4811)">
<g opacity="0.9">
<path d="M8.24816 2.32084C8.38496 1.45361 8.15947 0.61655 7.69446 0C7.06621 0.421915 6.59563 1.13517 6.4589 2.00302C6.32216 2.87025 6.54759 3.70792 7.01262 4.32386C7.64149 3.90194 8.11144 3.18869 8.24816 2.32084Z" fill="white"/>
<path d="M4.66061 7.47546C5.1244 6.85829 5.34861 6.02062 5.21002 5.15339C5.07082 4.28615 4.59963 3.57351 3.97015 3.15283C3.50635 3.77061 3.28276 4.60828 3.42135 5.47552C3.55993 6.34275 4.03113 7.05478 4.66061 7.47546Z" fill="white"/>
<path d="M3.12348 11.2942C3.44931 10.5847 3.49612 9.71559 3.18323 8.90134C2.86972 8.08644 2.26302 7.50008 1.56271 7.23584C1.23688 7.9454 1.19006 8.81451 1.50357 9.62876C1.81647 10.4437 2.42316 11.03 3.12348 11.2942Z" fill="white"/>
<path d="M14.7942 28.5183C12.3699 28.0039 10.1876 26.9101 8.38361 25.4127C8.97608 24.9859 9.41834 24.296 9.54956 23.4615C9.68628 22.5936 9.46087 21.7566 8.99581 21.1406C8.36695 21.5625 7.89701 22.2764 7.76027 23.1437C7.64077 23.9 7.79784 24.6342 8.14833 25.2181C7.30447 24.4876 6.54995 23.6641 5.89707 22.7704C6.57028 22.5068 7.15604 21.9475 7.47201 21.1689C7.79907 20.3608 7.76828 19.4906 7.45477 18.7748C6.75013 19.0255 6.13297 19.5995 5.80529 20.4077C5.51889 21.1141 5.50718 21.8686 5.71783 22.5259C5.00273 21.5028 4.42252 20.3891 3.99568 19.214C4.72617 19.1031 5.42587 18.6646 5.8866 17.9427C6.35101 17.214 6.4742 16.353 6.29373 15.5873C5.55646 15.6933 4.84936 16.1337 4.38434 16.8623C3.94332 17.5547 3.81336 18.3652 3.95688 19.1013C3.53742 17.9168 3.28428 16.6671 3.20173 15.3828C3.94209 15.4537 4.72309 15.1913 5.32856 14.5907C5.93402 13.9908 6.2346 13.1803 6.21859 12.3913C5.47823 12.3204 4.69599 12.5828 4.09053 13.1834C3.49061 13.7777 3.19126 14.5785 3.20112 15.3607C3.18326 15.0805 3.16416 14.8008 3.16416 14.5175C3.16416 13.4494 3.29043 12.4005 3.52818 11.3879C4.19031 11.7187 4.99472 11.763 5.74924 11.4359C6.51669 11.104 7.06857 10.4597 7.31802 9.71623C6.64974 9.37075 5.83054 9.32087 5.06371 9.65341C4.38926 9.94536 3.8805 10.4788 3.5984 11.1101C3.91068 9.89305 4.38495 8.73074 5.00088 7.64795C5.58171 8.13826 6.36949 8.3741 7.18437 8.22752C8.0011 8.08034 8.67249 7.57958 9.0685 6.91129C8.4871 6.41978 7.69806 6.18203 6.88133 6.32862C6.08431 6.47213 5.42834 6.95318 5.02921 7.59683C5.65007 6.51586 6.41014 5.51559 7.29031 4.62249C7.69005 5.27537 8.35345 5.76381 9.15905 5.90732C9.97638 6.05268 10.7648 5.81308 11.3456 5.31911C10.9484 4.65204 10.2758 4.15314 9.45901 4.00777C8.7328 3.87905 8.03005 4.05459 7.47509 4.44139C8.11381 3.81622 8.8215 3.25757 9.5705 2.7525C10.2074 2.94036 10.9101 2.91757 11.5544 2.60961C12.3077 2.2499 12.814 1.59578 13.0031 0.85789C12.2905 0.551153 11.4504 0.540682 10.6971 0.901007C10.0078 1.22991 9.53784 1.81012 9.31614 2.47102C5.35936 5.16881 2.81123 9.63126 2.81123 14.5175C2.81123 14.6296 2.81555 14.7405 2.81862 14.8519C2.74964 14.2582 2.50511 13.6736 2.08259 13.1932C1.51715 12.5501 0.754013 12.2311 0.01058 12.2478C-0.055941 13.0343 0.191049 13.864 0.756476 14.507C1.32191 15.1501 2.08504 15.4691 2.82848 15.4525C2.83279 15.397 2.83279 15.3416 2.83402 15.2856C2.89623 16.4219 3.09641 17.5306 3.41732 18.595C3.21344 18.1102 2.88145 17.6717 2.42874 17.3465C1.74259 16.8531 0.932019 16.7225 0.210759 16.9147C0.31054 17.697 0.72568 18.4477 1.41183 18.9411C2.09737 19.4339 2.90855 19.565 3.62981 19.3729C3.61872 19.2836 3.60148 19.1955 3.58238 19.1068C3.93778 20.1428 4.40897 21.132 4.98364 22.0596C4.7157 21.7319 4.37571 21.4585 3.9698 21.2724C3.20912 20.9245 2.38932 20.9583 1.71487 21.2903C1.95139 22.0392 2.49218 22.6934 3.25286 23.042C4.01416 23.3894 4.83335 23.3561 5.50779 23.0242C5.46037 22.8726 5.39693 22.7273 5.32548 22.5862C5.89707 23.4264 6.5555 24.2086 7.28908 24.9212C6.96572 24.689 6.58814 24.5221 6.17239 24.4488C5.35504 24.3035 4.56665 24.543 3.98643 25.0364C4.38371 25.704 5.0557 26.203 5.87305 26.3483C6.69039 26.4931 7.47879 26.2535 8.059 25.7602C7.97892 25.6252 7.88468 25.4996 7.78305 25.3801C9.69986 27.0819 12.0712 28.3231 14.7247 28.8866L14.7942 28.5183Z" fill="white"/>
<path d="M68.7853 4.32386C69.2497 3.70792 69.4751 2.87025 69.3389 2.00302C69.2016 1.13517 68.7316 0.421915 68.1028 0C67.6377 0.61655 67.4123 1.45361 67.549 2.32084C67.6858 3.18869 68.1563 3.90194 68.7853 4.32386Z" fill="white"/>
<path d="M72.3397 5.47552C72.4782 4.60828 72.254 3.77061 71.7903 3.15283C71.1614 3.57351 70.6896 4.28615 70.551 5.15339C70.4124 6.02062 70.6366 6.85829 71.0998 7.47546C71.7293 7.05478 72.2011 6.34275 72.3397 5.47552Z" fill="white"/>
<path d="M72.6421 11.2942C73.343 11.03 73.949 10.4437 74.2626 9.62876C74.5755 8.81451 74.5286 7.9454 74.2035 7.23584C73.5025 7.50008 72.8964 8.08644 72.5829 8.90134C72.27 9.71559 72.3168 10.5847 72.6421 11.2942Z" fill="white"/>
<path d="M73.3407 17.344C72.888 17.6692 72.5566 18.1078 72.3521 18.5925C72.6736 17.5282 72.8738 16.4195 72.9354 15.2831C72.9373 15.3391 72.9366 15.3946 72.9415 15.45C73.6844 15.4666 74.4481 15.1476 75.0136 14.5045C75.579 13.8615 75.826 13.0319 75.7594 12.2453C75.016 12.2286 74.2529 12.5478 73.6875 13.1908C73.2649 13.6712 73.0204 14.2557 72.9514 14.8495C72.9539 14.738 72.9588 14.6271 72.9588 14.515C72.9588 9.6288 70.4101 5.16638 66.4533 2.46858C66.2316 1.80769 65.7616 1.22747 65.0724 0.898564C64.3191 0.538242 63.479 0.548712 62.7664 0.855446C62.9554 1.59333 63.4618 2.24746 64.215 2.60717C64.8593 2.91514 65.562 2.93792 66.1995 2.75006C66.9485 3.25513 67.6562 3.81378 68.2943 4.43896C67.7394 4.05215 67.0366 3.87661 66.3104 4.00534C65.4937 4.1507 64.8217 4.6496 64.4244 5.31666C65.0046 5.81064 65.793 6.05024 66.6103 5.90488C67.416 5.76137 68.08 5.27293 68.4791 4.62004C69.3593 5.51315 70.12 6.51342 70.7409 7.59439C70.3411 6.95073 69.6851 6.4697 68.8887 6.32618C68.072 6.17959 67.2824 6.41734 66.7015 6.90885C67.0975 7.57715 67.7684 8.0779 68.5857 8.22514C69.4006 8.37172 70.1878 8.1358 70.7692 7.64551C71.3851 8.72836 71.8593 9.89059 72.171 11.1076C71.8889 10.4764 71.3808 9.94298 70.7058 9.65103C69.9389 9.31841 69.1203 9.36829 68.4514 9.71385C68.7015 10.4573 69.2534 11.1015 70.0208 11.4335C70.7753 11.7606 71.5791 11.7162 72.2419 11.3854C72.479 12.398 72.6059 13.447 72.6059 14.515C72.6059 14.7983 72.5862 15.078 72.5689 15.3582C72.5788 14.576 72.2795 13.7753 71.6795 13.1809C71.074 12.5803 70.2918 12.318 69.5508 12.3888C69.5354 13.1778 69.8354 13.9884 70.4415 14.5884C71.0463 15.1888 71.828 15.4513 72.5677 15.3804C72.4858 16.6646 72.2326 17.9143 71.8132 19.0988C71.9567 18.3628 71.8268 17.5522 71.3857 16.8599C70.9207 16.1312 70.2136 15.6908 69.4763 15.5849C69.2952 16.3505 69.4185 17.2116 69.8834 17.9402C70.3442 18.6621 71.0439 19.1007 71.7744 19.2115C71.3476 20.3868 70.7673 21.5003 70.0516 22.5234C70.2629 21.8662 70.2511 21.1117 69.9641 20.4052C69.6371 19.5971 69.0199 19.023 68.3147 18.7724C68.0011 19.4881 67.9703 20.3584 68.298 21.1665C68.614 21.9451 69.1998 22.5043 69.873 22.7679C69.2195 23.6616 68.4655 24.4852 67.6211 25.2157C67.9716 24.6318 68.1286 23.8976 68.0091 23.1412C67.8724 22.274 67.4024 21.5601 66.7742 21.1382C66.3092 21.7541 66.0831 22.5912 66.2199 23.459C66.3517 24.2936 66.7933 24.9835 67.3864 25.4103C65.5824 26.9076 63.3995 28.0016 60.9758 28.5158L61.0448 28.8842C63.6982 28.3206 66.0696 27.0794 67.9863 25.3776C67.8847 25.4971 67.7911 25.6228 67.7105 25.7577C68.2912 26.251 69.0797 26.4906 69.897 26.3459C70.7138 26.2005 71.3857 25.7017 71.7836 25.034C71.2034 24.5406 70.4144 24.301 69.5977 24.4464C69.1819 24.5196 68.8043 24.6866 68.481 24.9188C69.2146 24.2062 69.8724 23.4239 70.4445 22.5838C70.3725 22.7248 70.309 22.8702 70.2617 23.0217C70.9367 23.3537 71.7559 23.387 72.5166 23.0396C73.2779 22.6909 73.8187 22.0368 74.0545 21.2878C73.3801 20.9559 72.5609 20.922 71.7996 21.27C71.3944 21.456 71.0538 21.7295 70.7858 22.0571C71.3605 21.1295 71.8323 20.1403 72.1877 19.1044C72.168 19.1931 72.1513 19.2811 72.1402 19.3705C72.8615 19.5626 73.672 19.4314 74.3582 18.9386C75.0444 18.4453 75.4595 17.6945 75.5593 16.9123C74.8374 16.7201 74.0268 16.8507 73.3407 17.344Z" fill="white"/>
<path d="M26.1023 7.15599H29.709C31.3774 7.15599 32.3564 6.4223 32.3564 5.21624C32.3564 4.24133 31.817 3.7589 30.9677 3.47748C31.5872 3.20612 32.0468 2.72369 32.0468 1.9096C32.0468 1.40707 31.8769 1.03521 31.5972 0.75379C31.1876 0.341718 30.5682 0.120605 29.6889 0.120605H26.1023V7.15599ZM27.9906 5.5881V4.29158H29.4692C30.1186 4.29158 30.4183 4.54284 30.4183 4.92477C30.4183 5.35694 30.0786 5.5881 29.4891 5.5881H27.9906ZM27.9906 2.92471V1.68849H29.2493C29.8288 1.68849 30.1286 1.9096 30.1286 2.29152C30.1286 2.72369 29.7989 2.92471 29.2094 2.92471H27.9906Z" fill="white"/>
<path d="M33.2441 7.15599H38.9188V5.49765H35.1623V4.38204H38.5191V2.84431H35.1623V1.77895H38.8688V0.120605H33.2441V7.15599Z" fill="white"/>
<path d="M42.6553 7.2766C44.3536 7.2766 45.4826 6.4223 45.4826 4.98507C45.4826 3.64835 44.4836 3.12572 42.875 2.77395C41.9059 2.55284 41.6661 2.41213 41.6661 2.09052C41.6661 1.81915 41.8959 1.61814 42.3655 1.61814C42.9849 1.61814 43.6843 1.85935 44.3237 2.31163L45.2928 0.934703C44.5335 0.321617 43.6044 0 42.4155 0C40.737 0 39.708 0.944753 39.708 2.25132C39.708 3.7187 40.8569 4.14083 42.3455 4.48254C43.2946 4.70366 43.5244 4.86446 43.5244 5.15593C43.5244 5.47755 43.2447 5.65846 42.7252 5.65846C41.916 5.65846 41.1467 5.36699 40.4573 4.81421L39.3783 6.11073C40.2375 6.88462 41.4164 7.2766 42.6553 7.2766Z" fill="white"/>
<path d="M47.9384 7.15599H49.8766V1.8292H51.9746V0.120605H45.8404V1.8292H47.9384V7.15599Z" fill="white"/>
<path d="M21.1878 18.5958C22.8963 18.5958 23.8774 17.8518 24.6049 16.8411L22.9955 15.6861C22.5326 16.2525 22.0586 16.6301 21.254 16.6301C20.1738 16.6301 19.4132 15.7194 19.4132 14.5533C19.4132 13.3983 20.1738 12.4765 21.254 12.4765C21.9925 12.4765 22.5106 12.8207 22.9514 13.3761L24.5166 12.1544C23.8333 11.1993 22.8522 10.5107 21.2761 10.5107C18.9392 10.5107 17.2087 12.2877 17.2087 14.5533C17.2087 16.8967 18.9834 18.5958 21.1878 18.5958Z" fill="white"/>
<path d="M24.9077 18.4403H27.1562L27.7074 17.0521H30.6835L31.2456 18.4403H33.5383L30.2536 10.6106H28.1924L24.9077 18.4403ZM28.3357 15.3751L29.2064 13.165L30.0662 15.3751H28.3357Z" fill="white"/>
<path d="M37.2105 18.5736C39.0844 18.5736 40.3299 17.6296 40.3299 16.0415C40.3299 14.5644 39.2276 13.9869 37.453 13.5982C36.3839 13.3539 36.1193 13.1984 36.1193 12.843C36.1193 12.5431 36.3728 12.321 36.8909 12.321C37.5742 12.321 38.3459 12.5875 39.0513 13.0873L40.1205 11.5658C39.2828 10.8883 38.2577 10.533 36.9459 10.533C35.0942 10.533 33.9589 11.5769 33.9589 13.0207C33.9589 14.6421 35.2265 15.1086 36.8688 15.4861C37.916 15.7305 38.1695 15.9082 38.1695 16.2303C38.1695 16.5856 37.8609 16.7856 37.2877 16.7856C36.3949 16.7856 35.5461 16.4635 34.7855 15.8526L33.5952 17.2853C34.5431 18.1405 35.8437 18.5736 37.2105 18.5736Z" fill="white"/>
<path d="M41.4139 18.4402H43.5633V10.666H41.4139V18.4402Z" fill="white"/>
<path d="M44.9758 18.4402H47.0922V14.1755L50.3879 18.4402H52.2618V10.666H50.1454V14.7752L46.9709 10.666H44.9758V18.4402Z" fill="white"/>
<path d="M57.5102 18.5958C59.8911 18.5958 61.6767 16.7856 61.6767 14.5533C61.6767 12.2988 59.9131 10.5107 57.5322 10.5107C55.1514 10.5107 53.3657 12.321 53.3657 14.5533C53.3657 16.8078 55.1293 18.5958 57.5102 18.5958ZM57.5322 16.6524C56.3638 16.6524 55.5592 15.675 55.5592 14.5533C55.5592 13.4094 56.3419 12.4542 57.5102 12.4542C58.6896 12.4542 59.4943 13.4316 59.4943 14.5533C59.4943 15.6972 58.7117 16.6524 57.5322 16.6524Z" fill="white"/>
<path d="M26.9108 28.757H32.2857V27.2241H29.4818L30.6461 26.4091C31.6648 25.6912 32.2178 25.1187 32.2178 24.0321C32.2178 22.732 31.1991 21.8491 29.7147 21.8491C28.3952 21.8491 27.6772 22.3633 26.9496 23.3044L28.2206 24.362C28.7542 23.7507 29.1131 23.4888 29.5691 23.4888C30.0251 23.4888 30.3259 23.7507 30.3259 24.1776C30.3259 24.5851 30.0931 24.915 29.4527 25.4001L26.9108 27.3405V28.757Z" fill="white"/>
<path d="M36.1766 28.893C38.117 28.893 39.3298 27.2824 39.3298 25.3614C39.3298 23.421 38.1267 21.8298 36.196 21.8298C34.2653 21.8298 33.0428 23.4404 33.0428 25.3614C33.0428 27.3018 34.2361 28.893 36.1766 28.893ZM36.196 27.2242C35.4392 27.2242 34.9347 26.448 34.9347 25.3614C34.9347 24.2554 35.4295 23.4986 36.1766 23.4986C36.9236 23.4986 37.4379 24.2845 37.4379 25.3614C37.4379 26.4577 36.9527 27.2242 36.196 27.2242Z" fill="white"/>
<path d="M39.9575 28.757H45.3324V27.2241H42.5285L43.6928 26.4091C44.7115 25.6912 45.2645 25.1187 45.2645 24.0321C45.2645 22.732 44.2458 21.8491 42.7614 21.8491C41.4419 21.8491 40.7239 22.3633 39.9963 23.3044L41.2672 24.362C41.8009 23.7507 42.1598 23.4888 42.6158 23.4888C43.0718 23.4888 43.3726 23.7507 43.3726 24.1776C43.3726 24.5851 43.1398 24.915 42.4994 25.4001L39.9575 27.3405V28.757Z" fill="white"/>
<path d="M47.2731 28.757H49.1262V21.917H47.7582L45.7693 22.4797L46.1283 23.935L47.2731 23.6731V28.757Z" fill="white"/>
<path fill-rule="evenodd" clip-rule="evenodd" d="M12.9934 30.7724C10.5366 31.1671 9.15943 33.3526 9.90415 35.6748C10.5535 37.6996 13.0176 38.5891 15.1986 37.5858L15.4684 37.4617L15.4893 37.1189C15.5007 36.9304 15.5184 36.6363 15.5286 36.4653C15.5502 36.1043 15.5602 36.1123 15.3253 36.2998C13.773 37.5384 11.6315 36.9033 11.1815 35.0709C10.5789 32.6166 12.761 30.9506 15.06 32.1096C15.2097 32.1848 15.3407 32.2466 15.3513 32.2466C15.3618 32.2466 15.366 31.9558 15.3608 31.6005L15.3513 30.9544L15.1049 30.8898C14.4779 30.7252 13.5933 30.6761 12.9934 30.7724ZM24.7617 30.8394C24.092 31.0195 23.978 31.9148 24.5794 32.2711C24.9512 32.4915 25.4515 32.3462 25.6435 31.9623C25.9513 31.3471 25.4148 30.6639 24.7617 30.8394ZM50.2416 30.8387C49.3634 31.0773 49.5278 32.3634 50.4374 32.3693C51.385 32.3755 51.4655 30.9528 50.5253 30.8132C50.4576 30.8032 50.3299 30.8146 50.2416 30.8387ZM56.2616 32.7917L55.3642 33.7564L55.6697 33.7667L55.9752 33.7769L55.9873 35.4541C56.0011 37.3767 56.003 37.3884 56.312 37.676C56.5883 37.9331 57.4609 38.0418 57.896 37.8732C57.9475 37.8534 58.6316 36.8655 58.6096 36.8431C58.6051 36.8387 58.5146 36.8592 58.4082 36.8888C58.124 36.9674 57.5752 36.9699 57.4365 36.893C57.216 36.7713 57.2117 36.7389 57.2117 35.1809V33.7743H57.8451H58.4787V33.3657V32.9571H57.8451H57.2117V32.3887C57.2117 32.076 57.1999 31.8218 57.1854 31.8237C57.1707 31.8255 56.7552 32.2611 56.2616 32.7917ZM17.2867 32.9399C17.132 32.9656 16.9344 33.0085 16.8479 33.0353L16.6905 33.0841L16.5088 33.6512C16.2951 34.3183 16.286 34.2685 16.592 34.1137C17.4958 33.6557 18.2934 33.8809 18.3041 34.5973L18.3073 34.8086L17.9498 34.9636C16.3158 35.6719 15.9478 35.996 15.9511 36.7228C15.9539 37.3411 16.298 37.7404 16.9478 37.8796C17.3484 37.9652 17.5159 37.9497 17.6764 37.8121C17.8799 37.6374 18.2574 37.3623 18.2936 37.3623C18.3108 37.3623 18.325 37.4821 18.325 37.6287V37.8951H19.064C19.4704 37.8951 19.803 37.8884 19.803 37.8804C19.803 37.8721 19.772 37.7926 19.7341 37.7036C19.5702 37.3173 19.5469 37.0723 19.5234 35.4794C19.5018 34.0219 19.4982 33.9625 19.4213 33.7671C19.1512 33.0801 18.3387 32.7652 17.2867 32.9399ZM21.8442 32.9241C21.0934 33.0589 20.5764 33.6482 20.5776 34.3682C20.5787 34.9693 20.7991 35.3311 21.4297 35.7671C22.1243 36.2475 22.315 36.5913 22.0919 36.9609C21.8094 37.4286 21.0687 37.208 20.6472 36.5305C20.4795 36.2608 20.4836 36.251 20.4563 36.9804C20.4429 37.337 20.4239 37.6566 20.4143 37.6909C20.3926 37.7671 20.4885 37.808 20.8577 37.8799C22.4548 38.1911 23.4425 37.5803 23.3858 36.3159C23.3609 35.7575 23.1345 35.4139 22.5041 34.9781C21.9429 34.5899 21.8031 34.4161 21.8031 34.1056C21.8031 33.5856 22.4176 33.4814 23.0216 33.899L23.2518 34.0579V33.546V33.0339L23.0058 32.9773C22.6958 32.9062 22.0973 32.8788 21.8442 32.9241ZM29.2343 32.9227C28.9451 32.9837 28.8797 33.0347 28.4862 33.5042L28.0966 33.9686L28.1181 33.4629L28.1395 32.9571H27.4159H26.6923L26.7158 33.0371C26.8635 33.5389 26.8756 33.717 26.876 35.3972C26.8765 37.0957 26.8648 37.2667 26.7201 37.6776C26.69 37.7632 26.6653 37.847 26.6653 37.8641C26.6653 37.8811 27.0438 37.8951 27.5062 37.8951H28.3469L28.2639 37.6237C28.1297 37.1847 28.1083 36.8952 28.1083 35.5343V34.2443L28.3105 34.1475C28.8755 33.8771 29.4627 33.9789 29.6944 34.3875L29.7799 34.538L29.7776 35.817C29.7752 37.1952 29.7833 37.117 29.5675 37.8153L29.5428 37.8951H30.3916C30.8584 37.8951 31.2402 37.8892 31.2402 37.8818C31.2402 37.8746 31.2153 37.7987 31.1848 37.7132C31.0362 37.2965 31.0226 37.1377 30.997 35.5327C30.9695 33.8 30.9667 33.7788 30.7113 33.4232C30.4231 33.0216 29.7868 32.8059 29.2343 32.9227ZM33.8268 32.9393C31.5687 33.409 31.0861 36.9546 33.1699 37.7642C34.7224 38.3674 36.3311 37.4234 36.5795 35.7636C36.8469 33.9765 35.4973 32.5916 33.8268 32.9393ZM39.7966 32.9222C39.4155 33.0033 39.1744 33.2028 38.9172 33.6499L38.7537 33.934L38.7435 33.6646C38.7379 33.5163 38.7473 33.3045 38.7645 33.1943C38.7817 33.0839 38.7876 32.9854 38.7776 32.9754C38.7191 32.9162 37.3242 32.9589 37.3425 33.0193C37.5193 33.6033 37.5492 34.0276 37.5294 35.676C37.5117 37.1374 37.4986 37.2857 37.3479 37.7132C37.3179 37.7987 37.2933 37.8746 37.2933 37.8818C37.2933 37.8892 37.6733 37.8951 38.1378 37.8951C38.6024 37.8951 38.9825 37.8897 38.9825 37.883C38.9825 37.8763 38.9502 37.7763 38.9108 37.6609C38.7645 37.232 38.7365 36.8876 38.7363 35.5219L38.7361 34.2322L38.9649 34.1242C39.5067 33.8683 39.9698 33.9864 40.1682 34.4314C40.3261 34.7858 40.2682 37.0416 40.0867 37.603C40.0407 37.7453 40.0029 37.8694 40.0029 37.8785C40.0029 37.8877 40.3848 37.8951 40.8514 37.8951C41.6449 37.8951 41.6982 37.8911 41.676 37.8329C41.4923 37.3526 41.4459 36.869 41.4459 35.4389V34.2064L41.5603 34.1367C41.9525 33.8979 42.4815 33.9294 42.7379 34.2069C42.9097 34.3927 42.9345 34.5454 42.951 35.5149C42.9717 36.7303 42.9245 37.2124 42.7245 37.8329C42.7059 37.891 42.7607 37.8951 43.5524 37.8951H44.4002L44.363 37.7974C44.1928 37.3512 44.1823 37.2355 44.1578 35.5682C44.1371 34.155 44.1272 33.9493 44.0712 33.7946C43.6614 32.6623 42.2097 32.5542 41.6029 33.6106C41.4284 33.9145 41.3754 33.9712 41.3754 33.8542C41.3751 33.2887 40.5002 32.7722 39.7966 32.9222ZM46.8133 32.924C45.6777 33.1156 45.0184 34.061 45.0184 35.4972C45.0184 36.7776 45.4604 37.5012 46.4475 37.8362C46.9895 38.0199 48.0896 37.9674 48.4268 37.7413C48.4928 37.6972 48.8592 36.521 48.8193 36.4809C48.8108 36.4723 48.6646 36.5379 48.4945 36.6266C47.6512 37.0656 46.8453 36.955 46.4952 36.3519C46.4042 36.1952 46.2546 35.6702 46.2812 35.6006C46.2917 35.5725 46.6793 35.5525 47.5749 35.5343C48.2783 35.5199 48.8617 35.5002 48.8714 35.4908C48.9207 35.4419 48.882 34.3845 48.8229 34.1678C48.5637 33.2179 47.8156 32.7548 46.8133 32.924ZM53.5341 32.9109C52.1097 33.1016 51.6547 34.7488 52.7917 35.5993C52.9097 35.6877 53.124 35.8479 53.2678 35.9555C53.9683 36.4792 53.9149 37.1856 53.1747 37.1843C52.7994 37.1837 52.5264 36.9922 52.2228 36.5165L52.0935 36.3142L52.0709 36.4742C52.0585 36.562 52.0374 36.8923 52.024 37.2081L51.9998 37.7821L52.256 37.8409C53.7867 38.1923 54.799 37.7554 54.9659 36.671C55.0738 35.9712 54.8193 35.4776 54.0973 34.9856C53.5865 34.6378 53.3758 34.3801 53.3759 34.1042C53.3766 33.6031 53.9902 33.4795 54.5608 33.8659C54.6884 33.9523 54.7986 34.0228 54.8058 34.0228C54.8129 34.0228 54.8188 33.8011 54.8188 33.5301V33.0374L54.6691 32.9969C54.3335 32.9057 53.8475 32.8688 53.5341 32.9109ZM60.6351 32.9389C59.5529 33.1371 58.8929 34.1063 58.8929 35.4972C58.8929 36.795 59.3947 37.5667 60.433 37.8651C60.9601 38.0168 62.1503 37.9291 62.3574 37.7237C62.391 37.6901 62.7318 36.4742 62.7073 36.4742C62.6968 36.4742 62.5447 36.5456 62.3695 36.6329C61.2425 37.1942 60.24 36.775 60.1925 35.7225L60.1853 35.5682L61.4347 35.5399C62.1219 35.5241 62.7056 35.5041 62.732 35.495C62.8006 35.4716 62.7672 34.3221 62.6913 34.0903C62.3875 33.1621 61.6554 32.7523 60.6351 32.9389ZM65.9858 32.9859C65.6788 33.1118 65.3791 33.418 65.1064 33.8847C65.0257 34.0226 64.9484 34.146 64.9345 34.1591C64.9206 34.1721 64.918 33.907 64.9288 33.5699L64.9484 32.9571H64.2273C63.5569 32.9571 63.5077 32.9615 63.5251 33.0193C63.8241 34.0067 63.8038 37.0495 63.493 37.8329C63.4699 37.8911 63.5228 37.8951 64.3168 37.8951C64.7833 37.8951 65.165 37.8897 65.165 37.883C65.165 37.8763 65.1326 37.7763 65.093 37.6609C64.9558 37.2615 64.9191 36.846 64.9189 35.6868L64.9187 34.5976L65.0331 34.5C65.3922 34.1933 65.8751 34.1287 66.2974 34.3307L66.5324 34.443L66.5514 34.3128C66.5618 34.2413 66.5949 33.967 66.6248 33.7031C66.6547 33.4395 66.6868 33.1654 66.696 33.0944C66.7107 32.9835 66.7019 32.9623 66.634 32.9439C66.4833 32.9031 66.132 32.9258 65.9858 32.9859ZM24.1315 32.9921C24.1315 33.0114 24.1744 33.1673 24.2269 33.3386L24.3222 33.6499L24.3347 35.273C24.348 37.0007 24.3279 37.2979 24.1703 37.7168L24.1031 37.8951H24.9589H25.8147L25.7464 37.7086C25.5961 37.2971 25.5744 37.0086 25.5746 35.4303C25.5749 33.8737 25.5893 33.6689 25.7302 33.2213L25.8134 32.9571H24.9724C24.4438 32.9571 24.1315 32.9701 24.1315 32.9921ZM49.6657 33.2287C49.8944 33.9768 49.8965 36.8976 49.6688 37.6214L49.5826 37.8951H50.4235C50.8859 37.8951 51.2642 37.8873 51.2642 37.8779C51.2642 37.8684 51.2208 37.7206 51.1676 37.5493L51.071 37.2379V35.4439C51.0709 33.697 51.0729 33.6429 51.1486 33.3834C51.1915 33.2369 51.2368 33.081 51.2494 33.0371L51.2726 32.9571H50.4278H49.5827L49.6657 33.2287ZM47.4042 33.7462C47.6953 33.8342 47.894 34.1652 47.9424 34.6428L47.966 34.8756H47.1222H46.2784L46.3118 34.6535C46.4239 33.9054 46.826 33.5713 47.4042 33.7462ZM61.3468 33.7703C61.5967 33.8868 61.7677 34.1616 61.8063 34.5081C61.8166 34.6028 61.832 34.724 61.8404 34.7779L61.8553 34.8756H61.0115C60.0489 34.8756 60.1348 34.9145 60.2186 34.5151C60.3572 33.8551 60.8419 33.535 61.3468 33.7703ZM34.5629 33.8595C35.3737 34.3391 35.5316 36.1917 34.8182 36.8556C33.9376 37.675 32.8642 36.1381 33.2617 34.6269C33.4613 33.8682 34.0203 33.5384 34.5629 33.8595ZM18.325 36.3825V37.037L18.22 37.0601C17.494 37.2212 17.0183 36.5765 17.3036 35.8186L17.3378 35.7281H17.8313H18.325V36.3825Z" fill="white"/>
</g>
</g>
</g>
</g>
<defs>
<clipPath id="clip0_0_4811">
<rect width="76" height="38" fill="white"/>
</clipPath>
<clipPath id="clip1_0_4811">
<rect width="76" height="38" fill="white"/>
</clipPath>
<clipPath id="clip2_0_4811">
<rect width="76" height="38" fill="white"/>
</clipPath>
</defs>
</svg>
