<svg width="73" height="42" viewBox="0 0 73 42" fill="none" xmlns="http://www.w3.org/2000/svg">
<g clip-path="url(#clip0_0_4796)">
<g clip-path="url(#clip1_0_4796)">
<g clip-path="url(#clip2_0_4796)">
<mask id="mask0_0_4796" style="mask-type:luminance" maskUnits="userSpaceOnUse" x="-1" y="0" width="74" height="42">
<path d="M72.235 0H-0.00500488V42H72.235V0Z" fill="white"/>
</mask>
<g mask="url(#mask0_0_4796)">
<mask id="mask1_0_4796" style="mask-type:luminance" maskUnits="userSpaceOnUse" x="-1" y="0" width="74" height="42">
<path d="M72.235 0H-0.00500488V42H72.235V0Z" fill="white"/>
</mask>
<g mask="url(#mask1_0_4796)">
<path fill-rule="evenodd" clip-rule="evenodd" d="M57.2178 31.0801C59.0199 31.0801 60.706 31.9694 61.7239 33.4565C62.9963 35.3157 62.9963 37.7657 61.7236 39.6247C60.7058 41.1113 59.0202 42.0001 57.2186 42.0001H15.0113C13.2096 42.0001 11.524 41.1113 10.5063 39.6247C9.23349 37.7657 9.23349 35.3157 10.5059 33.4565C11.5238 31.9694 13.21 31.0801 15.012 31.0801H57.2178ZM21.2845 38.6401C22.0778 38.6401 22.5477 38.3964 22.9708 37.9498L22.395 37.3406C22.0719 37.6306 21.7839 37.8163 21.3139 37.8163C20.6088 37.8163 20.1212 37.2362 20.1212 36.5401C20.1212 35.8324 20.6206 35.2639 21.3139 35.2639C21.7839 35.2639 22.0542 35.432 22.3715 35.7163L22.912 35.1014C22.5302 34.7301 22.0954 34.4401 21.3198 34.4401C20.0566 34.4401 19.1752 35.3857 19.1752 36.5401C19.1752 37.7177 20.0742 38.6401 21.2845 38.6401ZM15.9549 38.5704H18.9103V37.7583H16.8598V34.5097H15.9549V38.5704ZM25.6516 38.5704H23.6952V34.5097H25.6047C26.0747 34.5097 26.4448 34.6373 26.6799 34.8693C26.8679 35.055 26.9619 35.2813 26.9619 35.5713C26.9619 36.0296 26.7151 36.2848 26.4213 36.4473C26.8973 36.6271 27.191 36.8998 27.191 37.4567C27.191 38.1992 26.58 38.5704 25.6516 38.5704ZM24.5764 35.2928V36.1514H25.4108C25.8103 36.1514 26.063 36.0238 26.063 35.7105C26.063 35.4437 25.8515 35.2928 25.4695 35.2928H24.5764ZM24.5764 36.894V37.7873H25.6516C26.0512 37.7873 26.2921 37.6481 26.2921 37.3348C26.2921 37.0621 26.0865 36.894 25.6223 36.894H24.5764ZM29.3443 38.5704H30.2668L30.6427 37.6597H32.3819L32.7579 38.5704H33.7039L31.9412 34.4807H31.1069L29.3443 38.5704ZM30.9659 36.8707L31.5123 35.5539L32.0587 36.8707H30.9659ZM35.6851 38.5995H34.8978L33.4935 34.5097H34.463L35.3149 37.2595L36.2374 34.4981H37.013L37.9354 37.2595L38.7873 34.5097H39.7332L38.329 38.5995H37.5417L36.6134 35.9426L35.6851 38.5995ZM39.523 38.5704H40.4455L40.8215 37.6597H42.5607L42.9367 38.5704H43.8826L42.12 34.4807H41.2857L39.523 38.5704ZM41.1447 36.8707L41.6911 35.5539L42.2375 36.8707H41.1447ZM45.4223 38.5704H44.5174V34.5097H46.3976C46.9205 34.5097 47.3259 34.6547 47.5962 34.9216C47.8254 35.1478 47.9487 35.4669 47.9487 35.8614C47.9487 36.5169 47.5903 36.9287 47.0674 37.1202L48.0721 38.5704H47.0145L46.1214 37.271H45.4223V38.5704ZM45.4223 35.316V36.482H46.3388C46.7795 36.482 47.0321 36.25 47.0321 35.8961C47.0321 35.5133 46.7618 35.316 46.3212 35.316H45.4223ZM48.7634 38.5704H50.3674C51.66 38.5704 52.553 37.6829 52.553 36.5401C52.553 35.3857 51.66 34.5097 50.3674 34.5097H48.7634V38.5704ZM49.6682 35.316H50.3674C51.1077 35.316 51.6071 35.8207 51.6071 36.5401C51.6071 37.271 51.1077 37.7641 50.3674 37.7641H49.6682V35.316ZM56.2749 37.3697C56.2749 38.176 55.6521 38.6285 54.7649 38.6285C54.1422 38.6285 53.5134 38.4139 53.0199 37.9787L53.5546 37.3464C53.9248 37.6481 54.3125 37.8396 54.7826 37.8396C55.1527 37.8396 55.3759 37.6945 55.3759 37.445C55.3759 37.2188 55.235 37.1028 54.5475 36.9287C53.7191 36.7199 53.1844 36.4937 53.1844 35.6757C53.1844 34.939 53.7837 34.4517 54.6239 34.4517C55.2232 34.4517 55.7344 34.6373 56.1515 34.968L55.6815 35.6409C55.3172 35.3915 54.9588 35.2406 54.6121 35.2406C54.2655 35.2406 54.0834 35.3973 54.0834 35.6061C54.0834 35.873 54.2597 35.96 54.9706 36.1398C55.8049 36.3544 56.2749 36.6503 56.2749 37.3697Z" fill="white"/>
<path d="M8.75779 3.02011C8.89992 2.1191 8.66564 1.24945 8.18254 0.608887C7.52982 1.04723 7.04091 1.78826 6.89885 2.68992C6.75679 3.59093 6.991 4.46122 7.47415 5.10115C8.12751 4.6628 8.61575 3.92177 8.75779 3.02011Z" fill="white"/>
<path d="M5.03095 8.37551C5.51282 7.7343 5.74575 6.864 5.60177 5.96299C5.45714 5.06198 4.9676 4.32159 4.3136 3.88452C3.83174 4.52637 3.59944 5.39666 3.74343 6.29767C3.88741 7.19868 4.37696 7.93844 5.03095 8.37551Z" fill="white"/>
<path d="M3.43372 12.3432C3.77224 11.606 3.82087 10.7031 3.49579 9.85702C3.17007 9.01047 2.53974 8.40122 1.81215 8.12671C1.47363 8.86389 1.42499 9.76681 1.75072 10.6128C2.0758 11.4594 2.70612 12.0687 3.43372 12.3432Z" fill="white"/>
<path d="M15.5591 30.2377C13.0404 29.7034 10.773 28.5669 8.89875 27.0113C9.51439 26.5678 9.97378 25.8511 10.1101 24.984C10.2522 24.0823 10.018 23.2127 9.5348 22.5727C8.88145 23.0111 8.39317 23.7528 8.25111 24.6538C8.12697 25.4396 8.29015 26.2024 8.65431 26.809C7.77757 26.0501 6.99367 25.1945 6.31534 24.266C7.01478 23.9921 7.62335 23.4111 7.95163 22.6022C8.29142 21.7626 8.25943 20.8584 7.93371 20.1148C7.20163 20.3753 6.56044 20.9717 6.21999 21.8113C5.92243 22.5453 5.91027 23.3292 6.12913 24.0119C5.38617 22.9491 4.78337 21.792 4.3399 20.5711C5.09884 20.4559 5.82581 20.0002 6.30446 19.2503C6.78697 18.4933 6.91495 17.5986 6.72745 16.8032C5.96147 16.9132 5.22684 17.3708 4.74369 18.1279C4.28551 18.8471 4.15048 19.6893 4.29958 20.454C3.86379 19.2234 3.60079 17.925 3.51504 16.5908C4.28423 16.6643 5.09565 16.3918 5.72469 15.7678C6.35374 15.1445 6.66602 14.3024 6.64938 13.4827C5.8802 13.409 5.0675 13.6817 4.43845 14.3055C3.81517 14.9231 3.50415 15.755 3.51439 16.5677C3.49584 16.2765 3.47601 15.986 3.47601 15.6916C3.47601 14.5821 3.60719 13.4923 3.8542 12.4402C4.54212 12.7839 5.37786 12.8299 6.16176 12.4901C6.95911 12.1452 7.53248 11.4758 7.79165 10.7035C7.09733 10.3444 6.24623 10.2926 5.44953 10.6382C4.74881 10.9415 4.22023 11.4957 3.92715 12.1516C4.25159 10.8871 4.74433 9.67958 5.38425 8.55457C5.9877 9.06394 6.80616 9.30905 7.65278 9.15676C8.50135 9.0038 9.19888 8.48359 9.61032 7.78927C9.00627 7.27861 8.18648 7.0316 7.33794 7.1839C6.50988 7.333 5.82836 7.83278 5.41369 8.50148C6.05874 7.37843 6.8484 6.3392 7.76285 5.41131C8.17816 6.08963 8.86742 6.59709 9.7044 6.74619C10.5536 6.89721 11.3727 6.64828 11.9762 6.13506C11.5634 5.44202 10.8646 4.92368 10.016 4.77267C9.26155 4.63892 8.53142 4.8213 7.95483 5.22317C8.61844 4.57365 9.3537 3.99324 10.1319 3.4685C10.7935 3.66368 11.5238 3.64 12.1931 3.32004C12.9757 2.94632 13.5017 2.26672 13.6982 1.5001C12.9578 1.18142 12.085 1.17054 11.3023 1.54489C10.5862 1.88661 10.0979 2.48941 9.86761 3.17606C5.75669 5.97893 3.10933 10.6152 3.10933 15.6916C3.10933 15.8081 3.11381 15.9233 3.11701 16.0391C3.04533 15.4222 2.79128 14.815 2.3523 14.3158C1.76485 13.6477 0.971983 13.3163 0.199591 13.3336C0.130479 14.1507 0.387088 15.0127 0.974545 15.6808C1.56199 16.3488 2.35486 16.6803 3.12725 16.6631C3.13172 16.6055 3.13172 16.5478 3.133 16.4896C3.19764 17.6703 3.40561 18.8221 3.73901 19.9279C3.5272 19.4243 3.18228 18.9687 2.71193 18.6308C1.99906 18.1182 1.15692 17.9826 0.407565 18.1822C0.511233 18.9949 0.942541 19.775 1.65542 20.2876C2.36765 20.7995 3.21043 20.9358 3.95979 20.7362C3.94826 20.6434 3.93035 20.5519 3.91051 20.4597C4.27974 21.5361 4.76929 22.5638 5.36633 23.5275C5.08797 23.1871 4.73473 22.9029 4.31302 22.7097C3.52272 22.3481 2.67098 22.3833 1.97026 22.7282C2.21599 23.5064 2.77785 24.186 3.56815 24.5482C4.3591 24.9091 5.21019 24.8746 5.91091 24.5296C5.86164 24.3722 5.79572 24.2212 5.72149 24.0747C6.31534 24.9475 6.99942 25.7602 7.76157 26.5006C7.42561 26.2593 7.03334 26.086 6.60139 26.0098C5.75221 25.8587 4.9331 26.1077 4.3303 26.6203C4.74305 27.314 5.44121 27.8323 6.29038 27.9833C7.13957 28.1337 7.95867 27.8847 8.56149 27.3722C8.47833 27.232 8.38038 27.1015 8.27479 26.9774C10.2663 28.7455 12.73 30.0349 15.4868 30.6204L15.5591 30.2377Z" fill="white"/>
<path d="M64.9325 5.10115C65.415 4.46122 65.6492 3.59093 65.5077 2.68992C65.3651 1.78826 64.8768 1.04723 64.2234 0.608887C63.7403 1.24945 63.5061 2.1191 63.6481 3.02011C63.7902 3.92177 64.2791 4.6628 64.9325 5.10115Z" fill="white"/>
<path d="M68.6256 6.29767C68.7696 5.39666 68.5367 4.52637 68.0548 3.88452C67.4014 4.32159 66.9112 5.06198 66.7672 5.96299C66.6232 6.864 66.8561 7.7343 67.3374 8.37551C67.9914 7.93844 68.4815 7.19868 68.6256 6.29767Z" fill="white"/>
<path d="M68.9395 12.3432C69.6677 12.0687 70.2975 11.4594 70.6231 10.6128C70.9482 9.76681 70.8996 8.86389 70.5617 8.12671C69.8335 8.40122 69.2038 9.01047 68.878 9.85702C68.553 10.7031 68.6016 11.606 68.9395 12.3432Z" fill="white"/>
<path d="M69.6661 18.6284C69.1958 18.9663 68.8515 19.4219 68.639 19.9256C68.9731 18.8198 69.181 17.6679 69.245 16.4872C69.2469 16.5455 69.2463 16.603 69.2514 16.6607C70.0232 16.678 70.8166 16.3464 71.4041 15.6784C71.9916 15.0103 72.2482 14.1483 72.179 13.3311C71.4067 13.3138 70.6139 13.6453 70.0264 14.3134C69.5874 14.8126 69.3334 15.4198 69.2616 16.0367C69.2642 15.9209 69.2694 15.8057 69.2694 15.6893C69.2694 10.6127 66.6214 5.97648 62.5105 3.17361C62.2801 2.48698 61.7919 1.88417 61.0758 1.54245C60.2931 1.1681 59.4203 1.17898 58.6799 1.49765C58.8764 2.26429 59.4024 2.94388 60.185 3.3176C60.8543 3.63756 61.5845 3.66124 62.2468 3.46606C63.025 3.9908 63.7602 4.57121 64.4232 5.22074C63.8467 4.81886 63.1164 4.63648 62.362 4.77023C61.5135 4.92125 60.8154 5.43959 60.4026 6.13262C61.0054 6.64585 61.8244 6.89477 62.6737 6.74375C63.5107 6.59465 64.2006 6.08719 64.6152 5.40887C65.5296 6.33676 66.32 7.376 66.965 8.49905C66.5497 7.83034 65.8681 7.33056 65.0407 7.18146C64.1922 7.02916 63.3718 7.27617 62.7684 7.78683C63.1799 8.48115 63.8767 9.00137 64.7259 9.15433C65.5725 9.30662 66.3903 9.06159 66.9944 8.55213C67.6343 9.67715 68.1271 10.8847 68.4509 12.1492C68.1578 11.4932 67.6299 10.9391 66.9285 10.6358C66.1318 10.2902 65.2814 10.342 64.5864 10.701C64.8462 11.4734 65.4196 12.1428 66.2169 12.4877C67.0008 12.8275 67.8359 12.7814 68.5245 12.4378C68.7708 13.4898 68.9027 14.5796 68.9027 15.6893C68.9027 15.9836 68.8822 16.2742 68.8643 16.5653C68.8745 15.7526 68.5635 14.9207 67.9402 14.3032C67.3112 13.6792 66.4985 13.4067 65.7287 13.4802C65.7126 14.3 66.0243 15.1421 66.6539 15.7654C67.2823 16.3893 68.0945 16.6619 68.863 16.5883C68.7779 17.9226 68.5149 19.221 68.0791 20.4516C68.2282 19.6868 68.0932 18.8447 67.635 18.1254C67.1518 17.3684 66.4172 16.9109 65.6512 16.8008C65.4631 17.5962 65.5911 18.4908 66.0742 19.2479C66.5529 19.9979 67.2798 20.4535 68.0388 20.5687C67.5953 21.7896 66.9925 22.9466 66.2489 24.0096C66.4684 23.3267 66.4562 22.5428 66.158 21.8088C65.8182 20.9693 65.1771 20.3729 64.4443 20.1124C64.1186 20.8559 64.0867 21.7602 64.427 22.5998C64.7553 23.4086 65.3639 23.9897 66.0633 24.2636C65.3844 25.1921 64.6011 26.0477 63.7238 26.8067C64.0879 26.2 64.251 25.4372 64.1269 24.6514C63.9848 23.7503 63.4966 23.0087 62.8439 22.5703C62.3607 23.2103 62.1259 24.08 62.268 24.9816C62.4049 25.8487 62.8637 26.5653 63.4799 27.0089C61.6056 28.5645 59.3377 29.701 56.8196 30.2354L56.8913 30.618C59.6481 30.0325 62.1118 28.743 64.1033 26.9749C63.9977 27.0991 63.9004 27.2296 63.8166 27.3697C64.42 27.8824 65.2391 28.1313 66.0883 27.9809C66.9369 27.8299 67.635 27.3115 68.0483 26.6178C67.4456 26.1053 66.6258 25.8564 65.7773 26.0073C65.3453 26.0835 64.953 26.257 64.6171 26.4982C65.3792 25.7578 66.0627 24.9451 66.6572 24.0722C66.5823 24.2188 66.5164 24.3698 66.4671 24.5273C67.1684 24.8722 68.0196 24.9067 68.8099 24.5458C69.6008 24.1836 70.1627 23.504 70.4077 22.7259C69.7071 22.3809 68.8559 22.3457 68.065 22.7073C67.644 22.9005 67.2901 23.1847 67.0117 23.5251C67.6088 22.5614 68.0989 21.5337 68.4682 20.4573C68.4477 20.5494 68.4304 20.641 68.4189 20.7337C69.1682 20.9334 70.0104 20.7971 70.7232 20.2852C71.4361 19.7726 71.8674 18.9925 71.9711 18.1798C71.2211 17.9802 70.379 18.1159 69.6661 18.6284Z" fill="white"/>
<path d="M25.195 8.50085H28.2274C29.6302 8.50085 30.4534 7.88764 30.4534 6.87964C30.4534 6.06484 29.9998 5.66165 29.2858 5.42645C29.8066 5.19965 30.193 4.79645 30.193 4.11605C30.193 3.69605 30.0502 3.38525 29.815 3.15005C29.4706 2.80565 28.9498 2.62085 28.2106 2.62085H25.195V8.50085ZM26.7826 7.19045V6.10685H28.0258C28.5718 6.10685 28.8238 6.31685 28.8238 6.63605C28.8238 6.99725 28.5382 7.19045 28.0426 7.19045H26.7826ZM26.7826 4.96445V3.93125H27.841C28.3282 3.93125 28.5802 4.11605 28.5802 4.43525C28.5802 4.79645 28.303 4.96445 27.8074 4.96445H26.7826Z" fill="white"/>
<path d="M31.1996 8.50085H35.9708V7.11485H32.8124V6.18245H35.6348V4.89725H32.8124V4.00685H35.9288V2.62085H31.1996V8.50085Z" fill="white"/>
<path d="M39.1122 8.60162C40.5402 8.60162 41.4894 7.88762 41.4894 6.68642C41.4894 5.56922 40.6494 5.13242 39.297 4.83842C38.4822 4.65362 38.2806 4.53602 38.2806 4.26722C38.2806 4.04042 38.4738 3.87242 38.8686 3.87242C39.3894 3.87242 39.9774 4.07402 40.515 4.45202L41.3298 3.30122C40.6914 2.78882 39.9102 2.52002 38.9106 2.52002C37.4994 2.52002 36.6342 3.30962 36.6342 4.40162C36.6342 5.62802 37.6002 5.98082 38.8518 6.26642C39.6498 6.45122 39.843 6.58562 39.843 6.82922C39.843 7.09802 39.6078 7.24922 39.171 7.24922C38.4906 7.24922 37.8438 7.00562 37.2642 6.54362L36.357 7.62722C37.0794 8.27402 38.0706 8.60162 39.1122 8.60162Z" fill="white"/>
<path d="M43.554 8.50085H45.1836V4.04885H46.9476V2.62085H41.79V4.04885H43.554V8.50085Z" fill="white"/>
<path d="M14.7353 19.3201C16.7363 19.3201 17.8852 18.4697 18.7372 17.3147L16.8525 15.9947C16.3102 16.642 15.7552 17.0735 14.8128 17.0735C13.5477 17.0735 12.6569 16.0327 12.6569 14.7001C12.6569 13.3801 13.5477 12.3267 14.8128 12.3267C15.6777 12.3267 16.2845 12.7201 16.8008 13.3547L18.6339 11.9586C17.8336 10.867 16.6846 10.0801 14.8386 10.0801C12.1018 10.0801 10.075 12.1109 10.075 14.7001C10.075 17.3782 12.1534 19.3201 14.7353 19.3201Z" fill="white"/>
<path d="M19.0919 19.1424H21.7254L22.3709 17.5558H25.8564L26.5148 19.1424H29.2L25.3529 10.1943H22.9389L19.0919 19.1424ZM23.1067 15.6393L24.1265 13.1136L25.1335 15.6393H23.1067Z" fill="white"/>
<path d="M33.5005 19.2947C35.6951 19.2947 37.1539 18.2158 37.1539 16.4008C37.1539 14.7128 35.8629 14.0528 33.7845 13.6085C32.5323 13.3293 32.2225 13.1516 32.2225 12.7455C32.2225 12.4028 32.5194 12.1489 33.1262 12.1489C33.9266 12.1489 34.8302 12.4535 35.6564 13.0247L36.9086 11.2858C35.9275 10.5116 34.7269 10.1055 33.1907 10.1055C31.0219 10.1055 29.6923 11.2985 29.6923 12.9485C29.6923 14.8017 31.1768 15.3347 33.1003 15.7662C34.3267 16.0454 34.6237 16.2486 34.6237 16.6166C34.6237 17.0228 34.2622 17.2513 33.5909 17.2513C32.5453 17.2513 31.5512 16.8832 30.6605 16.1851L29.2662 17.8224C30.3765 18.7997 31.8998 19.2947 33.5005 19.2947Z" fill="white"/>
<path d="M38.4233 19.1425H40.9407V10.2578H38.4233V19.1425Z" fill="white"/>
<path d="M42.5955 19.1425H45.074V14.2686L48.9339 19.1425H51.1286V10.2578H48.6499V14.954L44.9321 10.2578H42.5955V19.1425Z" fill="white"/>
<path d="M57.2751 19.3201C60.0635 19.3201 62.1548 17.2512 62.1548 14.7001C62.1548 12.1235 60.0893 10.0801 57.3009 10.0801C54.5125 10.0801 52.4211 12.1489 52.4211 14.7001C52.4211 17.2766 54.4866 19.3201 57.2751 19.3201ZM57.3009 17.099C55.9325 17.099 54.9901 15.982 54.9901 14.7001C54.9901 13.3928 55.9066 12.3012 57.2751 12.3012C58.6564 12.3012 59.5988 13.4182 59.5988 14.7001C59.5988 16.0074 58.6822 17.099 57.3009 17.099Z" fill="white"/>
<path d="M22.675 28.1771V27.5622L25.2353 25.3043C26.3239 24.3467 26.707 23.7923 26.707 23.0867C26.707 22.2601 26.0518 21.7359 25.2857 21.7359C24.4793 21.7359 23.9551 22.1593 23.3907 22.9455L22.806 22.5222C23.4411 21.5747 24.1063 21.0203 25.3462 21.0203C26.6163 21.0203 27.5335 21.867 27.5335 23.0363C27.5335 24.0644 26.9791 24.6894 25.7494 25.778L23.8644 27.4513H27.6041V28.1771H22.675Z" fill="white"/>
<path d="M31.8239 28.2979C29.9995 28.2979 28.8503 26.6448 28.8503 24.649C28.8503 22.6733 30.0297 21 31.8441 21C33.6585 21 34.8076 22.6531 34.8076 24.649C34.8076 26.6246 33.6383 28.2979 31.8239 28.2979ZM31.8441 27.5722C33.1646 27.5722 33.9811 26.2114 33.9811 24.649C33.9811 23.1067 33.1343 21.7258 31.8239 21.7258C30.5035 21.7258 29.6769 23.0765 29.6769 24.649C29.6769 26.1912 30.5236 27.5722 31.8441 27.5722Z" fill="white"/>
<path d="M35.8164 28.1771V27.5622L38.3767 25.3043C39.4654 24.3467 39.8484 23.7923 39.8484 23.0867C39.8484 22.2601 39.1932 21.7359 38.4271 21.7359C37.6207 21.7359 37.0966 22.1593 36.5321 22.9455L35.9474 22.5222C36.5825 21.5747 37.2478 21.0203 38.4876 21.0203C39.7577 21.0203 40.675 21.867 40.675 23.0363C40.675 24.0644 40.1206 24.6894 38.8908 25.778L37.0058 27.4513H40.7455V28.1771H35.8164Z" fill="white"/>
<path d="M44.5012 28.2981C43.3219 28.2981 42.4449 27.784 41.8704 27.0381L42.4449 26.524C42.9892 27.1893 43.6444 27.5723 44.5113 27.5723C45.3681 27.5723 46.0536 27.028 46.0536 26.1813C46.0536 25.3043 45.2371 24.8205 44.0779 24.8205H43.6243L43.463 24.3467L45.6907 21.8368H42.2433V21.1211H46.7491V21.7057L44.5315 24.1653C45.7612 24.2661 46.86 24.8608 46.86 26.1712C46.86 27.4312 45.8116 28.2981 44.5012 28.2981Z" fill="white"/>
</g>
</g>
</g>
</g>
</g>
<defs>
<clipPath id="clip0_0_4796">
<rect width="72.23" height="42" fill="white"/>
</clipPath>
<clipPath id="clip1_0_4796">
<rect width="72.23" height="42" fill="white"/>
</clipPath>
<clipPath id="clip2_0_4796">
<rect width="72.24" height="42" fill="white" transform="translate(-0.00500488)"/>
</clipPath>
</defs>
</svg>
