<svg width="76" height="38" viewBox="0 0 76 38" fill="none" xmlns="http://www.w3.org/2000/svg">
<g clip-path="url(#clip0_0_4802)">
<g clip-path="url(#clip1_0_4802)">
<g clip-path="url(#clip2_0_4802)">
<path d="M8.24821 2.32083C8.38501 1.45361 8.15952 0.61655 7.69455 0C7.06627 0.421915 6.5957 1.13517 6.45896 2.00302C6.32222 2.87025 6.54765 3.70792 7.01269 4.32385C7.64158 3.90194 8.11149 3.18869 8.24821 2.32083Z" fill="white" fill-opacity="0.9"/>
<path d="M4.6606 7.47546C5.1244 6.8583 5.3486 6.02062 5.21001 5.15339C5.07082 4.28615 4.59963 3.57351 3.97014 3.15283C3.50635 3.77061 3.28276 4.60829 3.42135 5.47552C3.55993 6.34276 4.03112 7.05478 4.6606 7.47546Z" fill="white" fill-opacity="0.9"/>
<path d="M3.12349 11.2942C3.44931 10.5847 3.49612 9.71557 3.18323 8.9013C2.86972 8.08643 2.26302 7.50007 1.56271 7.23584C1.23688 7.94538 1.19006 8.81451 1.50358 9.62878C1.81647 10.4436 2.42316 11.03 3.12349 11.2942Z" fill="white" fill-opacity="0.9"/>
<path d="M14.7942 28.5183C12.3699 28.004 10.1876 26.91 8.38356 25.4128C8.97613 24.9859 9.41838 24.296 9.54955 23.4615C9.68628 22.5936 9.46086 21.7566 8.99582 21.1407C8.36699 21.5625 7.89701 22.2764 7.76028 23.1436C7.64081 23.9 7.79783 24.6342 8.14834 25.2181C7.30447 24.4876 6.54995 23.6641 5.89707 22.7704C6.57028 22.5068 7.15604 21.9475 7.47201 21.1689C7.79904 20.3608 7.76826 19.4905 7.45476 18.7748C6.75014 19.0255 6.13297 19.5995 5.80529 20.4076C5.51888 21.1141 5.50718 21.8687 5.71783 22.5258C5.00273 21.5028 4.42252 20.3892 3.99568 19.214C4.72617 19.1031 5.42588 18.6646 5.8866 17.9426C6.35101 17.214 6.4742 16.353 6.29373 15.5873C5.55645 15.6933 4.84936 16.1337 4.38433 16.8623C3.94332 17.5547 3.81336 18.3652 3.95687 19.1013C3.53742 17.9168 3.28427 16.6671 3.20174 15.3829C3.94209 15.4537 4.7231 15.1913 5.32856 14.5907C5.93402 13.9909 6.2346 13.1803 6.21859 12.3912C5.47823 12.3204 4.69599 12.5828 4.09053 13.1834C3.49061 13.7778 3.19126 14.5784 3.20112 15.3607C3.18326 15.0804 3.16416 14.8008 3.16416 14.5175C3.16416 13.4495 3.29043 12.4005 3.52818 11.3879C4.19031 11.7186 4.99472 11.763 5.74924 11.436C6.5167 11.1039 7.06857 10.4597 7.31802 9.71626C6.64974 9.37068 5.83054 9.32083 5.0637 9.6534C4.38926 9.9454 3.8805 10.4788 3.59839 11.1101C3.91068 9.89303 4.38495 8.73076 5.00088 7.64792C5.58171 8.13827 6.36948 8.37417 7.18437 8.22757C8.00113 8.08036 8.67244 7.57958 9.06855 6.91129C8.48707 6.41978 7.69804 6.18203 6.88133 6.32862C6.08431 6.47214 5.42834 6.95318 5.02922 7.59683C5.65008 6.51587 6.41014 5.51558 7.29031 4.62249C7.69006 5.27537 8.35339 5.76381 9.15906 5.90732C9.97637 6.05268 10.7648 5.81309 11.3457 5.3191C10.9483 4.65205 10.2757 4.15314 9.45904 4.00778C8.73286 3.87905 8.03008 4.05459 7.47509 4.4414C8.11384 3.81622 8.82155 3.25757 9.57053 2.75251C10.2074 2.94036 10.9102 2.91758 11.5544 2.60961C12.3077 2.2499 12.814 1.59578 13.0031 0.857886C12.2905 0.551153 11.4503 0.540683 10.6971 0.901008C10.0078 1.22991 9.53785 1.81013 9.31616 2.47102C5.35935 5.16882 2.81123 9.63129 2.81123 14.5175C2.81123 14.6296 2.81555 14.7405 2.81863 14.852C2.74964 14.2582 2.50511 13.6737 2.08258 13.1932C1.51716 12.5501 0.754013 12.2311 0.01058 12.2477C-0.0559409 13.0343 0.191049 13.864 0.756477 14.507C1.32191 15.15 2.08504 15.4691 2.82848 15.4524C2.83279 15.397 2.83279 15.3416 2.83402 15.2855C2.89623 16.422 3.09641 17.5307 3.41732 18.595C3.21344 18.1102 2.88145 17.6717 2.42874 17.3464C1.74259 16.8531 0.932018 16.7225 0.210759 16.9147C0.31054 17.6969 0.72568 18.4477 1.41183 18.9411C2.09736 19.4338 2.90855 19.565 3.62981 19.3729C3.61872 19.2836 3.60148 19.1955 3.58238 19.1068C3.93778 20.1428 4.40897 21.132 4.98363 22.0596C4.7157 21.7319 4.37571 21.4584 3.96981 21.2724C3.20913 20.9244 2.38932 20.9583 1.71487 21.2903C1.95139 22.0393 2.49218 22.6934 3.25286 23.042C4.01415 23.3894 4.83335 23.3561 5.5078 23.0242C5.46037 22.8726 5.39693 22.7272 5.32548 22.5862C5.89707 23.4264 6.5555 24.2086 7.28908 24.9212C6.96571 24.689 6.58814 24.5221 6.17239 24.4488C5.35504 24.3035 4.56665 24.543 3.98644 25.0364C4.38372 25.7041 5.0557 26.203 5.87304 26.3483C6.69039 26.4931 7.47879 26.2535 8.05896 25.7602C7.97894 25.6253 7.8847 25.4996 7.78308 25.3801C9.69988 27.082 12.0712 28.323 14.7246 28.8866L14.7942 28.5183Z" fill="white" fill-opacity="0.9"/>
<path d="M68.7852 4.32385C69.2496 3.70792 69.475 2.87025 69.3389 2.00302C69.2015 1.13517 68.7316 0.421915 68.1027 0C67.6377 0.61655 67.4123 1.45361 67.549 2.32083C67.6857 3.18869 68.1563 3.90194 68.7852 4.32385Z" fill="white" fill-opacity="0.9"/>
<path d="M72.3397 5.47552C72.4783 4.60829 72.2541 3.77061 71.7903 3.15283C71.1614 3.57351 70.6896 4.28615 70.551 5.15339C70.4124 6.02062 70.6366 6.8583 71.0998 7.47546C71.7293 7.05478 72.2011 6.34276 72.3397 5.47552Z" fill="white" fill-opacity="0.9"/>
<path d="M72.6421 11.2942C73.343 11.03 73.9491 10.4436 74.2626 9.62878C74.5755 8.81451 74.5287 7.94538 74.2035 7.23584C73.5025 7.50007 72.8965 8.08643 72.5829 8.9013C72.2701 9.71557 72.3169 10.5847 72.6421 11.2942Z" fill="white" fill-opacity="0.9"/>
<path d="M73.3408 17.344C72.8881 17.6692 72.5567 18.1078 72.3523 18.5925C72.6737 17.5282 72.8739 16.4195 72.9356 15.2831C72.9374 15.3392 72.9368 15.3946 72.9417 15.45C73.6845 15.4667 74.4483 15.1476 75.0137 14.5046C75.5791 13.8616 75.8261 13.0319 75.7596 12.2453C75.0161 12.2287 74.253 12.5477 73.6876 13.1908C73.265 13.6712 73.0205 14.2557 72.9515 14.8495C72.954 14.738 72.959 14.6271 72.959 14.515C72.959 9.62882 70.4102 5.16638 66.4534 2.46858C66.2317 1.80768 65.7618 1.22747 65.0725 0.898567C64.3192 0.538242 63.4791 0.548712 62.7665 0.855444C62.9555 1.59334 63.4619 2.24746 64.2151 2.60717C64.8594 2.91514 65.5622 2.93792 66.1997 2.75006C66.9487 3.25513 67.6564 3.81378 68.2945 4.43896C67.7395 4.05215 67.0367 3.8766 66.3106 4.00534C65.4938 4.1507 64.8218 4.64961 64.4245 5.31666C65.0047 5.81064 65.7932 6.05024 66.6105 5.90488C67.4161 5.76137 68.0801 5.27293 68.4792 4.62004C69.3594 5.51314 70.1201 6.51342 70.741 7.59439C70.3412 6.95074 69.6853 6.46969 68.8889 6.32618C68.0721 6.17959 67.2824 6.41734 66.7017 6.90885C67.0977 7.57714 67.7685 8.07788 68.5858 8.2251C69.4006 8.3717 70.1879 8.1358 70.7693 7.64552C71.3852 8.72829 71.8595 9.89056 72.1711 11.1077C71.889 10.4764 71.3809 9.94292 70.7059 9.65101C69.939 9.31836 69.1204 9.36829 68.4516 9.71378C68.7016 10.4572 69.2534 11.1015 70.021 11.4335C70.7754 11.7605 71.5793 11.7162 72.242 11.3855C72.4791 12.398 72.606 13.447 72.606 14.515C72.606 14.7983 72.5863 15.078 72.569 15.3582C72.5789 14.576 72.2795 13.7753 71.6797 13.1809C71.0742 12.5804 70.2919 12.318 69.551 12.3888C69.5355 13.1779 69.8355 13.9884 70.4416 14.5883C71.0464 15.1889 71.8281 15.4513 72.5678 15.3804C72.4859 16.6647 72.2328 17.9144 71.8133 19.0988C71.9568 18.3628 71.8269 17.5522 71.3858 16.8599C70.9208 16.1312 70.2137 15.6909 69.4764 15.5849C69.2954 16.3505 69.4185 17.2116 69.8835 17.9403C70.3443 18.6621 71.044 19.1007 71.7745 19.2115C71.3476 20.3868 70.7674 21.5003 70.0517 22.5234C70.263 21.8662 70.2513 21.1117 69.9643 20.4052C69.6372 19.5971 69.02 19.023 68.3148 18.7724C68.0013 19.4881 67.9705 20.3584 68.2982 21.1665C68.6141 21.9451 69.1999 22.5044 69.8731 22.7679C69.2196 23.6617 68.4657 24.4851 67.6213 25.2157C67.9717 24.6317 68.1288 23.8976 68.0093 23.1412C67.8725 22.2739 67.4026 21.5601 66.7743 21.1382C66.3093 21.7541 66.0832 22.5911 66.22 23.459C66.3518 24.2936 66.7935 24.9835 67.3866 25.4103C65.5825 26.9076 63.3996 28.0015 60.9759 28.5158L61.0449 28.8842C63.6984 28.3206 66.0697 27.0795 67.9865 25.3777C67.8848 25.4972 67.7913 25.6228 67.7106 25.7577C68.2913 26.2511 69.0798 26.4906 69.8972 26.3459C70.7138 26.2005 71.3858 25.7016 71.7837 25.0339C71.2035 24.5406 70.4145 24.301 69.5978 24.4464C69.182 24.5196 68.8044 24.6865 68.4811 24.9188C69.2147 24.2061 69.8725 23.4239 70.4447 22.5838C70.3726 22.7248 70.3091 22.8702 70.2617 23.0217C70.9368 23.3537 71.756 23.3869 72.5167 23.0395C73.278 22.6909 73.8188 22.0368 74.0547 21.2878C73.3802 20.9559 72.561 20.922 71.7997 21.27C71.3944 21.456 71.0539 21.7295 70.7859 22.0572C71.3606 21.1295 71.8324 20.1404 72.1878 19.1043C72.168 19.193 72.1515 19.2811 72.1404 19.3704C72.8616 19.5626 73.6721 19.4314 74.3583 18.9387C75.0445 18.4453 75.4596 17.6945 75.5594 16.9123C74.8375 16.7201 74.027 16.8506 73.3408 17.344Z" fill="white" fill-opacity="0.9"/>
<path d="M22.6384 9.56806H26.8649C28.8201 9.56806 29.9675 8.75289 29.9675 7.41278C29.9675 6.32956 29.3352 5.79353 28.3401 5.48084C29.066 5.17933 29.6045 4.6433 29.6045 3.73875C29.6045 3.18038 29.4055 2.7672 29.0777 2.45451C28.5977 1.99665 27.8718 1.75098 26.8415 1.75098H22.6384V9.56806ZM24.8512 7.82599V6.3854H26.5839C27.345 6.3854 27.6962 6.66457 27.6962 7.08893C27.6962 7.56913 27.2981 7.82599 26.6074 7.82599H24.8512ZM24.8512 4.86664V3.49307H26.3263C27.0054 3.49307 27.3567 3.73875 27.3567 4.1631C27.3567 4.6433 26.9703 4.86664 26.2795 4.86664H24.8512Z" fill="white" fill-opacity="0.9"/>
<path d="M31.0076 9.56806H37.6577V7.72544H33.2556V6.4859H37.1894V4.7773H33.2556V3.59357H37.5992V1.75098H31.0076V9.56806Z" fill="white" fill-opacity="0.9"/>
<path d="M42.0364 9.70227C44.0267 9.70227 45.3497 8.75311 45.3497 7.15616C45.3497 5.67091 44.1789 5.09021 42.2939 4.69935C41.1583 4.45367 40.8773 4.29734 40.8773 3.93998C40.8773 3.63847 41.1466 3.41512 41.6968 3.41512C42.4227 3.41512 43.2423 3.68313 43.9915 4.18566L45.1272 2.65574C44.2374 1.97454 43.1486 1.61719 41.7553 1.61719C39.7884 1.61719 38.5826 2.66691 38.5826 4.11866C38.5826 5.74908 39.929 6.21811 41.6734 6.59779C42.7857 6.84347 43.0549 7.02215 43.0549 7.346C43.0549 7.70332 42.7271 7.90434 42.1183 7.90434C41.17 7.90434 40.2685 7.58051 39.4607 6.96631L38.1962 8.40693C39.203 9.26679 40.5845 9.70227 42.0364 9.70227Z" fill="white" fill-opacity="0.9"/>
<path d="M48.2275 9.56806H50.4989V3.64941H52.9575V1.75098H45.7689V3.64941H48.2275V9.56806Z" fill="white" fill-opacity="0.9"/>
<path d="M14.1534 19.382C16.0414 19.382 17.2964 18.438 17.2964 16.8499C17.2964 15.3728 16.1858 14.7953 14.3977 14.4065C13.3204 14.1623 13.0539 14.0068 13.0539 13.6514C13.0539 13.3515 13.3093 13.1294 13.8313 13.1294C14.5198 13.1294 15.2973 13.396 16.0081 13.8957L17.0854 12.3742C16.2413 11.6968 15.2085 11.3413 13.8868 11.3413C12.021 11.3413 10.8772 12.3853 10.8772 13.8291C10.8772 15.4506 12.1543 15.917 13.8091 16.2946C14.8641 16.5389 15.1196 16.7166 15.1196 17.0386C15.1196 17.3941 14.8086 17.594 14.2311 17.594C13.3315 17.594 12.4764 17.2719 11.7101 16.6611L10.5106 18.0938C11.4658 18.9489 12.7763 19.382 14.1534 19.382Z" fill="white" fill-opacity="0.9"/>
<path d="M21.8426 19.3931C24.0527 19.3931 25.4853 18.2936 25.4853 15.7837V11.4746H23.2974V15.8503C23.2974 16.9387 22.731 17.4496 21.8648 17.4496C20.9985 17.4496 20.4321 16.9165 20.4321 15.7948V11.4746H18.2442V15.8392C18.2442 18.2714 19.6325 19.3931 21.8426 19.3931Z" fill="white" fill-opacity="0.9"/>
<path d="M26.7604 19.2487H28.9149V17.0275H29.9811C31.9136 17.0275 33.324 16.0614 33.324 14.2288C33.324 12.4853 32.0579 11.4746 30.0921 11.4746H26.7604V19.2487ZM28.9149 15.3394V13.2849H29.9256C30.703 13.2849 31.1694 13.6402 31.1694 14.3066C31.1694 14.9397 30.703 15.3394 29.9366 15.3394H28.9149Z" fill="white" fill-opacity="0.9"/>
<path d="M34.233 19.2487H36.3875V17.0275H37.4537C39.3862 17.0275 40.7966 16.0614 40.7966 14.2288C40.7966 12.4853 39.5305 11.4746 37.5647 11.4746H34.233V19.2487ZM36.3875 15.3394V13.2849H37.3981C38.1755 13.2849 38.642 13.6402 38.642 14.3066C38.642 14.9397 38.1755 15.3394 37.4092 15.3394H36.3875Z" fill="white" fill-opacity="0.9"/>
<path d="M45.6149 19.4042C48.0138 19.4042 49.8129 17.594 49.8129 15.3617C49.8129 13.1071 48.036 11.3191 45.6371 11.3191C43.2382 11.3191 41.4391 13.1293 41.4391 15.3617C41.4391 17.6161 43.216 19.4042 45.6149 19.4042ZM45.6371 17.4607C44.4599 17.4607 43.6492 16.4834 43.6492 15.3617C43.6492 14.2177 44.4377 13.2626 45.6149 13.2626C46.8032 13.2626 47.614 14.2399 47.614 15.3617C47.614 16.5056 46.8254 17.4607 45.6371 17.4607Z" fill="white" fill-opacity="0.9"/>
<path d="M50.9353 19.2487H53.0898V16.8943H54.0338L55.5997 19.2487H58.0875L56.2328 16.5389C57.199 16.128 57.8321 15.3394 57.8321 14.1511C57.8321 13.3626 57.5988 12.7629 57.1435 12.3076C56.6215 11.7856 55.7997 11.4746 54.6113 11.4746H50.9353V19.2487ZM53.0898 15.2062V13.3404H54.5003C55.2222 13.3404 55.6664 13.6514 55.6664 14.2622C55.6664 14.8508 55.2443 15.2062 54.5114 15.2062H53.0898Z" fill="white" fill-opacity="0.9"/>
<path d="M60.8167 19.2487H62.9713V13.3626H65.3035V11.4746H58.4845V13.3626H60.8167V19.2487Z" fill="white" fill-opacity="0.9"/>
<path d="M25.84 27.7918H30.8925V26.3508H28.2568L29.3512 25.5847C30.3088 24.9099 30.8287 24.3718 30.8287 23.3503C30.8287 22.1283 29.8711 21.2983 28.4757 21.2983C27.2354 21.2983 26.5605 21.7817 25.8765 22.6663L27.0712 23.6604C27.5728 23.0859 27.9103 22.8396 28.3389 22.8396C28.7675 22.8396 29.0503 23.0859 29.0503 23.4871C29.0503 23.8702 28.8314 24.1803 28.2295 24.6363L25.84 26.4603V27.7918Z" fill="white" fill-opacity="0.9"/>
<path d="M34.5498 27.9194C36.3738 27.9194 37.5138 26.4055 37.5138 24.5997C37.5138 22.7757 36.3829 21.28 34.5681 21.28C32.7532 21.28 31.6041 22.7939 31.6041 24.5997C31.6041 26.4237 32.7258 27.9194 34.5498 27.9194ZM34.5681 26.3507C33.8567 26.3507 33.3825 25.6211 33.3825 24.5997C33.3825 23.56 33.8476 22.8487 34.5498 22.8487C35.2521 22.8487 35.7354 23.5874 35.7354 24.5997C35.7354 25.6303 35.2794 26.3507 34.5681 26.3507Z" fill="white" fill-opacity="0.9"/>
<path d="M38.1039 27.7918H43.1564V26.3508H40.5207L41.6151 25.5847C42.5727 24.9099 43.0925 24.3718 43.0925 23.3503C43.0925 22.1283 42.1349 21.2983 40.7396 21.2983C39.4992 21.2983 38.8244 21.7817 38.1404 22.6663L39.3351 23.6604C39.8367 23.0859 40.1741 22.8396 40.6028 22.8396C41.0314 22.8396 41.3141 23.0859 41.3141 23.4871C41.3141 23.8702 41.0952 24.1803 40.4933 24.6363L38.1039 26.4603V27.7918Z" fill="white" fill-opacity="0.9"/>
<path d="M43.795 27.7918H48.8475V26.3508H46.2118L47.3062 25.5847C48.2638 24.9099 48.7836 24.3718 48.7836 23.3503C48.7836 22.1283 47.826 21.2983 46.4307 21.2983C45.1903 21.2983 44.5155 21.7817 43.8315 22.6663L45.0262 23.6604C45.5278 23.0859 45.8652 22.8396 46.2939 22.8396C46.7225 22.8396 47.0052 23.0859 47.0052 23.4871C47.0052 23.8702 46.7863 24.1803 46.1844 24.6363L43.795 26.4603V27.7918Z" fill="white" fill-opacity="0.9"/>
<path fill-rule="evenodd" clip-rule="evenodd" d="M12.9934 30.7724C10.5366 31.1671 9.15938 33.3526 9.90418 35.6748C10.5535 37.6996 13.0177 38.5891 15.1986 37.5858L15.4684 37.4618L15.4892 37.119C15.5007 36.9304 15.5184 36.6363 15.5286 36.4653C15.5502 36.1042 15.5602 36.1123 15.3253 36.2998C13.773 37.5384 11.6314 36.9033 11.1815 35.0709C10.5788 32.6166 12.761 30.9505 15.06 32.1096C15.2096 32.1848 15.3407 32.2466 15.3513 32.2466C15.3618 32.2466 15.366 31.9558 15.3608 31.6006L15.3513 30.9543L15.1049 30.8897C14.4779 30.7251 13.5933 30.6761 12.9934 30.7724ZM24.7617 30.8394C24.0919 31.0195 23.9779 31.9148 24.5794 32.2711C24.9511 32.4915 25.4514 32.3463 25.6435 31.9624C25.9513 31.3471 25.4147 30.6639 24.7617 30.8394ZM50.2416 30.8387C49.3633 31.0774 49.5278 32.3635 50.4373 32.3693C51.385 32.3755 51.4655 30.9528 50.5252 30.8133C50.4576 30.8032 50.3299 30.8146 50.2416 30.8387ZM56.2616 32.7918L55.3642 33.7564L55.6696 33.7667L55.9752 33.7769L55.9872 35.4541C56.0011 37.3767 56.003 37.3884 56.312 37.676C56.5882 37.9331 57.4609 38.0418 57.896 37.8732C57.9475 37.8534 58.6315 36.8655 58.6095 36.8431C58.6051 36.8387 58.5145 36.8593 58.4082 36.8889C58.124 36.9674 57.5752 36.9699 57.4364 36.8931C57.216 36.7713 57.2117 36.7388 57.2117 35.181V33.7743H57.8451H58.4786V33.3657V32.9571H57.8451H57.2117V32.3888C57.2117 32.0761 57.1999 31.8219 57.1854 31.8237C57.1707 31.8255 56.7551 32.2611 56.2616 32.7918ZM17.2867 32.9399C17.1319 32.9657 16.9343 33.0085 16.8478 33.0353L16.6905 33.0841L16.5087 33.6512C16.2951 34.3184 16.2861 34.2685 16.592 34.1137C17.4958 33.6557 18.2934 33.881 18.3041 34.5973L18.3073 34.8087L17.9498 34.9636C16.3158 35.6719 15.9477 35.996 15.951 36.7229C15.9539 37.3411 16.298 37.7404 16.9478 37.8796C17.3483 37.9653 17.5159 37.9497 17.6763 37.8121C17.8799 37.6375 18.2574 37.3623 18.2935 37.3623C18.3108 37.3623 18.3249 37.4821 18.3249 37.6287V37.8952H19.0639C19.4704 37.8952 19.803 37.8884 19.803 37.8804C19.803 37.8722 19.772 37.7926 19.7341 37.7036C19.5702 37.3174 19.5469 37.0723 19.5234 35.4794C19.5018 34.022 19.4981 33.9625 19.4213 33.7672C19.1512 33.0801 18.3387 32.7653 17.2867 32.9399ZM21.8441 32.9242C21.0933 33.0589 20.5764 33.6482 20.5776 34.3682C20.5787 34.9693 20.7991 35.3311 21.4297 35.7671C22.1243 36.2475 22.315 36.5913 22.0918 36.9609C21.8094 37.4286 21.0687 37.208 20.6472 36.5305C20.4794 36.2608 20.4835 36.251 20.4562 36.9804C20.443 37.337 20.4239 37.6566 20.4142 37.691C20.3925 37.7671 20.4886 37.808 20.8577 37.8799C22.4547 38.1911 23.4424 37.5803 23.3858 36.316C23.3609 35.7575 23.1345 35.4139 22.5041 34.9781C21.9428 34.5899 21.803 34.4161 21.803 34.1056C21.803 33.5856 22.4175 33.4814 23.0216 33.8989L23.2518 34.0579V33.546V33.0339L23.0058 32.9774C22.6957 32.9062 22.0973 32.8788 21.8441 32.9242ZM29.2343 32.9227C28.9451 32.9838 28.8797 33.0347 28.4861 33.5042L28.0966 33.9686L28.118 33.4629L28.1395 32.9571H27.4159H26.6923L26.7158 33.0371C26.8635 33.539 26.8756 33.717 26.876 35.3972C26.8764 37.0957 26.8649 37.2667 26.72 37.6777C26.69 37.7632 26.6652 37.847 26.6652 37.8641C26.6652 37.8811 27.0437 37.8952 27.5062 37.8952H28.347L28.2639 37.6237C28.1297 37.1848 28.1082 36.8952 28.1082 35.5342V34.2443L28.3105 34.1475C28.8755 33.8771 29.4626 33.979 29.6944 34.3876L29.7798 34.538L29.7776 35.817C29.7751 37.1951 29.7833 37.1169 29.5675 37.8153L29.5428 37.8952H30.3916C30.8584 37.8952 31.2402 37.8892 31.2402 37.8819C31.2402 37.8746 31.2153 37.7987 31.1848 37.7132C31.0362 37.2965 31.0226 37.1377 30.9969 35.5327C30.9695 33.8001 30.9666 33.7789 30.7113 33.4232C30.4231 33.0216 29.7868 32.8059 29.2343 32.9227ZM33.8268 32.9393C31.5687 33.409 31.086 36.9547 33.1699 37.7642C34.7224 38.3674 36.3311 37.4234 36.5794 35.7636C36.8468 33.9765 35.4973 32.5917 33.8268 32.9393ZM39.7965 32.9222C39.4154 33.0033 39.1744 33.2028 38.9171 33.65L38.7536 33.934L38.7435 33.6646C38.7379 33.5163 38.7472 33.3046 38.7645 33.1943C38.7817 33.0839 38.7876 32.9854 38.7776 32.9754C38.7191 32.9163 37.3242 32.9589 37.3425 33.0193C37.5192 33.6033 37.5492 34.0276 37.5293 35.676C37.5117 37.1374 37.4986 37.2857 37.3479 37.7132C37.3178 37.7987 37.2933 37.8746 37.2933 37.8819C37.2933 37.8892 37.6732 37.8952 38.1378 37.8952C38.6023 37.8952 38.9825 37.8896 38.9825 37.8829C38.9825 37.8763 38.9502 37.7762 38.9108 37.6609C38.7645 37.2321 38.7364 36.8876 38.7362 35.5219L38.7361 34.2323L38.9648 34.1242C39.5066 33.8683 39.9699 33.9864 40.1682 34.4315C40.3261 34.7858 40.2682 37.0417 40.0867 37.603C40.0406 37.7453 40.0029 37.8694 40.0029 37.8785C40.0029 37.8877 40.3847 37.8952 40.8514 37.8952C41.6449 37.8952 41.6982 37.8912 41.676 37.8329C41.4922 37.3526 41.4459 36.869 41.4459 35.4389V34.2064L41.5602 34.1368C41.9524 33.8979 42.4814 33.9294 42.7379 34.207C42.9097 34.3927 42.9345 34.5455 42.951 35.5149C42.9716 36.7303 42.9245 37.2124 42.7245 37.8329C42.7059 37.891 42.7607 37.8952 43.5524 37.8952H44.4001L44.363 37.7974C44.1929 37.3512 44.1822 37.2356 44.1578 35.5682C44.1372 34.155 44.1271 33.9493 44.0711 33.7946C43.6614 32.6624 42.2097 32.5541 41.6029 33.6106C41.4284 33.9145 41.3754 33.9712 41.3754 33.8542C41.3751 33.2887 40.5002 32.7722 39.7965 32.9222ZM46.8133 32.924C45.6777 33.1156 45.0184 34.061 45.0184 35.4972C45.0184 36.7776 45.4604 37.5012 46.4475 37.8362C46.9894 38.02 48.0896 37.9674 48.4267 37.7414C48.4928 37.6972 48.8591 36.5211 48.8192 36.4808C48.8108 36.4723 48.6646 36.5378 48.4945 36.6265C47.6512 37.0656 46.8453 36.955 46.4951 36.3519C46.4042 36.1952 46.2545 35.6702 46.2811 35.6006C46.2917 35.5725 46.6792 35.5526 47.575 35.5342C48.2783 35.52 48.8616 35.5003 48.8714 35.4908C48.9207 35.4419 48.8821 34.3845 48.8229 34.1678C48.5636 33.2178 47.8156 32.7548 46.8133 32.924ZM53.5341 32.9109C52.1096 33.1016 51.6546 34.7488 52.7916 35.5994C52.9097 35.6878 53.1239 35.8479 53.2678 35.9555C53.9683 36.4791 53.9149 37.1856 53.1746 37.1844C52.7993 37.1837 52.5264 36.9921 52.2227 36.5165L52.0935 36.3142L52.0709 36.4741C52.0585 36.5621 52.0374 36.8924 52.0239 37.2081L51.9997 37.7821L52.2559 37.8409C53.7867 38.1923 54.799 37.7554 54.966 36.671C55.0737 35.9712 54.8193 35.4775 54.0973 34.9856C53.5865 34.6378 53.3757 34.3801 53.3759 34.1042C53.3765 33.6032 53.9902 33.4796 54.5607 33.8659C54.6885 33.9523 54.7987 34.0229 54.8057 34.0229C54.8128 34.0229 54.8187 33.8011 54.8187 33.5301V33.0374L54.6691 32.9969C54.3335 32.9058 53.8475 32.8688 53.5341 32.9109ZM60.6351 32.939C59.5529 33.1371 58.8929 34.1064 58.8929 35.4972C58.8929 36.7951 59.3947 37.5667 60.4329 37.8652C60.9601 38.0168 62.1502 37.9292 62.3574 37.7237C62.3911 37.6901 62.7318 36.4741 62.7073 36.4741C62.6967 36.4741 62.5447 36.5456 62.3695 36.633C61.2425 37.1942 60.24 36.775 60.1925 35.7225L60.1853 35.5682L61.4346 35.5399C62.1219 35.5242 62.7056 35.5041 62.7319 35.4951C62.8005 35.4716 62.7671 34.3222 62.6914 34.0904C62.3874 33.1621 61.6554 32.7523 60.6351 32.939ZM65.9859 32.9859C65.6788 33.1118 65.3791 33.4179 65.1064 33.8847C65.0257 34.0226 64.9484 34.146 64.9345 34.1591C64.9206 34.1721 64.918 33.9071 64.9287 33.5699L64.9484 32.9571H64.2273C63.5568 32.9571 63.5077 32.9616 63.5251 33.0193C63.8241 34.0067 63.8038 37.0495 63.493 37.8329C63.4699 37.8912 63.5227 37.8952 64.3167 37.8952C64.7832 37.8952 65.165 37.8896 65.165 37.8829C65.165 37.8763 65.1325 37.7762 65.093 37.6609C64.9558 37.2615 64.9191 36.846 64.9189 35.6868L64.9186 34.5976L65.0331 34.5C65.3922 34.1932 65.8751 34.1286 66.2973 34.3307L66.5324 34.443L66.5514 34.3129C66.5618 34.2413 66.5949 33.967 66.6248 33.7031C66.6547 33.4395 66.6868 33.1655 66.696 33.0944C66.7107 32.9835 66.7019 32.9623 66.634 32.944C66.4833 32.9031 66.132 32.9258 65.9859 32.9859ZM24.1315 32.9922C24.1315 33.0113 24.1743 33.1673 24.2269 33.3386L24.3221 33.65L24.3347 35.273C24.348 37.0007 24.3279 37.2979 24.1703 37.7168L24.1031 37.8952H24.9588H25.8147L25.7465 37.7086C25.5961 37.2971 25.5743 37.0086 25.5746 35.4303C25.5749 33.8736 25.5893 33.669 25.7301 33.2214L25.8133 32.9571H24.9724C24.4438 32.9571 24.1315 32.9701 24.1315 32.9922ZM49.6657 33.2287C49.8943 33.9768 49.8964 36.8977 49.6688 37.6214L49.5826 37.8952H50.4235C50.8859 37.8952 51.2642 37.8874 51.2642 37.8779C51.2642 37.8685 51.2207 37.7207 51.1676 37.5494L51.071 37.238V35.4439C51.0709 33.697 51.0729 33.6429 51.1486 33.3834C51.1915 33.2369 51.2368 33.081 51.2495 33.0371L51.2726 32.9571H50.4277H49.5827L49.6657 33.2287ZM47.4042 33.7463C47.6953 33.8342 47.8939 34.1653 47.9424 34.6428L47.966 34.8755H47.1221H46.2784L46.3118 34.6536C46.4239 33.9053 46.826 33.5713 47.4042 33.7463ZM61.3468 33.7704C61.5966 33.8868 61.7676 34.1615 61.8062 34.5081C61.8166 34.6028 61.832 34.7241 61.8403 34.7779L61.8553 34.8755H61.0114C60.0488 34.8755 60.1348 34.9146 60.2185 34.5152C60.3572 33.8551 60.8419 33.5351 61.3468 33.7704ZM34.5629 33.8595C35.3736 34.3391 35.5315 36.1917 34.8182 36.8556C33.9376 37.6751 32.8642 36.1381 33.2617 34.6269C33.4613 33.8682 34.0204 33.5384 34.5629 33.8595ZM18.3249 36.3826V37.037L18.22 37.0602C17.494 37.2212 17.0182 36.5766 17.3036 35.8186L17.3377 35.7281H17.8313H18.3249V36.3826Z" fill="white" fill-opacity="0.9"/>
</g>
</g>
</g>
<defs>
<clipPath id="clip0_0_4802">
<rect width="76" height="38" fill="white"/>
</clipPath>
<clipPath id="clip1_0_4802">
<rect width="76" height="38" fill="white"/>
</clipPath>
<clipPath id="clip2_0_4802">
<rect width="76" height="38" fill="white"/>
</clipPath>
</defs>
</svg>
