<svg width="76" height="40" viewBox="0 0 76 40" fill="none" xmlns="http://www.w3.org/2000/svg">
<g clip-path="url(#clip0_0_4806)">
<g clip-path="url(#clip1_0_4806)">
<path d="M8.15634 3.09646C8.29162 2.23835 8.06858 1.4101 7.60847 0.800049C6.98683 1.21752 6.52121 1.92326 6.38591 2.78198C6.25061 3.64009 6.47367 4.46894 6.9338 5.07838C7.55605 4.66091 8.02106 3.95517 8.15634 3.09646Z" fill="white"/>
<path d="M4.60655 8.19679C5.06546 7.58613 5.2873 6.75728 5.15018 5.89917C5.01244 5.04106 4.54621 4.33593 3.92336 3.91968C3.46444 4.53095 3.2432 5.35981 3.38033 6.21791C3.51746 7.07602 3.98369 7.78055 4.60655 8.19679Z" fill="white"/>
<path d="M3.08558 11.9754C3.40798 11.2733 3.4543 10.4133 3.1447 9.60766C2.8345 8.80134 2.23418 8.22118 1.54124 7.95972C1.21884 8.66182 1.17252 9.52174 1.48273 10.3274C1.79233 11.1337 2.39264 11.7139 3.08558 11.9754Z" fill="white"/>
<path d="M14.6335 29.0179C12.2347 28.509 10.0754 27.4266 8.29035 25.9451C8.87659 25.5227 9.31419 24.8401 9.44403 24.0143C9.57932 23.1556 9.35627 22.3273 8.89611 21.7179C8.27387 22.1354 7.80887 22.8417 7.67357 23.6998C7.55534 24.4482 7.71075 25.1747 8.05756 25.7525C7.22258 25.0297 6.476 24.2149 5.82999 23.3305C6.49611 23.0697 7.0757 22.5163 7.38835 21.746C7.71197 20.9464 7.6815 20.0852 7.37128 19.377C6.67407 19.625 6.0634 20.1931 5.73918 20.9927C5.45578 21.6917 5.4442 22.4383 5.65263 23.0885C4.94506 22.0763 4.37096 20.9744 3.94861 19.8116C4.67142 19.7018 5.36375 19.2679 5.81963 18.5537C6.27915 17.8327 6.40104 16.9806 6.22247 16.2231C5.49295 16.3279 4.79331 16.7637 4.33317 17.4847C3.8968 18.1697 3.76821 18.9717 3.91021 19.7001C3.49518 18.5281 3.24469 17.2915 3.16303 16.0208C3.89559 16.0909 4.66837 15.8313 5.26746 15.237C5.86655 14.6434 6.16396 13.8413 6.14811 13.0607C5.41556 12.9905 4.64155 13.2502 4.04247 13.8444C3.44886 14.4325 3.15267 15.2249 3.16242 15.9989C3.14475 15.7215 3.12585 15.4449 3.12585 15.1645C3.12585 14.1077 3.25079 13.0698 3.48603 12.0679C4.14119 12.3952 4.93714 12.439 5.68371 12.1154C6.44309 11.7869 6.98916 11.1494 7.23599 10.4138C6.57473 10.0719 5.76416 10.0225 5.00539 10.3517C4.33805 10.6405 3.83464 11.1683 3.55552 11.793C3.86451 10.5887 4.33379 9.4387 4.94323 8.36726C5.51795 8.85238 6.29743 9.08582 7.10374 8.94078C7.91187 8.7951 8.57619 8.29966 8.96803 7.63838C8.39275 7.15203 7.61202 6.91679 6.80388 7.06184C6.01526 7.20384 5.36619 7.67982 4.97127 8.3167C5.58559 7.24711 6.33766 6.25736 7.20856 5.37366C7.6041 6.01967 8.26044 6.50297 9.05764 6.64498C9.86635 6.7888 10.6464 6.55173 11.2212 6.06295C10.8281 5.40291 10.1626 4.90926 9.35443 4.76543C8.63587 4.63805 7.94051 4.81175 7.39139 5.19448C8.02339 4.57589 8.72363 4.02311 9.46476 3.52337C10.0949 3.70925 10.7903 3.6867 11.4278 3.38198C12.1732 3.02606 12.6741 2.37882 12.8612 1.6487C12.1561 1.34519 11.3248 1.33483 10.5794 1.69136C9.89747 2.0168 9.43244 2.59091 9.21307 3.24485C5.29793 5.91424 2.77663 10.3297 2.77663 15.1645C2.77663 15.2754 2.7809 15.3851 2.78395 15.4954C2.71569 14.9079 2.47374 14.3296 2.05566 13.8541C1.49618 13.2179 0.741071 12.9022 0.0054637 12.9187C-0.0603569 13.6969 0.184033 14.5179 0.743509 15.1541C1.30299 15.7904 2.05809 16.1061 2.7937 16.0897C2.79796 16.0348 2.79796 15.9799 2.79919 15.9245C2.86074 17.0489 3.05881 18.1459 3.37634 19.199C3.17461 18.7194 2.84611 18.2855 2.39817 17.9637C1.71924 17.4755 0.917203 17.3463 0.203535 17.5365C0.302266 18.3105 0.713036 19.0534 1.39196 19.5416C2.07028 20.0291 2.87293 20.1589 3.5866 19.9688C3.57563 19.8804 3.55856 19.7933 3.53967 19.7055C3.89132 20.7306 4.35755 21.7093 4.92617 22.6272C4.66106 22.303 4.32464 22.0324 3.92301 21.8483C3.17034 21.504 2.35916 21.5375 1.69181 21.866C1.92584 22.6071 2.46094 23.2543 3.21361 23.5993C3.96689 23.943 4.77747 23.9101 5.44481 23.5816C5.39788 23.4317 5.33511 23.2878 5.26441 23.1483C5.82999 23.9796 6.48149 24.7536 7.20735 25.4587C6.88738 25.2289 6.51379 25.0638 6.10241 24.9913C5.29367 24.8474 4.51357 25.0845 3.93947 25.5727C4.33256 26.2333 4.99747 26.727 5.80622 26.8708C6.61495 27.0141 7.39505 26.7769 7.96915 26.2888C7.88993 26.1553 7.79668 26.031 7.69612 25.9128C9.59275 27.5967 11.9392 28.8247 14.5646 29.3824L14.6335 29.0179Z" fill="white"/>
<path d="M68.0562 5.07838C68.5157 4.46894 68.7387 3.64009 68.604 2.78198C68.4681 1.92326 68.0031 1.21752 67.3809 0.800049C66.9207 1.4101 66.6977 2.23835 66.833 3.09646C66.9683 3.95517 67.4339 4.66091 68.0562 5.07838Z" fill="white"/>
<path d="M71.5731 6.21791C71.7103 5.35981 71.4884 4.53095 71.0295 3.91968C70.4073 4.33593 69.9404 5.04106 69.8033 5.89917C69.6662 6.75728 69.888 7.58613 70.3463 8.19679C70.9692 7.78055 71.436 7.07602 71.5731 6.21791Z" fill="white"/>
<path d="M71.8724 11.9754C72.566 11.7139 73.1656 11.1337 73.4759 10.3274C73.7855 9.52171 73.7392 8.66179 73.4174 7.95972C72.7238 8.22115 72.1241 8.80139 71.8139 9.60763C71.5043 10.4134 71.5506 11.2733 71.8724 11.9754Z" fill="white"/>
<path d="M72.5635 17.9615C72.1155 18.2833 71.7877 18.7172 71.5853 19.1968C71.9035 18.1437 72.1015 17.0467 72.1625 15.9223C72.1643 15.9777 72.1637 16.0326 72.1686 16.0875C72.9035 16.1039 73.6593 15.7882 74.2187 15.1519C74.7783 14.5156 75.0227 13.6947 74.9568 12.9164C74.2212 12.9 73.4661 13.2157 72.9066 13.8519C72.4885 14.3273 72.2466 14.9057 72.1783 15.4932C72.1807 15.3829 72.1856 15.2732 72.1856 15.1623C72.1856 10.3275 69.6637 5.91204 65.7486 3.24265C65.5292 2.5887 65.0642 2.01461 64.3823 1.68916C63.6369 1.33263 62.8055 1.34299 62.1004 1.64649C62.2875 2.37661 62.7885 3.02385 63.5339 3.37977C64.1714 3.68449 64.8667 3.70705 65.4975 3.52117C66.2386 4.02092 66.9389 4.57369 67.5703 5.19228C67.0211 4.80954 66.3258 4.63585 65.6072 4.76322C64.7991 4.90705 64.1342 5.40071 63.7411 6.06075C64.3152 6.54953 65.0953 6.78661 65.904 6.64277C66.7012 6.50077 67.3582 6.01748 67.7531 5.37145C68.624 6.25516 69.3767 7.24491 69.991 8.3145C69.5955 7.67762 68.9464 7.20164 68.1584 7.05964C67.3503 6.91459 66.5689 7.14984 65.9943 7.63617C66.3861 8.29746 67.0498 8.7929 67.8585 8.93858C68.6648 9.08362 69.4437 8.85018 70.0191 8.36506C70.6285 9.4365 71.0978 10.5865 71.4062 11.7908C71.127 11.1661 70.6242 10.6383 69.9563 10.3495C69.1975 10.0203 68.3875 10.0697 67.7257 10.4116C67.9731 11.1472 68.5191 11.7847 69.2786 12.1132C70.0251 12.4368 70.8205 12.3929 71.4763 12.0657C71.7109 13.0676 71.8364 14.1055 71.8364 15.1623C71.8364 15.4427 71.8169 15.7193 71.7999 15.9967C71.8096 15.2226 71.5134 14.4303 70.9198 13.8422C70.3207 13.248 69.5467 12.9883 68.8135 13.0584C68.7983 13.8391 69.0951 14.6412 69.6948 15.2348C70.2933 15.8291 71.0667 16.0887 71.7987 16.0186C71.7175 17.2893 71.4671 18.5259 71.052 19.6978C71.194 18.9695 71.0655 18.1675 70.6291 17.4825C70.169 16.7615 69.4693 16.3257 68.7398 16.2209C68.5606 16.9784 68.6825 17.8304 69.1427 18.5515C69.5985 19.2657 70.2908 19.6996 71.0136 19.8094C70.5913 20.9722 70.0172 22.0741 69.3091 23.0863C69.5181 22.4361 69.5065 21.6895 69.2225 20.9904C68.8989 20.1909 68.2882 19.6228 67.5903 19.3748C67.2802 20.083 67.2497 20.9442 67.5739 21.7438C67.8866 22.5141 68.4662 23.0675 69.1323 23.3283C68.4856 24.2127 67.7397 25.0275 66.9041 25.7503C67.2509 25.1725 67.4063 24.446 67.2881 23.6976C67.1528 22.8395 66.6878 22.1332 66.0661 21.7157C65.606 22.3251 65.3823 23.1534 65.5176 24.0121C65.648 24.8379 66.0851 25.5205 66.6719 25.9428C64.8868 27.4244 62.727 28.5068 60.3287 29.0157L60.3971 29.3802C63.0226 28.8225 65.3689 27.5945 67.2655 25.9106C67.165 26.0288 67.0723 26.1531 66.9925 26.2866C67.5672 26.7747 68.3473 27.0119 69.156 26.8686C69.9642 26.7248 70.6291 26.2311 71.0228 25.5705C70.4487 25.0823 69.668 24.8452 68.8599 24.9891C68.4485 25.0616 68.0749 25.2267 67.7549 25.4565C68.4808 24.7514 69.1317 23.9774 69.6979 23.1461C69.6266 23.2856 69.5638 23.4295 69.5168 23.5794C70.1848 23.9079 70.9954 23.9408 71.748 23.5971C72.5013 23.2521 73.0364 22.6049 73.2699 21.8638C72.6025 21.5353 71.7919 21.5018 71.0387 21.8461C70.6376 22.0302 70.3006 22.3007 70.0355 22.625C70.6041 21.7071 71.071 20.7284 71.4226 19.7033C71.4031 19.7911 71.3867 19.8782 71.3757 19.9666C72.0893 20.1567 72.8914 20.0269 73.5703 19.5394C74.2492 19.0512 74.66 18.3083 74.7587 17.5343C74.0444 17.3441 73.2424 17.4733 72.5635 17.9615Z" fill="white"/>
<path d="M25.4398 8.00001V0.720014H29.1734C30.0886 0.720014 30.7334 0.948815 31.1598 1.37521C31.451 1.66641 31.6278 2.05121 31.6278 2.57121C31.6278 3.41361 31.1494 3.91282 30.5046 4.19361C31.3886 4.48482 31.9502 4.98401 31.9502 5.99282C31.9502 7.24082 30.931 8.00001 29.1942 8.00001H25.4398ZM27.4054 6.37761H28.9654C29.579 6.37761 29.9326 6.13841 29.9326 5.69122C29.9326 5.29601 29.6206 5.03602 28.9446 5.03602H27.4054V6.37761ZM27.4054 3.62161H28.6742C29.2878 3.62161 29.631 3.41361 29.631 2.96641C29.631 2.57121 29.319 2.34241 28.7158 2.34241H27.4054V3.62161ZM32.8742 8.00001V0.720014H38.7294V2.43602H34.871V3.53841H38.3654V5.12962H34.871V6.28402H38.7814V8.00001H32.8742ZM42.6709 8.12481C41.3813 8.12481 40.1541 7.71921 39.2597 6.91841L40.3829 5.57682C41.1005 6.14882 41.9013 6.45041 42.7437 6.45041C43.2845 6.45041 43.5757 6.26322 43.5757 5.93042C43.5757 5.62882 43.3365 5.46241 42.3485 5.23361C40.7989 4.88001 39.6029 4.44321 39.6029 2.92481C39.6029 1.57281 40.6741 0.595215 42.4213 0.595215C43.6589 0.595215 44.6261 0.928015 45.4165 1.56241L44.4077 2.98721C43.7421 2.51921 43.0141 2.26961 42.3693 2.26961C41.8805 2.26961 41.6413 2.47761 41.6413 2.75841C41.6413 3.09121 41.8909 3.23681 42.8997 3.46561C44.5741 3.82961 45.6141 4.37041 45.6141 5.75361C45.6141 7.24081 44.4389 8.12481 42.6709 8.12481ZM48.1705 8.00001V2.48801H45.9865V0.720014H52.3721V2.48801H50.1881V8.00001H48.1705Z" fill="white"/>
<path d="M20.1446 18.5456C18.0646 18.5456 16.3902 16.9544 16.3902 14.76C16.3902 12.6384 18.023 10.9744 20.2278 10.9744C21.715 10.9744 22.6406 11.6192 23.2854 12.5136L21.8086 13.6576C21.3926 13.1376 20.9038 12.8152 20.207 12.8152C19.1878 12.8152 18.4702 13.6784 18.4702 14.76C18.4702 15.852 19.1878 16.7048 20.207 16.7048C20.9662 16.7048 21.4134 16.3512 21.8502 15.8208L23.3686 16.9024C22.6822 17.8488 21.7566 18.5456 20.1446 18.5456ZM24.2367 18.4V11.12H27.6791C28.7919 11.12 29.5615 11.4112 30.0503 11.9C30.4767 12.3264 30.6951 12.888 30.6951 13.6264C30.6951 14.7392 30.1023 15.4776 29.1975 15.8624L30.9343 18.4H28.6047L27.1383 16.1952H26.2543V18.4H24.2367ZM26.2543 14.6144H27.5855C28.2719 14.6144 28.6671 14.2816 28.6671 13.7304C28.6671 13.1584 28.2511 12.8672 27.5751 12.8672H26.2543V14.6144ZM33.5484 18.4V15.6752L30.782 11.12H33.0804L34.578 13.772L36.086 11.12H38.3428L35.5764 15.644V18.4H33.5484ZM38.9632 18.4V11.12H42.0832C43.924 11.12 45.1096 12.0664 45.1096 13.6992C45.1096 15.4152 43.7888 16.32 41.9792 16.32H40.9808V18.4H38.9632ZM40.9808 14.7392H41.9376C42.6552 14.7392 43.092 14.3648 43.092 13.772C43.092 13.148 42.6552 12.8152 41.9272 12.8152H40.9808V14.7392ZM47.7393 18.4V12.888H45.5553V11.12H51.9409V12.888H49.7569V18.4H47.7393ZM56.1724 18.5456C53.926 18.5456 52.262 16.8712 52.262 14.76C52.262 12.6696 53.9468 10.9744 56.1932 10.9744C58.4396 10.9744 60.1036 12.6488 60.1036 14.76C60.1036 16.8504 58.4188 18.5456 56.1724 18.5456ZM56.1932 16.7256C57.306 16.7256 58.0444 15.8312 58.0444 14.76C58.0444 13.7096 57.2852 12.7944 56.1724 12.7944C55.07 12.7944 54.3316 13.6888 54.3316 14.76C54.3316 15.8104 55.0908 16.7256 56.1932 16.7256Z" fill="white"/>
<path d="M20.9446 28.9457C18.8646 28.9457 17.1902 27.3545 17.1902 25.1601C17.1902 23.0385 18.823 21.3745 21.0278 21.3745C22.515 21.3745 23.4406 22.0193 24.0854 22.9137L22.6086 24.0577C22.1926 23.5377 21.7038 23.2153 21.007 23.2153C19.9878 23.2153 19.2702 24.0785 19.2702 25.1601C19.2702 26.2521 19.9878 27.1049 21.007 27.1049C21.7662 27.1049 22.2134 26.7513 22.6502 26.2209L24.1686 27.3025C23.4822 28.2489 22.5566 28.9457 20.9446 28.9457ZM24.4543 28.8001L27.5535 21.4681H29.4983L32.5975 28.8001H30.4343L29.9039 27.5001H27.0959L26.5759 28.8001H24.4543ZM27.6887 25.9297H29.3215L28.5103 23.8601L27.6887 25.9297ZM36.0623 28.9249C34.7727 28.9249 33.5455 28.5193 32.6511 27.7185L33.7743 26.3769C34.4919 26.9489 35.2927 27.2505 36.1351 27.2505C36.6759 27.2505 36.9671 27.0633 36.9671 26.7305C36.9671 26.4289 36.7279 26.2625 35.7399 26.0337C34.1903 25.6801 32.9943 25.2433 32.9943 23.7249C32.9943 22.3729 34.0655 21.3953 35.8127 21.3953C37.0503 21.3953 38.0175 21.7281 38.8079 22.3625L37.7991 23.7873C37.1335 23.3193 36.4055 23.0697 35.7607 23.0697C35.2719 23.0697 35.0327 23.2777 35.0327 23.5585C35.0327 23.8913 35.2823 24.0369 36.2911 24.2657C37.9655 24.6297 39.0055 25.1705 39.0055 26.5537C39.0055 28.0409 37.8303 28.9249 36.0623 28.9249ZM40.0283 28.8001V21.5201H42.0563V28.8001H40.0283ZM43.389 28.8001V21.5201H45.2714L48.2666 25.3681V21.5201H50.2634V28.8001H48.4954L45.3858 24.8065V28.8001H43.389ZM55.2155 28.9457C52.9691 28.9457 51.3051 27.2713 51.3051 25.1601C51.3051 23.0697 52.9899 21.3745 55.2363 21.3745C57.4827 21.3745 59.1467 23.0489 59.1467 25.1601C59.1467 27.2505 57.4619 28.9457 55.2155 28.9457ZM55.2363 27.1257C56.3491 27.1257 57.0875 26.2313 57.0875 25.1601C57.0875 24.1097 56.3283 23.1945 55.2155 23.1945C54.1131 23.1945 53.3747 24.0889 53.3747 25.1601C53.3747 26.2105 54.1339 27.1257 55.2363 27.1257Z" fill="white"/>
<path d="M39.195 39.877V38.5935L41.4392 36.8353C42.0044 36.3957 42.21 36.0968 42.21 35.7275C42.21 35.3407 41.9445 35.1034 41.542 35.1034C41.1394 35.1034 40.8224 35.3407 40.3513 35.8946L39.2292 34.9363C39.8716 34.0836 40.5055 33.6177 41.6704 33.6177C42.9809 33.6177 43.8803 34.4177 43.8803 35.5957C43.8803 36.5803 43.3921 37.099 42.4927 37.7495L41.4648 38.488H43.9403V39.877H39.195Z" fill="white"/>
<path d="M47.3752 40.0001C45.6621 40.0001 44.6086 38.5583 44.6086 36.8001C44.6086 35.0595 45.6878 33.6001 47.3923 33.6001C49.0969 33.6001 50.159 35.0419 50.159 36.8001C50.159 38.5407 49.0883 40.0001 47.3752 40.0001ZM47.3923 38.488C48.0604 38.488 48.4887 37.7935 48.4887 36.8001C48.4887 35.8243 48.0347 35.1122 47.3752 35.1122C46.7157 35.1122 46.2788 35.7979 46.2788 36.8001C46.2788 37.7847 46.7243 38.488 47.3923 38.488Z" fill="white"/>
<path d="M50.7133 39.877V38.5935L52.9574 36.8353C53.5227 36.3957 53.7283 36.0968 53.7283 35.7275C53.7283 35.3407 53.4628 35.1034 53.0602 35.1034C52.6576 35.1034 52.3407 35.3407 51.8696 35.8946L50.7475 34.9363C51.3899 34.0836 52.0237 33.6177 53.1887 33.6177C54.4992 33.6177 55.3985 34.4177 55.3985 35.5957C55.3985 36.5803 54.9103 37.099 54.0109 37.7495L52.9831 38.488H55.4585V39.877H50.7133Z" fill="white"/>
<path d="M58.4824 40.0001C57.326 40.0001 56.5123 39.5693 55.9298 38.91L56.9748 37.8375C57.4031 38.2858 57.8571 38.5407 58.4052 38.5407C58.8764 38.5407 59.1761 38.2946 59.1761 37.899C59.1761 37.5034 58.8249 37.266 58.1996 37.266H57.4973L57.2575 36.3781L58.6365 35.1034H56.3409V33.7231H60.6751V34.9451L59.2447 36.2023C60.1012 36.3957 60.795 36.888 60.795 37.9518C60.795 39.2001 59.8185 40.0001 58.4824 40.0001Z" fill="white"/>
<mask id="mask0_0_4806" style="mask-type:luminance" maskUnits="userSpaceOnUse" x="13" y="29" width="24" height="11">
<path d="M36.795 29.6001H13.595V40.0001H36.795V29.6001Z" fill="white"/>
</mask>
<g mask="url(#mask0_0_4806)">
<mask id="mask1_0_4806" style="mask-type:luminance" maskUnits="userSpaceOnUse" x="13" y="33" width="9" height="8">
<path d="M14.867 33.104C14.3753 33.3747 14.0866 33.9003 13.595 34.1631C13.7588 34.3303 13.8525 34.5533 13.8525 34.7922C13.8603 35.2461 13.7355 35.692 13.6887 36.138C13.5675 36.9222 13.5755 37.7215 13.712 38.5031C13.7976 38.9801 14.0365 39.4143 14.391 39.7374C14.6172 39.9205 14.9059 40.0002 15.1947 40.0081H15.2103C15.4219 40.0066 15.6313 39.9634 15.8268 39.8807C16.4315 39.5984 16.9221 39.1118 17.2159 38.5031C17.3719 38.8774 17.5514 39.2437 17.8245 39.5383C18.1913 39.9444 18.7843 40.0878 19.2916 39.9444C19.7583 39.8074 20.1673 39.5161 20.4543 39.1163C21.1375 38.173 21.4918 37.0238 21.461 35.8513C21.461 35.1426 21.2971 34.402 20.8289 33.8605C20.6182 33.6057 20.2671 33.4623 19.9471 33.5738C19.558 33.7578 19.2279 34.0505 18.995 34.4179C19.3696 34.4896 19.6662 34.7922 19.7832 35.1506C19.9389 35.7075 19.9389 36.2978 19.7832 36.8547C19.6956 37.3392 19.4859 37.7921 19.1745 38.1687C19.0263 38.3359 18.7531 38.4234 18.558 38.2801C18.3395 38.1129 18.2927 37.8103 18.2693 37.5475C18.2303 36.7751 18.3474 36.0106 18.4722 35.2541C18.4983 35.1135 18.4703 34.9681 18.3942 34.8479C18.1679 34.7444 17.9182 34.8002 17.6919 34.8878C17.4031 35.0152 17.1222 35.1506 16.8256 35.2541C16.8647 35.3895 16.9037 35.5248 16.8959 35.6682C16.8771 36.4266 16.6732 37.1683 16.3028 37.8262C16.1546 38.0731 15.8892 38.3598 15.5771 38.2562C15.3351 38.1367 15.2337 37.858 15.2025 37.6032C15.1713 37.1732 15.2415 36.7432 15.3508 36.3291C15.5147 35.5407 15.7487 34.7603 15.7956 33.9561C15.8034 33.6933 15.8034 33.3987 15.6317 33.1836C15.5787 33.1238 15.5135 33.0764 15.4407 33.0448C15.3679 33.0132 15.2894 32.9981 15.2103 33.0005C15.0933 33.0084 14.9684 33.0402 14.867 33.104Z" fill="white"/>
</mask>
<g mask="url(#mask1_0_4806)">
<path d="M13.5402 33.0083H21.4609V40.0797H13.5402V33.0083Z" fill="white"/>
</g>
<mask id="mask2_0_4806" style="mask-type:luminance" maskUnits="userSpaceOnUse" x="22" y="33" width="6" height="7">
<path d="M24.7696 38.4315C24.4399 38.1306 24.2222 37.7228 24.1531 37.2768C24.0361 36.6557 24.0127 36.0028 24.1922 35.3976C24.2936 35.0551 24.5043 34.7207 24.8399 34.5852C24.9655 34.5371 25.1011 34.5228 25.2337 34.5437C25.3663 34.5646 25.4914 34.6201 25.5968 34.7047C25.8855 34.9356 26.0572 35.286 26.1821 35.6284C26.3928 36.2735 26.4162 36.9663 26.2991 37.6352C26.2289 37.9696 26.0963 38.328 25.7919 38.5112C25.6515 38.5908 25.4875 38.6306 25.3315 38.6306C25.127 38.6347 24.9277 38.5641 24.7696 38.4315ZM24.278 33.1917C23.933 33.2888 23.6185 33.4754 23.365 33.7332L23.4899 34.0676C23.2011 34.2269 22.9904 34.4897 22.8266 34.7764C22.4051 35.5488 22.2803 36.4646 22.413 37.3326C22.5037 38.0859 22.8518 38.7824 23.3962 39.2995C23.8927 39.7518 24.537 39.9985 25.2025 39.9912C25.868 39.9838 26.5069 39.7229 26.9937 39.2597C27.5867 38.6624 27.852 37.8104 27.8989 36.9822C27.9535 36.1859 27.8599 35.3656 27.4931 34.649C27.2402 34.1292 26.8512 33.691 26.3694 33.3828C26.0547 33.1994 25.705 33.0874 25.3441 33.0544C24.9832 33.0215 24.6196 33.0683 24.278 33.1917Z" fill="white"/>
</mask>
<g mask="url(#mask2_0_4806)">
<path d="M22.2881 33.0403H27.9535V40.2391H22.2881V33.0403Z" fill="white"/>
</g>
<mask id="mask3_0_4806" style="mask-type:luminance" maskUnits="userSpaceOnUse" x="28" y="33" width="9" height="8">
<path d="M30.2009 33.104C29.7171 33.3748 29.4284 33.9004 28.9367 34.1632C29.1006 34.3304 29.1942 34.5533 29.1942 34.7922C29.2021 35.2461 29.0772 35.692 29.0304 36.146C28.9093 36.9276 28.9173 37.7242 29.0538 38.5031C29.1394 38.9801 29.3783 39.4144 29.7327 39.7374C30.1385 40.056 30.7081 40.0719 31.1685 39.8808C31.7769 39.6041 32.2693 39.1158 32.5576 38.5031C32.7058 38.8615 32.8775 39.2198 33.135 39.5064C33.416 39.833 33.853 40.0081 34.2744 39.9922C34.7972 39.9763 35.281 39.6976 35.6322 39.3074C36.325 38.4921 36.729 37.4628 36.7793 36.3848C36.8496 35.5567 36.7637 34.6489 36.2565 33.964C36.0536 33.6694 35.6946 33.4624 35.3357 33.5659C34.9065 33.7012 34.6099 34.0756 34.3446 34.4259C34.7192 34.4976 35.0157 34.8002 35.1328 35.1585C35.2887 35.7181 35.2887 36.311 35.1328 36.8706C35.0429 37.3528 34.8363 37.8045 34.5319 38.1846C34.3837 38.3518 34.1183 38.4394 33.9154 38.304C33.6969 38.1368 33.6501 37.8342 33.6267 37.5794C33.5877 36.8069 33.7047 36.0345 33.8296 35.278C33.8608 35.1347 33.8217 34.9992 33.7515 34.8719C33.5018 34.7524 33.2287 34.832 32.9868 34.9436C32.7215 35.063 32.4561 35.1824 32.183 35.286C32.2221 35.4213 32.261 35.5567 32.2533 35.7C32.2345 36.4585 32.0306 37.2002 31.6602 37.858C31.5119 38.1049 31.2466 38.3836 30.9345 38.296C30.6925 38.1846 30.5911 37.8979 30.5599 37.651C30.5287 37.2051 30.6067 36.7592 30.716 36.3212C30.8798 35.5488 31.1061 34.7843 31.1529 33.988C31.1608 33.7252 31.1608 33.4305 30.9891 33.2155C30.936 33.1556 30.8709 33.1083 30.7981 33.0767C30.7253 33.0451 30.6467 33.03 30.5677 33.0324C30.4272 33.0084 30.3024 33.0403 30.2009 33.104Z" fill="white"/>
</mask>
<g mask="url(#mask3_0_4806)">
<path d="M28.8742 33.0085H36.8416V40.072H28.8742V33.0085Z" fill="white"/>
</g>
</g>
</g>
</g>
<defs>
<clipPath id="clip0_0_4806">
<rect width="75.19" height="40" fill="white"/>
</clipPath>
<clipPath id="clip1_0_4806">
<rect width="75.2" height="40" fill="white" transform="translate(-0.00500488)"/>
</clipPath>
</defs>
</svg>
