<svg width="73" height="42" viewBox="0 0 73 42" fill="none" xmlns="http://www.w3.org/2000/svg">
<g clip-path="url(#clip0_0_4799)">
<g clip-path="url(#clip1_0_4799)">
<g clip-path="url(#clip2_0_4799)">
<mask id="mask0_0_4799" style="mask-type:luminance" maskUnits="userSpaceOnUse" x="-1" y="0" width="73" height="42">
<path d="M71.7819 0H-0.00189209V41.4786H71.7819V0Z" fill="white"/>
</mask>
<g mask="url(#mask0_0_4799)">
<path d="M47.3134 35.8521C47.3232 35.7702 47.3118 35.6871 47.2801 35.611C47.2483 35.5349 47.1975 35.4682 47.1324 35.4176C47.0075 35.3368 46.8609 35.2963 46.7124 35.3018H46.5748V36.5038H46.6544C46.7504 36.5148 46.8477 36.5041 46.9391 36.4728C47.0305 36.4415 47.1138 36.3903 47.183 36.3228C47.266 36.2174 47.3118 36.0876 47.3134 35.9535V35.8376V35.8521Z" fill="white" fill-opacity="0.9"/>
<path d="M32.3743 37.6189H33.0188L32.6495 35.6782L32.3743 37.6189Z" fill="white" fill-opacity="0.9"/>
<path d="M39.9053 37.1917C39.8252 37.1342 39.7288 37.1037 39.6302 37.1048H39.5577V38.3068H39.6446C39.7159 38.3094 39.7869 38.2957 39.8521 38.2669C39.9173 38.2381 39.9751 38.1948 40.0212 38.1403C40.1201 38.0151 40.1691 37.8578 40.1588 37.6986C40.1588 37.5984 40.1366 37.4994 40.0936 37.4089C40.0496 37.3221 39.9849 37.2476 39.9053 37.1917Z" fill="white" fill-opacity="0.9"/>
<path d="M39.9489 36.3444C40.0006 36.2852 40.04 36.2163 40.0649 36.1418C40.0897 36.0672 40.0995 35.9884 40.0937 35.91C40.1008 35.7858 40.0785 35.6618 40.0285 35.5479C40.0135 35.512 39.9908 35.4797 39.9621 35.4535C39.9332 35.4272 39.8991 35.4076 39.862 35.3958C39.7541 35.3782 39.644 35.3782 39.5361 35.3958V36.5038H39.623C39.7484 36.4956 39.8654 36.4383 39.9489 36.3444Z" fill="white" fill-opacity="0.9"/>
<path d="M54.7646 32.1011H17.0153L14.0753 36.7862L17.0153 41.4787H54.7646L57.7046 36.7862L54.7646 32.1011ZM21.6426 39.0021L21.4977 38.278H20.6215L20.4405 39.0021H19.5643L20.5781 34.5704H21.4977L22.5622 39.0021H21.6426ZM24.7853 38.4083C24.7175 38.5374 24.6295 38.6547 24.5246 38.7559C24.4184 38.8537 24.2959 38.9321 24.1626 38.9876C24.0179 39.0469 23.8628 39.0765 23.7064 39.0745C23.4373 39.0679 23.1738 38.9958 22.9388 38.8645V37.9883C23.017 38.071 23.1113 38.1368 23.2159 38.1817C23.3205 38.2266 23.4333 38.2494 23.547 38.249C23.6819 38.2527 23.8142 38.212 23.9236 38.1331C23.9738 38.0945 24.0148 38.0453 24.0436 37.989C24.0723 37.9326 24.0883 37.8706 24.0901 37.8073C24.0904 37.7043 24.0602 37.6035 24.0032 37.5176C23.9456 37.4388 23.8801 37.3661 23.8077 37.3004L23.5398 37.1049C23.4578 37.0537 23.3803 36.9955 23.3081 36.9311C23.1369 36.7992 22.9992 36.6289 22.9061 36.4339C22.813 36.2389 22.7671 36.0247 22.7722 35.8087C22.7724 35.6395 22.7968 35.4713 22.8446 35.309C22.9157 35.084 23.058 34.8884 23.2501 34.7514C23.445 34.6211 23.6748 34.5529 23.9091 34.5559C24.1638 34.5612 24.4129 34.6309 24.6333 34.7587V35.6204C24.4672 35.4586 24.2491 35.3611 24.0177 35.3452C23.9605 35.3422 23.9032 35.3511 23.8497 35.3714C23.796 35.3916 23.7473 35.4229 23.7064 35.4631C23.6655 35.5033 23.6334 35.5515 23.6122 35.6048C23.5911 35.6581 23.5812 35.7152 23.5833 35.7725C23.584 35.8653 23.6116 35.9558 23.6629 36.0331C23.7197 36.115 23.7852 36.1902 23.8584 36.2576C23.9659 36.3565 24.0796 36.4484 24.1988 36.5328L24.445 36.7283C24.5513 36.8127 24.6441 36.9128 24.7201 37.0252C24.7914 37.1303 24.8474 37.2448 24.8867 37.3656C24.9241 37.4876 24.9437 37.6144 24.9446 37.7421C24.9422 37.9733 24.8877 38.201 24.7853 38.4083ZM27.0519 39.0021L26.2191 36.8297V39.0021H25.3429V34.5704H26.2191V36.6052L26.9432 34.5704H27.8846L27.0519 36.6993L27.9715 39.0021H27.0519ZM31.1215 37.5104C31.1215 37.6552 31.0853 37.7493 31.0708 37.8073C31.0495 37.9358 31.0155 38.062 30.9695 38.1838C30.8983 38.3822 30.7846 38.5626 30.6364 38.7125C30.4623 38.906 30.222 39.0274 29.9629 39.0528H29.7457C29.4125 39.0616 29.0886 38.9424 28.8405 38.7197C28.5981 38.4857 28.4188 38.1943 28.3191 37.8725C28.2077 37.5113 28.1515 37.1353 28.1526 36.7573C28.1526 36.6197 28.1526 36.4749 28.1526 36.33C28.1665 36.1049 28.2129 35.883 28.2901 35.6711C28.3908 35.3792 28.5568 35.1142 28.7753 34.8962C28.888 34.7736 29.026 34.677 29.1799 34.6132C29.3337 34.5494 29.4997 34.52 29.666 34.5269C29.8301 34.5313 29.993 34.5556 30.1512 34.5993C30.3573 34.6495 30.5424 34.7636 30.6798 34.9252C30.8213 35.1252 30.938 35.3417 31.0274 35.5697L30.1946 35.8956C30.1963 35.7952 30.174 35.6959 30.1295 35.6059C30.09 35.5266 30.0331 35.4573 29.9629 35.4031C29.8914 35.3576 29.8087 35.3325 29.7239 35.3307C29.6223 35.333 29.5247 35.3716 29.4488 35.4393C29.3489 35.524 29.2738 35.6341 29.2315 35.758C29.1762 35.894 29.1443 36.0385 29.1374 36.1852C29.1279 36.3492 29.1279 36.5136 29.1374 36.6776C29.1374 36.8297 29.1374 36.9383 29.1374 37.0035C29.1433 37.0952 29.1433 37.1871 29.1374 37.2787C29.1477 37.4317 29.1671 37.5841 29.1953 37.7349C29.2251 37.8703 29.2817 37.9983 29.3619 38.1114C29.3995 38.1606 29.4464 38.2017 29.5002 38.2324C29.5538 38.2631 29.6131 38.2828 29.6746 38.2902C29.736 38.2977 29.7983 38.2927 29.8578 38.2757C29.9172 38.2586 29.9727 38.2299 30.0208 38.1911C30.1097 38.1099 30.1769 38.0079 30.2164 37.8942C30.2699 37.7401 30.3017 37.5792 30.3105 37.4162H29.7095V36.5618H31.1577C31.1577 36.7066 31.1577 36.8659 31.1577 37.0252C31.1581 37.1876 31.146 37.3498 31.1215 37.5104ZM33.2939 39.0021L33.1564 38.278H32.2801L32.0991 39.0021H31.2157L32.2295 34.5704H33.1491L34.2064 39.0021H33.2939ZM37.3636 39.0021L37.1319 35.91L36.625 39.0021H35.9008L35.3505 35.91L35.1622 39.0021H34.2715L34.6843 34.5704H35.8429L36.2846 37.3004L36.6539 34.5704H37.8053L38.3122 39.0021H37.3636ZM40.8684 38.3649C40.7756 38.554 40.6329 38.7143 40.4557 38.8283C40.2622 38.9474 40.0383 39.0078 39.8112 39.0021H38.6598V34.5704H39.8112C40.061 34.5944 40.2956 34.7015 40.4774 34.8745C40.5585 34.9492 40.6292 35.0344 40.6874 35.128C40.7617 35.2302 40.8158 35.3458 40.8467 35.4683C40.8896 35.6092 40.9115 35.7556 40.9119 35.9028C40.9117 36.0153 40.8971 36.1272 40.8684 36.2359C40.8329 36.3455 40.7791 36.4484 40.7091 36.54C40.6287 36.6422 40.5275 36.7261 40.4122 36.7862C40.5353 36.844 40.646 36.9252 40.7381 37.0252C40.8308 37.1257 40.9022 37.244 40.9481 37.3728C40.992 37.501 41.014 37.6356 41.0133 37.7711C41.0125 37.9777 40.9628 38.1812 40.8684 38.3649ZM43.2364 39.0021H41.3536V34.5704H42.2226V38.1911H43.2364V39.0021ZM45.2712 35.3814H44.395V36.3445H45.1191V37.2207H44.395V38.1911H45.2712V39.0166H43.4753V34.5704H45.2712V35.3814ZM47.4001 39.0021L46.6181 36.9311V39.0021H45.6984V34.5704H46.8064C47.0569 34.5658 47.305 34.6204 47.5305 34.7297C47.7354 34.8337 47.9081 34.9914 48.0301 35.1859C48.1508 35.3924 48.2134 35.6276 48.2112 35.8666C48.2219 35.9822 48.2219 36.0986 48.2112 36.2142C48.1794 36.3458 48.1202 36.4691 48.0374 36.5762C47.918 36.7369 47.7679 36.8723 47.5957 36.9745L48.385 39.0021H47.4001ZM50.637 38.4083C50.5719 38.5371 50.4863 38.6544 50.3836 38.7559C50.2774 38.8537 50.1548 38.9321 50.0215 38.9876C49.8765 39.0456 49.7216 39.0751 49.5653 39.0745C49.2961 39.0687 49.0324 38.9966 48.7977 38.8645V37.9883C48.8759 38.071 48.9703 38.1368 49.0749 38.1817C49.1795 38.2266 49.2922 38.2494 49.406 38.249C49.5388 38.2539 49.6692 38.2129 49.7753 38.1331C49.8254 38.094 49.8668 38.0447 49.8967 37.9886C49.9266 37.9325 49.9445 37.8707 49.9491 37.8073C49.9502 37.7031 49.9171 37.6013 49.855 37.5176C49.8015 37.4356 49.7355 37.3623 49.6595 37.3004C49.5744 37.2296 49.4849 37.1643 49.3915 37.1049C49.3129 37.0522 49.2379 36.9941 49.167 36.9311C48.9896 36.8027 48.8453 36.634 48.7458 36.4388C48.6464 36.2437 48.5947 36.0277 48.595 35.8087C48.5979 35.6392 48.6247 35.471 48.6746 35.309C48.7413 35.0839 48.8816 34.8876 49.0729 34.7514C49.2668 34.619 49.4972 34.5505 49.7319 34.5559C49.9869 34.5586 50.2367 34.6285 50.456 34.7587V35.6204C50.29 35.4586 50.0719 35.3611 49.8405 35.3452C49.7829 35.3433 49.7256 35.3532 49.6721 35.3744C49.6185 35.3956 49.5698 35.4275 49.5291 35.4683C49.4506 35.5501 49.4065 35.6591 49.406 35.7725C49.406 35.8664 49.4365 35.958 49.4929 36.0331C49.5475 36.1166 49.6133 36.1922 49.6884 36.2576C49.7947 36.3549 49.9059 36.4468 50.0215 36.5328L50.275 36.7283C50.3791 36.8128 50.4695 36.913 50.5429 37.0252C50.617 37.1286 50.6732 37.2437 50.7095 37.3656C50.7504 37.4868 50.77 37.6142 50.7674 37.7421C50.774 37.9711 50.7294 38.1987 50.637 38.4083ZM52.136 35.4393C52.0866 35.5236 52.0136 35.5916 51.926 35.6349C51.8378 35.6771 51.7414 35.6993 51.6436 35.7C51.4938 35.7045 51.3481 35.6499 51.2381 35.548C51.1797 35.4953 51.1338 35.4303 51.1038 35.3576C51.0737 35.285 51.0602 35.2065 51.0643 35.128C51.0667 35.0533 51.0846 34.9799 51.1171 34.9125C51.1495 34.8452 51.1956 34.7854 51.2526 34.7369C51.3626 34.6407 51.5047 34.5891 51.6508 34.5921C51.743 34.5942 51.834 34.6138 51.9188 34.65C52.0025 34.6928 52.0727 34.758 52.1215 34.8383C52.1807 34.9235 52.2134 35.0243 52.2157 35.128C52.2179 35.2371 52.1904 35.3447 52.136 35.4393Z" fill="white" fill-opacity="0.9"/>
<path d="M20.7158 37.6189H21.3602L20.9982 35.6782L20.7158 37.6189Z" fill="white" fill-opacity="0.9"/>
<path d="M10.4111 4.3738C10.5696 4.74663 10.8044 5.08207 11.1005 5.35847C11.3967 5.63488 11.7475 5.84609 12.1303 5.97849C12.5132 6.11087 12.9195 6.16149 13.3231 6.12707C13.7267 6.09265 14.1186 5.97395 14.4735 5.77864C14.3151 5.40582 14.0803 5.07037 13.7841 4.79397C13.488 4.51756 13.1372 4.30634 12.7544 4.17396C12.3715 4.04157 11.9651 3.99095 11.5616 4.02537C11.1579 4.0598 10.766 4.1785 10.4111 4.3738Z" fill="white" fill-opacity="0.9"/>
<path d="M8.56468 4.22888C8.63579 3.83097 8.6216 3.42249 8.52297 3.0305C8.42435 2.6385 8.2436 2.27193 7.99261 1.95508C7.65068 2.17214 7.35812 2.45848 7.13372 2.79562C6.90934 3.13276 6.75815 3.51321 6.68991 3.9124C6.62168 4.31159 6.6379 4.72065 6.73755 5.11318C6.8372 5.50571 7.01806 5.87298 7.26848 6.19128C7.61186 5.97546 7.90521 5.6887 8.12875 5.35024C8.35229 5.01179 8.50096 4.62946 8.56468 4.22888Z" fill="white" fill-opacity="0.9"/>
<path d="M4.83953 9.29897C5.35211 9.21201 5.60655 8.19213 5.40786 7.02109C5.20916 5.85003 4.63255 4.97121 4.11997 5.05818C3.60738 5.14515 3.35293 6.16499 3.55163 7.33605C3.75033 8.50713 4.32694 9.38594 4.83953 9.29897Z" fill="white" fill-opacity="0.9"/>
<path d="M3.24945 13.0345C3.42567 12.6695 3.52333 12.2716 3.5361 11.8664C3.54887 11.4613 3.47647 11.058 3.32358 10.6827C3.1707 10.3073 2.94073 9.96815 2.64855 9.68719C2.35637 9.4063 2.00848 9.18978 1.62738 9.05176C1.45116 9.4168 1.3535 9.81471 1.34073 10.2199C1.32796 10.6249 1.40036 11.0282 1.55325 11.4036C1.70613 11.779 1.9361 12.1181 2.22828 12.3991C2.52046 12.68 2.86835 12.8965 3.24945 13.0345Z" fill="white" fill-opacity="0.9"/>
<path d="M15.1399 1.36138C14.4138 1.53647 13.7833 1.98529 13.3802 2.61414C12.4325 2.92606 11.516 3.32609 10.643 3.80897C11.164 3.46038 11.5578 2.95219 11.7654 2.36069C11.8989 1.97926 11.9511 1.57411 11.9187 1.17129C11.8863 0.768475 11.7699 0.376891 11.5771 0.0217285C11.2043 0.180152 10.8689 0.415014 10.5925 0.711144C10.3161 1.00727 10.1048 1.35808 9.9724 1.74093C9.84003 2.12376 9.78941 2.53011 9.82388 2.93373C9.85828 3.33735 9.97696 3.72926 10.1723 4.08414L10.2809 4.03345C8.09942 5.24087 6.27234 6.99867 4.98152 9.1318C3.69069 11.265 2.98119 13.6991 2.92367 16.1917C2.92367 16.3003 2.92367 16.4089 2.92367 16.5176C2.84744 15.9067 2.57859 15.336 2.15608 14.8883C1.87941 14.5898 1.54295 14.3531 1.16864 14.1934C0.794331 14.0336 0.390568 13.9546 -0.016332 13.9614C-0.051461 14.37 0.000582961 14.7814 0.136358 15.1684C0.272133 15.5554 0.488542 15.9091 0.771267 16.2063C1.05399 16.5034 1.39658 16.7371 1.77638 16.8918C2.15617 17.0466 2.5645 17.119 2.97436 17.1041V16.9448C3.04037 18.0475 3.24473 19.1374 3.58263 20.1889C3.30911 19.5652 2.82452 19.0578 2.21401 18.7558C1.6035 18.4539 0.906109 18.3767 0.244357 18.5379C0.30047 18.9396 0.440297 19.325 0.654787 19.6692C0.869272 20.0133 1.15365 20.3086 1.48949 20.5359C1.82534 20.7632 2.20517 20.9175 2.60441 20.9887C3.00365 21.0599 3.41339 21.0465 3.80711 20.9493C3.80711 20.8624 3.80711 20.7755 3.75642 20.6886C4.12476 21.7072 4.61082 22.6793 5.2047 23.5852C4.91742 23.253 4.55836 22.9906 4.1547 22.8176C3.78526 22.6539 3.38567 22.5694 2.9816 22.5694C2.57753 22.5694 2.17794 22.6539 1.80849 22.8176C1.9379 23.201 2.14758 23.5524 2.42355 23.8483C2.69951 24.1443 3.03541 24.3779 3.40884 24.5338C3.77829 24.6974 4.17788 24.782 4.58194 24.782C4.98601 24.782 5.3856 24.6974 5.75504 24.5338C5.70283 24.3846 5.63991 24.2394 5.56677 24.0993C6.16656 24.9328 6.85088 25.702 7.60882 26.3948C7.09679 26.0493 6.48889 25.8738 5.87146 25.8933C5.25402 25.9128 4.65842 26.1263 4.16918 26.5034C4.38619 26.8465 4.67286 27.14 5.0106 27.3651C5.34835 27.5902 5.72963 27.7418 6.12972 27.8101C6.52982 27.8784 6.9398 27.8618 7.33306 27.7614C7.72634 27.6611 8.09413 27.4792 8.41261 27.2276C8.32651 27.0966 8.22962 26.9731 8.12295 26.8583C10.2135 28.5887 12.7023 29.7709 15.3643 30.2979L15.4367 29.9358C13.0043 29.4531 10.7181 28.4093 8.7602 26.8872C9.08787 26.663 9.36586 26.3738 9.5771 26.0376C9.78825 25.7014 9.92808 25.3254 9.98783 24.9328C10.0476 24.5404 10.026 24.1398 9.92446 23.756C9.82287 23.3721 9.6435 23.0133 9.39744 22.7017C8.75179 23.1161 8.29696 23.7697 8.13273 24.5191C7.96842 25.2686 8.10818 26.0525 8.52123 26.6989C7.64828 25.9916 6.86091 25.1848 6.17505 24.2948C6.54054 24.1603 6.87445 23.9521 7.156 23.683C7.43756 23.4139 7.66074 23.0897 7.81157 22.7307C7.97632 22.3603 8.0614 21.9594 8.0614 21.5539C8.0614 21.1486 7.97632 20.7477 7.81157 20.3772C7.44893 20.4946 7.11297 20.6824 6.82302 20.9299C6.53307 21.1773 6.29481 21.4796 6.12191 21.8193C5.94902 22.1591 5.84489 22.5296 5.81548 22.9097C5.78607 23.2897 5.83198 23.6718 5.95056 24.0341C5.20882 23.0384 4.60475 21.9472 4.1547 20.79C4.55427 20.732 4.9373 20.591 5.27918 20.3762C5.62107 20.1614 5.91427 19.8775 6.13997 19.5427C6.36567 19.2079 6.51888 18.8296 6.58977 18.4321C6.66065 18.0346 6.64765 17.6267 6.5516 17.2345C6.16025 17.2897 5.78437 17.4246 5.44705 17.6305C5.10974 17.8364 4.81816 18.1093 4.59024 18.4322C4.36232 18.7551 4.20288 19.1212 4.12176 19.508C4.04063 19.8948 4.03952 20.2941 4.11849 20.6814C3.68372 19.5184 3.41792 18.2991 3.32918 17.0607C3.73282 17.0952 4.13919 17.0446 4.52206 16.9123C4.90494 16.7799 5.2558 16.5688 5.55197 16.2924C5.84814 16.016 6.08304 15.6805 6.24151 15.3078C6.39998 14.9349 6.47848 14.533 6.47194 14.1279C6.07138 14.0937 5.66809 14.1433 5.28774 14.2735C4.90738 14.4037 4.55829 14.6116 4.26268 14.8841C3.96706 15.1566 3.7314 15.4876 3.57069 15.8561C3.40997 16.2246 3.32773 16.6225 3.32918 17.0245C3.32918 16.7493 3.32918 16.4741 3.32918 16.1989C3.32647 15.1619 3.45049 14.1284 3.69849 13.1214C4.06268 13.2912 4.45821 13.3834 4.85994 13.392C5.26167 13.4007 5.66081 13.3257 6.03198 13.1718C6.40316 13.0178 6.73824 12.7884 7.01595 12.498C7.29367 12.2076 7.50787 11.8625 7.64502 11.4848C7.2802 11.3109 6.88291 11.2152 6.47884 11.204C6.07477 11.1928 5.67281 11.2662 5.29884 11.4196C4.62591 11.6937 4.08055 12.2106 3.77091 12.8679C4.09487 11.6745 4.58224 10.5316 5.21918 9.47171C5.53604 9.72269 5.9026 9.90351 6.2946 10.0021C6.6866 10.1008 7.09508 10.115 7.49295 10.0438C7.89195 9.97781 8.27263 9.82907 8.61066 9.60705C8.94862 9.3851 9.23639 9.09479 9.45537 8.75481C9.14102 8.50694 8.77859 8.32692 8.3911 8.22612C8.00362 8.12532 7.59947 8.10598 7.20414 8.16927C6.8088 8.23256 6.43087 8.3771 6.0942 8.59376C5.75754 8.8105 5.46946 9.09465 5.24815 9.42826C5.90362 8.36472 6.69475 7.39104 7.60157 6.53173C7.82193 6.86465 8.10869 7.14843 8.44389 7.36526C8.7791 7.58207 9.15557 7.72726 9.54951 7.79171C9.948 7.85913 10.3561 7.8424 10.7477 7.74261C11.1393 7.64282 11.5057 7.46222 11.8233 7.21242C11.6169 6.88994 11.3486 6.61158 11.0339 6.39346C10.7192 6.17532 10.3644 6.02176 9.99 5.94162C9.61555 5.86148 9.229 5.85638 8.8526 5.9266C8.47619 5.99681 8.11745 6.14096 7.79709 6.35069C9.46239 4.82484 11.4389 3.67847 13.5902 2.99069C14.2678 3.3229 15.0471 3.38188 15.7669 3.15542C16.4867 2.92897 17.0918 2.43442 17.4571 1.77414C17.1212 1.547 16.7415 1.39288 16.3423 1.32178C15.9431 1.25068 15.5335 1.26417 15.1399 1.36138Z" fill="white" fill-opacity="0.9"/>
<path d="M61.3689 4.3738C61.0131 4.17477 60.6193 4.05308 60.2133 4.01669C59.8072 3.9803 59.3981 4.03003 59.0125 4.16264C58.6271 4.29524 58.2739 4.50772 57.9761 4.78619C57.6784 5.06466 57.4428 5.40285 57.2847 5.77863C57.6396 5.97394 58.0315 6.09264 58.4352 6.12707C58.8388 6.16149 59.2451 6.11087 59.628 5.97848C60.0108 5.84609 60.3616 5.63488 60.6578 5.35847C60.9539 5.08207 61.1887 4.74662 61.3471 4.3738H61.3689Z" fill="white" fill-opacity="0.9"/>
<path d="M64.5261 6.19128C64.7765 5.87298 64.9573 5.50571 65.057 5.11318C65.1566 4.72065 65.1729 4.31159 65.1046 3.9124C65.0364 3.51321 64.8852 3.13276 64.6608 2.79562C64.4364 2.45848 64.1439 2.17214 63.8019 1.95508C63.5516 2.27338 63.3707 2.64066 63.2711 3.03318C63.1714 3.42572 63.1552 3.83478 63.2234 4.23397C63.2916 4.63316 63.4428 5.0136 63.6672 5.35075C63.8916 5.68789 64.1842 5.97423 64.5261 6.19128Z" fill="white" fill-opacity="0.9"/>
<path d="M68.2337 7.33549C68.3032 6.9364 68.2881 6.52719 68.1896 6.13429C68.0911 5.74139 67.9112 5.37352 67.6616 5.05444C67.3198 5.2715 67.0272 5.55784 66.8028 5.89498C66.5784 6.23212 66.4272 6.61257 66.359 7.01176C66.2907 7.41095 66.307 7.82001 66.4066 8.21257C66.5063 8.60505 66.6871 8.97233 66.9375 9.29066C67.278 9.07313 67.5692 8.78688 67.7924 8.45016C68.0156 8.11343 68.1659 7.73377 68.2337 7.33549Z" fill="white" fill-opacity="0.9"/>
<path d="M68.5306 13.0345C68.9117 12.8965 69.2595 12.68 69.5517 12.3991C69.8439 12.1181 70.0739 11.779 70.2268 11.4036C70.3796 11.0282 70.4521 10.6249 70.4393 10.2199C70.4265 9.81471 70.3289 9.4168 70.1526 9.05176C69.7715 9.18978 69.4236 9.4063 69.1314 9.68719C68.8393 9.96815 68.6093 10.3073 68.4564 10.6827C68.3035 11.058 68.2311 11.4613 68.2439 11.8664C68.2567 12.2716 68.3544 12.6695 68.5306 13.0345Z" fill="white" fill-opacity="0.9"/>
<path d="M69.2547 18.9652C68.8039 19.2686 68.4476 19.6926 68.2264 20.189C68.5643 19.1374 68.7686 18.0474 68.8347 16.9448C68.8311 16.9978 68.8311 17.0511 68.8347 17.1041C69.2397 17.1107 69.6417 17.0322 70.0144 16.8737C70.3873 16.7152 70.7227 16.4804 70.9991 16.1842C71.2755 15.888 71.4867 15.5371 71.619 15.1543C71.7514 14.7714 71.8019 14.365 71.7674 13.9614C71.3605 13.9546 70.9568 14.0336 70.5825 14.1933C70.2082 14.3531 69.8717 14.5899 69.595 14.8883C69.1904 15.343 68.9373 15.9125 68.8709 16.5176C68.8709 16.409 68.8709 16.3003 68.8709 16.1917C68.8162 13.6946 68.1082 11.2554 66.8173 9.11711C65.5265 6.97879 63.6979 5.21605 61.5136 4.00448L61.6223 4.06241C61.8166 3.70525 61.9335 3.31119 61.9655 2.90586C61.9974 2.50054 61.9437 2.09301 61.8078 1.70982C61.6719 1.32663 61.4567 0.976341 61.1766 0.681752C60.8963 0.387165 60.5572 0.154877 60.1812 0C59.8316 0.637217 59.7344 1.38257 59.9088 2.08815C60.0832 2.79372 60.5164 3.40796 61.1226 3.80897C60.247 3.32605 59.3282 2.92603 58.3781 2.61414C58.1699 2.28737 57.8982 2.0057 57.5793 1.7858C57.2602 1.56589 56.9003 1.41224 56.5209 1.33391C56.1414 1.25558 55.7501 1.25419 55.3701 1.32981C54.99 1.40542 54.629 1.55651 54.3085 1.77414C54.6734 2.44633 55.2892 2.94692 56.0219 3.16669C56.7544 3.38647 57.5442 3.30758 58.2188 2.94724C60.3702 3.63502 62.3467 4.78139 64.0119 6.30724C63.6916 6.0975 63.3328 5.95335 62.9564 5.88314C62.58 5.81292 62.1935 5.81804 61.819 5.89817C61.4446 5.9783 61.0898 6.13188 60.7752 6.35C60.4605 6.56813 60.1922 6.84648 59.9857 7.16896C60.3009 7.41894 60.6647 7.60048 61.054 7.70208C61.4433 7.80374 61.8494 7.82308 62.2466 7.75907C62.6437 7.69505 63.0233 7.54899 63.3608 7.33016C63.6984 7.11137 63.9868 6.82465 64.2074 6.48828C65.113 7.34877 65.9039 8.3223 66.5609 9.38483C66.339 9.05172 66.0505 8.76822 65.7136 8.55221C65.3766 8.3362 64.9986 8.19239 64.6033 8.12975C64.2079 8.06719 63.8039 8.08717 63.4168 8.18855C63.0296 8.28986 62.6676 8.47039 62.3536 8.71862C62.5726 9.05853 62.8604 9.34884 63.1984 9.57086C63.5364 9.79288 63.9171 9.94162 64.3161 10.0076C64.714 10.0788 65.1225 10.0645 65.5144 9.96595C65.9064 9.86732 66.273 9.6865 66.5899 9.43552C67.228 10.4948 67.7155 11.6378 68.0381 12.8317C67.7285 12.1744 67.1831 11.6575 66.5102 11.3834C66.1363 11.23 65.7343 11.1565 65.3302 11.1677C64.9261 11.179 64.5289 11.2746 64.164 11.4486C64.2994 11.8353 64.5153 12.1888 64.7974 12.4859C65.0794 12.783 65.4214 13.0169 65.8005 13.1721C66.1685 13.3225 66.5634 13.3958 66.9608 13.387C67.3582 13.3783 67.7496 13.2879 68.1105 13.1214C68.3604 14.1257 68.4869 15.1568 68.4871 16.1917C68.4871 16.4669 68.4871 16.7421 68.4871 17.0172C68.4939 16.6103 68.4148 16.2066 68.2551 15.8323C68.0954 15.458 67.8586 15.1215 67.5602 14.8448C67.2654 14.5682 66.9159 14.3563 66.5343 14.2229C66.1526 14.0894 65.7473 14.0373 65.3443 14.07C65.3378 14.4751 65.4163 14.877 65.5748 15.2498C65.7333 15.6226 65.9681 15.958 66.2643 16.2344C66.5605 16.5108 66.9114 16.722 67.2942 16.8543C67.6771 16.9867 68.0835 17.0372 68.4871 17.0028C68.4032 18.2419 68.1373 19.4619 67.6978 20.6234C67.7669 20.2399 67.7578 19.8462 67.6711 19.4662C67.5845 19.0862 67.4221 18.7276 67.1936 18.4118C66.965 18.0961 66.6751 17.8297 66.3412 17.6286C66.0073 17.4275 65.6362 17.296 65.2502 17.2417C65.1542 17.6339 65.1411 18.0418 65.212 18.4393C65.2829 18.8369 65.4362 19.2151 65.6618 19.5499C65.8875 19.8847 66.1807 20.1686 66.5226 20.3834C66.8645 20.5982 67.2475 20.7392 67.6471 20.7972C67.1897 21.9531 66.5783 23.0419 65.8295 24.0341C65.9525 23.6737 66.0033 23.2926 65.9788 22.9126C65.9544 22.5326 65.8553 22.1611 65.6871 21.8194C65.519 21.4777 65.2851 21.1726 64.9989 20.9214C64.7127 20.6702 64.3798 20.4779 64.0192 20.3555C63.8545 20.726 63.7693 21.1269 63.7693 21.5322C63.7693 21.9376 63.8545 22.3385 64.0192 22.709C64.1701 23.068 64.3933 23.3921 64.6748 23.6612C64.9563 23.9303 65.2902 24.1386 65.6557 24.2731C64.9686 25.1595 64.184 25.966 63.3167 26.6772C63.7197 26.0273 63.8528 25.2457 63.6878 24.499C63.5228 23.7523 63.0726 23.0996 62.4333 22.68C62.1872 22.9916 62.0079 23.3504 61.9063 23.7343C61.8047 24.1181 61.7832 24.5187 61.8429 24.9111C61.9027 25.3036 62.0425 25.6797 62.2536 26.0159C62.4649 26.3521 62.7429 26.6412 63.0705 26.8655C61.1126 28.3875 58.8264 29.4314 56.394 29.9141L56.4664 30.2762C59.1295 29.7521 61.6189 28.5696 63.7078 26.8366C63.6034 26.9533 63.5066 27.0766 63.4181 27.2059C63.7366 27.4575 64.1044 27.6393 64.4977 27.7397C64.891 27.8401 65.301 27.8566 65.701 27.7884C66.1011 27.7201 66.4824 27.5684 66.8201 27.3434C67.1579 27.1182 67.4446 26.8247 67.6616 26.4817C67.1723 26.1045 66.5767 25.891 65.9593 25.8716C65.3419 25.8521 64.734 26.0275 64.2219 26.3731C64.9802 25.6785 65.6668 24.9095 66.2712 24.0776C66.1928 24.216 66.1273 24.3615 66.0757 24.5121C66.4444 24.6817 66.8446 24.7719 67.2504 24.7769C67.6562 24.782 68.0585 24.7016 68.4313 24.5412C68.8041 24.3807 69.139 24.1438 69.4143 23.8456C69.6897 23.5474 69.8992 23.1947 70.0295 22.8103C69.4603 22.5461 68.8207 22.4738 68.2069 22.6044C67.5931 22.735 67.0384 23.0614 66.6261 23.5345C67.2199 22.6287 67.706 21.6566 68.0743 20.6379C68.0743 20.7248 68.0381 20.8117 68.0236 20.8986C68.4174 20.9958 68.8271 21.0092 69.2264 20.938C69.6256 20.8668 70.0054 20.7125 70.3412 20.4852C70.6771 20.2579 70.9615 19.9626 71.176 19.6184C71.3904 19.2742 71.5303 18.8888 71.5864 18.4872C71.1861 18.3972 70.7712 18.3932 70.3692 18.4757C69.9672 18.5581 69.5873 18.7249 69.2547 18.9652Z" fill="white" fill-opacity="0.9"/>
<path d="M21.1937 10.6883V2.31006H25.944C27.6023 2.31006 28.3916 3.38902 28.3916 4.48247C28.4161 4.92194 28.2841 5.35588 28.019 5.7072C27.7538 6.05852 27.3727 6.3045 26.9433 6.40144C27.41 6.49734 27.8273 6.75619 28.1206 7.13168C28.4138 7.5072 28.5637 7.97477 28.5437 8.45075C28.5516 8.76785 28.4917 9.08299 28.3682 9.37511C28.2447 9.66723 28.0602 9.92965 27.8272 10.1449C27.5942 10.36 27.318 10.5231 27.017 10.623C26.7159 10.7229 26.397 10.7576 26.0816 10.7245L21.1937 10.6883ZM23.3661 5.54695H25.4226C25.6147 5.54695 25.7989 5.47066 25.9347 5.33486C26.0705 5.19906 26.1468 5.01487 26.1468 4.82282C26.1468 4.63077 26.0705 4.44658 25.9347 4.31078C25.7989 4.17497 25.6147 4.09868 25.4226 4.09868H23.3226L23.3661 5.54695ZM23.3661 8.89247H25.5385C25.6469 8.90724 25.7573 8.89725 25.8612 8.86322C25.9652 8.82926 26.0602 8.77212 26.1389 8.69616C26.2177 8.6202 26.2782 8.52736 26.3159 8.42468C26.3537 8.32192 26.3676 8.21207 26.3568 8.10316C26.359 7.99577 26.3389 7.88911 26.2978 7.78997C26.2565 7.69076 26.1952 7.60119 26.1176 7.52697C26.04 7.45274 25.9478 7.39546 25.8468 7.35882C25.7459 7.32211 25.6384 7.30683 25.5312 7.31385H23.3588L23.3661 8.89247Z" fill="white" fill-opacity="0.9"/>
<path d="M29.7675 10.6883V2.31006H35.9154V4.12764H31.9399V5.52523H35.8286V7.37902H31.9399V8.88523H35.9227V10.7101L29.7675 10.6883Z" fill="white" fill-opacity="0.9"/>
<path d="M37.6822 7.88592C38.3939 8.59463 39.3571 8.99298 40.3616 8.99385C41.0857 8.99385 41.5491 8.67523 41.5491 8.26971C41.5491 7.8642 41.0133 7.60351 40.1009 7.41523C38.7178 7.14004 36.7843 6.78522 36.7843 4.80108C36.7843 3.39625 37.9719 2.1797 40.1226 2.1797C41.3624 2.14114 42.5733 2.55852 43.526 3.3528L42.3674 4.89522C41.6985 4.35201 40.8682 4.04635 40.0067 4.02625C39.2826 4.02625 39.0147 4.3159 39.0147 4.68521C39.0147 5.05453 39.5288 5.27177 40.4629 5.4528C41.846 5.73522 43.7578 6.14073 43.7578 8.03799C43.7578 9.71799 42.5122 10.8404 40.2674 10.8404C39.5897 10.8753 38.9118 10.7755 38.273 10.5468C37.6341 10.3181 37.0469 9.96499 36.5453 9.50799L37.6822 7.88592Z" fill="white" fill-opacity="0.9"/>
<path d="M46.582 10.6883V4.17109H44.2502V2.31006H51.1006V4.19282H48.7399V10.7101L46.582 10.6883Z" fill="white" fill-opacity="0.9"/>
<path d="M12.4679 16.2785C12.4552 15.694 12.5631 15.1131 12.7848 14.5721C13.0064 14.031 13.3372 13.5414 13.7563 13.1338C14.1755 12.7262 14.6741 12.4093 15.2211 12.2028C15.7681 11.9963 16.3519 11.9047 16.9358 11.9337C17.7089 11.8967 18.4755 12.0903 19.1382 12.4901C19.801 12.8898 20.3299 13.4775 20.6579 14.1785L18.7968 15.062C18.6392 14.6992 18.3792 14.3902 18.0487 14.1728C17.7181 13.9555 17.3314 13.8392 16.9358 13.8382C16.3248 13.8854 15.7542 14.1615 15.3379 14.6112C14.9215 15.061 14.6903 15.6512 14.6903 16.264C14.6903 16.8769 14.9215 17.4671 15.3379 17.9169C15.7542 18.3666 16.3248 18.6427 16.9358 18.6899C17.326 18.6942 17.7091 18.5858 18.0393 18.3777C18.3694 18.1696 18.6324 17.8707 18.7968 17.5168L20.6579 18.393C20.3287 19.0936 19.7997 19.6812 19.1374 20.0819C18.4751 20.4827 17.7091 20.6786 16.9358 20.6451C16.3502 20.6731 15.7652 20.5802 15.2171 20.372C14.6691 20.1638 14.1699 19.8449 13.7506 19.4351C13.3313 19.0254 13.0011 18.5336 12.7803 17.9905C12.5596 17.4474 12.4533 16.8646 12.4679 16.2785Z" fill="white" fill-opacity="0.9"/>
<path d="M27.2836 20.4642L26.8709 19.197H23.3732L22.9461 20.4642H20.5999L23.7498 12.0859H26.4653L29.6298 20.4642H27.2836ZM25.1112 13.947L23.9743 17.3721H26.2916L25.1112 13.947Z" fill="white" fill-opacity="0.9"/>
<path d="M30.7379 17.6618C31.4424 18.3635 32.3938 18.7613 33.3882 18.7697C34.1124 18.7697 34.5831 18.4511 34.5831 18.0456C34.5831 17.6401 34.0399 17.3794 33.1348 17.1911C31.7517 16.9159 29.8182 16.5611 29.8182 14.577C29.8182 13.1722 31.0131 11.9556 33.1565 11.9556C34.3954 11.915 35.6061 12.3298 36.5599 13.1215L35.3796 14.6639C34.7107 14.1206 33.8803 13.815 33.0189 13.7949C32.2948 13.7949 32.0268 14.0846 32.0268 14.4539C32.0268 14.8232 32.541 15.0404 33.4751 15.2215C34.851 15.5039 36.7627 15.9094 36.7627 17.8066C36.7627 19.4866 35.5172 20.6091 33.2724 20.6091C32.5947 20.6432 31.9171 20.543 31.2783 20.3143C30.6395 20.0856 30.0523 19.733 29.5503 19.2766L30.7379 17.6618Z" fill="white" fill-opacity="0.9"/>
<path d="M37.8126 20.4642V12.0859H39.985V20.4642H37.8126Z" fill="white" fill-opacity="0.9"/>
<path d="M47.1902 20.4642L43.6419 15.3952V20.4642H41.4695V12.0859H43.6926L47.0888 16.9087V12.0859H49.2612V20.4642H47.1902Z" fill="white" fill-opacity="0.9"/>
<path d="M54.8443 11.9482C55.6969 11.9766 56.5222 12.2554 57.2175 12.7497C57.9126 13.2441 58.4469 13.9322 58.7536 14.7282C59.0604 15.5242 59.1261 16.3929 58.9424 17.2259C58.7588 18.059 58.3339 18.8195 57.721 19.4128C57.108 20.006 56.3339 20.4057 55.4952 20.5619C54.6566 20.7182 53.7906 20.6241 53.0051 20.2914C52.2195 19.9587 51.5493 19.4022 51.078 18.6912C50.6067 17.9801 50.3551 17.1461 50.3547 16.293C50.3407 15.7063 50.4484 15.123 50.671 14.5799C50.8937 14.0368 51.2264 13.5457 51.6481 13.1375C52.0699 12.7293 52.5716 12.4129 53.1217 12.2082C53.6718 12.0036 54.2583 11.915 54.8443 11.9482ZM54.8443 13.8527C54.3573 13.8207 53.8719 13.936 53.4511 14.1835C53.0305 14.431 52.694 14.7993 52.4854 15.2406C52.2767 15.6819 52.2056 16.1757 52.2813 16.6578C52.357 17.14 52.576 17.5884 52.9098 17.9445C53.2436 18.3006 53.6768 18.5481 54.1531 18.6548C54.6294 18.7615 55.1267 18.7225 55.5805 18.5428C56.0344 18.3632 56.4237 18.0512 56.6979 17.6474C56.9721 17.2435 57.1185 16.7666 57.1181 16.2785C57.1411 15.9669 57.0993 15.6539 56.9952 15.3593C56.8911 15.0646 56.7271 14.7948 56.5134 14.5668C56.2997 14.3388 56.041 14.1576 55.7537 14.0347C55.4664 13.9118 55.1568 13.8498 54.8443 13.8527Z" fill="white" fill-opacity="0.9"/>
<path d="M20.9039 22.2673C21.5537 22.2398 22.1968 22.4078 22.75 22.7496C23.3033 23.0914 23.7414 23.5912 24.0077 24.1845C24.274 24.7778 24.3562 25.4374 24.2438 26.0779C24.1313 26.7184 23.8294 27.3106 23.377 27.7777C22.9245 28.2449 22.3424 28.5657 21.7058 28.6985C21.0691 28.8315 20.4074 28.7704 19.8057 28.5232C19.2042 28.2761 18.6906 27.8543 18.3313 27.3122C17.972 26.7702 17.7834 26.1328 17.7901 25.4825C17.7692 25.0633 17.8347 24.6443 17.9824 24.2515C18.1302 23.8587 18.3571 23.5005 18.6491 23.1989C18.941 22.8975 19.2919 22.6592 19.6797 22.499C20.0677 22.3387 20.4843 22.2599 20.9039 22.2673ZM20.9039 22.9915C19.4918 22.9915 18.6011 24.0704 18.6011 25.5404C18.6011 27.0104 19.4918 28.0894 20.9039 28.0894C21.5103 27.9974 22.0636 27.6912 22.4634 27.2261C22.8633 26.7611 23.0831 26.1682 23.0831 25.5549C23.0831 24.9416 22.8633 24.3486 22.4634 23.8837C22.0636 23.4186 21.5103 23.1123 20.9039 23.0204V22.9915Z" fill="white" fill-opacity="0.9"/>
<path d="M25.2489 28.6469V22.3687H29.362V23.0928H26.031V25.1204H29.2968V25.8445H26.031V28.7411L25.2489 28.6469Z" fill="white" fill-opacity="0.9"/>
<path d="M32.664 28.6469V28.0242C34.9233 26.2428 36.1471 25.2 36.1471 24.1211C36.1453 23.9565 36.1088 23.7943 36.04 23.6448C35.9713 23.4953 35.872 23.362 35.7484 23.2533C35.6247 23.1448 35.4796 23.0634 35.3226 23.0145C35.1654 22.9656 34.9998 22.9504 34.8365 22.9697C34.511 22.9603 34.1879 23.0268 33.8925 23.1638C33.5972 23.3008 33.3378 23.5045 33.1347 23.759L32.6568 23.2593C32.9197 22.9402 33.2522 22.6856 33.6287 22.5149C34.0053 22.3442 34.4159 22.2619 34.8292 22.2745C35.0908 22.2475 35.3552 22.2747 35.6057 22.3545C35.8563 22.4344 36.0877 22.565 36.2855 22.7383C36.4832 22.9116 36.6431 23.1239 36.7551 23.3618C36.8672 23.5998 36.9289 23.8582 36.9365 24.1211C36.9365 25.3956 35.6402 26.5687 33.8878 27.9518H36.9365V28.6759L32.664 28.6469Z" fill="white" fill-opacity="0.9"/>
<path d="M40.5353 22.2744C42.2443 22.2744 42.9322 23.9761 42.9322 25.5113C42.9322 27.0465 42.2081 28.7627 40.5353 28.7627C38.8625 28.7627 38.1312 27.0392 38.1312 25.4823C38.1312 23.9254 38.8119 22.2744 40.5353 22.2744ZM40.5353 22.9986C39.3405 22.9986 38.935 24.2875 38.935 25.5403C38.935 26.793 39.3405 28.0892 40.5353 28.0892C41.7301 28.0892 42.1356 26.793 42.1356 25.5403C42.1356 24.2875 41.7301 22.9696 40.5353 22.9696V22.9986Z" fill="white" fill-opacity="0.9"/>
<path d="M43.9242 28.647V28.0242C46.1835 26.2428 47.4073 25.2001 47.4073 24.1211C47.4055 23.9566 47.369 23.7944 47.3002 23.6448C47.2315 23.4954 47.1322 23.362 47.0086 23.2534C46.8849 23.1448 46.7398 23.0634 46.5828 23.0145C46.4257 22.9657 46.26 22.9505 46.0966 22.9697C45.7712 22.9604 45.4481 23.0269 45.1527 23.1638C44.8574 23.3008 44.598 23.5046 44.3949 23.759L43.917 23.2594C44.1799 22.9403 44.5124 22.6856 44.8889 22.515C45.2655 22.3442 45.6761 22.262 46.0894 22.2745C46.3512 22.2464 46.6159 22.273 46.867 22.3523C47.118 22.4317 47.3499 22.5623 47.5479 22.7358C47.7459 22.9093 47.9058 23.122 48.0175 23.3605C48.1292 23.5989 48.1901 23.8579 48.1966 24.1211C48.1966 25.3956 46.9004 26.5687 45.148 27.9518H48.2329V28.6759L43.9242 28.647Z" fill="white" fill-opacity="0.9"/>
<path d="M49.4568 28.6469V28.0242C51.7161 26.2428 52.9399 25.2 52.9399 24.1211C52.9379 23.9573 52.9016 23.7956 52.8333 23.6467C52.7651 23.4977 52.6663 23.3648 52.5435 23.2563C52.4207 23.1478 52.2766 23.0663 52.1204 23.0169C51.9641 22.9676 51.7993 22.9514 51.6364 22.9697C51.31 22.9603 50.9858 23.0268 50.6893 23.1637C50.3928 23.3006 50.132 23.5044 49.9275 23.759L49.4495 23.2593C49.7128 22.9407 50.0453 22.6863 50.4218 22.5157C50.7983 22.345 51.2088 22.2625 51.6219 22.2745C51.8836 22.2475 52.1479 22.2747 52.3984 22.3545C52.649 22.4344 52.8804 22.565 53.0782 22.7383C53.276 22.9116 53.4359 23.1239 53.5479 23.3618C53.6599 23.5998 53.7216 23.8582 53.7292 24.1211C53.7292 25.3956 52.4257 26.5687 50.6806 27.9518H53.7581V28.6759L49.4568 28.6469Z" fill="white" fill-opacity="0.9"/>
</g>
</g>
</g>
</g>
<defs>
<clipPath id="clip0_0_4799">
<rect width="72.41" height="42" fill="white"/>
</clipPath>
<clipPath id="clip1_0_4799">
<rect width="72.41" height="42" fill="white"/>
</clipPath>
<clipPath id="clip2_0_4799">
<rect width="72.4138" height="42" fill="white" transform="translate(-0.00189209)"/>
</clipPath>
</defs>
</svg>
