<svg width="73" height="40" viewBox="0 0 73 40" fill="none" xmlns="http://www.w3.org/2000/svg">
<g clip-path="url(#clip0_0_4793)">
<g clip-path="url(#clip1_0_4793)">
<g clip-path="url(#clip2_0_4793)">
<g clip-path="url(#clip3_0_4793)">
<mask id="mask0_0_4793" style="mask-type:luminance" maskUnits="userSpaceOnUse" x="-1" y="0" width="74" height="42">
<path d="M-0.00500488 0H72.235V42H-0.00500488V0Z" fill="white"/>
</mask>
<g mask="url(#mask0_0_4793)">
<g opacity="0.9">
<path fill-rule="evenodd" clip-rule="evenodd" d="M57.2178 31.0801C59.0199 31.0801 60.706 31.9694 61.7239 33.4565C62.9963 35.3157 62.9963 37.7657 61.7236 39.6247C60.7058 41.1113 59.0202 42.0001 57.2186 42.0001H15.0113C13.2096 42.0001 11.524 41.1113 10.5063 39.6247C9.23349 37.7657 9.23349 35.3157 10.5059 33.4565C11.5238 31.9694 13.21 31.0801 15.012 31.0801H57.2178ZM21.2845 38.6401C22.0778 38.6401 22.5477 38.3964 22.9708 37.9498L22.395 37.3406C22.0719 37.6306 21.7839 37.8163 21.3139 37.8163C20.6088 37.8163 20.1212 37.2362 20.1212 36.5401C20.1212 35.8324 20.6206 35.2639 21.3139 35.2639C21.7839 35.2639 22.0542 35.432 22.3715 35.7163L22.912 35.1014C22.5302 34.7301 22.0954 34.4401 21.3198 34.4401C20.0566 34.4401 19.1752 35.3857 19.1752 36.5401C19.1752 37.7177 20.0742 38.6401 21.2845 38.6401ZM15.9549 38.5704H18.9103V37.7583H16.8598V34.5097H15.9549V38.5704ZM25.6517 38.5704H23.6952V34.5097H25.6047C26.0747 34.5097 26.4448 34.6373 26.6799 34.8693C26.8679 35.055 26.9619 35.2813 26.9619 35.5713C26.9619 36.0296 26.7151 36.2848 26.4213 36.4473C26.8973 36.6271 27.191 36.8998 27.191 37.4567C27.191 38.1992 26.58 38.5704 25.6517 38.5704ZM24.5764 35.2928V36.1514H25.4108C25.8103 36.1514 26.063 36.0238 26.063 35.7105C26.063 35.4437 25.8515 35.2928 25.4695 35.2928H24.5764ZM24.5764 36.894V37.7873H25.6517C26.0512 37.7873 26.2921 37.6481 26.2921 37.3348C26.2921 37.0621 26.0865 36.894 25.6223 36.894H24.5764ZM29.3443 38.5704H30.2668L30.6427 37.6597H32.3819L32.7579 38.5704H33.7039L31.9413 34.4807H31.1069L29.3443 38.5704ZM30.966 36.8707L31.5123 35.5539L32.0587 36.8707H30.966ZM35.6851 38.5995H34.8978L33.4935 34.5097H34.463L35.3149 37.2595L36.2374 34.4981H37.013L37.9354 37.2595L38.7873 34.5097H39.7332L38.329 38.5995H37.5417L36.6134 35.9426L35.6851 38.5995ZM39.523 38.5704H40.4455L40.8215 37.6597H42.5607L42.9367 38.5704H43.8826L42.12 34.4807H41.2857L39.523 38.5704ZM41.1447 36.8707L41.6911 35.5539L42.2375 36.8707H41.1447ZM45.4223 38.5704H44.5174V34.5097H46.3976C46.9205 34.5097 47.3259 34.6547 47.5962 34.9216C47.8254 35.1478 47.9487 35.4669 47.9487 35.8614C47.9487 36.5169 47.5903 36.9287 47.0674 37.1202L48.0721 38.5704H47.0145L46.1214 37.271H45.4223V38.5704ZM45.4223 35.316V36.482H46.3388C46.7795 36.482 47.0321 36.25 47.0321 35.8961C47.0321 35.5133 46.7618 35.316 46.3212 35.316H45.4223ZM48.7634 38.5704H50.3674C51.66 38.5704 52.553 37.6829 52.553 36.5401C52.553 35.3857 51.66 34.5097 50.3674 34.5097H48.7634V38.5704ZM49.6682 35.316H50.3674C51.1077 35.316 51.6071 35.8207 51.6071 36.5401C51.6071 37.271 51.1077 37.7641 50.3674 37.7641H49.6682V35.316ZM56.2749 37.3697C56.2749 38.176 55.6521 38.6285 54.7649 38.6285C54.1422 38.6285 53.5134 38.4139 53.0199 37.9787L53.5546 37.3464C53.9248 37.6481 54.3125 37.8396 54.7826 37.8396C55.1527 37.8396 55.3759 37.6945 55.3759 37.445C55.3759 37.2188 55.235 37.1028 54.5475 36.9287C53.7191 36.7199 53.1844 36.4937 53.1844 35.6757C53.1844 34.939 53.7837 34.4517 54.6239 34.4517C55.2232 34.4517 55.7344 34.6373 56.1515 34.968L55.6815 35.6409C55.3172 35.3915 54.9588 35.2406 54.6121 35.2406C54.2656 35.2406 54.0834 35.3973 54.0834 35.6061C54.0834 35.873 54.2597 35.96 54.9706 36.1398C55.8049 36.3544 56.2749 36.6503 56.2749 37.3697Z" fill="white"/>
<path d="M8.75823 3.02011C8.90035 2.1191 8.66608 1.24945 8.18297 0.608887C7.53025 1.04723 7.04134 1.78826 6.89928 2.68992C6.75722 3.59093 6.99143 4.46122 7.47457 5.10115C8.12793 4.6628 8.61618 3.92177 8.75823 3.02011Z" fill="white"/>
<path d="M5.03095 8.37551C5.51282 7.7343 5.74575 6.864 5.60177 5.96299C5.45714 5.06198 4.9676 4.32159 4.3136 3.88452C3.83174 4.52637 3.59944 5.39666 3.74343 6.29767C3.88741 7.19868 4.37696 7.93844 5.03095 8.37551Z" fill="white"/>
<path d="M3.4339 12.3432C3.77242 11.606 3.82105 10.7031 3.49597 9.85702C3.17025 9.01047 2.53992 8.40122 1.81233 8.12671C1.47381 8.86389 1.42518 9.76681 1.7509 10.6128C2.07598 11.4594 2.7063 12.0687 3.4339 12.3432Z" fill="white"/>
<path d="M15.5593 30.2377C13.0405 29.7034 10.7732 28.5669 8.8989 27.0113C9.51454 26.5678 9.97393 25.8511 10.1103 24.984C10.2523 24.0823 10.0181 23.2127 9.53495 22.5727C8.88159 23.0111 8.39335 23.7528 8.25129 24.6538C8.12715 25.4396 8.29033 26.2024 8.65446 26.809C7.77775 26.0501 6.99385 25.1945 6.31552 24.266C7.01496 23.9921 7.62353 23.4111 7.95181 22.6022C8.2916 21.7626 8.25961 20.8584 7.93389 20.1148C7.20181 20.3753 6.56062 20.9717 6.22017 21.8113C5.92261 22.5453 5.91045 23.3292 6.12931 24.0119C5.38635 22.9491 4.78355 21.792 4.34008 20.5711C5.09902 20.4559 5.82599 20.0002 6.30464 19.2503C6.78715 18.4933 6.91513 17.5986 6.72763 16.8032C5.96165 16.9132 5.22702 17.3708 4.74387 18.1279C4.28569 18.8471 4.15066 19.6893 4.29976 20.454C3.86397 19.2234 3.60097 17.925 3.51522 16.5908C4.28441 16.6643 5.09583 16.3918 5.72487 15.7678C6.35392 15.1445 6.6662 14.3024 6.64956 13.4827C5.88038 13.409 5.06768 13.6817 4.43862 14.3055C3.81534 14.9231 3.50433 15.755 3.51457 16.5677C3.49602 16.2765 3.47619 15.986 3.47619 15.6916C3.47619 14.5821 3.60737 13.4923 3.85438 12.4402C4.5423 12.7839 5.37804 12.8299 6.16194 12.4901C6.95929 12.1452 7.53266 11.4758 7.79183 10.7035C7.09751 10.3444 6.24641 10.2926 5.44971 10.6382C4.74899 10.9415 4.22041 11.4957 3.92732 12.1516C4.25177 10.8871 4.74451 9.67958 5.38443 8.55457C5.98788 9.06394 6.80634 9.30905 7.65296 9.15676C8.5015 9.0038 9.19903 8.48359 9.61046 7.78927C9.00642 7.27861 8.18666 7.0316 7.33812 7.1839C6.51006 7.333 5.82854 7.83278 5.41387 8.50148C6.05892 7.37843 6.84858 6.3392 7.76303 5.41131C8.17834 6.08963 8.86757 6.59709 9.70454 6.74619C10.5537 6.89721 11.3729 6.64828 11.9763 6.13506C11.5635 5.44202 10.8648 4.92368 10.0162 4.77267C9.2617 4.63892 8.53157 4.8213 7.95501 5.22317C8.61859 4.57365 9.35384 3.99324 10.132 3.4685C10.7937 3.66368 11.5239 3.64 12.1932 3.32004C12.9758 2.94632 13.5018 2.26672 13.6983 1.5001C12.9579 1.18142 12.0851 1.17054 11.3025 1.54489C10.5864 1.88661 10.0981 2.48941 9.86775 3.17606C5.75687 5.97893 3.10951 10.6152 3.10951 15.6916C3.10951 15.8081 3.11399 15.9233 3.11719 16.0391C3.04551 15.4222 2.79146 14.815 2.35248 14.3158C1.76503 13.6477 0.972163 13.3163 0.199774 13.3336C0.130662 14.1507 0.387271 15.0127 0.974725 15.6808C1.56217 16.3488 2.35504 16.6803 3.12743 16.6631C3.1319 16.6055 3.1319 16.5478 3.13318 16.4896C3.19782 17.6703 3.40579 18.8221 3.73919 19.9279C3.52738 19.4243 3.18246 18.9687 2.71211 18.6308C1.99924 18.1182 1.1571 17.9826 0.407749 18.1822C0.511416 18.9949 0.942721 19.775 1.6556 20.2876C2.36783 20.7995 3.21061 20.9358 3.95997 20.7362C3.94844 20.6434 3.93053 20.5519 3.91069 20.4597C4.27992 21.5361 4.76947 22.5638 5.36651 23.5275C5.08815 23.1871 4.73491 22.9029 4.3132 22.7097C3.5229 22.3481 2.67116 22.3833 1.97044 22.7282C2.21617 23.5064 2.77803 24.186 3.56833 24.5482C4.35928 24.9091 5.21037 24.8746 5.91109 24.5296C5.86182 24.3722 5.79591 24.2212 5.72167 24.0747C6.31552 24.9475 6.9996 25.7602 7.76175 26.5006C7.42579 26.2593 7.03352 26.086 6.60157 26.0098C5.75239 25.8587 4.93328 26.1077 4.33048 26.6203C4.74323 27.314 5.44139 27.8323 6.29056 27.9833C7.13975 28.1337 7.95885 27.8847 8.56164 27.3722C8.47848 27.232 8.38056 27.1015 8.27497 26.9774C10.2664 28.7455 12.7301 30.0349 15.4869 30.6204L15.5593 30.2377Z" fill="white"/>
<path d="M64.933 5.10115C65.4155 4.46122 65.6497 3.59093 65.5083 2.68992C65.3656 1.78826 64.8773 1.04723 64.224 0.608887C63.7408 1.24945 63.5066 2.1191 63.6487 3.02011C63.7907 3.92177 64.2797 4.6628 64.933 5.10115Z" fill="white"/>
<path d="M68.626 6.29767C68.7699 5.39666 68.5371 4.52637 68.0552 3.88452C67.4018 4.32159 66.9116 5.06198 66.7675 5.96299C66.6236 6.864 66.8565 7.7343 67.3377 8.37551C67.9918 7.93844 68.4819 7.19868 68.626 6.29767Z" fill="white"/>
<path d="M68.9401 12.3432C69.6683 12.0687 70.298 11.4594 70.6237 10.6128C70.9488 9.76681 70.9001 8.86389 70.5623 8.12671C69.834 8.40122 69.2043 9.01047 68.8786 9.85702C68.5535 10.7031 68.6021 11.606 68.9401 12.3432Z" fill="white"/>
<path d="M69.6659 18.6284C69.1956 18.9663 68.8513 19.4219 68.6388 19.9256C68.9729 18.8198 69.1808 17.6679 69.2448 16.4872C69.2468 16.5455 69.2461 16.603 69.2512 16.6607C70.023 16.678 70.8165 16.3464 71.404 15.6784C71.9914 15.0103 72.248 14.1483 72.1789 13.3311C71.4065 13.3138 70.6137 13.6453 70.0262 14.3134C69.5872 14.8126 69.3332 15.4198 69.2615 16.0367C69.2641 15.9209 69.2692 15.8057 69.2692 15.6893C69.2692 10.6127 66.6212 5.97648 62.5103 3.17361C62.2799 2.48698 61.7917 1.88417 61.0756 1.54245C60.2929 1.1681 59.4201 1.17898 58.6797 1.49765C58.8762 2.26429 59.4022 2.94388 60.1848 3.3176C60.8541 3.63756 61.5844 3.66124 62.2466 3.46606C63.0248 3.9908 63.76 4.57121 64.4231 5.22074C63.8465 4.81886 63.1163 4.63648 62.3619 4.77023C61.5133 4.92125 60.8152 5.43959 60.4024 6.13262C61.0052 6.64585 61.8243 6.89477 62.6735 6.74375C63.5105 6.59465 64.2004 6.08719 64.615 5.40887C65.5294 6.33676 66.3198 7.376 66.9648 8.49905C66.5495 7.83034 65.8679 7.33056 65.0405 7.18146C64.192 7.02916 63.3716 7.27617 62.7682 7.78683C63.1797 8.48115 63.8766 9.00137 64.7257 9.15433C65.5723 9.30662 66.3902 9.06159 66.9942 8.55213C67.6341 9.67715 68.1269 10.8847 68.4507 12.1492C68.1576 11.4932 67.6297 10.9391 66.9284 10.6358C66.1316 10.2902 65.2812 10.342 64.5862 10.701C64.846 11.4734 65.4194 12.1428 66.2167 12.4877C67.0006 12.8275 67.8357 12.7814 68.5243 12.4378C68.7706 13.4898 68.9025 14.5796 68.9025 15.6893C68.9025 15.9836 68.882 16.2742 68.8641 16.5653C68.8743 15.7526 68.5633 14.9207 67.9401 14.3032C67.311 13.6792 66.4983 13.4067 65.7285 13.4802C65.7125 14.3 66.0241 15.1421 66.6538 15.7654C67.2822 16.3893 68.0943 16.6619 68.8628 16.5883C68.7777 17.9226 68.5147 19.221 68.0789 20.4516C68.228 19.6868 68.093 18.8447 67.6348 18.1254C67.1516 17.3684 66.417 16.9109 65.6511 16.8008C65.4629 17.5962 65.5909 18.4908 66.074 19.2479C66.5527 19.9979 67.2796 20.4535 68.0386 20.5687C67.5951 21.7896 66.9923 22.9466 66.2487 24.0096C66.4682 23.3267 66.456 22.5428 66.1578 21.8088C65.818 20.9693 65.1769 20.3729 64.4441 20.1124C64.1184 20.8559 64.0865 21.7602 64.4268 22.5998C64.7551 23.4086 65.3637 23.9897 66.0632 24.2636C65.3842 25.1921 64.601 26.0477 63.7236 26.8067C64.0877 26.2 64.2509 25.4372 64.1267 24.6514C63.9847 23.7503 63.4964 23.0087 62.8437 22.5703C62.3605 23.2103 62.1257 24.08 62.2678 24.9816C62.4047 25.8487 62.8635 26.5653 63.4797 27.0089C61.6054 28.5645 59.3375 29.701 56.8195 30.2354L56.8911 30.618C59.6479 30.0325 62.1116 28.743 64.1031 26.9749C63.9975 27.0991 63.9002 27.2296 63.8164 27.3697C64.4199 27.8824 65.2389 28.1313 66.0881 27.9809C66.9367 27.8299 67.6348 27.3115 68.0482 26.6178C67.4454 26.1053 66.6256 25.8564 65.7771 26.0073C65.3451 26.0835 64.9528 26.257 64.6169 26.4982C65.3791 25.7578 66.0625 24.9451 66.657 24.0722C66.5821 24.2188 66.5162 24.3698 66.4669 24.5273C67.1683 24.8722 68.0194 24.9067 68.8097 24.5458C69.6006 24.1836 70.1625 23.504 70.4075 22.7259C69.7069 22.3809 68.8557 22.3457 68.0648 22.7073C67.6438 22.9005 67.2899 23.1847 67.0115 23.5251C67.6086 22.5614 68.0987 21.5337 68.468 20.4573C68.4475 20.5494 68.4302 20.641 68.4187 20.7337C69.168 20.9334 70.0102 20.7971 70.7231 20.2852C71.436 19.7726 71.8672 18.9925 71.971 18.1798C71.2209 17.9802 70.3788 18.1159 69.6659 18.6284Z" fill="white"/>
<path d="M25.195 8.50085H28.2274C29.6302 8.50085 30.4534 7.88765 30.4534 6.87965C30.4534 6.06485 29.9998 5.66165 29.2858 5.42645C29.8066 5.19965 30.193 4.79645 30.193 4.11605C30.193 3.69605 30.0502 3.38525 29.815 3.15005C29.4706 2.80565 28.9498 2.62085 28.2106 2.62085H25.195V8.50085ZM26.7826 7.19045V6.10685H28.0258C28.5718 6.10685 28.8238 6.31685 28.8238 6.63605C28.8238 6.99725 28.5382 7.19045 28.0426 7.19045H26.7826ZM26.7826 4.96445V3.93125H27.841C28.3282 3.93125 28.5802 4.11605 28.5802 4.43525C28.5802 4.79645 28.303 4.96445 27.8074 4.96445H26.7826Z" fill="white"/>
<path d="M31.1996 8.50085H35.9708V7.11485H32.8124V6.18245H35.6348V4.89725H32.8124V4.00685H35.9288V2.62085H31.1996V8.50085Z" fill="white"/>
<path d="M39.1124 8.60162C40.5404 8.60162 41.4896 7.88762 41.4896 6.68642C41.4896 5.56922 40.6496 5.13242 39.2972 4.83842C38.4824 4.65362 38.2808 4.53602 38.2808 4.26722C38.2808 4.04042 38.474 3.87242 38.8688 3.87242C39.3896 3.87242 39.9776 4.07402 40.5152 4.45202L41.33 3.30122C40.6916 2.78882 39.9104 2.52002 38.9108 2.52002C37.4996 2.52002 36.6344 3.30962 36.6344 4.40162C36.6344 5.62802 37.6004 5.98082 38.852 6.26642C39.65 6.45122 39.8432 6.58562 39.8432 6.82922C39.8432 7.09802 39.608 7.24922 39.1712 7.24922C38.4908 7.24922 37.844 7.00562 37.2644 6.54362L36.3572 7.62722C37.0796 8.27402 38.0708 8.60162 39.1124 8.60162Z" fill="white"/>
<path d="M43.5545 8.50085H45.1841V4.04885H46.9481V2.62085H41.7905V4.04885H43.5545V8.50085Z" fill="white"/>
<path d="M14.7353 19.3201C16.7363 19.3201 17.8852 18.4697 18.7372 17.3147L16.8525 15.9947C16.3102 16.642 15.7552 17.0735 14.8128 17.0735C13.5477 17.0735 12.6569 16.0327 12.6569 14.7001C12.6569 13.3801 13.5477 12.3267 14.8128 12.3267C15.6777 12.3267 16.2845 12.7201 16.8008 13.3547L18.6339 11.9586C17.8336 10.867 16.6846 10.0801 14.8386 10.0801C12.1018 10.0801 10.075 12.1109 10.075 14.7001C10.075 17.3782 12.1534 19.3201 14.7353 19.3201Z" fill="white"/>
<path d="M19.0918 19.1424H21.7253L22.3707 17.5558H25.8563L26.5147 19.1424H29.1999L25.3528 10.1943H22.9387L19.0918 19.1424ZM23.1066 15.6393L24.1264 13.1136L25.1334 15.6393H23.1066Z" fill="white"/>
<path d="M33.5006 19.2947C35.6952 19.2947 37.154 18.2158 37.154 16.4008C37.154 14.7128 35.863 14.0528 33.7846 13.6085C32.5324 13.3293 32.2227 13.1516 32.2227 12.7455C32.2227 12.4028 32.5195 12.1489 33.1263 12.1489C33.9267 12.1489 34.8303 12.4535 35.6565 13.0247L36.9088 11.2858C35.9276 10.5116 34.727 10.1055 33.1908 10.1055C31.022 10.1055 29.6924 11.2985 29.6924 12.9485C29.6924 14.8017 31.1769 15.3347 33.1005 15.7662C34.3269 16.0454 34.6238 16.2486 34.6238 16.6166C34.6238 17.0228 34.2623 17.2513 33.591 17.2513C32.5454 17.2513 31.5513 16.8832 30.6606 16.1851L29.2664 17.8224C30.3766 18.7997 31.8999 19.2947 33.5006 19.2947Z" fill="white"/>
<path d="M38.4236 19.1425H40.941V10.2578H38.4236V19.1425Z" fill="white"/>
<path d="M42.5952 19.1425H45.0738V14.2686L48.9337 19.1425H51.1284V10.2578H48.6497V14.954L44.9318 10.2578H42.5952V19.1425Z" fill="white"/>
<path d="M57.2753 19.3201C60.0636 19.3201 62.155 17.2512 62.155 14.7001C62.155 12.1235 60.0895 10.0801 57.3011 10.0801C54.5127 10.0801 52.4213 12.1489 52.4213 14.7001C52.4213 17.2766 54.4868 19.3201 57.2753 19.3201ZM57.3011 17.099C55.9327 17.099 54.9903 15.982 54.9903 14.7001C54.9903 13.3928 55.9068 12.3012 57.2753 12.3012C58.6566 12.3012 59.599 13.4182 59.599 14.7001C59.599 16.0074 58.6823 17.099 57.3011 17.099Z" fill="white"/>
<path d="M21.835 28.4348H26.988V27.683H23.0784L25.0491 25.9496C26.3347 24.8218 26.9143 24.1744 26.9143 23.1093C26.9143 21.8981 25.9553 21.021 24.6275 21.021C23.3313 21.021 22.6358 21.5953 21.972 22.5768L22.5831 23.0154C23.1732 22.2009 23.7213 21.7624 24.5643 21.7624C25.3652 21.7624 26.0502 22.3054 26.0502 23.1616C26.0502 23.8925 25.6497 24.4668 24.5116 25.4588L21.835 27.7978V28.4348Z" fill="white"/>
<path d="M31.3997 28.56C33.2965 28.56 34.5189 26.8267 34.5189 24.78C34.5189 22.7125 33.3175 21 31.4207 21C29.5238 21 28.2909 22.7333 28.2909 24.78C28.2909 26.8475 29.4923 28.56 31.3997 28.56ZM31.4207 27.8082C30.0402 27.8082 29.155 26.3776 29.155 24.78C29.155 23.1511 30.0192 21.7518 31.3997 21.7518C32.7696 21.7518 33.6548 23.1824 33.6548 24.78C33.6548 26.3985 32.8012 27.8082 31.4207 27.8082Z" fill="white"/>
<path d="M35.5735 28.4348H40.7266V27.683H36.8169L38.7876 25.9496C40.0732 24.8218 40.6528 24.1744 40.6528 23.1093C40.6528 21.8981 39.6939 21.021 38.3661 21.021C37.0699 21.021 36.3743 21.5953 35.7105 22.5768L36.3217 23.0154C36.9118 22.2009 37.4598 21.7624 38.3028 21.7624C39.1037 21.7624 39.7887 22.3054 39.7887 23.1616C39.7887 23.8925 39.3883 24.4668 38.2501 25.4588L35.5735 27.7978V28.4348Z" fill="white"/>
<path d="M41.8819 28.4348H47.035V27.683H43.1253L45.096 25.9496C46.3816 24.8218 46.9612 24.1744 46.9612 23.1093C46.9612 21.8981 46.0023 21.021 44.6745 21.021C43.3783 21.021 42.6828 21.5953 42.0189 22.5768L42.6301 23.0154C43.2202 22.2009 43.7682 21.7624 44.6112 21.7624C45.4121 21.7624 46.0971 22.3054 46.0971 23.1616C46.0971 23.8925 45.6967 24.4668 44.5586 25.4588L41.8819 27.7978V28.4348Z" fill="white"/>
</g>
</g>
</g>
</g>
</g>
</g>
<defs>
<clipPath id="clip0_0_4793">
<rect width="72.23" height="40" fill="white"/>
</clipPath>
<clipPath id="clip1_0_4793">
<rect width="72.23" height="42" fill="white"/>
</clipPath>
<clipPath id="clip2_0_4793">
<rect width="72.23" height="42" fill="white"/>
</clipPath>
<clipPath id="clip3_0_4793">
<rect width="72.24" height="42" fill="white" transform="translate(-0.00500488)"/>
</clipPath>
</defs>
</svg>
