<svg width="80" height="24" viewBox="0 0 80 24" fill="none" xmlns="http://www.w3.org/2000/svg">
    <g clip-path="url(#clip0_188_2447)">
        <g clip-path="url(#clip1_188_2447)">
            <g clip-path="url(#clip2_188_2447)">
                <path d="M16.6594 10.2857C15.6044 14.6373 11.1209 17.4065 6.63738 16.2197C2.28573 15.1648 -0.351629 10.6813 0.703316 6.19775C1.75826 1.8461 6.24178 -0.791266 10.7253 0.263679C15.0769 1.31862 17.8462 5.80214 16.6594 10.2857ZM12.3077 7.12082C12.4396 5.93401 11.6484 5.40654 10.4616 5.01093L10.8572 3.56038L9.93409 3.29665L9.67035 4.7472C9.40661 4.61533 9.14288 4.61533 8.87914 4.61533L9.27474 3.16478L8.35167 2.90104L7.95606 4.35159C7.8242 4.35159 7.56046 4.21972 7.42859 4.21972L6.10991 3.95599L5.97804 4.87906L6.63738 5.01093C6.90112 5.1428 7.03299 5.40654 7.03299 5.5384L6.63738 7.25269L5.97804 9.62632C5.97804 9.75819 5.84617 9.89005 5.58244 9.89005L4.9231 9.75819L4.39562 10.6813L5.58244 11.0769C5.84617 11.0769 6.10991 11.2087 6.24178 11.2087L5.84617 12.6593L6.76925 12.923L7.16485 11.4725C7.42859 11.4725 7.69233 11.6043 7.95606 11.6043L7.56046 13.0549L8.48354 13.3186L8.87914 11.8681C10.3297 12.1318 11.5165 11.9999 12.044 10.5494C12.4396 9.49445 12.044 8.83511 11.1209 8.4395C11.7802 8.30764 12.1758 7.91203 12.3077 7.12082ZM10.3297 10.0219C9.93409 11.0769 8.08793 10.5494 7.42859 10.4175L7.95606 8.30764C8.6154 8.57137 10.5934 8.83511 10.3297 10.0219ZM10.5934 7.12082C10.3297 8.0439 8.74727 7.51643 8.2198 7.38456L8.6154 5.67027C9.14288 5.80214 10.8572 6.06588 10.5934 7.12082Z" fill="white"/>
                <path d="M24.7033 5.01099C25.3627 5.01099 25.8902 5.14286 26.4176 5.40659C26.8132 5.53846 27.2088 5.93407 27.6044 6.32967C27.8682 6.72528 28.1319 7.25275 28.2638 7.78022C28.3956 8.30769 28.5275 8.83517 28.5275 9.49451C28.5275 10.4176 28.3956 11.3407 28 12.2637C27.6044 13.0549 27.2088 13.8462 26.5495 14.5055C25.8902 15.033 25.2308 15.5604 24.4396 15.956C23.5165 16.3516 22.5935 16.4835 21.6704 16.4835C21.5385 16.4835 21.2748 16.4835 21.011 16.4835C20.7473 16.4835 20.3517 16.4835 19.9561 16.3516C19.5605 16.3516 19.033 16.2198 18.6374 16.2198C18.2418 16.0879 17.7143 15.956 17.3187 15.6923L21.011 0.527473L24.1759 0L22.8572 5.40659C23.2528 5.27473 23.5165 5.14286 23.7803 5.14286C24.044 5.01099 24.3077 5.01099 24.7033 5.01099ZM21.9341 13.978C22.4616 13.978 22.8572 13.8462 23.2528 13.5824C23.7803 13.3187 24.1759 13.0549 24.4396 12.6593C24.7033 12.2637 24.9671 11.7363 25.2308 11.3407C25.3627 10.8132 25.4945 10.2857 25.4945 9.75824C25.4945 9.0989 25.3627 8.57143 25.0989 8.17582C24.8352 7.78022 24.4396 7.64835 23.9121 7.64835C23.6484 7.64835 23.3847 7.64835 23.1209 7.64835C22.8572 7.78022 22.4616 7.91209 22.1978 8.17582L20.8792 13.8462H21.1429C21.1429 13.978 21.2748 13.978 21.2748 13.978H21.5385H21.9341Z" fill="white"/>
                <path d="M31.956 16.2198H28.7912L31.4286 5.27478H34.5934L31.956 16.2198ZM33.4066 3.9561C33.011 3.9561 32.6154 3.82423 32.2198 3.5605C31.8242 3.29676 31.6923 2.90116 31.6923 2.37368C31.6923 1.97808 31.8242 1.71434 31.8242 1.45061C31.956 1.18687 32.2198 1.055 32.3516 0.791267C32.6154 0.659398 32.7472 0.52753 33.011 0.395662C33.2747 0.263794 33.5385 0.263794 33.8022 0.263794C34.3297 0.263794 34.7253 0.395662 34.989 0.659398C35.3846 0.923135 35.5165 1.18687 35.5165 1.84621C35.5165 2.10995 35.5165 2.37368 35.3846 2.63742C35.2527 2.90116 35.1209 3.03302 34.8571 3.29676C34.7253 3.42863 34.4615 3.5605 34.1978 3.69237C33.9341 3.82423 33.6703 3.9561 33.4066 3.9561Z" fill="white"/>
                <path d="M37.2308 2.5055L40.5275 1.97803L39.7363 5.27473H43.1649L42.5055 7.78022H39.077L38.1539 11.6044C38.022 12 38.022 12.2637 38.022 12.5275C38.022 12.7912 38.022 13.0549 38.1539 13.1868C38.1539 13.4506 38.2857 13.5824 38.5495 13.7143C38.8132 13.8462 39.077 13.8462 39.4726 13.8462H40.5275C40.7912 13.7143 41.055 13.5824 41.4506 13.5824L41.7143 15.956C41.1868 16.0879 40.7912 16.2198 40.2638 16.3517C39.8682 16.4835 39.2088 16.4835 38.5495 16.4835C37.6264 16.4835 36.8352 16.3517 36.3077 16.0879C35.7803 15.8242 35.3847 15.4286 35.2528 14.9011C34.989 14.3736 34.8572 13.8462 34.8572 13.1868C34.989 12.5275 34.989 11.8681 35.2528 11.2088L37.2308 2.5055Z" fill="white"/>
                <path d="M43.033 11.8682C43.033 10.9451 43.1648 10.022 43.4286 9.09893C43.8242 8.30772 44.2198 7.64838 44.7472 6.98904C45.4066 6.3297 46.0659 5.80223 46.8571 5.53849C47.6483 5.14289 48.5714 4.87915 49.6264 4.87915C50.2857 4.87915 50.8132 5.01102 51.3407 5.14289C51.7363 5.27475 52.2637 5.40662 52.6593 5.53849L51.6044 8.04399C51.3407 7.91212 50.945 7.78025 50.6813 7.64838C50.4176 7.64838 50.022 7.51651 49.6264 7.51651C48.5714 7.51651 47.7802 7.91212 47.1209 8.70333C46.5934 9.36267 46.1978 10.2857 46.1978 11.4726C46.1978 12.2638 46.3297 12.7912 46.7253 13.1868C46.989 13.7143 47.5165 13.8462 48.4396 13.8462C48.8352 13.8462 49.2308 13.8462 49.6264 13.7143C49.8901 13.7143 50.2857 13.5824 50.5494 13.4506L50.8132 15.9561C50.4176 16.0879 50.022 16.2198 49.4945 16.3517C48.967 16.4835 48.4396 16.4835 47.7802 16.4835C46.989 16.4835 46.1978 16.3517 45.6703 16.0879C45.011 15.9561 44.4835 15.5605 44.0879 15.1649C43.6923 14.7693 43.4286 14.2418 43.2967 13.5824C43.1648 13.055 43.033 12.5275 43.033 11.8682Z" fill="white"/>
                <path d="M56.7473 16.4835C56.0879 16.4835 55.4286 16.3517 54.9011 16.2198C54.2418 15.9561 53.8462 15.6923 53.4506 15.2967C53.1868 14.9011 52.9231 14.3737 52.6594 13.8462C52.5275 13.3187 52.3956 12.6594 52.3956 12C52.3956 11.2088 52.5275 10.2857 52.7912 9.49454C53.055 8.70333 53.4506 7.91212 53.978 7.25278C54.5055 6.59344 55.1649 6.06596 55.9561 5.53849C56.7473 5.14289 57.6704 4.87915 58.5934 4.87915C59.3846 4.87915 59.9121 5.01102 60.5715 5.27475C61.0989 5.53849 61.4945 5.80223 61.8901 6.19783C62.2857 6.59344 62.5495 7.12091 62.6813 7.64838C62.8132 8.17585 62.9451 8.83519 62.9451 9.49454C62.9451 10.2857 62.8132 11.2088 62.5495 12C62.2857 12.7912 61.8901 13.5824 61.3627 14.2418C60.8352 14.9011 60.1758 15.4286 59.5165 15.8242C58.7253 16.3517 57.8022 16.4835 56.7473 16.4835ZM58.3297 7.51651C57.8022 7.51651 57.4066 7.64838 57.1429 7.91212C56.7473 8.17585 56.4835 8.57146 56.2198 8.96706C55.9561 9.36267 55.8242 9.75827 55.6923 10.2857C55.5605 10.8132 55.5605 11.2088 55.5605 11.6044C55.5605 12.3956 55.5605 12.9231 55.8242 13.3187C56.0879 13.7143 56.4835 13.8462 57.011 13.8462C57.5385 13.8462 57.9341 13.7143 58.3297 13.4506C58.5934 13.1868 58.8572 12.9231 59.1209 12.5275C59.3846 12.1319 59.5165 11.6044 59.6484 11.2088C59.7802 10.6813 59.9121 10.1539 59.9121 9.75827C59.9121 9.09893 59.7802 8.57146 59.5165 8.17585C59.2528 7.78025 58.8572 7.51651 58.3297 7.51651Z" fill="white"/>
                <path d="M66.3736 16.2198H63.2088L65.8462 5.27478H69.011L66.3736 16.2198ZM67.8242 3.9561C67.4286 3.9561 67.033 3.82423 66.6374 3.5605C66.3736 3.29676 66.1099 2.90116 66.1099 2.37368C66.1099 1.97808 66.2418 1.71434 66.3736 1.45061C66.3736 1.18687 66.6374 1.055 66.7692 0.791267C67.033 0.659398 67.1648 0.52753 67.4286 0.395662C67.6923 0.263794 67.9561 0.263794 68.3517 0.263794C68.7473 0.263794 69.1429 0.395662 69.4066 0.659398C69.8022 0.923135 69.9341 1.18687 69.9341 1.84621C69.9341 2.10995 69.9341 2.37368 69.8022 2.63742C69.6703 2.90116 69.5385 3.03302 69.2747 3.29676C69.1429 3.42863 68.8791 3.5605 68.6154 3.69237C68.3517 3.82423 68.0879 3.9561 67.8242 3.9561Z" fill="white"/>
                <path d="M71.2528 5.67033C71.3846 5.67033 71.6484 5.53846 71.9121 5.53846C72.3077 5.40659 72.5715 5.27472 72.9671 5.27472C73.2308 5.14285 73.6264 5.14285 74.1539 5.01099H75.6044C77.1868 5.01099 78.3737 5.40659 79.033 6.46154C79.5605 7.38461 79.6923 8.70329 79.2967 10.2857L77.8462 16.2198H74.8132L76.1319 10.4176C76.2638 10.022 76.2638 9.75824 76.3956 9.36263C76.3956 8.96703 76.3956 8.70329 76.3956 8.43956C76.2638 8.17582 76.1319 8.04395 76 7.78022C75.7363 7.64835 75.4726 7.64835 75.077 7.64835C74.6814 7.64835 74.2857 7.64835 73.7583 7.78022L71.7803 16.2198H68.6154L71.2528 5.67033Z" fill="white"/>
                <path d="M33.6704 22.8132L33.011 23.8681H32.3517C32.8792 23.0769 33.2748 22.2857 33.8022 21.6263C34.1978 20.8351 34.5934 20.1758 35.1209 19.6483H35.6484C35.7803 19.9121 35.7803 20.1758 35.7803 20.5714C35.9121 20.8351 35.9121 21.2307 35.9121 21.4945C36.044 21.8901 36.044 22.2857 36.1759 22.6813C36.1759 23.0769 36.1759 23.4725 36.3077 23.8681H35.6484C35.6484 23.7362 35.6484 23.4725 35.6484 23.3406C35.5165 23.0769 35.5165 22.945 35.5165 22.8132H33.6704ZM35.5165 22.2857C35.5165 22.0219 35.3847 21.6263 35.3847 21.3626C35.3847 20.967 35.2528 20.5714 35.2528 20.3077C35.1209 20.4395 34.8572 20.7033 34.7253 21.0989C34.4616 21.3626 34.1978 21.8901 33.9341 22.2857H35.5165Z" fill="white"/>
                <path d="M38.4176 24C38.1539 24 38.022 24 37.7583 23.8681C37.4945 23.7363 37.3627 23.6044 37.2308 23.4725C37.0989 23.3407 36.9671 23.2088 36.9671 22.9451C36.8352 22.8132 36.8352 22.5494 36.8352 22.2857C36.8352 21.8901 36.8352 21.6264 36.9671 21.2308C37.0989 20.967 37.3627 20.5714 37.4945 20.3077C37.7583 20.044 38.022 19.9121 38.2858 19.7802C38.5495 19.5165 38.9451 19.5165 39.3407 19.5165C39.6044 19.5165 39.8682 19.5165 40.1319 19.6483C40.2638 19.6483 40.3956 19.7802 40.5275 19.7802L40.2638 20.3077C40.1319 20.1758 40 20.1758 39.8682 20.044C39.7363 20.044 39.4726 20.044 39.3407 20.044C38.9451 20.044 38.8132 20.044 38.5495 20.1758C38.2858 20.3077 38.1539 20.5714 37.8902 20.7033C37.7583 20.967 37.6264 21.2308 37.6264 21.4945C37.4945 21.7582 37.4945 22.022 37.4945 22.2857C37.4945 23.0769 37.7583 23.4725 38.5495 23.4725H38.9451C39.077 23.3407 39.077 23.3407 39.2088 23.3407C39.3407 23.3407 39.3407 23.3407 39.4726 23.2088H39.6044L39.7363 23.7363C39.7363 23.7363 39.6044 23.7363 39.4726 23.7363C39.4726 23.8681 39.3407 23.8681 39.2088 23.8681C39.077 23.8681 39.077 23.8681 38.9451 24C38.8132 24 38.6814 24 38.4176 24Z" fill="white"/>
                <path d="M41.978 24C41.7143 24 41.4506 24 41.1868 23.8681C41.055 23.7363 40.9231 23.6044 40.7912 23.4725C40.6594 23.3407 40.5275 23.2088 40.3956 22.9451C40.3956 22.8132 40.3956 22.5494 40.3956 22.2857C40.3956 21.8901 40.3956 21.6264 40.5275 21.2308C40.6594 20.967 40.7912 20.5714 41.055 20.3077C41.1868 20.044 41.4506 19.9121 41.8462 19.7802C42.1099 19.5165 42.5055 19.5165 42.7693 19.5165C43.1649 19.5165 43.4286 19.5165 43.5605 19.6483C43.8242 19.6483 43.9561 19.7802 43.9561 19.7802L43.6923 20.3077C43.6923 20.1758 43.5605 20.1758 43.4286 20.044C43.1649 20.044 43.033 20.044 42.7693 20.044C42.5055 20.044 42.2418 20.044 41.978 20.1758C41.8462 20.3077 41.5824 20.5714 41.4506 20.7033C41.3187 20.967 41.1868 21.2308 41.055 21.4945C41.055 21.7582 40.9231 22.022 40.9231 22.2857C40.9231 23.0769 41.3187 23.4725 41.978 23.4725H42.3737C42.5055 23.3407 42.6374 23.3407 42.7693 23.3407C42.7693 23.3407 42.9011 23.3407 42.9011 23.2088H43.1649V23.7363C43.1649 23.7363 43.1649 23.7363 43.033 23.7363C42.9011 23.8681 42.9011 23.8681 42.7693 23.8681C42.6374 23.8681 42.5055 23.8681 42.3737 24C42.2418 24 42.1099 24 41.978 24Z" fill="white"/>
                <path d="M43.6923 23.8681L44.6154 19.6483H47.2528L47.1209 20.0439H45.1429L44.8791 21.3626H46.5934L46.4616 21.8901H44.7473L44.3517 23.3406H46.4616L46.3297 23.8681H43.6923Z" fill="white"/>
                <path d="M48.9671 19.5165C49.4945 19.5165 49.8901 19.6483 50.1539 19.7802C50.4176 20.044 50.5495 20.3077 50.5495 20.7033C50.5495 20.967 50.4176 21.2308 50.4176 21.3626C50.2857 21.6264 50.1539 21.7582 49.8901 21.8901C49.7583 22.022 49.4945 22.1538 49.2308 22.1538C48.9671 22.2857 48.5715 22.2857 48.3077 22.2857H47.9121L47.5165 23.8681H46.8572L47.9121 19.6483C48.044 19.6483 48.3077 19.5165 48.4396 19.5165H48.9671ZM48.9671 20.044C48.7033 20.044 48.4396 20.044 48.4396 20.044L48.044 21.7582H48.4396H48.9671C49.0989 21.7582 49.2308 21.6264 49.3627 21.6264L49.7583 21.2308C49.8901 21.0989 49.8901 20.967 49.8901 20.7033C49.8901 20.4396 49.7583 20.3077 49.6264 20.1758C49.4945 20.044 49.2308 20.044 48.9671 20.044Z" fill="white"/>
                <path d="M54.2418 19.6483L54.1099 20.0439H52.7912L51.8681 23.8681H51.2088L52.1319 20.0439H50.9451V19.6483H54.2418Z" fill="white"/>
                <path d="M53.7143 23.8681L54.6374 19.6483H57.2747L57.1429 20.0439H55.1648L54.9011 21.3626H56.6154L56.4835 21.8901H54.7692L54.3736 23.3406H56.4835L56.3517 23.8681H53.7143Z" fill="white"/>
                <path d="M58.989 19.5165C59.6484 19.5165 60.1759 19.6483 60.4396 20.044C60.7033 20.3077 60.9671 20.7033 60.9671 21.2308C60.9671 21.6264 60.8352 21.8901 60.7033 22.2857C60.5715 22.5494 60.4396 22.8132 60.1759 23.0769C60.044 23.3407 59.6484 23.6044 59.3846 23.7363C58.989 23.8681 58.4616 23.8681 58.066 23.8681C57.8022 23.8681 57.6704 23.8681 57.4066 23.8681C57.2748 23.8681 57.011 23.8681 56.8792 23.8681L57.9341 19.6483C58.066 19.6483 58.3297 19.5165 58.4616 19.5165H58.989ZM58.989 20.044C58.5934 20.044 58.4616 20.044 58.4616 20.044L57.6704 23.3407C57.6704 23.3407 57.6704 23.3407 57.8022 23.4725H58.1978C58.4616 23.4725 58.7253 23.3407 58.989 23.2088C59.2528 23.2088 59.5165 22.9451 59.6484 22.8132C59.9121 22.5494 60.044 22.4176 60.1759 22.1538C60.1759 21.8901 60.3077 21.4945 60.3077 21.2308C60.3077 20.8352 60.1759 20.5714 59.9121 20.3077C59.7802 20.1758 59.3846 20.044 58.989 20.044Z" fill="white"/>
                <path d="M65.5825 23.8681H64.9231L65.4506 21.8901H63.4726L62.9451 23.8681H62.2858L63.3407 19.6483H64.0001L63.6044 21.3626H65.5825L65.9781 19.6483H66.5055L65.5825 23.8681Z" fill="white"/>
                <path d="M66.5055 23.8681L67.5604 19.6483H70.0659L69.9341 20.0439H67.956L67.6923 21.3626H69.4066L69.2747 21.8901H67.5604L67.1648 23.3406H69.2747L69.1429 23.8681H66.5055Z" fill="white"/>
                <path d="M71.9121 19.5165C72.3077 19.5165 72.7033 19.6483 72.9671 19.7802C73.2308 20.044 73.3627 20.3077 73.3627 20.7033C73.3627 20.967 73.2308 21.3626 73.0989 21.4945C72.8352 21.7582 72.5715 22.022 72.1759 22.022C72.1759 22.1538 72.3077 22.2857 72.3077 22.4176C72.4396 22.5494 72.4396 22.6813 72.5715 22.8132C72.5715 23.0769 72.7033 23.2088 72.7033 23.3407C72.8352 23.6044 72.8352 23.7363 72.8352 23.8681H72.3077C72.1759 23.7363 72.1759 23.6044 72.044 23.3407C72.044 23.2088 72.044 23.0769 71.9121 22.9451C71.9121 22.8132 71.7803 22.6813 71.7803 22.5494C71.6484 22.4176 71.6484 22.2857 71.5165 22.1538H71.3847H71.2528H70.7253L70.3297 23.8681H69.8022L70.7253 19.6483C70.9891 19.6483 71.1209 19.5165 71.2528 19.5165H71.9121ZM71.7803 20.044C71.5165 20.044 71.3847 20.044 71.2528 20.044L70.8572 21.7582H71.2528C71.3847 21.7582 71.5165 21.6264 71.7803 21.6264C71.9121 21.6264 72.044 21.6264 72.1759 21.4945C72.4396 21.4945 72.5715 21.3626 72.5715 21.2308C72.7033 21.0989 72.7033 20.967 72.7033 20.7033C72.7033 20.4396 72.7033 20.3077 72.4396 20.1758C72.3077 20.044 72.044 20.044 71.7803 20.044Z" fill="white"/>
                <path d="M73.3627 23.8681L74.4176 19.6483H76.9231V20.0439H74.9451L74.5495 21.3626H76.3956L76.2638 21.8901H74.5495L74.1539 23.3406H76.2638L76.1319 23.8681H73.3627Z" fill="white"/>
            </g>
        </g>
    </g>
    <defs>
        <clipPath id="clip0_188_2447">
            <rect width="79" height="24" fill="white" transform="translate(0.5)"/>
        </clipPath>
        <clipPath id="clip1_188_2447">
            <rect width="79" height="24" fill="white" transform="translate(0.5)"/>
        </clipPath>
        <clipPath id="clip2_188_2447">
            <rect width="79.1209" height="24" fill="white" transform="translate(0.439575)"/>
        </clipPath>
    </defs>
</svg>
