<svg xmlns="http://www.w3.org/2000/svg" width="50" height="50" viewBox="0 0 50 50" fill="none">
    <g clip-path="url(#clip0)">
        <path d="M25.1999 11.7C18.1999 11.7 12.3999 17.4 12.3999 24.5C12.3999 31.6 18.0999 37.2999 25.1999 37.2999C32.2999 37.2999 37.9999 31.5 37.9999 24.5C37.9999 17.5 32.1999 11.7 25.1999 11.7ZM25.1999 32.7C20.6999 32.7 16.9999 29 16.9999 24.5C16.9999 20 20.6999 16.2999 25.1999 16.2999C29.6999 16.2999 33.3999 20 33.3999 24.5C33.3999 29 29.6999 32.7 25.1999 32.7Z" fill="white"/>
        <path d="M38.5001 14.3C40.1017 14.3 41.4001 13.0016 41.4001 11.4C41.4001 9.79837 40.1017 8.5 38.5001 8.5C36.8985 8.5 35.6001 9.79837 35.6001 11.4C35.6001 13.0016 36.8985 14.3 38.5001 14.3Z" fill="white"/>
        <path d="M45.9999 3.90005C43.3999 1.20005 39.6999 -0.199951 35.4999 -0.199951H14.8999C6.1999 -0.199951 0.399902 5.60005 0.399902 14.3V34.8C0.399902 39.1 1.7999 42.8 4.5999 45.5C7.2999 48.1 10.8999 49.4001 14.9999 49.4001H35.3999C39.6999 49.4001 43.2999 48 45.8999 45.5C48.5999 42.9 49.9999 39.2001 49.9999 34.9001V14.3C49.9999 10.1 48.5999 6.50005 45.9999 3.90005ZM45.3999 34.9001C45.3999 38.0001 44.4999 40.5001 42.6999 42.2001C40.8999 43.9001 38.3999 44.8 35.3999 44.8H14.9999C11.9999 44.8 9.4999 43.9001 7.6999 42.2001C5.8999 40.4001 4.9999 37.9 4.9999 34.8V14.3C4.9999 11.3 5.8999 8.80005 7.6999 7.00005C9.3999 5.30005 11.9999 4.40005 14.9999 4.40005H35.5999C38.5999 4.40005 41.0999 5.30005 42.8999 7.10005C44.5999 8.90005 45.5999 11.4 45.5999 14.3V34.9001H45.3999Z" fill="white"/>
    </g>
    <defs>
        <clipPath id="clip0">
            <rect width="50" height="50" fill="white"/>
        </clipPath>
    </defs>
</svg>