<svg width="41" height="24" viewBox="0 0 41 24" fill="none" xmlns="http://www.w3.org/2000/svg">
    <g clip-path="url(#clip0_188_2472)">
        <g clip-path="url(#clip1_188_2472)">
            <g clip-path="url(#clip2_188_2472)">
                <path fill-rule="evenodd" clip-rule="evenodd" d="M17.7376 12.0594H19.7574C19.8168 11.4653 19.698 10.9901 19.104 10.8713C18.2723 10.7525 17.8564 11.2871 17.7376 12.0594ZM25.8762 10.9901H25.8168C25.1634 10.9307 24.4505 10.6931 23.8564 11.0495C23.5 11.2871 23.5594 11.5842 23.8564 11.8812C24.4505 12.2376 24.9851 12.1188 25.5198 12.7129C26.3515 13.901 25.5792 15.2673 24.3317 15.6832C23.4406 15.8614 22.0148 15.802 21.1238 15.505L21.3614 14.2574C22.1337 14.4356 22.6089 14.5545 23.3812 14.495C24.1535 14.3762 24.3317 13.6634 23.5 13.3069C22.8465 13.0693 22.3713 12.8911 22.0148 12.3564C21.7178 11.703 21.8366 10.7525 22.2525 10.2178C23.0842 9.38614 24.9851 9.50495 26.0544 9.68317H26.1139H26.1733L25.8762 10.9901ZM28.4901 0C35.1436 0 40.4901 5.34653 40.4901 12C40.4901 18.6535 35.1436 24 28.4901 24C22.9653 24 18.3317 20.3168 16.9059 15.2079C17.9752 15.8614 19.6386 16.0396 20.7673 15.4455L21.0049 14.0792C19.9356 14.6733 17.4406 14.7921 17.5 13.2475V13.1287H21.1832C21.5396 11.1089 21.3614 9.74257 19.104 9.56436C18.3317 9.56436 17.6782 9.68317 17.0247 10.1584L16.9059 10.2772L16.7871 10.396L16.6683 10.5149C16.6683 10.5743 16.6089 10.6337 16.5495 10.6931C17.203 4.69307 22.3119 0 28.4901 0ZM29.203 15.7426H30.8069L31.3416 12.5347C31.401 12.297 31.4604 12.0594 31.5792 11.8218C31.8762 11.3465 32.5297 11.1683 33.0644 11.2277H33.1238V11.1683L33.1832 11.0495V10.9307L33.2426 10.7525C33.302 10.5149 33.3614 10.2772 33.4802 10.099L33.5396 9.9802L33.599 9.86139V9.80198L33.6584 9.74257L33.7178 9.68317H33.6584V9.62376C32.8267 9.50495 32.2327 9.9802 31.7574 10.6337L31.8762 9.68317H30.2723L29.203 15.7426ZM38.1139 10.2178C39.302 11.1683 39.4208 12.9505 38.7673 14.2574C37.698 16.396 34.1337 16.4554 33.1238 14.2574C32.5297 12.6535 33.0644 10.5743 34.7277 9.86139C35.797 9.44554 37.1634 9.50495 38.1139 10.2178ZM34.9059 13.4851C35.203 14.6139 36.4505 14.4356 36.9851 13.4851C37.1634 12.9505 37.2822 12.3564 37.2228 11.7624C36.9257 10.5743 35.6782 10.8119 35.1436 11.7624C34.9059 12.297 34.7871 12.8911 34.9059 13.4851ZM27.1832 8.31683H28.7871L28.4901 9.68317H29.5L29.2624 10.9901L28.2525 10.9307L27.7178 14.0792C27.7178 14.3762 27.7772 14.4356 28.0148 14.495C28.3119 14.5545 28.6683 14.5545 28.9059 14.4356H28.9653L28.7871 15.505C28.3119 15.802 27.4802 15.802 26.9455 15.7426C26.1733 15.5644 25.995 15.2673 26.1139 14.495L27.1832 8.31683ZM38.5297 15.4455H39.0049V15.505H38.8267V15.9208H38.7079V15.505H38.5297V15.4455ZM39.0643 15.4455H39.1832L39.3614 15.802L39.5396 15.4455H39.6584V15.9208H39.5396V15.5644L39.4208 15.9208H39.302L39.1832 15.5644V15.9208H39.0643V15.4455Z" fill="white"/>
                <path fill-rule="evenodd" clip-rule="evenodd" d="M12.5099 0C16.0148 0 19.1634 1.48515 21.3614 3.86139H19.5792L19.0445 4.57426H21.9554L22.4901 5.28713H18.5099L18.0346 6H22.9059C23.0247 6.23762 23.203 6.47525 23.3218 6.77228H17.6782L17.3218 7.42574H23.6188C23.7376 7.66337 23.797 7.90099 23.9158 8.19802H17.0841L16.9059 8.85149H24.094L24.2723 9.56436C24.094 9.56436 23.9158 9.56436 23.6782 9.62376H19.3416C19.2822 9.62376 19.2228 9.56436 19.1039 9.56436C18.9257 9.56436 18.8069 9.56436 18.6287 9.62376H16.6683L16.5495 10.2772H16.9059L16.7871 10.396L16.6683 10.5149C15.7772 11.5842 15.4802 13.4851 16.3119 14.6733C16.4901 14.9109 16.7277 15.0891 16.9653 15.2673L17.1436 15.7426H18.5099C18.9257 15.802 19.3416 15.802 19.7574 15.7426H22.5495C22.8465 15.802 23.203 15.802 23.5 15.7426H23.9158C23.797 16.0396 23.7376 16.3366 23.6188 16.5743H17.3812L17.7376 17.2277H23.3218C23.1436 17.5248 23.0247 17.8218 22.8465 18.0594H18.1535L18.5693 18.7723H22.4307C22.2525 19.0099 22.0742 19.3069 21.8366 19.5446H19.1039L19.6386 20.198H21.302C19.1039 22.5149 15.9554 24 12.5099 24C5.85642 24 0.509888 18.6535 0.509888 12C0.509888 5.34653 5.85642 0 12.5099 0ZM20.8861 10.2772H22.2525C22.0742 10.4554 21.9554 10.7525 21.896 10.9901H21.2426C21.1832 10.6931 21.0643 10.4554 20.8861 10.2772ZM24.4505 10.8713V10.9901H23.9158C24.094 10.9307 24.2723 10.8713 24.4505 10.8713ZM19.401 10.9901H18.3317C18.5099 10.8713 18.8069 10.8119 19.1039 10.8713C19.2228 10.8713 19.3416 10.9307 19.401 10.9901ZM17.797 11.6436H19.7574V12.0594H17.7376C17.7376 11.9406 17.797 11.7624 17.797 11.6436ZM21.302 11.6436H21.8366C21.8366 11.8812 21.896 12.1188 22.0148 12.3564H21.302C21.302 12.1188 21.302 11.8812 21.302 11.6436ZM23.6782 11.6436H24.5099V12V12.1188C24.3317 12.0594 24.094 12 23.8564 11.8812C23.797 11.8218 23.7376 11.7624 23.6782 11.6436ZM21.1832 13.0099H22.8465C23.0247 13.1287 23.2624 13.1881 23.5 13.3069C23.7376 13.4257 23.9158 13.5446 23.9752 13.7228H17.5594C17.5 13.5446 17.5 13.4257 17.5 13.2475V13.1287H21.1832C21.1832 13.1287 21.1832 13.0693 21.1832 13.0099ZM18.3911 14.3762H20.1138C19.5792 14.495 18.8663 14.5545 18.3911 14.3762ZM20.9455 14.3762H21.302L21.1832 15.0891H20.8267L20.9455 14.3762ZM21.896 14.3762H23.797C23.6782 14.4356 23.5594 14.495 23.3812 14.495C22.8465 14.5545 22.4307 14.495 21.896 14.3762ZM15.302 14.495L15.0643 15.7426H13.6386L13.698 15.6238V15.505V15.4455V15.3267L13.7574 15.2673V15.1485V15.0891L13.698 15.2079C12.9257 15.9208 11.6188 16.099 10.7277 15.4455C9.71781 14.495 10.1931 13.0099 11.2624 12.297L11.4406 12.2376C12.2723 11.8812 13.2228 11.9406 14.1138 11.9406L14.1733 11.8812C14.2921 11.3465 13.995 10.9901 13.4604 10.9307C12.9257 10.9307 11.5 10.9901 11.0841 11.2277L11.5 9.92079C12.2129 9.56436 13.5198 9.56436 14.3515 9.68317C15.302 9.92079 16.0742 10.396 15.896 11.5248L15.302 14.495ZM13.9356 13.0099C13.9356 12.9505 13.9356 12.9505 13.8168 12.9505C13.3416 12.8911 12.6881 13.0099 12.2723 13.3069C11.8564 13.6634 11.7376 14.3762 12.3317 14.495C12.8663 14.5545 13.401 14.4356 13.698 13.9604C13.8762 13.6634 13.8762 13.3663 13.9356 13.0099ZM3.36137 15.7426H1.81682L3.12375 8.31683H5.85642L6.09405 12.7723L7.93563 8.31683H10.7277L9.42078 15.7426H7.87622L8.82672 10.2178H8.76731L6.50989 15.7426H4.72771C4.6089 13.901 4.54949 12.0594 4.43068 10.2178H4.37127L3.36137 15.7426Z" fill="#E6E6E6"/>
                <path fill-rule="evenodd" clip-rule="evenodd" d="M38.5297 15.4456H39.005V15.505H38.8268V15.9208H38.7079V15.505H38.5297V15.4456Z" stroke="#FEFEFE" stroke-width="0.0316126"/>
                <path fill-rule="evenodd" clip-rule="evenodd" d="M39.0643 15.4456H39.1831L39.3614 15.802L39.5396 15.4456H39.6584V15.9208H39.5396V15.5644L39.4208 15.9208H39.302L39.1831 15.5644V15.9208H39.0643V15.4456Z" fill="#FEFEFE"/>
            </g>
        </g>
    </g>
    <defs>
        <clipPath id="clip0_188_2472">
            <rect width="40" height="24" fill="white" transform="translate(0.5)"/>
        </clipPath>
        <clipPath id="clip1_188_2472">
            <rect width="40" height="24" fill="white" transform="translate(0.5)"/>
        </clipPath>
        <clipPath id="clip2_188_2472">
            <rect width="40" height="24" fill="white" transform="translate(0.5)"/>
        </clipPath>
    </defs>
</svg>
