<svg width="31" height="24" viewBox="0 0 31 24" fill="none" xmlns="http://www.w3.org/2000/svg">
    <g clip-path="url(#clip0_188_2438)">
        <g clip-path="url(#clip1_188_2438)">
            <g clip-path="url(#clip2_188_2438)">
                <path d="M30.2407 23.6746V23.7368H30.2982C30.3111 23.7368 30.3217 23.7341 30.3294 23.7291C30.3374 23.7241 30.3411 23.7161 30.3411 23.7053C30.3411 23.6952 30.3374 23.6873 30.3294 23.6822C30.3217 23.6772 30.3111 23.6746 30.2982 23.6746H30.2407ZM30.2987 23.6309C30.3286 23.6309 30.3517 23.6375 30.3681 23.6507C30.3842 23.6642 30.3925 23.6822 30.3925 23.7053C30.3925 23.7246 30.3858 23.7408 30.3729 23.7532C30.3601 23.7657 30.3416 23.7733 30.3178 23.7763L30.3943 23.8645H30.3345L30.2635 23.7768H30.2407V23.8645H30.1906V23.6309H30.2987ZM30.2839 23.9447C30.3109 23.9447 30.3363 23.9394 30.3596 23.9293C30.3832 23.919 30.4036 23.905 30.4213 23.8872C30.4391 23.8698 30.4528 23.8488 30.4629 23.825C30.473 23.8012 30.478 23.7757 30.478 23.7485C30.478 23.7214 30.473 23.696 30.4629 23.6722C30.4528 23.6483 30.4391 23.6274 30.4213 23.6097C30.4036 23.5922 30.3832 23.5782 30.3596 23.5681C30.3363 23.558 30.3109 23.553 30.2839 23.553C30.2563 23.553 30.2304 23.558 30.2065 23.5681C30.1824 23.5782 30.1615 23.5922 30.1438 23.6097C30.1263 23.6274 30.1122 23.6483 30.1022 23.6722C30.0921 23.696 30.0871 23.7214 30.0871 23.7485C30.0871 23.7757 30.0921 23.8012 30.1022 23.825C30.1122 23.8488 30.1263 23.8698 30.1438 23.8872C30.1615 23.905 30.1824 23.919 30.2065 23.9293C30.2304 23.9394 30.2563 23.9447 30.2839 23.9447ZM30.2839 23.4968C30.3191 23.4968 30.3525 23.5035 30.3835 23.5167C30.4144 23.5297 30.4417 23.5477 30.4648 23.5707C30.4881 23.5935 30.5063 23.6203 30.5198 23.6507C30.5331 23.6814 30.5397 23.714 30.5397 23.7485C30.5397 23.7831 30.5331 23.8157 30.5198 23.8459C30.5063 23.8764 30.4881 23.9029 30.4648 23.9259C30.4417 23.9487 30.4144 23.9667 30.3835 23.9802C30.3525 23.9934 30.3191 24.0001 30.2839 24.0001C30.2476 24.0001 30.2139 23.9934 30.1824 23.9802C30.1509 23.9667 30.1236 23.9487 30.1006 23.9259C30.0775 23.9029 30.0595 23.8764 30.046 23.8459C30.0328 23.8157 30.0262 23.7831 30.0262 23.7485C30.0262 23.714 30.0328 23.6814 30.046 23.6507C30.0595 23.6203 30.0775 23.5935 30.1006 23.5707C30.1236 23.5477 30.1509 23.5297 30.1824 23.5167C30.2139 23.5035 30.2476 23.4968 30.2839 23.4968ZM6.66577 22.5979C6.66577 22.153 6.9571 21.7878 7.43357 21.7878C7.88911 21.7878 8.19634 22.1371 8.19634 22.5979C8.19634 23.0588 7.88911 23.4084 7.43357 23.4084C6.9571 23.4084 6.66577 23.0429 6.66577 22.5979ZM8.71545 23.8639V21.3322H8.16456V21.6394C7.98976 21.4117 7.72491 21.2686 7.36471 21.2686C6.65517 21.2686 6.09899 21.8248 6.09899 22.5979C6.09899 23.3713 6.65517 23.9275 7.36471 23.9275C7.72491 23.9275 7.98976 23.7842 8.16456 23.5567V23.8639H8.71545ZM27.3159 22.5979C27.3159 22.153 27.6073 21.7878 28.084 21.7878C28.5393 21.7878 28.8465 22.1371 28.8465 22.5979C28.8465 23.0588 28.5393 23.4084 28.084 23.4084C27.6073 23.4084 27.3159 23.0429 27.3159 22.5979ZM29.3656 23.8639V20.3152H28.8147V21.6394C28.6399 21.4117 28.3753 21.2686 28.0152 21.2686C27.3054 21.2686 26.7492 21.8248 26.7492 22.5979C26.7492 23.3713 27.3054 23.9275 28.0152 23.9275C28.3753 23.9275 28.6399 23.7842 28.8147 23.5567V23.8639H29.3656ZM15.5475 21.7613C15.9024 21.7613 16.1302 21.9837 16.1885 22.3755H14.8751C14.9334 22.01 15.1556 21.7613 15.5475 21.7613ZM15.5581 21.2686C14.8168 21.2686 14.2977 21.8089 14.2977 22.5979C14.2977 23.4031 14.838 23.9275 15.5952 23.9275C15.9766 23.9275 16.3262 23.8321 16.6334 23.5726L16.3633 23.1647C16.1514 23.3342 15.8813 23.4296 15.627 23.4296C15.2721 23.4296 14.949 23.2654 14.8698 22.8098H16.75C16.7553 22.741 16.7606 22.6721 16.7606 22.5979C16.7553 21.8089 16.2679 21.2686 15.5581 21.2686ZM22.2051 22.5979C22.2051 22.153 22.4964 21.7878 22.9729 21.7878C23.4285 21.7878 23.7357 22.1371 23.7357 22.5979C23.7357 23.0588 23.4285 23.4084 22.9729 23.4084C22.4964 23.4084 22.2051 23.0429 22.2051 22.5979ZM24.2548 23.8639V21.3322H23.7039V21.6394C23.5291 21.4117 23.2643 21.2686 22.9041 21.2686C22.1945 21.2686 21.6383 21.8248 21.6383 22.5979C21.6383 23.3713 22.1945 23.9275 22.9041 23.9275C23.2643 23.9275 23.5291 23.7842 23.7039 23.5567V23.8639H24.2548ZM19.096 22.5979C19.096 23.366 19.631 23.9275 20.4468 23.9275C20.8282 23.9275 21.0821 23.8427 21.3576 23.6256L21.0927 23.1806C20.8862 23.3289 20.6692 23.4084 20.4309 23.4084C19.9912 23.4031 19.6681 23.0853 19.6681 22.5979C19.6681 22.1106 19.9912 21.7931 20.4309 21.7878C20.6692 21.7878 20.8862 21.8672 21.0927 22.0155L21.3576 21.5706C21.0821 21.3534 20.8282 21.2686 20.4468 21.2686C19.631 21.2686 19.096 21.8301 19.096 22.5979ZM26.1932 21.2686C25.8754 21.2686 25.6688 21.417 25.5258 21.6394V21.3322H24.9802V23.8639H25.5311V22.4443C25.5311 22.0261 25.7112 21.7931 26.0714 21.7931C26.1826 21.7931 26.2992 21.8089 26.4157 21.8566L26.5852 21.3375C26.4634 21.2898 26.3045 21.2686 26.1932 21.2686ZM11.4376 21.5335C11.1727 21.3587 10.8075 21.2686 10.4049 21.2686C9.764 21.2686 9.35083 21.5759 9.35083 22.0788C9.35083 22.492 9.65806 22.7463 10.2248 22.8257L10.4844 22.8628C10.7863 22.9052 10.9293 22.9846 10.9293 23.1276C10.9293 23.3236 10.7281 23.4349 10.352 23.4349C9.97058 23.4349 9.69513 23.313 9.50974 23.17L9.25018 23.5991C9.55212 23.8213 9.9335 23.9275 10.3467 23.9275C11.0774 23.9275 11.5012 23.5832 11.5012 23.1012C11.5012 22.6562 11.1674 22.4231 10.6168 22.3437L10.3573 22.3066C10.1189 22.2748 9.9282 22.2271 9.9282 22.0579C9.9282 21.8725 10.1083 21.7613 10.4102 21.7613C10.7334 21.7613 11.0456 21.8831 11.1992 21.9782L11.4376 21.5335ZM18.5401 21.2686C18.2223 21.2686 18.0157 21.417 17.8727 21.6394V21.3322H17.3271V23.8639H17.878V22.4443C17.878 22.0261 18.0581 21.7931 18.4183 21.7931C18.5295 21.7931 18.646 21.8089 18.7626 21.8566L18.9318 21.3375C18.81 21.2898 18.6513 21.2686 18.5401 21.2686ZM13.8422 21.3322H12.9419V20.5641H12.3858V21.3322H11.8719V21.8354H12.3858V22.9899C12.3858 23.5779 12.6135 23.9275 13.2648 23.9275C13.5032 23.9275 13.7786 23.8531 13.9534 23.7315L13.7945 23.2601C13.6303 23.3554 13.4502 23.4031 13.3072 23.4031C13.0317 23.4031 12.9419 23.2336 12.9419 22.9793V21.8354H13.8422V21.3322ZM5.61166 23.8639V22.2748C5.61166 21.6765 5.23054 21.2739 4.61608 21.2686C4.29297 21.2634 3.95925 21.364 3.72618 21.7189C3.55138 21.4382 3.27594 21.2686 2.88952 21.2686C2.61937 21.2686 2.35452 21.3481 2.14794 21.6447V21.3322H1.59705V23.8639H2.15323V22.4602C2.15323 22.0206 2.3969 21.7878 2.77299 21.7878C3.13848 21.7878 3.32388 22.0261 3.32388 22.4549V23.8639H3.8798V22.4602C3.8798 22.0206 4.13405 21.7878 4.49955 21.7878C4.87564 21.7878 5.05574 22.0261 5.05574 22.4549V23.8639H5.61166Z" fill="white"/>
                <path d="M11.2546 2.03833H19.5974V17.0305H11.2546V2.03833Z" fill="#8F9194"/>
                <path d="M11.7845 9.53464C11.7845 6.49309 13.2087 3.78446 15.4263 2.03856C13.8043 0.761712 11.7581 0 9.53384 0C4.26834 0 0 4.26887 0 9.53464C0 14.8004 4.26834 19.0693 9.53384 19.0693C11.7581 19.0693 13.8043 18.3076 15.4263 17.0307C13.2087 15.2848 11.7845 12.5762 11.7845 9.53464Z" fill="#636466"/>
                <path d="M30.5548 15.4428V15.0728H30.4581L30.3472 15.3273L30.2359 15.0728H30.1393V15.4428H30.2073V15.1636L30.3117 15.4043H30.3824L30.4868 15.1631V15.4428H30.5548ZM29.9427 15.4428V15.1358H30.0667V15.0733H29.7515V15.1358H29.8752V15.4428H29.9427Z" fill="#231F20"/>
                <path d="M30.8525 9.53464C30.8525 14.8004 26.5839 19.0693 21.3186 19.0693C19.0944 19.0693 17.0479 18.3076 15.4262 17.0307C17.6438 15.2848 19.0679 12.5762 19.0679 9.53464C19.0679 6.49309 17.6438 3.78446 15.4262 2.03856C17.0479 0.761712 19.0944 0 21.3186 0C26.5839 0 30.8525 4.26887 30.8525 9.53464Z" fill="#C0C2C4"/>
            </g>
        </g>
    </g>
    <defs>
        <clipPath id="clip0_188_2438">
            <rect width="31" height="24" fill="white"/>
        </clipPath>
        <clipPath id="clip1_188_2438">
            <rect width="31" height="24" fill="white"/>
        </clipPath>
        <clipPath id="clip2_188_2438">
            <rect width="31" height="24" fill="white"/>
        </clipPath>
    </defs>
</svg>
