<svg width="141" height="24" viewBox="0 0 141 24" fill="none" xmlns="http://www.w3.org/2000/svg">
    <g clip-path="url(#clip0_188_2524)">
        <g clip-path="url(#clip1_188_2524)">
            <g clip-path="url(#clip2_188_2524)">
                <path d="M124.916 10.2178C124.203 10.6931 123.015 10.9307 121.589 10.9307H120.876H120.163L121.114 4.75248H121.827H122.302C123.49 4.75248 124.441 4.9901 125.153 5.22772C125.629 5.70297 126.104 6.17822 126.104 7.60396C126.104 9.0297 125.629 9.74257 124.916 10.2178ZM35.0941 18.0594H23.4505L24.1634 13.7822H31.5297L32.2426 9.26733H25.1139L25.8267 5.22772H37.4703L35.0941 18.0594ZM131.332 1.66337C129.431 0.475248 126.817 0 123.49 0H114.698L111.371 18.0594H99.7277L100.441 13.7822H107.332L108.282 9.26733H101.153L102.104 5.22772H109.233L110.183 0H95.4505L92.3614 17.1089H86.896L90.2228 0H82.3812L79.2921 17.1089H74.0644L77.1535 0H69.5495L66.2228 18.0594H54.5792L55.2921 13.7822H62.1832L63.1337 9.26733H56.0049L56.7178 5.22772H64.0842L65.0346 0H19.1733L16.5594 14.2574L11.5693 0H3.49009L-0.78714 23.2871H6.81682L9.43068 8.55446L14.4208 23.2871H41.7475L45.0742 5.22772H49.3515L46.0247 23.2871H117.787L119.926 11.8812L123.252 23.2871H130.856L127.292 14.0198L128.243 13.7822C129.906 13.3069 131.332 12.5941 132.282 11.4059C133.233 10.2178 133.708 8.55446 133.708 6.65347C133.708 4.51485 132.995 2.85149 131.332 1.66337Z" fill="white"/>
                <path d="M137.51 20.4356H138.46H139.173C139.173 20.198 139.173 20.198 139.411 20.198C139.411 19.9603 139.411 19.9603 139.411 19.7227C139.411 19.4851 139.411 19.4851 139.173 19.2475C139.173 19.2475 138.936 19.2475 138.698 19.2475H137.51V20.4356ZM137.035 22.5742V19.0098L138.46 18.7722H139.411C139.411 19.0098 139.649 19.0098 139.649 19.2475C139.886 19.2475 139.886 19.4851 139.886 19.7227C139.886 19.9603 139.886 20.198 139.649 20.4356C139.649 20.6732 139.173 20.6732 138.936 20.9108H139.173L139.649 21.3861L140.361 22.3366H139.649L139.173 21.6237C139.173 21.3861 138.936 21.3861 138.936 21.1485C138.698 21.1485 138.698 20.9108 138.698 20.9108C138.46 20.9108 138.46 20.9108 138.46 20.9108C138.223 20.9108 138.223 20.9108 137.985 20.9108H137.51V22.5742H137.035Z" fill="white"/>
                <path d="M135.609 20.6733C135.609 19.9605 135.847 19.2476 136.322 18.7723C136.797 18.2971 137.51 17.8218 138.223 17.8218C139.886 17.8218 141.074 19.01 141.312 20.4357V20.6733C141.312 22.0991 140.124 23.2872 138.46 23.5248C137.035 23.5248 135.609 22.3367 135.609 20.6733ZM138.223 17.3466C137.272 17.3466 136.559 17.5842 135.847 18.2971C135.134 19.01 134.896 19.9605 134.896 20.9109C135.134 22.8119 136.559 24.2377 138.46 24.0001C140.361 24.0001 141.787 22.3367 141.787 20.4357C141.787 18.5347 140.124 17.109 138.223 17.3466Z" fill="white"/>
            </g>
        </g>
    </g>
    <defs>
        <clipPath id="clip0_188_2524">
            <rect width="140" height="24" fill="white" transform="translate(0.5)"/>
        </clipPath>
        <clipPath id="clip1_188_2524">
            <rect width="140" height="24" fill="white" transform="translate(0.5)"/>
        </clipPath>
        <clipPath id="clip2_188_2524">
            <rect width="142.574" height="24" fill="white" transform="translate(-0.78714)"/>
        </clipPath>
    </defs>
</svg>
