<svg width="84" height="24" viewBox="0 0 84 24" fill="none" xmlns="http://www.w3.org/2000/svg">
    <g clip-path="url(#clip0_188_2492)">
        <g clip-path="url(#clip1_188_2492)">
            <path d="M29.8388 4.84036C29.5398 4.84036 29.2695 4.77321 29.0279 4.63889C28.7904 4.50049 28.5999 4.31528 28.4566 4.08326C28.3173 3.84717 28.2477 3.58462 28.2477 3.29562C28.2477 3.00661 28.3173 2.74813 28.4566 2.52018C28.5958 2.28816 28.7863 2.10499 29.0279 1.97066C29.2695 1.83226 29.5378 1.76306 29.8326 1.76306C30.1357 1.76306 30.406 1.83226 30.6435 1.97066C30.8852 2.10499 31.0756 2.28816 31.2148 2.52018C31.3541 2.74813 31.4237 3.00661 31.4237 3.29562C31.4237 3.58462 31.3541 3.84717 31.2148 4.08326C31.0756 4.31528 30.8852 4.50049 30.6435 4.63889C30.406 4.77321 30.1378 4.84036 29.8388 4.84036ZM29.8326 4.09547C29.9842 4.09547 30.1173 4.06291 30.2319 3.99778C30.3507 3.92858 30.4408 3.83496 30.5022 3.71692C30.5678 3.5948 30.6005 3.4564 30.6005 3.30172C30.6005 3.14704 30.5678 3.01068 30.5022 2.89263C30.4367 2.77459 30.3466 2.683 30.2319 2.61787C30.1173 2.54867 29.9842 2.51407 29.8326 2.51407C29.6852 2.51407 29.5541 2.54867 29.4395 2.61787C29.3248 2.683 29.2347 2.77459 29.1692 2.89263C29.1036 3.01068 29.0709 3.14704 29.0709 3.30172C29.0709 3.4564 29.1036 3.5948 29.1692 3.71692C29.2347 3.83496 29.3248 3.92858 29.4395 3.99778C29.5541 4.06291 29.6852 4.09547 29.8326 4.09547Z" fill="white"/>
            <path fill-rule="evenodd" clip-rule="evenodd" d="M34.8413 4.77938H34.0427V4.51146C33.965 4.58789 33.8749 4.65277 33.7725 4.7061C33.6004 4.79565 33.4079 4.84041 33.195 4.84041C32.9206 4.84041 32.6749 4.77327 32.4578 4.63894C32.2408 4.50461 32.0687 4.32144 31.9418 4.08942C31.8189 3.8574 31.7575 3.59688 31.7575 3.30788C31.7575 3.0148 31.8189 2.75225 31.9418 2.52023C32.0687 2.28821 32.2387 2.10504 32.4517 1.97071C32.6687 1.83638 32.9165 1.76922 33.195 1.76922C33.4079 1.76922 33.5984 1.81196 33.7663 1.89744C33.8687 1.94835 33.9588 2.01153 34.0366 2.08698V1.466C34.0366 1.02425 34.3969 0.666138 34.8413 0.666138C34.8413 2.13763 34.8413 3.30789 34.8413 4.77938ZM33.7233 4.00394C33.6127 4.06906 33.4817 4.10163 33.3301 4.10163C33.1868 4.10163 33.0578 4.06906 32.9431 4.00394C32.8284 3.93474 32.7383 3.84112 32.6728 3.72307C32.6114 3.60095 32.5807 3.46053 32.5807 3.30177C32.5807 3.14709 32.6114 3.01073 32.6728 2.89268C32.7383 2.77464 32.8264 2.68102 32.937 2.61182C33.0516 2.54262 33.1847 2.50802 33.3363 2.50802C33.4837 2.50802 33.6127 2.54262 33.7233 2.61182C33.838 2.67695 33.9261 2.77057 33.9874 2.89268C34.053 3.01073 34.0857 3.14709 34.0857 3.30177C34.0857 3.46053 34.053 3.60095 33.9874 3.72307C33.9261 3.84112 33.838 3.93474 33.7233 4.00394Z" fill="white"/>
            <path fill-rule="evenodd" clip-rule="evenodd" d="M36.0632 4.63888C36.2802 4.77321 36.5239 4.8404 36.7942 4.8404C37.0072 4.8404 37.1976 4.79763 37.3655 4.71216C37.4771 4.65263 37.5734 4.57961 37.6542 4.4931V4.77931H38.4528V1.83022H37.6542V2.11372C37.5734 2.02632 37.4771 1.95421 37.3655 1.89739C37.1976 1.81191 37.0072 1.76917 36.7942 1.76917C36.5239 1.76917 36.2802 1.83633 36.0632 1.97066C35.8461 2.10498 35.6761 2.28816 35.5533 2.52018C35.4304 2.7522 35.369 3.01475 35.369 3.30782C35.369 3.59683 35.4304 3.85734 35.5533 4.08937C35.6761 4.32138 35.8461 4.50456 36.0632 4.63888ZM37.4884 3.88177C37.3491 4.02831 37.1669 4.10158 36.9417 4.10158C36.7942 4.10158 36.6632 4.06901 36.5485 4.00388C36.4379 3.93468 36.3499 3.84106 36.2843 3.72302C36.2229 3.6009 36.1922 3.46047 36.1922 3.30172C36.1922 3.14704 36.2229 3.01068 36.2843 2.89263C36.3499 2.77052 36.4379 2.67689 36.5485 2.61177C36.6632 2.54256 36.7942 2.50797 36.9417 2.50797C37.0932 2.50797 37.2242 2.54256 37.3348 2.61177C37.4495 2.67689 37.5375 2.77052 37.599 2.89263C37.6645 3.01068 37.6972 3.14704 37.6972 3.30172C37.6972 3.53781 37.6276 3.73116 37.4884 3.88177Z" fill="white"/>
            <path d="M26.9912 3.97946C26.9912 4.42121 27.3515 4.77932 27.796 4.77932V2.91095C27.796 2.71149 27.7469 2.52628 27.6486 2.35532C27.5503 2.18029 27.4151 2.03986 27.2431 1.93402C27.0711 1.82412 26.8766 1.76917 26.6595 1.76917C26.4343 1.76917 26.2316 1.81801 26.0514 1.9157C25.9568 1.96819 25.8728 2.03184 25.7994 2.10664V1.83023H24.9947V3.97946C24.9947 4.42121 25.355 4.77932 25.7994 4.77932V3.08799C25.7994 2.96995 25.824 2.86617 25.8732 2.77662C25.9264 2.68707 25.9981 2.61787 26.0882 2.56902C26.1783 2.52018 26.2807 2.49576 26.3954 2.49576C26.5714 2.49576 26.7148 2.55071 26.8254 2.66061C26.936 2.77052 26.9912 2.91298 26.9912 3.08802V3.97946Z" fill="white"/>
            <path fill-rule="evenodd" clip-rule="evenodd" d="M7.75378 1.75742H6.05765C6.03331 1.75742 6.00826 1.7574 5.98263 1.75738H5.98215C5.63995 1.75705 5.18976 1.75662 4.79586 1.81113C4.30743 1.87872 3.58543 2.06603 2.96882 2.7007C2.35222 3.33537 2.17025 4.07854 2.10458 4.58128C2.05162 4.98675 2.05204 5.45009 2.05236 5.80232V5.80285C2.05238 5.82925 2.05241 5.85497 2.05241 5.88008V7.6471H4.30482V5.88008C4.30482 5.02957 4.30482 4.60429 4.56151 4.34006C4.81822 4.07584 5.23138 4.07584 6.05765 4.07584H7.75378V1.75742ZM19.8614 7.6471V5.88008C19.8614 5.02957 19.8614 4.60429 19.6046 4.34006C19.348 4.07584 18.9348 4.07584 18.1085 4.07584H16.389V1.75742H18.1085C18.1329 1.75742 18.1579 1.7574 18.1835 1.75738H18.184C18.5262 1.75705 18.9764 1.75662 19.3703 1.81113C19.8588 1.87872 20.5807 2.06603 21.1973 2.7007C21.8139 3.33537 21.9959 4.07854 22.0616 4.58128C22.1146 4.98675 22.1141 5.45009 22.1138 5.80232L22.1137 5.84336V5.8495V5.88008V7.6471H19.8614ZM16.389 19.8627H18.1085C18.9348 19.8627 19.348 19.8627 19.6046 19.5985C19.8614 19.3342 19.8614 18.9091 19.8614 18.0585V16.2823H22.1137V18.0585V18.0964L22.1138 18.1363C22.1141 18.4885 22.1146 18.9518 22.0616 19.3573C21.9959 19.86 21.8139 20.6032 21.1973 21.2379C20.5807 21.8725 19.8588 22.0599 19.3703 22.1275C18.9773 22.1818 18.5281 22.1815 18.1862 22.1812H18.184C18.1582 22.1812 18.133 22.1812 18.1085 22.1812H16.389V19.8627ZM4.30482 16.2823V18.0585C4.30482 18.9091 4.30482 19.3342 4.56151 19.5985C4.81822 19.8627 5.23138 19.8627 6.05765 19.8627H7.75378V22.1812H6.05765H6.02674C6.0121 22.1812 5.99722 22.1812 5.9821 22.1812H5.97994C5.63803 22.1815 5.18895 22.1818 4.79586 22.1275C4.30743 22.0599 3.58543 21.8725 2.96882 21.2379C2.35222 20.6032 2.17025 19.86 2.10458 19.3573C2.05162 18.9518 2.05204 18.4885 2.05236 18.1363C2.05238 18.1098 2.05241 18.0836 2.05241 18.0585V16.2823H4.30482Z" fill="white"/>
            <path d="M17.7903 8.64462C17.7903 10.0415 16.678 11.1738 15.3059 11.1738C13.9339 11.1738 12.8216 10.0415 12.8216 8.64462C12.8216 7.24772 13.9339 6.11536 15.3059 6.11536C16.678 6.11536 17.7903 7.24772 17.7903 8.64462Z" fill="white"/>
            <path d="M15.3059 12.9441C13.9339 12.9441 12.8216 14.0765 12.8216 15.4733V17.7496H17.7903V15.4733C17.7903 14.0765 16.678 12.9441 15.3059 12.9441Z" fill="white"/>
            <path opacity="0.4" d="M6.37567 15.4209C6.37567 14.0938 7.43234 13.0181 8.73583 13.0181H11.0959V17.8236H8.73583C7.43234 17.8236 6.37567 16.7478 6.37567 15.4209Z" fill="white"/>
            <path opacity="0.4" d="M6.37567 6.18896H9.1085C10.2061 6.18896 11.0959 7.09482 11.0959 8.21231V10.9945H6.37567V6.18896Z" fill="white"/>
            <path d="M79.5499 17.1C80.1317 17.1 80.568 17.2613 80.8589 17.5839C81.1502 17.9065 81.2957 18.3714 81.2957 18.9786V22.2236H79.4073V19.2064C79.4073 18.9913 79.3502 18.8205 79.2365 18.694C79.1289 18.5611 78.9739 18.4947 78.7718 18.4947C78.5376 18.4947 78.348 18.5706 78.2025 18.7225C78.0566 18.8742 77.9841 19.0609 77.9841 19.2822V22.2236H76.0958V17.2138H77.6424L77.7657 17.9729C77.9621 17.7072 78.2184 17.4953 78.5342 17.3372C78.8573 17.179 79.1957 17.1 79.5499 17.1Z" fill="white"/>
            <path d="M72.5472 17.1C73.4265 17.1 74.1163 17.3245 74.616 17.7736C75.1219 18.2164 75.3749 18.8648 75.3749 19.7187C75.3749 20.5727 75.1219 21.2242 74.616 21.6733C74.1163 22.1161 73.4265 22.3375 72.5472 22.3375C71.6683 22.3375 70.9785 22.1161 70.4789 21.6733C69.9792 21.2305 69.7296 20.579 69.7296 19.7187C69.7296 18.8585 69.9792 18.2069 70.4789 17.7642C70.9785 17.3214 71.6683 17.1 72.5472 17.1ZM72.5472 18.3809C71.9275 18.3809 71.6174 18.7383 71.6174 19.453V19.9939C71.6174 20.7023 71.9275 21.0566 72.5472 21.0566C73.1736 21.0566 73.4865 20.7023 73.4865 19.9939V19.453C73.4865 18.7383 73.1736 18.3809 72.5472 18.3809Z" fill="white"/>
            <path d="M67.0536 16.6255V15.3446H68.9419V16.6255H67.0536ZM67.0536 22.2236V17.2138H68.9419V22.2236H67.0536Z" fill="white"/>
            <path d="M66.3009 17.2138V18.4947H65.2382V20.4019C65.2382 20.6296 65.2761 20.7972 65.352 20.9047C65.4278 21.006 65.567 21.0566 65.7696 21.0566H66.3009V22.1667C66.1493 22.2173 65.9529 22.2584 65.7125 22.29C65.4725 22.3216 65.2637 22.3375 65.0865 22.3375C64.5297 22.3375 64.0997 22.2363 63.7958 22.0338C63.4987 21.8314 63.3499 21.4867 63.3499 20.9996V18.4947H62.6481V17.2138H63.4257L63.8337 15.6957H65.2382V17.2138H66.3009Z" fill="white"/>
            <path d="M59.4561 17.1C60.2217 17.1 60.8448 17.2296 61.3253 17.489C61.8062 17.742 62.0462 18.1563 62.0462 18.7319V20.6865C62.0462 20.7941 62.0717 20.8826 62.1226 20.9522C62.1729 21.0218 62.2488 21.0566 62.3501 21.0566H62.6918V22.1477C62.6726 22.1604 62.6222 22.1825 62.5397 22.2141C62.4638 22.2394 62.3534 22.2647 62.208 22.29C62.0621 22.3217 61.8946 22.3375 61.705 22.3375C61.3382 22.3375 61.0344 22.2837 60.7939 22.1762C60.5602 22.0623 60.3989 21.9073 60.3101 21.7112C60.0696 21.901 59.8008 22.0528 59.5037 22.1667C59.2066 22.2806 58.8586 22.3375 58.4597 22.3375C57.2832 22.3375 56.6952 21.8694 56.6952 20.9332C56.6952 20.4462 56.8248 20.0761 57.084 19.8231C57.3499 19.5638 57.7291 19.3866 58.2226 19.2918C58.716 19.1969 59.3611 19.1494 60.1584 19.1494V18.9027C60.1584 18.7066 60.0888 18.558 59.9496 18.4568C59.8166 18.3556 59.6429 18.305 59.4278 18.305C59.2315 18.305 59.0606 18.3398 58.9152 18.4093C58.776 18.4789 58.7064 18.5896 58.7064 18.7414V18.7794H56.8469C56.8406 18.7478 56.8373 18.7035 56.8373 18.6465C56.8373 18.1722 57.0619 17.7958 57.5112 17.5174C57.9667 17.2391 58.6147 17.1 59.4561 17.1ZM60.1584 20.0413C59.6208 20.0413 59.2219 20.1014 58.9627 20.2216C58.7097 20.3355 58.583 20.4904 58.583 20.6865C58.583 21.0028 58.7986 21.1609 59.2286 21.1609C59.4754 21.1609 59.6904 21.0945 59.8738 20.9617C60.0634 20.8289 60.1584 20.6644 60.1584 20.4683V20.0413Z" fill="white"/>
            <path d="M53.4312 17.1C54.2534 17.1 54.9177 17.2771 55.4237 17.6313C55.9363 17.9792 56.1921 18.5137 56.1921 19.2348H54.3609C54.3609 18.6655 54.0513 18.3809 53.4312 18.3809C52.8115 18.3809 52.5014 18.7383 52.5014 19.453V19.9939C52.5014 20.7023 52.824 21.0566 53.4691 21.0566C54.1142 21.0566 54.4368 20.7656 54.4368 20.1836H56.1921C56.1921 20.9111 55.9363 21.4519 55.4237 21.8061C54.9177 22.1604 54.2534 22.3375 53.4312 22.3375C52.5518 22.3375 51.8625 22.1161 51.3629 21.6733C50.8632 21.2305 50.6131 20.579 50.6131 19.7187C50.6131 18.8585 50.8632 18.2069 51.3629 17.7642C51.8625 17.3214 52.5518 17.1 53.4312 17.1Z" fill="white"/>
            <path d="M46.6851 15.2308C46.8117 15.2308 46.9666 15.2498 47.1501 15.2878C47.3335 15.3194 47.4822 15.3574 47.596 15.4016V16.5118H47.2545C47.052 16.5118 46.916 16.5497 46.8465 16.6256C46.7769 16.7016 46.7421 16.8312 46.7421 17.0147V17.2139H47.596V18.4948H46.7421V22.2237H44.8539V18.4948H44.2087V17.2139H44.8539V17.0052C44.8539 16.3599 45.012 15.9045 45.3283 15.6388C45.6446 15.3669 46.0969 15.2308 46.6851 15.2308ZM47.9945 16.6256V15.3447H49.8825V16.6256H47.9945ZM47.9945 22.2237V17.2139H49.8825V22.2237H47.9945Z" fill="white"/>
            <path d="M41.7986 16.6255V15.3446H43.6868V16.6255H41.7986ZM41.7986 22.2236V17.2138H43.6868V22.2236H41.7986Z" fill="white"/>
            <path d="M40.7517 17.0905C40.8972 17.0905 41.0269 17.1094 41.1407 17.1474C41.2546 17.179 41.3115 17.198 41.3115 17.2043V18.7888H40.7043C40.3121 18.7888 40.0275 18.8901 39.8503 19.0925C39.6796 19.2949 39.5942 19.5953 39.5942 19.9939V22.2236H37.706V17.2138H39.2526L39.3759 17.9729C39.4898 17.6819 39.6701 17.4637 39.9168 17.3182C40.1635 17.1663 40.4418 17.0905 40.7517 17.0905Z" fill="white"/>
            <path d="M34.1575 17.1C35.0747 17.1 35.7736 17.315 36.2544 17.7451C36.7414 18.1753 36.985 18.8332 36.985 19.7187V20.0413H33.2276C33.2276 20.4019 33.3067 20.6739 33.4648 20.8573C33.6293 21.0407 33.8855 21.1325 34.2334 21.1325C34.5497 21.1325 34.7805 21.0661 34.926 20.9332C35.0778 20.8004 35.1537 20.6233 35.1537 20.4019H36.985C36.985 21.0091 36.7541 21.4835 36.2923 21.8251C35.8305 22.1667 35.1569 22.3375 34.2713 22.3375C33.3415 22.3375 32.6204 22.1224 32.108 21.6923C31.5957 21.2558 31.3395 20.598 31.3395 19.7187C31.3395 18.8585 31.5893 18.2069 32.089 17.7642C32.5888 17.3214 33.2782 17.1 34.1575 17.1ZM34.2334 18.305C33.6388 18.305 33.3067 18.5864 33.2371 19.1494H35.0778C35.0778 18.8901 35.0019 18.6845 34.8501 18.5327C34.7046 18.3809 34.499 18.305 34.2334 18.305Z" fill="white"/>
            <path d="M26.761 22.2236L24.4459 15.6957H26.6851L27.9945 20.0603H28.0324L29.3513 15.6957H31.4957L29.19 22.2236H26.761Z" fill="white"/>
            <path d="M61.235 13.2977C60.9753 13.9998 60.6561 14.5311 60.2765 14.8917C59.9035 15.2586 59.3784 15.442 58.7016 15.442C58.2902 15.442 57.9269 15.3851 57.6105 15.2712V14.1421H58.3694C58.8437 14.1421 59.1254 13.9113 59.2137 13.4495L57.2213 8.4397H59.2517L60.2102 11.7701H60.2765L61.1592 8.4397H63.0187L61.235 13.2977Z" fill="white"/>
            <path d="M57.1042 8.4396V9.72053H56.0414V11.6277C56.0414 11.8554 56.0798 12.023 56.1557 12.1305C56.2315 12.2317 56.3707 12.2823 56.5728 12.2823H57.1042V13.3925C56.9525 13.4431 56.7566 13.4842 56.5162 13.5158C56.2757 13.5474 56.0669 13.5633 55.8898 13.5633C55.3334 13.5633 54.9029 13.462 54.5995 13.2596C54.3024 13.0572 54.1536 12.7125 54.1536 12.2254V9.72053H53.4514V8.4396H54.2294L54.6374 6.92151H56.0414V8.4396H57.1042Z" fill="white"/>
            <path d="M50.8608 7.85131V6.57043H52.7491V7.85131H50.8608ZM50.8608 13.4494V8.4396H52.7491V13.4494H50.8608Z" fill="white"/>
            <path d="M50.1082 8.4396V9.72053H49.0454V11.6277C49.0454 11.8554 49.0834 12.023 49.1592 12.1305C49.2355 12.2317 49.3747 12.2823 49.5768 12.2823H50.1082V13.3925C49.9565 13.4431 49.7602 13.4842 49.5202 13.5158C49.2797 13.5474 49.0709 13.5633 48.8938 13.5633C48.337 13.5633 47.907 13.462 47.6034 13.2596C47.3061 13.0572 47.1574 12.7125 47.1574 12.2254V9.72053H46.4553V8.4396H47.2333L47.6413 6.92151H49.0454V8.4396H50.1082Z" fill="white"/>
            <path d="M44.0833 8.32581C44.6652 8.32581 45.1017 8.48709 45.3927 8.80969C45.6836 9.1323 45.8291 9.59723 45.8291 10.2045V13.4495H43.941V10.4322C43.941 10.2171 43.884 10.0464 43.7702 9.91984C43.6626 9.78697 43.5077 9.72059 43.3052 9.72059C43.0712 9.72059 42.8815 9.79648 42.736 9.9483C42.5905 10.1001 42.5177 10.2867 42.5177 10.5081V13.4495H40.6296V8.43966H42.1761L42.2995 9.19873C42.4956 8.93305 42.7518 8.72113 43.068 8.56302C43.3906 8.40486 43.729 8.32581 44.0833 8.32581Z" fill="white"/>
            <path d="M37.081 8.32581C37.9982 8.32581 38.6972 8.54089 39.1779 8.97102C39.665 9.40115 39.9085 10.059 39.9085 10.9445V11.2671H36.1512C36.1512 11.6277 36.2302 11.8997 36.3884 12.0831C36.5528 12.2666 36.809 12.3583 37.1569 12.3583C37.4732 12.3583 37.7041 12.2919 37.8496 12.159C38.0014 12.0262 38.0773 11.8491 38.0773 11.6277H39.9085C39.9085 12.235 39.6776 12.7094 39.2159 13.051C38.7541 13.3925 38.0804 13.5633 37.1949 13.5633C36.265 13.5633 35.5439 13.3482 35.0316 12.9181C34.5192 12.4816 34.263 11.8238 34.263 10.9445C34.263 10.0843 34.5129 9.43278 35.0126 8.98998C35.5123 8.54718 36.2018 8.32581 37.081 8.32581ZM37.1569 9.5308C36.5623 9.5308 36.2302 9.81232 36.1607 10.3753H38.0014C38.0014 10.1159 37.9255 9.91033 37.7737 9.75851C37.6282 9.60673 37.4226 9.5308 37.1569 9.5308Z" fill="white"/>
            <path d="M31.9954 13.4494L31.8341 12.7378C31.4673 13.2881 30.9359 13.5633 30.2401 13.5633C29.5633 13.5633 29.0414 13.3418 28.6745 12.8991C28.3077 12.4563 28.1242 11.8016 28.1242 10.935C28.1242 10.0748 28.3077 9.42639 28.6745 8.98992C29.0414 8.54712 29.5633 8.32575 30.2401 8.32575C30.8157 8.32575 31.2838 8.51866 31.6444 8.90453V6.57043H33.5325V13.4494H31.9954ZM30.8284 9.72053C30.2844 9.72053 30.0124 10.0463 30.0124 10.6978V11.2007C30.0124 11.8459 30.2844 12.1685 30.8284 12.1685C31.1067 12.1685 31.3154 12.0704 31.4546 11.8743C31.5937 11.6783 31.6633 11.4221 31.6633 11.1058V10.7927C31.6633 10.4764 31.5937 10.2202 31.4546 10.0241C31.3154 9.82171 31.1067 9.72053 30.8284 9.72053Z" fill="white"/>
            <path d="M25.0816 13.4494V6.92151H27.1785V13.4494H25.0816Z" fill="white"/>
        </g>
    </g>
    <defs>
        <clipPath id="clip0_188_2492">
            <rect width="83.52" height="24" fill="white" transform="translate(0.23999)"/>
        </clipPath>
        <clipPath id="clip1_188_2492">
            <rect width="83.52" height="24" fill="white" transform="translate(0.23999)"/>
        </clipPath>
    </defs>
</svg>
