<svg width="141" height="24" viewBox="0 0 141 24" fill="none" xmlns="http://www.w3.org/2000/svg">
    <g clip-path="url(#clip0_188_2532)">
        <g clip-path="url(#clip1_188_2532)">
            <g clip-path="url(#clip2_188_2532)">
                <path fill-rule="evenodd" clip-rule="evenodd" d="M25.3235 10.5883C25.3235 10.1177 25.0882 9.88243 24.6177 9.88243H22.2647C21.5588 9.88243 21.3235 10.353 21.3235 10.8236V15.0589C21.3235 15.7648 21.7941 16.0001 22.2647 16.0001H24.6177C24.8529 16.0001 24.8529 16.0001 25.0882 15.7648C25.3235 15.7648 25.3235 15.5295 25.3235 15.2942V10.5883ZM18.2647 10.1177C18.2647 8.94126 18.5 8.23537 18.9706 7.52949C19.2059 7.2942 19.6765 7.2942 19.9118 7.0589C20.3824 6.82361 20.6177 6.82361 21.0882 6.82361H25.5588C27.4412 6.82361 28.3824 7.76478 28.3824 9.88243V16.4707C28.3824 17.1765 28.1471 17.8824 27.4412 18.353C26.9706 18.8236 26.2647 19.2942 25.5588 19.2942H21.3235V24.0001H18.2647V10.1177Z" fill="white"/>
                <path fill-rule="evenodd" clip-rule="evenodd" d="M34.0294 15.5295C34.0294 15.5295 34.0294 15.7648 34.2647 15.7648C34.2647 16.0001 34.5 16.0001 34.7353 16.0001H37.0882C37.5588 16.0001 37.7941 15.7648 38.0294 15.5295V14.5883C38.0294 14.1177 37.5588 13.8824 37.0882 13.8824H34.7353C34.5 13.8824 34.2647 13.8824 34.0294 13.8824V14.5883V15.5295ZM38.0294 10.5883C38.0294 10.1177 37.5588 9.88243 37.0882 9.88243H30.9706V6.82361H37.7941C39.9118 6.82361 40.8529 7.76478 41.0882 9.64714V16.2354C40.8529 17.1765 40.6177 17.8824 40.1471 18.353C39.6765 19.0589 38.9706 19.2942 38.2647 19.2942H34.0294C31.9118 19.2942 30.9706 18.353 30.9706 16.4707V13.8824C30.9706 12.0001 31.9118 11.0589 33.7941 10.8236H38.0294V10.5883Z" fill="white"/>
                <path fill-rule="evenodd" clip-rule="evenodd" d="M49.5588 20.706C49.7941 20.706 50.0294 20.706 50.2647 20.4707C50.5 20.2354 50.5 20.2354 50.5 20.0001V19.7648V19.2942H46.5C46.0294 19.2942 45.5588 19.0589 45.3235 19.0589C45.0882 18.8236 44.6177 18.5883 44.3824 18.353C44.1471 18.1177 43.9118 17.6471 43.6765 17.4118C43.4412 16.9413 43.4412 16.4707 43.4412 16.0001V6.82361H46.5V15.0589C46.5 15.7648 46.7353 16.0001 47.4412 16.0001H49.5588C49.7941 16.0001 50.0294 16.0001 50.2647 15.7648C50.2647 15.7648 50.5 15.5295 50.5 15.2942V15.0589V6.82361H53.5588V20.4707C53.5588 21.4118 53.3235 22.353 52.853 23.0589C52.1471 23.5295 51.4412 24.0001 50.7353 24.0001H43.4412V20.706H49.5588Z" fill="white"/>
                <path fill-rule="evenodd" clip-rule="evenodd" d="M55.9118 16.0001H61.3235C61.7941 16.0001 62.2647 15.7648 62.2647 15.5295V15.2942C62.2647 15.0589 62.2647 15.0589 62.0294 14.8236C62.0294 14.5883 61.7941 14.5883 61.5588 14.5883H61.3235H58.9706C58.0294 14.5883 57.5588 14.353 56.8529 13.6471C56.3824 13.1765 55.9118 12.706 55.9118 12.0001V9.64714C55.9118 7.76478 57.0882 6.82361 58.9706 6.82361H65.3235V9.88243H59.9118C59.2059 9.88243 58.9706 10.1177 58.9706 10.5883V10.8236C58.9706 11.2942 59.2059 11.2942 59.9118 11.2942H62.7353C63.4412 11.5295 63.9118 11.7648 64.6177 12.2354C65.0882 12.706 65.3235 13.4118 65.3235 14.1177V16.4707C65.3235 17.1765 65.0882 17.6471 64.3824 18.353C64.1471 18.8236 63.9118 18.8236 63.6765 19.0589C63.2059 19.2942 62.9706 19.2942 62.2647 19.2942H55.9118V16.0001Z" fill="white"/>
                <path fill-rule="evenodd" clip-rule="evenodd" d="M70.5 15.5295L70.7353 15.7648C70.9706 16.0001 71.2059 16.0001 71.4412 16.0001H73.7941C74.2647 16.0001 74.5 15.7648 74.5 15.5295V14.5883C74.5 14.1177 74.2647 13.8824 73.7941 13.8824H71.4412C70.9706 13.8824 70.9706 13.8824 70.7353 13.8824C70.7353 14.1177 70.5 14.353 70.5 14.5883V15.5295ZM74.5 10.5883C74.5 10.1177 74.2647 9.88243 73.7941 9.88243H67.4412V6.82361H74.5C76.6177 6.82361 77.5588 7.76478 77.5588 9.64714V16.2354C77.5588 17.1765 77.3235 17.8824 76.8529 18.353C76.3824 19.0589 75.6765 19.2942 74.7353 19.2942H70.5C68.6177 19.2942 67.4412 18.353 67.4412 16.4707V13.8824C67.4412 12.0001 68.6177 11.0589 70.5 10.8236H74.5V10.5883Z" fill="white"/>
                <path fill-rule="evenodd" clip-rule="evenodd" d="M80.1471 4.94121C80.1471 4.23532 80.3824 3.52944 81.0882 2.82356C81.5588 2.35297 82.5 2.11768 83.4412 2.11768H85.3235V5.1765H84.1471C83.4412 5.1765 83.2059 5.41179 83.2059 6.11768V6.82356H85.3235V9.88238H83.2059V19.2941H80.1471V4.94121Z" fill="white"/>
                <path fill-rule="evenodd" clip-rule="evenodd" d="M94.0294 10.5883V10.353C94.0294 10.353 94.0294 10.1177 93.7941 10.1177C93.7941 9.88243 93.5588 9.88243 93.3235 9.88243H91.2059C90.9706 9.88243 90.7353 9.88243 90.5 10.1177C90.2647 10.353 90.2647 10.5883 90.2647 10.8236V12.0001L94.0294 10.5883ZM90.2647 15.0589V15.2942C90.2647 15.5295 90.2647 15.7648 90.5 15.7648C90.5 16.0001 90.7353 16.0001 90.9706 16.0001H91.2059H97.0882V19.2942H90.5C89.7941 19.2942 89.3235 19.0589 89.0882 19.0589C88.6177 18.8236 88.3824 18.8236 88.1471 18.353C87.6765 18.1177 87.4412 17.8824 87.4412 17.4118C87.2059 17.1765 87.2059 16.706 87.2059 16.0001V9.64714C87.2059 7.76478 88.1471 6.82361 90.2647 6.82361H94.2647C96.1471 6.82361 97.0882 7.76478 97.3235 9.88243V12.2354L90.2647 15.0589Z" fill="white"/>
                <path fill-rule="evenodd" clip-rule="evenodd" d="M103.676 19.2941C103.206 19.2941 102.735 19.2941 102.5 19.0588C102.029 19.0588 101.559 18.8236 101.324 18.5883C100.853 18.1177 100.618 17.8824 100.382 17.4118C100.147 16.9412 100.147 16.4706 100.147 15.7647V9.88237C100.147 9.41179 100.147 8.9412 100.147 8.7059C100.382 8.23532 100.618 8.00002 100.853 7.52943C101.324 7.29414 101.559 7.05885 102.029 6.82355C102.5 6.82355 102.971 6.58826 103.441 6.58826H108.147V7.52943H103.441C102.735 7.52943 102.029 7.52943 101.559 8.00002C101.088 8.23532 100.853 8.9412 100.853 9.88237V15.7647C100.853 16 100.853 16.4706 101.088 16.9412C101.088 17.1765 101.324 17.6471 101.559 17.8824C102.029 18.1177 102.265 18.353 102.735 18.353C102.971 18.353 103.441 18.5883 103.676 18.5883H108.147V19.2941H103.676Z" fill="white"/>
                <path fill-rule="evenodd" clip-rule="evenodd" d="M120.147 11.5294H114.029C113.324 11.5294 112.618 11.7647 112.382 12.2353C111.912 12.7059 111.676 13.4118 111.676 14.1177V16V16.9412C111.912 17.4118 111.912 17.6471 112.382 17.8824C112.853 18.353 113.324 18.5883 114.029 18.5883H117.794C119.441 18.5883 120.147 17.6471 120.147 16V11.5294ZM120.853 15.7647V17.1765C120.618 17.4118 120.618 17.8824 120.147 18.353C119.441 18.8236 118.735 19.2941 117.794 19.2941H114.029C113.088 19.2941 112.382 19.0588 111.912 18.353C111.206 17.8824 110.971 16.9412 110.971 16V14.1177C110.971 12 111.912 10.8236 114.029 10.8236H120.147V10.1177C120.147 9.41179 119.912 8.7059 119.676 8.23532C119.441 8.00002 118.971 7.76473 118.735 7.52943C118.265 7.52943 118.029 7.52943 117.559 7.52943H110.971V6.58826H117.324C117.794 6.58826 118.265 6.82355 118.735 6.82355C118.971 6.82355 119.206 7.05885 119.441 7.05885C119.676 7.29414 119.912 7.29414 120.147 7.76473C120.618 8.47061 120.853 9.17649 120.853 10.1177V15.7647Z" fill="white"/>
                <path fill-rule="evenodd" clip-rule="evenodd" d="M127.912 7.52943C126.029 7.52943 125.324 8.47061 125.324 10.1177V19.2941H124.618V10.1177C124.618 7.76473 125.559 6.58826 127.912 6.58826H128.853V7.52943H127.912Z" fill="white"/>
                <path fill-rule="evenodd" clip-rule="evenodd" d="M140.147 7.52943H134.5C134.029 7.52943 133.559 7.52943 133.324 7.52943C132.853 7.52943 132.618 7.76473 132.382 8.23532C131.912 8.47061 131.676 8.9412 131.676 9.17649C131.676 9.41179 131.441 9.88237 131.441 10.353V16C131.441 16.9412 131.912 17.6471 132.382 17.8824C132.618 18.1177 133.088 18.353 133.324 18.353C133.559 18.353 134.029 18.5883 134.5 18.5883H137.088C138.029 18.5883 138.735 18.353 139.206 17.8824C139.912 17.4118 140.147 16.7059 140.147 15.7647V7.52943ZM141.088 15.7647C140.853 18.1177 139.676 19.2941 137.088 19.2941H134.5C133.794 19.2941 133.324 19.2941 132.853 19.0588C132.382 19.0588 131.912 18.5883 131.676 18.353C131.206 17.8824 130.971 17.4118 130.971 16.9412C130.735 16.7059 130.735 16.2353 130.735 15.5294V10.353C130.735 7.76473 132.147 6.58826 134.5 6.58826H140.147V2.58826H141.088V15.7647Z" fill="white"/>
                <path fill-rule="evenodd" clip-rule="evenodd" d="M1.32353 6.35294C1.55882 6.11765 1.79412 6.11765 2.02941 6.11765C2.5 4 4.38235 2.35294 6.5 2.35294C8.85294 2.35294 10.7353 4 10.9706 6.11765C11.6765 6.11765 12.3824 6.35294 12.8529 6.82353C12.8529 6.35294 12.8529 6.11765 12.8529 5.64706C12.3824 2.58824 9.79412 0 6.5 0C3.20588 0 0.382351 2.58824 0.147057 6.11765V6.82353C0.617645 6.58824 0.852939 6.35294 1.32353 6.35294Z" fill="#B3B3B3"/>
                <path fill-rule="evenodd" clip-rule="evenodd" d="M10.2647 6.82349H2.7353C2.26471 6.82349 2.02941 6.82349 1.55882 7.05878C1.08824 7.29407 0.852943 7.29407 0.617648 7.52937C0.14706 8.23525 -0.0882339 8.94113 -0.0882339 10.1176V16C-0.0882339 16.9411 0.14706 17.8823 0.617648 18.3529C0.852943 18.5882 1.08824 18.8235 1.55882 19.0588C2.02941 19.0588 2.26471 19.2941 2.7353 19.2941H10.2647C12.1471 19.2941 13.0882 18.1176 13.0882 16V9.88231C13.0882 7.76466 12.1471 6.82349 10.2647 6.82349Z" fill="#B3B3B3"/>
            </g>
        </g>
    </g>
    <defs>
        <clipPath id="clip0_188_2532">
            <rect width="140" height="24" fill="white" transform="translate(0.5)"/>
        </clipPath>
        <clipPath id="clip1_188_2532">
            <rect width="140" height="24" fill="white" transform="translate(0.5)"/>
        </clipPath>
        <clipPath id="clip2_188_2532">
            <rect width="141.176" height="24" fill="white" transform="translate(-0.0882339)"/>
        </clipPath>
    </defs>
</svg>
