<svg width="71" height="24" viewBox="0 0 71 24" fill="none" xmlns="http://www.w3.org/2000/svg">
    <g clip-path="url(#clip0_188_2480)">
        <g clip-path="url(#clip1_188_2480)">
            <g clip-path="url(#clip2_188_2480)">
                <path fill-rule="evenodd" clip-rule="evenodd" d="M0.386719 8.39401C0.386719 15.4876 8.78081 15.1329 10.0813 15.6058C11.7365 16.197 11.6182 19.1526 7.83499 19.1526C5.82514 19.1526 4.16997 18.9162 2.27834 18.325C1.80544 18.2068 1.33253 17.9704 0.859625 17.8521V23.1723C2.27834 23.8817 7.12564 23.9999 9.13549 23.9999C14.3375 23.9999 19.0665 20.4531 17.766 15.1329C16.4655 9.33982 8.89903 9.93096 7.83499 9.33982C6.5345 8.74869 6.5345 7.09352 7.95322 6.50239C9.84485 5.6748 13.6281 6.50239 15.5197 7.09352C16.1109 7.32997 16.702 7.56642 17.1749 7.68465V2.60091C16.3473 2.36445 15.8744 2.128 14.2192 1.77332C11.8547 1.30042 10.9089 1.30042 8.54435 1.30042C4.2882 1.30042 0.386719 4.13785 0.386719 8.39401Z" fill="white"/>
                <path fill-rule="evenodd" clip-rule="evenodd" d="M19.4212 2.48268V23.7635H25.569V17.3792C25.6872 17.6157 25.569 17.4975 25.6872 17.7339L26.2783 18.798C26.5148 19.2709 26.7513 19.7438 26.9877 20.3349C27.2242 20.926 27.9335 23.0541 27.9335 23.7635H35.3818C35.2636 23.527 35.1453 23.0541 35.0271 22.6994L33.6084 19.5073C30.6527 13.4778 31.2439 16.6699 33.8448 11.5861C34.3178 10.8768 35.6182 8.15756 35.7365 7.21175H28.7611C28.5247 8.39401 26.2783 12.2955 25.569 12.8866V1.30042C24.3867 1.30042 20.367 2.48268 19.4212 2.48268Z" fill="white"/>
                <path fill-rule="evenodd" clip-rule="evenodd" d="M56.1897 2.36445V23.7635H62.101V1.30042C61.1552 1.30042 57.4902 2.24623 56.1897 2.36445Z" fill="white"/>
                <path fill-rule="evenodd" clip-rule="evenodd" d="M64.702 2.36445V23.7635H70.6133V1.30042C69.904 1.30042 65.4114 2.36445 64.702 2.36445Z" fill="white"/>
                <path fill-rule="evenodd" clip-rule="evenodd" d="M36.4458 14.3054V23.7635H42.3572V16.6699C42.3572 13.3596 42.8301 12.0591 46.1404 12.0591V7.09356C45.0764 7.09356 46.0222 6.97533 44.2488 7.09356C42.4754 7.33001 41.1749 7.33001 39.2833 8.51228C37.6281 9.57632 36.4458 11.5862 36.4458 14.3054Z" fill="white"/>
                <path fill-rule="evenodd" clip-rule="evenodd" d="M47.9138 23.7635H53.8251V7.32996H47.9138V23.7635Z" fill="white"/>
                <path fill-rule="evenodd" clip-rule="evenodd" d="M48.032 2.71918C48.032 3.66499 48.1503 4.25612 48.8596 4.96548C51.4606 7.56647 55.5985 3.66499 52.8793 0.827553C51.1059 -1.06407 48.032 0.5911 48.032 2.71918Z" fill="white"/>
            </g>
        </g>
    </g>
    <defs>
        <clipPath id="clip0_188_2480">
            <rect width="70" height="24" fill="white" transform="translate(0.5)"/>
        </clipPath>
        <clipPath id="clip1_188_2480">
            <rect width="70" height="24" fill="white" transform="translate(0.5)"/>
        </clipPath>
        <clipPath id="clip2_188_2480">
            <rect width="70.2439" height="24" fill="white" transform="translate(0.378052)"/>
        </clipPath>
    </defs>
</svg>
