<svg width="150" height="55" viewBox="0 0 150 55" fill="none" xmlns="http://www.w3.org/2000/svg">
    <g clip-path="url(#clip0_109_1470)">
        <g clip-path="url(#clip1_109_1470)">
            <g clip-path="url(#clip2_109_1470)">
                <path fill-rule="evenodd" clip-rule="evenodd" d="M50.4417 8.91879C50.4417 8.91879 50.4396 8.91895 50.4445 8.91857C50.4495 8.91818 50.448 8.91831 50.448 8.91831C50.5324 8.91121 51.7401 8.79739 52.1724 8.06629C52.5396 7.44406 54.2724 3.45236 54.8836 2.03717C54.987 1.79754 55.0388 1.67773 55.2144 1.48864C55.39 1.29954 55.4386 1.27414 55.5358 1.22335C55.9137 1.02582 56.4886 0.899439 57.0679 1.43405C57.8218 2.13003 59.8262 7.30983 60.0278 7.83425C60.0329 7.84747 60.0355 7.85408 60.0504 7.88785C60.0653 7.92163 60.0653 7.92154 60.0653 7.92154C60.158 8.10599 60.5654 8.80482 61.4531 8.88757C62.313 8.96633 66.7368 9.44698 68.1346 9.59923C68.3477 9.62244 68.4543 9.63405 68.6148 9.68973C68.7752 9.7454 68.8288 9.77895 68.9359 9.84604C69.3934 10.1325 70.0486 10.7134 69.582 11.5075C69.2936 11.9989 65.223 15.6705 64.1879 16.6003C64.0676 16.7084 64.0074 16.7624 63.9299 16.8596C63.8524 16.9568 63.8283 16.9999 63.7803 17.0861C63.6057 17.3997 63.3756 17.9273 63.5017 18.361C63.6714 18.9472 64.7173 23.4133 64.9566 24.4372C64.9808 24.5407 64.9929 24.5925 65.0028 24.6761C65.0127 24.7596 65.0129 24.7939 65.0132 24.8624C65.0152 25.2173 64.9713 25.92 64.6217 26.2881C64.1416 26.7935 63.8529 26.8243 63.117 26.5723C62.4593 26.346 57.9388 23.5459 56.9877 22.9547C56.9104 22.9067 56.8718 22.8826 56.7656 22.8374C56.6594 22.7922 56.6438 22.7882 56.6127 22.7803C56.3782 22.7207 55.9734 22.6699 55.5961 22.8763C55.0242 23.1904 49.6509 26.3401 49.5802 26.3815C49.5802 26.3815 49.5824 26.3802 49.579 26.3822C49.5757 26.3841 49.5776 26.383 49.5776 26.383C49.5114 26.4209 47.7941 27.3861 47.2787 25.8407C47.2563 25.7737 47.2451 25.7401 47.2261 25.603C47.2071 25.4658 47.209 25.4235 47.2129 25.3387C47.2861 23.7603 48.4192 20.1783 48.5448 19.7855C48.5503 19.7683 48.553 19.7597 48.5579 19.7431C48.5628 19.7265 48.564 19.7221 48.5663 19.7135C48.6399 19.4402 49.0622 17.7204 48.2677 16.9077C47.4784 16.1007 43.7291 12.6617 43.0823 12.069C43.0391 12.0295 43.0175 12.0097 42.9728 11.9608C42.928 11.9119 42.9201 11.9015 42.9042 11.8807C42.6747 11.5802 42.1013 10.6723 42.9421 9.99563C42.9929 9.95478 43.0183 9.93435 43.1601 9.86288C43.302 9.79141 43.3522 9.7783 43.4525 9.75208C45.2196 9.29024 50.3398 8.92601 50.4417 8.91879Z" fill="#E31351"/>
                <path d="M11.8638 17.8886C11.8638 16.1632 11.5205 14.7963 10.8354 13.7874C10.149 12.7793 9.06596 12.276 7.58327 12.276C6.90968 12.276 6.27429 12.3771 5.67998 12.5782C5.08362 12.7793 4.60718 13.0047 4.2474 13.2504V23.3657C4.53982 23.4329 4.91563 23.496 5.37687 23.5513C5.83606 23.6078 6.393 23.6349 7.04522 23.6349C8.54968 23.6349 9.72927 23.1253 10.5828 22.1061C11.4363 21.0874 11.8638 19.6816 11.8638 17.8886ZM16.0412 17.955C16.0412 19.3674 15.833 20.6384 15.4178 21.7695C15.0026 22.9012 14.407 23.87 13.6324 24.6765C12.857 25.4835 11.9185 26.0996 10.8181 26.526C9.71696 26.9504 8.47083 27.1633 7.07808 27.1633C5.73009 27.1633 4.44495 27.0627 3.21936 26.8611C1.99541 26.6592 0.978874 26.4359 0.170166 26.1893V1.32047L4.2474 0.647461V9.75543C4.71889 9.50892 5.2976 9.28482 5.98227 9.08371C6.66899 8.88133 7.42637 8.78135 8.25725 8.78135C9.4927 8.78135 10.5992 8.99976 11.5771 9.436C12.5538 9.87306 13.3683 10.494 14.0201 11.3019C14.6711 12.1076 15.1706 13.0772 15.5188 14.2073C15.8672 15.34 16.0412 16.5893 16.0412 17.955Z" fill="white"/>
                <path d="M23.6229 26.7262H19.5457V9.14997H23.6229V26.7262ZM24.0611 4.00918C24.0611 4.77026 23.8139 5.37486 23.3193 5.82381C22.8249 6.27194 22.2413 6.49558 21.5676 6.49558C20.8711 6.49558 20.2755 6.27194 19.7811 5.82381C19.287 5.37486 19.0392 4.77026 19.0392 4.00918C19.0392 3.22515 19.287 2.60866 19.7811 2.15971C20.2755 1.71199 20.8711 1.48792 21.5676 1.48792C22.2413 1.48792 22.8249 1.71199 23.3193 2.15971C23.8139 2.60866 24.0611 3.22515 24.0611 4.00918Z" fill="white"/>
                <path d="M27.8689 4.51265L31.9466 3.84045V9.15H38.2137V12.5446H31.9466V19.7031C31.9466 21.1135 32.1713 22.1216 32.6201 22.727C33.0695 23.3324 33.833 23.6348 34.9116 23.6348C35.6533 23.6348 36.3105 23.5565 36.883 23.3988C37.4556 23.2423 37.9098 23.0969 38.2483 22.9629L38.9215 26.1892C38.4499 26.3903 37.8314 26.598 37.0679 26.811C36.3039 27.0232 35.4049 27.1292 34.3723 27.1292C33.1142 27.1292 32.0644 26.9609 31.2216 26.6251C30.3796 26.2891 29.7115 25.8029 29.2165 25.1639C28.7228 24.5253 28.3746 23.7523 28.1721 22.8446C27.9695 21.9376 27.8689 20.9013 27.8689 19.7368V4.51265Z" fill="white"/>
                <path d="M80.4065 23.5676C81.934 23.5676 83.0462 23.3099 83.7428 22.7946C84.4382 22.2793 84.7873 21.5517 84.7873 20.61C84.7873 20.05 84.6702 19.5683 84.4329 19.1649C84.1971 18.7618 83.8616 18.3976 83.4232 18.0723C82.9847 17.7484 82.4503 17.446 81.8215 17.1655C81.1926 16.8861 80.4743 16.6113 79.6651 16.3413C78.8565 16.0509 78.0757 15.7314 77.3236 15.3844C76.5703 15.0375 75.9084 14.6053 75.3358 14.0896C74.7629 13.5751 74.3029 12.959 73.9537 12.2413C73.605 11.5257 73.4317 10.6626 73.4317 9.65465C73.4317 7.54912 74.162 5.89586 75.6229 4.69771C77.0813 3.49915 79.0701 2.89905 81.5862 2.89905C83.0462 2.89905 84.3433 3.06208 85.4785 3.38732C86.6121 3.71216 87.5051 4.06484 88.1568 4.4462L86.8433 7.87354C86.079 7.44835 85.2415 7.12311 84.3326 6.89822C83.4232 6.67538 82.4847 6.56232 81.5187 6.56232C80.3729 6.56232 79.4807 6.79786 78.8401 7.26894C78.2002 7.73877 77.8798 8.39991 77.8798 9.25115C77.8798 9.76646 77.9862 10.2092 78.2002 10.5787C78.4129 10.9481 78.7161 11.2787 79.1095 11.5691C79.503 11.8616 79.963 12.1303 80.4907 12.3769C81.0185 12.6227 81.5972 12.8587 82.2273 13.0815C83.3264 13.4862 84.3096 13.895 85.175 14.3092C86.04 14.7237 86.7702 15.216 87.3654 15.7879C87.9609 16.3598 88.4152 17.0315 88.7294 17.8041C89.0432 18.5771 89.2021 19.5131 89.2021 20.61C89.2021 22.7163 88.4546 24.347 86.9608 25.4997C85.4662 26.6545 83.2823 27.2307 80.4065 27.2307C79.4406 27.2307 78.5587 27.169 77.762 27.046C76.9647 26.9228 76.2566 26.7716 75.6393 26.5926C75.0204 26.4132 74.4868 26.228 74.0379 26.038C73.5886 25.8475 73.2297 25.6738 72.9606 25.5169L74.2067 22.0552C74.8137 22.3911 75.6328 22.7274 76.6673 23.0633C77.6999 23.3992 78.946 23.5676 80.4065 23.5676Z" fill="white"/>
                <path d="M91.7955 4.51265L95.8718 3.84045V9.15H102.14V12.5446H95.8718V19.7031C95.8718 21.1135 96.0965 22.1216 96.5468 22.727C96.9956 23.3324 97.76 23.6348 98.8377 23.6348C99.5787 23.6348 100.236 23.5565 100.809 23.3988C101.382 23.2423 101.836 23.0969 102.173 22.9629L102.847 26.1892C102.376 26.3903 101.758 26.598 100.994 26.811C100.23 27.0232 99.3322 27.1292 98.2988 27.1292C97.0408 27.1292 95.9906 26.9609 95.149 26.6251C94.305 26.2891 93.6367 25.8029 93.1431 25.1639C92.649 24.5253 92.3003 23.7523 92.0986 22.8446C91.897 21.9376 91.7955 20.9013 91.7955 19.7368V4.51265Z" fill="white"/>
                <path d="M111.542 23.8699C112.8 23.8699 113.754 23.8023 114.406 23.6688V19.1649C114.182 19.0978 113.856 19.0311 113.43 18.9638C113.002 18.8967 112.531 18.8627 112.014 18.8627C111.565 18.8627 111.111 18.8967 110.649 18.9638C110.188 19.0311 109.773 19.1531 109.403 19.3338C109.033 19.5127 108.734 19.765 108.51 20.0891C108.285 20.4143 108.173 20.8232 108.173 21.3168C108.173 22.2794 108.475 22.9459 109.083 23.3153C109.689 23.6852 110.509 23.8699 111.542 23.8699ZM111.206 8.71375C112.553 8.71375 113.687 8.88124 114.609 9.21716C115.529 9.55342 116.265 10.0242 116.816 10.6296C117.367 11.2334 117.76 11.9683 117.995 12.8306C118.232 13.6928 118.349 14.6399 118.349 15.6697V26.3228C117.72 26.4575 116.771 26.6205 115.502 26.8111C114.233 27.0003 112.8 27.0969 111.206 27.0969C110.15 27.0969 109.184 26.995 108.308 26.7939C107.431 26.5923 106.684 26.2674 106.067 25.8193C105.448 25.3716 104.966 24.7895 104.618 24.071C104.27 23.3546 104.095 22.4703 104.095 21.4171C104.095 20.409 104.293 19.5574 104.685 18.8627C105.078 18.168 105.612 17.6026 106.286 17.1656C106.96 16.7285 107.74 16.4151 108.627 16.2239C109.515 16.0346 110.441 15.9392 111.408 15.9392C111.857 15.9392 112.328 15.967 112.823 16.0236C113.317 16.0792 113.845 16.1738 114.406 16.3086V15.6368C114.406 15.1657 114.35 14.7181 114.238 14.2929C114.125 13.8669 113.929 13.4916 113.649 13.1664C113.367 12.8416 112.997 12.5901 112.537 12.4099C112.075 12.2313 111.497 12.1411 110.802 12.1411C109.857 12.1411 108.993 12.2087 108.206 12.3431C107.42 12.477 106.779 12.6339 106.286 12.8129L105.781 9.51952C106.297 9.34128 107.05 9.16189 108.038 8.98249C109.026 8.80309 110.082 8.71375 111.206 8.71375Z" fill="white"/>
                <path d="M132.636 12.8132C132.298 12.7022 131.831 12.5837 131.237 12.4609C130.641 12.3379 129.951 12.2761 129.165 12.2761C128.716 12.2761 128.238 12.3207 127.733 12.41C127.228 12.5001 126.874 12.5784 126.67 12.6456V26.7264H122.593V9.99046C123.38 9.69925 124.363 9.4251 125.542 9.16745C126.721 8.90979 128.03 8.78125 129.468 8.78125C129.737 8.78125 130.052 8.79762 130.411 8.83164C130.771 8.86439 131.129 8.90979 131.489 8.96517C131.849 9.02172 132.197 9.0893 132.533 9.16745C132.871 9.24571 133.141 9.31863 133.342 9.38586L132.636 12.8132Z" fill="white"/>
                <path d="M147.765 12.0075C147.316 12.4773 146.725 13.1385 145.996 13.9896C145.265 14.8416 144.484 15.7878 143.653 16.8296C142.823 17.8713 141.986 18.9583 141.143 20.0894C140.301 21.2212 139.542 22.3017 138.869 23.3328H147.968V26.7265H133.949V24.2061C134.444 23.3098 135.062 22.3358 135.802 21.2821C136.544 20.2294 137.309 19.1714 138.094 18.1064C138.881 17.0426 139.661 16.0291 140.436 15.0649C141.21 14.1015 141.903 13.2621 142.508 12.5449H134.388V9.1499H147.765V12.0075Z" fill="white"/>
                <path d="M11.8067 47.3381C11.8067 43.3274 9.40636 40.8965 6.16104 40.8965C2.90347 40.8965 0.509277 43.3274 0.509277 47.3381C0.509277 51.3427 2.90347 53.7798 6.16104 53.7798C9.40636 53.7798 11.8067 51.3488 11.8067 47.3381ZM9.93296 47.3381C9.93296 50.3936 8.31642 52.053 6.16104 52.053C3.99953 52.053 2.38912 50.3936 2.38912 47.3381C2.38912 44.2826 3.99953 42.6232 6.16104 42.6232C8.31642 42.6232 9.93296 44.2826 9.93296 47.3381Z" fill="white"/>
                <path d="M21.4078 53.6083H23.2999V48.8628H25.8716C25.9145 48.8628 25.9512 48.8628 25.9941 48.8628L28.5414 53.6083H30.6967L27.9168 48.5322C29.4537 47.9627 30.2191 46.6829 30.2191 44.999C30.2191 42.6906 28.7863 41.0679 25.8777 41.0679H21.4078V53.6083ZM23.2999 47.234V42.6906H25.6757C27.5433 42.6906 28.3148 43.5784 28.3148 44.999C28.3148 46.4135 27.5433 47.234 25.7002 47.234H23.2999Z" fill="white"/>
                <path d="M41.6556 41.0679H39.7635V53.6083H41.6556V41.0679Z" fill="white"/>
                <path d="M60.14 45.0297H62.0811C61.6586 42.5865 59.5705 40.8965 56.8641 40.8965C53.6187 40.8965 51.249 43.3396 51.249 47.3442C51.249 51.3121 53.5514 53.7798 56.9498 53.7798C59.993 53.7798 62.1668 51.7836 62.1668 48.6179V47.1912H57.2376V48.7526H60.336C60.2931 50.7733 58.9582 52.053 56.9498 52.053C54.7393 52.053 53.1289 50.3814 53.1289 47.332C53.1289 44.2949 54.7515 42.6232 56.8763 42.6232C58.5418 42.6232 59.6685 43.5417 60.14 45.0297Z" fill="white"/>
                <path d="M73.7028 41.0679H71.8107V53.6083H73.7028V41.0679Z" fill="white"/>
                <path d="M93.8221 41.0679H91.9484V50.2773H91.832L85.4516 41.0679H83.7004V53.6083H85.5925V44.4112H85.7088L92.0831 53.6083H93.8221V41.0679Z" fill="white"/>
                <path d="M104.883 53.6083L106.035 50.2895H110.933L112.078 53.6083H114.087L109.574 41.0679H107.388L102.875 53.6083H104.883ZM106.586 48.6975L108.435 43.3458H108.533L110.382 48.6975H106.586Z" fill="white"/>
                <path d="M123.14 53.6083H130.714V51.9795H125.032V41.0679H123.14V53.6083Z" fill="white"/>
                <path d="M146.954 44.3622H148.779C148.724 42.3538 146.948 40.8965 144.401 40.8965C141.884 40.8965 139.955 42.3354 139.955 44.4969C139.955 46.2421 141.205 47.2646 143.219 47.8096L144.701 48.2137C146.042 48.5689 147.077 49.0098 147.077 50.1242C147.077 51.3488 145.907 52.1571 144.297 52.1571C142.839 52.1571 141.627 51.508 141.517 50.1426H139.619C139.741 52.4143 141.498 53.8165 144.309 53.8165C147.254 53.8165 148.95 52.2673 148.95 50.1426C148.95 47.8831 146.936 47.0075 145.344 46.6156L144.119 46.2972C143.14 46.0461 141.835 45.5869 141.841 44.3867C141.841 43.3213 142.815 42.5314 144.358 42.5314C145.797 42.5314 146.82 43.2049 146.954 44.3622Z" fill="white"/>
            </g>
        </g>
    </g>
    <defs>
        <clipPath id="clip0_109_1470">
            <rect width="149" height="54" fill="white" transform="translate(0.170166 0.647461)"/>
        </clipPath>
        <clipPath id="clip1_109_1470">
            <rect width="149" height="54" fill="white" transform="translate(0.170166 0.647461)"/>
        </clipPath>
        <clipPath id="clip2_109_1470">
            <rect width="149" height="54" fill="white" transform="translate(0.170166 0.647461)"/>
        </clipPath>
    </defs>
</svg>
