<svg width="179" height="64" viewBox="0 0 179 64" fill="none" xmlns="http://www.w3.org/2000/svg">
    <g clip-path="url(#clip0_109_1493)">
        <g clip-path="url(#clip1_109_1493)">
            <g clip-path="url(#clip2_109_1493)">
                <path d="M178.67 0.147461V57.7475C178.67 60.2475 176.67 62.3475 174.07 62.3475H5.27017C2.67017 62.3475 0.670166 60.2475 0.670166 57.7475V14.9475C0.670166 12.4475 2.67017 10.4475 5.27017 10.4475H168.27L177.77 0.147461H178.67Z" fill="#FF4040"/>
                <path d="M34.9701 30.5475C34.9701 35.8475 30.9701 39.7475 25.5701 39.7475H21.7701V46.7475H14.7701V21.4475H25.5701C30.9701 21.4475 34.9701 25.2475 34.9701 30.5475ZM27.7701 30.5475C27.7701 28.7475 26.5701 27.5475 24.7701 27.5475H21.7701V33.6475H24.7701C26.5701 33.6475 27.7701 32.3475 27.7701 30.5475Z" fill="white"/>
                <path d="M37.7703 20.1475H44.5703V46.7475H37.7703V20.1475Z" fill="white"/>
                <path d="M69.5702 27.1475V46.7475H64.3702L63.7702 45.3475C62.1702 46.6475 60.1702 47.3475 57.8702 47.3475C51.9702 47.3475 47.6702 43.0475 47.6702 36.9475C47.6702 30.8475 51.9702 26.5475 57.8702 26.5475C60.1702 26.5475 62.2702 27.3475 63.8702 28.6475L64.5702 27.1475H69.5702ZM63.1702 36.9475C63.1702 34.4475 61.3702 32.5475 58.8702 32.5475C56.2702 32.5475 54.4702 34.4475 54.4702 36.9475C54.4702 39.5475 56.3702 41.4475 58.8702 41.4475C61.3702 41.4475 63.1702 39.5475 63.1702 36.9475Z" fill="white"/>
                <path d="M86.9702 40.8475V46.7475H82.3702C78.0702 46.7475 75.4702 44.1475 75.4702 39.7475V32.3475H71.8702V30.8475L80.6702 21.4475H81.9702V27.2475H86.8702V32.3475H82.1702V38.6475C82.1702 40.0475 82.9702 40.8475 84.4702 40.8475H86.9702Z" fill="white"/>
                <path d="M90.1702 27.2475H96.8702V46.7475H90.1702V27.2475ZM90.1702 19.0475H96.8702V24.7475H90.1702V19.0475Z" fill="white"/>
                <path d="M122.77 36.9475C122.77 43.0475 118.57 47.4475 112.57 47.4475C110.77 47.4475 109.17 46.9475 107.77 46.1475V53.8475H101.07V27.2475H105.67L106.57 28.7475C108.17 27.3475 110.17 26.5475 112.57 26.5475C118.57 26.5475 122.77 30.8475 122.77 36.9475ZM116.07 36.9475C116.07 34.4475 114.17 32.5475 111.67 32.5475C109.17 32.5475 107.27 34.4475 107.27 36.9475C107.27 39.5475 109.17 41.4475 111.67 41.4475C114.17 41.4475 116.07 39.5475 116.07 36.9475Z" fill="white"/>
                <path d="M125.67 38.3474V27.2474H132.37V38.0474C132.37 40.1474 133.47 41.3474 135.27 41.3474C137.07 41.3474 138.17 40.1474 138.17 38.0474V27.2474H144.97V38.3474C144.97 43.8474 141.07 47.4474 135.27 47.4474C129.47 47.3474 125.67 43.8474 125.67 38.3474Z" fill="white"/>
                <path d="M156.47 47.3475C151.07 47.3475 147.87 44.5475 147.77 40.3475H154.27C154.27 41.7475 155.27 42.4475 156.57 42.4475C157.57 42.4475 158.47 41.9475 158.47 40.9475C158.47 39.7475 156.97 39.4475 155.07 39.1475C152.07 38.6475 148.07 37.7475 148.07 33.0475C148.07 29.0475 151.37 26.5475 156.47 26.5475C161.37 26.5475 164.67 29.2475 164.67 33.1475H158.37C158.37 31.9475 157.57 31.3475 156.27 31.3475C155.27 31.3475 154.47 31.8475 154.47 32.7475C154.47 33.8475 155.97 34.1475 157.87 34.4475C160.97 35.0475 165.07 35.6475 165.07 40.6475C165.07 44.7475 161.57 47.3475 156.47 47.3475Z" fill="white"/>
            </g>
        </g>
    </g>
    <defs>
        <clipPath id="clip0_109_1493">
            <rect width="178" height="63" fill="white" transform="translate(0.670166 0.147461)"/>
        </clipPath>
        <clipPath id="clip1_109_1493">
            <rect width="178" height="63" fill="white" transform="translate(0.670166 0.147461)"/>
        </clipPath>
        <clipPath id="clip2_109_1493">
            <rect width="178" height="63" fill="white" transform="translate(0.670166 0.147461)"/>
        </clipPath>
    </defs>
</svg>
