<svg width="79" height="24" viewBox="0 0 79 24" fill="none" xmlns="http://www.w3.org/2000/svg">
    <g clip-path="url(#clip0_188_2428)">
        <g clip-path="url(#clip1_188_2428)">
            <g clip-path="url(#clip2_188_2428)">
                <path fill-rule="evenodd" clip-rule="evenodd" d="M27.9911 23.712L31.9177 0.42334H38.2814L34.3549 23.712H27.9911Z" fill="white"/>
                <path fill-rule="evenodd" clip-rule="evenodd" d="M57.2374 0.964886C56.0188 0.558688 54.1232 0.0170898 51.5506 0.0170898C45.3222 0.0170898 40.9894 3.13128 40.854 7.73486C40.854 10.9844 44.1036 12.88 46.4054 13.9632C48.978 15.1818 49.7904 15.8588 49.7904 16.942C49.7904 18.4314 47.7594 19.1084 45.9992 19.1084C43.4266 19.1084 42.0726 18.8376 40.0416 17.8898L39.0938 17.619L38.2814 22.7642C39.7708 23.4412 42.4788 23.9828 45.3222 23.9828C51.9568 23.9828 56.2896 20.8686 56.425 16.1296C56.425 13.4216 54.6648 11.3906 51.009 9.76585C48.8426 8.68265 47.4886 8.00566 47.4886 6.92246C47.4886 5.97466 48.7072 4.89147 51.1444 4.89147C53.1754 4.89147 54.6648 5.29767 55.8834 5.70387L56.425 5.97466L57.2374 0.964886Z" fill="white"/>
                <path fill-rule="evenodd" clip-rule="evenodd" d="M73.6207 0.42334H68.6109C67.1215 0.42334 66.0383 0.829538 65.3613 2.31893L55.8834 23.712H62.5179C62.5179 23.712 63.6011 20.8687 63.8719 20.1917H71.9959C72.2667 21.0041 72.8083 23.712 72.8083 23.712H78.6305L73.6207 0.42334ZM65.7675 15.4527C66.3091 14.0987 68.2047 8.9535 68.2047 8.9535C68.2047 8.9535 68.7463 7.59951 69.1525 6.65171L69.5587 8.6827C69.5587 8.6827 70.7773 14.2341 71.0481 15.4527H65.7675Z" fill="white"/>
                <path fill-rule="evenodd" clip-rule="evenodd" d="M22.5751 0.42334L16.4821 16.2651L15.8051 13.0155C14.5865 9.3597 11.0661 5.29772 7.00415 3.26673L12.6909 23.712H19.3255L29.3451 0.42334H22.5751Z" fill="white"/>
                <path fill-rule="evenodd" clip-rule="evenodd" d="M10.6599 0.42334H0.504967L0.369568 0.964938C8.35813 2.86053 13.6387 7.46411 15.8051 13.0155L13.5033 2.45433C13.2325 0.964938 12.0139 0.42334 10.6599 0.42334Z" fill="#B3B3B3"/>
            </g>
        </g>
    </g>
    <defs>
        <clipPath id="clip0_188_2428">
            <rect width="78" height="24" fill="white" transform="translate(0.5)"/>
        </clipPath>
        <clipPath id="clip1_188_2428">
            <rect width="78" height="24" fill="white" transform="translate(0.5)"/>
        </clipPath>
        <clipPath id="clip2_188_2428">
            <rect width="78.2609" height="24" fill="white" transform="translate(0.369568)"/>
        </clipPath>
    </defs>
</svg>
