<svg width="17" height="17" viewBox="0 0 17 17" fill="none" xmlns="http://www.w3.org/2000/svg">
<path d="M12.7685 10.2583C12.3051 10.2583 11.9282 10.6349 11.9282 11.0986C11.9282 11.56 12.3049 11.9367 12.7685 11.9367C13.2318 11.9367 13.6068 11.56 13.6068 11.0986C13.6068 10.6349 13.232 10.2583 12.7685 10.2583Z" fill="black"/>
<path d="M14.6713 5.19542H13.0216L8.28394 0.457739C8.11823 0.294502 7.85332 0.294502 7.6899 0.457739L7.04588 1.10176L6.06703 0.122713C5.9036 -0.0409043 5.63869 -0.0409043 5.47299 0.122713L1.57335 4.02216C1.49467 4.10084 1.45325 4.20669 1.45325 4.31842C1.45325 4.43016 1.49467 4.53772 1.57335 4.61639L2.15674 5.1958H1.3225C1.09086 5.1958 0.902344 5.38431 0.902344 5.61596V16.5798C0.902344 16.8119 1.09086 17 1.3225 17H10.867H12.7693H14.6713C15.458 17 16.0977 16.3605 16.0977 15.574V13.3924V8.80526V6.6218C16.0975 5.83526 15.4578 5.19542 14.6713 5.19542ZM7.98597 1.34766L11.8356 5.19542H10.867H5.22252L4.68036 4.65326L7.98597 1.34766ZM5.77134 1.01263L6.4545 1.69371L3.79045 4.35738C3.71196 4.43605 3.66807 4.54152 3.66807 4.65326C3.66807 4.765 3.71177 4.87256 3.79045 4.95123L4.03673 5.19542H3.3433L2.46593 4.31804L5.77134 1.01263ZM13.3551 15.5738C13.3551 15.8967 13.094 16.1614 12.7693 16.1614H10.867H1.74095V6.03574H3.16752C3.16752 6.03574 3.16752 6.03574 3.16942 6.03574H3.17189H5.04485C5.04694 6.03574 5.04694 6.03574 5.05093 6.03574C5.05093 6.03574 5.05302 6.03574 5.05492 6.03574H10.8672H12.7694C13.0942 6.03574 13.3553 6.29893 13.3553 6.6218V8.3851H12.2089C10.712 8.3851 9.49539 9.60207 9.49539 11.0986C9.49539 12.5928 10.712 13.8099 12.2089 13.8099H13.3553L13.3551 15.5738ZM15.259 15.5738C15.259 15.8967 14.9941 16.1614 14.6711 16.1614H14.0666C14.1496 15.9814 14.1953 15.7828 14.1953 15.5738V13.8101H15.259V15.5738ZM15.259 12.9719H13.7852C13.7812 12.9719 13.7791 12.9696 13.777 12.9696C13.7728 12.9696 13.7688 12.9719 13.7648 12.9719H12.2087C11.1736 12.9719 10.3332 12.1316 10.3332 11.0988C10.3332 10.064 11.1736 9.22333 12.2087 9.22333H13.769C13.7711 9.22333 13.773 9.22333 13.7772 9.22333H13.7814H15.259V12.9719ZM15.259 8.3851H14.1953V6.6218C14.1953 6.41238 14.1496 6.21399 14.0666 6.03574H14.6711C14.9941 6.03574 15.259 6.29893 15.259 6.6218V8.3851Z" fill="black"/>
<path d="M7.12387 10.6775H5.64181V9.1956C5.64181 8.96358 5.45577 8.77734 5.22374 8.77734C4.99172 8.77734 4.80149 8.96358 4.80149 9.1956V10.6775H3.31944C3.08741 10.6775 2.90137 10.8637 2.90137 11.0955C2.90137 11.3274 3.08741 11.518 3.31944 11.518H4.80149V12.9998C4.80149 13.2317 4.99172 13.4179 5.22374 13.4179C5.45577 13.4179 5.64181 13.2317 5.64181 12.9998V11.518H7.12387C7.35552 11.518 7.54175 11.3274 7.54175 11.0955C7.54175 10.8637 7.35552 10.6775 7.12387 10.6775Z" fill="black"/>
</svg>
