<svg width="95" height="51" viewBox="0 0 95 51" fill="none" xmlns="http://www.w3.org/2000/svg">
    <g clip-path="url(#clip0_0_5348)">
        <g clip-path="url(#clip1_0_5348)">
            <g clip-path="url(#clip2_0_5348)">
                <path d="M10.3719 4.05801C10.541 2.98538 10.2622 1.95007 9.68702 1.1875C8.90997 1.70934 8.32794 2.59152 8.15882 3.66491C7.9897 4.73755 8.26852 5.77361 8.84369 6.53542C9.6215 6.01358 10.2028 5.1314 10.3719 4.05801Z" fill="url(#paint0_linear_0_5348)"/>
                <path d="M5.93464 10.4334C6.50828 9.67011 6.78558 8.63404 6.61418 7.56141C6.44201 6.48877 5.85922 5.60735 5.08065 5.08704C4.507 5.85113 4.23046 6.8872 4.40187 7.95983C4.57328 9.03247 5.15607 9.91313 5.93464 10.4334Z" fill="url(#paint1_linear_0_5348)"/>
                <path d="M4.03339 15.1569C4.43639 14.2792 4.49429 13.2043 4.10729 12.1972C3.71953 11.1893 2.96914 10.4641 2.10296 10.1373C1.69996 11.0149 1.64206 12.0898 2.02982 13.0969C2.41682 14.1048 3.16721 14.83 4.03339 15.1569Z" fill="url(#paint2_linear_0_5348)"/>
                <path d="M18.4683 36.4599C15.4698 35.8238 12.7707 34.4708 10.5394 32.6189C11.2722 32.0909 11.8192 31.2377 11.9815 30.2054C12.1506 29.132 11.8718 28.0967 11.2966 27.3349C10.5188 27.8568 9.93752 28.7397 9.76839 29.8123C9.6206 30.7478 9.81486 31.6559 10.2484 32.3781C9.20465 31.4746 8.27143 30.4561 7.46391 29.3507C8.29657 29.0246 9.02105 28.3329 9.41186 27.37C9.81639 26.3705 9.7783 25.294 9.39053 24.4088C8.51902 24.7188 7.75568 25.4289 7.3504 26.4284C6.99615 27.3022 6.98168 28.2354 7.24222 29.0482C6.35775 27.7829 5.64013 26.4055 5.11219 24.952C6.0157 24.8148 6.88112 24.2724 7.45096 23.3796C8.02536 22.4784 8.17773 21.4133 7.95452 20.4664C7.04262 20.5974 6.16806 21.1421 5.59289 22.0434C5.04743 22.8996 4.88669 23.9022 5.06419 24.8126C4.5454 23.3476 4.23229 21.8019 4.13021 20.2135C5.04591 20.3011 6.01189 19.9766 6.76075 19.2338C7.50962 18.4918 7.88138 17.4892 7.86157 16.5134C6.94587 16.4257 5.97837 16.7503 5.22951 17.493C4.4875 18.2282 4.11726 19.2186 4.12945 20.1861C4.10736 19.8394 4.08374 19.4936 4.08374 19.1431C4.08374 17.8222 4.23991 16.5248 4.53397 15.2724C5.35292 15.6815 6.34785 15.7363 7.28107 15.3318C8.23029 14.9212 8.91288 14.1243 9.22141 13.2048C8.39484 12.7774 7.38163 12.7157 6.43317 13.1271C5.59899 13.4882 4.96973 14.1479 4.62082 14.9288C5.00706 13.4234 5.59366 11.9859 6.35547 10.6466C7.07386 11.253 8.04822 11.5448 9.0561 11.3635C10.0663 11.1814 10.8967 10.5621 11.3865 9.73547C10.6674 9.12754 9.69145 8.83348 8.68128 9.0148C7.6955 9.1923 6.88417 9.78727 6.39051 10.5834C7.15842 9.24639 8.0985 8.0092 9.18713 6.90457C9.68155 7.71209 10.502 8.31621 11.4985 8.49371C12.5094 8.6735 13.4845 8.37716 14.2029 7.76618C13.7116 6.94114 12.8797 6.32407 11.8695 6.14428C10.9713 5.98506 10.1021 6.20218 9.41567 6.6806C10.2057 5.90736 11.081 5.21639 12.0074 4.59171C12.7951 4.82406 13.6643 4.79587 14.4612 4.41497C15.3929 3.97007 16.0191 3.16102 16.253 2.24837C15.3716 1.86898 14.3324 1.85603 13.4007 2.3017C12.5483 2.7085 11.967 3.42613 11.6928 4.24356C6.79884 7.5803 3.64722 13.0997 3.64722 19.1431C3.64722 19.2818 3.65255 19.4189 3.65636 19.5568C3.57104 18.8224 3.2686 18.0995 2.746 17.5052C2.04665 16.7099 1.10276 16.3153 0.183252 16.3359C0.100976 17.3087 0.406463 18.3349 1.10581 19.1302C1.80516 19.9255 2.74904 20.3201 3.66855 20.2996C3.67388 20.231 3.67388 20.1624 3.67541 20.0931C3.75235 21.4987 3.99994 22.8699 4.39685 24.1863C4.14469 23.5868 3.73407 23.0444 3.17414 22.6421C2.32548 22.0319 1.32293 21.8704 0.430841 22.1081C0.554255 23.0756 1.06772 24.0043 1.91638 24.6145C2.76428 25.2239 3.76759 25.3862 4.65967 25.1485C4.64596 25.038 4.62463 24.9291 4.60101 24.8194C5.04058 26.1008 5.62337 27.3242 6.33414 28.4715C6.00275 28.0663 5.58223 27.728 5.08019 27.4979C4.13935 27.0675 3.12538 27.1094 2.29119 27.52C2.58373 28.4464 3.2526 29.2554 4.19344 29.6866C5.13504 30.1163 6.14826 30.0752 6.98244 29.6645C6.92378 29.4771 6.84531 29.2973 6.75694 29.1229C7.46391 30.162 8.27829 31.1295 9.1856 32.0109C8.78565 31.7237 8.31866 31.5173 7.80444 31.4266C6.79351 31.2468 5.81839 31.5432 5.10076 32.1534C5.59213 32.9792 6.42327 33.5963 7.4342 33.776C8.44512 33.9551 9.42024 33.6587 10.1379 33.0485C10.0388 32.8817 9.92228 32.7263 9.79658 32.5785C12.1674 34.6834 15.1004 36.2184 18.3822 36.9155L18.4683 36.4599Z" fill="url(#paint3_linear_0_5348)"/>
                <path d="M85.2467 6.53542C85.8211 5.77361 86.0999 4.73755 85.9315 3.66491C85.7616 2.59152 85.1804 1.70934 84.4026 1.1875C83.8274 1.95007 83.5486 2.98538 83.7177 4.05801C83.8868 5.1314 84.4688 6.01358 85.2467 6.53542Z" fill="url(#paint4_linear_0_5348)"/>
                <path d="M89.6429 7.95983C89.8143 6.8872 89.537 5.85113 88.9634 5.08704C88.1856 5.60735 87.602 6.48877 87.4306 7.56141C87.2592 8.63404 87.5365 9.67011 88.1094 10.4334C88.888 9.91313 89.4715 9.03247 89.6429 7.95983Z" fill="url(#paint5_linear_0_5348)"/>
                <path d="M90.017 15.1568C90.8839 14.83 91.6335 14.1047 92.0213 13.0968C92.4083 12.0897 92.3504 11.0148 91.9482 10.1372C91.0812 10.464 90.3316 11.1893 89.9438 12.1971C89.5568 13.2043 89.6147 14.2792 90.017 15.1568Z" fill="url(#paint6_linear_0_5348)"/>
                <path d="M90.8807 22.6393C90.3208 23.0416 89.911 23.584 89.658 24.1835C90.0557 22.8671 90.3033 21.4959 90.3795 20.0903C90.3818 20.1596 90.381 20.2282 90.3871 20.2968C91.3058 20.3173 92.2505 19.9227 92.9498 19.1274C93.6492 18.332 93.9547 17.3059 93.8724 16.333C92.9529 16.3125 92.009 16.7071 91.3096 17.5024C90.787 18.0966 90.4846 18.8196 90.3993 19.554C90.4023 19.4161 90.4084 19.279 90.4084 19.1403C90.4084 13.0969 87.256 7.57755 82.3621 4.24081C82.0879 3.42338 81.5066 2.70576 80.6542 2.29895C79.7225 1.85329 78.6833 1.86624 77.8019 2.24562C78.0358 3.15827 78.662 3.96732 79.5937 4.41222C80.3906 4.79312 81.2598 4.82131 82.0483 4.58896C82.9746 5.21365 83.85 5.90461 84.6392 6.67785C83.9528 6.19943 83.0836 5.98232 82.1854 6.14153C81.1752 6.32132 80.3441 6.93839 79.8527 7.76344C80.5704 8.37441 81.5455 8.67076 82.5564 8.49097C83.5529 8.31347 84.3741 7.70935 84.8677 6.90182C85.9564 8.00645 86.8972 9.24364 87.6651 10.5806C87.1707 9.78453 86.3594 9.18955 85.3744 9.01205C84.3642 8.83074 83.3875 9.1248 82.6692 9.73272C83.159 10.5593 83.9886 11.1786 84.9995 11.3607C86.0074 11.542 86.981 11.2502 87.7002 10.6438C88.462 11.9831 89.0486 13.4206 89.4341 14.926C89.0851 14.1451 88.4566 13.4854 87.6217 13.1243C86.6732 12.7129 85.6608 12.7746 84.8335 13.202C85.1428 14.1215 85.8253 14.9184 86.7746 15.329C87.7078 15.7335 88.702 15.6786 89.5217 15.2696C89.815 16.522 89.9719 17.8193 89.9719 19.1403C89.9719 19.4908 89.9475 19.8366 89.9262 20.1833C89.9384 19.2157 89.5681 18.2254 88.8261 17.4902C88.0773 16.7475 87.1098 16.4229 86.1933 16.5105C86.1743 17.4864 86.5453 18.489 87.2949 19.231C88.043 19.9738 89.0097 20.2983 89.9247 20.2107C89.8233 21.7991 89.5102 23.3448 88.9914 24.8097C89.1689 23.8994 89.0082 22.8968 88.4627 22.0406C87.8876 21.1393 87.013 20.5946 86.1011 20.4636C85.8771 21.4105 86.0295 22.4755 86.6047 23.3768C87.1745 24.2696 88.0399 24.812 88.9434 24.9492C88.4155 26.4027 87.6979 27.7801 86.8127 29.0454C87.074 28.2326 87.0595 27.2993 86.7045 26.4256C86.3 25.426 85.5366 24.716 84.6643 24.406C84.2766 25.2912 84.2385 26.3677 84.6438 27.3672C85.0346 28.3301 85.7591 29.0218 86.5917 29.3479C85.7834 30.4533 84.851 31.4718 83.8065 32.3753C84.24 31.6531 84.4343 30.745 84.2865 29.8095C84.1174 28.7369 83.5361 27.854 82.759 27.3321C82.1839 28.0939 81.9043 29.1292 82.0734 30.2026C82.2364 31.2349 82.7827 32.0881 83.5163 32.616C81.2849 34.468 78.5851 35.821 75.5873 36.4571L75.6727 36.9127C78.9546 36.2156 81.8875 34.6806 84.2583 32.5757C84.1326 32.7235 84.0168 32.8789 83.917 33.0457C84.6354 33.6559 85.6105 33.9523 86.6214 33.7732C87.6316 33.5935 88.4627 32.9764 88.9549 32.1506C88.2372 31.5404 87.2614 31.244 86.2512 31.4238C85.737 31.5145 85.27 31.7209 84.87 32.0081C85.7774 31.1267 86.591 30.1592 87.2987 29.1201C87.2096 29.2945 87.1311 29.4743 87.0724 29.6617C87.9074 30.0724 88.9206 30.1135 89.8614 29.6838C90.803 29.2526 91.4719 28.4436 91.7637 27.5172C90.9295 27.1066 89.9163 27.0647 88.9747 27.4951C88.4734 27.7252 88.0521 28.0634 87.7207 28.4687C88.4315 27.3214 89.0151 26.098 89.4546 24.8166C89.4302 24.9263 89.4097 25.0352 89.396 25.1457C90.2881 25.3834 91.2906 25.2211 92.1393 24.6117C92.9879 24.0015 93.5014 23.0728 93.6248 22.1053C92.7319 21.8676 91.7294 22.0291 90.8807 22.6393Z" fill="url(#paint7_linear_0_5348)"/>
                <path d="M31.9762 10.1875V1.08752H36.6432C37.7872 1.08752 38.5932 1.37352 39.1262 1.90652C39.4902 2.27052 39.7112 2.75152 39.7112 3.40152C39.7112 4.45452 39.1132 5.07852 38.3072 5.42952C39.4122 5.79352 40.1142 6.41752 40.1142 7.67852C40.1142 9.23852 38.8402 10.1875 36.6692 10.1875H31.9762ZM34.4332 8.15952H36.3832C37.1502 8.15952 37.5922 7.86052 37.5922 7.30152C37.5922 6.80752 37.2022 6.48252 36.3572 6.48252H34.4332V8.15952ZM34.4332 4.71452H36.0192C36.7862 4.71452 37.2152 4.45452 37.2152 3.89552C37.2152 3.40152 36.8252 3.11552 36.0712 3.11552H34.4332V4.71452ZM41.2692 10.1875V1.08752H48.5882V3.23252H43.7652V4.61052H48.1332V6.59952H43.7652V8.04252H48.6532V10.1875H41.2692ZM53.5151 10.3435C51.9031 10.3435 50.3691 9.83652 49.2511 8.83552L50.6551 7.15852C51.5521 7.87352 52.5531 8.25052 53.6061 8.25052C54.2821 8.25052 54.6461 8.01652 54.6461 7.60052C54.6461 7.22352 54.3471 7.01552 53.1121 6.72952C51.1751 6.28752 49.6801 5.74152 49.6801 3.84352C49.6801 2.15352 51.0191 0.931519 53.2031 0.931519C54.7501 0.931519 55.9591 1.34752 56.9471 2.14052L55.6861 3.92152C54.8541 3.33652 53.9441 3.02452 53.1381 3.02452C52.5271 3.02452 52.2281 3.28452 52.2281 3.63552C52.2281 4.05152 52.5401 4.23352 53.8011 4.51952C55.8941 4.97452 57.1941 5.65052 57.1941 7.37952C57.1941 9.23852 55.7251 10.3435 53.5151 10.3435ZM60.3896 10.1875V3.29752H57.6596V1.08752H65.6416V3.29752H62.9116V10.1875H60.3896Z" fill="url(#paint8_linear_0_5348)"/>
                <path d="M25.3572 23.3695C22.7572 23.3695 20.6642 21.3805 20.6642 18.6375C20.6642 15.9855 22.7052 13.9055 25.4612 13.9055C27.3202 13.9055 28.4772 14.7115 29.2832 15.8295L27.4372 17.2595C26.9172 16.6095 26.3062 16.2065 25.4352 16.2065C24.1612 16.2065 23.2642 17.2855 23.2642 18.6375C23.2642 20.0025 24.1612 21.0685 25.4352 21.0685C26.3842 21.0685 26.9432 20.6265 27.4892 19.9635L29.3872 21.3155C28.5292 22.4985 27.3722 23.3695 25.3572 23.3695ZM30.4723 23.1875V14.0875H34.7753C36.1663 14.0875 37.1283 14.4515 37.7393 15.0625C38.2723 15.5955 38.5453 16.2975 38.5453 17.2205C38.5453 18.6115 37.8043 19.5345 36.6733 20.0155L38.8443 23.1875H35.9323L34.0993 20.4315H32.9943V23.1875H30.4723ZM32.9943 18.4555H34.6583C35.5163 18.4555 36.0103 18.0395 36.0103 17.3505C36.0103 16.6355 35.4903 16.2715 34.6453 16.2715H32.9943V18.4555ZM42.112 23.1875V19.7815L38.654 14.0875H41.527L43.399 17.4025L45.284 14.0875H48.105L44.647 19.7425V23.1875H42.112ZM48.8805 23.1875V14.0875H52.7805C55.0815 14.0875 56.5635 15.2705 56.5635 17.3115C56.5635 19.4565 54.9125 20.5875 52.6505 20.5875H51.4025V23.1875H48.8805ZM51.4025 18.6115H52.5985C53.4955 18.6115 54.0415 18.1435 54.0415 17.4025C54.0415 16.6225 53.4955 16.2065 52.5855 16.2065H51.4025V18.6115ZM59.8506 23.1875V16.2975H57.1206V14.0875H65.1026V16.2975H62.3726V23.1875H59.8506ZM70.392 23.3695C67.584 23.3695 65.504 21.2765 65.504 18.6375C65.504 16.0245 67.61 13.9055 70.418 13.9055C73.226 13.9055 75.306 15.9985 75.306 18.6375C75.306 21.2505 73.2 23.3695 70.392 23.3695ZM70.418 21.0945C71.809 21.0945 72.732 19.9765 72.732 18.6375C72.732 17.3245 71.783 16.1805 70.392 16.1805C69.014 16.1805 68.091 17.2985 68.091 18.6375C68.091 19.9505 69.04 21.0945 70.418 21.0945Z" fill="url(#paint9_linear_0_5348)"/>
                <path d="M26.3572 36.3695C23.7572 36.3695 21.6642 34.3805 21.6642 31.6375C21.6642 28.9855 23.7052 26.9055 26.4612 26.9055C28.3202 26.9055 29.4772 27.7115 30.2832 28.8295L28.4372 30.2595C27.9172 29.6095 27.3062 29.2065 26.4352 29.2065C25.1612 29.2065 24.2642 30.2855 24.2642 31.6375C24.2642 33.0025 25.1612 34.0685 26.4352 34.0685C27.3842 34.0685 27.9432 33.6265 28.4892 32.9635L30.3872 34.3155C29.5292 35.4985 28.3722 36.3695 26.3572 36.3695ZM30.7443 36.1875L34.6183 27.0225H37.0493L40.9233 36.1875H38.2193L37.5563 34.5625H34.0463L33.3963 36.1875H30.7443ZM34.7873 32.5995H36.8283L35.8143 30.0125L34.7873 32.5995ZM45.2543 36.3435C43.6423 36.3435 42.1083 35.8365 40.9903 34.8355L42.3943 33.1585C43.2913 33.8735 44.2923 34.2505 45.3453 34.2505C46.0213 34.2505 46.3853 34.0165 46.3853 33.6005C46.3853 33.2235 46.0863 33.0155 44.8513 32.7295C42.9143 32.2875 41.4193 31.7415 41.4193 29.8435C41.4193 28.1535 42.7583 26.9315 44.9423 26.9315C46.4893 26.9315 47.6983 27.3475 48.6863 28.1405L47.4253 29.9215C46.5933 29.3365 45.6833 29.0245 44.8773 29.0245C44.2663 29.0245 43.9673 29.2845 43.9673 29.6355C43.9673 30.0515 44.2793 30.2335 45.5403 30.5195C47.6333 30.9745 48.9333 31.6505 48.9333 33.3795C48.9333 35.2385 47.4643 36.3435 45.2543 36.3435ZM50.2118 36.1875V27.0875H52.7468V36.1875H50.2118ZM54.4127 36.1875V27.0875H56.7657L60.5097 31.8975V27.0875H63.0057V36.1875H60.7957L56.9087 31.1955V36.1875H54.4127ZM69.1958 36.3695C66.3878 36.3695 64.3078 34.2765 64.3078 31.6375C64.3078 29.0245 66.4138 26.9055 69.2218 26.9055C72.0298 26.9055 74.1098 28.9985 74.1098 31.6375C74.1098 34.2505 72.0038 36.3695 69.1958 36.3695ZM69.2218 34.0945C70.6128 34.0945 71.5358 32.9765 71.5358 31.6375C71.5358 30.3245 70.5868 29.1805 69.1958 29.1805C67.8178 29.1805 66.8948 30.2985 66.8948 31.6375C66.8948 32.9505 67.8438 34.0945 69.2218 34.0945Z" fill="url(#paint10_linear_0_5348)"/>
                <mask id="mask0_0_5348" style="mask-type:luminance" maskUnits="userSpaceOnUse" x="17" y="37" width="30" height="14">
                    <path d="M46.1702 37.1875H17.1702V50.1875H46.1702V37.1875Z" fill="white"/>
                </mask>
                <g mask="url(#mask0_0_5348)">
                    <mask id="mask1_0_5348" style="mask-type:luminance" maskUnits="userSpaceOnUse" x="17" y="41" width="11" height="10">
                        <path d="M18.7602 41.5673C18.1456 41.9057 17.7847 42.5627 17.1702 42.8912C17.375 43.1002 17.4921 43.3789 17.4921 43.6775C17.5019 44.2449 17.3458 44.8023 17.2873 45.3598C17.1359 46.34 17.1458 47.3392 17.3165 48.3161C17.4235 48.9124 17.7221 49.4552 18.1652 49.859C18.448 50.0879 18.8089 50.1875 19.1699 50.1974H19.1894C19.4539 50.1956 19.7156 50.1415 19.96 50.0382C20.7158 49.6853 21.3291 49.077 21.6963 48.3161C21.8914 48.784 22.1157 49.2419 22.4571 49.6102C22.9156 50.1178 23.6569 50.297 24.291 50.1178C24.8744 49.9465 25.3856 49.5824 25.7444 49.0826C26.5983 47.9036 27.0412 46.467 27.0027 45.0014C27.0027 44.1155 26.7978 43.1898 26.2126 42.5129C25.9492 42.1944 25.5103 42.0152 25.1103 42.1546C24.624 42.3846 24.2114 42.7504 23.9203 43.2097C24.3885 43.2993 24.7592 43.6775 24.9055 44.1255C25.1001 44.8216 25.1001 45.5595 24.9055 46.2556C24.796 46.8613 24.5338 47.4274 24.1446 47.8981C23.9593 48.1071 23.6179 48.2166 23.374 48.0374C23.1009 47.8284 23.0424 47.4501 23.0131 47.1216C22.9643 46.1561 23.1107 45.2005 23.2667 44.2549C23.2993 44.0791 23.2643 43.8974 23.1692 43.7472C22.8863 43.6178 22.5742 43.6875 22.2913 43.797C21.9304 43.9563 21.5792 44.1255 21.2085 44.2549C21.2573 44.4241 21.3061 44.5933 21.2963 44.7725C21.2728 45.7206 21.018 46.6477 20.555 47.47C20.3697 47.7786 20.038 48.137 19.6478 48.0076C19.3454 47.8582 19.2186 47.5098 19.1796 47.1913C19.1406 46.6538 19.2284 46.1163 19.365 45.5987C19.5698 44.6132 19.8624 43.6377 19.921 42.6324C19.9307 42.3039 19.9307 41.9356 19.7161 41.6668C19.6498 41.592 19.5683 41.5328 19.4774 41.4933C19.3864 41.4538 19.2882 41.4349 19.1894 41.4379C19.0431 41.4478 18.887 41.4876 18.7602 41.5673Z" fill="white"/>
                    </mask>
                    <g mask="url(#mask1_0_5348)">
                        <path d="M17.1018 41.4478H27.0026V50.287H17.1018V41.4478Z" fill="url(#paint11_linear_0_5348)"/>
                    </g>
                    <mask id="mask2_0_5348" style="mask-type:luminance" maskUnits="userSpaceOnUse" x="28" y="41" width="8" height="10">
                        <path d="M31.1384 48.2265C30.7263 47.8504 30.4542 47.3406 30.3679 46.7832C30.2216 46.0068 30.1923 45.1906 30.4166 44.4341C30.5434 44.006 30.8069 43.588 31.2263 43.4187C31.3833 43.3585 31.5529 43.3406 31.7186 43.3668C31.8843 43.3929 32.0407 43.4623 32.1725 43.568C32.5333 43.8567 32.7479 44.2947 32.904 44.7227C33.1674 45.529 33.1966 46.395 33.0503 47.2311C32.9625 47.6492 32.7968 48.0971 32.4164 48.3261C32.2408 48.4256 32.0358 48.4754 31.8408 48.4754C31.5851 48.4805 31.336 48.3923 31.1384 48.2265ZM30.5239 41.6768C30.0927 41.7982 29.6995 42.0314 29.3826 42.3537L29.5388 42.7717C29.1779 42.9708 28.9144 43.2993 28.7096 43.6576C28.1828 44.6232 28.0268 45.7679 28.1926 46.8529C28.306 47.7945 28.7412 48.6651 29.4216 49.3115C30.0423 49.8769 30.8476 50.1853 31.6795 50.1761C32.5114 50.1669 33.3101 49.8408 33.9186 49.2618C34.6599 48.5152 34.9915 47.4501 35.0501 46.4149C35.1184 45.4195 35.0013 44.3942 34.5428 43.4984C34.2267 42.8487 33.7404 42.3009 33.1381 41.9157C32.7448 41.6864 32.3077 41.5464 31.8565 41.5052C31.4054 41.464 30.9509 41.5225 30.5239 41.6768Z" fill="white"/>
                    </mask>
                    <g mask="url(#mask2_0_5348)">
                        <path d="M28.0366 41.4876H35.1183V50.4861H28.0366V41.4876Z" fill="url(#paint12_linear_0_5348)"/>
                    </g>
                    <mask id="mask3_0_5348" style="mask-type:luminance" maskUnits="userSpaceOnUse" x="36" y="41" width="11" height="10">
                        <path d="M37.9277 41.5673C37.3229 41.9057 36.962 42.5627 36.3474 42.8912C36.5523 43.1002 36.6693 43.3789 36.6693 43.6775C36.6791 44.2449 36.523 44.8023 36.4645 45.3697C36.3132 46.3467 36.3231 47.3425 36.4938 48.3161C36.6008 48.9124 36.8994 49.4552 37.3424 49.859C37.8496 50.2572 38.5616 50.2771 39.1371 50.0382C39.8976 49.6924 40.5131 49.082 40.8735 48.3161C41.0588 48.7641 41.2733 49.212 41.5952 49.5703C41.9464 49.9785 42.4928 50.1974 43.0195 50.1775C43.673 50.1576 44.2778 49.8092 44.7168 49.3215C45.5828 48.3024 46.0878 47.0157 46.1507 45.6683C46.2385 44.6331 46.1312 43.4984 45.4971 42.6423C45.2435 42.274 44.7948 42.0152 44.3461 42.1446C43.8096 42.3138 43.4389 42.7817 43.1073 43.2196C43.5755 43.3092 43.9461 43.6875 44.0924 44.1354C44.2873 44.8349 44.2873 45.576 44.0924 46.2755C43.98 46.8783 43.7219 47.4429 43.3414 47.918C43.1561 48.127 42.8244 48.2365 42.5708 48.0673C42.2977 47.8582 42.2391 47.48 42.2099 47.1615C42.1611 46.1959 42.3074 45.2304 42.4635 44.2847C42.5025 44.1056 42.4537 43.9363 42.3659 43.7771C42.0538 43.6278 41.7124 43.7273 41.41 43.8667C41.0784 44.016 40.7467 44.1653 40.4053 44.2947C40.4541 44.4639 40.5027 44.6331 40.493 44.8123C40.4695 45.7604 40.2148 46.6875 39.7518 47.5098C39.5664 47.8184 39.2348 48.1668 38.8446 48.0573C38.5422 47.918 38.4154 47.5596 38.3764 47.251C38.3374 46.6936 38.4348 46.1362 38.5714 45.5887C38.7762 44.6232 39.0591 43.6676 39.1176 42.6722C39.1274 42.3437 39.1274 41.9754 38.9128 41.7066C38.8464 41.6318 38.765 41.5726 38.674 41.5331C38.5831 41.4936 38.4849 41.4747 38.3861 41.4777C38.2105 41.4478 38.0545 41.4876 37.9277 41.5673Z" fill="white"/>
                    </mask>
                    <g mask="url(#mask3_0_5348)">
                        <path d="M36.2692 41.4478H46.2285V50.2771H36.2692V41.4478Z" fill="url(#paint13_linear_0_5348)"/>
                    </g>
                </g>
                <path d="M49.1702 50.0337V48.4293L51.9098 46.2315C52.6 45.682 52.8509 45.3084 52.8509 44.8468C52.8509 44.3633 52.5268 44.0666 52.0353 44.0666C51.5438 44.0666 51.157 44.3633 50.5818 45.0556L49.212 43.8578C49.9963 42.7919 50.7701 42.2095 52.1922 42.2095C53.792 42.2095 54.89 43.2095 54.89 44.682C54.89 45.9128 54.2939 46.5611 53.196 47.3743L51.9412 48.2974H54.9632V50.0337H49.1702Z" fill="url(#paint14_linear_0_5348)"/>
                <path d="M59.1565 50.1875C57.0652 50.1875 55.779 48.3853 55.779 46.1875C55.779 44.0117 57.0965 42.1875 59.1774 42.1875C61.2583 42.1875 62.5549 43.9897 62.5549 46.1875C62.5549 48.3633 61.2478 50.1875 59.1565 50.1875ZM59.1774 48.2974C59.993 48.2974 60.5159 47.4293 60.5159 46.1875C60.5159 44.9677 59.9617 44.0776 59.1565 44.0776C58.3513 44.0776 57.8181 44.9348 57.8181 46.1875C57.8181 47.4183 58.3618 48.2974 59.1774 48.2974Z" fill="url(#paint15_linear_0_5348)"/>
                <path d="M63.2314 50.0337V48.4293L65.9711 46.2315C66.6612 45.682 66.9121 45.3084 66.9121 44.8468C66.9121 44.3633 66.5879 44.0666 66.0965 44.0666C65.605 44.0666 65.2181 44.3633 64.643 45.0556L63.2732 43.8578C64.0574 42.7919 64.8312 42.2095 66.2533 42.2095C67.8532 42.2095 68.9511 43.2095 68.9511 44.682C68.9511 45.9128 68.3551 46.5611 67.2572 47.3743L66.0024 48.2974H69.0243V50.0337H63.2314Z" fill="url(#paint16_linear_0_5348)"/>
                <path d="M73.2737 50.0337V48.5391H69.7289L69.3943 47.0337L73.1901 42.2864H75.2396V46.9457H76.1702V48.5391H75.2396V50.0337H73.2737ZM71.5275 46.9567H73.2737V44.7479L71.5275 46.9567Z" fill="url(#paint17_linear_0_5348)"/>
            </g>
        </g>
    </g>
    <defs>
        <linearGradient id="paint0_linear_0_5348" x1="8.10986" y1="1.1875" x2="11.4984" y2="1.99094" gradientUnits="userSpaceOnUse">
            <stop stop-color="#FFE141"/>
            <stop offset="1" stop-color="#F2B61B"/>
        </linearGradient>
        <linearGradient id="paint1_linear_0_5348" x1="4.35157" y1="5.08704" x2="7.7424" y2="5.8919" gradientUnits="userSpaceOnUse">
            <stop stop-color="#FFE141"/>
            <stop offset="1" stop-color="#F2B61B"/>
        </linearGradient>
        <linearGradient id="paint2_linear_0_5348" x1="1.76783" y1="10.1373" x2="5.4945" y2="11.1968" gradientUnits="userSpaceOnUse">
            <stop stop-color="#FFE141"/>
            <stop offset="1" stop-color="#F2B61B"/>
        </linearGradient>
        <linearGradient id="paint3_linear_0_5348" x1="0.170166" y1="1.96545" x2="26.3481" y2="9.48562" gradientUnits="userSpaceOnUse">
            <stop stop-color="#FFE141"/>
            <stop offset="1" stop-color="#F2B61B"/>
        </linearGradient>
        <linearGradient id="paint4_linear_0_5348" x1="83.6687" y1="1.1875" x2="87.0578" y2="1.99121" gradientUnits="userSpaceOnUse">
            <stop stop-color="#FFE141"/>
            <stop offset="1" stop-color="#F2B61B"/>
        </linearGradient>
        <linearGradient id="paint5_linear_0_5348" x1="87.3804" y1="5.08704" x2="90.7711" y2="5.89185" gradientUnits="userSpaceOnUse">
            <stop stop-color="#FFE141"/>
            <stop offset="1" stop-color="#F2B61B"/>
        </linearGradient>
        <linearGradient id="paint6_linear_0_5348" x1="89.6824" y1="10.1372" x2="93.4085" y2="11.1963" gradientUnits="userSpaceOnUse">
            <stop stop-color="#FFE141"/>
            <stop offset="1" stop-color="#F2B61B"/>
        </linearGradient>
        <linearGradient id="paint7_linear_0_5348" x1="75.5873" y1="1.96271" x2="101.765" y2="9.48287" gradientUnits="userSpaceOnUse">
            <stop stop-color="#FFE141"/>
            <stop offset="1" stop-color="#F2B61B"/>
        </linearGradient>
        <linearGradient id="paint8_linear_0_5348" x1="31.1702" y1="0.187518" x2="46.3911" y2="24.5466" gradientUnits="userSpaceOnUse">
            <stop stop-color="#FFE141"/>
            <stop offset="1" stop-color="#F2B61B"/>
        </linearGradient>
        <linearGradient id="paint9_linear_0_5348" x1="20.1702" y1="13.1875" x2="31.6472" y2="42.5753" gradientUnits="userSpaceOnUse">
            <stop stop-color="#FFE141"/>
            <stop offset="1" stop-color="#F2B61B"/>
        </linearGradient>
        <linearGradient id="paint10_linear_0_5348" x1="21.1702" y1="26.1875" x2="32.9546" y2="55.2848" gradientUnits="userSpaceOnUse">
            <stop stop-color="#FFE141"/>
            <stop offset="1" stop-color="#F2B61B"/>
        </linearGradient>
        <linearGradient id="paint11_linear_0_5348" x1="17.1018" y1="41.4478" x2="28.2313" y2="48.2879" gradientUnits="userSpaceOnUse">
            <stop stop-color="#FFE141"/>
            <stop offset="1" stop-color="#F2B61B"/>
        </linearGradient>
        <linearGradient id="paint12_linear_0_5348" x1="28.0366" y1="41.4876" x2="37.2803" y2="45.4793" gradientUnits="userSpaceOnUse">
            <stop stop-color="#FFE141"/>
            <stop offset="1" stop-color="#F2B61B"/>
        </linearGradient>
        <linearGradient id="paint13_linear_0_5348" x1="36.2692" y1="41.4478" x2="47.4212" y2="48.35" gradientUnits="userSpaceOnUse">
            <stop stop-color="#FFE141"/>
            <stop offset="1" stop-color="#F2B61B"/>
        </linearGradient>
        <linearGradient id="paint14_linear_0_5348" x1="49.1702" y1="42.1875" x2="58.6106" y2="59.6697" gradientUnits="userSpaceOnUse">
            <stop stop-color="#FFE141"/>
            <stop offset="1" stop-color="#F2B61B"/>
        </linearGradient>
        <linearGradient id="paint15_linear_0_5348" x1="49.1702" y1="42.1875" x2="58.6106" y2="59.6697" gradientUnits="userSpaceOnUse">
            <stop stop-color="#FFE141"/>
            <stop offset="1" stop-color="#F2B61B"/>
        </linearGradient>
        <linearGradient id="paint16_linear_0_5348" x1="49.1701" y1="42.1875" x2="58.6105" y2="59.6697" gradientUnits="userSpaceOnUse">
            <stop stop-color="#FFE141"/>
            <stop offset="1" stop-color="#F2B61B"/>
        </linearGradient>
        <linearGradient id="paint17_linear_0_5348" x1="49.1702" y1="42.1875" x2="58.6106" y2="59.6697" gradientUnits="userSpaceOnUse">
            <stop stop-color="#FFE141"/>
            <stop offset="1" stop-color="#F2B61B"/>
        </linearGradient>
        <clipPath id="clip0_0_5348">
            <rect width="94" height="50" fill="white" transform="translate(0.170166 0.1875)"/>
        </clipPath>
        <clipPath id="clip1_0_5348">
            <rect width="94" height="50" fill="white" transform="translate(0.170166 0.1875)"/>
        </clipPath>
        <clipPath id="clip2_0_5348">
            <rect width="94" height="50" fill="white" transform="translate(0.170166 0.1875)"/>
        </clipPath>
    </defs>
</svg>
