<svg width="101" height="59" viewBox="0 0 101 59" fill="none" xmlns="http://www.w3.org/2000/svg">
    <g clip-path="url(#clip0_0_5356)">
        <g clip-path="url(#clip1_0_5356)">
            <g clip-path="url(#clip2_0_5356)">
                <mask id="mask0_0_5356" style="mask-type:luminance" maskUnits="userSpaceOnUse" x="0" y="0" width="100" height="58">
                    <path d="M99.3002 0.1875H0.170166V57.4675H99.3002V0.1875Z" fill="white"/>
                </mask>
                <g mask="url(#mask0_0_5356)">
                    <path d="M65.5103 49.6975C65.5239 49.5844 65.5081 49.4697 65.4643 49.3646C65.4204 49.2594 65.3502 49.1674 65.2603 49.0975C65.0879 48.9859 64.8854 48.93 64.6803 48.9375H64.4903V50.5975H64.6003C64.7329 50.6126 64.8672 50.5979 64.9934 50.5547C65.1197 50.5115 65.2347 50.4407 65.3303 50.3475C65.4449 50.202 65.5081 50.0227 65.5103 49.8375V49.6775V49.6975Z" fill="url(#paint0_linear_0_5356)"/>
                    <path d="M44.8802 52.1375H45.7702L45.2602 49.4575L44.8802 52.1375Z" fill="url(#paint1_linear_0_5356)"/>
                    <path d="M55.2801 51.5475C55.1694 51.4681 55.0363 51.4261 54.9001 51.4275H54.8001V53.0875H54.9201C55.0185 53.0911 55.1165 53.0722 55.2066 53.0324C55.2967 52.9926 55.3765 52.9328 55.4401 52.8575C55.5767 52.6847 55.6444 52.4674 55.6301 52.2475C55.6302 52.1092 55.5995 51.9725 55.5401 51.8475C55.4793 51.7277 55.39 51.6247 55.2801 51.5475Z" fill="url(#paint2_linear_0_5356)"/>
                    <path d="M55.3403 50.3775C55.4117 50.2957 55.4661 50.2006 55.5005 50.0976C55.5348 49.9946 55.5483 49.8858 55.5403 49.7775C55.5501 49.6061 55.5193 49.4348 55.4503 49.2775C55.4295 49.2279 55.3982 49.1834 55.3585 49.1471C55.3187 49.1109 55.2716 49.0837 55.2203 49.0675C55.0713 49.0431 54.9193 49.0431 54.7703 49.0675V50.5975H54.8903C55.0634 50.5862 55.225 50.5071 55.3403 50.3775Z" fill="url(#paint3_linear_0_5356)"/>
                    <path d="M75.8001 44.5175H23.6701L19.6101 50.9875L23.6701 57.4675H75.8001L79.8601 50.9875L75.8001 44.5175ZM30.0601 54.0475L29.8601 53.0475H28.6501L28.4001 54.0475H27.1901L28.5901 47.9275H29.8601L31.3301 54.0475H30.0601ZM34.4001 53.2275C34.3065 53.4057 34.1849 53.5677 34.0401 53.7075C33.8934 53.8425 33.7242 53.9508 33.5401 54.0275C33.3403 54.1094 33.1261 54.1502 32.9101 54.1475C32.5385 54.1383 32.1747 54.0388 31.8501 53.8575V52.6475C31.9581 52.7617 32.0884 52.8526 32.2328 52.9145C32.3773 52.9765 32.533 53.0081 32.6901 53.0075C32.8763 53.0126 33.059 52.9564 33.2101 52.8475C33.2794 52.7942 33.336 52.7262 33.3758 52.6484C33.4155 52.5706 33.4375 52.4849 33.4401 52.3975C33.4405 52.2553 33.3988 52.1161 33.3201 51.9975C33.2405 51.8887 33.15 51.7882 33.0501 51.6975L32.6801 51.4275C32.5668 51.3568 32.4598 51.2765 32.3601 51.1875C32.1237 51.0054 31.9336 50.7702 31.805 50.5009C31.6764 50.2316 31.6131 49.9358 31.6201 49.6375C31.6204 49.4039 31.6541 49.1716 31.7201 48.9475C31.8182 48.6368 32.0148 48.3666 32.2801 48.1775C32.5492 47.9975 32.8665 47.9034 33.1901 47.9075C33.5418 47.9148 33.8858 48.0111 34.1901 48.1875V49.3775C33.9608 49.1541 33.6596 49.0194 33.3401 48.9975C33.2611 48.9933 33.182 49.0056 33.108 49.0336C33.0339 49.0616 32.9666 49.1048 32.9101 49.1603C32.8537 49.2158 32.8094 49.2824 32.7801 49.356C32.7509 49.4296 32.7372 49.5084 32.7401 49.5875C32.7411 49.7157 32.7793 49.8407 32.8501 49.9475C32.9285 50.0605 33.019 50.1644 33.1201 50.2575C33.2685 50.3941 33.4255 50.521 33.5901 50.6375L33.9301 50.9075C34.077 51.024 34.2051 51.1623 34.3101 51.3175C34.4085 51.4626 34.4859 51.6208 34.5401 51.7875C34.5918 51.9561 34.6188 52.1312 34.6201 52.3075C34.6167 52.6268 34.5415 52.9412 34.4001 53.2275ZM37.5301 54.0475L36.3801 51.0475V54.0475H35.1701V47.9275H36.3801V50.7375L37.3801 47.9275H38.6801L37.5301 50.8675L38.8001 54.0475H37.5301ZM43.1501 51.9875C43.1501 52.1875 43.1001 52.3175 43.0801 52.3975C43.0506 52.575 43.0037 52.7492 42.9401 52.9175C42.8418 53.1914 42.6848 53.4405 42.4801 53.6475C42.2397 53.9148 41.9079 54.0824 41.5501 54.1175H41.2501C40.79 54.1297 40.3427 53.965 40.0001 53.6575C39.6654 53.3344 39.4177 52.932 39.2801 52.4875C39.1262 51.9887 39.0486 51.4695 39.0501 50.9475C39.0501 50.7575 39.0501 50.5575 39.0501 50.3575C39.0694 50.0466 39.1334 49.7401 39.2401 49.4475C39.3791 49.0445 39.6083 48.6785 39.9101 48.3775C40.0657 48.2081 40.2563 48.0747 40.4688 47.9866C40.6812 47.8985 40.9104 47.8579 41.1401 47.8675C41.3667 47.8735 41.5917 47.9071 41.8101 47.9675C42.0948 48.0368 42.3503 48.1943 42.5401 48.4175C42.7355 48.6937 42.8967 48.9926 43.0201 49.3075L41.8701 49.7575C41.8724 49.6189 41.8416 49.4818 41.7801 49.3575C41.7256 49.248 41.647 49.1523 41.5501 49.0775C41.4514 49.0146 41.3372 48.98 41.2201 48.9775C41.0797 48.9807 40.9449 49.0339 40.8401 49.1275C40.7022 49.2444 40.5985 49.3964 40.5401 49.5675C40.4637 49.7554 40.4197 49.9549 40.4101 50.1575C40.397 50.384 40.397 50.611 40.4101 50.8375C40.4101 51.0475 40.4101 51.1975 40.4101 51.2875C40.4182 51.4141 40.4182 51.541 40.4101 51.6675C40.4244 51.8789 40.4511 52.0893 40.4901 52.2975C40.5312 52.4845 40.6094 52.6613 40.7201 52.8175C40.772 52.8854 40.8369 52.9422 40.9111 52.9846C40.9852 53.027 41.0671 53.0542 41.1519 53.0644C41.2368 53.0747 41.3228 53.0678 41.4049 53.0443C41.487 53.0208 41.5636 52.9811 41.6301 52.9275C41.7528 52.8154 41.8456 52.6745 41.9001 52.5175C41.9741 52.3047 42.0179 52.0825 42.0301 51.8575H41.2001V50.6775H43.2001C43.2001 50.8775 43.2001 51.0975 43.2001 51.3175C43.2006 51.5418 43.1839 51.7658 43.1501 51.9875ZM46.1501 54.0475L45.9601 53.0475H44.7501L44.5001 54.0475H43.2801L44.6801 47.9275H45.9501L47.4101 54.0475H46.1501ZM51.7701 54.0475L51.4501 49.7775L50.7501 54.0475H49.7501L48.9901 49.7775L48.7301 54.0475H47.5001L48.0701 47.9275H49.6701L50.2801 51.6975L50.7901 47.9275H52.3801L53.0801 54.0475H51.7701ZM56.6101 53.1675C56.4819 53.4287 56.2848 53.65 56.0401 53.8075C55.773 53.972 55.4638 54.0554 55.1501 54.0475H53.5601V47.9275H55.1501C55.4951 47.9607 55.8191 48.1086 56.0701 48.3475C56.1821 48.4506 56.2797 48.5683 56.3601 48.6975C56.4627 48.8387 56.5374 48.9983 56.5801 49.1675C56.6393 49.362 56.6696 49.5642 56.6701 49.7675C56.6698 49.9228 56.6497 50.0774 56.6101 50.2275C56.561 50.3789 56.4867 50.5209 56.3901 50.6475C56.279 50.7886 56.1393 50.9044 55.9801 50.9875C56.1501 51.0673 56.3029 51.1794 56.4301 51.3175C56.5582 51.4563 56.6568 51.6196 56.7201 51.7975C56.7807 51.9745 56.8112 52.1604 56.8101 52.3475C56.809 52.6328 56.7405 52.9138 56.6101 53.1675ZM59.8801 54.0475H57.2801V47.9275H58.4801V52.9275H59.8801V54.0475ZM62.6901 49.0475H61.4801V50.3775H62.4801V51.5875H61.4801V52.9275H62.6901V54.0675H60.2101V47.9275H62.6901V49.0475ZM65.6301 54.0475L64.5501 51.1875V54.0475H63.2801V47.9275H64.8101C65.1561 47.9212 65.4987 47.9966 65.8101 48.1475C66.093 48.2911 66.3315 48.5089 66.5001 48.7775C66.6667 49.0626 66.7531 49.3874 66.7501 49.7175C66.7649 49.8772 66.7649 50.0379 66.7501 50.1975C66.7062 50.3792 66.6244 50.5496 66.5101 50.6975C66.3452 50.9194 66.1379 51.1063 65.9001 51.2475L66.9901 54.0475H65.6301ZM70.1001 53.2275C70.0101 53.4053 69.8919 53.5674 69.7501 53.7075C69.6034 53.8425 69.4342 53.9508 69.2501 54.0275C69.0498 54.1076 68.8359 54.1483 68.6201 54.1475C68.2483 54.1395 67.8842 54.0399 67.5601 53.8575V52.6475C67.6681 52.7617 67.7984 52.8526 67.9428 52.9145C68.0873 52.9765 68.243 53.0081 68.4001 53.0075C68.5835 53.0142 68.7635 52.9577 68.9101 52.8475C68.9793 52.7934 69.0364 52.7254 69.0777 52.6479C69.119 52.5704 69.1437 52.4851 69.1501 52.3975C69.1516 52.2536 69.1059 52.1131 69.0201 51.9975C68.9462 51.8842 68.8551 51.783 68.7501 51.6975C68.6326 51.5998 68.5091 51.5096 68.3801 51.4275C68.2715 51.3547 68.1679 51.2745 68.0701 51.1875C67.8251 51.0102 67.6258 50.7772 67.4884 50.5077C67.3511 50.2382 67.2797 49.94 67.2801 49.6375C67.2841 49.4035 67.3211 49.1712 67.3901 48.9475C67.4822 48.6366 67.6759 48.3655 67.9401 48.1775C68.2078 47.9946 68.526 47.9001 68.8501 47.9075C69.2023 47.9112 69.5473 48.0078 69.8501 48.1875V49.3775C69.6208 49.1541 69.3196 49.0194 69.0001 48.9975C68.9206 48.9949 68.8414 49.0086 68.7675 49.0378C68.6935 49.0671 68.6263 49.1112 68.5701 49.1675C68.4617 49.2805 68.4008 49.4309 68.4001 49.5875C68.4001 49.7173 68.4422 49.8437 68.5201 49.9475C68.5955 50.0628 68.6863 50.1671 68.7901 50.2575C68.9369 50.3919 69.0904 50.5188 69.2501 50.6375L69.6001 50.9075C69.7439 51.0242 69.8688 51.1625 69.9701 51.3175C70.0724 51.4603 70.1501 51.6192 70.2001 51.7875C70.2566 51.9549 70.2837 52.1309 70.2801 52.3075C70.2892 52.6237 70.2277 52.938 70.1001 53.2275ZM72.1701 49.1275C72.1019 49.2439 72.0011 49.3378 71.8801 49.3975C71.7583 49.4558 71.6252 49.4865 71.4901 49.4875C71.2832 49.4936 71.0821 49.4182 70.9301 49.2775C70.8495 49.2048 70.7861 49.115 70.7446 49.0146C70.7031 48.9143 70.6845 48.806 70.6901 48.6975C70.6934 48.5944 70.7182 48.493 70.763 48.4C70.8078 48.307 70.8715 48.2244 70.9501 48.1575C71.1021 48.0246 71.2983 47.9533 71.5001 47.9575C71.6274 47.9604 71.753 47.9875 71.8701 48.0375C71.9858 48.0965 72.0827 48.1866 72.1501 48.2975C72.2318 48.4152 72.277 48.5543 72.2801 48.6975C72.2832 48.8482 72.2452 48.9968 72.1701 49.1275Z" fill="url(#paint4_linear_0_5356)"/>
                    <path d="M28.7803 52.1375H29.6703L29.1703 49.4575L28.7803 52.1375Z" fill="url(#paint5_linear_0_5356)"/>
                    <path d="M14.5501 6.22751C14.7689 6.74236 15.0932 7.20559 15.5021 7.58729C15.9111 7.96899 16.3955 8.26067 16.9242 8.4435C17.4529 8.62632 18.014 8.69622 18.5714 8.64869C19.1288 8.60115 19.67 8.43723 20.1601 8.16752C19.9413 7.65267 19.617 7.18944 19.208 6.80774C18.7991 6.42603 18.3146 6.13435 17.786 5.95153C17.2573 5.76871 16.6961 5.6988 16.1388 5.74634C15.5814 5.79388 15.0402 5.9578 14.5501 6.22751Z" fill="url(#paint6_linear_0_5356)"/>
                    <path d="M12.0002 6.02752C12.0984 5.47803 12.0788 4.91394 11.9426 4.37261C11.8064 3.83128 11.5568 3.32507 11.2102 2.88751C10.738 3.18726 10.334 3.58269 10.0241 4.04826C9.71421 4.51383 9.50542 5.03921 9.41119 5.59048C9.31696 6.14174 9.33937 6.70664 9.47698 7.2487C9.61459 7.79077 9.86435 8.29795 10.2102 8.73751C10.6844 8.43946 11.0895 8.04346 11.3982 7.57607C11.7069 7.10868 11.9122 6.5807 12.0002 6.02752Z" fill="url(#paint7_linear_0_5356)"/>
                    <path d="M6.85592 13.029C7.56377 12.9089 7.91515 11.5005 7.64076 9.88337C7.36636 8.26619 6.5701 7.05258 5.86224 7.17269C5.15439 7.29279 4.803 8.70113 5.0774 10.3183C5.35179 11.9355 6.14806 13.1491 6.85592 13.029Z" fill="url(#paint8_linear_0_5356)"/>
                    <path d="M4.66005 18.1875C4.9034 17.6834 5.03826 17.1339 5.0559 16.5744C5.07353 16.015 4.97355 15.458 4.76242 14.9397C4.5513 14.4213 4.23372 13.953 3.83023 13.565C3.42675 13.1771 2.94633 12.8781 2.42005 12.6875C2.17669 13.1916 2.04183 13.7411 2.0242 14.3006C2.00656 14.86 2.10654 15.4169 2.31767 15.9353C2.5288 16.4537 2.84637 16.922 3.24986 17.31C3.65335 17.6979 4.13376 17.9969 4.66005 18.1875Z" fill="url(#paint9_linear_0_5356)"/>
                    <path d="M21.0802 2.06753C20.0775 2.30931 19.2069 2.92911 18.6502 3.79753C17.3415 4.22827 16.0759 4.78069 14.8702 5.44753C15.5897 4.96615 16.1336 4.26435 16.4202 3.44753C16.6046 2.92079 16.6767 2.3613 16.632 1.80502C16.5872 1.24875 16.4265 0.707992 16.1602 0.217529C15.6454 0.436305 15.1822 0.760638 14.8005 1.16958C14.4188 1.57852 14.1271 2.06297 13.9442 2.59166C13.7614 3.12034 13.6915 3.68148 13.7391 4.23886C13.7866 4.79624 13.9505 5.33745 14.2202 5.82753L14.3702 5.75753C11.3577 7.42491 8.83456 9.85235 7.052 12.7981C5.26943 15.7439 4.28964 19.1053 4.2102 22.5475C4.2102 22.6975 4.2102 22.8475 4.2102 22.9975C4.10494 22.1539 3.73366 21.3658 3.1502 20.7475C2.76813 20.3354 2.3035 20.0084 1.78659 19.7879C1.26969 19.5673 0.712109 19.4582 0.150199 19.4675C0.101688 20.0318 0.173558 20.6 0.361056 21.1344C0.548555 21.6688 0.847406 22.1573 1.23784 22.5676C1.62827 22.9779 2.10137 23.3006 2.62585 23.5143C3.15032 23.7281 3.71421 23.828 4.2802 23.8075V23.5875C4.37136 25.1102 4.65357 26.6153 5.1202 28.0675C4.74248 27.2061 4.07329 26.5054 3.2302 26.0884C2.38711 25.6715 1.42405 25.5649 0.510198 25.7875C0.587687 26.3422 0.780782 26.8744 1.07698 27.3497C1.37318 27.8249 1.76589 28.2327 2.22967 28.5466C2.69346 28.8605 3.21799 29.0736 3.76932 29.1719C4.32065 29.2702 4.88649 29.2517 5.4302 29.1175C5.4302 28.9975 5.4302 28.8775 5.3602 28.7575C5.86886 30.1642 6.54008 31.5066 7.3602 32.7575C6.96348 32.2988 6.46764 31.9364 5.9102 31.6975C5.40002 31.4715 4.8482 31.3548 4.2902 31.3548C3.73221 31.3548 3.18039 31.4715 2.6702 31.6975C2.84891 32.227 3.13846 32.7122 3.51956 33.1209C3.90065 33.5296 4.36451 33.8523 4.8802 34.0675C5.39039 34.2935 5.94221 34.4103 6.5002 34.4103C7.0582 34.4103 7.61002 34.2935 8.1202 34.0675C8.0481 33.8615 7.96121 33.661 7.8602 33.4675C8.68848 34.6185 9.6335 35.6808 10.6802 36.6375C9.97308 36.1603 9.13361 35.918 8.28096 35.9449C7.42831 35.9719 6.60581 36.2667 5.9302 36.7875C6.22988 37.2612 6.62575 37.6666 7.09216 37.9774C7.55857 38.2883 8.0851 38.4976 8.63761 38.5919C9.19013 38.6862 9.75629 38.6633 10.2994 38.5247C10.8425 38.3862 11.3504 38.135 11.7902 37.7875C11.6713 37.6067 11.5375 37.4361 11.3902 37.2775C14.2771 39.6672 17.714 41.2997 21.3902 42.0275L21.4902 41.5275C18.1311 40.8609 14.974 39.4194 12.2702 37.3175C12.7227 37.0079 13.1066 36.6085 13.3983 36.1442C13.6899 35.6799 13.883 35.1607 13.9655 34.6186C14.048 34.0766 14.0182 33.5234 13.878 32.9934C13.7377 32.4633 13.49 31.9678 13.1502 31.5375C12.2586 32.1098 11.6305 33.0124 11.4037 34.0473C11.1768 35.0822 11.3698 36.1648 11.9402 37.0575C10.7347 36.0807 9.64735 34.9665 8.7002 33.7375C9.20493 33.5518 9.66604 33.2642 10.0548 32.8926C10.4437 32.521 10.7519 32.0733 10.9602 31.5775C11.1877 31.066 11.3052 30.5124 11.3052 29.9525C11.3052 29.3927 11.1877 28.8391 10.9602 28.3275C10.4594 28.4896 9.99543 28.7489 9.59502 29.0907C9.19461 29.4324 8.86559 29.8498 8.62683 30.319C8.38807 30.7882 8.24427 31.2998 8.20366 31.8247C8.16305 32.3495 8.22645 32.8772 8.3902 33.3775C7.36589 32.0025 6.5317 30.4956 5.9102 28.8975C6.46199 28.8174 6.99093 28.6227 7.46306 28.3261C7.93519 28.0294 8.34008 27.6374 8.65176 27.175C8.96344 26.7127 9.17502 26.1903 9.27291 25.6414C9.3708 25.0924 9.35285 24.5291 9.2202 23.9875C8.67977 24.0638 8.16069 24.25 7.69488 24.5344C7.22907 24.8188 6.82641 25.1956 6.51166 25.6415C6.19691 26.0874 5.97674 26.593 5.86471 27.1271C5.75267 27.6613 5.75114 28.2127 5.8602 28.7475C5.2598 27.1415 4.89274 25.4577 4.7702 23.7475C5.3276 23.7952 5.88878 23.7253 6.41751 23.5426C6.94624 23.3598 7.43076 23.0682 7.83976 22.6865C8.24876 22.3048 8.57315 21.8416 8.79199 21.3268C9.01082 20.8119 9.11923 20.2569 9.1102 19.6975C8.55705 19.6503 8.00012 19.7188 7.47487 19.8986C6.94961 20.0784 6.46754 20.3655 6.05931 20.7418C5.65108 21.118 5.32564 21.5751 5.10371 22.084C4.88177 22.5929 4.76819 23.1424 4.7702 23.6975C4.7702 23.3175 4.7702 22.9375 4.7702 22.5575C4.76645 21.1254 4.93772 19.6981 5.2802 18.3075C5.78313 18.542 6.32933 18.6693 6.8841 18.6813C7.43887 18.6932 7.99006 18.5897 8.50264 18.3771C9.01521 18.1645 9.47795 17.8477 9.86145 17.4466C10.245 17.0456 10.5408 16.5691 10.7302 16.0475C10.2264 15.8073 9.67773 15.6752 9.11973 15.6597C8.56172 15.6442 8.00664 15.7456 7.4902 15.9575C6.56092 16.336 5.8078 17.0498 5.3802 17.9575C5.82758 16.3095 6.50061 14.7312 7.3802 13.2675C7.81776 13.6141 8.32397 13.8638 8.8653 14C9.40663 14.1362 9.97072 14.1558 10.5202 14.0575C11.0712 13.9664 11.5969 13.761 12.0637 13.4544C12.5304 13.1479 12.9278 12.747 13.2302 12.2775C12.7961 11.9352 12.2956 11.6866 11.7605 11.5474C11.2254 11.4082 10.6673 11.3815 10.1213 11.4689C9.57538 11.5563 9.05348 11.7559 8.58856 12.0551C8.12365 12.3544 7.72582 12.7468 7.4202 13.2075C8.32538 11.7388 9.41789 10.3942 10.6702 9.20753C10.9745 9.66728 11.3705 10.0592 11.8334 10.3586C12.2963 10.658 12.8162 10.8585 13.3602 10.9475C13.9105 11.0406 14.4741 11.0175 15.0149 10.8797C15.5556 10.7419 16.0616 10.4925 16.5002 10.1475C16.2152 9.7022 15.8446 9.3178 15.4101 9.01658C14.9755 8.71535 14.4855 8.50328 13.9685 8.39262C13.4514 8.28195 12.9176 8.2749 12.3978 8.37187C11.878 8.46883 11.3826 8.66789 10.9402 8.95753C13.2399 6.8504 15.9693 5.26732 18.9402 4.31753C19.8759 4.77629 20.9521 4.85774 21.9461 4.54501C22.9401 4.23229 23.7758 3.54934 24.2802 2.63753C23.8164 2.32385 23.292 2.11103 22.7407 2.01284C22.1895 1.91465 21.6238 1.93328 21.0802 2.06753Z" fill="url(#paint10_linear_0_5356)"/>
                    <path d="M84.9203 6.22751C84.429 5.95265 83.8852 5.7846 83.3245 5.73435C82.7637 5.6841 82.1987 5.75278 81.6663 5.9359C81.134 6.11901 80.6463 6.41244 80.2351 6.797C79.8239 7.18155 79.4986 7.64857 79.2803 8.16751C79.7704 8.43722 80.3116 8.60114 80.869 8.64868C81.4264 8.69622 81.9875 8.62632 82.5162 8.44349C83.0449 8.26067 83.5293 7.96899 83.9383 7.58729C84.3472 7.20559 84.6715 6.74235 84.8903 6.22751H84.9203Z" fill="url(#paint11_linear_0_5356)"/>
                    <path d="M89.2802 8.73751C89.626 8.29795 89.8757 7.79077 90.0134 7.2487C90.151 6.70664 90.1734 6.14174 90.0792 5.59048C89.9849 5.03921 89.7761 4.51383 89.4663 4.04826C89.1564 3.58269 88.7524 3.18726 88.2802 2.88751C87.9345 3.32707 87.6847 3.83426 87.5471 4.37632C87.4095 4.91839 87.3871 5.48329 87.4813 6.03455C87.5755 6.58582 87.7843 7.11119 88.0942 7.57677C88.404 8.04234 88.8081 8.43777 89.2802 8.73751Z" fill="url(#paint12_linear_0_5356)"/>
                    <path d="M94.4003 10.3175C94.4962 9.76637 94.4754 9.20128 94.3394 8.6587C94.2033 8.11612 93.9549 7.60811 93.6103 7.16748C93.1382 7.46723 92.7341 7.86265 92.4243 8.32822C92.1144 8.7938 91.9056 9.31918 91.8114 9.87044C91.7171 10.4217 91.7396 10.9866 91.8772 11.5287C92.0148 12.0707 92.2645 12.5779 92.6103 13.0175C93.0805 12.7171 93.4826 12.3218 93.7909 11.8568C94.0991 11.3918 94.3067 10.8675 94.4003 10.3175Z" fill="url(#paint13_linear_0_5356)"/>
                    <path d="M94.8102 18.1875C95.3365 17.9969 95.8169 17.6979 96.2204 17.31C96.6239 16.922 96.9414 16.4537 97.1525 15.9353C97.3637 15.4169 97.4637 14.86 97.4461 14.3006C97.4284 13.7411 97.2935 13.1916 97.0501 12.6875C96.5238 12.8781 96.0435 13.1771 95.64 13.565C95.2365 13.953 94.9189 14.4213 94.7077 14.9397C94.4966 15.458 94.3967 16.015 94.4144 16.5744C94.432 17.1339 94.5669 17.6834 94.8102 18.1875Z" fill="url(#paint14_linear_0_5356)"/>
                    <path d="M95.8102 26.3775C95.1877 26.7965 94.6957 27.3821 94.3902 28.0675C94.8568 26.6153 95.139 25.1101 95.2302 23.5875C95.2252 23.6607 95.2252 23.7343 95.2302 23.8075C95.7895 23.8165 96.3446 23.7081 96.8594 23.4893C97.3743 23.2704 97.8375 22.9461 98.2192 22.5371C98.6008 22.1281 98.8925 21.6435 99.0752 21.1148C99.258 20.5861 99.3278 20.0249 99.2802 19.4675C98.7183 19.4581 98.1607 19.5673 97.6438 19.7878C97.1269 20.0084 96.6623 20.3354 96.2802 20.7475C95.7214 21.3755 95.3719 22.1619 95.2802 22.9975C95.2802 22.8475 95.2802 22.6975 95.2802 22.5475C95.2047 19.0991 94.2269 15.7307 92.4443 12.7778C90.6617 9.82488 88.1365 7.39062 85.1202 5.7175L85.2702 5.7975C85.5385 5.30428 85.7 4.7601 85.7442 4.20036C85.7883 3.64062 85.7141 3.07785 85.5264 2.54868C85.3387 2.01951 85.0416 1.53578 84.6547 1.12897C84.2677 0.722157 83.7994 0.401378 83.2802 0.1875C82.7974 1.06747 82.6632 2.09676 82.904 3.07113C83.1448 4.0455 83.7431 4.89373 84.5802 5.4475C83.371 4.78061 82.1022 4.22821 80.7902 3.7975C80.5027 3.34625 80.1275 2.95727 79.687 2.6536C79.2464 2.34992 78.7494 2.13773 78.2254 2.02956C77.7014 1.9214 77.161 1.91948 76.6362 2.0239C76.1114 2.12832 75.6129 2.33697 75.1702 2.6375C75.6741 3.56576 76.5246 4.25705 77.5363 4.56055C78.5479 4.86405 79.6386 4.75511 80.5702 4.2575C83.5411 5.20729 86.2706 6.79037 88.5702 8.8975C88.1278 8.60786 87.6324 8.4088 87.1126 8.31184C86.5928 8.21487 86.059 8.22193 85.5419 8.33259C85.0249 8.44325 84.5349 8.65533 84.1004 8.95655C83.6658 9.25777 83.2953 9.64217 83.0102 10.0875C83.4455 10.4327 83.9479 10.6834 84.4855 10.8237C85.023 10.9641 85.5839 10.9908 86.1324 10.9024C86.6808 10.814 87.2049 10.6123 87.6711 10.3101C88.1373 10.008 88.5355 9.61202 88.8402 9.1475C90.0907 10.3358 91.183 11.6802 92.0902 13.1475C91.7838 12.6875 91.3854 12.296 90.9201 11.9977C90.4548 11.6994 89.9327 11.5008 89.3868 11.4143C88.8409 11.3279 88.283 11.3555 87.7483 11.4955C87.2136 11.6354 86.7137 11.8847 86.2802 12.2275C86.5826 12.6969 86.98 13.0978 87.4468 13.4044C87.9135 13.711 88.4393 13.9164 88.9902 14.0075C89.5397 14.1058 90.1038 14.0861 90.6451 13.95C91.1864 13.8138 91.6926 13.5641 92.1302 13.2175C93.0115 14.6803 93.6847 16.2588 94.1302 17.9075C93.7026 16.9998 92.9495 16.2859 92.0202 15.9075C91.5038 15.6956 90.9487 15.5941 90.3907 15.6096C89.8327 15.6251 89.2841 15.7572 88.7802 15.9975C88.9672 16.5315 89.2653 17.0197 89.6549 17.43C90.0444 17.8402 90.5166 18.1632 91.0402 18.3775C91.5483 18.5853 92.0937 18.6864 92.6425 18.6743C93.1913 18.6623 93.7317 18.5374 94.2302 18.3075C94.5752 19.6944 94.7499 21.1183 94.7502 22.5475C94.7502 22.9275 94.7502 23.3075 94.7502 23.6875C94.7596 23.1256 94.6504 22.568 94.4299 22.0511C94.2093 21.5342 93.8823 21.0696 93.4702 20.6875C93.0631 20.3055 92.5805 20.0129 92.0535 19.8286C91.5264 19.6443 90.9667 19.5724 90.4102 19.6175C90.4012 20.1769 90.5096 20.7319 90.7284 21.2467C90.9473 21.7616 91.2716 22.2248 91.6806 22.6065C92.0896 22.9881 92.5742 23.2798 93.1029 23.4625C93.6316 23.6453 94.1928 23.7151 94.7502 23.6675C94.6344 25.3787 94.2671 27.0634 93.6602 28.6675C93.7556 28.1378 93.7431 27.5942 93.6234 27.0694C93.5038 26.5446 93.2795 26.0494 92.9639 25.6133C92.6483 25.1773 92.2479 24.8094 91.7868 24.5318C91.3257 24.2541 90.8132 24.0724 90.2802 23.9975C90.1476 24.5391 90.1296 25.1024 90.2275 25.6513C90.3254 26.2003 90.537 26.7226 90.8486 27.185C91.1603 27.6473 91.5652 28.0394 92.0373 28.336C92.5095 28.6327 93.0384 28.8273 93.5902 28.9075C92.9585 30.5037 92.1142 32.0073 91.0802 33.3775C91.2501 32.8798 91.3202 32.3535 91.2864 31.8287C91.2527 31.3039 91.1158 30.7909 90.8836 30.3191C90.6514 29.8472 90.3284 29.4258 89.9332 29.0789C89.538 28.7321 89.0782 28.4665 88.5802 28.2975C88.3528 28.8091 88.2352 29.3627 88.2352 29.9225C88.2352 30.4823 88.3528 31.0359 88.5802 31.5475C88.7886 32.0433 89.0968 32.4909 89.4856 32.8625C89.8744 33.2341 90.3355 33.5218 90.8402 33.7075C89.8913 34.9316 88.8078 36.0453 87.6102 37.0275C88.1667 36.13 88.3505 35.0506 88.1226 34.0194C87.8947 32.9883 87.2731 32.0869 86.3902 31.5075C86.0504 31.9378 85.8027 32.4333 85.6624 32.9634C85.5222 33.4934 85.4924 34.0466 85.5749 34.5886C85.6574 35.1306 85.8505 35.6499 86.1421 36.1142C86.4338 36.5785 86.8177 36.9778 87.2702 37.2875C84.5664 39.3893 81.4093 40.8309 78.0502 41.4975L78.1502 41.9975C81.8278 41.2738 85.2656 39.6408 88.1502 37.2475C88.006 37.4087 87.8724 37.579 87.7502 37.7575C88.19 38.105 88.6979 38.3561 89.241 38.4947C89.7841 38.6333 90.3503 38.6562 90.9028 38.5619C91.4553 38.4676 91.9818 38.2582 92.4482 37.9474C92.9146 37.6365 93.3105 37.2312 93.6102 36.7575C92.9346 36.2366 92.1121 35.9418 91.2594 35.9149C90.4068 35.888 89.5673 36.1303 88.8602 36.6075C89.9074 35.6483 90.8555 34.5863 91.6902 33.4375C91.5819 33.6287 91.4915 33.8296 91.4202 34.0375C91.9294 34.2717 92.482 34.3963 93.0424 34.4032C93.6028 34.4102 94.1584 34.2993 94.6732 34.0777C95.188 33.8561 95.6505 33.5289 96.0307 33.1171C96.4109 32.7053 96.7003 32.2183 96.8802 31.6875C96.0942 31.3226 95.2109 31.2228 94.3633 31.4031C93.5157 31.5834 92.7496 32.0342 92.1802 32.6875C93.0003 31.4366 93.6715 30.0942 94.1802 28.6875C94.1802 28.8075 94.1302 28.9275 94.1102 29.0475C94.6539 29.1817 95.2197 29.2002 95.7711 29.1019C96.3224 29.0035 96.8469 28.7905 97.3107 28.4766C97.7745 28.1627 98.1672 27.7549 98.4634 27.2796C98.7596 26.8043 98.9527 26.2721 99.0302 25.7175C98.4774 25.5932 97.9044 25.5877 97.3493 25.7015C96.7942 25.8153 96.2695 26.0457 95.8102 26.3775Z" fill="url(#paint15_linear_0_5356)"/>
                    <path d="M29.4402 14.9475V3.3775H36.0002C38.2902 3.3775 39.3802 4.8675 39.3802 6.3775C39.4141 6.98439 39.2317 7.58363 38.8656 8.06879C38.4994 8.55395 37.9731 8.89364 37.3802 9.0275C38.0247 9.15993 38.6009 9.5174 39.0059 10.0359C39.4108 10.5545 39.6179 11.2002 39.5902 11.8575C39.6011 12.2954 39.5185 12.7306 39.3479 13.134C39.1773 13.5374 38.9226 13.8998 38.6008 14.197C38.279 14.4941 37.8976 14.7193 37.4819 14.8573C37.0662 14.9953 36.6258 15.0431 36.1902 14.9975L29.4402 14.9475ZM32.4402 7.8475H35.2802C35.5454 7.8475 35.7998 7.74214 35.9873 7.55461C36.1749 7.36707 36.2802 7.11272 36.2802 6.8475C36.2802 6.58229 36.1749 6.32793 35.9873 6.1404C35.7998 5.95286 35.5454 5.8475 35.2802 5.8475H32.3802L32.4402 7.8475ZM32.4402 12.4675H35.4402C35.5899 12.4879 35.7423 12.4741 35.8859 12.4271C36.0295 12.3802 36.1607 12.3013 36.2694 12.1964C36.3781 12.0915 36.4617 11.9633 36.5138 11.8215C36.5659 11.6796 36.5852 11.5279 36.5702 11.3775C36.5733 11.2292 36.5455 11.0819 36.4887 10.945C36.4318 10.808 36.3471 10.6843 36.2399 10.5818C36.1327 10.4793 36.0054 10.4002 35.866 10.3496C35.7266 10.2989 35.5782 10.2778 35.4302 10.2875H32.4302L32.4402 12.4675Z" fill="url(#paint16_linear_0_5356)"/>
                    <path d="M41.2803 14.9475V3.3775H49.7703V5.8875H44.2803V7.8175H49.6503V10.3775H44.2803V12.4575H49.7803V14.9775L41.2803 14.9475Z" fill="url(#paint17_linear_0_5356)"/>
                    <path d="M52.2102 11.0775C53.193 12.0562 54.5231 12.6063 55.9102 12.6075C56.9102 12.6075 57.5502 12.1675 57.5502 11.6075C57.5502 11.0475 56.8102 10.6875 55.5502 10.4275C53.6402 10.0475 50.9702 9.55748 50.9702 6.81748C50.9702 4.87748 52.6102 3.19748 55.5802 3.19748C57.2923 3.14423 58.9645 3.72061 60.2802 4.81748L58.6802 6.94748C57.7565 6.19734 56.6098 5.77524 55.4202 5.74748C54.4202 5.74748 54.0502 6.14748 54.0502 6.65748C54.0502 7.16748 54.7602 7.46748 56.0502 7.71748C57.9602 8.10748 60.6002 8.66748 60.6002 11.2875C60.6002 13.6075 58.8802 15.1575 55.7802 15.1575C54.8443 15.2057 53.9082 15.0679 53.026 14.752C52.1437 14.4362 51.3328 13.9486 50.6402 13.3175L52.2102 11.0775Z" fill="url(#paint18_linear_0_5356)"/>
                    <path d="M64.5003 14.9475V5.9475H61.2803V3.3775H70.7403V5.9775H67.4803V14.9775L64.5003 14.9475Z" fill="url(#paint19_linear_0_5356)"/>
                    <path d="M17.3903 22.6675C17.3728 21.8603 17.5218 21.0581 17.8279 20.311C18.134 19.5638 18.5908 18.8877 19.1696 18.3248C19.7485 17.7619 20.437 17.3243 21.1924 17.0391C21.9478 16.754 22.7539 16.6275 23.5603 16.6675C24.6279 16.6164 25.6865 16.8838 26.6017 17.4358C27.517 17.9878 28.2474 18.7994 28.7003 19.7675L26.1303 20.9875C25.9126 20.4865 25.5535 20.0598 25.0971 19.7596C24.6406 19.4595 24.1066 19.2989 23.5603 19.2975C22.7165 19.3627 21.9285 19.744 21.3536 20.365C20.7787 20.9861 20.4593 21.8012 20.4593 22.6475C20.4593 23.4938 20.7787 24.3089 21.3536 24.93C21.9285 25.551 22.7165 25.9323 23.5603 25.9975C24.0991 26.0034 24.6282 25.8537 25.0841 25.5664C25.54 25.279 25.9032 24.8662 26.1303 24.3775L28.7003 25.5875C28.2457 26.555 27.5152 27.3664 26.6006 27.9198C25.686 28.4732 24.6282 28.7438 23.5603 28.6975C22.7516 28.7362 21.9437 28.6079 21.1869 28.3204C20.4301 28.0329 19.7407 27.5925 19.1617 27.0266C18.5827 26.4608 18.1266 25.7816 17.8218 25.0316C17.517 24.2816 17.3701 23.4768 17.3903 22.6675Z" fill="url(#paint20_linear_0_5356)"/>
                    <path d="M37.8502 28.4475L37.2802 26.6975H32.4501L31.8602 28.4475H28.6202L32.9701 16.8775H36.7201L41.0901 28.4475H37.8502ZM34.8502 19.4475L33.2802 24.1775H36.4802L34.8502 19.4475Z" fill="url(#paint21_linear_0_5356)"/>
                    <path d="M42.6203 24.5775C43.5932 25.5465 44.9071 26.0958 46.2803 26.1075C47.2803 26.1075 47.9303 25.6675 47.9303 25.1075C47.9303 24.5475 47.1803 24.1875 45.9303 23.9275C44.0203 23.5475 41.3503 23.0575 41.3503 20.3175C41.3503 18.3775 43.0003 16.6975 45.9603 16.6975C47.6711 16.6414 49.3431 17.2142 50.6603 18.3075L49.0303 20.4375C48.1066 19.6873 46.9599 19.2652 45.7703 19.2375C44.7703 19.2375 44.4003 19.6375 44.4003 20.1475C44.4003 20.6575 45.1103 20.9575 46.4003 21.2075C48.3003 21.5975 50.9403 22.1575 50.9403 24.7775C50.9403 27.0975 49.2203 28.6475 46.1203 28.6475C45.1845 28.6946 44.2487 28.5563 43.3666 28.2405C42.4845 27.9247 41.6735 27.4377 40.9803 26.8075L42.6203 24.5775Z" fill="url(#paint22_linear_0_5356)"/>
                    <path d="M52.3902 28.4475V16.8775H55.3902V28.4475H52.3902Z" fill="url(#paint23_linear_0_5356)"/>
                    <path d="M65.3402 28.4475L60.4402 21.4475V28.4475H57.4402V16.8775H60.5102L65.2002 23.5375V16.8775H68.2002V28.4475H65.3402Z" fill="url(#paint24_linear_0_5356)"/>
                    <path d="M75.9102 16.6875C77.0876 16.7267 78.2273 17.1117 79.1874 17.7944C80.1474 18.4771 80.8852 19.4273 81.3088 20.5266C81.7324 21.6258 81.8231 22.8254 81.5695 23.9758C81.3159 25.1262 80.7292 26.1765 79.8827 26.9958C79.0362 27.815 77.9672 28.3669 76.8091 28.5826C75.651 28.7984 74.455 28.6685 73.3703 28.2091C72.2855 27.7496 71.36 26.9811 70.7091 25.9992C70.0583 25.0173 69.7108 23.8655 69.7102 22.6875C69.6909 21.8772 69.8397 21.0717 70.1471 20.3217C70.4546 19.5717 70.914 18.8936 71.4964 18.3299C72.0789 17.7662 72.7717 17.3293 73.5314 17.0466C74.291 16.764 75.1009 16.6417 75.9102 16.6875ZM75.9102 19.3175C75.2376 19.2733 74.5673 19.4325 73.9863 19.7743C73.4054 20.1161 72.9407 20.6248 72.6526 21.2341C72.3645 21.8435 72.2663 22.5255 72.3708 23.1913C72.4754 23.8572 72.7778 24.4763 73.2387 24.9681C73.6997 25.4598 74.2979 25.8016 74.9556 25.949C75.6134 26.0963 76.3002 26.0425 76.9269 25.7944C77.5536 25.5463 78.0913 25.1154 78.4699 24.5578C78.8486 24.0001 79.0507 23.3415 79.0502 22.6675C79.082 22.2371 79.0242 21.8049 78.8805 21.398C78.7367 20.9911 78.5102 20.6185 78.2151 20.3037C77.92 19.9888 77.5628 19.7386 77.166 19.5689C76.7693 19.3991 76.3417 19.3135 75.9102 19.3175Z" fill="url(#paint25_linear_0_5356)"/>
                    <path d="M29.0401 30.9375C29.9374 30.8995 30.8255 31.1315 31.5895 31.6035C32.3536 32.0755 32.9586 32.7657 33.3263 33.5851C33.694 34.4044 33.8076 35.3152 33.6523 36.1998C33.497 37.0843 33.0801 37.902 32.4553 38.5471C31.8305 39.1923 31.0266 39.6352 30.1475 39.8187C29.2683 40.0023 28.3544 39.9179 27.5236 39.5766C26.6929 39.2354 25.9837 38.6528 25.4875 37.9042C24.9913 37.1557 24.7309 36.2755 24.7401 35.3775C24.7113 34.7986 24.8017 34.22 25.0057 33.6776C25.2098 33.1351 25.5231 32.6404 25.9263 32.224C26.3295 31.8077 26.814 31.4787 27.3496 31.2574C27.8853 31.0361 28.4607 30.9272 29.0401 30.9375ZM29.0401 31.9375C27.0901 31.9375 25.8601 33.4275 25.8601 35.4575C25.8601 37.4875 27.0901 38.9775 29.0401 38.9775C29.8775 38.8505 30.6416 38.4276 31.1937 37.7854C31.7459 37.1432 32.0495 36.3244 32.0495 35.4775C32.0495 34.6306 31.7459 33.8117 31.1937 33.1696C30.6416 32.5274 29.8775 32.1044 29.0401 31.9775V31.9375Z" fill="url(#paint26_linear_0_5356)"/>
                    <path d="M35.0403 39.7475V31.0775H40.7203V32.0775H36.1203V34.8775H40.6303V35.8775H36.1203V39.8775L35.0403 39.7475Z" fill="url(#paint27_linear_0_5356)"/>
                    <path d="M45.2803 39.7475V38.8875C48.4003 36.4275 50.0903 34.9875 50.0903 33.4975C50.0877 33.2703 50.0373 33.0462 49.9424 32.8398C49.8475 32.6333 49.7103 32.4492 49.5396 32.2992C49.3689 32.1493 49.1685 32.0369 48.9516 31.9694C48.7346 31.9019 48.5059 31.8808 48.2803 31.9075C47.8309 31.8946 47.3847 31.9863 46.9768 32.1755C46.569 32.3647 46.2107 32.6461 45.9303 32.9975L45.2703 32.3075C45.6334 31.8668 46.0925 31.5152 46.6125 31.2794C47.1325 31.0437 47.6996 30.9301 48.2703 30.9475C48.6315 30.9102 48.9966 30.9478 49.3426 31.058C49.6886 31.1683 50.0082 31.3487 50.2813 31.588C50.5544 31.8273 50.7752 32.1204 50.9299 32.449C51.0846 32.7776 51.1698 33.1345 51.1803 33.4975C51.1803 35.2575 49.3903 36.8775 46.9703 38.7875H51.1803V39.7875L45.2803 39.7475Z" fill="url(#paint28_linear_0_5356)"/>
                    <path d="M56.1501 30.9475C58.5101 30.9475 59.4601 33.2975 59.4601 35.4175C59.4601 37.5375 58.4601 39.9075 56.1501 39.9075C53.8401 39.9075 52.8301 37.5275 52.8301 35.3775C52.8301 33.2275 53.7701 30.9475 56.1501 30.9475ZM56.1501 31.9475C54.5001 31.9475 53.9401 33.7275 53.9401 35.4575C53.9401 37.1875 54.5001 38.9775 56.1501 38.9775C57.8001 38.9775 58.3601 37.1875 58.3601 35.4575C58.3601 33.7275 57.8001 31.9075 56.1501 31.9075V31.9475Z" fill="url(#paint29_linear_0_5356)"/>
                    <path d="M60.8301 39.7475V38.8875C63.9501 36.4275 65.6401 34.9875 65.6401 33.4975C65.6375 33.2703 65.5871 33.0463 65.4922 32.8398C65.3973 32.6334 65.2601 32.4492 65.0894 32.2992C64.9187 32.1493 64.7183 32.0369 64.5014 31.9694C64.2845 31.902 64.0557 31.8809 63.8301 31.9075C63.3807 31.8946 62.9345 31.9864 62.5266 32.1755C62.1188 32.3647 61.7605 32.6461 61.4801 32.9975L60.8201 32.3075C61.1832 31.8669 61.6423 31.5152 62.1623 31.2795C62.6823 31.0437 63.2494 30.9302 63.8201 30.9475C64.1816 30.9087 64.5472 30.9453 64.8939 31.0549C65.2406 31.1645 65.5608 31.3449 65.8342 31.5845C66.1077 31.8241 66.3285 32.1178 66.4827 32.4471C66.6369 32.7764 66.7211 33.1341 66.7301 33.4975C66.7301 35.2575 64.9401 36.8775 62.5201 38.7875H66.7801V39.7875L60.8301 39.7475Z" fill="url(#paint30_linear_0_5356)"/>
                    <path d="M68.4702 39.7475V38.8875C71.5902 36.4275 73.2802 34.9875 73.2802 33.4975C73.2775 33.2713 73.2273 33.0481 73.133 32.8424C73.0388 32.6367 72.9024 32.4531 72.7329 32.3033C72.5633 32.1535 72.3642 32.0409 72.1485 31.9727C71.9327 31.9046 71.7051 31.8823 71.4802 31.9075C71.0294 31.8946 70.5817 31.9863 70.1723 32.1754C69.7628 32.3645 69.4027 32.6459 69.1202 32.9975L68.4602 32.3075C68.8238 31.8674 69.283 31.5162 69.8029 31.2805C70.3228 31.0448 70.8897 30.9309 71.4602 30.9475C71.8215 30.9102 72.1865 30.9478 72.5325 31.058C72.8785 31.1683 73.1981 31.3487 73.4712 31.588C73.7444 31.8273 73.9652 32.1204 74.1199 32.449C74.2745 32.7776 74.3598 33.1345 74.3702 33.4975C74.3702 35.2575 72.5702 36.8775 70.1602 38.7875H74.4102V39.7875L68.4702 39.7475Z" fill="url(#paint31_linear_0_5356)"/>
                </g>
            </g>
        </g>
    </g>
    <defs>
        <linearGradient id="paint0_linear_0_5356" x1="64.6952" y1="49.1559" x2="65.857" y2="49.9566" gradientUnits="userSpaceOnUse">
            <stop stop-color="#F8B430"/>
            <stop offset="1" stop-color="#FFE452"/>
        </linearGradient>
        <linearGradient id="paint1_linear_0_5356" x1="45.0582" y1="49.8098" x2="46.3654" y2="50.2964" gradientUnits="userSpaceOnUse">
            <stop stop-color="#F8B430"/>
            <stop offset="1" stop-color="#FFE452"/>
        </linearGradient>
        <linearGradient id="paint2_linear_0_5356" x1="54.9665" y1="51.6457" x2="56.0241" y2="52.2397" gradientUnits="userSpaceOnUse">
            <stop stop-color="#F8B430"/>
            <stop offset="1" stop-color="#FFE452"/>
        </linearGradient>
        <linearGradient id="paint3_linear_0_5356" x1="54.9248" y1="49.2527" x2="55.9087" y2="49.8028" gradientUnits="userSpaceOnUse">
            <stop stop-color="#F8B430"/>
            <stop offset="1" stop-color="#FFE452"/>
        </linearGradient>
        <linearGradient id="paint4_linear_0_5356" x1="31.6604" y1="46.2197" x2="35.2344" y2="64.8564" gradientUnits="userSpaceOnUse">
            <stop stop-color="#F8B430"/>
            <stop offset="1" stop-color="#FFE452"/>
        </linearGradient>
        <linearGradient id="paint5_linear_0_5356" x1="28.9583" y1="49.8098" x2="30.2656" y2="50.2964" gradientUnits="userSpaceOnUse">
            <stop stop-color="#F8B430"/>
            <stop offset="1" stop-color="#FFE452"/>
        </linearGradient>
        <linearGradient id="paint6_linear_0_5356" x1="15.6721" y1="6.11717" x2="17.347" y2="9.70997" gradientUnits="userSpaceOnUse">
            <stop stop-color="#F8B430"/>
            <stop offset="1" stop-color="#FFE452"/>
        </linearGradient>
        <linearGradient id="paint7_linear_0_5356" x1="9.89554" y1="3.65645" x2="13.4634" y2="5.50732" gradientUnits="userSpaceOnUse">
            <stop stop-color="#F8B430"/>
            <stop offset="1" stop-color="#FFE452"/>
        </linearGradient>
        <linearGradient id="paint8_linear_0_5356" x1="5.22386" y1="8.07294" x2="8.96662" y2="9.18174" gradientUnits="userSpaceOnUse">
            <stop stop-color="#F8B430"/>
            <stop offset="1" stop-color="#FFE452"/>
        </linearGradient>
        <linearGradient id="paint9_linear_0_5356" x1="2.62936" y1="13.4104" x2="6.30088" y2="15.6817" gradientUnits="userSpaceOnUse">
            <stop stop-color="#F8B430"/>
            <stop offset="1" stop-color="#FFE452"/>
        </linearGradient>
        <linearGradient id="paint10_linear_0_5356" x1="4.96455" y1="5.71317" x2="33.4207" y2="24.1314" gradientUnits="userSpaceOnUse">
            <stop stop-color="#F8B430"/>
            <stop offset="1" stop-color="#FFE452"/>
        </linearGradient>
        <linearGradient id="paint11_linear_0_5356" x1="80.4083" y1="6.10545" x2="82.0902" y2="9.71573" gradientUnits="userSpaceOnUse">
            <stop stop-color="#F8B430"/>
            <stop offset="1" stop-color="#FFE452"/>
        </linearGradient>
        <linearGradient id="paint12_linear_0_5356" x1="87.9666" y1="3.65645" x2="91.5379" y2="5.51226" gradientUnits="userSpaceOnUse">
            <stop stop-color="#F8B430"/>
            <stop offset="1" stop-color="#FFE452"/>
        </linearGradient>
        <linearGradient id="paint13_linear_0_5356" x1="92.2953" y1="7.93642" x2="95.8614" y2="9.7848" gradientUnits="userSpaceOnUse">
            <stop stop-color="#F8B430"/>
            <stop offset="1" stop-color="#FFE452"/>
        </linearGradient>
        <linearGradient id="paint14_linear_0_5356" x1="95.0195" y1="13.4104" x2="98.6911" y2="15.6817" gradientUnits="userSpaceOnUse">
            <stop stop-color="#F8B430"/>
            <stop offset="1" stop-color="#FFE452"/>
        </linearGradient>
        <linearGradient id="paint15_linear_0_5356" x1="79.9952" y1="5.68314" x2="108.441" y2="24.0797" gradientUnits="userSpaceOnUse">
            <stop stop-color="#F8B430"/>
            <stop offset="1" stop-color="#FFE452"/>
        </linearGradient>
        <linearGradient id="paint16_linear_0_5356" x1="31.4708" y1="4.90708" x2="40.1499" y2="13.394" gradientUnits="userSpaceOnUse">
            <stop stop-color="#F8B430"/>
            <stop offset="1" stop-color="#FFE452"/>
        </linearGradient>
        <linearGradient id="paint17_linear_0_5356" x1="42.9803" y1="4.90224" x2="51.4692" y2="11.874" gradientUnits="userSpaceOnUse">
            <stop stop-color="#F8B430"/>
            <stop offset="1" stop-color="#FFE452"/>
        </linearGradient>
        <linearGradient id="paint18_linear_0_5356" x1="52.6322" y1="4.76783" x2="61.5424" y2="13.0755" gradientUnits="userSpaceOnUse">
            <stop stop-color="#F8B430"/>
            <stop offset="1" stop-color="#FFE452"/>
        </linearGradient>
        <linearGradient id="paint19_linear_0_5356" x1="63.1724" y1="4.90224" x2="71.7914" y2="12.7804" gradientUnits="userSpaceOnUse">
            <stop stop-color="#F8B430"/>
            <stop offset="1" stop-color="#FFE452"/>
        </linearGradient>
        <linearGradient id="paint20_linear_0_5356" x1="19.6509" y1="18.2434" x2="28.6242" y2="27.6893" gradientUnits="userSpaceOnUse">
            <stop stop-color="#F8B430"/>
            <stop offset="1" stop-color="#FFE452"/>
        </linearGradient>
        <linearGradient id="paint21_linear_0_5356" x1="31.1142" y1="18.3983" x2="39.5939" y2="28.6417" gradientUnits="userSpaceOnUse">
            <stop stop-color="#F8B430"/>
            <stop offset="1" stop-color="#FFE452"/>
        </linearGradient>
        <linearGradient id="paint22_linear_0_5356" x1="42.9723" y1="18.2661" x2="51.8755" y2="26.5743" gradientUnits="userSpaceOnUse">
            <stop stop-color="#F8B430"/>
            <stop offset="1" stop-color="#FFE452"/>
        </linearGradient>
        <linearGradient id="paint23_linear_0_5356" x1="52.9902" y1="18.3983" x2="57.6164" y2="19.7427" gradientUnits="userSpaceOnUse">
            <stop stop-color="#F8B430"/>
            <stop offset="1" stop-color="#FFE452"/>
        </linearGradient>
        <linearGradient id="paint24_linear_0_5356" x1="59.5923" y1="18.3983" x2="68.2164" y2="27.3876" gradientUnits="userSpaceOnUse">
            <stop stop-color="#F8B430"/>
            <stop offset="1" stop-color="#FFE452"/>
        </linearGradient>
        <linearGradient id="paint25_linear_0_5356" x1="72.1089" y1="18.2562" x2="81.0082" y2="28.2269" gradientUnits="userSpaceOnUse">
            <stop stop-color="#F8B430"/>
            <stop offset="1" stop-color="#FFE452"/>
        </linearGradient>
        <linearGradient id="paint26_linear_0_5356" x1="26.5319" y1="32.1138" x2="33.1875" y2="39.5776" gradientUnits="userSpaceOnUse">
            <stop stop-color="#F8B430"/>
            <stop offset="1" stop-color="#FFE452"/>
        </linearGradient>
        <linearGradient id="paint27_linear_0_5356" x1="36.1763" y1="32.2342" x2="42.4117" y2="36.7451" gradientUnits="userSpaceOnUse">
            <stop stop-color="#F8B430"/>
            <stop offset="1" stop-color="#FFE452"/>
        </linearGradient>
        <linearGradient id="paint28_linear_0_5356" x1="46.4523" y1="32.0973" x2="52.789" y2="36.838" gradientUnits="userSpaceOnUse">
            <stop stop-color="#F8B430"/>
            <stop offset="1" stop-color="#FFE452"/>
        </linearGradient>
        <linearGradient id="paint29_linear_0_5356" x1="54.1561" y1="32.1252" x2="60.7252" y2="37.5733" gradientUnits="userSpaceOnUse">
            <stop stop-color="#F8B430"/>
            <stop offset="1" stop-color="#FFE452"/>
        </linearGradient>
        <linearGradient id="paint30_linear_0_5356" x1="62.0121" y1="32.0964" x2="68.3642" y2="36.8883" gradientUnits="userSpaceOnUse">
            <stop stop-color="#F8B430"/>
            <stop offset="1" stop-color="#FFE452"/>
        </linearGradient>
        <linearGradient id="paint31_linear_0_5356" x1="69.6503" y1="32.0973" x2="75.9989" y2="36.8791" gradientUnits="userSpaceOnUse">
            <stop stop-color="#F8B430"/>
            <stop offset="1" stop-color="#FFE452"/>
        </linearGradient>
        <clipPath id="clip0_0_5356">
            <rect width="100" height="58" fill="white" transform="translate(0.170166 0.1875)"/>
        </clipPath>
        <clipPath id="clip1_0_5356">
            <rect width="100" height="58" fill="white" transform="translate(0.170166 0.1875)"/>
        </clipPath>
        <clipPath id="clip2_0_5356">
            <rect width="100" height="58" fill="white" transform="translate(0.170166 0.1875)"/>
        </clipPath>
    </defs>
</svg>
