<svg width="87" height="51" viewBox="0 0 87 51" fill="none" xmlns="http://www.w3.org/2000/svg">
    <g clip-path="url(#clip0_0_5352)">
        <g clip-path="url(#clip1_0_5352)">
            <g clip-path="url(#clip2_0_5352)">
                <mask id="mask0_0_5352" style="mask-type:luminance" maskUnits="userSpaceOnUse" x="0" y="0" width="87" height="51">
                    <path d="M86.1702 0.1875H0.170166V50.1875H86.1702V0.1875Z" fill="white"/>
                </mask>
                <g mask="url(#mask0_0_5352)">
                    <path fill-rule="evenodd" clip-rule="evenodd" d="M68.2927 37.1875C70.438 37.1875 72.4453 38.2462 73.6571 40.0166C75.1719 42.2299 75.1719 45.1466 73.6567 47.3597C72.4451 49.1294 70.4384 50.1875 68.2936 50.1875H18.0468C15.902 50.1875 13.8953 49.1294 12.6837 47.3597C11.1685 45.1466 11.1685 42.2299 12.6833 40.0166C13.8951 38.2462 15.9024 37.1875 18.0477 37.1875H68.2927ZM25.515 46.1875C26.4593 46.1875 27.0188 45.8974 27.5225 45.3657L26.837 44.6405C26.4523 44.9858 26.1095 45.2068 25.55 45.2068C24.7106 45.2068 24.1301 44.5162 24.1301 43.6875C24.1301 42.845 24.7246 42.1682 25.55 42.1682C26.1095 42.1682 26.4313 42.3684 26.809 42.7068L27.4525 41.9748C26.9979 41.5328 26.4803 41.1875 25.557 41.1875C24.0531 41.1875 23.0039 42.3132 23.0039 43.6875C23.0039 45.0894 24.0741 46.1875 25.515 46.1875ZM19.1702 46.1046H22.6885V45.1378H20.2474V41.2704H19.1702V46.1046ZM30.714 46.1046H28.3848V41.2704H30.658C31.2176 41.2704 31.6582 41.4223 31.938 41.6985C32.1618 41.9195 32.2737 42.1889 32.2737 42.5342C32.2737 43.0798 31.98 43.3836 31.6302 43.577C32.1968 43.7911 32.5465 44.1157 32.5465 44.7787C32.5465 45.6626 31.8191 46.1046 30.714 46.1046ZM29.4339 42.2027V43.2248H30.4272C30.9028 43.2248 31.2036 43.0729 31.2036 42.6999C31.2036 42.3823 30.9518 42.2027 30.4971 42.2027H29.4339ZM29.4339 44.1088V45.1723H30.714C31.1896 45.1723 31.4764 45.0066 31.4764 44.6336C31.4764 44.309 31.2316 44.1088 30.679 44.1088H29.4339ZM35.1099 46.1046H36.2081L36.6557 45.0204H38.7261L39.1738 46.1046H40.2999L38.2016 41.2358H37.2083L35.1099 46.1046ZM37.0405 44.0811L37.6909 42.5135L38.3414 44.0811H37.0405ZM42.6585 46.1392H41.7212L40.0495 41.2704H41.2036L42.2178 44.5439L43.316 41.2566H44.2393L45.3374 44.5439L46.3516 41.2704H47.4777L45.806 46.1392H44.8688L43.7636 42.9762L42.6585 46.1392ZM47.2275 46.1046H48.3257L48.7733 45.0204H50.8437L51.2914 46.1046H52.4175L50.3191 41.2358H49.3259L47.2275 46.1046ZM49.158 44.0811L49.8085 42.5135L50.459 44.0811H49.158ZM54.2504 46.1046H53.1732V41.2704H55.4115C56.034 41.2704 56.5166 41.443 56.8384 41.7607C57.1112 42.03 57.258 42.4099 57.258 42.8795C57.258 43.6599 56.8314 44.1502 56.2089 44.3781L57.4049 46.1046H56.1459L55.0827 44.5577H54.2504V46.1046ZM54.2504 42.2303V43.6184H55.3415C55.8661 43.6184 56.1669 43.3422 56.1669 42.9209C56.1669 42.4651 55.8451 42.2303 55.3205 42.2303H54.2504ZM58.2279 46.1046H60.1374C61.6762 46.1046 62.7394 45.048 62.7394 43.6875C62.7394 42.3132 61.6762 41.2704 60.1374 41.2704H58.2279V46.1046ZM59.3051 42.2303H60.1374C61.0187 42.2303 61.6133 42.8311 61.6133 43.6875C61.6133 44.5577 61.0187 45.1447 60.1374 45.1447H59.3051V42.2303ZM67.1702 44.6751C67.1702 45.635 66.4288 46.1737 65.3726 46.1737C64.6312 46.1737 63.8827 45.9182 63.2952 45.4002L63.9317 44.6474C64.3724 45.0066 64.834 45.2345 65.3936 45.2345C65.8342 45.2345 66.1 45.0618 66.1 44.7648C66.1 44.4955 65.9322 44.3574 65.1138 44.1502C64.1276 43.9016 63.491 43.6323 63.491 42.6585C63.491 41.7814 64.2045 41.2013 65.2047 41.2013C65.9182 41.2013 66.5267 41.4223 67.0233 41.816L66.4637 42.6171C66.0301 42.3201 65.6034 42.1405 65.1907 42.1405C64.7781 42.1405 64.5612 42.327 64.5612 42.5756C64.5612 42.8933 64.7711 42.9969 65.6174 43.211C66.6106 43.4665 67.1702 43.8187 67.1702 44.6751Z" fill="url(#paint0_linear_0_5352)"/>
                    <path d="M10.6026 3.7828C10.7718 2.71017 10.4929 1.67487 9.91774 0.912292C9.14069 1.43413 8.55866 2.31631 8.38954 3.38971C8.22042 4.46234 8.49924 5.4984 9.07441 6.26022C9.85222 5.73838 10.4335 4.8562 10.6026 3.7828Z" fill="url(#paint1_linear_0_5352)"/>
                    <path d="M6.16535 10.1582C6.739 9.39484 7.0163 8.35877 6.84489 7.28614C6.67272 6.21351 6.08993 5.33209 5.31136 4.81177C4.73771 5.57587 4.46117 6.61193 4.63258 7.68457C4.80399 8.7572 5.38678 9.63786 6.16535 10.1582Z" fill="url(#paint2_linear_0_5352)"/>
                    <path d="M4.26411 14.8816C4.66711 14.004 4.725 12.9291 4.338 11.9219C3.95024 10.9141 3.19985 10.1888 2.33367 9.862C1.93067 10.7396 1.87277 11.8145 2.26054 12.8216C2.64754 13.8295 3.39792 14.5548 4.26411 14.8816Z" fill="url(#paint3_linear_0_5352)"/>
                    <path d="M18.6991 36.1847C15.7006 35.5486 13.0014 34.1956 10.7701 32.3437C11.503 31.8157 12.0499 30.9625 12.2122 29.9302C12.3813 28.8568 12.1025 27.8215 11.5273 27.0597C10.7495 27.5816 10.1682 28.4645 9.99911 29.5371C9.85132 30.4726 10.0456 31.3807 10.4791 32.1029C9.43537 31.1994 8.50215 30.1809 7.69462 29.0755C8.52729 28.7494 9.25177 28.0577 9.64258 27.0948C10.0471 26.0953 10.009 25.0188 9.62125 24.1336C8.74973 24.4437 7.9864 25.1537 7.58111 26.1532C7.22687 27.027 7.21239 27.9602 7.47294 28.773C6.58847 27.5077 5.87084 26.1303 5.3429 24.6768C6.24641 24.5396 7.11184 23.9972 7.68167 23.1044C8.25608 22.2032 8.40844 21.1381 8.18523 20.1912C7.27334 20.3222 6.39878 20.8669 5.82361 21.7682C5.27815 22.6244 5.11741 23.627 5.29491 24.5374C4.77611 23.0724 4.46301 21.5267 4.36093 19.9383C5.27663 20.0259 6.24261 19.7014 6.99147 18.9586C7.74033 18.2166 8.1121 17.214 8.09229 16.2382C7.17659 16.1505 6.20909 16.4751 5.46022 17.2178C4.71822 17.953 4.34797 18.9434 4.36016 19.9109C4.33807 19.5642 4.31446 19.2184 4.31446 18.8679C4.31446 17.547 4.47063 16.2496 4.76469 14.9972C5.58364 15.4063 6.57857 15.4611 7.51179 15.0566C8.46101 14.646 9.14359 13.8491 9.45213 12.9296C8.62556 12.5022 7.61235 12.4405 6.66389 12.8519C5.8297 13.213 5.20044 13.8727 4.85153 14.6536C5.23777 13.1482 5.82437 11.7107 6.58618 10.3714C7.30457 10.9778 8.27893 11.2696 9.28681 11.0883C10.297 10.9062 11.1274 10.2869 11.6172 9.46033C10.8981 8.8524 9.92217 8.55834 8.912 8.73965C7.92621 8.91715 7.11488 9.51213 6.62123 10.3082C7.38914 8.97124 8.32921 7.73406 9.41785 6.62943C9.91226 7.43695 10.7328 8.04107 11.7292 8.21857C12.7401 8.39836 13.7153 8.10201 14.4337 7.49104C13.9423 6.66599 13.1104 6.04892 12.1002 5.86914C11.202 5.70992 10.3328 5.92703 9.64639 6.40545C10.4364 5.63221 11.3117 4.94125 12.2381 4.31656C13.0258 4.54891 13.8951 4.52073 14.6919 4.13982C15.6236 3.69492 16.2498 2.88587 16.4837 1.97322C15.6023 1.59384 14.5632 1.58089 13.6315 2.02655C12.779 2.43336 12.1977 3.15098 11.9235 3.96841C7.02956 7.30516 3.87794 12.8245 3.87794 18.8679C3.87794 19.0066 3.88327 19.1437 3.88708 19.2816C3.80175 18.5472 3.49931 17.8243 2.97671 17.23C2.27737 16.4347 1.33348 16.0401 0.413965 16.0607C0.331689 17.0335 0.637176 18.0597 1.33653 18.855C2.03587 19.6503 2.97976 20.0449 3.89927 20.0244C3.9046 19.9558 3.9046 19.8872 3.90612 19.8179C3.98307 21.2235 4.23066 22.5947 4.62756 23.9111C4.3754 23.3116 3.96478 22.7692 3.40485 22.3669C2.55619 21.7567 1.55364 21.5952 0.661554 21.8329C0.784968 22.8004 1.29843 23.7291 2.1471 24.3393C2.99499 24.9487 3.9983 25.111 4.89039 24.8733C4.87667 24.7629 4.85534 24.6539 4.83173 24.5442C5.27129 25.8256 5.85408 27.0491 6.56485 28.1963C6.23346 27.7911 5.81294 27.4528 5.31091 27.2227C4.37007 26.7923 3.35609 26.8342 2.52191 27.2448C2.81444 28.1712 3.48332 28.9803 4.42416 29.4114C5.36576 29.8411 6.37897 29.8 7.21316 29.3893C7.1545 29.2019 7.07603 29.0222 6.98766 28.8477C7.69462 29.8868 8.509 30.8543 9.41632 31.7357C9.01637 31.4485 8.54938 31.2421 8.03515 31.1514C7.02423 30.9716 6.0491 31.268 5.33148 31.8782C5.82285 32.704 6.65399 33.3211 7.66491 33.5009C8.67584 33.6799 9.65096 33.3835 10.3686 32.7733C10.2696 32.6065 10.153 32.4511 10.0273 32.3033C12.3981 34.4082 15.3311 35.9432 18.613 36.6403L18.6991 36.1847Z" fill="url(#paint4_linear_0_5352)"/>
                    <path d="M77.4774 6.26022C78.0518 5.4984 78.3306 4.46234 78.1622 3.38971C77.9924 2.31631 77.4111 1.43413 76.6333 0.912292C76.0581 1.67487 75.7793 2.71017 75.9484 3.7828C76.1175 4.8562 76.6996 5.73838 77.4774 6.26022Z" fill="url(#paint5_linear_0_5352)"/>
                    <path d="M81.8737 7.68457C82.0451 6.61193 81.7679 5.57587 81.1942 4.81177C80.4164 5.33209 79.8328 6.21351 79.6613 7.28614C79.4899 8.35877 79.7672 9.39484 80.3401 10.1582C81.1187 9.63786 81.7022 8.7572 81.8737 7.68457Z" fill="url(#paint6_linear_0_5352)"/>
                    <path d="M82.2476 14.8816C83.1145 14.5548 83.8642 13.8295 84.2519 12.8216C84.6389 11.8145 84.581 10.7396 84.1788 9.862C83.3118 10.1888 82.5622 10.9141 82.1744 11.9219C81.7874 12.9291 81.8453 14.004 82.2476 14.8816Z" fill="url(#paint7_linear_0_5352)"/>
                    <path d="M83.1118 22.3642C82.5519 22.7664 82.142 23.3088 81.8891 23.9084C82.2868 22.592 82.5343 21.2207 82.6105 19.8151C82.6128 19.8845 82.612 19.953 82.6181 20.0216C83.5369 20.0422 84.4815 19.6475 85.1809 18.8522C85.8802 18.0569 86.1857 17.0307 86.1034 16.0579C85.1839 16.0373 84.2401 16.4319 83.5407 17.2273C83.0181 17.8215 82.7157 18.5444 82.6303 19.2788C82.6334 19.1409 82.6395 19.0038 82.6395 18.8652C82.6395 12.8217 79.4871 7.30235 74.5932 3.9656C74.3189 3.14818 73.7377 2.43055 72.8852 2.02374C71.9535 1.57808 70.9144 1.59103 70.033 1.97041C70.2669 2.88307 70.8931 3.69211 71.8248 4.13701C72.6216 4.51792 73.4909 4.54611 74.2793 4.31375C75.2057 4.93844 76.081 5.62941 76.8703 6.40265C76.1839 5.92423 75.3146 5.70711 74.4165 5.86633C73.4063 6.04612 72.5752 6.66319 72.0838 7.48823C72.8014 8.09921 73.7765 8.39555 74.7875 8.21576C75.7839 8.03826 76.6052 7.43414 77.0988 6.62662C78.1874 7.73125 79.1283 8.96844 79.8962 10.3054C79.4018 9.50932 78.5904 8.91435 77.6054 8.73684C76.5952 8.55553 75.6186 8.84959 74.9002 9.45752C75.3901 10.2841 76.2197 10.9034 77.2306 11.0855C78.2385 11.2668 79.2121 10.9751 79.9312 10.3686C80.693 11.7079 81.2796 13.1455 81.6651 14.6508C81.3162 13.8699 80.6877 13.2102 79.8528 12.8491C78.9043 12.4377 77.8919 12.4994 77.0645 12.9268C77.3738 13.8463 78.0564 14.6432 79.0056 15.0538C79.9388 15.4583 80.933 15.4035 81.7527 14.9944C82.046 16.2468 82.203 17.5442 82.203 18.8652C82.203 19.2156 82.1786 19.5615 82.1573 19.9081C82.1694 18.9406 81.7992 17.9502 81.0572 17.2151C80.3083 16.4723 79.3408 16.1478 78.4244 16.2354C78.4053 17.2113 78.7763 18.2138 79.5259 18.9558C80.274 19.6986 81.2408 20.0231 82.1557 19.9355C82.0544 21.5239 81.7413 23.0696 81.2225 24.5346C81.4 23.6242 81.2393 22.6217 80.6938 21.7654C80.1186 20.8642 79.2441 20.3195 78.3322 20.1884C78.1082 21.1354 78.2606 22.2004 78.8357 23.1016C79.4056 23.9945 80.271 24.5369 81.1745 24.674C80.6466 26.1275 79.9289 27.5049 79.0437 28.7703C79.305 27.9574 79.2905 27.0242 78.9355 26.1504C78.531 25.1509 77.7677 24.4409 76.8954 24.1308C76.5076 25.016 76.4696 26.0925 76.8748 27.092C77.2656 28.0549 77.9901 28.7466 78.8228 29.0727C78.0145 30.1781 77.0821 31.1966 76.0376 32.1002C76.4711 31.378 76.6653 30.4699 76.5175 29.5344C76.3484 28.4617 75.7672 27.5788 74.9901 27.0569C74.4149 27.8188 74.1354 28.8541 74.3045 29.9275C74.4675 30.9597 75.0137 31.8129 75.7473 32.3409C73.516 34.1929 70.8161 35.5458 67.8184 36.182L67.9037 36.6375C71.1856 35.9405 74.1186 34.4054 76.4894 32.3005C76.3637 32.4483 76.2479 32.6037 76.1481 32.7705C76.8665 33.3808 77.8416 33.6771 78.8525 33.4981C79.8627 33.3183 80.6938 32.7012 81.1859 31.8754C80.4683 31.2652 79.4924 30.9689 78.4823 31.1486C77.968 31.2393 77.501 31.4458 77.1011 31.733C78.0084 30.8515 78.822 29.884 79.5298 28.8449C79.4406 29.0194 79.3622 29.1992 79.3035 29.3866C80.1384 29.7972 81.1517 29.8383 82.0925 29.4087C83.0341 28.9775 83.703 28.1684 83.9947 27.2421C83.1606 26.8314 82.1473 26.7895 81.2057 27.22C80.7045 27.45 80.2832 27.7883 79.9518 28.1936C80.6626 27.0463 81.2461 25.8228 81.6857 24.5414C81.6613 24.6511 81.6407 24.7601 81.627 24.8705C82.5191 25.1082 83.5217 24.946 84.3703 24.3365C85.219 23.7263 85.7324 22.7976 85.8559 21.8301C84.963 21.5925 83.9605 21.754 83.1118 22.3642Z" fill="url(#paint8_linear_0_5352)"/>
                    <path d="M30.1702 10.3075H33.7802C35.4502 10.3075 36.4302 9.57749 36.4302 8.37749C36.4302 7.40749 35.8902 6.9275 35.0402 6.6475C35.6602 6.3775 36.1202 5.8975 36.1202 5.0875C36.1202 4.5875 35.9502 4.2175 35.6702 3.9375C35.2602 3.5275 34.6402 3.3075 33.7602 3.3075H30.1702V10.3075ZM32.0602 8.7475V7.4575H33.5402C34.1902 7.4575 34.4902 7.7075 34.4902 8.0875C34.4902 8.5175 34.1502 8.7475 33.5602 8.7475H32.0602ZM32.0602 6.0975V4.8675H33.3202C33.9002 4.8675 34.2002 5.0875 34.2002 5.4675C34.2002 5.8975 33.8702 6.0975 33.2802 6.0975H32.0602Z" fill="url(#paint9_linear_0_5352)"/>
                    <path d="M37.3185 10.3075H42.9985V8.6575H39.2385V7.5475H42.5985V6.0175H39.2385V4.9575H42.9485V3.3075H37.3185V10.3075Z" fill="url(#paint10_linear_0_5352)"/>
                    <path d="M46.7386 10.4275C48.4386 10.4275 49.5686 9.5775 49.5686 8.1475C49.5686 6.8175 48.5686 6.2975 46.9586 5.9475C45.9886 5.7275 45.7486 5.5875 45.7486 5.2675C45.7486 4.9975 45.9786 4.7975 46.4486 4.7975C47.0686 4.7975 47.7686 5.0375 48.4086 5.4875L49.3786 4.1175C48.6186 3.5075 47.6886 3.1875 46.4986 3.1875C44.8186 3.1875 43.7886 4.1275 43.7886 5.4275C43.7886 6.8875 44.9386 7.3075 46.4286 7.6475C47.3786 7.8675 47.6086 8.0275 47.6086 8.3175C47.6086 8.6375 47.3286 8.8175 46.8086 8.8175C45.9986 8.8175 45.2286 8.5275 44.5386 7.9775L43.4586 9.2675C44.3186 10.0375 45.4986 10.4275 46.7386 10.4275Z" fill="url(#paint11_linear_0_5352)"/>
                    <path d="M52.0266 10.3075H53.9666V5.0075H56.0666V3.3075H49.9266V5.0075H52.0266V10.3075Z" fill="url(#paint12_linear_0_5352)"/>
                    <path d="M17.7182 23.1875C20.1003 23.1875 21.468 22.1751 22.4823 20.8001L20.2386 19.2287C19.5931 19.9993 18.9323 20.513 17.8104 20.513C16.3043 20.513 15.2439 19.274 15.2439 17.6875C15.2439 16.1161 16.3043 14.862 17.8104 14.862C18.8401 14.862 19.5624 15.3304 20.1771 16.0859L22.3594 14.4238C21.4066 13.1243 20.0388 12.1875 17.8411 12.1875C14.583 12.1875 12.1702 14.6051 12.1702 17.6875C12.1702 20.8757 14.6445 23.1875 17.7182 23.1875Z" fill="url(#paint13_linear_0_5352)"/>
                    <path d="M22.9045 22.976H26.0396L26.808 21.0872H30.9575L31.7413 22.976H34.9379L30.3581 12.3235H27.4842L22.9045 22.976ZM27.684 18.8056L28.8981 15.7988L30.0969 18.8056H27.684Z" fill="url(#paint14_linear_0_5352)"/>
                    <path d="M40.0579 23.1573C42.6705 23.1573 44.4072 21.8729 44.4072 19.7122C44.4072 17.7026 42.8703 16.9169 40.396 16.388C38.9053 16.0556 38.5365 15.8441 38.5365 15.3606C38.5365 14.9526 38.8899 14.6504 39.6123 14.6504C40.5651 14.6504 41.6409 15.013 42.6244 15.693L44.1152 13.6229C42.9472 12.7012 41.5179 12.2177 39.6891 12.2177C37.1072 12.2177 35.5243 13.638 35.5243 15.6023C35.5243 17.8084 37.2916 18.443 39.5815 18.9567C41.0415 19.2891 41.395 19.5309 41.395 19.9691C41.395 20.4526 40.9647 20.7246 40.1655 20.7246C38.9207 20.7246 37.7373 20.2864 36.6769 19.4554L35.0171 21.4045C36.3388 22.568 38.1523 23.1573 40.0579 23.1573Z" fill="url(#paint15_linear_0_5352)"/>
                    <path d="M45.9185 22.976H48.9154V12.399H45.9185V22.976Z" fill="url(#paint16_linear_0_5352)"/>
                    <path d="M50.8848 22.976H53.8355V17.1738L58.4306 22.976H61.0433V12.399H58.0925V17.9897L53.6665 12.399H50.8848V22.976Z" fill="url(#paint17_linear_0_5352)"/>
                    <path d="M68.361 23.1875C71.6805 23.1875 74.1702 20.7246 74.1702 17.6875C74.1702 14.6202 71.7113 12.1875 68.3917 12.1875C65.0722 12.1875 62.5825 14.6504 62.5825 17.6875C62.5825 20.7548 65.0414 23.1875 68.361 23.1875ZM68.3917 20.5433C66.7627 20.5433 65.6408 19.2136 65.6408 17.6875C65.6408 16.1312 66.7319 14.8317 68.361 14.8317C70.0054 14.8317 71.1273 16.1614 71.1273 17.6875C71.1273 19.2438 70.0361 20.5433 68.3917 20.5433Z" fill="url(#paint18_linear_0_5352)"/>
                    <path d="M27.1702 33.7315V32.9995L30.2182 30.3115C31.5142 29.1715 31.9702 28.5115 31.9702 27.6715C31.9702 26.6875 31.1902 26.0635 30.2782 26.0635C29.3182 26.0635 28.6942 26.5675 28.0222 27.5035L27.3262 26.9995C28.0822 25.8715 28.8742 25.2115 30.3502 25.2115C31.8622 25.2115 32.9542 26.2195 32.9542 27.6115C32.9542 28.8355 32.2942 29.5795 30.8302 30.8755L28.5862 32.8675H33.0382V33.7315H27.1702Z" fill="url(#paint19_linear_0_5352)"/>
                    <path d="M38.0618 33.8755C35.8898 33.8755 34.5218 31.9075 34.5218 29.5315C34.5218 27.1795 35.9258 25.1875 38.0858 25.1875C40.2458 25.1875 41.6138 27.1555 41.6138 29.5315C41.6138 31.8835 40.2218 33.8755 38.0618 33.8755ZM38.0858 33.0115C39.6578 33.0115 40.6298 31.3915 40.6298 29.5315C40.6298 27.6955 39.6218 26.0515 38.0618 26.0515C36.4898 26.0515 35.5058 27.6595 35.5058 29.5315C35.5058 31.3675 36.5138 33.0115 38.0858 33.0115Z" fill="url(#paint20_linear_0_5352)"/>
                    <path d="M42.8147 33.7315V32.9995L45.8627 30.3115C47.1587 29.1715 47.6147 28.5115 47.6147 27.6715C47.6147 26.6875 46.8347 26.0635 45.9227 26.0635C44.9627 26.0635 44.3387 26.5675 43.6667 27.5035L42.9707 26.9995C43.7267 25.8715 44.5187 25.2115 45.9947 25.2115C47.5067 25.2115 48.5987 26.2195 48.5987 27.6115C48.5987 28.8355 47.9387 29.5795 46.4747 30.8755L44.2307 32.8675H48.6827V33.7315H42.8147Z" fill="url(#paint21_linear_0_5352)"/>
                    <path d="M53.1543 33.8755C51.7503 33.8755 50.7063 33.2635 50.0223 32.3755L50.7063 31.7635C51.3543 32.5555 52.1343 33.0115 53.1663 33.0115C54.1863 33.0115 55.0023 32.3635 55.0023 31.3555C55.0023 30.3115 54.0303 29.7355 52.6503 29.7355H52.1103L51.9183 29.1715L54.5703 26.1835H50.4663V25.3315H55.8303V26.0275L53.1903 28.9555C54.6543 29.0755 55.9623 29.7835 55.9623 31.3435C55.9623 32.8435 54.7143 33.8755 53.1543 33.8755Z" fill="url(#paint22_linear_0_5352)"/>
                </g>
            </g>
        </g>
    </g>
    <defs>
        <linearGradient id="paint0_linear_0_5352" x1="18.0918" y1="38.4819" x2="56.108" y2="71.6014" gradientUnits="userSpaceOnUse">
            <stop stop-color="#F8B430"/>
            <stop offset="1" stop-color="#FFE452"/>
        </linearGradient>
        <linearGradient id="paint1_linear_0_5352" x1="8.57972" y1="1.44479" x2="11.0086" y2="1.63273" gradientUnits="userSpaceOnUse">
            <stop stop-color="#F8B430"/>
            <stop offset="1" stop-color="#FFE452"/>
        </linearGradient>
        <linearGradient id="paint2_linear_0_5352" x1="4.82161" y1="5.34411" x2="7.25238" y2="5.53241" gradientUnits="userSpaceOnUse">
            <stop stop-color="#F8B430"/>
            <stop offset="1" stop-color="#FFE452"/>
        </linearGradient>
        <linearGradient id="paint3_linear_0_5352" x1="2.26767" y1="10.3618" x2="4.99404" y2="10.6148" gradientUnits="userSpaceOnUse">
            <stop stop-color="#F8B430"/>
            <stop offset="1" stop-color="#FFE452"/>
        </linearGradient>
        <linearGradient id="paint4_linear_0_5352" x1="2.29436" y1="5.17028" x2="21.4725" y2="6.96829" gradientUnits="userSpaceOnUse">
            <stop stop-color="#F8B430"/>
            <stop offset="1" stop-color="#FFE452"/>
        </linearGradient>
        <linearGradient id="paint5_linear_0_5352" x1="76.1386" y1="1.44479" x2="78.5679" y2="1.6328" gradientUnits="userSpaceOnUse">
            <stop stop-color="#F8B430"/>
            <stop offset="1" stop-color="#FFE452"/>
        </linearGradient>
        <linearGradient id="paint6_linear_0_5352" x1="79.8504" y1="5.34411" x2="82.2812" y2="5.53241" gradientUnits="userSpaceOnUse">
            <stop stop-color="#F8B430"/>
            <stop offset="1" stop-color="#FFE452"/>
        </linearGradient>
        <linearGradient id="paint7_linear_0_5352" x1="82.1821" y1="10.3618" x2="84.908" y2="10.6147" gradientUnits="userSpaceOnUse">
            <stop stop-color="#F8B430"/>
            <stop offset="1" stop-color="#FFE452"/>
        </linearGradient>
        <linearGradient id="paint8_linear_0_5352" x1="69.7119" y1="5.16747" x2="88.8898" y2="6.96546" gradientUnits="userSpaceOnUse">
            <stop stop-color="#F8B430"/>
            <stop offset="1" stop-color="#FFE452"/>
        </linearGradient>
        <linearGradient id="paint9_linear_0_5352" x1="32.8499" y1="3.90839" x2="52.2651" y2="16.344" gradientUnits="userSpaceOnUse">
            <stop stop-color="#F8B430"/>
            <stop offset="1" stop-color="#FFE452"/>
        </linearGradient>
        <linearGradient id="paint10_linear_0_5352" x1="32.8498" y1="3.90839" x2="52.265" y2="16.344" gradientUnits="userSpaceOnUse">
            <stop stop-color="#F8B430"/>
            <stop offset="1" stop-color="#FFE452"/>
        </linearGradient>
        <linearGradient id="paint11_linear_0_5352" x1="32.8499" y1="3.90839" x2="52.2651" y2="16.344" gradientUnits="userSpaceOnUse">
            <stop stop-color="#F8B430"/>
            <stop offset="1" stop-color="#FFE452"/>
        </linearGradient>
        <linearGradient id="paint12_linear_0_5352" x1="32.8498" y1="3.90839" x2="52.265" y2="16.344" gradientUnits="userSpaceOnUse">
            <stop stop-color="#F8B430"/>
            <stop offset="1" stop-color="#FFE452"/>
        </linearGradient>
        <linearGradient id="paint13_linear_0_5352" x1="18.5859" y1="13.2828" x2="51.0584" y2="46.0576" gradientUnits="userSpaceOnUse">
            <stop stop-color="#F8B430"/>
            <stop offset="1" stop-color="#FFE452"/>
        </linearGradient>
        <linearGradient id="paint14_linear_0_5352" x1="18.5859" y1="13.2828" x2="51.0584" y2="46.0576" gradientUnits="userSpaceOnUse">
            <stop stop-color="#F8B430"/>
            <stop offset="1" stop-color="#FFE452"/>
        </linearGradient>
        <linearGradient id="paint15_linear_0_5352" x1="18.5859" y1="13.2828" x2="51.0584" y2="46.0576" gradientUnits="userSpaceOnUse">
            <stop stop-color="#F8B430"/>
            <stop offset="1" stop-color="#FFE452"/>
        </linearGradient>
        <linearGradient id="paint16_linear_0_5352" x1="18.5858" y1="13.2828" x2="51.0583" y2="46.0576" gradientUnits="userSpaceOnUse">
            <stop stop-color="#F8B430"/>
            <stop offset="1" stop-color="#FFE452"/>
        </linearGradient>
        <linearGradient id="paint17_linear_0_5352" x1="18.5859" y1="13.2828" x2="51.0584" y2="46.0576" gradientUnits="userSpaceOnUse">
            <stop stop-color="#F8B430"/>
            <stop offset="1" stop-color="#FFE452"/>
        </linearGradient>
        <linearGradient id="paint18_linear_0_5352" x1="18.5859" y1="13.2828" x2="51.0584" y2="46.0576" gradientUnits="userSpaceOnUse">
            <stop stop-color="#F8B430"/>
            <stop offset="1" stop-color="#FFE452"/>
        </linearGradient>
        <linearGradient id="paint19_linear_0_5352" x1="30.1496" y1="26.0526" x2="52.6628" y2="39.4129" gradientUnits="userSpaceOnUse">
            <stop stop-color="#F8B430"/>
            <stop offset="1" stop-color="#FFE452"/>
        </linearGradient>
        <linearGradient id="paint20_linear_0_5352" x1="30.1496" y1="26.0526" x2="52.6628" y2="39.4129" gradientUnits="userSpaceOnUse">
            <stop stop-color="#F8B430"/>
            <stop offset="1" stop-color="#FFE452"/>
        </linearGradient>
        <linearGradient id="paint21_linear_0_5352" x1="30.1496" y1="26.0526" x2="52.6628" y2="39.4129" gradientUnits="userSpaceOnUse">
            <stop stop-color="#F8B430"/>
            <stop offset="1" stop-color="#FFE452"/>
        </linearGradient>
        <linearGradient id="paint22_linear_0_5352" x1="30.1496" y1="26.0526" x2="52.6628" y2="39.4129" gradientUnits="userSpaceOnUse">
            <stop stop-color="#F8B430"/>
            <stop offset="1" stop-color="#FFE452"/>
        </linearGradient>
        <clipPath id="clip0_0_5352">
            <rect width="86" height="50" fill="white" transform="translate(0.170166 0.1875)"/>
        </clipPath>
        <clipPath id="clip1_0_5352">
            <rect width="86" height="50" fill="white" transform="translate(0.170166 0.1875)"/>
        </clipPath>
        <clipPath id="clip2_0_5352">
            <rect width="86" height="50" fill="white" transform="translate(0.170166 0.1875)"/>
        </clipPath>
    </defs>
</svg>
