<svg width="101" height="51" viewBox="0 0 101 51" fill="none" xmlns="http://www.w3.org/2000/svg">
    <g clip-path="url(#clip0_0_5360)">
        <g clip-path="url(#clip1_0_5360)">
            <g clip-path="url(#clip2_0_5360)">
                <path d="M11.0231 3.24123C11.2031 2.10014 10.9064 0.99875 10.2946 0.1875C9.46788 0.742651 8.84871 1.68114 8.66879 2.82305C8.48887 3.96415 8.78549 5.06634 9.39738 5.87678C10.2249 5.32163 10.8432 4.38314 11.0231 3.24123Z" fill="url(#paint0_linear_0_5360)"/>
                <path d="M6.30253 10.0236C6.91279 9.21155 7.20779 8.10935 7.02544 6.96825C6.84229 5.82715 6.2223 4.88947 5.39403 4.33594C4.78377 5.14881 4.48958 6.25101 4.67193 7.39211C4.85428 8.53321 5.47426 9.47008 6.30253 10.0236Z" fill="url(#paint1_linear_0_5360)"/>
                <path d="M4.28006 15.0485C4.70878 14.1149 4.77037 12.9713 4.35867 11.8999C3.94615 10.8277 3.14787 10.0562 2.2264 9.7085C1.79768 10.6421 1.73608 11.7857 2.1486 12.8571C2.5603 13.9293 3.35858 14.7008 4.28006 15.0485Z" fill="url(#paint2_linear_0_5360)"/>
                <path d="M19.6363 37.7114C16.4464 37.0347 13.575 35.5953 11.2012 33.6252C11.9809 33.0635 12.5628 32.1558 12.7354 31.0577C12.9153 29.9158 12.6187 28.8144 12.0068 28.0039C11.1794 28.5591 10.561 29.4984 10.3811 30.6395C10.2239 31.6347 10.4305 32.6008 10.8917 33.3691C9.78132 32.4079 8.78853 31.3243 7.92947 30.1484C8.81528 29.8015 9.58601 29.0656 10.0018 28.0412C10.4321 26.9779 10.3916 25.8328 9.97907 24.891C9.05193 25.2209 8.23987 25.9762 7.80871 27.0395C7.43186 27.9691 7.41646 28.9619 7.69363 29.8266C6.75271 28.4805 5.98927 27.0152 5.42764 25.4689C6.38882 25.323 7.30948 24.746 7.91569 23.7961C8.52676 22.8374 8.68885 21.7044 8.45139 20.697C7.48129 20.8364 6.55091 21.4159 5.93903 22.3746C5.35875 23.2856 5.18775 24.3521 5.37658 25.3206C4.82467 23.7621 4.49158 22.1177 4.38298 20.428C5.35713 20.5212 6.38477 20.1759 7.18143 19.3857C7.97809 18.5964 8.37359 17.5298 8.35252 16.4916C7.37837 16.3984 6.34911 16.7437 5.55245 17.5339C4.76308 18.3159 4.3692 19.3695 4.38217 20.3988C4.35867 20.03 4.33354 19.6621 4.33354 19.2893C4.33354 17.884 4.49968 16.5038 4.81251 15.1714C5.68374 15.6066 6.74217 15.665 7.73496 15.2346C8.74477 14.7978 9.47092 13.9501 9.79915 12.9719C8.91983 12.5172 7.84194 12.4516 6.83294 12.8892C5.94551 13.2734 5.27609 13.9752 4.9049 14.8059C5.3158 13.2045 5.93984 11.6752 6.75028 10.2504C7.51452 10.8956 8.55107 11.2059 9.62329 11.0131C10.698 10.8194 11.5813 10.1605 12.1025 9.28117C11.3374 8.63444 10.2992 8.32161 9.22455 8.5145C8.17584 8.70333 7.31272 9.33628 6.78756 10.1832C7.60448 8.76087 8.60456 7.44472 9.76268 6.26958C10.2887 7.12864 11.1615 7.77132 12.2216 7.96016C13.297 8.15142 14.3344 7.83616 15.0987 7.18619C14.5759 6.30848 13.6909 5.65202 12.6163 5.46076C11.6608 5.29138 10.7361 5.52235 10.0058 6.03131C10.8463 5.20871 11.7775 4.47364 12.763 3.80908C13.601 4.05627 14.5257 4.02628 15.3734 3.62106C16.3646 3.14776 17.0307 2.28707 17.2795 1.31617C16.3419 0.912569 15.2364 0.898792 14.2453 1.3729C13.3384 1.80567 12.72 2.56911 12.4283 3.43871C7.22195 6.98844 3.86916 12.8601 3.86916 19.2893C3.86916 19.4368 3.87484 19.5827 3.87889 19.7294C3.78812 18.9481 3.46637 18.179 2.91041 17.5468C2.16643 16.7007 1.16229 16.2809 0.184087 16.3028C0.0965595 17.3377 0.421546 18.4294 1.16553 19.2755C1.90952 20.1216 2.91365 20.5414 3.89185 20.5195C3.89753 20.4466 3.89753 20.3737 3.89915 20.2999C3.981 21.7952 4.2444 23.254 4.66664 24.6544C4.39838 24.0166 3.96155 23.4395 3.36588 23.0116C2.46305 22.3625 1.39651 22.1907 0.44748 22.4435C0.578771 23.4728 1.12501 24.4607 2.02784 25.1099C2.92986 25.7582 3.99721 25.9308 4.94624 25.678C4.93165 25.5605 4.90896 25.4446 4.88383 25.3279C5.35146 26.691 5.97144 27.9926 6.72758 29.2131C6.37504 28.782 5.92768 28.4221 5.3936 28.1774C4.39271 27.7195 3.31401 27.7641 2.42658 28.2009C2.73779 29.1864 3.44935 30.0471 4.45025 30.5058C5.45195 30.9629 6.52984 30.9191 7.41727 30.4823C7.35487 30.2829 7.27139 30.0916 7.17738 29.9061C7.92947 31.0115 8.79583 32.0407 9.76106 32.9784C9.33558 32.6729 8.83878 32.4533 8.29173 32.3568C7.21628 32.1656 6.17892 32.4808 5.41548 33.13C5.93822 34.0085 6.82241 34.665 7.89786 34.8562C8.97331 35.0467 10.0107 34.7314 10.7741 34.0822C10.6688 33.9048 10.5448 33.7394 10.4111 33.5822C12.9332 35.8215 16.0533 37.4545 19.5447 38.196L19.6363 37.7114Z" fill="url(#paint3_linear_0_5360)"/>
                <path d="M90.677 5.87678C91.288 5.06634 91.5847 3.96415 91.4055 2.82305C91.2248 1.68114 90.6065 0.742651 89.779 0.1875C89.1671 0.99875 88.8705 2.10014 89.0504 3.24123C89.2303 4.38314 89.8495 5.32163 90.677 5.87678Z" fill="url(#paint4_linear_0_5360)"/>
                <path d="M95.354 7.39211C95.5364 6.25101 95.2414 5.14881 94.6311 4.33594C93.8036 4.88947 93.1828 5.82715 93.0005 6.96825C92.8181 8.10935 93.1131 9.21155 93.7226 10.0236C94.5509 9.47008 95.1717 8.53321 95.354 7.39211Z" fill="url(#paint5_linear_0_5360)"/>
                <path d="M95.7519 15.0485C96.6742 14.7008 97.4717 13.9293 97.8842 12.8571C98.2959 11.7857 98.2343 10.6421 97.8064 9.7085C96.8841 10.0562 96.0867 10.8277 95.6741 11.8999C95.2624 12.9713 95.324 14.1149 95.7519 15.0485Z" fill="url(#paint6_linear_0_5360)"/>
                <path d="M96.6712 23.0087C96.0756 23.4366 95.6395 24.0136 95.3705 24.6514C95.7935 23.251 96.0569 21.7922 96.138 20.2969C96.1404 20.3707 96.1396 20.4436 96.1461 20.5166C97.1235 20.5385 98.1284 20.1187 98.8724 19.2726C99.6164 18.4265 99.9414 17.3348 99.8538 16.2999C98.8756 16.278 97.8715 16.6978 97.1275 17.5439C96.5715 18.176 96.2498 18.9451 96.159 19.7264C96.1623 19.5797 96.1688 19.4338 96.1688 19.2863C96.1688 12.8571 92.8152 6.98545 87.6089 3.43572C87.3171 2.56611 86.6988 1.80268 85.7919 1.36991C84.8007 0.895803 83.6953 0.909579 82.7576 1.31317C83.0064 2.28408 83.6726 3.14477 84.6637 3.61807C85.5115 4.02329 86.4362 4.05327 87.275 3.80609C88.2605 4.47065 89.1917 5.20572 90.0313 6.02832C89.3011 5.51936 88.3764 5.28838 87.4209 5.45777C86.3462 5.64903 85.462 6.30549 84.9393 7.18319C85.7027 7.83317 86.7401 8.14843 87.8155 7.95716C88.8756 7.76833 89.7493 7.12565 90.2744 6.26659C91.4325 7.44172 92.4334 8.75788 93.2504 10.1802C92.7244 9.33329 91.8613 8.70034 90.8134 8.51151C89.7387 8.31862 88.6997 8.63145 87.9355 9.27818C88.4566 10.1575 89.3392 10.8164 90.4146 11.0101C91.4868 11.203 92.5226 10.8926 93.2876 10.2475C94.0981 11.6722 94.7221 13.2015 95.1322 14.803C94.761 13.9723 94.0924 13.2704 93.2042 12.8863C92.1952 12.4486 91.1181 12.5143 90.238 12.9689C90.567 13.9471 91.2931 14.7949 92.303 15.2317C93.2957 15.662 94.3534 15.6037 95.2254 15.1685C95.5374 16.5008 95.7044 17.881 95.7044 19.2863C95.7044 19.6591 95.6784 20.0271 95.6557 20.3958C95.6687 19.3666 95.2748 18.313 94.4855 17.5309C93.6888 16.7407 92.6595 16.3955 91.6846 16.4887C91.6643 17.5269 92.059 18.5934 92.8565 19.3828C93.6523 20.173 94.6808 20.5182 95.6541 20.425C95.5463 22.1148 95.2133 23.7592 94.6613 25.3176C94.8502 24.3492 94.6792 23.2826 94.0989 22.3717C93.487 21.4129 92.5566 20.8335 91.5865 20.6941C91.3483 21.7014 91.5103 22.8344 92.1222 23.7932C92.7284 24.743 93.6491 25.3201 94.6103 25.4659C94.0486 27.0123 93.2852 28.4775 92.3435 29.8237C92.6215 28.9589 92.6061 27.9661 92.2284 27.0366C91.7981 25.9733 90.986 25.2179 90.058 24.8881C89.6455 25.8298 89.605 26.975 90.0362 28.0383C90.4519 29.0627 91.2226 29.7986 92.1085 30.1454C91.2486 31.3214 90.2566 32.4049 89.1455 33.3661C89.6066 32.5978 89.8133 31.6318 89.6561 30.6365C89.4761 29.4954 88.8578 28.5561 88.0311 28.001C87.4192 28.8114 87.1218 29.9128 87.3017 31.0547C87.4752 32.1529 88.0563 33.0606 88.8367 33.6222C86.4629 35.5924 83.5907 37.0317 80.4016 37.7084L80.4924 38.1931C83.9838 37.4515 87.104 35.8185 89.6261 33.5793C89.4923 33.7365 89.3692 33.9018 89.263 34.0793C90.0272 34.7285 91.0646 35.0437 92.1401 34.8533C93.2147 34.662 94.0989 34.0055 94.6224 33.127C93.859 32.4779 92.8208 32.1626 91.7462 32.3539C91.1991 32.4503 90.7023 32.6699 90.2769 32.9755C91.2421 32.0378 92.1076 31.0085 92.8605 29.9031C92.7657 30.0887 92.6822 30.28 92.6198 30.4793C93.5081 30.9161 94.586 30.9599 95.5869 30.5028C96.5886 30.0441 97.3001 29.1834 97.6105 28.1979C96.7231 27.7611 95.6452 27.7165 94.6435 28.1744C94.1102 28.4192 93.6621 28.779 93.3095 29.2102C94.0657 27.9896 94.6865 26.6881 95.1541 25.3249C95.1281 25.4416 95.1063 25.5575 95.0917 25.675C96.0407 25.9279 97.1072 25.7553 98.0101 25.1069C98.9129 24.4577 99.4591 23.4698 99.5904 22.4406C98.6406 22.1877 97.5741 22.3595 96.6712 23.0087Z" fill="url(#paint7_linear_0_5360)"/>
                <path d="M29.9576 12.7772H35.5188C38.0914 12.7772 39.6011 11.7045 39.6011 9.94133C39.6011 8.51603 38.7692 7.81073 37.4598 7.3993C38.4149 7.00257 39.1235 6.29727 39.1235 5.10707C39.1235 4.37238 38.8617 3.82871 38.4303 3.41729C37.7987 2.81484 36.8436 2.49158 35.488 2.49158H29.9576V12.7772ZM32.8691 10.485V8.5895H35.149C36.1504 8.5895 36.6125 8.95684 36.6125 9.51521C36.6125 10.147 36.0888 10.485 35.1799 10.485H32.8691ZM32.8691 6.59114V4.78381H34.8101C35.7036 4.78381 36.1658 5.10707 36.1658 5.66544C36.1658 6.29727 35.6574 6.59114 34.7485 6.59114H32.8691Z" fill="url(#paint8_linear_0_5360)"/>
                <path d="M40.9697 12.7772H49.7198V10.3527H43.9275V8.72174H49.1036V6.47359H43.9275V4.91605H49.6428V2.49158H40.9697V12.7772Z" fill="url(#paint9_linear_0_5360)"/>
                <path d="M55.4812 12.9535C58.1 12.9535 59.8408 11.7046 59.8408 9.60337C59.8408 7.6491 58.3003 6.88502 55.8201 6.37074C54.3258 6.04747 53.9561 5.84176 53.9561 5.37156C53.9561 4.97483 54.3104 4.68095 55.0344 4.68095C55.9895 4.68095 57.0679 5.0336 58.0538 5.69482L59.5481 3.68178C58.3773 2.78545 56.9446 2.31525 55.1114 2.31525C52.5234 2.31525 50.9367 3.69647 50.9367 5.60666C50.9367 7.75195 52.7083 8.36909 55.0036 8.86868C56.4671 9.19194 56.8214 9.42704 56.8214 9.85316C56.8214 10.3233 56.3901 10.5878 55.589 10.5878C54.3412 10.5878 53.155 10.1617 52.0921 9.35357L50.4283 11.249C51.7531 12.3805 53.5709 12.9535 55.4812 12.9535Z" fill="url(#paint10_linear_0_5360)"/>
                <path d="M63.6275 12.7772H66.6161V4.98952H69.8512V2.49158H60.3925V4.98952H63.6275V12.7772Z" fill="url(#paint11_linear_0_5360)"/>
                <path d="M18.7931 25.6902C21.2773 25.6902 22.9286 24.4481 22.9286 22.3584C22.9286 20.4149 21.4673 19.655 19.1146 19.1435C17.6971 18.8221 17.3464 18.6175 17.3464 18.1499C17.3464 17.7553 17.6825 17.463 18.3693 17.463C19.2753 17.463 20.2983 17.8138 21.2335 18.4713L22.651 16.4694C21.5404 15.578 20.1814 15.1103 18.4424 15.1103C15.9874 15.1103 14.4823 16.484 14.4823 18.3837C14.4823 20.5172 16.1628 21.1309 18.3401 21.6278C19.7283 21.9492 20.0644 22.1831 20.0644 22.6068C20.0644 23.0745 19.6553 23.3375 18.8954 23.3375C17.7117 23.3375 16.5865 22.9137 15.5782 22.11L14 23.9951C15.2568 25.1203 16.9811 25.6902 18.7931 25.6902Z" fill="url(#paint12_linear_0_5360)"/>
                <path d="M28.9104 25.7048C31.8184 25.7048 33.7034 24.2581 33.7034 20.9556V15.2857H30.8247V21.0432C30.8247 22.4753 30.0794 23.1475 28.9396 23.1475C27.7998 23.1475 27.0545 22.4461 27.0545 20.9702V15.2857H24.1757V21.0286C24.1757 24.2289 26.0024 25.7048 28.9104 25.7048Z" fill="url(#paint13_linear_0_5360)"/>
                <path d="M35.3812 25.5148H38.2161V22.5922H39.619C42.1617 22.5922 44.0175 21.3209 44.0175 18.9097C44.0175 16.6155 42.3516 15.2857 39.7651 15.2857H35.3812V25.5148ZM38.2161 20.371V17.6676H39.5459C40.5688 17.6676 41.1826 18.1352 41.1826 19.012C41.1826 19.845 40.5688 20.371 39.5605 20.371H38.2161Z" fill="url(#paint14_linear_0_5360)"/>
                <path d="M45.2136 25.5148H48.0485V22.5922H49.4514C51.9941 22.5922 53.8499 21.3209 53.8499 18.9097C53.8499 16.6155 52.184 15.2857 49.5975 15.2857H45.2136V25.5148ZM48.0485 20.371V17.6676H49.3783C50.4012 17.6676 51.015 18.1352 51.015 19.012C51.015 19.845 50.4012 20.371 49.3929 20.371H48.0485Z" fill="url(#paint15_linear_0_5360)"/>
                <path d="M60.1898 25.7194C63.3462 25.7194 65.7135 23.3375 65.7135 20.4003C65.7135 17.4338 63.3755 15.0811 60.219 15.0811C57.0626 15.0811 54.6953 17.463 54.6953 20.4003C54.6953 23.3667 57.0334 25.7194 60.1898 25.7194ZM60.219 23.1621C58.6701 23.1621 57.6033 21.8762 57.6033 20.4003C57.6033 18.8951 58.6408 17.6384 60.1898 17.6384C61.7534 17.6384 62.8202 18.9243 62.8202 20.4003C62.8202 21.9054 61.7826 23.1621 60.219 23.1621Z" fill="url(#paint16_linear_0_5360)"/>
                <path d="M67.1903 25.5148H70.0252V22.4169H71.2673L73.3277 25.5148H76.6011L74.1607 21.9492C75.432 21.4086 76.265 20.371 76.265 18.8074C76.265 17.7699 75.9581 16.9808 75.359 16.3817C74.6721 15.6949 73.5908 15.2857 72.0272 15.2857H67.1903V25.5148ZM70.0252 20.1957V17.7407H71.8811C72.8309 17.7407 73.4154 18.1499 73.4154 18.9536C73.4154 19.7281 72.8601 20.1957 71.8957 20.1957H70.0252Z" fill="url(#paint17_linear_0_5360)"/>
                <path d="M80.1922 25.5148H83.0272V17.7699H86.0959V15.2857H77.1235V17.7699H80.1922V25.5148Z" fill="url(#paint18_linear_0_5360)"/>
                <path d="M34.1702 36.7555H40.8182V34.8595H37.3502L38.7902 33.8515C40.0502 32.9635 40.7342 32.2555 40.7342 30.9115C40.7342 29.3035 39.4742 28.2115 37.6382 28.2115C36.0062 28.2115 35.1182 28.8475 34.2182 30.0115L35.7902 31.3195C36.4502 30.5635 36.8942 30.2395 37.4582 30.2395C38.0222 30.2395 38.3942 30.5635 38.3942 31.0915C38.3942 31.5955 38.1062 32.0035 37.3142 32.6035L34.1702 35.0035V36.7555Z" fill="url(#paint19_linear_0_5360)"/>
                <path d="M45.6305 36.9235C48.0305 36.9235 49.5305 34.9315 49.5305 32.5555C49.5305 30.1555 48.0425 28.1875 45.6545 28.1875C43.2665 28.1875 41.7545 30.1795 41.7545 32.5555C41.7545 34.9555 43.2305 36.9235 45.6305 36.9235ZM45.6545 34.8595C44.7185 34.8595 44.0945 33.8995 44.0945 32.5555C44.0945 31.1875 44.7065 30.2515 45.6305 30.2515C46.5545 30.2515 47.1905 31.2235 47.1905 32.5555C47.1905 33.9115 46.5905 34.8595 45.6545 34.8595Z" fill="url(#paint20_linear_0_5360)"/>
                <path d="M50.3069 36.7555H56.9549V34.8595H53.4869L54.9269 33.8515C56.1869 32.9635 56.8709 32.2555 56.8709 30.9115C56.8709 29.3035 55.6109 28.2115 53.7749 28.2115C52.1429 28.2115 51.2549 28.8475 50.3549 30.0115L51.9269 31.3195C52.5869 30.5635 53.0309 30.2395 53.5949 30.2395C54.1589 30.2395 54.5309 30.5635 54.5309 31.0915C54.5309 31.5955 54.2429 32.0035 53.4509 32.6035L50.3069 35.0035V36.7555Z" fill="url(#paint21_linear_0_5360)"/>
                <path d="M57.7952 36.7555H64.4432V34.8595H60.9752L62.4152 33.8515C63.6752 32.9635 64.3592 32.2555 64.3592 30.9115C64.3592 29.3035 63.0992 28.2115 61.2632 28.2115C59.6312 28.2115 58.7432 28.8475 57.8432 30.0115L59.4152 31.3195C60.0752 30.5635 60.5192 30.2395 61.0832 30.2395C61.6472 30.2395 62.0192 30.5635 62.0192 31.0915C62.0192 31.5955 61.7312 32.0035 60.9392 32.6035L57.7952 35.0035V36.7555Z" fill="url(#paint22_linear_0_5360)"/>
                <path fill-rule="evenodd" clip-rule="evenodd" d="M17.2667 40.6775C14.0341 41.1969 12.222 44.0725 13.202 47.128C14.0563 49.7923 17.2987 50.9626 20.1683 49.6425L20.5233 49.4792L20.5507 49.0283C20.5658 48.7802 20.5891 48.3932 20.6026 48.1682C20.631 47.6931 20.6441 47.7037 20.335 47.9504C18.2925 49.5801 15.4747 48.7445 14.8827 46.3335C14.0897 43.1041 16.961 40.9119 19.986 42.437C20.1828 42.536 20.3553 42.6173 20.3692 42.6173C20.3831 42.6173 20.3886 42.2346 20.3817 41.7672L20.3692 40.9169L20.045 40.8319C19.22 40.6153 18.0561 40.5508 17.2667 40.6775ZM32.7513 40.7657C31.8701 41.0026 31.7201 42.1807 32.5115 42.6495C33.0006 42.9395 33.6589 42.7484 33.9116 42.2433C34.3166 41.4337 33.6106 40.5347 32.7513 40.7657ZM66.2775 40.7647C65.1219 41.0788 65.3383 42.7711 66.5351 42.7787C67.782 42.7869 67.8879 40.9149 66.6507 40.7313C66.5617 40.718 66.3937 40.7331 66.2775 40.7647ZM74.1986 43.3346L73.0178 44.6039L73.4197 44.6174L73.8217 44.6308L73.8376 46.8376C73.8559 49.3674 73.8583 49.3828 74.2649 49.7612C74.6284 50.0995 75.7766 50.2425 76.3491 50.0207C76.4169 49.9946 77.3169 48.6948 77.2879 48.6653C77.2822 48.6595 77.163 48.6865 77.0231 48.7254C76.6491 48.8289 75.927 48.8321 75.7444 48.7311C75.4544 48.5708 75.4487 48.5281 75.4487 46.4783V44.6274H76.2822H77.1157V44.0898V43.5521H76.2822H75.4487V42.8043C75.4487 42.3929 75.4332 42.0584 75.4141 42.0608C75.3948 42.0632 74.8479 42.6363 74.1986 43.3346ZM22.9158 43.5295C22.7122 43.5634 22.4522 43.6197 22.3384 43.655L22.1314 43.7192L21.8922 44.4654C21.6111 45.3433 21.5992 45.2777 22.0017 45.074C23.191 44.4714 24.2404 44.7678 24.2545 45.7103L24.2587 45.9884L23.7883 46.1923C21.6383 47.1242 21.154 47.5507 21.1584 48.5071C21.1622 49.3206 21.6149 49.846 22.4699 50.0291C22.9969 50.1418 23.2174 50.1214 23.4285 49.9403C23.6963 49.7105 24.1931 49.3485 24.2406 49.3485C24.2633 49.3485 24.2819 49.5061 24.2819 49.699V50.0496H25.2543C25.7891 50.0496 26.2267 50.0407 26.2267 50.0301C26.2267 50.0193 26.186 49.9146 26.1361 49.7975C25.9204 49.2893 25.8898 48.9669 25.8588 46.8709C25.8304 44.9532 25.8256 44.875 25.7245 44.618C25.3691 43.714 24.3 43.2997 22.9158 43.5295ZM28.9124 43.5088C27.9245 43.6861 27.2444 44.4615 27.246 45.4089C27.2474 46.1998 27.5374 46.6758 28.3671 47.2495C29.2811 47.8816 29.532 48.334 29.2384 48.8203C28.8667 49.4357 27.8922 49.1454 27.3375 48.254C27.1168 47.8991 27.1222 47.8862 27.0862 48.846C27.0688 49.3152 27.0437 49.7357 27.031 49.7808C27.0024 49.8811 27.1288 49.9349 27.6145 50.0295C29.7159 50.439 31.0155 49.6353 30.941 47.9717C30.9082 47.2369 30.6103 46.7847 29.7809 46.2114C29.0423 45.7006 28.8584 45.4718 28.8584 45.0633C28.8584 44.3791 29.6669 44.242 30.4617 44.7914L30.7646 45.0006V44.327V43.6532L30.441 43.5788C30.033 43.4852 29.2456 43.4491 28.9124 43.5088ZM38.6364 43.5068C38.2558 43.5872 38.1698 43.6542 37.6519 44.272L37.1394 44.8831L37.1676 44.2177L37.1958 43.5521H36.2437H35.2916L35.3226 43.6574C35.5169 44.3178 35.5328 44.552 35.5334 46.7628C35.5339 48.9976 35.5187 49.2226 35.3281 49.7634C35.2886 49.8759 35.256 49.9862 35.256 50.0087C35.256 50.0311 35.754 50.0496 36.3625 50.0496H37.4688L37.3595 49.6924C37.1829 49.1149 37.1547 48.7339 37.1547 46.9431V45.2458L37.4209 45.1185C38.1642 44.7627 38.9368 44.8967 39.2417 45.4343L39.3541 45.6322L39.3512 47.3151C39.348 49.1285 39.3587 49.0256 39.0748 49.9445L39.0423 50.0496H40.1591C40.7733 50.0496 41.2757 50.0417 41.2757 50.0321C41.2757 50.0225 41.2429 49.9226 41.2028 49.8101C41.0073 49.2619 40.9894 49.0529 40.9556 46.9411C40.9195 44.6613 40.9157 44.6334 40.5798 44.1654C40.2006 43.637 39.3633 43.3532 38.6364 43.5068ZM44.6791 43.5287C41.7079 44.1467 41.0728 48.8121 43.8148 49.8773C45.8575 50.671 47.9743 49.4289 48.301 47.2449C48.6528 44.8935 46.8771 43.0713 44.6791 43.5287ZM52.534 43.5062C52.0326 43.6129 51.7154 43.8754 51.3769 44.4637L51.1618 44.8375L51.1485 44.483C51.1411 44.2879 51.1534 44.0093 51.1761 43.8642C51.1987 43.719 51.2065 43.5894 51.1934 43.5762C51.1163 43.4984 49.281 43.5545 49.305 43.6339C49.5376 44.4024 49.577 44.9607 49.5509 47.1296C49.5277 49.0525 49.5104 49.2476 49.3122 49.8101C49.2726 49.9226 49.2403 50.0225 49.2403 50.0321C49.2403 50.0417 49.7402 50.0496 50.3515 50.0496C50.9627 50.0496 51.4629 50.0423 51.4629 50.0335C51.4629 50.0247 51.4204 49.8931 51.3686 49.7413C51.1761 49.177 51.1391 48.7238 51.1389 46.9269L51.1387 45.23L51.4397 45.0878C52.1526 44.7511 52.7621 44.9065 53.0231 45.4921C53.2309 45.9583 53.1546 48.9266 52.9158 49.6651C52.8552 49.8524 52.8056 50.0157 52.8056 50.0277C52.8056 50.0397 53.308 50.0496 53.922 50.0496C54.9661 50.0496 55.0362 50.0443 55.007 49.9677C54.7652 49.3357 54.7043 48.6994 54.7043 46.8176V45.1959L54.8546 45.1042C55.3707 44.79 56.0668 44.8315 56.4043 45.1967C56.6303 45.4411 56.6629 45.6421 56.6846 46.9177C56.7118 48.5169 56.6498 49.1512 56.3866 49.9677C56.3622 50.0441 56.4343 50.0496 57.476 50.0496H58.5914L58.5425 49.921C58.3187 49.3339 58.3047 49.1817 58.2726 46.9878C58.2454 45.1283 58.2322 44.8576 58.1585 44.6541C57.6194 43.1643 55.7092 43.0219 54.9109 44.412C54.6812 44.8119 54.6115 44.8865 54.6115 44.7325C54.6111 43.9885 53.4599 43.3089 52.534 43.5062ZM61.7666 43.5086C60.2724 43.7607 59.4049 45.0046 59.4049 46.8944C59.4049 48.5791 59.9865 49.5312 61.2853 49.972C61.9984 50.2138 63.446 50.1446 63.8895 49.8472C63.9765 49.7891 64.4585 48.2416 64.406 48.1886C64.3949 48.1774 64.2026 48.2636 63.9787 48.3803C62.8691 48.9581 61.8087 48.8125 61.348 48.019C61.2283 47.8128 61.0314 47.122 61.0664 47.0304C61.0803 46.9935 61.5902 46.9672 62.7688 46.9431C63.6943 46.9243 64.4618 46.8984 64.4746 46.886C64.5395 46.8216 64.4887 45.4303 64.4108 45.1452C64.0697 43.8952 63.0854 43.286 61.7666 43.5086ZM70.6098 43.4914C68.7355 43.7422 68.1368 45.9096 69.6328 47.0288C69.7882 47.1451 70.0701 47.3558 70.2594 47.4974C71.1811 48.1864 71.1108 49.1159 70.1368 49.1143C69.643 49.1135 69.2838 48.8614 68.8843 48.2356L68.7143 47.9694L68.6845 48.1798C68.6682 48.2955 68.6404 48.7301 68.6227 49.1456L68.5909 49.9008L68.928 49.9782C70.9421 50.4406 72.2741 49.8657 72.4938 48.4389C72.6356 47.518 72.3009 46.8685 71.3508 46.2212C70.6787 45.7636 70.4014 45.4245 70.4016 45.0615C70.4024 44.4022 71.2099 44.2396 71.9606 44.7479C72.1287 44.8616 72.2737 44.9545 72.283 44.9545C72.2923 44.9545 72.3001 44.6627 72.3001 44.3061V43.6578L72.1032 43.6045C71.6616 43.4846 71.0222 43.436 70.6098 43.4914ZM79.9532 43.5283C78.5293 43.789 77.6608 45.0643 77.6608 46.8944C77.6608 48.6021 78.3211 49.6174 79.6872 50.0101C80.3809 50.2096 81.9468 50.0943 82.2194 49.824C82.2637 49.7798 82.712 48.1798 82.6798 48.1798C82.6659 48.1798 82.4659 48.2739 82.2353 48.3888C80.7524 49.1273 79.4333 48.5757 79.3708 47.1908L79.3614 46.9878L81.0052 46.9505C81.9095 46.9299 82.6775 46.9034 82.7122 46.8916C82.8024 46.8607 82.7585 45.3483 82.6588 45.0433C82.2589 43.8218 81.2957 43.2826 79.9532 43.5283ZM86.9937 43.59C86.5896 43.7557 86.1953 44.1585 85.8365 44.7726C85.7303 44.954 85.6286 45.1165 85.6103 45.1337C85.592 45.1508 85.5886 44.802 85.6027 44.3585L85.6286 43.5521H84.6798C83.7976 43.5521 83.7329 43.5579 83.7559 43.6339C84.1492 44.9332 84.1226 48.9368 83.7136 49.9677C83.6832 50.0443 83.7527 50.0496 84.7974 50.0496C85.4112 50.0496 85.9136 50.0423 85.9136 50.0335C85.9136 50.0247 85.8709 49.8931 85.8189 49.7413C85.6383 49.2157 85.59 48.6691 85.5898 47.1439L85.5894 45.7107L85.74 45.5823C86.2126 45.1786 86.8479 45.0936 87.4035 45.3595L87.7128 45.5073L87.7378 45.3361C87.7515 45.2418 87.795 44.8809 87.8344 44.5337C87.8737 44.1868 87.916 43.8263 87.9281 43.7328C87.9474 43.5868 87.9359 43.559 87.8465 43.5349C87.6482 43.4811 87.186 43.511 86.9937 43.59ZM31.9221 43.5983C31.9221 43.6235 31.9785 43.8287 32.0477 44.0541L32.173 44.4637L32.1895 46.5994C32.207 48.8726 32.1806 49.2637 31.9732 49.8149L31.8848 50.0496H33.0107H34.1369L34.0471 49.8041C33.8492 49.2627 33.8206 48.8831 33.821 46.8064C33.8214 44.7581 33.8403 44.4888 34.0256 43.8999L34.1351 43.5521H33.0286C32.3331 43.5521 31.9221 43.5692 31.9221 43.5983ZM65.5198 43.9095C65.8206 44.8939 65.8234 48.7371 65.5238 49.6894L65.4104 50.0496H66.5169C67.1253 50.0496 67.6231 50.0393 67.6231 50.0269C67.6231 50.0145 67.5659 49.82 67.496 49.5946L67.3689 49.1849V46.8242C67.3687 44.5257 67.3714 44.4545 67.471 44.113C67.5274 43.9203 67.587 43.7152 67.6037 43.6574L67.6341 43.5521H66.5224H65.4106L65.5198 43.9095ZM62.5441 44.5905C62.9271 44.7062 63.1885 45.1417 63.2523 45.7702L63.2833 46.0764H62.173H61.0628L61.1067 45.7843C61.2543 44.7998 61.7833 44.3603 62.5441 44.5905ZM80.8896 44.6222C81.2184 44.7754 81.4434 45.1369 81.4941 45.5929C81.5078 45.7175 81.5281 45.8771 81.539 45.9479L81.5587 46.0764H80.4484C79.1818 46.0764 79.2949 46.1278 79.4051 45.6022C79.5875 44.7337 80.2253 44.3125 80.8896 44.6222ZM45.6477 44.7395C46.7144 45.3706 46.9222 47.8082 45.9836 48.6817C44.8249 49.76 43.4125 47.7376 43.9356 45.7492C44.1982 44.7509 44.9338 44.317 45.6477 44.7395ZM24.2819 48.0593V48.9204L24.1439 48.9508C23.1886 49.1628 22.5626 48.3146 22.9381 47.3173L22.983 47.1982H23.6324H24.2819V48.0593Z" fill="url(#paint23_linear_0_5360)"/>
            </g>
        </g>
    </g>
    <defs>
        <linearGradient id="paint0_linear_0_5360" x1="9.1084" y1="0.935302" x2="12.4386" y2="2.54825" gradientUnits="userSpaceOnUse">
            <stop stop-color="#F8B430"/>
            <stop offset="1" stop-color="#FFE452"/>
        </linearGradient>
        <linearGradient id="paint1_linear_0_5360" x1="5.11051" y1="5.08353" x2="8.44199" y2="6.69884" gradientUnits="userSpaceOnUse">
            <stop stop-color="#F8B430"/>
            <stop offset="1" stop-color="#FFE452"/>
        </linearGradient>
        <linearGradient id="paint2_linear_0_5360" x1="2.42324" y1="10.4104" x2="5.88334" y2="12.4198" gradientUnits="userSpaceOnUse">
            <stop stop-color="#F8B430"/>
            <stop offset="1" stop-color="#FFE452"/>
        </linearGradient>
        <linearGradient id="paint3_linear_0_5360" x1="4.06339" y1="5.90227" x2="28.2786" y2="20.1119" gradientUnits="userSpaceOnUse">
            <stop stop-color="#F8B430"/>
            <stop offset="1" stop-color="#FFE452"/>
        </linearGradient>
        <linearGradient id="paint4_linear_0_5360" x1="89.4901" y1="0.935302" x2="92.8207" y2="2.54869" gradientUnits="userSpaceOnUse">
            <stop stop-color="#F8B430"/>
            <stop offset="1" stop-color="#FFE452"/>
        </linearGradient>
        <linearGradient id="paint5_linear_0_5360" x1="93.4391" y1="5.08353" x2="96.7705" y2="6.69875" gradientUnits="userSpaceOnUse">
            <stop stop-color="#F8B430"/>
            <stop offset="1" stop-color="#FFE452"/>
        </linearGradient>
        <linearGradient id="paint6_linear_0_5360" x1="95.9493" y1="10.4104" x2="99.4091" y2="12.4192" gradientUnits="userSpaceOnUse">
            <stop stop-color="#F8B430"/>
            <stop offset="1" stop-color="#FFE452"/>
        </linearGradient>
        <linearGradient id="paint7_linear_0_5360" x1="84.2949" y1="5.89928" x2="108.51" y2="20.109" gradientUnits="userSpaceOnUse">
            <stop stop-color="#F8B430"/>
            <stop offset="1" stop-color="#FFE452"/>
        </linearGradient>
        <linearGradient id="paint8_linear_0_5360" x1="37.9363" y1="3.71356" x2="41.5104" y2="18.736" gradientUnits="userSpaceOnUse">
            <stop stop-color="#F8B430"/>
            <stop offset="1" stop-color="#FFE452"/>
        </linearGradient>
        <linearGradient id="paint9_linear_0_5360" x1="37.9363" y1="3.71356" x2="41.5104" y2="18.736" gradientUnits="userSpaceOnUse">
            <stop stop-color="#F8B430"/>
            <stop offset="1" stop-color="#FFE452"/>
        </linearGradient>
        <linearGradient id="paint10_linear_0_5360" x1="37.9363" y1="3.71356" x2="41.5104" y2="18.736" gradientUnits="userSpaceOnUse">
            <stop stop-color="#F8B430"/>
            <stop offset="1" stop-color="#FFE452"/>
        </linearGradient>
        <linearGradient id="paint11_linear_0_5360" x1="37.9363" y1="3.71356" x2="41.5104" y2="18.736" gradientUnits="userSpaceOnUse">
            <stop stop-color="#F8B430"/>
            <stop offset="1" stop-color="#FFE452"/>
        </linearGradient>
        <linearGradient id="paint12_linear_0_5360" x1="28.4192" y1="16.4794" x2="30.4733" y2="32.0819" gradientUnits="userSpaceOnUse">
            <stop stop-color="#F8B430"/>
            <stop offset="1" stop-color="#FFE452"/>
        </linearGradient>
        <linearGradient id="paint13_linear_0_5360" x1="28.4192" y1="16.4794" x2="30.4733" y2="32.0819" gradientUnits="userSpaceOnUse">
            <stop stop-color="#F8B430"/>
            <stop offset="1" stop-color="#FFE452"/>
        </linearGradient>
        <linearGradient id="paint14_linear_0_5360" x1="28.4192" y1="16.4794" x2="30.4733" y2="32.0819" gradientUnits="userSpaceOnUse">
            <stop stop-color="#F8B430"/>
            <stop offset="1" stop-color="#FFE452"/>
        </linearGradient>
        <linearGradient id="paint15_linear_0_5360" x1="28.4192" y1="16.4794" x2="30.4733" y2="32.0819" gradientUnits="userSpaceOnUse">
            <stop stop-color="#F8B430"/>
            <stop offset="1" stop-color="#FFE452"/>
        </linearGradient>
        <linearGradient id="paint16_linear_0_5360" x1="28.4192" y1="16.4794" x2="30.4733" y2="32.0819" gradientUnits="userSpaceOnUse">
            <stop stop-color="#F8B430"/>
            <stop offset="1" stop-color="#FFE452"/>
        </linearGradient>
        <linearGradient id="paint17_linear_0_5360" x1="28.4192" y1="16.4794" x2="30.4733" y2="32.0819" gradientUnits="userSpaceOnUse">
            <stop stop-color="#F8B430"/>
            <stop offset="1" stop-color="#FFE452"/>
        </linearGradient>
        <linearGradient id="paint18_linear_0_5360" x1="28.4192" y1="16.4794" x2="30.4733" y2="32.0819" gradientUnits="userSpaceOnUse">
            <stop stop-color="#F8B430"/>
            <stop offset="1" stop-color="#FFE452"/>
        </linearGradient>
        <linearGradient id="paint19_linear_0_5360" x1="40.2248" y1="29.3358" x2="43.3721" y2="41.56" gradientUnits="userSpaceOnUse">
            <stop stop-color="#F8B430"/>
            <stop offset="1" stop-color="#FFE452"/>
        </linearGradient>
        <linearGradient id="paint20_linear_0_5360" x1="40.2248" y1="29.3358" x2="43.3721" y2="41.56" gradientUnits="userSpaceOnUse">
            <stop stop-color="#F8B430"/>
            <stop offset="1" stop-color="#FFE452"/>
        </linearGradient>
        <linearGradient id="paint21_linear_0_5360" x1="40.2248" y1="29.3358" x2="43.3721" y2="41.56" gradientUnits="userSpaceOnUse">
            <stop stop-color="#F8B430"/>
            <stop offset="1" stop-color="#FFE452"/>
        </linearGradient>
        <linearGradient id="paint22_linear_0_5360" x1="40.2248" y1="29.3358" x2="43.3721" y2="41.56" gradientUnits="userSpaceOnUse">
            <stop stop-color="#F8B430"/>
            <stop offset="1" stop-color="#FFE452"/>
        </linearGradient>
        <linearGradient id="paint23_linear_0_5360" x1="27.9361" y1="41.8715" x2="29.5423" y2="55.9741" gradientUnits="userSpaceOnUse">
            <stop stop-color="#F8B430"/>
            <stop offset="1" stop-color="#FFE452"/>
        </linearGradient>
        <clipPath id="clip0_0_5360">
            <rect width="100" height="50" fill="white" transform="translate(0.170166 0.1875)"/>
        </clipPath>
        <clipPath id="clip1_0_5360">
            <rect width="100" height="50" fill="white" transform="translate(0.170166 0.1875)"/>
        </clipPath>
        <clipPath id="clip2_0_5360">
            <rect width="100" height="50" fill="white" transform="translate(0.170166 0.1875)"/>
        </clipPath>
    </defs>
</svg>
