<svg width="91" height="24" viewBox="0 0 91 24" fill="none" xmlns="http://www.w3.org/2000/svg">
    <g clip-path="url(#clip0_188_2550)">
        <g clip-path="url(#clip1_188_2550)">
            <g clip-path="url(#clip2_188_2550)">
                <path fill-rule="evenodd" clip-rule="evenodd" d="M19.1825 3.90887C20.2897 3.90887 21.3207 3.03476 21.491 1.95893C21.6614 0.878613 20.9038 0.00449979 19.7966 1.71641e-05C18.6939 -0.00446547 17.6584 0.869647 17.488 1.94996C17.3177 3.03027 18.0753 3.90439 19.1825 3.90887Z" fill="#FEFEFE"/>
                <path fill-rule="evenodd" clip-rule="evenodd" d="M72.0641 11.099C72.4227 9.35974 73.8347 7.88496 75.4171 7.88496C76.3091 7.88496 76.9501 8.54391 76.717 9.28354L71.831 12.6455C71.8982 11.7714 72.0641 11.099 72.0641 11.099ZM49.3506 15.1916L50.1261 10.7807C50.4712 9.73629 51.6905 8.34219 52.9636 8.2615C53.4522 8.23012 54.0394 8.24805 54.5908 8.69183C55.0659 9.22975 55.308 10.0366 55.308 11.0273C55.308 14.1651 53.7794 16.3526 51.6188 16.3526C50.5385 16.3526 49.6913 15.7968 49.3506 15.1916ZM90.6311 5.01608C88.7887 4.91746 86.3861 7.17222 86.3861 7.17222L85.6195 5.24917H83.5261L82.5176 10.9869C82.4503 11.3814 82.2351 11.7355 81.9214 11.9821L79.1466 14.1696C79.1466 14.1696 78.008 15.0348 76.4391 16.0523C75.7264 16.4064 75.1347 16.5633 74.543 16.5633C73.2609 16.5633 72.472 16.0702 72.0954 15.223C72.0372 15.0706 71.9879 14.9092 71.9475 14.7389L79.0704 9.92456C80.0925 9.20733 80.088 8.21667 79.94 7.72358C79.4828 6.19053 78.0977 5.03401 75.8115 5.03401C71.5396 5.03401 68.608 8.67838 68.608 13.8469C68.608 14.1965 68.6304 14.5372 68.6752 14.8689L66.6535 16.2899C66.2546 16.532 65.6942 16.7471 65.3401 16.7471C64.7305 16.7471 64.4705 16.2764 64.6543 15.2499L67.3035 0.461724L63.9774 0.452759L62.655 7.81324C62.5967 8.12702 62.4533 8.41391 62.2337 8.64701L58.5982 12.4797C58.6879 11.8431 58.7372 11.1752 58.7372 10.4714C58.7372 7.35601 57.2938 5.05194 54.8687 5.05194C52.5288 5.05194 50.7805 7.03326 50.7805 7.03326L49.8616 5.26262H47.7906L46.652 11.749C46.6027 12.0314 46.4772 12.2959 46.2934 12.5155L44.1821 15.0123C43.5949 15.6354 42.9763 16.4244 42.6715 16.4468C42.1156 16.5409 41.878 16.3347 42.0618 15.3037L42.9046 10.6059C43.5635 6.88533 42.4294 5.01159 39.2422 5.01159C37.3371 5.01159 35.1003 7.14981 35.1003 7.14981C34.6251 5.75123 33.4641 5.01159 31.698 5.01159C29.7704 5.01159 27.6726 7.26187 27.6726 7.26187L26.8074 5.24917H24.7096L23.6337 11.3904C23.5844 11.6728 23.4589 11.9417 23.2706 12.1614L20.859 15.0123C20.2718 15.6354 19.6532 16.4244 19.3483 16.4468C18.7925 16.5409 18.5549 16.3347 18.7387 15.3037L20.5631 5.25814H17.2415L16.6991 8.21667C16.6274 8.60666 16.457 8.96527 16.197 9.26561L11.3424 14.8823C10.0783 16.2316 8.50485 16.4244 8.1821 16.4513H4.74841L12.5661 7.61152L12.9651 5.21779H2.92398L2.44434 7.90737H8.28072L0.745422 16.7426L0.368881 19.2529C0.368881 19.2529 7.42454 19.2798 7.54557 19.2529C9.61206 19.2529 11.4544 17.4195 12.203 16.6754L15.9684 12.2331L15.2826 15.9671C14.8612 18.3922 15.7846 19.5353 17.7884 19.4995C19.0211 19.477 19.8594 18.6567 20.7066 17.8095L22.9703 15.1558L22.2172 19.4367H25.5433L26.9957 11.0497C27.1885 10.0097 28.5108 8.24805 29.9094 8.24805C31.3887 8.24805 32.0925 8.96976 31.7518 10.9466L30.2591 19.4367H33.5583L35.1586 10.4087C35.2527 9.81697 36.3285 8.12702 37.8168 8.12702C39.3722 8.12702 39.8743 8.96976 39.5291 10.9466L38.6057 15.9671C38.1843 18.3922 39.1078 19.5353 41.1115 19.4995C42.3442 19.477 43.1825 18.6567 44.0252 17.8095L45.9931 15.5099L45.2983 19.4457L44.5004 24H47.822L48.9023 17.8005C49.3595 18.3833 50.005 18.854 50.8119 19.1095C50.9912 19.1633 51.1795 19.2081 51.3767 19.2439C53.5284 19.3515 55.447 18.3071 57.1504 16.532L57.1593 16.523L61.9871 11.5204L61.1982 15.8999C60.7723 18.325 61.6913 19.4322 63.695 19.4367C64.995 19.4412 66.2142 18.7957 67.4918 17.9395L69.1862 16.7247C69.2176 16.7875 69.249 16.8547 69.2803 16.9175C70.0424 18.4057 71.4544 19.3874 73.5433 19.4098H73.5523C75.7488 19.4098 77.896 17.3388 79.1332 16.4692C79.4514 16.2451 80.6573 15.2768 81.9483 14.2279L81.0338 19.4367H84.3554L85.8078 11.0497C86.0006 10.0097 87.3274 8.24805 88.726 8.24805C89.2594 8.24805 89.6942 8.34219 90.0125 8.56184L90.6311 5.01608Z" fill="#FEFEFE"/>
            </g>
        </g>
    </g>
    <defs>
        <clipPath id="clip0_188_2550">
            <rect width="90" height="24" fill="white" transform="translate(0.5)"/>
        </clipPath>
        <clipPath id="clip1_188_2550">
            <rect width="90" height="24" fill="white" transform="translate(0.5)"/>
        </clipPath>
        <clipPath id="clip2_188_2550">
            <rect width="90.2694" height="24" fill="white" transform="translate(0.365318)"/>
        </clipPath>
    </defs>
</svg>
