<svg width="40" height="40" viewBox="0 0 40 40" fill="none" xmlns="http://www.w3.org/2000/svg">
<path d="M20 39C30.4934 39 39 30.4934 39 20C39 9.50659 30.4934 1 20 1C9.50655 1 1 9.50659 1 20C1 30.4934 9.50655 39 20 39Z" fill="#0E0E0E" stroke="#1D1D1B" stroke-width="0.16069" stroke-miterlimit="10"/>
<path d="M30.5177 35.0269C30.5177 35.0269 25.7372 37.7105 24.5513 37.6446L23.6096 34.5818C23.6096 34.5818 28.3066 32.3643 28.6296 32.0654L30.5161 35.0269H30.5177Z" fill="#D6A12B" stroke="#1D1D1B" stroke-width="0.16069" stroke-miterlimit="10"/>
<path d="M15.1093 37.8014C15.1093 37.8014 10.062 35.661 9.38867 34.684L11.235 32.0664C11.235 32.0664 15.8629 34.4237 16.2983 34.4976L15.1109 37.803L15.1093 37.8014Z" fill="#D6A12B" stroke="#1D1D1B" stroke-width="0.16069" stroke-miterlimit="10"/>
<path d="M3.49817 27.7995C3.49817 27.7995 1.43329 22.0918 1.75467 20.9493L4.94917 20.7002C4.94917 20.7002 6.17845 25.9757 6.3986 26.3581L3.49653 27.7995H3.49817Z" fill="#D6A12B" stroke="#1D1D1B" stroke-width="0.16069" stroke-miterlimit="10"/>
<path d="M16.5443 1.87715C16.5443 1.87715 22.011 1.46899 23.0571 2.0282L22.6152 5.20182C22.6152 5.20182 17.6724 5.20021 17.0007 5.3593L16.5427 1.87715H16.5443Z" fill="#D6A12B" stroke="#1D1D1B" stroke-width="0.16069" stroke-miterlimit="10"/>
<path d="M3.54175 11.7507C3.54175 11.7507 6.88731 6.81751 7.95429 6.29688L9.79093 8.7731C9.79093 8.7731 6.89692 12.7791 6.63338 13.4171L3.54175 11.7507Z" fill="#D6A12B" stroke="#1D1D1B" stroke-width="0.16069" stroke-miterlimit="10"/>
<path d="M38.26 20.9984C38.26 20.9984 37.2315 26.7961 36.5084 27.7378L33.4827 26.3671C33.4827 26.3671 34.924 21.2893 34.8003 20.5469L38.2583 20.9984H38.26Z" fill="#D6A12B" stroke="#1D1D1B" stroke-width="0.16069" stroke-miterlimit="10"/>
<path d="M29.9037 8.66901L32.1678 6.29883C32.1678 6.29883 36.1658 10.5796 36.2719 11.7832L33.2991 13.2696C33.2991 13.2696 30.6059 9.10768 29.9021 8.67061L29.9037 8.66901Z" fill="#D6A12B" stroke="#1D1D1B" stroke-width="0.16069" stroke-miterlimit="10"/>
<path d="M20.0029 33.6832C27.5606 33.6832 33.6873 27.5565 33.6873 19.9988C33.6873 12.4411 27.5606 6.31445 20.0029 6.31445C12.4453 6.31445 6.3186 12.4411 6.3186 19.9988C6.3186 27.5565 12.4453 33.6832 20.0029 33.6832Z" stroke="#D29D2A" stroke-width="0.803451" stroke-miterlimit="10"/>
<path d="M18.8596 9.85392L19.7434 8.72266L20.7525 9.90694L19.8494 11.2069L18.8596 9.85392Z" fill="#F8B430" stroke="#1D1D1B" stroke-width="0.16069" stroke-miterlimit="10"/>
<path d="M30.4309 18.7002C30.4309 18.7002 29.1631 20.2396 29.1502 20.2717C29.1374 20.3039 28.9911 21.1668 29.5487 21.1604C30.1063 21.1539 30.1979 20.9434 30.2397 20.8583L29.8926 21.5589H30.8551L30.5096 20.8759C30.5096 20.8759 30.8085 21.2744 31.2922 21.1154C31.7759 20.9563 31.8369 20.3794 31.7694 20.2669C31.7019 20.1544 30.4293 18.7018 30.4293 18.7018L30.4309 18.7002Z" fill="url(#paint0_linear_2025_51067)" stroke="#1D1D1B" stroke-width="0.16069" stroke-miterlimit="10"/>
<path d="M9.61715 18.7002C9.61715 18.7002 8.34935 20.2396 8.33649 20.2717C8.32364 20.3039 8.17741 21.1668 8.735 21.1604C9.2926 21.1539 9.38416 20.9434 9.42594 20.8583L9.07882 21.5589H10.0414L9.69593 20.8759C9.69593 20.8759 9.99475 21.2744 10.4784 21.1154C10.9621 20.9563 11.0232 20.3794 10.9557 20.2669C10.8882 20.1544 9.61558 18.7018 9.61558 18.7018L9.61715 18.7002Z" fill="url(#paint1_linear_2025_51067)" stroke="#1D1D1B" stroke-width="0.16069" stroke-miterlimit="10"/>
<path d="M19.8923 27.792C19.8923 27.792 20.5607 27.7438 20.7102 28.2918C20.8034 28.6308 20.7985 28.8269 20.7809 28.9265C20.7744 28.9651 20.8066 28.9972 20.8451 28.9892C21.0412 28.949 21.496 28.9153 21.6599 29.4022C21.872 30.0305 21.5891 30.6941 21.0621 30.6716C20.9223 30.6652 20.7873 30.6523 20.662 30.6314C20.3165 30.572 20.0513 30.4466 19.9967 30.2249C19.9212 29.9244 19.9389 29.5259 19.9389 29.5259C19.9389 29.5259 19.9871 30.6588 19.28 30.6716C19.2511 30.6716 19.2238 30.6716 19.1965 30.6716C18.536 30.6571 18.099 30.3213 18.0957 29.7862C18.0925 29.2511 18.3175 29.0213 18.6308 28.9586C18.7578 28.9329 18.8398 28.9346 18.8944 28.9426C18.9378 28.9506 18.9763 28.9137 18.9731 28.8703C18.9554 28.6662 18.9651 28.2548 19.2993 28.0427C19.7541 27.7551 19.8923 27.7904 19.8923 27.7904V27.792Z" fill="url(#paint2_linear_2025_51067)" stroke="#1D1D1B" stroke-width="0.16069" stroke-miterlimit="10"/>
<path d="M20.6949 30.6367L20.4474 31.3679H19.5427L19.2036 30.6721" fill="url(#paint3_linear_2025_51067)"/>
<path d="M20.6949 30.6367L20.4474 31.3679H19.5427L19.2036 30.6721" stroke="#1D1D1B" stroke-width="0.16069" stroke-miterlimit="10"/>
<path d="M22.8537 15.8173V15.0219C22.8537 15.0219 24.3128 14.3583 24.827 13.9164C25.3412 13.4745 25.7108 13.023 25.8088 12.7578H27.1715L27.1362 24.7083C27.1362 24.7083 27.3048 25.3977 27.9315 25.4154C28.5598 25.433 28.8073 25.4154 28.8073 25.4154V26.3972H22.9421V25.4507L23.8532 25.4234C23.8532 25.4234 24.578 25.3077 24.6053 24.4946C24.6326 23.6815 24.6149 16.2512 24.6149 16.2512C24.6149 16.2512 24.5265 15.7466 23.5881 15.8173C22.6497 15.8881 22.8537 15.8173 22.8537 15.8173Z" fill="url(#paint4_linear_2025_51067)" stroke="#1D1D1B" stroke-width="0.16069" stroke-miterlimit="10"/>
<path d="M21.9426 16.4246C21.7739 13.6656 18.8461 13.0807 18.732 13.0726C18.6163 13.063 15.9987 13.0726 15.9987 13.0726L11.8593 13.0694V13.905C11.8593 13.905 11.9043 13.8777 12.584 13.905C13.2653 13.9323 13.2557 14.8338 13.2557 14.8338C13.2557 14.8338 13.2734 23.7762 13.2734 24.5282C13.2734 25.2803 12.539 25.5808 12.539 25.5808H11.8577V26.4646H17.0062V25.5711C17.0062 25.5711 16.5643 25.5615 16.1224 25.2883C15.6805 25.0151 15.7866 24.8014 15.7866 24.8014V21.3337C15.7866 21.3337 15.7689 21.3867 18.1037 21.2277C20.4385 21.0686 22.1113 19.1837 21.9426 16.4246ZM15.6981 20.0691V14.453C15.6981 14.453 19.0244 14.2762 19.2896 16.6207C19.5547 18.9652 18.1294 20.0707 15.6981 20.0707V20.0691Z" fill="url(#paint5_linear_2025_51067)" stroke="#1D1D1B" stroke-width="0.16069" stroke-miterlimit="10"/>
<defs>
<linearGradient id="paint0_linear_2025_51067" x1="29.1235" y1="21.5589" x2="31.9319" y2="21.4144" gradientUnits="userSpaceOnUse">
<stop offset="0.187492" stop-color="#DEB04C"/>
<stop offset="0.504708" stop-color="#F7D167"/>
<stop offset="1" stop-color="#D7A945"/>
</linearGradient>
<linearGradient id="paint1_linear_2025_51067" x1="8.30981" y1="21.5589" x2="11.1182" y2="21.4144" gradientUnits="userSpaceOnUse">
<stop offset="0.187492" stop-color="#DEB04C"/>
<stop offset="0.504708" stop-color="#F7D167"/>
<stop offset="1" stop-color="#D7A945"/>
</linearGradient>
<linearGradient id="paint2_linear_2025_51067" x1="18.0957" y1="30.6722" x2="21.9127" y2="30.4069" gradientUnits="userSpaceOnUse">
<stop offset="0.187492" stop-color="#DEB04C"/>
<stop offset="0.504708" stop-color="#F7D167"/>
<stop offset="1" stop-color="#D7A945"/>
</linearGradient>
<linearGradient id="paint3_linear_2025_51067" x1="19.2036" y1="31.3679" x2="20.7574" y2="31.1932" gradientUnits="userSpaceOnUse">
<stop offset="0.187492" stop-color="#DEB04C"/>
<stop offset="0.504708" stop-color="#F7D167"/>
<stop offset="1" stop-color="#D7A945"/>
</linearGradient>
<linearGradient id="paint4_linear_2025_51067" x1="22.835" y1="26.3972" x2="29.1329" y2="26.2452" gradientUnits="userSpaceOnUse">
<stop offset="0.187492" stop-color="#DEB04C"/>
<stop offset="0.504708" stop-color="#F7D167"/>
<stop offset="1" stop-color="#D7A945"/>
</linearGradient>
<linearGradient id="paint5_linear_2025_51067" x1="11.8577" y1="26.4646" x2="22.4925" y2="26.0227" gradientUnits="userSpaceOnUse">
<stop offset="0.187492" stop-color="#DEB04C"/>
<stop offset="0.504708" stop-color="#F7D167"/>
<stop offset="1" stop-color="#D7A945"/>
</linearGradient>
</defs>
</svg>
