<svg height="30" viewBox="0 0 30 30" width="30" xmlns="http://www.w3.org/2000/svg" xmlns:xlink="http://www.w3.org/1999/xlink"><linearGradient id="a" x1="20.038931%" x2="75.293523%" y1="93.217091%" y2="6.852092%"><stop offset="0" stop-color="#00b563"/><stop offset=".533101517" stop-color="#00a9a3"/><stop offset="1" stop-color="#009fda"/></linearGradient><path d="m6.77987258 19.4086895c.53212669-.8722851 1.07205882-1.7408371 1.57409502-2.630543.76142534-1.349095 1.49208145-2.7153846 2.2392534-4.0726244.0452489-.0822399.120362-.1481901.2358597-.286991.0349548.1582579.064819.232353.0656109.3067873.005543.5041856.0007918 1.0084842.0070136 1.5125566.0098416.7917421.0012443 1.5847285.0460407 2.3745475.0440045.7754525.1085973 1.5533937.2297511 2.3197964.1540724.9753394.3791855 1.9393665.7785068 2.8507919.3356335.7661764.8427602 1.3978506 1.6160633 1.7358597.6558824.2866516 1.333258.2132353 1.9798643-.1061086.6950226-.3430996 1.2302036-.8822398 1.67319-1.488914.6235295-.8538462 1.2326924-1.7281675 1.7461539-2.6503394.7607466-1.3661765 1.4317873-2.7822398 2.1428733-4.1761312.0409502-.0803168.0972851-.1528281.1876697-.2927602.1328054.263009.2604072.4729638.3488688.69819.4064479 1.0342761.9623303 1.9867647 1.6243212 2.8710408.3705883.4951357.817534.9346153 1.2468326 1.3831448.1085973.1134615.2632353.2799773.4516968.083371.1654978-.1728507.0975113-.3368778-.0262443-.4967195-.6972851-.9020362-1.1429864-1.9330316-1.4664027-3.0113122-.2399322-.7995475-.4205883-1.6199095-.5774887-2.4406108-.1493213-.779638-.2399321-1.5709276-.3437783-2.3587104-.0633484-.4807693-.4397059-.9176471-.8690045-.975-.6394797-.0852942-1.0468326.1453619-1.2804299.6538461-.7438914 1.6192308-1.475905 3.2450226-2.2707013 4.8393665-.5409503 1.0848417-1.1635747 2.130543-1.7792987 3.1762444-.4295249.7294117-.911086 1.4286199-1.5702489 1.979638-.3106334.2596154-.4203619.2640271-.5908371-.0995475-.2273755-.4846154-.4230769-.9929865-.5554298-1.5109729-.1542987-.6031674-.2578054-1.224095-.3245475-1.843552-.0802037-.7467195-.0993213-1.5001131-.1435521-2.2506788-.028733-.4872172-.0839366-.9748868-.0770362-1.4616515.022172-1.5427602.0510181-3.0857466.1107466-4.62748873.0380091-.98178733.1556561-1.96040724.1987557-2.94219457.0304299-.6928733-.659276-1.16572398-1.2511312-1.08687783-.4821267.06436652-.7658371.40961539-.9815611.82239819-.7945701 1.51945702-1.55803168 3.05667421-2.40260182 4.54785064-.76821267 1.356448-1.60904977 2.673077-2.45033937 3.9865385-.49491417.772536-1.760017 2.4713498-2.89645405 4.0063895-.27781057-1.0355246-.42595246-2.1241215-.42595246-3.2473188 0-6.90355937 5.59644063-12.5 12.5-12.5 6.9035594 0 12.5 5.59644063 12.5 12.5 0 6.9035594-5.5964406 12.5-12.5 12.5-4.3988105 0-8.26693279-2.2721462-10.49474455-5.7068163.56232651-.9038727 1.33015073-2.1560866 1.77461713-2.8844942z" fill="url(#a)" fill-rule="evenodd"/></svg>