<svg enable-background="new 0 0 25 25" viewBox="0 0 25 25" xmlns="http://www.w3.org/2000/svg"><path d="m20.654 6.624c1.048 0 2.096.003 3.144-.002.214-.001.401.026.486.253.078.208-.018.359-.163.504-1.706 1.705-3.409 3.413-5.112 5.121-.427.429-.854.858-1.278 1.29-.149.152-.306.26-.527.169-.219-.09-.26-.276-.26-.489.002-2.105 0-4.21.002-6.315 0-.404.13-.529.538-.53 1.056-.001 2.113-.001 3.17-.001z"/><path d="m8.047 10.315c0 1.039-.002 2.078.001 3.117.001.216-.004.423-.241.523-.234.099-.39-.027-.545-.183-2.117-2.124-4.237-4.246-6.357-6.367-.155-.155-.283-.31-.18-.547.097-.224.289-.244.497-.244 2.096 0 4.192-.001 6.288.001.425 0 .537.121.537.556z"/><path d="m12.493 6.624c1.066 0 2.132.003 3.198-.003.207-.001.384.035.465.244.079.202-.006.358-.155.506-1.7 1.698-3.395 3.401-5.092 5.102-.44.441-.88.883-1.317 1.327-.143.145-.296.242-.505.161-.222-.086-.269-.271-.268-.484 0-2.114-.002-4.227.001-6.341 0-.385.137-.511.529-.512z"/><path d="m8.837 15.45h.561v1.634c.02.008.041.016.061.024.16-.321.311-.647.486-.96.046-.083.166-.175.25-.173.098.002.235.078.284.163.177.31.325.638.535.951 0-.541 0-1.081 0-1.638h.556v2.886c-.492.096-.521.083-.729-.321-.202-.391-.403-.781-.63-1.22-.218.424-.415.803-.607 1.184-.225.447-.234.453-.766.357-.001-.949-.001-1.901-.001-2.887z"/><path d="m22.114 15.471c.427-.095.46-.082.667.248.299.478.597.956.952 1.417 0-.554 0-1.107 0-1.682h.564v2.872c-.403.111-.468.087-.681-.251-.292-.464-.584-.927-.925-1.379v1.651c-.204 0-.379 0-.577 0 0-.959 0-1.918 0-2.876z"/><path d="m16.959 18.352c0-.978 0-1.932 0-2.88.472 0 .932-.034 1.385.011.371.037.654.301.694.667.054.495.062 1.006.001 1.499-.051.411-.369.667-.791.696-.42.03-.844.007-1.289.007zm.605-.514c.752.103.949-.068.95-.794 0-.108 0-.217 0-.325-.002-.683-.266-.888-.95-.725z"/><path d="m19.211 18.371c.338-.97.653-1.89.984-2.803.024-.066.165-.128.249-.125.136.005.362.031.391.107.344.917.659 1.846.999 2.82-.204 0-.376.023-.536-.01-.074-.016-.164-.136-.179-.22-.048-.269-.195-.36-.451-.319-.062.01-.128.01-.189 0-.311-.052-.516.032-.571.381-.01.067-.137.146-.221.163-.138.026-.285.006-.476.006zm1.341-1.971c-.021.002-.043.005-.064.007-.091.291-.183.582-.28.891h.629c-.098-.311-.192-.604-.285-.898z"/><path d="m11.856 18.371c.338-.972.651-1.882.977-2.788.024-.066.14-.142.212-.14.147.003.396.016.425.092.35.922.668 1.857 1.01 2.835-.212 0-.386.028-.544-.012-.079-.02-.162-.154-.184-.25-.052-.222-.157-.328-.392-.288-.079.013-.164.014-.243 0-.319-.058-.508.049-.569.385-.012.067-.138.143-.223.16-.135.025-.28.006-.469.006zm.995-1.078h.63c-.101-.315-.195-.608-.314-.98-.119.371-.212.659-.316.98z"/><path d="m15.747 15.951c-.403 0-.768 0-1.148 0 0-.181 0-.329 0-.498h1.967c-.053.208-.066.408-.152.569-.287.532-.601 1.05-.903 1.574-.043.075-.081.154-.142.271h1.186v.503c-.617 0-1.221.003-1.824-.006-.05-.001-.142-.093-.14-.138.008-.139.022-.293.088-.41.298-.536.616-1.062.925-1.592.045-.077.082-.156.143-.273z"/></svg>