<svg enable-background="new 0 0 25.7 14.7" viewBox="0 0 25.7 14.7" xmlns="http://www.w3.org/2000/svg"><g fill="#e73f2d" stroke="#000" stroke-miterlimit="10" stroke-width=".054483"><path d="m.8 12.5c.8 0 1.6.1 2.3.1l5.1-.3c2.5-.2 4.9-.7 7.3-1.4 1.5-.5 2.9-1.1 4.1-2.1.3-.3.7-.6.9-.9.5-.9.5-1.6 0-2.6-.4-.6-.9-1-1.4-1.4-1.4-.9-2.9-1.4-4.4-1.9-.2-.1-.4-.1-.5-.3.8.2 1.6.3 2.4.5 1.9.4 3.9.9 5.6 1.9.6.3 1.2.7 1.7 1.1.6.5 1.1 1.2 1 2.1 0 .6-.3 1.1-.7 1.5-.6.7-1.3 1.1-2.1 1.5-1.5.8-3.2 1.3-4.9 1.6-1.7.4-3.3.7-5 .8-1.1.1-2.3.2-3.4.2-1.7 0-3.3 0-5 0-.9 0-1.9-.2-2.8-.2-.1 0-.2-.1-.2-.2 0 .1 0 .1 0 0z"/><path d="m18.4 4.6c1.2 0 2 .8 2.1 1.9.1 1.2-.8 2.2-2 2.2s-2-.8-2.1-2c-.1-1.1.8-2.2 2-2.1z"/><path d="m11.5 5.4c-.2.1-.4.3-.6.4-.4-.6-1-.7-1.6-.4s-1 .7-1.1 1.5c0 .7.2.9 1 1.2.5-.1.9-.2 1.3-.8-.4 0-.8 0-1.2 0 .1-.3.1-.5.2-.7h2c-.2 1.5-1.5 2.5-3 2.1-.7-.3-1.3-1-1.1-2 .2-1.5 1.7-2.3 2.7-2.2.6 0 1.1.2 1.4.9z"/><path d="m4.2 8.6c.4-1.3.7-2.6 1.1-3.9h2.2c-.1.2-.1.4-.2.6-.5 0-1 0-1.5 0 0 .2-.1.4-.2.7h1.4c-.1.3-.1.5-.2.8-.5 0-.9 0-1.4 0-.1.3-.2.6-.3 1h.7.7c0 .3-.1.5-.1.7-.8.1-1.5.1-2.2.1z"/><path d="m12.7 8.6c-.3 0-.5 0-.7 0 .3-1.1.6-2.1.9-3.2-.3 0-.5 0-.8-.1 0-.2.1-.4.1-.7h2.4c0 .2-.1.4-.1.7-.3 0-.5 0-.9 0-.2 1.1-.6 2.2-.9 3.3z"/></g></svg>