<svg enable-background="new 0 0 25 25" viewBox="0 0 25 25" xmlns="http://www.w3.org/2000/svg" xmlns:xlink="http://www.w3.org/1999/xlink"><linearGradient id="a"><stop offset="0" stop-color="#92d1f1"/><stop offset=".2395" stop-color="#22afe5"/><stop offset="1" stop-color="#2a3784"/></linearGradient><linearGradient id="b" gradientTransform="matrix(.719 .695 -.695 .719 -93.2459 58.3249)" gradientUnits="userSpaceOnUse" x1="36.0409" x2="43.5971" xlink:href="#a" y1="-115.4182" y2="-102.3305"/><linearGradient id="c" gradientTransform="matrix(.719 .695 -.695 .719 -93.2459 58.3249)" gradientUnits="userSpaceOnUse" x1="39.644" x2="47.306" xlink:href="#a" y1="-101.9497" y2="-115.2208"/><path d="m9.268 24.365c-.182 0-.335 0-.512 0-.008-.087-.021-.162-.021-.237-.002-.9-.002-1.799-.001-2.699 0-.224-.066-.41-.285-.505-.298-.128-.605.091-.605.43-.001.922 0 1.844 0 2.766 0 .071-.007.142-.012.236-.185 0-.356 0-.545 0-.007-.082-.017-.153-.018-.223-.001-.905-.002-1.81 0-2.715.001-.409.154-.745.518-.95.383-.216.761-.177 1.12.073.027.019.056.037.084.055.004.003.011.002.031.006.037-.022.085-.049.13-.079.704-.459 1.582-.029 1.605.81.026.96.007 1.922.005 2.883 0 .047-.018.094-.029.151-.179 0-.342 0-.527 0-.008-.081-.021-.15-.021-.219-.001-.877-.001-1.754-.001-2.632 0-.05.001-.101-.001-.151-.008-.278-.187-.472-.438-.475-.248-.002-.447.192-.453.463-.008.369-.003.737-.003 1.106 0 .559.001 1.117-.001 1.676-.001.071-.013.142-.02.23z"/><path d="m12.929 24.364c-.188 0-.352 0-.54 0 0-1.834 0-3.653 0-5.488h.542v1.582c.093-.028.144-.041.194-.059.728-.255 1.491.262 1.5 1.033.011.917.004 1.833.003 2.75 0 .058-.02.116-.03.174-.18 0-.341 0-.515 0-.006-.1-.013-.177-.014-.253-.002-.878 0-1.755-.005-2.633-.001-.297-.198-.525-.47-.567-.263-.041-.526.108-.615.359-.027.077-.033.164-.033.246-.002.872-.001 1.744-.002 2.616 0 .071-.009.142-.015.24z"/><path d="m17.482 22.401c0 .318.003.637-.001.955-.007.593-.444 1.06-1.087 1.104-.487.034-.997-.284-1.145-.89-.023-.096-.032-.198-.032-.298-.003-.598-.004-1.196-.001-1.794.003-.552.392-1.023.921-1.125.54-.104 1.063.178 1.269.7.05.126.07.271.075.408.011.313.003.626.003.939-.001.001-.002.001-.002.001zm-1.687-.004c0 .296-.002.591 0 .887.002.357.228.608.547.614.327.006.57-.229.575-.586.009-.614.009-1.228 0-1.841-.005-.353-.254-.591-.58-.584-.309.007-.538.261-.541.605-.003.303-.001.604-.001.905z"/><path d="m4.406 22.409c0-.318-.005-.637.001-.955.011-.64.501-1.12 1.135-1.121.615 0 1.125.508 1.129 1.135.004.62.004 1.24 0 1.86s-.523 1.134-1.134 1.13c-.631-.004-1.123-.493-1.13-1.128-.003-.307-.001-.614-.001-.921.001 0 .001 0 0 0zm1.686-.008c.001-.318.004-.637 0-.955-.005-.309-.234-.543-.535-.556-.296-.012-.572.209-.579.512-.015.659-.015 1.318.001 1.976.008.318.274.53.587.519.307-.011.519-.231.525-.559.005-.312.001-.624.001-.937z"/><path d="m22.643 24.358c-.181 0-.343 0-.521 0-.006-.104-.015-.186-.015-.268-.002-.855-.003-1.71-.003-2.565 0-.18-.034-.345-.172-.473-.176-.164-.381-.211-.604-.119-.215.089-.337.254-.338.493-.002.905-.001 1.811-.003 2.716 0 .07-.011.141-.017.224-.18 0-.345 0-.53 0-.011-.076-.028-.145-.029-.214-.002-.894-.003-1.788.001-2.682.003-.624.497-1.127 1.108-1.135.621-.009 1.137.467 1.146 1.094.013.927.002 1.855 0 2.783 0 .042-.013.085-.023.146z"/><path d="m3.923 24.325c-.308.207-.784.171-1.122-.077-.301-.221-.471-.52-.472-.899-.002-1.174-.002-2.347-.001-3.521 0-.06.009-.12.015-.199h.537v.918h1.059v.566c-.345 0-.676 0-1.026 0-.01.103-.023.178-.023.253-.002.609-.003 1.218-.001 1.827.002.545.244.752.778.672.016-.002.033.002.078.006.057.147.119.303.178.454z"/><path d="m19.723 21.217c-.04-.054-.065-.092-.094-.125-.171-.19-.378-.252-.62-.164-.225.082-.363.297-.363.568-.002.871-.001 1.742-.003 2.614 0 .081-.01.162-.016.249-.187 0-.348 0-.522 0-.008-.076-.019-.13-.019-.184 0-.91-.01-1.821.005-2.731.015-.886.934-1.393 1.693-.938.156.093.276.248.447.406-.189.113-.333.2-.508.305z"/><path d="m18.128 2.812c-3.216-3.108-8.343-3.021-11.451.195s-3.021 8.343.195 11.451c-.627-.606-.644-1.605-.038-2.232s1.605-.644 2.232-.038c-1.962-1.896-2.015-5.024-.119-6.986s5.024-2.015 6.986-.119c.627.606 1.626.589 2.232-.038.607-.627.59-1.627-.037-2.233z" fill="url(#b)"/><path d="m18.128 2.812c.627.606.644 1.605.038 2.232s-1.605.644-2.232.038c1.962 1.896 2.015 5.024.119 6.986s-5.024 2.015-6.986.119c-.627-.606-1.626-.589-2.232.038s-.589 1.626.038 2.232c3.216 3.108 8.342 3.021 11.451-.195s3.02-8.342-.196-11.45z" fill="url(#c)"/></svg>