<?xml version="1.0" encoding="utf-8"?>
<svg xmlns="http://www.w3.org/2000/svg" xmlns:xlink="http://www.w3.org/1999/xlink" xml:space="preserve" width="990" height="990" viewBox="0 0 990 990"><g transform="scale(41.25)" fill="#000000"><path d="M21,1c1.1,0,2,0.9,2,2v18c0,1.1-0.9,2-2,2H3c-1.1,0-2-0.9-2-2V3c0-1.1,0.9-2,2-2H21 M21,0H3C1.34,0,0,1.34,0,3v18  c0,1.66,1.34,3,3,3h18c1.66,0,3-1.34,3-3V3C24,1.34,22.66,0,21,0L21,0z"/></g><g fill="#000000">
<g transform="translate(339,99) scale(4.12)"><circle cx="3" cy="3" r="3"/></g>
<g transform="translate(363,99) scale(4.12)"><circle cx="3" cy="3" r="3"/></g>
<g transform="translate(411,99) scale(4.12)"><circle cx="3" cy="3" r="3"/></g>
<g transform="translate(483,99) scale(4.12)"><circle cx="3" cy="3" r="3"/></g>
<g transform="translate(531,99) scale(4.12)"><circle cx="3" cy="3" r="3"/></g>
<g transform="translate(555,99) scale(4.12)"><circle cx="3" cy="3" r="3"/></g>
<g transform="translate(579,99) scale(4.12)"><circle cx="3" cy="3" r="3"/></g>
<g transform="translate(339,123) scale(4.12)"><circle cx="3" cy="3" r="3"/></g>
<g transform="translate(387,123) scale(4.12)"><circle cx="3" cy="3" r="3"/></g>
<g transform="translate(411,123) scale(4.12)"><circle cx="3" cy="3" r="3"/></g>
<g transform="translate(435,123) scale(4.12)"><circle cx="3" cy="3" r="3"/></g>
<g transform="translate(459,123) scale(4.12)"><circle cx="3" cy="3" r="3"/></g>
<g transform="translate(483,123) scale(4.12)"><circle cx="3" cy="3" r="3"/></g>
<g transform="translate(507,123) scale(4.12)"><circle cx="3" cy="3" r="3"/></g>
<g transform="translate(603,123) scale(4.12)"><circle cx="3" cy="3" r="3"/></g>
<g transform="translate(291,147) scale(4.12)"><circle cx="3" cy="3" r="3"/></g>
<g transform="translate(387,147) scale(4.12)"><circle cx="3" cy="3" r="3"/></g>
<g transform="translate(411,147) scale(4.12)"><circle cx="3" cy="3" r="3"/></g>
<g transform="translate(483,147) scale(4.12)"><circle cx="3" cy="3" r="3"/></g>
<g transform="translate(531,147) scale(4.12)"><circle cx="3" cy="3" r="3"/></g>
<g transform="translate(555,147) scale(4.12)"><circle cx="3" cy="3" r="3"/></g>
<g transform="translate(603,147) scale(4.12)"><circle cx="3" cy="3" r="3"/></g>
<g transform="translate(627,147) scale(4.12)"><circle cx="3" cy="3" r="3"/></g>
<g transform="translate(651,147) scale(4.12)"><circle cx="3" cy="3" r="3"/></g>
<g transform="translate(291,171) scale(4.12)"><circle cx="3" cy="3" r="3"/></g>
<g transform="translate(315,171) scale(4.12)"><circle cx="3" cy="3" r="3"/></g>
<g transform="translate(339,171) scale(4.12)"><circle cx="3" cy="3" r="3"/></g>
<g transform="translate(363,171) scale(4.12)"><circle cx="3" cy="3" r="3"/></g>
<g transform="translate(435,171) scale(4.12)"><circle cx="3" cy="3" r="3"/></g>
<g transform="translate(483,171) scale(4.12)"><circle cx="3" cy="3" r="3"/></g>
<g transform="translate(507,171) scale(4.12)"><circle cx="3" cy="3" r="3"/></g>
<g transform="translate(531,171) scale(4.12)"><circle cx="3" cy="3" r="3"/></g>
<g transform="translate(579,171) scale(4.12)"><circle cx="3" cy="3" r="3"/></g>
<g transform="translate(627,171) scale(4.12)"><circle cx="3" cy="3" r="3"/></g>
<g transform="translate(651,171) scale(4.12)"><circle cx="3" cy="3" r="3"/></g>
<g transform="translate(291,195) scale(4.12)"><circle cx="3" cy="3" r="3"/></g>
<g transform="translate(315,195) scale(4.12)"><circle cx="3" cy="3" r="3"/></g>
<g transform="translate(339,195) scale(4.12)"><circle cx="3" cy="3" r="3"/></g>
<g transform="translate(363,195) scale(4.12)"><circle cx="3" cy="3" r="3"/></g>
<g transform="translate(411,195) scale(4.12)"><circle cx="3" cy="3" r="3"/></g>
<g transform="translate(459,195) scale(4.12)"><circle cx="3" cy="3" r="3"/></g>
<g transform="translate(507,195) scale(4.12)"><circle cx="3" cy="3" r="3"/></g>
<g transform="translate(555,195) scale(4.12)"><circle cx="3" cy="3" r="3"/></g>
<g transform="translate(603,195) scale(4.12)"><circle cx="3" cy="3" r="3"/></g>
<g transform="translate(651,195) scale(4.12)"><circle cx="3" cy="3" r="3"/></g>
<g transform="translate(291,219) scale(4.12)"><circle cx="3" cy="3" r="3"/></g>
<g transform="translate(315,219) scale(4.12)"><circle cx="3" cy="3" r="3"/></g>
<g transform="translate(411,219) scale(4.12)"><circle cx="3" cy="3" r="3"/></g>
<g transform="translate(435,219) scale(4.12)"><circle cx="3" cy="3" r="3"/></g>
<g transform="translate(459,219) scale(4.12)"><circle cx="3" cy="3" r="3"/></g>
<g transform="translate(483,219) scale(4.12)"><circle cx="3" cy="3" r="3"/></g>
<g transform="translate(531,219) scale(4.12)"><circle cx="3" cy="3" r="3"/></g>
<g transform="translate(579,219) scale(4.12)"><circle cx="3" cy="3" r="3"/></g>
<g transform="translate(291,243) scale(4.12)"><circle cx="3" cy="3" r="3"/></g>
<g transform="translate(339,243) scale(4.12)"><circle cx="3" cy="3" r="3"/></g>
<g transform="translate(387,243) scale(4.12)"><circle cx="3" cy="3" r="3"/></g>
<g transform="translate(435,243) scale(4.12)"><circle cx="3" cy="3" r="3"/></g>
<g transform="translate(483,243) scale(4.12)"><circle cx="3" cy="3" r="3"/></g>
<g transform="translate(531,243) scale(4.12)"><circle cx="3" cy="3" r="3"/></g>
<g transform="translate(579,243) scale(4.12)"><circle cx="3" cy="3" r="3"/></g>
<g transform="translate(627,243) scale(4.12)"><circle cx="3" cy="3" r="3"/></g>
<g transform="translate(675,243) scale(4.12)"><circle cx="3" cy="3" r="3"/></g>
<g transform="translate(291,267) scale(4.12)"><circle cx="3" cy="3" r="3"/></g>
<g transform="translate(315,267) scale(4.12)"><circle cx="3" cy="3" r="3"/></g>
<g transform="translate(387,267) scale(4.12)"><circle cx="3" cy="3" r="3"/></g>
<g transform="translate(459,267) scale(4.12)"><circle cx="3" cy="3" r="3"/></g>
<g transform="translate(555,267) scale(4.12)"><circle cx="3" cy="3" r="3"/></g>
<g transform="translate(603,267) scale(4.12)"><circle cx="3" cy="3" r="3"/></g>
<g transform="translate(627,267) scale(4.12)"><circle cx="3" cy="3" r="3"/></g>
<g transform="translate(675,267) scale(4.12)"><circle cx="3" cy="3" r="3"/></g>
<g transform="translate(99,291) scale(4.12)"><circle cx="3" cy="3" r="3"/></g>
<g transform="translate(147,291) scale(4.12)"><circle cx="3" cy="3" r="3"/></g>
<g transform="translate(171,291) scale(4.12)"><circle cx="3" cy="3" r="3"/></g>
<g transform="translate(195,291) scale(4.12)"><circle cx="3" cy="3" r="3"/></g>
<g transform="translate(219,291) scale(4.12)"><circle cx="3" cy="3" r="3"/></g>
<g transform="translate(243,291) scale(4.12)"><circle cx="3" cy="3" r="3"/></g>
<g transform="translate(315,291) scale(4.12)"><circle cx="3" cy="3" r="3"/></g>
<g transform="translate(339,291) scale(4.12)"><circle cx="3" cy="3" r="3"/></g>
<g transform="translate(435,291) scale(4.12)"><circle cx="3" cy="3" r="3"/></g>
<g transform="translate(459,291) scale(4.12)"><circle cx="3" cy="3" r="3"/></g>
<g transform="translate(507,291) scale(4.12)"><circle cx="3" cy="3" r="3"/></g>
<g transform="translate(579,291) scale(4.12)"><circle cx="3" cy="3" r="3"/></g>
<g transform="translate(627,291) scale(4.12)"><circle cx="3" cy="3" r="3"/></g>
<g transform="translate(675,291) scale(4.12)"><circle cx="3" cy="3" r="3"/></g>
<g transform="translate(723,291) scale(4.12)"><circle cx="3" cy="3" r="3"/></g>
<g transform="translate(747,291) scale(4.12)"><circle cx="3" cy="3" r="3"/></g>
<g transform="translate(771,291) scale(4.12)"><circle cx="3" cy="3" r="3"/></g>
<g transform="translate(795,291) scale(4.12)"><circle cx="3" cy="3" r="3"/></g>
<g transform="translate(819,291) scale(4.12)"><circle cx="3" cy="3" r="3"/></g>
<g transform="translate(99,315) scale(4.12)"><circle cx="3" cy="3" r="3"/></g>
<g transform="translate(123,315) scale(4.12)"><circle cx="3" cy="3" r="3"/></g>
<g transform="translate(147,315) scale(4.12)"><circle cx="3" cy="3" r="3"/></g>
<g transform="translate(315,315) scale(4.12)"><circle cx="3" cy="3" r="3"/></g>
<g transform="translate(363,315) scale(4.12)"><circle cx="3" cy="3" r="3"/></g>
<g transform="translate(387,315) scale(4.12)"><circle cx="3" cy="3" r="3"/></g>
<g transform="translate(435,315) scale(4.12)"><circle cx="3" cy="3" r="3"/></g>
<g transform="translate(483,315) scale(4.12)"><circle cx="3" cy="3" r="3"/></g>
<g transform="translate(531,315) scale(4.12)"><circle cx="3" cy="3" r="3"/></g>
<g transform="translate(555,315) scale(4.12)"><circle cx="3" cy="3" r="3"/></g>
<g transform="translate(579,315) scale(4.12)"><circle cx="3" cy="3" r="3"/></g>
<g transform="translate(603,315) scale(4.12)"><circle cx="3" cy="3" r="3"/></g>
<g transform="translate(651,315) scale(4.12)"><circle cx="3" cy="3" r="3"/></g>
<g transform="translate(675,315) scale(4.12)"><circle cx="3" cy="3" r="3"/></g>
<g transform="translate(723,315) scale(4.12)"><circle cx="3" cy="3" r="3"/></g>
<g transform="translate(747,315) scale(4.12)"><circle cx="3" cy="3" r="3"/></g>
<g transform="translate(795,315) scale(4.12)"><circle cx="3" cy="3" r="3"/></g>
<g transform="translate(819,315) scale(4.12)"><circle cx="3" cy="3" r="3"/></g>
<g transform="translate(843,315) scale(4.12)"><circle cx="3" cy="3" r="3"/></g>
<g transform="translate(867,315) scale(4.12)"><circle cx="3" cy="3" r="3"/></g>
<g transform="translate(123,339) scale(4.12)"><circle cx="3" cy="3" r="3"/></g>
<g transform="translate(243,339) scale(4.12)"><circle cx="3" cy="3" r="3"/></g>
<g transform="translate(267,339) scale(4.12)"><circle cx="3" cy="3" r="3"/></g>
<g transform="translate(315,339) scale(4.12)"><circle cx="3" cy="3" r="3"/></g>
<g transform="translate(339,339) scale(4.12)"><circle cx="3" cy="3" r="3"/></g>
<g transform="translate(363,339) scale(4.12)"><circle cx="3" cy="3" r="3"/></g>
<g transform="translate(387,339) scale(4.12)"><circle cx="3" cy="3" r="3"/></g>
<g transform="translate(459,339) scale(4.12)"><circle cx="3" cy="3" r="3"/></g>
<g transform="translate(483,339) scale(4.12)"><circle cx="3" cy="3" r="3"/></g>
<g transform="translate(579,339) scale(4.12)"><circle cx="3" cy="3" r="3"/></g>
<g transform="translate(603,339) scale(4.12)"><circle cx="3" cy="3" r="3"/></g>
<g transform="translate(627,339) scale(4.12)"><circle cx="3" cy="3" r="3"/></g>
<g transform="translate(771,339) scale(4.12)"><circle cx="3" cy="3" r="3"/></g>
<g transform="translate(819,339) scale(4.12)"><circle cx="3" cy="3" r="3"/></g>
<g transform="translate(843,339) scale(4.12)"><circle cx="3" cy="3" r="3"/></g>
<g transform="translate(99,363) scale(4.12)"><circle cx="3" cy="3" r="3"/></g>
<g transform="translate(195,363) scale(4.12)"><circle cx="3" cy="3" r="3"/></g>
<g transform="translate(219,363) scale(4.12)"><circle cx="3" cy="3" r="3"/></g>
<g transform="translate(267,363) scale(4.12)"><circle cx="3" cy="3" r="3"/></g>
<g transform="translate(315,363) scale(4.12)"><circle cx="3" cy="3" r="3"/></g>
<g transform="translate(339,363) scale(4.12)"><circle cx="3" cy="3" r="3"/></g>
<g transform="translate(435,363) scale(4.12)"><circle cx="3" cy="3" r="3"/></g>
<g transform="translate(459,363) scale(4.12)"><circle cx="3" cy="3" r="3"/></g>
<g transform="translate(579,363) scale(4.12)"><circle cx="3" cy="3" r="3"/></g>
<g transform="translate(603,363) scale(4.12)"><circle cx="3" cy="3" r="3"/></g>
<g transform="translate(627,363) scale(4.12)"><circle cx="3" cy="3" r="3"/></g>
<g transform="translate(723,363) scale(4.12)"><circle cx="3" cy="3" r="3"/></g>
<g transform="translate(771,363) scale(4.12)"><circle cx="3" cy="3" r="3"/></g>
<g transform="translate(795,363) scale(4.12)"><circle cx="3" cy="3" r="3"/></g>
<g transform="translate(819,363) scale(4.12)"><circle cx="3" cy="3" r="3"/></g>
<g transform="translate(843,363) scale(4.12)"><circle cx="3" cy="3" r="3"/></g>
<g transform="translate(867,363) scale(4.12)"><circle cx="3" cy="3" r="3"/></g>
<g transform="translate(123,387) scale(4.12)"><circle cx="3" cy="3" r="3"/></g>
<g transform="translate(147,387) scale(4.12)"><circle cx="3" cy="3" r="3"/></g>
<g transform="translate(219,387) scale(4.12)"><circle cx="3" cy="3" r="3"/></g>
<g transform="translate(243,387) scale(4.12)"><circle cx="3" cy="3" r="3"/></g>
<g transform="translate(291,387) scale(4.12)"><circle cx="3" cy="3" r="3"/></g>
<g transform="translate(315,387) scale(4.12)"><circle cx="3" cy="3" r="3"/></g>
<g transform="translate(363,387) scale(4.12)"><circle cx="3" cy="3" r="3"/></g>
<g transform="translate(531,387) scale(4.12)"><circle cx="3" cy="3" r="3"/></g>
<g transform="translate(579,387) scale(4.12)"><circle cx="3" cy="3" r="3"/></g>
<g transform="translate(627,387) scale(4.12)"><circle cx="3" cy="3" r="3"/></g>
<g transform="translate(675,387) scale(4.12)"><circle cx="3" cy="3" r="3"/></g>
<g transform="translate(699,387) scale(4.12)"><circle cx="3" cy="3" r="3"/></g>
<g transform="translate(771,387) scale(4.12)"><circle cx="3" cy="3" r="3"/></g>
<g transform="translate(795,387) scale(4.12)"><circle cx="3" cy="3" r="3"/></g>
<g transform="translate(843,387) scale(4.12)"><circle cx="3" cy="3" r="3"/></g>
<g transform="translate(867,387) scale(4.12)"><circle cx="3" cy="3" r="3"/></g>
<g transform="translate(99,411) scale(4.12)"><circle cx="3" cy="3" r="3"/></g>
<g transform="translate(123,411) scale(4.12)"><circle cx="3" cy="3" r="3"/></g>
<g transform="translate(147,411) scale(4.12)"><circle cx="3" cy="3" r="3"/></g>
<g transform="translate(195,411) scale(4.12)"><circle cx="3" cy="3" r="3"/></g>
<g transform="translate(291,411) scale(4.12)"><circle cx="3" cy="3" r="3"/></g>
<g transform="translate(339,411) scale(4.12)"><circle cx="3" cy="3" r="3"/></g>
<g transform="translate(363,411) scale(4.12)"><circle cx="3" cy="3" r="3"/></g>
<g transform="translate(435,411) scale(4.12)"><circle cx="3" cy="3" r="3"/></g>
<g transform="translate(459,411) scale(4.12)"><circle cx="3" cy="3" r="3"/></g>
<g transform="translate(483,411) scale(4.12)"><circle cx="3" cy="3" r="3"/></g>
<g transform="translate(531,411) scale(4.12)"><circle cx="3" cy="3" r="3"/></g>
<g transform="translate(555,411) scale(4.12)"><circle cx="3" cy="3" r="3"/></g>
<g transform="translate(627,411) scale(4.12)"><circle cx="3" cy="3" r="3"/></g>
<g transform="translate(651,411) scale(4.12)"><circle cx="3" cy="3" r="3"/></g>
<g transform="translate(699,411) scale(4.12)"><circle cx="3" cy="3" r="3"/></g>
<g transform="translate(723,411) scale(4.12)"><circle cx="3" cy="3" r="3"/></g>
<g transform="translate(795,411) scale(4.12)"><circle cx="3" cy="3" r="3"/></g>
<g transform="translate(819,411) scale(4.12)"><circle cx="3" cy="3" r="3"/></g>
<g transform="translate(843,411) scale(4.12)"><circle cx="3" cy="3" r="3"/></g>
<g transform="translate(867,411) scale(4.12)"><circle cx="3" cy="3" r="3"/></g>
<g transform="translate(123,435) scale(4.12)"><circle cx="3" cy="3" r="3"/></g>
<g transform="translate(147,435) scale(4.12)"><circle cx="3" cy="3" r="3"/></g>
<g transform="translate(195,435) scale(4.12)"><circle cx="3" cy="3" r="3"/></g>
<g transform="translate(219,435) scale(4.12)"><circle cx="3" cy="3" r="3"/></g>
<g transform="translate(243,435) scale(4.12)"><circle cx="3" cy="3" r="3"/></g>
<g transform="translate(267,435) scale(4.12)"><circle cx="3" cy="3" r="3"/></g>
<g transform="translate(363,435) scale(4.12)"><circle cx="3" cy="3" r="3"/></g>
<g transform="translate(387,435) scale(4.12)"><circle cx="3" cy="3" r="3"/></g>
<g transform="translate(411,435) scale(4.12)"><circle cx="3" cy="3" r="3"/></g>
<g transform="translate(507,435) scale(4.12)"><circle cx="3" cy="3" r="3"/></g>
<g transform="translate(603,435) scale(4.12)"><circle cx="3" cy="3" r="3"/></g>
<g transform="translate(627,435) scale(4.12)"><circle cx="3" cy="3" r="3"/></g>
<g transform="translate(675,435) scale(4.12)"><circle cx="3" cy="3" r="3"/></g>
<g transform="translate(699,435) scale(4.12)"><circle cx="3" cy="3" r="3"/></g>
<g transform="translate(723,435) scale(4.12)"><circle cx="3" cy="3" r="3"/></g>
<g transform="translate(819,435) scale(4.12)"><circle cx="3" cy="3" r="3"/></g>
<g transform="translate(843,435) scale(4.12)"><circle cx="3" cy="3" r="3"/></g>
<g transform="translate(171,459) scale(4.12)"><circle cx="3" cy="3" r="3"/></g>
<g transform="translate(195,459) scale(4.12)"><circle cx="3" cy="3" r="3"/></g>
<g transform="translate(219,459) scale(4.12)"><circle cx="3" cy="3" r="3"/></g>
<g transform="translate(267,459) scale(4.12)"><circle cx="3" cy="3" r="3"/></g>
<g transform="translate(291,459) scale(4.12)"><circle cx="3" cy="3" r="3"/></g>
<g transform="translate(363,459) scale(4.12)"><circle cx="3" cy="3" r="3"/></g>
<g transform="translate(411,459) scale(4.12)"><circle cx="3" cy="3" r="3"/></g>
<g transform="translate(435,459) scale(4.12)"><circle cx="3" cy="3" r="3"/></g>
<g transform="translate(483,459) scale(4.12)"><circle cx="3" cy="3" r="3"/></g>
<g transform="translate(531,459) scale(4.12)"><circle cx="3" cy="3" r="3"/></g>
<g transform="translate(555,459) scale(4.12)"><circle cx="3" cy="3" r="3"/></g>
<g transform="translate(603,459) scale(4.12)"><circle cx="3" cy="3" r="3"/></g>
<g transform="translate(699,459) scale(4.12)"><circle cx="3" cy="3" r="3"/></g>
<g transform="translate(723,459) scale(4.12)"><circle cx="3" cy="3" r="3"/></g>
<g transform="translate(747,459) scale(4.12)"><circle cx="3" cy="3" r="3"/></g>
<g transform="translate(819,459) scale(4.12)"><circle cx="3" cy="3" r="3"/></g>
<g transform="translate(123,483) scale(4.12)"><circle cx="3" cy="3" r="3"/></g>
<g transform="translate(147,483) scale(4.12)"><circle cx="3" cy="3" r="3"/></g>
<g transform="translate(171,483) scale(4.12)"><circle cx="3" cy="3" r="3"/></g>
<g transform="translate(219,483) scale(4.12)"><circle cx="3" cy="3" r="3"/></g>
<g transform="translate(243,483) scale(4.12)"><circle cx="3" cy="3" r="3"/></g>
<g transform="translate(291,483) scale(4.12)"><circle cx="3" cy="3" r="3"/></g>
<g transform="translate(315,483) scale(4.12)"><circle cx="3" cy="3" r="3"/></g>
<g transform="translate(339,483) scale(4.12)"><circle cx="3" cy="3" r="3"/></g>
<g transform="translate(411,483) scale(4.12)"><circle cx="3" cy="3" r="3"/></g>
<g transform="translate(507,483) scale(4.12)"><circle cx="3" cy="3" r="3"/></g>
<g transform="translate(627,483) scale(4.12)"><circle cx="3" cy="3" r="3"/></g>
<g transform="translate(651,483) scale(4.12)"><circle cx="3" cy="3" r="3"/></g>
<g transform="translate(675,483) scale(4.12)"><circle cx="3" cy="3" r="3"/></g>
<g transform="translate(699,483) scale(4.12)"><circle cx="3" cy="3" r="3"/></g>
<g transform="translate(747,483) scale(4.12)"><circle cx="3" cy="3" r="3"/></g>
<g transform="translate(771,483) scale(4.12)"><circle cx="3" cy="3" r="3"/></g>
<g transform="translate(795,483) scale(4.12)"><circle cx="3" cy="3" r="3"/></g>
<g transform="translate(867,483) scale(4.12)"><circle cx="3" cy="3" r="3"/></g>
<g transform="translate(99,507) scale(4.12)"><circle cx="3" cy="3" r="3"/></g>
<g transform="translate(171,507) scale(4.12)"><circle cx="3" cy="3" r="3"/></g>
<g transform="translate(195,507) scale(4.12)"><circle cx="3" cy="3" r="3"/></g>
<g transform="translate(315,507) scale(4.12)"><circle cx="3" cy="3" r="3"/></g>
<g transform="translate(411,507) scale(4.12)"><circle cx="3" cy="3" r="3"/></g>
<g transform="translate(483,507) scale(4.12)"><circle cx="3" cy="3" r="3"/></g>
<g transform="translate(507,507) scale(4.12)"><circle cx="3" cy="3" r="3"/></g>
<g transform="translate(531,507) scale(4.12)"><circle cx="3" cy="3" r="3"/></g>
<g transform="translate(555,507) scale(4.12)"><circle cx="3" cy="3" r="3"/></g>
<g transform="translate(579,507) scale(4.12)"><circle cx="3" cy="3" r="3"/></g>
<g transform="translate(603,507) scale(4.12)"><circle cx="3" cy="3" r="3"/></g>
<g transform="translate(627,507) scale(4.12)"><circle cx="3" cy="3" r="3"/></g>
<g transform="translate(651,507) scale(4.12)"><circle cx="3" cy="3" r="3"/></g>
<g transform="translate(699,507) scale(4.12)"><circle cx="3" cy="3" r="3"/></g>
<g transform="translate(723,507) scale(4.12)"><circle cx="3" cy="3" r="3"/></g>
<g transform="translate(747,507) scale(4.12)"><circle cx="3" cy="3" r="3"/></g>
<g transform="translate(795,507) scale(4.12)"><circle cx="3" cy="3" r="3"/></g>
<g transform="translate(819,507) scale(4.12)"><circle cx="3" cy="3" r="3"/></g>
<g transform="translate(867,507) scale(4.12)"><circle cx="3" cy="3" r="3"/></g>
<g transform="translate(147,531) scale(4.12)"><circle cx="3" cy="3" r="3"/></g>
<g transform="translate(171,531) scale(4.12)"><circle cx="3" cy="3" r="3"/></g>
<g transform="translate(243,531) scale(4.12)"><circle cx="3" cy="3" r="3"/></g>
<g transform="translate(267,531) scale(4.12)"><circle cx="3" cy="3" r="3"/></g>
<g transform="translate(291,531) scale(4.12)"><circle cx="3" cy="3" r="3"/></g>
<g transform="translate(363,531) scale(4.12)"><circle cx="3" cy="3" r="3"/></g>
<g transform="translate(411,531) scale(4.12)"><circle cx="3" cy="3" r="3"/></g>
<g transform="translate(435,531) scale(4.12)"><circle cx="3" cy="3" r="3"/></g>
<g transform="translate(459,531) scale(4.12)"><circle cx="3" cy="3" r="3"/></g>
<g transform="translate(507,531) scale(4.12)"><circle cx="3" cy="3" r="3"/></g>
<g transform="translate(699,531) scale(4.12)"><circle cx="3" cy="3" r="3"/></g>
<g transform="translate(747,531) scale(4.12)"><circle cx="3" cy="3" r="3"/></g>
<g transform="translate(771,531) scale(4.12)"><circle cx="3" cy="3" r="3"/></g>
<g transform="translate(819,531) scale(4.12)"><circle cx="3" cy="3" r="3"/></g>
<g transform="translate(843,531) scale(4.12)"><circle cx="3" cy="3" r="3"/></g>
<g transform="translate(123,555) scale(4.12)"><circle cx="3" cy="3" r="3"/></g>
<g transform="translate(147,555) scale(4.12)"><circle cx="3" cy="3" r="3"/></g>
<g transform="translate(267,555) scale(4.12)"><circle cx="3" cy="3" r="3"/></g>
<g transform="translate(387,555) scale(4.12)"><circle cx="3" cy="3" r="3"/></g>
<g transform="translate(459,555) scale(4.12)"><circle cx="3" cy="3" r="3"/></g>
<g transform="translate(483,555) scale(4.12)"><circle cx="3" cy="3" r="3"/></g>
<g transform="translate(507,555) scale(4.12)"><circle cx="3" cy="3" r="3"/></g>
<g transform="translate(531,555) scale(4.12)"><circle cx="3" cy="3" r="3"/></g>
<g transform="translate(555,555) scale(4.12)"><circle cx="3" cy="3" r="3"/></g>
<g transform="translate(579,555) scale(4.12)"><circle cx="3" cy="3" r="3"/></g>
<g transform="translate(603,555) scale(4.12)"><circle cx="3" cy="3" r="3"/></g>
<g transform="translate(747,555) scale(4.12)"><circle cx="3" cy="3" r="3"/></g>
<g transform="translate(771,555) scale(4.12)"><circle cx="3" cy="3" r="3"/></g>
<g transform="translate(795,555) scale(4.12)"><circle cx="3" cy="3" r="3"/></g>
<g transform="translate(819,555) scale(4.12)"><circle cx="3" cy="3" r="3"/></g>
<g transform="translate(867,555) scale(4.12)"><circle cx="3" cy="3" r="3"/></g>
<g transform="translate(99,579) scale(4.12)"><circle cx="3" cy="3" r="3"/></g>
<g transform="translate(123,579) scale(4.12)"><circle cx="3" cy="3" r="3"/></g>
<g transform="translate(147,579) scale(4.12)"><circle cx="3" cy="3" r="3"/></g>
<g transform="translate(171,579) scale(4.12)"><circle cx="3" cy="3" r="3"/></g>
<g transform="translate(195,579) scale(4.12)"><circle cx="3" cy="3" r="3"/></g>
<g transform="translate(219,579) scale(4.12)"><circle cx="3" cy="3" r="3"/></g>
<g transform="translate(243,579) scale(4.12)"><circle cx="3" cy="3" r="3"/></g>
<g transform="translate(339,579) scale(4.12)"><circle cx="3" cy="3" r="3"/></g>
<g transform="translate(459,579) scale(4.12)"><circle cx="3" cy="3" r="3"/></g>
<g transform="translate(483,579) scale(4.12)"><circle cx="3" cy="3" r="3"/></g>
<g transform="translate(627,579) scale(4.12)"><circle cx="3" cy="3" r="3"/></g>
<g transform="translate(651,579) scale(4.12)"><circle cx="3" cy="3" r="3"/></g>
<g transform="translate(675,579) scale(4.12)"><circle cx="3" cy="3" r="3"/></g>
<g transform="translate(747,579) scale(4.12)"><circle cx="3" cy="3" r="3"/></g>
<g transform="translate(771,579) scale(4.12)"><circle cx="3" cy="3" r="3"/></g>
<g transform="translate(795,579) scale(4.12)"><circle cx="3" cy="3" r="3"/></g>
<g transform="translate(99,603) scale(4.12)"><circle cx="3" cy="3" r="3"/></g>
<g transform="translate(123,603) scale(4.12)"><circle cx="3" cy="3" r="3"/></g>
<g transform="translate(147,603) scale(4.12)"><circle cx="3" cy="3" r="3"/></g>
<g transform="translate(291,603) scale(4.12)"><circle cx="3" cy="3" r="3"/></g>
<g transform="translate(339,603) scale(4.12)"><circle cx="3" cy="3" r="3"/></g>
<g transform="translate(363,603) scale(4.12)"><circle cx="3" cy="3" r="3"/></g>
<g transform="translate(387,603) scale(4.12)"><circle cx="3" cy="3" r="3"/></g>
<g transform="translate(411,603) scale(4.12)"><circle cx="3" cy="3" r="3"/></g>
<g transform="translate(459,603) scale(4.12)"><circle cx="3" cy="3" r="3"/></g>
<g transform="translate(507,603) scale(4.12)"><circle cx="3" cy="3" r="3"/></g>
<g transform="translate(531,603) scale(4.12)"><circle cx="3" cy="3" r="3"/></g>
<g transform="translate(555,603) scale(4.12)"><circle cx="3" cy="3" r="3"/></g>
<g transform="translate(579,603) scale(4.12)"><circle cx="3" cy="3" r="3"/></g>
<g transform="translate(603,603) scale(4.12)"><circle cx="3" cy="3" r="3"/></g>
<g transform="translate(651,603) scale(4.12)"><circle cx="3" cy="3" r="3"/></g>
<g transform="translate(699,603) scale(4.12)"><circle cx="3" cy="3" r="3"/></g>
<g transform="translate(723,603) scale(4.12)"><circle cx="3" cy="3" r="3"/></g>
<g transform="translate(795,603) scale(4.12)"><circle cx="3" cy="3" r="3"/></g>
<g transform="translate(867,603) scale(4.12)"><circle cx="3" cy="3" r="3"/></g>
<g transform="translate(99,627) scale(4.12)"><circle cx="3" cy="3" r="3"/></g>
<g transform="translate(147,627) scale(4.12)"><circle cx="3" cy="3" r="3"/></g>
<g transform="translate(171,627) scale(4.12)"><circle cx="3" cy="3" r="3"/></g>
<g transform="translate(219,627) scale(4.12)"><circle cx="3" cy="3" r="3"/></g>
<g transform="translate(243,627) scale(4.12)"><circle cx="3" cy="3" r="3"/></g>
<g transform="translate(267,627) scale(4.12)"><circle cx="3" cy="3" r="3"/></g>
<g transform="translate(315,627) scale(4.12)"><circle cx="3" cy="3" r="3"/></g>
<g transform="translate(339,627) scale(4.12)"><circle cx="3" cy="3" r="3"/></g>
<g transform="translate(363,627) scale(4.12)"><circle cx="3" cy="3" r="3"/></g>
<g transform="translate(459,627) scale(4.12)"><circle cx="3" cy="3" r="3"/></g>
<g transform="translate(483,627) scale(4.12)"><circle cx="3" cy="3" r="3"/></g>
<g transform="translate(531,627) scale(4.12)"><circle cx="3" cy="3" r="3"/></g>
<g transform="translate(579,627) scale(4.12)"><circle cx="3" cy="3" r="3"/></g>
<g transform="translate(603,627) scale(4.12)"><circle cx="3" cy="3" r="3"/></g>
<g transform="translate(627,627) scale(4.12)"><circle cx="3" cy="3" r="3"/></g>
<g transform="translate(675,627) scale(4.12)"><circle cx="3" cy="3" r="3"/></g>
<g transform="translate(699,627) scale(4.12)"><circle cx="3" cy="3" r="3"/></g>
<g transform="translate(747,627) scale(4.12)"><circle cx="3" cy="3" r="3"/></g>
<g transform="translate(795,627) scale(4.12)"><circle cx="3" cy="3" r="3"/></g>
<g transform="translate(843,627) scale(4.12)"><circle cx="3" cy="3" r="3"/></g>
<g transform="translate(99,651) scale(4.12)"><circle cx="3" cy="3" r="3"/></g>
<g transform="translate(219,651) scale(4.12)"><circle cx="3" cy="3" r="3"/></g>
<g transform="translate(267,651) scale(4.12)"><circle cx="3" cy="3" r="3"/></g>
<g transform="translate(315,651) scale(4.12)"><circle cx="3" cy="3" r="3"/></g>
<g transform="translate(363,651) scale(4.12)"><circle cx="3" cy="3" r="3"/></g>
<g transform="translate(411,651) scale(4.12)"><circle cx="3" cy="3" r="3"/></g>
<g transform="translate(459,651) scale(4.12)"><circle cx="3" cy="3" r="3"/></g>
<g transform="translate(579,651) scale(4.12)"><circle cx="3" cy="3" r="3"/></g>
<g transform="translate(603,651) scale(4.12)"><circle cx="3" cy="3" r="3"/></g>
<g transform="translate(627,651) scale(4.12)"><circle cx="3" cy="3" r="3"/></g>
<g transform="translate(675,651) scale(4.12)"><circle cx="3" cy="3" r="3"/></g>
<g transform="translate(795,651) scale(4.12)"><circle cx="3" cy="3" r="3"/></g>
<g transform="translate(819,651) scale(4.12)"><circle cx="3" cy="3" r="3"/></g>
<g transform="translate(867,651) scale(4.12)"><circle cx="3" cy="3" r="3"/></g>
<g transform="translate(99,675) scale(4.12)"><circle cx="3" cy="3" r="3"/></g>
<g transform="translate(147,675) scale(4.12)"><circle cx="3" cy="3" r="3"/></g>
<g transform="translate(195,675) scale(4.12)"><circle cx="3" cy="3" r="3"/></g>
<g transform="translate(219,675) scale(4.12)"><circle cx="3" cy="3" r="3"/></g>
<g transform="translate(243,675) scale(4.12)"><circle cx="3" cy="3" r="3"/></g>
<g transform="translate(267,675) scale(4.12)"><circle cx="3" cy="3" r="3"/></g>
<g transform="translate(315,675) scale(4.12)"><circle cx="3" cy="3" r="3"/></g>
<g transform="translate(363,675) scale(4.12)"><circle cx="3" cy="3" r="3"/></g>
<g transform="translate(387,675) scale(4.12)"><circle cx="3" cy="3" r="3"/></g>
<g transform="translate(411,675) scale(4.12)"><circle cx="3" cy="3" r="3"/></g>
<g transform="translate(459,675) scale(4.12)"><circle cx="3" cy="3" r="3"/></g>
<g transform="translate(483,675) scale(4.12)"><circle cx="3" cy="3" r="3"/></g>
<g transform="translate(507,675) scale(4.12)"><circle cx="3" cy="3" r="3"/></g>
<g transform="translate(579,675) scale(4.12)"><circle cx="3" cy="3" r="3"/></g>
<g transform="translate(627,675) scale(4.12)"><circle cx="3" cy="3" r="3"/></g>
<g transform="translate(675,675) scale(4.12)"><circle cx="3" cy="3" r="3"/></g>
<g transform="translate(699,675) scale(4.12)"><circle cx="3" cy="3" r="3"/></g>
<g transform="translate(723,675) scale(4.12)"><circle cx="3" cy="3" r="3"/></g>
<g transform="translate(747,675) scale(4.12)"><circle cx="3" cy="3" r="3"/></g>
<g transform="translate(771,675) scale(4.12)"><circle cx="3" cy="3" r="3"/></g>
<g transform="translate(795,675) scale(4.12)"><circle cx="3" cy="3" r="3"/></g>
<g transform="translate(843,675) scale(4.12)"><circle cx="3" cy="3" r="3"/></g>
<g transform="translate(291,699) scale(4.12)"><circle cx="3" cy="3" r="3"/></g>
<g transform="translate(339,699) scale(4.12)"><circle cx="3" cy="3" r="3"/></g>
<g transform="translate(363,699) scale(4.12)"><circle cx="3" cy="3" r="3"/></g>
<g transform="translate(387,699) scale(4.12)"><circle cx="3" cy="3" r="3"/></g>
<g transform="translate(435,699) scale(4.12)"><circle cx="3" cy="3" r="3"/></g>
<g transform="translate(483,699) scale(4.12)"><circle cx="3" cy="3" r="3"/></g>
<g transform="translate(531,699) scale(4.12)"><circle cx="3" cy="3" r="3"/></g>
<g transform="translate(579,699) scale(4.12)"><circle cx="3" cy="3" r="3"/></g>
<g transform="translate(603,699) scale(4.12)"><circle cx="3" cy="3" r="3"/></g>
<g transform="translate(675,699) scale(4.12)"><circle cx="3" cy="3" r="3"/></g>
<g transform="translate(771,699) scale(4.12)"><circle cx="3" cy="3" r="3"/></g>
<g transform="translate(819,699) scale(4.12)"><circle cx="3" cy="3" r="3"/></g>
<g transform="translate(867,699) scale(4.12)"><circle cx="3" cy="3" r="3"/></g>
<g transform="translate(363,723) scale(4.12)"><circle cx="3" cy="3" r="3"/></g>
<g transform="translate(387,723) scale(4.12)"><circle cx="3" cy="3" r="3"/></g>
<g transform="translate(459,723) scale(4.12)"><circle cx="3" cy="3" r="3"/></g>
<g transform="translate(483,723) scale(4.12)"><circle cx="3" cy="3" r="3"/></g>
<g transform="translate(531,723) scale(4.12)"><circle cx="3" cy="3" r="3"/></g>
<g transform="translate(579,723) scale(4.12)"><circle cx="3" cy="3" r="3"/></g>
<g transform="translate(651,723) scale(4.12)"><circle cx="3" cy="3" r="3"/></g>
<g transform="translate(675,723) scale(4.12)"><circle cx="3" cy="3" r="3"/></g>
<g transform="translate(723,723) scale(4.12)"><circle cx="3" cy="3" r="3"/></g>
<g transform="translate(771,723) scale(4.12)"><circle cx="3" cy="3" r="3"/></g>
<g transform="translate(819,723) scale(4.12)"><circle cx="3" cy="3" r="3"/></g>
<g transform="translate(843,723) scale(4.12)"><circle cx="3" cy="3" r="3"/></g>
<g transform="translate(291,747) scale(4.12)"><circle cx="3" cy="3" r="3"/></g>
<g transform="translate(339,747) scale(4.12)"><circle cx="3" cy="3" r="3"/></g>
<g transform="translate(363,747) scale(4.12)"><circle cx="3" cy="3" r="3"/></g>
<g transform="translate(411,747) scale(4.12)"><circle cx="3" cy="3" r="3"/></g>
<g transform="translate(459,747) scale(4.12)"><circle cx="3" cy="3" r="3"/></g>
<g transform="translate(555,747) scale(4.12)"><circle cx="3" cy="3" r="3"/></g>
<g transform="translate(579,747) scale(4.12)"><circle cx="3" cy="3" r="3"/></g>
<g transform="translate(603,747) scale(4.12)"><circle cx="3" cy="3" r="3"/></g>
<g transform="translate(627,747) scale(4.12)"><circle cx="3" cy="3" r="3"/></g>
<g transform="translate(651,747) scale(4.12)"><circle cx="3" cy="3" r="3"/></g>
<g transform="translate(675,747) scale(4.12)"><circle cx="3" cy="3" r="3"/></g>
<g transform="translate(771,747) scale(4.12)"><circle cx="3" cy="3" r="3"/></g>
<g transform="translate(795,747) scale(4.12)"><circle cx="3" cy="3" r="3"/></g>
<g transform="translate(819,747) scale(4.12)"><circle cx="3" cy="3" r="3"/></g>
<g transform="translate(843,747) scale(4.12)"><circle cx="3" cy="3" r="3"/></g>
<g transform="translate(867,747) scale(4.12)"><circle cx="3" cy="3" r="3"/></g>
<g transform="translate(291,771) scale(4.12)"><circle cx="3" cy="3" r="3"/></g>
<g transform="translate(315,771) scale(4.12)"><circle cx="3" cy="3" r="3"/></g>
<g transform="translate(363,771) scale(4.12)"><circle cx="3" cy="3" r="3"/></g>
<g transform="translate(411,771) scale(4.12)"><circle cx="3" cy="3" r="3"/></g>
<g transform="translate(435,771) scale(4.12)"><circle cx="3" cy="3" r="3"/></g>
<g transform="translate(459,771) scale(4.12)"><circle cx="3" cy="3" r="3"/></g>
<g transform="translate(531,771) scale(4.12)"><circle cx="3" cy="3" r="3"/></g>
<g transform="translate(555,771) scale(4.12)"><circle cx="3" cy="3" r="3"/></g>
<g transform="translate(579,771) scale(4.12)"><circle cx="3" cy="3" r="3"/></g>
<g transform="translate(627,771) scale(4.12)"><circle cx="3" cy="3" r="3"/></g>
<g transform="translate(675,771) scale(4.12)"><circle cx="3" cy="3" r="3"/></g>
<g transform="translate(699,771) scale(4.12)"><circle cx="3" cy="3" r="3"/></g>
<g transform="translate(723,771) scale(4.12)"><circle cx="3" cy="3" r="3"/></g>
<g transform="translate(747,771) scale(4.12)"><circle cx="3" cy="3" r="3"/></g>
<g transform="translate(771,771) scale(4.12)"><circle cx="3" cy="3" r="3"/></g>
<g transform="translate(795,771) scale(4.12)"><circle cx="3" cy="3" r="3"/></g>
<g transform="translate(843,771) scale(4.12)"><circle cx="3" cy="3" r="3"/></g>
<g transform="translate(867,771) scale(4.12)"><circle cx="3" cy="3" r="3"/></g>
<g transform="translate(291,795) scale(4.12)"><circle cx="3" cy="3" r="3"/></g>
<g transform="translate(315,795) scale(4.12)"><circle cx="3" cy="3" r="3"/></g>
<g transform="translate(411,795) scale(4.12)"><circle cx="3" cy="3" r="3"/></g>
<g transform="translate(435,795) scale(4.12)"><circle cx="3" cy="3" r="3"/></g>
<g transform="translate(459,795) scale(4.12)"><circle cx="3" cy="3" r="3"/></g>
<g transform="translate(483,795) scale(4.12)"><circle cx="3" cy="3" r="3"/></g>
<g transform="translate(555,795) scale(4.12)"><circle cx="3" cy="3" r="3"/></g>
<g transform="translate(579,795) scale(4.12)"><circle cx="3" cy="3" r="3"/></g>
<g transform="translate(603,795) scale(4.12)"><circle cx="3" cy="3" r="3"/></g>
<g transform="translate(771,795) scale(4.12)"><circle cx="3" cy="3" r="3"/></g>
<g transform="translate(819,795) scale(4.12)"><circle cx="3" cy="3" r="3"/></g>
<g transform="translate(843,795) scale(4.12)"><circle cx="3" cy="3" r="3"/></g>
<g transform="translate(867,795) scale(4.12)"><circle cx="3" cy="3" r="3"/></g>
<g transform="translate(291,819) scale(4.12)"><circle cx="3" cy="3" r="3"/></g>
<g transform="translate(387,819) scale(4.12)"><circle cx="3" cy="3" r="3"/></g>
<g transform="translate(411,819) scale(4.12)"><circle cx="3" cy="3" r="3"/></g>
<g transform="translate(507,819) scale(4.12)"><circle cx="3" cy="3" r="3"/></g>
<g transform="translate(531,819) scale(4.12)"><circle cx="3" cy="3" r="3"/></g>
<g transform="translate(651,819) scale(4.12)"><circle cx="3" cy="3" r="3"/></g>
<g transform="translate(723,819) scale(4.12)"><circle cx="3" cy="3" r="3"/></g>
<g transform="translate(747,819) scale(4.12)"><circle cx="3" cy="3" r="3"/></g>
<g transform="translate(795,819) scale(4.12)"><circle cx="3" cy="3" r="3"/></g>
<g transform="translate(339,843) scale(4.12)"><circle cx="3" cy="3" r="3"/></g>
<g transform="translate(363,843) scale(4.12)"><circle cx="3" cy="3" r="3"/></g>
<g transform="translate(435,843) scale(4.12)"><circle cx="3" cy="3" r="3"/></g>
<g transform="translate(483,843) scale(4.12)"><circle cx="3" cy="3" r="3"/></g>
<g transform="translate(579,843) scale(4.12)"><circle cx="3" cy="3" r="3"/></g>
<g transform="translate(603,843) scale(4.12)"><circle cx="3" cy="3" r="3"/></g>
<g transform="translate(651,843) scale(4.12)"><circle cx="3" cy="3" r="3"/></g>
<g transform="translate(699,843) scale(4.12)"><circle cx="3" cy="3" r="3"/></g>
<g transform="translate(723,843) scale(4.12)"><circle cx="3" cy="3" r="3"/></g>
<g transform="translate(771,843) scale(4.12)"><circle cx="3" cy="3" r="3"/></g>
<g transform="translate(795,843) scale(4.12)"><circle cx="3" cy="3" r="3"/></g>
<g transform="translate(819,843) scale(4.12)"><circle cx="3" cy="3" r="3"/></g>
<g transform="translate(291,867) scale(4.12)"><circle cx="3" cy="3" r="3"/></g>
<g transform="translate(363,867) scale(4.12)"><circle cx="3" cy="3" r="3"/></g>
<g transform="translate(411,867) scale(4.12)"><circle cx="3" cy="3" r="3"/></g>
<g transform="translate(507,867) scale(4.12)"><circle cx="3" cy="3" r="3"/></g>
<g transform="translate(555,867) scale(4.12)"><circle cx="3" cy="3" r="3"/></g>
<g transform="translate(579,867) scale(4.12)"><circle cx="3" cy="3" r="3"/></g>
<g transform="translate(603,867) scale(4.12)"><circle cx="3" cy="3" r="3"/></g>
<g transform="translate(627,867) scale(4.12)"><circle cx="3" cy="3" r="3"/></g>
<g transform="translate(651,867) scale(4.12)"><circle cx="3" cy="3" r="3"/></g>
<g transform="translate(675,867) scale(4.12)"><circle cx="3" cy="3" r="3"/></g>
<g transform="translate(699,867) scale(4.12)"><circle cx="3" cy="3" r="3"/></g>
<g transform="translate(747,867) scale(4.12)"><circle cx="3" cy="3" r="3"/></g>
<g transform="translate(795,867) scale(4.12)"><circle cx="3" cy="3" r="3"/></g>
<g transform="translate(843,867) scale(4.12)"><circle cx="3" cy="3" r="3"/></g>
<g transform="translate(99,99)"><g transform="scale(12)"><path d="M4.5,14h5.1C12,14,14,12,14,9.6V4.5C14,2,12,0,9.5,0H4.4C2,0,0,2,0,4.4v5.1C0,12,2,14,4.5,14z M12,4.8v4.4 c0,1.5-1.3,2.8-2.8,2.8H4.8C3.2,12,2,10.8,2,9.2V4.8C2,3.3,3.3,2,4.8,2h4.4C10.8,2,12,3.2,12,4.8z"/></g></g>
<g transform="translate(723,99)"><g transform="scale(12)"><path d="M4.5,14h5.1C12,14,14,12,14,9.6V4.5C14,2,12,0,9.5,0H4.4C2,0,0,2,0,4.4v5.1C0,12,2,14,4.5,14z M12,4.8v4.4 c0,1.5-1.3,2.8-2.8,2.8H4.8C3.2,12,2,10.8,2,9.2V4.8C2,3.3,3.3,2,4.8,2h4.4C10.8,2,12,3.2,12,4.8z"/></g></g>
<g transform="translate(99,723)"><g transform="scale(12)"><path d="M4.5,14h5.1C12,14,14,12,14,9.6V4.5C14,2,12,0,9.5,0H4.4C2,0,0,2,0,4.4v5.1C0,12,2,14,4.5,14z M12,4.8v4.4 c0,1.5-1.3,2.8-2.8,2.8H4.8C3.2,12,2,10.8,2,9.2V4.8C2,3.3,3.3,2,4.8,2h4.4C10.8,2,12,3.2,12,4.8z"/></g></g>
<g transform="translate(147,147)"><g transform="scale(12)"><path d="M6,1.7v2.7C6,5.2,5.2,6,4.3,6H1.7C0.7,6,0,5.3,0,4.3V1.7C0,0.8,0.8,0,1.7,0h2.7C5.3,0,6,0.7,6,1.7z"/></g></g>
<g transform="translate(771,147)"><g transform="scale(12)"><path d="M6,1.7v2.7C6,5.2,5.2,6,4.3,6H1.7C0.7,6,0,5.3,0,4.3V1.7C0,0.8,0.8,0,1.7,0h2.7C5.3,0,6,0.7,6,1.7z"/></g></g>
<g transform="translate(147,771)"><g transform="scale(12)"><path d="M6,1.7v2.7C6,5.2,5.2,6,4.3,6H1.7C0.7,6,0,5.3,0,4.3V1.7C0,0.8,0.8,0,1.7,0h2.7C5.3,0,6,0.7,6,1.7z"/></g></g>
</g></svg>
